<?xml version="1.0" encoding="UTF-8" standalone="no"?>
<!DOCTYPE svg PUBLIC "-//W3C//DTD SVG 1.1//EN"
 "http://www.w3.org/Graphics/SVG/1.1/DTD/svg11.dtd">
<!-- Generated by graphviz version 2.38.0 (20140413.2041)
 -->
<!-- Title: Modules/MFT/src/BasicTrackQcTask.cxx Pages: 1 -->
<!--zoomable 330 -->
<svg id="main" version="1.1" xmlns="http://www.w3.org/2000/svg" xmlns:xlink="http://www.w3.org/1999/xlink" xml:space="preserve" onload="init(evt)">
<style type="text/css"><![CDATA[
.edge:hover path { stroke: red; }
.edge:hover polygon { stroke: red; fill: red; }
]]></style>
<script type="text/javascript"><![CDATA[
var edges = document.getElementsByTagName('g');
if (edges && edges.length) {
  for (var i=0;i<edges.length;i++) {
    if (edges[i].id.substr(0,4)=='edge') {
      edges[i].setAttribute('class','edge');
    }
  }
}
]]></script>
        <defs>
                <circle id="rim" cx="0" cy="0" r="7"/>
                <circle id="rim2" cx="0" cy="0" r="3.5"/>
                <g id="zoomPlus">
                        <use xlink:href="#rim" fill="#404040">
                                <set attributeName="fill" to="#808080" begin="zoomplus.mouseover" end="zoomplus.mouseout"/>
                        </use>
                        <path d="M-4,0h8M0,-4v8" fill="none" stroke="white" stroke-width="1.5" pointer-events="none"/>
                </g>
                <g id="zoomMin">
                        <use xlink:href="#rim" fill="#404040">
                                <set attributeName="fill" to="#808080" begin="zoomminus.mouseover" end="zoomminus.mouseout"/>
                        </use>
                        <path d="M-4,0h8" fill="none" stroke="white" stroke-width="1.5" pointer-events="none"/>
                </g>
                <g id="dirArrow">
                        <path fill="none" stroke="white" stroke-width="1.5" d="M0,-3.0v7 M-2.5,-0.5L0,-3.0L2.5,-0.5"/>
                </g>
               <g id="resetDef">
                       <use xlink:href="#rim2" fill="#404040">
                               <set attributeName="fill" to="#808080" begin="reset.mouseover" end="reset.mouseout"/>
                       </use>
               </g>
        </defs>

<script type="text/javascript">
var viewWidth = 933;
var viewHeight = 330;
var sectionId = 'dynsection-0';
</script>
<script xlink:href="svgpan.js"/>
<svg id="graph" class="graph">
<g id="viewport">
<title>Modules/MFT/src/BasicTrackQcTask.cxx</title>
<!-- Node1 -->
<g id="node1" class="node"><title>Node1</title>
<polygon fill="#bfbfbf" stroke="black" points="250.5,-291.5 250.5,-321.5 396.5,-321.5 396.5,-291.5 250.5,-291.5"/>
<text text-anchor="start" x="258.5" y="-309.5" font-family="Helvetica,sans-Serif" font-size="10.00">Modules/MFT/src/BasicTrack</text>
<text text-anchor="middle" x="323.5" y="-298.5" font-family="Helvetica,sans-Serif" font-size="10.00">QcTask.cxx</text>
</g>
<!-- Node2 -->
<g id="node2" class="node"><title>Node2</title>
<polygon fill="none" stroke="#bfbfbf" points="0,-179.5 0,-198.5 65,-198.5 65,-179.5 0,-179.5"/>
<text text-anchor="middle" x="32.5" y="-186.5" font-family="Helvetica,sans-Serif" font-size="10.00">TCanvas.h</text>
</g>
<!-- Node1&#45;&gt;Node2 -->
<g id="edge1" class="edge"><title>Node1&#45;&gt;Node2</title>
<path fill="none" stroke="midnightblue" d="M250.323,-303.836C199.206,-299.596 131.293,-287.543 80.5,-255 62.6495,-243.563 49.1468,-222.977 41.0794,-208.03"/>
<polygon fill="midnightblue" stroke="midnightblue" points="44.0234,-206.097 36.376,-198.765 37.7816,-209.266 44.0234,-206.097"/>
</g>
<!-- Node3 -->
<g id="node3" class="node"><title>Node3</title>
<polygon fill="none" stroke="#bfbfbf" points="83.5,-179.5 83.5,-198.5 127.5,-198.5 127.5,-179.5 83.5,-179.5"/>
<text text-anchor="middle" x="105.5" y="-186.5" font-family="Helvetica,sans-Serif" font-size="10.00">TH1.h</text>
</g>
<!-- Node1&#45;&gt;Node3 -->
<g id="edge2" class="edge"><title>Node1&#45;&gt;Node3</title>
<path fill="none" stroke="midnightblue" d="M250.338,-299.6C189.413,-292.989 109.503,-279.78 89.5,-255 78.5871,-241.481 85.8767,-221.584 93.8306,-207.369"/>
<polygon fill="midnightblue" stroke="midnightblue" points="96.9753,-208.937 99.2277,-198.584 91.0109,-205.273 96.9753,-208.937"/>
</g>
<!-- Node4 -->
<g id="node4" class="node"><title>Node4</title>
<polygon fill="none" stroke="#bfbfbf" points="428.5,-179.5 428.5,-198.5 472.5,-198.5 472.5,-179.5 428.5,-179.5"/>
<text text-anchor="middle" x="450.5" y="-186.5" font-family="Helvetica,sans-Serif" font-size="10.00">TH2.h</text>
</g>
<!-- Node1&#45;&gt;Node4 -->
<g id="edge3" class="edge"><title>Node1&#45;&gt;Node4</title>
<path fill="none" stroke="midnightblue" d="M396.502,-298.972C455.053,-292.046 530.489,-278.728 549.5,-255 571.651,-227.353 519.138,-207.477 482.432,-197.435"/>
<polygon fill="midnightblue" stroke="midnightblue" points="483.133,-194.001 472.573,-194.865 481.367,-200.775 483.133,-194.001"/>
</g>
<!-- Node5 -->
<g id="node5" class="node"><title>Node5</title>
<polygon fill="none" stroke="#bfbfbf" points="248.5,-235.5 248.5,-254.5 398.5,-254.5 398.5,-235.5 248.5,-235.5"/>
<text text-anchor="middle" x="323.5" y="-242.5" font-family="Helvetica,sans-Serif" font-size="10.00">DataFormatsMFT/TrackMFT.h</text>
</g>
<!-- Node1&#45;&gt;Node5 -->
<g id="edge4" class="edge"><title>Node1&#45;&gt;Node5</title>
<path fill="none" stroke="midnightblue" d="M323.5,-291.399C323.5,-283.466 323.5,-273.458 323.5,-264.858"/>
<polygon fill="midnightblue" stroke="midnightblue" points="327,-264.658 323.5,-254.658 320,-264.658 327,-264.658"/>
</g>
<!-- Node6 -->
<g id="node6" class="node"><title>Node6</title>
<polygon fill="none" stroke="#bfbfbf" points="416,-235.5 416,-254.5 541,-254.5 541,-235.5 416,-235.5"/>
<text text-anchor="middle" x="478.5" y="-242.5" font-family="Helvetica,sans-Serif" font-size="10.00">MFTTracking/TrackCA.h</text>
</g>
<!-- Node1&#45;&gt;Node6 -->
<g id="edge5" class="edge"><title>Node1&#45;&gt;Node6</title>
<path fill="none" stroke="midnightblue" d="M360.233,-291.399C386.471,-281.327 421.425,-267.909 446.518,-258.277"/>
<polygon fill="midnightblue" stroke="midnightblue" points="447.865,-261.509 455.946,-254.658 445.356,-254.974 447.865,-261.509"/>
</g>
<!-- Node7 -->
<g id="node7" class="node"><title>Node7</title>
<g id="a_node7"><a xlink:href="QcInfoLogger_8h.html" target="_top" xlink:title="QualityControl/QcInfoLogger.h">
<polygon fill="none" stroke="black" points="597,-235.5 597,-254.5 746,-254.5 746,-235.5 597,-235.5"/>
<text text-anchor="middle" x="671.5" y="-242.5" font-family="Helvetica,sans-Serif" font-size="10.00">QualityControl/QcInfoLogger.h</text>
</a>
</g>
</g>
<!-- Node1&#45;&gt;Node7 -->
<g id="edge6" class="edge"><title>Node1&#45;&gt;Node7</title>
<path fill="none" stroke="midnightblue" d="M396.877,-292.954C460.781,-282.028 552.274,-266.385 611.785,-256.21"/>
<polygon fill="midnightblue" stroke="midnightblue" points="612.514,-259.636 621.781,-254.501 611.334,-252.736 612.514,-259.636"/>
</g>
<!-- Node9 -->
<g id="node9" class="node"><title>Node9</title>
<g id="a_node9"><a xlink:href="BasicTrackQcTask_8h.html" target="_top" xlink:title="MFT/BasicTrackQcTask.h">
<polygon fill="none" stroke="black" points="98.5,-235.5 98.5,-254.5 230.5,-254.5 230.5,-235.5 98.5,-235.5"/>
<text text-anchor="middle" x="164.5" y="-242.5" font-family="Helvetica,sans-Serif" font-size="10.00">MFT/BasicTrackQcTask.h</text>
</a>
</g>
</g>
<!-- Node1&#45;&gt;Node9 -->
<g id="edge8" class="edge"><title>Node1&#45;&gt;Node9</title>
<path fill="none" stroke="midnightblue" d="M285.819,-291.399C258.904,-281.327 223.048,-267.909 197.307,-258.277"/>
<polygon fill="midnightblue" stroke="midnightblue" points="198.228,-254.885 187.636,-254.658 195.775,-261.441 198.228,-254.885"/>
</g>
<!-- Node8 -->
<g id="node8" class="node"><title>Node8</title>
<polygon fill="none" stroke="#bfbfbf" points="606.5,-179.5 606.5,-198.5 736.5,-198.5 736.5,-179.5 606.5,-179.5"/>
<text text-anchor="middle" x="671.5" y="-186.5" font-family="Helvetica,sans-Serif" font-size="10.00">InfoLogger/InfoLogger.hxx</text>
</g>
<!-- Node7&#45;&gt;Node8 -->
<g id="edge7" class="edge"><title>Node7&#45;&gt;Node8</title>
<path fill="none" stroke="midnightblue" d="M671.5,-235.083C671.5,-228.006 671.5,-217.861 671.5,-208.986"/>
<polygon fill="midnightblue" stroke="midnightblue" points="675,-208.751 671.5,-198.751 668,-208.751 675,-208.751"/>
</g>
<!-- Node9&#45;&gt;Node2 -->
<g id="edge9" class="edge"><title>Node9&#45;&gt;Node2</title>
<path fill="none" stroke="midnightblue" d="M143.584,-235.444C121.764,-226.517 87.3502,-212.439 62.6078,-202.317"/>
<polygon fill="midnightblue" stroke="midnightblue" points="63.8987,-199.063 53.3179,-198.516 61.2482,-205.542 63.8987,-199.063"/>
</g>
<!-- Node9&#45;&gt;Node3 -->
<g id="edge10" class="edge"><title>Node9&#45;&gt;Node3</title>
<path fill="none" stroke="midnightblue" d="M155.021,-235.324C146.299,-227.341 133.157,-215.313 122.602,-205.653"/>
<polygon fill="midnightblue" stroke="midnightblue" points="124.892,-203.004 115.152,-198.834 120.166,-208.167 124.892,-203.004"/>
</g>
<!-- Node9&#45;&gt;Node4 -->
<g id="edge11" class="edge"><title>Node9&#45;&gt;Node4</title>
<path fill="none" stroke="midnightblue" d="M209.818,-235.444C267.902,-224.477 367.173,-205.733 418.169,-196.104"/>
<polygon fill="midnightblue" stroke="midnightblue" points="419.109,-199.489 428.286,-194.194 417.81,-192.61 419.109,-199.489"/>
</g>
<!-- Node10 -->
<g id="node10" class="node"><title>Node10</title>
<g id="a_node10"><a xlink:href="TaskInterface_8h.html" target="_top" xlink:title="QualityControl/TaskInterface.h">
<polygon fill="none" stroke="black" points="145.5,-179.5 145.5,-198.5 295.5,-198.5 295.5,-179.5 145.5,-179.5"/>
<text text-anchor="middle" x="220.5" y="-186.5" font-family="Helvetica,sans-Serif" font-size="10.00">QualityControl/TaskInterface.h</text>
</a>
</g>
</g>
<!-- Node9&#45;&gt;Node10 -->
<g id="edge12" class="edge"><title>Node9&#45;&gt;Node10</title>
<path fill="none" stroke="midnightblue" d="M173.497,-235.324C181.694,-227.42 194.006,-215.548 203.972,-205.938"/>
<polygon fill="midnightblue" stroke="midnightblue" points="206.57,-208.295 211.339,-198.834 201.711,-203.256 206.57,-208.295"/>
</g>
<!-- Node11 -->
<g id="node11" class="node"><title>Node11</title>
<polygon fill="none" stroke="#bfbfbf" points="245,-0.5 245,-19.5 280,-19.5 280,-0.5 245,-0.5"/>
<text text-anchor="middle" x="262.5" y="-7.5" font-family="Helvetica,sans-Serif" font-size="10.00">map</text>
</g>
<!-- Node10&#45;&gt;Node11 -->
<g id="edge13" class="edge"><title>Node10&#45;&gt;Node11</title>
<path fill="none" stroke="midnightblue" d="M177.433,-179.486C157.104,-173.074 134.677,-161.991 122.5,-143 101.629,-110.45 99.7229,-87.246 122.5,-56 148.037,-20.9681 201.292,-12.611 234.259,-10.9548"/>
<polygon fill="midnightblue" stroke="midnightblue" points="234.71,-14.4422 244.592,-10.6212 234.484,-7.4458 234.71,-14.4422"/>
</g>
<!-- Node12 -->
<g id="node12" class="node"><title>Node12</title>
<polygon fill="none" stroke="#bfbfbf" points="175.5,-62 175.5,-81 227.5,-81 227.5,-62 175.5,-62"/>
<text text-anchor="middle" x="201.5" y="-69" font-family="Helvetica,sans-Serif" font-size="10.00">memory</text>
</g>
<!-- Node10&#45;&gt;Node12 -->
<g id="edge14" class="edge"><title>Node10&#45;&gt;Node12</title>
<path fill="none" stroke="midnightblue" d="M213.349,-179.364C206.727,-170.763 197.343,-156.873 193.5,-143 188.731,-125.783 191.933,-105.447 195.605,-91.0511"/>
<polygon fill="midnightblue" stroke="midnightblue" points="198.995,-91.9279 198.381,-81.3508 192.265,-90.0022 198.995,-91.9279"/>
</g>
<!-- Node13 -->
<g id="node13" class="node"><title>Node13</title>
<polygon fill="none" stroke="#bfbfbf" points="330,-0.5 330,-19.5 371,-19.5 371,-0.5 330,-0.5"/>
<text text-anchor="middle" x="350.5" y="-7.5" font-family="Helvetica,sans-Serif" font-size="10.00">string</text>
</g>
<!-- Node10&#45;&gt;Node13 -->
<g id="edge15" class="edge"><title>Node10&#45;&gt;Node13</title>
<path fill="none" stroke="midnightblue" d="M211.521,-179.452C189.164,-157.146 135.008,-96.1226 166.5,-56 176.002,-43.8943 269.983,-25.4328 319.822,-16.3824"/>
<polygon fill="midnightblue" stroke="midnightblue" points="320.517,-19.8136 329.74,-14.5997 319.279,-12.924 320.517,-19.8136"/>
</g>
<!-- Node14 -->
<g id="node14" class="node"><title>Node14</title>
<polygon fill="none" stroke="#bfbfbf" points="80,-0.5 80,-19.5 163,-19.5 163,-0.5 80,-0.5"/>
<text text-anchor="middle" x="121.5" y="-7.5" font-family="Helvetica,sans-Serif" font-size="10.00">unordered_map</text>
</g>
<!-- Node10&#45;&gt;Node14 -->
<g id="edge16" class="edge"><title>Node10&#45;&gt;Node14</title>
<path fill="none" stroke="midnightblue" d="M167.761,-179.473C145.908,-173.143 122.451,-162.133 108.5,-143 83.7178,-109.013 100.92,-56.3226 112.81,-28.9237"/>
<polygon fill="midnightblue" stroke="midnightblue" points="116.028,-30.3022 117.008,-19.7528 109.663,-27.3886 116.028,-30.3022"/>
</g>
<!-- Node15 -->
<g id="node15" class="node"><title>Node15</title>
<polygon fill="none" stroke="#bfbfbf" points="203,-123.5 203,-142.5 328,-142.5 328,-123.5 203,-123.5"/>
<text text-anchor="middle" x="265.5" y="-130.5" font-family="Helvetica,sans-Serif" font-size="10.00">Framework/InitContext.h</text>
</g>
<!-- Node10&#45;&gt;Node15 -->
<g id="edge17" class="edge"><title>Node10&#45;&gt;Node15</title>
<path fill="none" stroke="midnightblue" d="M227.931,-179.083C234.353,-171.377 243.806,-160.033 251.622,-150.653"/>
<polygon fill="midnightblue" stroke="midnightblue" points="254.494,-152.674 258.207,-142.751 249.117,-148.193 254.494,-152.674"/>
</g>
<!-- Node16 -->
<g id="node16" class="node"><title>Node16</title>
<polygon fill="none" stroke="#bfbfbf" points="346.5,-123.5 346.5,-142.5 506.5,-142.5 506.5,-123.5 346.5,-123.5"/>
<text text-anchor="middle" x="426.5" y="-130.5" font-family="Helvetica,sans-Serif" font-size="10.00">Framework/ProcessingContext.h</text>
</g>
<!-- Node10&#45;&gt;Node16 -->
<g id="edge18" class="edge"><title>Node10&#45;&gt;Node16</title>
<path fill="none" stroke="midnightblue" d="M253.141,-179.444C288.55,-170.162 345.209,-155.309 384.053,-145.127"/>
<polygon fill="midnightblue" stroke="midnightblue" points="385.226,-148.438 394.011,-142.516 383.451,-141.667 385.226,-148.438"/>
</g>
<!-- Node17 -->
<g id="node17" class="node"><title>Node17</title>
<g id="a_node17"><a xlink:href="Activity_8h.html" target="_top" xlink:title="QualityControl/Activity.h">
<polygon fill="none" stroke="black" points="525,-123.5 525,-142.5 648,-142.5 648,-123.5 525,-123.5"/>
<text text-anchor="middle" x="586.5" y="-130.5" font-family="Helvetica,sans-Serif" font-size="10.00">QualityControl/Activity.h</text>
</a>
</g>
</g>
<!-- Node10&#45;&gt;Node17 -->
<g id="edge19" class="edge"><title>Node10&#45;&gt;Node17</title>
<path fill="none" stroke="midnightblue" d="M278.494,-179.444C343.814,-169.806 449.837,-154.163 518.87,-143.978"/>
<polygon fill="midnightblue" stroke="midnightblue" points="519.396,-147.439 528.778,-142.516 518.374,-140.514 519.396,-147.439"/>
</g>
<!-- Node18 -->
<g id="node18" class="node"><title>Node18</title>
<g id="a_node18"><a xlink:href="ObjectsManager_8h.html" target="_top" xlink:title="QualityControl/ObjectsManager.h">
<polygon fill="none" stroke="black" points="666,-123.5 666,-142.5 827,-142.5 827,-123.5 666,-123.5"/>
<text text-anchor="middle" x="746.5" y="-130.5" font-family="Helvetica,sans-Serif" font-size="10.00">QualityControl/ObjectsManager.h</text>
</a>
</g>
</g>
<!-- Node10&#45;&gt;Node18 -->
<g id="edge20" class="edge"><title>Node10&#45;&gt;Node18</title>
<path fill="none" stroke="midnightblue" d="M295.583,-180.292C390.494,-170.548 553.749,-153.788 655.605,-143.331"/>
<polygon fill="midnightblue" stroke="midnightblue" points="655.981,-146.811 665.572,-142.308 655.266,-139.848 655.981,-146.811"/>
</g>
<!-- Node18&#45;&gt;Node12 -->
<g id="edge34" class="edge"><title>Node18&#45;&gt;Node12</title>
<path fill="none" stroke="midnightblue" d="M665.552,-123.855C662.496,-123.564 659.471,-123.278 656.5,-123 472.607,-105.811 423.007,-126.103 242.5,-87 239.076,-86.2582 235.546,-85.3089 232.061,-84.2516"/>
<polygon fill="midnightblue" stroke="midnightblue" points="233.077,-80.9013 222.484,-81.0689 230.87,-87.5441 233.077,-80.9013"/>
</g>
<!-- Node18&#45;&gt;Node13 -->
<g id="edge33" class="edge"><title>Node18&#45;&gt;Node13</title>
<path fill="none" stroke="midnightblue" d="M673.391,-123.499C589.116,-113.357 459.45,-96.5756 438.5,-87 434.356,-85.1057 392.269,-48.0657 367.832,-26.4071"/>
<polygon fill="midnightblue" stroke="midnightblue" points="370.104,-23.7443 360.302,-19.7247 365.458,-28.98 370.104,-23.7443"/>
</g>
<!-- Node19 -->
<g id="node19" class="node"><title>Node19</title>
<g id="a_node19"><a xlink:href="MonitorObject_8h.html" target="_top" xlink:title="QualityControl/MonitorObject.h">
<polygon fill="none" stroke="black" points="448,-62 448,-81 599,-81 599,-62 448,-62"/>
<text text-anchor="middle" x="523.5" y="-69" font-family="Helvetica,sans-Serif" font-size="10.00">QualityControl/MonitorObject.h</text>
</a>
</g>
</g>
<!-- Node18&#45;&gt;Node19 -->
<g id="edge21" class="edge"><title>Node18&#45;&gt;Node19</title>
<path fill="none" stroke="midnightblue" d="M714.55,-123.475C675.304,-113.004 608.622,-95.2118 565.327,-83.6601"/>
<polygon fill="midnightblue" stroke="midnightblue" points="565.956,-80.2054 555.391,-81.0091 564.151,-86.9688 565.956,-80.2054"/>
</g>
<!-- Node23 -->
<g id="node23" class="node"><title>Node23</title>
<g id="a_node23"><a xlink:href="MonitorObjectCollection_8h.html" target="_top" xlink:title="QualityControl/MonitorObject\lCollection.h">
<polygon fill="none" stroke="black" points="675,-56.5 675,-86.5 818,-86.5 818,-56.5 675,-56.5"/>
<text text-anchor="start" x="683" y="-74.5" font-family="Helvetica,sans-Serif" font-size="10.00">QualityControl/MonitorObject</text>
<text text-anchor="middle" x="746.5" y="-63.5" font-family="Helvetica,sans-Serif" font-size="10.00">Collection.h</text>
</a>
</g>
</g>
<!-- Node18&#45;&gt;Node23 -->
<g id="edge27" class="edge"><title>Node18&#45;&gt;Node23</title>
<path fill="none" stroke="midnightblue" d="M746.5,-123.475C746.5,-116.471 746.5,-106.192 746.5,-96.6956"/>
<polygon fill="midnightblue" stroke="midnightblue" points="750,-96.5229 746.5,-86.523 743,-96.523 750,-96.5229"/>
</g>
<!-- Node26 -->
<g id="node26" class="node"><title>Node26</title>
<g id="a_node26"><a xlink:href="TaskConfig_8h.html" target="_top" xlink:title="QualityControl/TaskConfig.h">
<polygon fill="none" stroke="black" points="251.5,-62 251.5,-81 391.5,-81 391.5,-62 251.5,-62"/>
<text text-anchor="middle" x="321.5" y="-69" font-family="Helvetica,sans-Serif" font-size="10.00">QualityControl/TaskConfig.h</text>
</a>
</g>
</g>
<!-- Node18&#45;&gt;Node26 -->
<g id="edge30" class="edge"><title>Node18&#45;&gt;Node26</title>
<path fill="none" stroke="midnightblue" d="M675.523,-123.467C606.465,-114.969 498.627,-101.177 405.5,-87 396.89,-85.6893 387.799,-84.2149 378.904,-82.7213"/>
<polygon fill="midnightblue" stroke="midnightblue" points="379.425,-79.2598 368.98,-81.0346 378.252,-86.1608 379.425,-79.2598"/>
</g>
<!-- Node19&#45;&gt;Node11 -->
<g id="edge23" class="edge"><title>Node19&#45;&gt;Node11</title>
<path fill="none" stroke="midnightblue" d="M486.105,-61.9751C433.032,-49.8761 337.091,-28.0045 290.034,-17.277"/>
<polygon fill="midnightblue" stroke="midnightblue" points="290.764,-13.8536 280.236,-15.0433 289.208,-20.6785 290.764,-13.8536"/>
</g>
<!-- Node19&#45;&gt;Node13 -->
<g id="edge22" class="edge"><title>Node19&#45;&gt;Node13</title>
<path fill="none" stroke="midnightblue" d="M498.713,-61.9751C467.639,-51.2877 414.394,-32.975 380.895,-21.4536"/>
<polygon fill="midnightblue" stroke="midnightblue" points="381.773,-18.0547 371.179,-18.112 379.497,-24.6741 381.773,-18.0547"/>
</g>
<!-- Node20 -->
<g id="node20" class="node"><title>Node20</title>
<polygon fill="none" stroke="#bfbfbf" points="419.5,-0.5 419.5,-19.5 475.5,-19.5 475.5,-0.5 419.5,-0.5"/>
<text text-anchor="middle" x="447.5" y="-7.5" font-family="Helvetica,sans-Serif" font-size="10.00">Rtypes.h</text>
</g>
<!-- Node19&#45;&gt;Node20 -->
<g id="edge24" class="edge"><title>Node19&#45;&gt;Node20</title>
<path fill="none" stroke="midnightblue" d="M512.611,-61.9751C500.534,-52.5199 480.833,-37.0961 466.26,-25.6871"/>
<polygon fill="midnightblue" stroke="midnightblue" points="468.4,-22.9177 458.369,-19.5091 464.085,-28.4295 468.4,-22.9177"/>
</g>
<!-- Node21 -->
<g id="node21" class="node"><title>Node21</title>
<polygon fill="none" stroke="#bfbfbf" points="494,-0.5 494,-19.5 553,-19.5 553,-0.5 494,-0.5"/>
<text text-anchor="middle" x="523.5" y="-7.5" font-family="Helvetica,sans-Serif" font-size="10.00">TObject.h</text>
</g>
<!-- Node19&#45;&gt;Node21 -->
<g id="edge25" class="edge"><title>Node19&#45;&gt;Node21</title>
<path fill="none" stroke="midnightblue" d="M523.5,-61.9751C523.5,-53.5803 523.5,-40.4806 523.5,-29.6631"/>
<polygon fill="midnightblue" stroke="midnightblue" points="527,-29.5091 523.5,-19.5091 520,-29.5091 527,-29.5091"/>
</g>
<!-- Node22 -->
<g id="node22" class="node"><title>Node22</title>
<polygon fill="none" stroke="#bfbfbf" points="571.5,-0.5 571.5,-19.5 687.5,-19.5 687.5,-0.5 571.5,-0.5"/>
<text text-anchor="middle" x="629.5" y="-7.5" font-family="Helvetica,sans-Serif" font-size="10.00">Common/Exceptions.h</text>
</g>
<!-- Node19&#45;&gt;Node22 -->
<g id="edge26" class="edge"><title>Node19&#45;&gt;Node22</title>
<path fill="none" stroke="midnightblue" d="M538.687,-61.9751C556.162,-52.1664 585.079,-35.9346 605.583,-24.425"/>
<polygon fill="midnightblue" stroke="midnightblue" points="607.334,-27.456 614.341,-19.5091 603.908,-21.3519 607.334,-27.456"/>
</g>
<!-- Node24 -->
<g id="node24" class="node"><title>Node24</title>
<polygon fill="none" stroke="#bfbfbf" points="709,-0.5 709,-19.5 778,-19.5 778,-0.5 709,-0.5"/>
<text text-anchor="middle" x="743.5" y="-7.5" font-family="Helvetica,sans-Serif" font-size="10.00">TObjArray.h</text>
</g>
<!-- Node23&#45;&gt;Node24 -->
<g id="edge28" class="edge"><title>Node23&#45;&gt;Node24</title>
<path fill="none" stroke="midnightblue" d="M745.789,-56.3993C745.389,-48.4664 744.884,-38.458 744.451,-29.8583"/>
<polygon fill="midnightblue" stroke="midnightblue" points="747.936,-29.4688 743.937,-19.6578 740.945,-29.8214 747.936,-29.4688"/>
</g>
<!-- Node25 -->
<g id="node25" class="node"><title>Node25</title>
<polygon fill="none" stroke="#bfbfbf" points="796.5,-0.5 796.5,-19.5 924.5,-19.5 924.5,-0.5 796.5,-0.5"/>
<text text-anchor="middle" x="860.5" y="-7.5" font-family="Helvetica,sans-Serif" font-size="10.00">Mergers/MergeInterface.h</text>
</g>
<!-- Node23&#45;&gt;Node25 -->
<g id="edge29" class="edge"><title>Node23&#45;&gt;Node25</title>
<path fill="none" stroke="midnightblue" d="M773.516,-56.3993C792.131,-46.6837 816.71,-33.8551 834.991,-24.3137"/>
<polygon fill="midnightblue" stroke="midnightblue" points="836.666,-27.3876 843.912,-19.6578 833.427,-21.182 836.666,-27.3876"/>
</g>
<!-- Node26&#45;&gt;Node13 -->
<g id="edge31" class="edge"><title>Node26&#45;&gt;Node13</title>
<path fill="none" stroke="midnightblue" d="M325.655,-61.9751C329.876,-53.3152 336.537,-39.6486 341.9,-28.6453"/>
<polygon fill="midnightblue" stroke="midnightblue" points="345.118,-30.0317 346.353,-19.5091 338.825,-26.9648 345.118,-30.0317"/>
</g>
<!-- Node26&#45;&gt;Node14 -->
<g id="edge32" class="edge"><title>Node26&#45;&gt;Node14</title>
<path fill="none" stroke="midnightblue" d="M292.845,-61.9751C257.944,-51.592 198.85,-34.0116 160,-22.4538"/>
<polygon fill="midnightblue" stroke="midnightblue" points="160.685,-19.0059 150.102,-19.5091 158.689,-25.7153 160.685,-19.0059"/>
</g>
</g>
</svg>
        <g id="navigator" transform="translate(0 0)" fill="#404254">
                <rect fill="#f2f5e9" fill-opacity="0.5" stroke="#606060" stroke-width=".5" x="0" y="0" width="60" height="60"/>
                <use id="zoomplus" xlink:href="#zoomPlus" x="17" y="9" onmousedown="handleZoom(evt,'in')"/>
                <use id="zoomminus" xlink:href="#zoomMin" x="42" y="9" onmousedown="handleZoom(evt,'out')"/>
                <use id="reset" xlink:href="#resetDef" x="30" y="36" onmousedown="handleReset()"/>
                <g id="arrowUp" xlink:href="#dirArrow" transform="translate(30 24)" onmousedown="handlePan(0,-1)">
                  <use xlink:href="#rim" fill="#404040">
                        <set attributeName="fill" to="#808080" begin="arrowUp.mouseover" end="arrowUp.mouseout"/>
                  </use>
                  <path fill="none" stroke="white" stroke-width="1.5" d="M0,-3.0v7 M-2.5,-0.5L0,-3.0L2.5,-0.5"/>
                </g>
                <g id="arrowRight" xlink:href="#dirArrow" transform="rotate(90) translate(36 -43)" onmousedown="handlePan(1,0)">
                  <use xlink:href="#rim" fill="#404040">
                        <set attributeName="fill" to="#808080" begin="arrowRight.mouseover" end="arrowRight.mouseout"/>
                  </use>
                  <path fill="none" stroke="white" stroke-width="1.5" d="M0,-3.0v7 M-2.5,-0.5L0,-3.0L2.5,-0.5"/>
                </g>
                <g id="arrowDown" xlink:href="#dirArrow" transform="rotate(180) translate(-30 -48)" onmousedown="handlePan(0,1)">
                  <use xlink:href="#rim" fill="#404040">
                        <set attributeName="fill" to="#808080" begin="arrowDown.mouseover" end="arrowDown.mouseout"/>
                  </use>
                  <path fill="none" stroke="white" stroke-width="1.5" d="M0,-3.0v7 M-2.5,-0.5L0,-3.0L2.5,-0.5"/>
                </g>
                <g id="arrowLeft" xlink:href="#dirArrow" transform="rotate(270) translate(-36 17)" onmousedown="handlePan(-1,0)">
                  <use xlink:href="#rim" fill="#404040">
                        <set attributeName="fill" to="#808080" begin="arrowLeft.mouseover" end="arrowLeft.mouseout"/>
                  </use>
                  <path fill="none" stroke="white" stroke-width="1.5" d="M0,-3.0v7 M-2.5,-0.5L0,-3.0L2.5,-0.5"/>
                </g>
        </g>
        <svg viewBox="0 0 15 15" width="100%" height="30px" preserveAspectRatio="xMaxYMin meet">
         <g id="arrow_out" transform="scale(0.3 0.3)">
          <a xlink:href="BasicTrackQcTask_8cxx__incl_org.svg" target="_base">
           <rect id="button" ry="5" rx="5" y="6" x="6" height="38" width="38"
                fill="#f2f5e9" fill-opacity="0.5" stroke="#606060" stroke-width="1.0"/>
           <path id="arrow"
             d="M 11.500037,31.436501 C 11.940474,20.09759 22.043105,11.32322 32.158766,21.979434 L 37.068811,17.246167 C 37.068811,17.246167 37.088388,32 37.088388,32 L 22.160133,31.978069 C 22.160133,31.978069 26.997745,27.140456 26.997745,27.140456 C 18.528582,18.264221 13.291696,25.230495 11.500037,31.436501 z"
             style="fill:#404040;"/>
          </a>
         </g>
        </svg>
</svg>
