<?xml version="1.0" encoding="UTF-8" standalone="no"?>
<!DOCTYPE svg PUBLIC "-//W3C//DTD SVG 1.1//EN"
 "http://www.w3.org/Graphics/SVG/1.1/DTD/svg11.dtd">
<!-- Generated by graphviz version 2.38.0 (20140413.2041)
 -->
<!-- Title: Modules/MFT/include/MFT/BasicTrackQcTask.h Pages: 1 -->
<svg width="995pt" height="274pt"
 viewBox="0.00 0.00 994.50 274.00" xmlns="http://www.w3.org/2000/svg" xmlns:xlink="http://www.w3.org/1999/xlink">
<g id="graph0" class="graph" transform="scale(1 1) rotate(0) translate(4 270)">
<title>Modules/MFT/include/MFT/BasicTrackQcTask.h</title>
<!-- Node1 -->
<g id="node1" class="node"><title>Node1</title>
<polygon fill="#bfbfbf" stroke="black" points="69,-235.5 69,-265.5 204,-265.5 204,-235.5 69,-235.5"/>
<text text-anchor="start" x="77" y="-253.5" font-family="Helvetica,sans-Serif" font-size="10.00">Modules/MFT/include</text>
<text text-anchor="middle" x="136.5" y="-242.5" font-family="Helvetica,sans-Serif" font-size="10.00">/MFT/BasicTrackQcTask.h</text>
</g>
<!-- Node2 -->
<g id="node2" class="node"><title>Node2</title>
<polygon fill="none" stroke="#bfbfbf" points="0,-179.5 0,-198.5 65,-198.5 65,-179.5 0,-179.5"/>
<text text-anchor="middle" x="32.5" y="-186.5" font-family="Helvetica,sans-Serif" font-size="10.00">TCanvas.h</text>
</g>
<!-- Node1&#45;&gt;Node2 -->
<g id="edge1" class="edge"><title>Node1&#45;&gt;Node2</title>
<path fill="none" stroke="midnightblue" d="M111.853,-235.399C95.183,-225.862 73.2694,-213.325 56.6948,-203.842"/>
<polygon fill="midnightblue" stroke="midnightblue" points="58.0509,-200.586 47.6329,-198.658 54.5747,-206.662 58.0509,-200.586"/>
</g>
<!-- Node3 -->
<g id="node3" class="node"><title>Node3</title>
<polygon fill="none" stroke="#bfbfbf" points="83.5,-179.5 83.5,-198.5 127.5,-198.5 127.5,-179.5 83.5,-179.5"/>
<text text-anchor="middle" x="105.5" y="-186.5" font-family="Helvetica,sans-Serif" font-size="10.00">TH1.h</text>
</g>
<!-- Node1&#45;&gt;Node3 -->
<g id="edge2" class="edge"><title>Node1&#45;&gt;Node3</title>
<path fill="none" stroke="midnightblue" d="M129.153,-235.399C124.835,-227.11 119.335,-216.554 114.726,-207.708"/>
<polygon fill="midnightblue" stroke="midnightblue" points="117.735,-205.909 110.011,-198.658 111.527,-209.144 117.735,-205.909"/>
</g>
<!-- Node4 -->
<g id="node4" class="node"><title>Node4</title>
<polygon fill="none" stroke="#bfbfbf" points="145.5,-179.5 145.5,-198.5 189.5,-198.5 189.5,-179.5 145.5,-179.5"/>
<text text-anchor="middle" x="167.5" y="-186.5" font-family="Helvetica,sans-Serif" font-size="10.00">TH2.h</text>
</g>
<!-- Node1&#45;&gt;Node4 -->
<g id="edge3" class="edge"><title>Node1&#45;&gt;Node4</title>
<path fill="none" stroke="midnightblue" d="M143.847,-235.399C148.165,-227.11 153.665,-216.554 158.274,-207.708"/>
<polygon fill="midnightblue" stroke="midnightblue" points="161.473,-209.144 162.989,-198.658 155.265,-205.909 161.473,-209.144"/>
</g>
<!-- Node5 -->
<g id="node5" class="node"><title>Node5</title>
<g id="a_node5"><a xlink:href="TaskInterface_8h.html" target="_top" xlink:title="QualityControl/TaskInterface.h">
<polygon fill="none" stroke="black" points="207.5,-179.5 207.5,-198.5 357.5,-198.5 357.5,-179.5 207.5,-179.5"/>
<text text-anchor="middle" x="282.5" y="-186.5" font-family="Helvetica,sans-Serif" font-size="10.00">QualityControl/TaskInterface.h</text>
</a>
</g>
</g>
<!-- Node1&#45;&gt;Node5 -->
<g id="edge4" class="edge"><title>Node1&#45;&gt;Node5</title>
<path fill="none" stroke="midnightblue" d="M171.1,-235.399C195.596,-225.416 228.157,-212.147 251.745,-202.534"/>
<polygon fill="midnightblue" stroke="midnightblue" points="253.316,-205.673 261.256,-198.658 250.674,-199.191 253.316,-205.673"/>
</g>
<!-- Node6 -->
<g id="node6" class="node"><title>Node6</title>
<polygon fill="none" stroke="#bfbfbf" points="307,-0.5 307,-19.5 342,-19.5 342,-0.5 307,-0.5"/>
<text text-anchor="middle" x="324.5" y="-7.5" font-family="Helvetica,sans-Serif" font-size="10.00">map</text>
</g>
<!-- Node5&#45;&gt;Node6 -->
<g id="edge5" class="edge"><title>Node5&#45;&gt;Node6</title>
<path fill="none" stroke="midnightblue" d="M239.433,-179.486C219.104,-173.074 196.677,-161.991 184.5,-143 163.629,-110.45 161.723,-87.246 184.5,-56 210.037,-20.9681 263.292,-12.611 296.259,-10.9548"/>
<polygon fill="midnightblue" stroke="midnightblue" points="296.71,-14.4422 306.592,-10.6212 296.484,-7.4458 296.71,-14.4422"/>
</g>
<!-- Node7 -->
<g id="node7" class="node"><title>Node7</title>
<polygon fill="none" stroke="#bfbfbf" points="237.5,-62 237.5,-81 289.5,-81 289.5,-62 237.5,-62"/>
<text text-anchor="middle" x="263.5" y="-69" font-family="Helvetica,sans-Serif" font-size="10.00">memory</text>
</g>
<!-- Node5&#45;&gt;Node7 -->
<g id="edge6" class="edge"><title>Node5&#45;&gt;Node7</title>
<path fill="none" stroke="midnightblue" d="M275.349,-179.364C268.727,-170.763 259.343,-156.873 255.5,-143 250.731,-125.783 253.933,-105.447 257.605,-91.0511"/>
<polygon fill="midnightblue" stroke="midnightblue" points="260.995,-91.9279 260.381,-81.3508 254.265,-90.0022 260.995,-91.9279"/>
</g>
<!-- Node8 -->
<g id="node8" class="node"><title>Node8</title>
<polygon fill="none" stroke="#bfbfbf" points="392,-0.5 392,-19.5 433,-19.5 433,-0.5 392,-0.5"/>
<text text-anchor="middle" x="412.5" y="-7.5" font-family="Helvetica,sans-Serif" font-size="10.00">string</text>
</g>
<!-- Node5&#45;&gt;Node8 -->
<g id="edge7" class="edge"><title>Node5&#45;&gt;Node8</title>
<path fill="none" stroke="midnightblue" d="M273.521,-179.452C251.164,-157.146 197.008,-96.1226 228.5,-56 238.002,-43.8943 331.983,-25.4328 381.822,-16.3824"/>
<polygon fill="midnightblue" stroke="midnightblue" points="382.517,-19.8136 391.74,-14.5997 381.279,-12.924 382.517,-19.8136"/>
</g>
<!-- Node9 -->
<g id="node9" class="node"><title>Node9</title>
<polygon fill="none" stroke="#bfbfbf" points="142,-0.5 142,-19.5 225,-19.5 225,-0.5 142,-0.5"/>
<text text-anchor="middle" x="183.5" y="-7.5" font-family="Helvetica,sans-Serif" font-size="10.00">unordered_map</text>
</g>
<!-- Node5&#45;&gt;Node9 -->
<g id="edge8" class="edge"><title>Node5&#45;&gt;Node9</title>
<path fill="none" stroke="midnightblue" d="M229.761,-179.473C207.908,-173.143 184.451,-162.133 170.5,-143 145.718,-109.013 162.92,-56.3226 174.81,-28.9237"/>
<polygon fill="midnightblue" stroke="midnightblue" points="178.028,-30.3022 179.008,-19.7528 171.663,-27.3886 178.028,-30.3022"/>
</g>
<!-- Node10 -->
<g id="node10" class="node"><title>Node10</title>
<polygon fill="none" stroke="#bfbfbf" points="265,-123.5 265,-142.5 390,-142.5 390,-123.5 265,-123.5"/>
<text text-anchor="middle" x="327.5" y="-130.5" font-family="Helvetica,sans-Serif" font-size="10.00">Framework/InitContext.h</text>
</g>
<!-- Node5&#45;&gt;Node10 -->
<g id="edge9" class="edge"><title>Node5&#45;&gt;Node10</title>
<path fill="none" stroke="midnightblue" d="M289.931,-179.083C296.353,-171.377 305.806,-160.033 313.622,-150.653"/>
<polygon fill="midnightblue" stroke="midnightblue" points="316.494,-152.674 320.207,-142.751 311.117,-148.193 316.494,-152.674"/>
</g>
<!-- Node11 -->
<g id="node11" class="node"><title>Node11</title>
<polygon fill="none" stroke="#bfbfbf" points="408.5,-123.5 408.5,-142.5 568.5,-142.5 568.5,-123.5 408.5,-123.5"/>
<text text-anchor="middle" x="488.5" y="-130.5" font-family="Helvetica,sans-Serif" font-size="10.00">Framework/ProcessingContext.h</text>
</g>
<!-- Node5&#45;&gt;Node11 -->
<g id="edge10" class="edge"><title>Node5&#45;&gt;Node11</title>
<path fill="none" stroke="midnightblue" d="M315.141,-179.444C350.55,-170.162 407.209,-155.309 446.053,-145.127"/>
<polygon fill="midnightblue" stroke="midnightblue" points="447.226,-148.438 456.011,-142.516 445.451,-141.667 447.226,-148.438"/>
</g>
<!-- Node12 -->
<g id="node12" class="node"><title>Node12</title>
<g id="a_node12"><a xlink:href="Activity_8h.html" target="_top" xlink:title="QualityControl/Activity.h">
<polygon fill="none" stroke="black" points="587,-123.5 587,-142.5 710,-142.5 710,-123.5 587,-123.5"/>
<text text-anchor="middle" x="648.5" y="-130.5" font-family="Helvetica,sans-Serif" font-size="10.00">QualityControl/Activity.h</text>
</a>
</g>
</g>
<!-- Node5&#45;&gt;Node12 -->
<g id="edge11" class="edge"><title>Node5&#45;&gt;Node12</title>
<path fill="none" stroke="midnightblue" d="M340.494,-179.444C405.814,-169.806 511.837,-154.163 580.87,-143.978"/>
<polygon fill="midnightblue" stroke="midnightblue" points="581.396,-147.439 590.778,-142.516 580.374,-140.514 581.396,-147.439"/>
</g>
<!-- Node13 -->
<g id="node13" class="node"><title>Node13</title>
<g id="a_node13"><a xlink:href="ObjectsManager_8h.html" target="_top" xlink:title="QualityControl/ObjectsManager.h">
<polygon fill="none" stroke="black" points="728,-123.5 728,-142.5 889,-142.5 889,-123.5 728,-123.5"/>
<text text-anchor="middle" x="808.5" y="-130.5" font-family="Helvetica,sans-Serif" font-size="10.00">QualityControl/ObjectsManager.h</text>
</a>
</g>
</g>
<!-- Node5&#45;&gt;Node13 -->
<g id="edge12" class="edge"><title>Node5&#45;&gt;Node13</title>
<path fill="none" stroke="midnightblue" d="M357.583,-180.292C452.494,-170.548 615.749,-153.788 717.605,-143.331"/>
<polygon fill="midnightblue" stroke="midnightblue" points="717.981,-146.811 727.572,-142.308 717.266,-139.848 717.981,-146.811"/>
</g>
<!-- Node13&#45;&gt;Node7 -->
<g id="edge26" class="edge"><title>Node13&#45;&gt;Node7</title>
<path fill="none" stroke="midnightblue" d="M727.975,-123.805C725.115,-123.531 722.283,-123.261 719.5,-123 535.174,-105.686 485.444,-126.178 304.5,-87 301.076,-86.2586 297.545,-85.3094 294.06,-84.2523"/>
<polygon fill="midnightblue" stroke="midnightblue" points="295.077,-80.902 284.483,-81.0698 292.869,-87.5448 295.077,-80.902"/>
</g>
<!-- Node13&#45;&gt;Node8 -->
<g id="edge25" class="edge"><title>Node13&#45;&gt;Node8</title>
<path fill="none" stroke="midnightblue" d="M735.391,-123.499C651.116,-113.357 521.45,-96.5756 500.5,-87 496.356,-85.1057 454.269,-48.0657 429.832,-26.4071"/>
<polygon fill="midnightblue" stroke="midnightblue" points="432.104,-23.7443 422.302,-19.7247 427.458,-28.98 432.104,-23.7443"/>
</g>
<!-- Node14 -->
<g id="node14" class="node"><title>Node14</title>
<g id="a_node14"><a xlink:href="MonitorObject_8h.html" target="_top" xlink:title="QualityControl/MonitorObject.h">
<polygon fill="none" stroke="black" points="510,-62 510,-81 661,-81 661,-62 510,-62"/>
<text text-anchor="middle" x="585.5" y="-69" font-family="Helvetica,sans-Serif" font-size="10.00">QualityControl/MonitorObject.h</text>
</a>
</g>
</g>
<!-- Node13&#45;&gt;Node14 -->
<g id="edge13" class="edge"><title>Node13&#45;&gt;Node14</title>
<path fill="none" stroke="midnightblue" d="M776.55,-123.475C737.304,-113.004 670.622,-95.2118 627.327,-83.6601"/>
<polygon fill="midnightblue" stroke="midnightblue" points="627.956,-80.2054 617.391,-81.0091 626.151,-86.9688 627.956,-80.2054"/>
</g>
<!-- Node18 -->
<g id="node18" class="node"><title>Node18</title>
<g id="a_node18"><a xlink:href="MonitorObjectCollection_8h.html" target="_top" xlink:title="QualityControl/MonitorObject\lCollection.h">
<polygon fill="none" stroke="black" points="737,-56.5 737,-86.5 880,-86.5 880,-56.5 737,-56.5"/>
<text text-anchor="start" x="745" y="-74.5" font-family="Helvetica,sans-Serif" font-size="10.00">QualityControl/MonitorObject</text>
<text text-anchor="middle" x="808.5" y="-63.5" font-family="Helvetica,sans-Serif" font-size="10.00">Collection.h</text>
</a>
</g>
</g>
<!-- Node13&#45;&gt;Node18 -->
<g id="edge19" class="edge"><title>Node13&#45;&gt;Node18</title>
<path fill="none" stroke="midnightblue" d="M808.5,-123.475C808.5,-116.471 808.5,-106.192 808.5,-96.6956"/>
<polygon fill="midnightblue" stroke="midnightblue" points="812,-96.5229 808.5,-86.523 805,-96.523 812,-96.5229"/>
</g>
<!-- Node21 -->
<g id="node21" class="node"><title>Node21</title>
<g id="a_node21"><a xlink:href="TaskConfig_8h.html" target="_top" xlink:title="QualityControl/TaskConfig.h">
<polygon fill="none" stroke="black" points="313.5,-62 313.5,-81 453.5,-81 453.5,-62 313.5,-62"/>
<text text-anchor="middle" x="383.5" y="-69" font-family="Helvetica,sans-Serif" font-size="10.00">QualityControl/TaskConfig.h</text>
</a>
</g>
</g>
<!-- Node13&#45;&gt;Node21 -->
<g id="edge22" class="edge"><title>Node13&#45;&gt;Node21</title>
<path fill="none" stroke="midnightblue" d="M737.523,-123.467C668.465,-114.969 560.627,-101.177 467.5,-87 458.89,-85.6893 449.799,-84.2149 440.904,-82.7213"/>
<polygon fill="midnightblue" stroke="midnightblue" points="441.425,-79.2598 430.98,-81.0346 440.252,-86.1608 441.425,-79.2598"/>
</g>
<!-- Node14&#45;&gt;Node6 -->
<g id="edge15" class="edge"><title>Node14&#45;&gt;Node6</title>
<path fill="none" stroke="midnightblue" d="M548.105,-61.9751C495.032,-49.8761 399.091,-28.0045 352.034,-17.277"/>
<polygon fill="midnightblue" stroke="midnightblue" points="352.764,-13.8536 342.236,-15.0433 351.208,-20.6785 352.764,-13.8536"/>
</g>
<!-- Node14&#45;&gt;Node8 -->
<g id="edge14" class="edge"><title>Node14&#45;&gt;Node8</title>
<path fill="none" stroke="midnightblue" d="M560.713,-61.9751C529.639,-51.2877 476.394,-32.975 442.895,-21.4536"/>
<polygon fill="midnightblue" stroke="midnightblue" points="443.773,-18.0547 433.179,-18.112 441.497,-24.6741 443.773,-18.0547"/>
</g>
<!-- Node15 -->
<g id="node15" class="node"><title>Node15</title>
<polygon fill="none" stroke="#bfbfbf" points="481.5,-0.5 481.5,-19.5 537.5,-19.5 537.5,-0.5 481.5,-0.5"/>
<text text-anchor="middle" x="509.5" y="-7.5" font-family="Helvetica,sans-Serif" font-size="10.00">Rtypes.h</text>
</g>
<!-- Node14&#45;&gt;Node15 -->
<g id="edge16" class="edge"><title>Node14&#45;&gt;Node15</title>
<path fill="none" stroke="midnightblue" d="M574.611,-61.9751C562.534,-52.5199 542.833,-37.0961 528.26,-25.6871"/>
<polygon fill="midnightblue" stroke="midnightblue" points="530.4,-22.9177 520.369,-19.5091 526.085,-28.4295 530.4,-22.9177"/>
</g>
<!-- Node16 -->
<g id="node16" class="node"><title>Node16</title>
<polygon fill="none" stroke="#bfbfbf" points="556,-0.5 556,-19.5 615,-19.5 615,-0.5 556,-0.5"/>
<text text-anchor="middle" x="585.5" y="-7.5" font-family="Helvetica,sans-Serif" font-size="10.00">TObject.h</text>
</g>
<!-- Node14&#45;&gt;Node16 -->
<g id="edge17" class="edge"><title>Node14&#45;&gt;Node16</title>
<path fill="none" stroke="midnightblue" d="M585.5,-61.9751C585.5,-53.5803 585.5,-40.4806 585.5,-29.6631"/>
<polygon fill="midnightblue" stroke="midnightblue" points="589,-29.5091 585.5,-19.5091 582,-29.5091 589,-29.5091"/>
</g>
<!-- Node17 -->
<g id="node17" class="node"><title>Node17</title>
<polygon fill="none" stroke="#bfbfbf" points="633.5,-0.5 633.5,-19.5 749.5,-19.5 749.5,-0.5 633.5,-0.5"/>
<text text-anchor="middle" x="691.5" y="-7.5" font-family="Helvetica,sans-Serif" font-size="10.00">Common/Exceptions.h</text>
</g>
<!-- Node14&#45;&gt;Node17 -->
<g id="edge18" class="edge"><title>Node14&#45;&gt;Node17</title>
<path fill="none" stroke="midnightblue" d="M600.687,-61.9751C618.162,-52.1664 647.079,-35.9346 667.583,-24.425"/>
<polygon fill="midnightblue" stroke="midnightblue" points="669.334,-27.456 676.341,-19.5091 665.908,-21.3519 669.334,-27.456"/>
</g>
<!-- Node19 -->
<g id="node19" class="node"><title>Node19</title>
<polygon fill="none" stroke="#bfbfbf" points="771,-0.5 771,-19.5 840,-19.5 840,-0.5 771,-0.5"/>
<text text-anchor="middle" x="805.5" y="-7.5" font-family="Helvetica,sans-Serif" font-size="10.00">TObjArray.h</text>
</g>
<!-- Node18&#45;&gt;Node19 -->
<g id="edge20" class="edge"><title>Node18&#45;&gt;Node19</title>
<path fill="none" stroke="midnightblue" d="M807.789,-56.3993C807.389,-48.4664 806.884,-38.458 806.451,-29.8583"/>
<polygon fill="midnightblue" stroke="midnightblue" points="809.936,-29.4688 805.937,-19.6578 802.945,-29.8214 809.936,-29.4688"/>
</g>
<!-- Node20 -->
<g id="node20" class="node"><title>Node20</title>
<polygon fill="none" stroke="#bfbfbf" points="858.5,-0.5 858.5,-19.5 986.5,-19.5 986.5,-0.5 858.5,-0.5"/>
<text text-anchor="middle" x="922.5" y="-7.5" font-family="Helvetica,sans-Serif" font-size="10.00">Mergers/MergeInterface.h</text>
</g>
<!-- Node18&#45;&gt;Node20 -->
<g id="edge21" class="edge"><title>Node18&#45;&gt;Node20</title>
<path fill="none" stroke="midnightblue" d="M835.516,-56.3993C854.131,-46.6837 878.71,-33.8551 896.991,-24.3137"/>
<polygon fill="midnightblue" stroke="midnightblue" points="898.666,-27.3876 905.912,-19.6578 895.427,-21.182 898.666,-27.3876"/>
</g>
<!-- Node21&#45;&gt;Node8 -->
<g id="edge23" class="edge"><title>Node21&#45;&gt;Node8</title>
<path fill="none" stroke="midnightblue" d="M387.655,-61.9751C391.876,-53.3152 398.537,-39.6486 403.9,-28.6453"/>
<polygon fill="midnightblue" stroke="midnightblue" points="407.118,-30.0317 408.353,-19.5091 400.825,-26.9648 407.118,-30.0317"/>
</g>
<!-- Node21&#45;&gt;Node9 -->
<g id="edge24" class="edge"><title>Node21&#45;&gt;Node9</title>
<path fill="none" stroke="midnightblue" d="M354.845,-61.9751C319.944,-51.592 260.85,-34.0116 222,-22.4538"/>
<polygon fill="midnightblue" stroke="midnightblue" points="222.685,-19.0059 212.102,-19.5091 220.689,-25.7153 222.685,-19.0059"/>
</g>
</g>
</svg>
