<?xml version="1.0" encoding="UTF-8" standalone="no"?>
<!DOCTYPE svg PUBLIC "-//W3C//DTD SVG 1.1//EN"
 "http://www.w3.org/Graphics/SVG/1.1/DTD/svg11.dtd">
<!-- Generated by graphviz version 2.38.0 (20140413.2041)
 -->
<!-- Title: Modules/MFT/src/BasicDigitQcTask.cxx Pages: 1 -->
<!--zoomable 330 -->
<svg id="main" version="1.1" xmlns="http://www.w3.org/2000/svg" xmlns:xlink="http://www.w3.org/1999/xlink" xml:space="preserve" onload="init(evt)">
<style type="text/css"><![CDATA[
.edge:hover path { stroke: red; }
.edge:hover polygon { stroke: red; fill: red; }
]]></style>
<script type="text/javascript"><![CDATA[
var edges = document.getElementsByTagName('g');
if (edges && edges.length) {
  for (var i=0;i<edges.length;i++) {
    if (edges[i].id.substr(0,4)=='edge') {
      edges[i].setAttribute('class','edge');
    }
  }
}
]]></script>
        <defs>
                <circle id="rim" cx="0" cy="0" r="7"/>
                <circle id="rim2" cx="0" cy="0" r="3.5"/>
                <g id="zoomPlus">
                        <use xlink:href="#rim" fill="#404040">
                                <set attributeName="fill" to="#808080" begin="zoomplus.mouseover" end="zoomplus.mouseout"/>
                        </use>
                        <path d="M-4,0h8M0,-4v8" fill="none" stroke="white" stroke-width="1.5" pointer-events="none"/>
                </g>
                <g id="zoomMin">
                        <use xlink:href="#rim" fill="#404040">
                                <set attributeName="fill" to="#808080" begin="zoomminus.mouseover" end="zoomminus.mouseout"/>
                        </use>
                        <path d="M-4,0h8" fill="none" stroke="white" stroke-width="1.5" pointer-events="none"/>
                </g>
                <g id="dirArrow">
                        <path fill="none" stroke="white" stroke-width="1.5" d="M0,-3.0v7 M-2.5,-0.5L0,-3.0L2.5,-0.5"/>
                </g>
               <g id="resetDef">
                       <use xlink:href="#rim2" fill="#404040">
                               <set attributeName="fill" to="#808080" begin="reset.mouseover" end="reset.mouseout"/>
                       </use>
               </g>
        </defs>

<script type="text/javascript">
var viewWidth = 870;
var viewHeight = 330;
var sectionId = 'dynsection-0';
</script>
<script xlink:href="svgpan.js"/>
<svg id="graph" class="graph">
<g id="viewport">
<title>Modules/MFT/src/BasicDigitQcTask.cxx</title>
<!-- Node1 -->
<g id="node1" class="node"><title>Node1</title>
<polygon fill="#bfbfbf" stroke="black" points="207,-291.5 207,-321.5 348,-321.5 348,-291.5 207,-291.5"/>
<text text-anchor="start" x="215" y="-309.5" font-family="Helvetica,sans-Serif" font-size="10.00">Modules/MFT/src/BasicDigit</text>
<text text-anchor="middle" x="277.5" y="-298.5" font-family="Helvetica,sans-Serif" font-size="10.00">QcTask.cxx</text>
</g>
<!-- Node2 -->
<g id="node2" class="node"><title>Node2</title>
<polygon fill="none" stroke="#bfbfbf" points="0,-179.5 0,-198.5 65,-198.5 65,-179.5 0,-179.5"/>
<text text-anchor="middle" x="32.5" y="-186.5" font-family="Helvetica,sans-Serif" font-size="10.00">TCanvas.h</text>
</g>
<!-- Node1&#45;&gt;Node2 -->
<g id="edge1" class="edge"><title>Node1&#45;&gt;Node2</title>
<path fill="none" stroke="midnightblue" d="M206.946,-297.615C149.286,-289.782 73.7914,-275.897 51.5,-255 38.9114,-243.199 34.5121,-223.565 33.0498,-208.958"/>
<polygon fill="midnightblue" stroke="midnightblue" points="36.5178,-208.332 32.4064,-198.567 29.5312,-208.765 36.5178,-208.332"/>
</g>
<!-- Node3 -->
<g id="node3" class="node"><title>Node3</title>
<polygon fill="none" stroke="#bfbfbf" points="300.5,-179.5 300.5,-198.5 344.5,-198.5 344.5,-179.5 300.5,-179.5"/>
<text text-anchor="middle" x="322.5" y="-186.5" font-family="Helvetica,sans-Serif" font-size="10.00">TH1.h</text>
</g>
<!-- Node1&#45;&gt;Node3 -->
<g id="edge2" class="edge"><title>Node1&#45;&gt;Node3</title>
<path fill="none" stroke="midnightblue" d="M314.814,-291.359C330.653,-283.277 347.509,-271.419 356.5,-255 365.517,-238.535 352.877,-219.48 340.531,-206.277"/>
<polygon fill="midnightblue" stroke="midnightblue" points="342.644,-203.443 333.078,-198.888 337.715,-208.414 342.644,-203.443"/>
</g>
<!-- Node4 -->
<g id="node4" class="node"><title>Node4</title>
<polygon fill="none" stroke="#bfbfbf" points="207,-235.5 207,-254.5 348,-254.5 348,-235.5 207,-235.5"/>
<text text-anchor="middle" x="277.5" y="-242.5" font-family="Helvetica,sans-Serif" font-size="10.00">DataFormatsITSMFT/Digit.h</text>
</g>
<!-- Node1&#45;&gt;Node4 -->
<g id="edge3" class="edge"><title>Node1&#45;&gt;Node4</title>
<path fill="none" stroke="midnightblue" d="M277.5,-291.399C277.5,-283.466 277.5,-273.458 277.5,-264.858"/>
<polygon fill="midnightblue" stroke="midnightblue" points="281,-264.658 277.5,-254.658 274,-264.658 281,-264.658"/>
</g>
<!-- Node5 -->
<g id="node5" class="node"><title>Node5</title>
<g id="a_node5"><a xlink:href="QcInfoLogger_8h.html" target="_top" xlink:title="QualityControl/QcInfoLogger.h">
<polygon fill="none" stroke="black" points="404,-235.5 404,-254.5 553,-254.5 553,-235.5 404,-235.5"/>
<text text-anchor="middle" x="478.5" y="-242.5" font-family="Helvetica,sans-Serif" font-size="10.00">QualityControl/QcInfoLogger.h</text>
</a>
</g>
</g>
<!-- Node1&#45;&gt;Node5 -->
<g id="edge4" class="edge"><title>Node1&#45;&gt;Node5</title>
<path fill="none" stroke="midnightblue" d="M324.88,-291.475C360.011,-281.075 407.294,-267.078 440.083,-257.372"/>
<polygon fill="midnightblue" stroke="midnightblue" points="441.169,-260.701 449.764,-254.506 439.182,-253.989 441.169,-260.701"/>
</g>
<!-- Node7 -->
<g id="node7" class="node"><title>Node7</title>
<g id="a_node7"><a xlink:href="BasicDigitQcTask_8h.html" target="_top" xlink:title="MFT/BasicDigitQcTask.h">
<polygon fill="none" stroke="black" points="60.5,-235.5 60.5,-254.5 188.5,-254.5 188.5,-235.5 60.5,-235.5"/>
<text text-anchor="middle" x="124.5" y="-242.5" font-family="Helvetica,sans-Serif" font-size="10.00">MFT/BasicDigitQcTask.h</text>
</a>
</g>
</g>
<!-- Node1&#45;&gt;Node7 -->
<g id="edge6" class="edge"><title>Node1&#45;&gt;Node7</title>
<path fill="none" stroke="midnightblue" d="M241.241,-291.399C215.456,-281.372 181.143,-268.028 156.399,-258.405"/>
<polygon fill="midnightblue" stroke="midnightblue" points="157.351,-255.02 146.763,-254.658 154.814,-261.544 157.351,-255.02"/>
</g>
<!-- Node6 -->
<g id="node6" class="node"><title>Node6</title>
<polygon fill="none" stroke="#bfbfbf" points="413.5,-179.5 413.5,-198.5 543.5,-198.5 543.5,-179.5 413.5,-179.5"/>
<text text-anchor="middle" x="478.5" y="-186.5" font-family="Helvetica,sans-Serif" font-size="10.00">InfoLogger/InfoLogger.hxx</text>
</g>
<!-- Node5&#45;&gt;Node6 -->
<g id="edge5" class="edge"><title>Node5&#45;&gt;Node6</title>
<path fill="none" stroke="midnightblue" d="M478.5,-235.083C478.5,-228.006 478.5,-217.861 478.5,-208.986"/>
<polygon fill="midnightblue" stroke="midnightblue" points="482,-208.751 478.5,-198.751 475,-208.751 482,-208.751"/>
</g>
<!-- Node7&#45;&gt;Node2 -->
<g id="edge7" class="edge"><title>Node7&#45;&gt;Node2</title>
<path fill="none" stroke="midnightblue" d="M109.719,-235.324C95.2329,-226.822 72.9269,-213.729 56.0068,-203.797"/>
<polygon fill="midnightblue" stroke="midnightblue" points="57.6406,-200.698 47.2447,-198.655 54.0972,-206.735 57.6406,-200.698"/>
</g>
<!-- Node7&#45;&gt;Node3 -->
<g id="edge8" class="edge"><title>Node7&#45;&gt;Node3</title>
<path fill="none" stroke="midnightblue" d="M155.874,-235.444C192.753,-225.386 253.615,-208.787 290.684,-198.677"/>
<polygon fill="midnightblue" stroke="midnightblue" points="291.742,-202.016 300.469,-196.008 289.901,-195.263 291.742,-202.016"/>
</g>
<!-- Node8 -->
<g id="node8" class="node"><title>Node8</title>
<g id="a_node8"><a xlink:href="TaskInterface_8h.html" target="_top" xlink:title="QualityControl/TaskInterface.h">
<polygon fill="none" stroke="black" points="82.5,-179.5 82.5,-198.5 232.5,-198.5 232.5,-179.5 82.5,-179.5"/>
<text text-anchor="middle" x="157.5" y="-186.5" font-family="Helvetica,sans-Serif" font-size="10.00">QualityControl/TaskInterface.h</text>
</a>
</g>
</g>
<!-- Node7&#45;&gt;Node8 -->
<g id="edge9" class="edge"><title>Node7&#45;&gt;Node8</title>
<path fill="none" stroke="midnightblue" d="M129.949,-235.083C134.514,-227.613 141.168,-216.724 146.793,-207.52"/>
<polygon fill="midnightblue" stroke="midnightblue" points="149.924,-209.109 152.152,-198.751 143.951,-205.459 149.924,-209.109"/>
</g>
<!-- Node9 -->
<g id="node9" class="node"><title>Node9</title>
<polygon fill="none" stroke="#bfbfbf" points="182,-0.5 182,-19.5 217,-19.5 217,-0.5 182,-0.5"/>
<text text-anchor="middle" x="199.5" y="-7.5" font-family="Helvetica,sans-Serif" font-size="10.00">map</text>
</g>
<!-- Node8&#45;&gt;Node9 -->
<g id="edge10" class="edge"><title>Node8&#45;&gt;Node9</title>
<path fill="none" stroke="midnightblue" d="M114.433,-179.486C94.1037,-173.074 71.6772,-161.991 59.5,-143 38.6288,-110.45 36.7229,-87.246 59.5,-56 85.0368,-20.9681 138.292,-12.611 171.259,-10.9548"/>
<polygon fill="midnightblue" stroke="midnightblue" points="171.71,-14.4422 181.592,-10.6212 171.484,-7.4458 171.71,-14.4422"/>
</g>
<!-- Node10 -->
<g id="node10" class="node"><title>Node10</title>
<polygon fill="none" stroke="#bfbfbf" points="112.5,-62 112.5,-81 164.5,-81 164.5,-62 112.5,-62"/>
<text text-anchor="middle" x="138.5" y="-69" font-family="Helvetica,sans-Serif" font-size="10.00">memory</text>
</g>
<!-- Node8&#45;&gt;Node10 -->
<g id="edge11" class="edge"><title>Node8&#45;&gt;Node10</title>
<path fill="none" stroke="midnightblue" d="M150.349,-179.364C143.727,-170.763 134.343,-156.873 130.5,-143 125.731,-125.783 128.933,-105.447 132.605,-91.0511"/>
<polygon fill="midnightblue" stroke="midnightblue" points="135.995,-91.9279 135.381,-81.3508 129.265,-90.0022 135.995,-91.9279"/>
</g>
<!-- Node11 -->
<g id="node11" class="node"><title>Node11</title>
<polygon fill="none" stroke="#bfbfbf" points="267,-0.5 267,-19.5 308,-19.5 308,-0.5 267,-0.5"/>
<text text-anchor="middle" x="287.5" y="-7.5" font-family="Helvetica,sans-Serif" font-size="10.00">string</text>
</g>
<!-- Node8&#45;&gt;Node11 -->
<g id="edge12" class="edge"><title>Node8&#45;&gt;Node11</title>
<path fill="none" stroke="midnightblue" d="M148.521,-179.452C126.164,-157.146 72.0075,-96.1226 103.5,-56 113.002,-43.8943 206.983,-25.4328 256.822,-16.3824"/>
<polygon fill="midnightblue" stroke="midnightblue" points="257.517,-19.8136 266.74,-14.5997 256.279,-12.924 257.517,-19.8136"/>
</g>
<!-- Node12 -->
<g id="node12" class="node"><title>Node12</title>
<polygon fill="none" stroke="#bfbfbf" points="17,-0.5 17,-19.5 100,-19.5 100,-0.5 17,-0.5"/>
<text text-anchor="middle" x="58.5" y="-7.5" font-family="Helvetica,sans-Serif" font-size="10.00">unordered_map</text>
</g>
<!-- Node8&#45;&gt;Node12 -->
<g id="edge13" class="edge"><title>Node8&#45;&gt;Node12</title>
<path fill="none" stroke="midnightblue" d="M104.761,-179.473C82.9081,-173.143 59.4512,-162.133 45.5,-143 20.7178,-109.013 37.92,-56.3226 49.8095,-28.9237"/>
<polygon fill="midnightblue" stroke="midnightblue" points="53.0277,-30.3022 54.0076,-19.7528 46.6629,-27.3886 53.0277,-30.3022"/>
</g>
<!-- Node13 -->
<g id="node13" class="node"><title>Node13</title>
<polygon fill="none" stroke="#bfbfbf" points="140,-123.5 140,-142.5 265,-142.5 265,-123.5 140,-123.5"/>
<text text-anchor="middle" x="202.5" y="-130.5" font-family="Helvetica,sans-Serif" font-size="10.00">Framework/InitContext.h</text>
</g>
<!-- Node8&#45;&gt;Node13 -->
<g id="edge14" class="edge"><title>Node8&#45;&gt;Node13</title>
<path fill="none" stroke="midnightblue" d="M164.931,-179.083C171.353,-171.377 180.806,-160.033 188.622,-150.653"/>
<polygon fill="midnightblue" stroke="midnightblue" points="191.494,-152.674 195.207,-142.751 186.117,-148.193 191.494,-152.674"/>
</g>
<!-- Node14 -->
<g id="node14" class="node"><title>Node14</title>
<polygon fill="none" stroke="#bfbfbf" points="283.5,-123.5 283.5,-142.5 443.5,-142.5 443.5,-123.5 283.5,-123.5"/>
<text text-anchor="middle" x="363.5" y="-130.5" font-family="Helvetica,sans-Serif" font-size="10.00">Framework/ProcessingContext.h</text>
</g>
<!-- Node8&#45;&gt;Node14 -->
<g id="edge15" class="edge"><title>Node8&#45;&gt;Node14</title>
<path fill="none" stroke="midnightblue" d="M190.141,-179.444C225.55,-170.162 282.209,-155.309 321.053,-145.127"/>
<polygon fill="midnightblue" stroke="midnightblue" points="322.226,-148.438 331.011,-142.516 320.451,-141.667 322.226,-148.438"/>
</g>
<!-- Node15 -->
<g id="node15" class="node"><title>Node15</title>
<g id="a_node15"><a xlink:href="Activity_8h.html" target="_top" xlink:title="QualityControl/Activity.h">
<polygon fill="none" stroke="black" points="462,-123.5 462,-142.5 585,-142.5 585,-123.5 462,-123.5"/>
<text text-anchor="middle" x="523.5" y="-130.5" font-family="Helvetica,sans-Serif" font-size="10.00">QualityControl/Activity.h</text>
</a>
</g>
</g>
<!-- Node8&#45;&gt;Node15 -->
<g id="edge16" class="edge"><title>Node8&#45;&gt;Node15</title>
<path fill="none" stroke="midnightblue" d="M215.494,-179.444C280.814,-169.806 386.837,-154.163 455.87,-143.978"/>
<polygon fill="midnightblue" stroke="midnightblue" points="456.396,-147.439 465.778,-142.516 455.374,-140.514 456.396,-147.439"/>
</g>
<!-- Node16 -->
<g id="node16" class="node"><title>Node16</title>
<g id="a_node16"><a xlink:href="ObjectsManager_8h.html" target="_top" xlink:title="QualityControl/ObjectsManager.h">
<polygon fill="none" stroke="black" points="603,-123.5 603,-142.5 764,-142.5 764,-123.5 603,-123.5"/>
<text text-anchor="middle" x="683.5" y="-130.5" font-family="Helvetica,sans-Serif" font-size="10.00">QualityControl/ObjectsManager.h</text>
</a>
</g>
</g>
<!-- Node8&#45;&gt;Node16 -->
<g id="edge17" class="edge"><title>Node8&#45;&gt;Node16</title>
<path fill="none" stroke="midnightblue" d="M232.583,-180.292C327.494,-170.548 490.749,-153.788 592.605,-143.331"/>
<polygon fill="midnightblue" stroke="midnightblue" points="592.981,-146.811 602.572,-142.308 592.266,-139.848 592.981,-146.811"/>
</g>
<!-- Node16&#45;&gt;Node10 -->
<g id="edge31" class="edge"><title>Node16&#45;&gt;Node10</title>
<path fill="none" stroke="midnightblue" d="M602.975,-123.805C600.115,-123.531 597.283,-123.261 594.5,-123 410.174,-105.686 360.444,-126.178 179.5,-87 176.076,-86.2586 172.545,-85.3094 169.06,-84.2523"/>
<polygon fill="midnightblue" stroke="midnightblue" points="170.077,-80.902 159.483,-81.0698 167.869,-87.5448 170.077,-80.902"/>
</g>
<!-- Node16&#45;&gt;Node11 -->
<g id="edge30" class="edge"><title>Node16&#45;&gt;Node11</title>
<path fill="none" stroke="midnightblue" d="M610.391,-123.499C526.116,-113.357 396.45,-96.5756 375.5,-87 371.356,-85.1057 329.269,-48.0657 304.832,-26.4071"/>
<polygon fill="midnightblue" stroke="midnightblue" points="307.104,-23.7443 297.302,-19.7247 302.458,-28.98 307.104,-23.7443"/>
</g>
<!-- Node17 -->
<g id="node17" class="node"><title>Node17</title>
<g id="a_node17"><a xlink:href="MonitorObject_8h.html" target="_top" xlink:title="QualityControl/MonitorObject.h">
<polygon fill="none" stroke="black" points="385,-62 385,-81 536,-81 536,-62 385,-62"/>
<text text-anchor="middle" x="460.5" y="-69" font-family="Helvetica,sans-Serif" font-size="10.00">QualityControl/MonitorObject.h</text>
</a>
</g>
</g>
<!-- Node16&#45;&gt;Node17 -->
<g id="edge18" class="edge"><title>Node16&#45;&gt;Node17</title>
<path fill="none" stroke="midnightblue" d="M651.55,-123.475C612.304,-113.004 545.622,-95.2118 502.327,-83.6601"/>
<polygon fill="midnightblue" stroke="midnightblue" points="502.956,-80.2054 492.391,-81.0091 501.151,-86.9688 502.956,-80.2054"/>
</g>
<!-- Node21 -->
<g id="node21" class="node"><title>Node21</title>
<g id="a_node21"><a xlink:href="MonitorObjectCollection_8h.html" target="_top" xlink:title="QualityControl/MonitorObject\lCollection.h">
<polygon fill="none" stroke="black" points="612,-56.5 612,-86.5 755,-86.5 755,-56.5 612,-56.5"/>
<text text-anchor="start" x="620" y="-74.5" font-family="Helvetica,sans-Serif" font-size="10.00">QualityControl/MonitorObject</text>
<text text-anchor="middle" x="683.5" y="-63.5" font-family="Helvetica,sans-Serif" font-size="10.00">Collection.h</text>
</a>
</g>
</g>
<!-- Node16&#45;&gt;Node21 -->
<g id="edge24" class="edge"><title>Node16&#45;&gt;Node21</title>
<path fill="none" stroke="midnightblue" d="M683.5,-123.475C683.5,-116.471 683.5,-106.192 683.5,-96.6956"/>
<polygon fill="midnightblue" stroke="midnightblue" points="687,-96.5229 683.5,-86.523 680,-96.523 687,-96.5229"/>
</g>
<!-- Node24 -->
<g id="node24" class="node"><title>Node24</title>
<g id="a_node24"><a xlink:href="TaskConfig_8h.html" target="_top" xlink:title="QualityControl/TaskConfig.h">
<polygon fill="none" stroke="black" points="188.5,-62 188.5,-81 328.5,-81 328.5,-62 188.5,-62"/>
<text text-anchor="middle" x="258.5" y="-69" font-family="Helvetica,sans-Serif" font-size="10.00">QualityControl/TaskConfig.h</text>
</a>
</g>
</g>
<!-- Node16&#45;&gt;Node24 -->
<g id="edge27" class="edge"><title>Node16&#45;&gt;Node24</title>
<path fill="none" stroke="midnightblue" d="M612.523,-123.467C543.465,-114.969 435.627,-101.177 342.5,-87 333.89,-85.6893 324.799,-84.2149 315.904,-82.7213"/>
<polygon fill="midnightblue" stroke="midnightblue" points="316.425,-79.2598 305.98,-81.0346 315.252,-86.1608 316.425,-79.2598"/>
</g>
<!-- Node17&#45;&gt;Node9 -->
<g id="edge20" class="edge"><title>Node17&#45;&gt;Node9</title>
<path fill="none" stroke="midnightblue" d="M423.105,-61.9751C370.032,-49.8761 274.091,-28.0045 227.034,-17.277"/>
<polygon fill="midnightblue" stroke="midnightblue" points="227.764,-13.8536 217.236,-15.0433 226.208,-20.6785 227.764,-13.8536"/>
</g>
<!-- Node17&#45;&gt;Node11 -->
<g id="edge19" class="edge"><title>Node17&#45;&gt;Node11</title>
<path fill="none" stroke="midnightblue" d="M435.713,-61.9751C404.639,-51.2877 351.394,-32.975 317.895,-21.4536"/>
<polygon fill="midnightblue" stroke="midnightblue" points="318.773,-18.0547 308.179,-18.112 316.497,-24.6741 318.773,-18.0547"/>
</g>
<!-- Node18 -->
<g id="node18" class="node"><title>Node18</title>
<polygon fill="none" stroke="#bfbfbf" points="356.5,-0.5 356.5,-19.5 412.5,-19.5 412.5,-0.5 356.5,-0.5"/>
<text text-anchor="middle" x="384.5" y="-7.5" font-family="Helvetica,sans-Serif" font-size="10.00">Rtypes.h</text>
</g>
<!-- Node17&#45;&gt;Node18 -->
<g id="edge21" class="edge"><title>Node17&#45;&gt;Node18</title>
<path fill="none" stroke="midnightblue" d="M449.611,-61.9751C437.534,-52.5199 417.833,-37.0961 403.26,-25.6871"/>
<polygon fill="midnightblue" stroke="midnightblue" points="405.4,-22.9177 395.369,-19.5091 401.085,-28.4295 405.4,-22.9177"/>
</g>
<!-- Node19 -->
<g id="node19" class="node"><title>Node19</title>
<polygon fill="none" stroke="#bfbfbf" points="431,-0.5 431,-19.5 490,-19.5 490,-0.5 431,-0.5"/>
<text text-anchor="middle" x="460.5" y="-7.5" font-family="Helvetica,sans-Serif" font-size="10.00">TObject.h</text>
</g>
<!-- Node17&#45;&gt;Node19 -->
<g id="edge22" class="edge"><title>Node17&#45;&gt;Node19</title>
<path fill="none" stroke="midnightblue" d="M460.5,-61.9751C460.5,-53.5803 460.5,-40.4806 460.5,-29.6631"/>
<polygon fill="midnightblue" stroke="midnightblue" points="464,-29.5091 460.5,-19.5091 457,-29.5091 464,-29.5091"/>
</g>
<!-- Node20 -->
<g id="node20" class="node"><title>Node20</title>
<polygon fill="none" stroke="#bfbfbf" points="508.5,-0.5 508.5,-19.5 624.5,-19.5 624.5,-0.5 508.5,-0.5"/>
<text text-anchor="middle" x="566.5" y="-7.5" font-family="Helvetica,sans-Serif" font-size="10.00">Common/Exceptions.h</text>
</g>
<!-- Node17&#45;&gt;Node20 -->
<g id="edge23" class="edge"><title>Node17&#45;&gt;Node20</title>
<path fill="none" stroke="midnightblue" d="M475.687,-61.9751C493.162,-52.1664 522.079,-35.9346 542.583,-24.425"/>
<polygon fill="midnightblue" stroke="midnightblue" points="544.334,-27.456 551.341,-19.5091 540.908,-21.3519 544.334,-27.456"/>
</g>
<!-- Node22 -->
<g id="node22" class="node"><title>Node22</title>
<polygon fill="none" stroke="#bfbfbf" points="646,-0.5 646,-19.5 715,-19.5 715,-0.5 646,-0.5"/>
<text text-anchor="middle" x="680.5" y="-7.5" font-family="Helvetica,sans-Serif" font-size="10.00">TObjArray.h</text>
</g>
<!-- Node21&#45;&gt;Node22 -->
<g id="edge25" class="edge"><title>Node21&#45;&gt;Node22</title>
<path fill="none" stroke="midnightblue" d="M682.789,-56.3993C682.389,-48.4664 681.884,-38.458 681.451,-29.8583"/>
<polygon fill="midnightblue" stroke="midnightblue" points="684.936,-29.4688 680.937,-19.6578 677.945,-29.8214 684.936,-29.4688"/>
</g>
<!-- Node23 -->
<g id="node23" class="node"><title>Node23</title>
<polygon fill="none" stroke="#bfbfbf" points="733.5,-0.5 733.5,-19.5 861.5,-19.5 861.5,-0.5 733.5,-0.5"/>
<text text-anchor="middle" x="797.5" y="-7.5" font-family="Helvetica,sans-Serif" font-size="10.00">Mergers/MergeInterface.h</text>
</g>
<!-- Node21&#45;&gt;Node23 -->
<g id="edge26" class="edge"><title>Node21&#45;&gt;Node23</title>
<path fill="none" stroke="midnightblue" d="M710.516,-56.3993C729.131,-46.6837 753.71,-33.8551 771.991,-24.3137"/>
<polygon fill="midnightblue" stroke="midnightblue" points="773.666,-27.3876 780.912,-19.6578 770.427,-21.182 773.666,-27.3876"/>
</g>
<!-- Node24&#45;&gt;Node11 -->
<g id="edge28" class="edge"><title>Node24&#45;&gt;Node11</title>
<path fill="none" stroke="midnightblue" d="M262.655,-61.9751C266.876,-53.3152 273.537,-39.6486 278.9,-28.6453"/>
<polygon fill="midnightblue" stroke="midnightblue" points="282.118,-30.0317 283.353,-19.5091 275.825,-26.9648 282.118,-30.0317"/>
</g>
<!-- Node24&#45;&gt;Node12 -->
<g id="edge29" class="edge"><title>Node24&#45;&gt;Node12</title>
<path fill="none" stroke="midnightblue" d="M229.845,-61.9751C194.944,-51.592 135.85,-34.0116 97.0003,-22.4538"/>
<polygon fill="midnightblue" stroke="midnightblue" points="97.6848,-19.0059 87.102,-19.5091 95.6888,-25.7153 97.6848,-19.0059"/>
</g>
</g>
</svg>
        <g id="navigator" transform="translate(0 0)" fill="#404254">
                <rect fill="#f2f5e9" fill-opacity="0.5" stroke="#606060" stroke-width=".5" x="0" y="0" width="60" height="60"/>
                <use id="zoomplus" xlink:href="#zoomPlus" x="17" y="9" onmousedown="handleZoom(evt,'in')"/>
                <use id="zoomminus" xlink:href="#zoomMin" x="42" y="9" onmousedown="handleZoom(evt,'out')"/>
                <use id="reset" xlink:href="#resetDef" x="30" y="36" onmousedown="handleReset()"/>
                <g id="arrowUp" xlink:href="#dirArrow" transform="translate(30 24)" onmousedown="handlePan(0,-1)">
                  <use xlink:href="#rim" fill="#404040">
                        <set attributeName="fill" to="#808080" begin="arrowUp.mouseover" end="arrowUp.mouseout"/>
                  </use>
                  <path fill="none" stroke="white" stroke-width="1.5" d="M0,-3.0v7 M-2.5,-0.5L0,-3.0L2.5,-0.5"/>
                </g>
                <g id="arrowRight" xlink:href="#dirArrow" transform="rotate(90) translate(36 -43)" onmousedown="handlePan(1,0)">
                  <use xlink:href="#rim" fill="#404040">
                        <set attributeName="fill" to="#808080" begin="arrowRight.mouseover" end="arrowRight.mouseout"/>
                  </use>
                  <path fill="none" stroke="white" stroke-width="1.5" d="M0,-3.0v7 M-2.5,-0.5L0,-3.0L2.5,-0.5"/>
                </g>
                <g id="arrowDown" xlink:href="#dirArrow" transform="rotate(180) translate(-30 -48)" onmousedown="handlePan(0,1)">
                  <use xlink:href="#rim" fill="#404040">
                        <set attributeName="fill" to="#808080" begin="arrowDown.mouseover" end="arrowDown.mouseout"/>
                  </use>
                  <path fill="none" stroke="white" stroke-width="1.5" d="M0,-3.0v7 M-2.5,-0.5L0,-3.0L2.5,-0.5"/>
                </g>
                <g id="arrowLeft" xlink:href="#dirArrow" transform="rotate(270) translate(-36 17)" onmousedown="handlePan(-1,0)">
                  <use xlink:href="#rim" fill="#404040">
                        <set attributeName="fill" to="#808080" begin="arrowLeft.mouseover" end="arrowLeft.mouseout"/>
                  </use>
                  <path fill="none" stroke="white" stroke-width="1.5" d="M0,-3.0v7 M-2.5,-0.5L0,-3.0L2.5,-0.5"/>
                </g>
        </g>
        <svg viewBox="0 0 15 15" width="100%" height="30px" preserveAspectRatio="xMaxYMin meet">
         <g id="arrow_out" transform="scale(0.3 0.3)">
          <a xlink:href="BasicDigitQcTask_8cxx__incl_org.svg" target="_base">
           <rect id="button" ry="5" rx="5" y="6" x="6" height="38" width="38"
                fill="#f2f5e9" fill-opacity="0.5" stroke="#606060" stroke-width="1.0"/>
           <path id="arrow"
             d="M 11.500037,31.436501 C 11.940474,20.09759 22.043105,11.32322 32.158766,21.979434 L 37.068811,17.246167 C 37.068811,17.246167 37.088388,32 37.088388,32 L 22.160133,31.978069 C 22.160133,31.978069 26.997745,27.140456 26.997745,27.140456 C 18.528582,18.264221 13.291696,25.230495 11.500037,31.436501 z"
             style="fill:#404040;"/>
          </a>
         </g>
        </svg>
</svg>
