<?xml version="1.0" encoding="UTF-8" standalone="no"?>
<!DOCTYPE svg PUBLIC "-//W3C//DTD SVG 1.1//EN"
 "http://www.w3.org/Graphics/SVG/1.1/DTD/svg11.dtd">
<!-- Generated by graphviz version 2.38.0 (20140413.2041)
 -->
<!-- Title: Modules/MFT/src/BasicClusterQcCheck.cxx Pages: 1 -->
<svg width="543pt" height="263pt"
 viewBox="0.00 0.00 543.23 263.00" xmlns="http://www.w3.org/2000/svg" xmlns:xlink="http://www.w3.org/1999/xlink">
<g id="graph0" class="graph" transform="scale(1 1) rotate(0) translate(4 259)">
<title>Modules/MFT/src/BasicClusterQcCheck.cxx</title>
<!-- Node1 -->
<g id="node1" class="node"><title>Node1</title>
<polygon fill="#bfbfbf" stroke="black" points="156.5,-224.5 156.5,-254.5 308.5,-254.5 308.5,-224.5 156.5,-224.5"/>
<text text-anchor="start" x="164.5" y="-242.5" font-family="Helvetica,sans-Serif" font-size="10.00">Modules/MFT/src/BasicCluster</text>
<text text-anchor="middle" x="232.5" y="-231.5" font-family="Helvetica,sans-Serif" font-size="10.00">QcCheck.cxx</text>
</g>
<!-- Node2 -->
<g id="node2" class="node"><title>Node2</title>
<polygon fill="none" stroke="#bfbfbf" points="46,-168.5 46,-187.5 143,-187.5 143,-168.5 46,-168.5"/>
<text text-anchor="middle" x="94.5" y="-175.5" font-family="Helvetica,sans-Serif" font-size="10.00">fairlogger/Logger.h</text>
</g>
<!-- Node1&#45;&gt;Node2 -->
<g id="edge1" class="edge"><title>Node1&#45;&gt;Node2</title>
<path fill="none" stroke="midnightblue" d="M199.796,-224.399C176.745,-214.461 146.14,-201.265 123.868,-191.662"/>
<polygon fill="midnightblue" stroke="midnightblue" points="125.149,-188.403 114.58,-187.658 122.377,-194.831 125.149,-188.403"/>
</g>
<!-- Node3 -->
<g id="node3" class="node"><title>Node3</title>
<polygon fill="none" stroke="#bfbfbf" points="160.5,-168.5 160.5,-187.5 204.5,-187.5 204.5,-168.5 160.5,-168.5"/>
<text text-anchor="middle" x="182.5" y="-175.5" font-family="Helvetica,sans-Serif" font-size="10.00">TH1.h</text>
</g>
<!-- Node1&#45;&gt;Node3 -->
<g id="edge2" class="edge"><title>Node1&#45;&gt;Node3</title>
<path fill="none" stroke="midnightblue" d="M220.651,-224.399C213.385,-215.753 204.048,-204.642 196.429,-195.576"/>
<polygon fill="midnightblue" stroke="midnightblue" points="198.888,-193.062 189.775,-187.658 193.529,-197.565 198.888,-193.062"/>
</g>
<!-- Node4 -->
<g id="node4" class="node"><title>Node4</title>
<g id="a_node4"><a xlink:href="BasicClusterQcCheck_8h.html" target="_top" xlink:title="MFT/BasicClusterQcCheck.h">
<polygon fill="none" stroke="black" points="301.5,-168.5 301.5,-187.5 447.5,-187.5 447.5,-168.5 301.5,-168.5"/>
<text text-anchor="middle" x="374.5" y="-175.5" font-family="Helvetica,sans-Serif" font-size="10.00">MFT/BasicClusterQcCheck.h</text>
</a>
</g>
</g>
<!-- Node1&#45;&gt;Node4 -->
<g id="edge3" class="edge"><title>Node1&#45;&gt;Node4</title>
<path fill="none" stroke="midnightblue" d="M266.152,-224.399C289.977,-214.416 321.646,-201.147 344.588,-191.534"/>
<polygon fill="midnightblue" stroke="midnightblue" points="345.967,-194.751 353.838,-187.658 343.262,-188.294 345.967,-194.751"/>
</g>
<!-- Node10 -->
<g id="node10" class="node"><title>Node10</title>
<g id="a_node10"><a xlink:href="MonitorObject_8h.html" target="_top" xlink:title="QualityControl/MonitorObject.h">
<polygon fill="none" stroke="black" points="56,-56.5 56,-75.5 207,-75.5 207,-56.5 56,-56.5"/>
<text text-anchor="middle" x="131.5" y="-63.5" font-family="Helvetica,sans-Serif" font-size="10.00">QualityControl/MonitorObject.h</text>
</a>
</g>
</g>
<!-- Node1&#45;&gt;Node10 -->
<g id="edge19" class="edge"><title>Node1&#45;&gt;Node10</title>
<path fill="none" stroke="midnightblue" d="M230.477,-224.36C227.973,-209.66 222.848,-186.285 213.5,-168 196.228,-134.214 166.311,-101.275 147.784,-82.622"/>
<polygon fill="midnightblue" stroke="midnightblue" points="150.187,-80.0759 140.611,-75.5415 145.269,-85.0575 150.187,-80.0759"/>
</g>
<!-- Node13 -->
<g id="node13" class="node"><title>Node13</title>
<g id="a_node13"><a xlink:href="Quality_8h.html" target="_top" xlink:title="QualityControl/Quality.h">
<polygon fill="none" stroke="black" points="264,-56.5 264,-75.5 385,-75.5 385,-56.5 264,-56.5"/>
<text text-anchor="middle" x="324.5" y="-63.5" font-family="Helvetica,sans-Serif" font-size="10.00">QualityControl/Quality.h</text>
</a>
</g>
</g>
<!-- Node1&#45;&gt;Node13 -->
<g id="edge20" class="edge"><title>Node1&#45;&gt;Node13</title>
<path fill="none" stroke="midnightblue" d="M237.82,-224.337C247.062,-200.407 267.331,-150.786 290.5,-112 296.463,-102.018 304.21,-91.6136 310.802,-83.3268"/>
<polygon fill="midnightblue" stroke="midnightblue" points="313.525,-85.5262 317.132,-75.5641 308.1,-81.1028 313.525,-85.5262"/>
</g>
<!-- Node5 -->
<g id="node5" class="node"><title>Node5</title>
<g id="a_node5"><a xlink:href="CheckInterface_8h.html" target="_top" xlink:title="QualityControl/CheckInterface.h">
<polygon fill="none" stroke="black" points="299,-112.5 299,-131.5 456,-131.5 456,-112.5 299,-112.5"/>
<text text-anchor="middle" x="377.5" y="-119.5" font-family="Helvetica,sans-Serif" font-size="10.00">QualityControl/CheckInterface.h</text>
</a>
</g>
</g>
<!-- Node4&#45;&gt;Node5 -->
<g id="edge4" class="edge"><title>Node4&#45;&gt;Node5</title>
<path fill="none" stroke="midnightblue" d="M374.995,-168.083C375.389,-161.006 375.952,-150.861 376.445,-141.986"/>
<polygon fill="midnightblue" stroke="midnightblue" points="379.954,-141.93 377.014,-131.751 372.964,-141.542 379.954,-141.93"/>
</g>
<!-- Node6 -->
<g id="node6" class="node"><title>Node6</title>
<polygon fill="none" stroke="#bfbfbf" points="215,-0.5 215,-19.5 256,-19.5 256,-0.5 215,-0.5"/>
<text text-anchor="middle" x="235.5" y="-7.5" font-family="Helvetica,sans-Serif" font-size="10.00">string</text>
</g>
<!-- Node5&#45;&gt;Node6 -->
<g id="edge5" class="edge"><title>Node5&#45;&gt;Node6</title>
<path fill="none" stroke="midnightblue" d="M324.407,-112.491C300.47,-106.136 273.58,-95.1004 255.5,-76 243.716,-63.5508 238.865,-44.3154 236.874,-29.9955"/>
<polygon fill="midnightblue" stroke="midnightblue" points="240.328,-29.3728 235.812,-19.7886 233.366,-30.0971 240.328,-29.3728"/>
</g>
<!-- Node7 -->
<g id="node7" class="node"><title>Node7</title>
<polygon fill="none" stroke="#bfbfbf" points="290,-0.5 290,-19.5 325,-19.5 325,-0.5 290,-0.5"/>
<text text-anchor="middle" x="307.5" y="-7.5" font-family="Helvetica,sans-Serif" font-size="10.00">map</text>
</g>
<!-- Node5&#45;&gt;Node7 -->
<g id="edge6" class="edge"><title>Node5&#45;&gt;Node7</title>
<path fill="none" stroke="midnightblue" d="M425.897,-112.486C467.921,-102.955 518.677,-84.9321 495.5,-56 451.627,-1.23407 408.977,-36.2898 335.26,-19.7224"/>
<polygon fill="midnightblue" stroke="midnightblue" points="335.692,-16.2218 325.139,-17.1659 333.978,-23.0086 335.692,-16.2218"/>
</g>
<!-- Node8 -->
<g id="node8" class="node"><title>Node8</title>
<polygon fill="none" stroke="#bfbfbf" points="403,-56.5 403,-75.5 486,-75.5 486,-56.5 403,-56.5"/>
<text text-anchor="middle" x="444.5" y="-63.5" font-family="Helvetica,sans-Serif" font-size="10.00">unordered_map</text>
</g>
<!-- Node5&#45;&gt;Node8 -->
<g id="edge7" class="edge"><title>Node5&#45;&gt;Node8</title>
<path fill="none" stroke="midnightblue" d="M388.265,-112.324C398.266,-104.263 413.387,-92.0765 425.43,-82.3695"/>
<polygon fill="midnightblue" stroke="midnightblue" points="427.95,-84.8343 433.539,-75.8339 423.557,-79.3841 427.95,-84.8343"/>
</g>
<!-- Node9 -->
<g id="node9" class="node"><title>Node9</title>
<polygon fill="none" stroke="#bfbfbf" points="343.5,-0.5 343.5,-19.5 399.5,-19.5 399.5,-0.5 343.5,-0.5"/>
<text text-anchor="middle" x="371.5" y="-7.5" font-family="Helvetica,sans-Serif" font-size="10.00">Rtypes.h</text>
</g>
<!-- Node5&#45;&gt;Node9 -->
<g id="edge8" class="edge"><title>Node5&#45;&gt;Node9</title>
<path fill="none" stroke="midnightblue" d="M456.2,-112.89C504.453,-104.592 552.72,-88.1379 528.5,-56 514.223,-37.056 451.541,-23.6521 409.827,-16.6388"/>
<polygon fill="midnightblue" stroke="midnightblue" points="410.148,-13.1451 399.715,-14.994 409.024,-20.0543 410.148,-13.1451"/>
</g>
<!-- Node5&#45;&gt;Node10 -->
<g id="edge9" class="edge"><title>Node5&#45;&gt;Node10</title>
<path fill="none" stroke="midnightblue" d="M338.521,-112.444C295.606,-103.023 226.554,-87.8656 180.131,-77.6752"/>
<polygon fill="midnightblue" stroke="midnightblue" points="180.815,-74.242 170.297,-75.5164 179.314,-81.0792 180.815,-74.242"/>
</g>
<!-- Node5&#45;&gt;Node13 -->
<g id="edge15" class="edge"><title>Node5&#45;&gt;Node13</title>
<path fill="none" stroke="midnightblue" d="M368.748,-112.083C361.03,-104.22 349.595,-92.5688 340.283,-83.0813"/>
<polygon fill="midnightblue" stroke="midnightblue" points="342.592,-80.4363 333.089,-75.7511 337.596,-85.3396 342.592,-80.4363"/>
</g>
<!-- Node10&#45;&gt;Node6 -->
<g id="edge10" class="edge"><title>Node10&#45;&gt;Node6</title>
<path fill="none" stroke="midnightblue" d="M148.209,-56.324C164.812,-47.7034 190.502,-34.3643 209.72,-24.3855"/>
<polygon fill="midnightblue" stroke="midnightblue" points="211.57,-27.3689 218.832,-19.6545 208.344,-21.1565 211.57,-27.3689"/>
</g>
<!-- Node10&#45;&gt;Node7 -->
<g id="edge11" class="edge"><title>Node10&#45;&gt;Node7</title>
<path fill="none" stroke="midnightblue" d="M159.388,-56.4435C192.449,-46.2999 247.193,-29.5034 280.057,-19.4199"/>
<polygon fill="midnightblue" stroke="midnightblue" points="281.37,-22.6782 289.904,-16.3989 279.317,-15.9861 281.37,-22.6782"/>
</g>
<!-- Node10&#45;&gt;Node9 -->
<g id="edge12" class="edge"><title>Node10&#45;&gt;Node9</title>
<path fill="none" stroke="midnightblue" d="M171.23,-56.4444C210.114,-48.0152 271.282,-34.6069 333.279,-20.2505"/>
<polygon fill="midnightblue" stroke="midnightblue" points="334.283,-23.6104 343.232,-17.9389 332.7,-16.7918 334.283,-23.6104"/>
</g>
<!-- Node11 -->
<g id="node11" class="node"><title>Node11</title>
<polygon fill="none" stroke="#bfbfbf" points="0,-0.5 0,-19.5 59,-19.5 59,-0.5 0,-0.5"/>
<text text-anchor="middle" x="29.5" y="-7.5" font-family="Helvetica,sans-Serif" font-size="10.00">TObject.h</text>
</g>
<!-- Node10&#45;&gt;Node11 -->
<g id="edge13" class="edge"><title>Node10&#45;&gt;Node11</title>
<path fill="none" stroke="midnightblue" d="M115.112,-56.324C98.8287,-47.7034 73.6325,-34.3643 54.7837,-24.3855"/>
<polygon fill="midnightblue" stroke="midnightblue" points="56.3229,-21.2402 45.8474,-19.6545 53.0477,-27.4267 56.3229,-21.2402"/>
</g>
<!-- Node12 -->
<g id="node12" class="node"><title>Node12</title>
<polygon fill="none" stroke="#bfbfbf" points="77.5,-0.5 77.5,-19.5 193.5,-19.5 193.5,-0.5 77.5,-0.5"/>
<text text-anchor="middle" x="135.5" y="-7.5" font-family="Helvetica,sans-Serif" font-size="10.00">Common/Exceptions.h</text>
</g>
<!-- Node10&#45;&gt;Node12 -->
<g id="edge14" class="edge"><title>Node10&#45;&gt;Node12</title>
<path fill="none" stroke="midnightblue" d="M132.161,-56.083C132.685,-49.0059 133.436,-38.8611 134.094,-29.9865"/>
<polygon fill="midnightblue" stroke="midnightblue" points="137.603,-29.9823 134.852,-19.7511 130.623,-29.4652 137.603,-29.9823"/>
</g>
<!-- Node13&#45;&gt;Node6 -->
<g id="edge17" class="edge"><title>Node13&#45;&gt;Node6</title>
<path fill="none" stroke="midnightblue" d="M310.201,-56.324C296.317,-47.9002 275.008,-34.9709 258.696,-25.0741"/>
<polygon fill="midnightblue" stroke="midnightblue" points="260.129,-21.8495 249.764,-19.6545 256.498,-27.8341 260.129,-21.8495"/>
</g>
<!-- Node13&#45;&gt;Node7 -->
<g id="edge18" class="edge"><title>Node13&#45;&gt;Node7</title>
<path fill="none" stroke="midnightblue" d="M321.693,-56.083C319.415,-48.8486 316.129,-38.4087 313.292,-29.3968"/>
<polygon fill="midnightblue" stroke="midnightblue" points="316.596,-28.2385 310.255,-19.7511 309.919,-30.3406 316.596,-28.2385"/>
</g>
<!-- Node13&#45;&gt;Node9 -->
<g id="edge16" class="edge"><title>Node13&#45;&gt;Node9</title>
<path fill="none" stroke="midnightblue" d="M332.261,-56.083C339.037,-48.2982 349.043,-36.8015 357.255,-27.3665"/>
<polygon fill="midnightblue" stroke="midnightblue" points="359.958,-29.592 363.883,-19.7511 354.678,-24.9963 359.958,-29.592"/>
</g>
</g>
</svg>
