<?xml version="1.0" encoding="UTF-8" standalone="no"?>
<!DOCTYPE svg PUBLIC "-//W3C//DTD SVG 1.1//EN"
 "http://www.w3.org/Graphics/SVG/1.1/DTD/svg11.dtd">
<!-- Generated by graphviz version 2.38.0 (20140413.2041)
 -->
<!-- Title: Modules/MFT/include/MFT/BasicTrackQcCheck.h Pages: 1 -->
<svg width="491pt" height="207pt"
 viewBox="0.00 0.00 491.33 207.00" xmlns="http://www.w3.org/2000/svg" xmlns:xlink="http://www.w3.org/1999/xlink">
<g id="graph0" class="graph" transform="scale(1 1) rotate(0) translate(4 203)">
<title>Modules/MFT/include/MFT/BasicTrackQcCheck.h</title>
<!-- Node1 -->
<g id="node1" class="node"><title>Node1</title>
<polygon fill="#bfbfbf" stroke="black" points="144.829,-168.5 144.829,-198.5 286.829,-198.5 286.829,-168.5 144.829,-168.5"/>
<text text-anchor="start" x="152.829" y="-186.5" font-family="Helvetica,sans-Serif" font-size="10.00">Modules/MFT/include</text>
<text text-anchor="middle" x="215.829" y="-175.5" font-family="Helvetica,sans-Serif" font-size="10.00">/MFT/BasicTrackQcCheck.h</text>
</g>
<!-- Node2 -->
<g id="node2" class="node"><title>Node2</title>
<g id="a_node2"><a xlink:href="CheckInterface_8h.html" target="_top" xlink:title="QualityControl/CheckInterface.h">
<polygon fill="none" stroke="black" points="137.329,-112.5 137.329,-131.5 294.329,-131.5 294.329,-112.5 137.329,-112.5"/>
<text text-anchor="middle" x="215.829" y="-119.5" font-family="Helvetica,sans-Serif" font-size="10.00">QualityControl/CheckInterface.h</text>
</a>
</g>
</g>
<!-- Node1&#45;&gt;Node2 -->
<g id="edge1" class="edge"><title>Node1&#45;&gt;Node2</title>
<path fill="none" stroke="midnightblue" d="M215.829,-168.399C215.829,-160.466 215.829,-150.458 215.829,-141.858"/>
<polygon fill="midnightblue" stroke="midnightblue" points="219.329,-141.658 215.829,-131.658 212.329,-141.658 219.329,-141.658"/>
</g>
<!-- Node3 -->
<g id="node3" class="node"><title>Node3</title>
<polygon fill="none" stroke="#bfbfbf" points="54.3291,-0.5 54.3291,-19.5 95.3291,-19.5 95.3291,-0.5 54.3291,-0.5"/>
<text text-anchor="middle" x="74.8291" y="-7.5" font-family="Helvetica,sans-Serif" font-size="10.00">string</text>
</g>
<!-- Node2&#45;&gt;Node3 -->
<g id="edge2" class="edge"><title>Node2&#45;&gt;Node3</title>
<path fill="none" stroke="midnightblue" d="M137.241,-114.442C84.4263,-108.216 21.5284,-96.6364 4.82905,-76 -11.7095,-55.5623 19.0794,-35.5106 44.9218,-23.2044"/>
<polygon fill="midnightblue" stroke="midnightblue" points="46.4587,-26.3506 54.1221,-19.0346 43.569,-19.9749 46.4587,-26.3506"/>
</g>
<!-- Node4 -->
<g id="node4" class="node"><title>Node4</title>
<polygon fill="none" stroke="#bfbfbf" points="129.329,-0.5 129.329,-19.5 164.329,-19.5 164.329,-0.5 129.329,-0.5"/>
<text text-anchor="middle" x="146.829" y="-7.5" font-family="Helvetica,sans-Serif" font-size="10.00">map</text>
</g>
<!-- Node2&#45;&gt;Node4 -->
<g id="edge3" class="edge"><title>Node2&#45;&gt;Node4</title>
<path fill="none" stroke="midnightblue" d="M208.913,-112.27C201.986,-103.37 191.184,-89.0563 182.829,-76 172.855,-60.4148 162.757,-41.8884 155.804,-28.6095"/>
<polygon fill="midnightblue" stroke="midnightblue" points="158.855,-26.8903 151.154,-19.6136 152.637,-30.1043 158.855,-26.8903"/>
</g>
<!-- Node5 -->
<g id="node5" class="node"><title>Node5</title>
<polygon fill="none" stroke="#bfbfbf" points="400.329,-56.5 400.329,-75.5 483.329,-75.5 483.329,-56.5 400.329,-56.5"/>
<text text-anchor="middle" x="441.829" y="-63.5" font-family="Helvetica,sans-Serif" font-size="10.00">unordered_map</text>
</g>
<!-- Node2&#45;&gt;Node5 -->
<g id="edge4" class="edge"><title>Node2&#45;&gt;Node5</title>
<path fill="none" stroke="midnightblue" d="M251.639,-112.444C290.817,-103.083 353.706,-88.0561 396.344,-77.868"/>
<polygon fill="midnightblue" stroke="midnightblue" points="397.273,-81.2446 406.186,-75.5164 395.647,-74.4363 397.273,-81.2446"/>
</g>
<!-- Node6 -->
<g id="node6" class="node"><title>Node6</title>
<polygon fill="none" stroke="#bfbfbf" points="182.829,-0.5 182.829,-19.5 238.829,-19.5 238.829,-0.5 182.829,-0.5"/>
<text text-anchor="middle" x="210.829" y="-7.5" font-family="Helvetica,sans-Serif" font-size="10.00">Rtypes.h</text>
</g>
<!-- Node2&#45;&gt;Node6 -->
<g id="edge5" class="edge"><title>Node2&#45;&gt;Node6</title>
<path fill="none" stroke="midnightblue" d="M281.602,-112.488C326.638,-103.769 374.445,-86.957 351.829,-56 345.554,-47.4108 288.406,-31.106 248.821,-20.6603"/>
<polygon fill="midnightblue" stroke="midnightblue" points="249.488,-17.2172 238.928,-18.0746 247.718,-23.9897 249.488,-17.2172"/>
</g>
<!-- Node7 -->
<g id="node7" class="node"><title>Node7</title>
<g id="a_node7"><a xlink:href="MonitorObject_8h.html" target="_top" xlink:title="QualityControl/MonitorObject.h">
<polygon fill="none" stroke="black" points="192.329,-56.5 192.329,-75.5 343.329,-75.5 343.329,-56.5 192.329,-56.5"/>
<text text-anchor="middle" x="267.829" y="-63.5" font-family="Helvetica,sans-Serif" font-size="10.00">QualityControl/MonitorObject.h</text>
</a>
</g>
</g>
<!-- Node2&#45;&gt;Node7 -->
<g id="edge6" class="edge"><title>Node2&#45;&gt;Node7</title>
<path fill="none" stroke="midnightblue" d="M224.416,-112.083C231.988,-104.22 243.207,-92.5688 252.343,-83.0813"/>
<polygon fill="midnightblue" stroke="midnightblue" points="254.987,-85.3821 259.402,-75.7511 249.945,-80.5266 254.987,-85.3821"/>
</g>
<!-- Node10 -->
<g id="node10" class="node"><title>Node10</title>
<g id="a_node10"><a xlink:href="Quality_8h.html" target="_top" xlink:title="QualityControl/Quality.h">
<polygon fill="none" stroke="black" points="14.3291,-56.5 14.3291,-75.5 135.329,-75.5 135.329,-56.5 14.3291,-56.5"/>
<text text-anchor="middle" x="74.8291" y="-63.5" font-family="Helvetica,sans-Serif" font-size="10.00">QualityControl/Quality.h</text>
</a>
</g>
</g>
<!-- Node2&#45;&gt;Node10 -->
<g id="edge12" class="edge"><title>Node2&#45;&gt;Node10</title>
<path fill="none" stroke="midnightblue" d="M193.487,-112.444C170.076,-103.478 133.093,-89.314 106.639,-79.1827"/>
<polygon fill="midnightblue" stroke="midnightblue" points="107.657,-75.8245 97.0664,-75.5164 105.153,-82.3615 107.657,-75.8245"/>
</g>
<!-- Node7&#45;&gt;Node3 -->
<g id="edge7" class="edge"><title>Node7&#45;&gt;Node3</title>
<path fill="none" stroke="midnightblue" d="M237.248,-56.4435C201.163,-46.3474 141.524,-29.6606 105.43,-19.562"/>
<polygon fill="midnightblue" stroke="midnightblue" points="106.049,-16.1007 95.4756,-16.7767 104.163,-22.8418 106.049,-16.1007"/>
</g>
<!-- Node7&#45;&gt;Node4 -->
<g id="edge8" class="edge"><title>Node7&#45;&gt;Node4</title>
<path fill="none" stroke="midnightblue" d="M248.656,-56.4435C228.456,-47.4283 196.48,-33.1583 173.754,-23.0161"/>
<polygon fill="midnightblue" stroke="midnightblue" points="174.899,-19.6944 164.341,-18.8151 172.046,-26.0867 174.899,-19.6944"/>
</g>
<!-- Node7&#45;&gt;Node6 -->
<g id="edge9" class="edge"><title>Node7&#45;&gt;Node6</title>
<path fill="none" stroke="midnightblue" d="M258.671,-56.324C250.328,-48.4196 237.797,-36.5482 227.652,-26.9377"/>
<polygon fill="midnightblue" stroke="midnightblue" points="229.82,-24.1705 220.154,-19.8339 225.006,-29.2522 229.82,-24.1705"/>
</g>
<!-- Node8 -->
<g id="node8" class="node"><title>Node8</title>
<polygon fill="none" stroke="#bfbfbf" points="391.329,-0.5 391.329,-19.5 450.329,-19.5 450.329,-0.5 391.329,-0.5"/>
<text text-anchor="middle" x="420.829" y="-7.5" font-family="Helvetica,sans-Serif" font-size="10.00">TObject.h</text>
</g>
<!-- Node7&#45;&gt;Node8 -->
<g id="edge10" class="edge"><title>Node7&#45;&gt;Node8</title>
<path fill="none" stroke="midnightblue" d="M292.072,-56.4435C317.7,-47.3986 358.314,-33.064 387.067,-22.9158"/>
<polygon fill="midnightblue" stroke="midnightblue" points="388.434,-26.1452 396.699,-19.5164 386.104,-19.5442 388.434,-26.1452"/>
</g>
<!-- Node9 -->
<g id="node9" class="node"><title>Node9</title>
<polygon fill="none" stroke="#bfbfbf" points="256.829,-0.5 256.829,-19.5 372.829,-19.5 372.829,-0.5 256.829,-0.5"/>
<text text-anchor="middle" x="314.829" y="-7.5" font-family="Helvetica,sans-Serif" font-size="10.00">Common/Exceptions.h</text>
</g>
<!-- Node7&#45;&gt;Node9 -->
<g id="edge11" class="edge"><title>Node7&#45;&gt;Node9</title>
<path fill="none" stroke="midnightblue" d="M275.59,-56.083C282.366,-48.2982 292.372,-36.8015 300.584,-27.3665"/>
<polygon fill="midnightblue" stroke="midnightblue" points="303.287,-29.592 307.212,-19.7511 298.007,-24.9963 303.287,-29.592"/>
</g>
<!-- Node10&#45;&gt;Node3 -->
<g id="edge14" class="edge"><title>Node10&#45;&gt;Node3</title>
<path fill="none" stroke="midnightblue" d="M74.8291,-56.083C74.8291,-49.0059 74.8291,-38.8611 74.8291,-29.9865"/>
<polygon fill="midnightblue" stroke="midnightblue" points="78.3292,-29.751 74.8291,-19.7511 71.3292,-29.7511 78.3292,-29.751"/>
</g>
<!-- Node10&#45;&gt;Node4 -->
<g id="edge15" class="edge"><title>Node10&#45;&gt;Node4</title>
<path fill="none" stroke="midnightblue" d="M86.3971,-56.324C97.2492,-48.1849 113.71,-35.8395 126.712,-26.0874"/>
<polygon fill="midnightblue" stroke="midnightblue" points="129.151,-28.6339 135.051,-19.8339 124.95,-23.0339 129.151,-28.6339"/>
</g>
<!-- Node10&#45;&gt;Node6 -->
<g id="edge13" class="edge"><title>Node10&#45;&gt;Node6</title>
<path fill="none" stroke="midnightblue" d="M96.3787,-56.4435C118.86,-47.5171 154.317,-33.4387 179.809,-23.3168"/>
<polygon fill="midnightblue" stroke="midnightblue" points="181.378,-26.4598 189.38,-19.5164 178.794,-19.9539 181.378,-26.4598"/>
</g>
</g>
</svg>
