<?xml version="1.0" encoding="UTF-8" standalone="no"?>
<!DOCTYPE svg PUBLIC "-//W3C//DTD SVG 1.1//EN"
 "http://www.w3.org/Graphics/SVG/1.1/DTD/svg11.dtd">
<!-- Generated by graphviz version 2.38.0 (20140413.2041)
 -->
<!-- Title: Modules/MFT/include/MFT/BasicDigitQcTask.h Pages: 1 -->
<svg width="933pt" height="274pt"
 viewBox="0.00 0.00 932.50 274.00" xmlns="http://www.w3.org/2000/svg" xmlns:xlink="http://www.w3.org/1999/xlink">
<g id="graph0" class="graph" transform="scale(1 1) rotate(0) translate(4 270)">
<title>Modules/MFT/include/MFT/BasicDigitQcTask.h</title>
<!-- Node1 -->
<g id="node1" class="node"><title>Node1</title>
<polygon fill="#bfbfbf" stroke="black" points="40,-235.5 40,-265.5 171,-265.5 171,-235.5 40,-235.5"/>
<text text-anchor="start" x="48" y="-253.5" font-family="Helvetica,sans-Serif" font-size="10.00">Modules/MFT/include</text>
<text text-anchor="middle" x="105.5" y="-242.5" font-family="Helvetica,sans-Serif" font-size="10.00">/MFT/BasicDigitQcTask.h</text>
</g>
<!-- Node2 -->
<g id="node2" class="node"><title>Node2</title>
<polygon fill="none" stroke="#bfbfbf" points="0,-179.5 0,-198.5 65,-198.5 65,-179.5 0,-179.5"/>
<text text-anchor="middle" x="32.5" y="-186.5" font-family="Helvetica,sans-Serif" font-size="10.00">TCanvas.h</text>
</g>
<!-- Node1&#45;&gt;Node2 -->
<g id="edge1" class="edge"><title>Node1&#45;&gt;Node2</title>
<path fill="none" stroke="midnightblue" d="M88.2,-235.399C77.0455,-226.308 62.5465,-214.49 51.1376,-205.191"/>
<polygon fill="midnightblue" stroke="midnightblue" points="53.0848,-202.263 43.1221,-198.658 48.6623,-207.689 53.0848,-202.263"/>
</g>
<!-- Node3 -->
<g id="node3" class="node"><title>Node3</title>
<polygon fill="none" stroke="#bfbfbf" points="83.5,-179.5 83.5,-198.5 127.5,-198.5 127.5,-179.5 83.5,-179.5"/>
<text text-anchor="middle" x="105.5" y="-186.5" font-family="Helvetica,sans-Serif" font-size="10.00">TH1.h</text>
</g>
<!-- Node1&#45;&gt;Node3 -->
<g id="edge2" class="edge"><title>Node1&#45;&gt;Node3</title>
<path fill="none" stroke="midnightblue" d="M105.5,-235.399C105.5,-227.466 105.5,-217.458 105.5,-208.858"/>
<polygon fill="midnightblue" stroke="midnightblue" points="109,-208.658 105.5,-198.658 102,-208.658 109,-208.658"/>
</g>
<!-- Node4 -->
<g id="node4" class="node"><title>Node4</title>
<g id="a_node4"><a xlink:href="TaskInterface_8h.html" target="_top" xlink:title="QualityControl/TaskInterface.h">
<polygon fill="none" stroke="black" points="145.5,-179.5 145.5,-198.5 295.5,-198.5 295.5,-179.5 145.5,-179.5"/>
<text text-anchor="middle" x="220.5" y="-186.5" font-family="Helvetica,sans-Serif" font-size="10.00">QualityControl/TaskInterface.h</text>
</a>
</g>
</g>
<!-- Node1&#45;&gt;Node4 -->
<g id="edge3" class="edge"><title>Node1&#45;&gt;Node4</title>
<path fill="none" stroke="midnightblue" d="M132.753,-235.399C151.532,-225.684 176.326,-212.855 194.768,-203.314"/>
<polygon fill="midnightblue" stroke="midnightblue" points="196.493,-206.362 203.766,-198.658 193.276,-200.145 196.493,-206.362"/>
</g>
<!-- Node5 -->
<g id="node5" class="node"><title>Node5</title>
<polygon fill="none" stroke="#bfbfbf" points="245,-0.5 245,-19.5 280,-19.5 280,-0.5 245,-0.5"/>
<text text-anchor="middle" x="262.5" y="-7.5" font-family="Helvetica,sans-Serif" font-size="10.00">map</text>
</g>
<!-- Node4&#45;&gt;Node5 -->
<g id="edge4" class="edge"><title>Node4&#45;&gt;Node5</title>
<path fill="none" stroke="midnightblue" d="M177.433,-179.486C157.104,-173.074 134.677,-161.991 122.5,-143 101.629,-110.45 99.7229,-87.246 122.5,-56 148.037,-20.9681 201.292,-12.611 234.259,-10.9548"/>
<polygon fill="midnightblue" stroke="midnightblue" points="234.71,-14.4422 244.592,-10.6212 234.484,-7.4458 234.71,-14.4422"/>
</g>
<!-- Node6 -->
<g id="node6" class="node"><title>Node6</title>
<polygon fill="none" stroke="#bfbfbf" points="175.5,-62 175.5,-81 227.5,-81 227.5,-62 175.5,-62"/>
<text text-anchor="middle" x="201.5" y="-69" font-family="Helvetica,sans-Serif" font-size="10.00">memory</text>
</g>
<!-- Node4&#45;&gt;Node6 -->
<g id="edge5" class="edge"><title>Node4&#45;&gt;Node6</title>
<path fill="none" stroke="midnightblue" d="M213.349,-179.364C206.727,-170.763 197.343,-156.873 193.5,-143 188.731,-125.783 191.933,-105.447 195.605,-91.0511"/>
<polygon fill="midnightblue" stroke="midnightblue" points="198.995,-91.9279 198.381,-81.3508 192.265,-90.0022 198.995,-91.9279"/>
</g>
<!-- Node7 -->
<g id="node7" class="node"><title>Node7</title>
<polygon fill="none" stroke="#bfbfbf" points="330,-0.5 330,-19.5 371,-19.5 371,-0.5 330,-0.5"/>
<text text-anchor="middle" x="350.5" y="-7.5" font-family="Helvetica,sans-Serif" font-size="10.00">string</text>
</g>
<!-- Node4&#45;&gt;Node7 -->
<g id="edge6" class="edge"><title>Node4&#45;&gt;Node7</title>
<path fill="none" stroke="midnightblue" d="M211.521,-179.452C189.164,-157.146 135.008,-96.1226 166.5,-56 176.002,-43.8943 269.983,-25.4328 319.822,-16.3824"/>
<polygon fill="midnightblue" stroke="midnightblue" points="320.517,-19.8136 329.74,-14.5997 319.279,-12.924 320.517,-19.8136"/>
</g>
<!-- Node8 -->
<g id="node8" class="node"><title>Node8</title>
<polygon fill="none" stroke="#bfbfbf" points="80,-0.5 80,-19.5 163,-19.5 163,-0.5 80,-0.5"/>
<text text-anchor="middle" x="121.5" y="-7.5" font-family="Helvetica,sans-Serif" font-size="10.00">unordered_map</text>
</g>
<!-- Node4&#45;&gt;Node8 -->
<g id="edge7" class="edge"><title>Node4&#45;&gt;Node8</title>
<path fill="none" stroke="midnightblue" d="M167.761,-179.473C145.908,-173.143 122.451,-162.133 108.5,-143 83.7178,-109.013 100.92,-56.3226 112.81,-28.9237"/>
<polygon fill="midnightblue" stroke="midnightblue" points="116.028,-30.3022 117.008,-19.7528 109.663,-27.3886 116.028,-30.3022"/>
</g>
<!-- Node9 -->
<g id="node9" class="node"><title>Node9</title>
<polygon fill="none" stroke="#bfbfbf" points="203,-123.5 203,-142.5 328,-142.5 328,-123.5 203,-123.5"/>
<text text-anchor="middle" x="265.5" y="-130.5" font-family="Helvetica,sans-Serif" font-size="10.00">Framework/InitContext.h</text>
</g>
<!-- Node4&#45;&gt;Node9 -->
<g id="edge8" class="edge"><title>Node4&#45;&gt;Node9</title>
<path fill="none" stroke="midnightblue" d="M227.931,-179.083C234.353,-171.377 243.806,-160.033 251.622,-150.653"/>
<polygon fill="midnightblue" stroke="midnightblue" points="254.494,-152.674 258.207,-142.751 249.117,-148.193 254.494,-152.674"/>
</g>
<!-- Node10 -->
<g id="node10" class="node"><title>Node10</title>
<polygon fill="none" stroke="#bfbfbf" points="346.5,-123.5 346.5,-142.5 506.5,-142.5 506.5,-123.5 346.5,-123.5"/>
<text text-anchor="middle" x="426.5" y="-130.5" font-family="Helvetica,sans-Serif" font-size="10.00">Framework/ProcessingContext.h</text>
</g>
<!-- Node4&#45;&gt;Node10 -->
<g id="edge9" class="edge"><title>Node4&#45;&gt;Node10</title>
<path fill="none" stroke="midnightblue" d="M253.141,-179.444C288.55,-170.162 345.209,-155.309 384.053,-145.127"/>
<polygon fill="midnightblue" stroke="midnightblue" points="385.226,-148.438 394.011,-142.516 383.451,-141.667 385.226,-148.438"/>
</g>
<!-- Node11 -->
<g id="node11" class="node"><title>Node11</title>
<g id="a_node11"><a xlink:href="Activity_8h.html" target="_top" xlink:title="QualityControl/Activity.h">
<polygon fill="none" stroke="black" points="525,-123.5 525,-142.5 648,-142.5 648,-123.5 525,-123.5"/>
<text text-anchor="middle" x="586.5" y="-130.5" font-family="Helvetica,sans-Serif" font-size="10.00">QualityControl/Activity.h</text>
</a>
</g>
</g>
<!-- Node4&#45;&gt;Node11 -->
<g id="edge10" class="edge"><title>Node4&#45;&gt;Node11</title>
<path fill="none" stroke="midnightblue" d="M278.494,-179.444C343.814,-169.806 449.837,-154.163 518.87,-143.978"/>
<polygon fill="midnightblue" stroke="midnightblue" points="519.396,-147.439 528.778,-142.516 518.374,-140.514 519.396,-147.439"/>
</g>
<!-- Node12 -->
<g id="node12" class="node"><title>Node12</title>
<g id="a_node12"><a xlink:href="ObjectsManager_8h.html" target="_top" xlink:title="QualityControl/ObjectsManager.h">
<polygon fill="none" stroke="black" points="666,-123.5 666,-142.5 827,-142.5 827,-123.5 666,-123.5"/>
<text text-anchor="middle" x="746.5" y="-130.5" font-family="Helvetica,sans-Serif" font-size="10.00">QualityControl/ObjectsManager.h</text>
</a>
</g>
</g>
<!-- Node4&#45;&gt;Node12 -->
<g id="edge11" class="edge"><title>Node4&#45;&gt;Node12</title>
<path fill="none" stroke="midnightblue" d="M295.583,-180.292C390.494,-170.548 553.749,-153.788 655.605,-143.331"/>
<polygon fill="midnightblue" stroke="midnightblue" points="655.981,-146.811 665.572,-142.308 655.266,-139.848 655.981,-146.811"/>
</g>
<!-- Node12&#45;&gt;Node6 -->
<g id="edge25" class="edge"><title>Node12&#45;&gt;Node6</title>
<path fill="none" stroke="midnightblue" d="M665.975,-123.805C663.115,-123.531 660.283,-123.261 657.5,-123 473.174,-105.686 423.444,-126.178 242.5,-87 239.076,-86.2586 235.545,-85.3094 232.06,-84.2523"/>
<polygon fill="midnightblue" stroke="midnightblue" points="233.077,-80.902 222.483,-81.0698 230.869,-87.5448 233.077,-80.902"/>
</g>
<!-- Node12&#45;&gt;Node7 -->
<g id="edge24" class="edge"><title>Node12&#45;&gt;Node7</title>
<path fill="none" stroke="midnightblue" d="M673.391,-123.499C589.116,-113.357 459.45,-96.5756 438.5,-87 434.356,-85.1057 392.269,-48.0657 367.832,-26.4071"/>
<polygon fill="midnightblue" stroke="midnightblue" points="370.104,-23.7443 360.302,-19.7247 365.458,-28.98 370.104,-23.7443"/>
</g>
<!-- Node13 -->
<g id="node13" class="node"><title>Node13</title>
<g id="a_node13"><a xlink:href="MonitorObject_8h.html" target="_top" xlink:title="QualityControl/MonitorObject.h">
<polygon fill="none" stroke="black" points="448,-62 448,-81 599,-81 599,-62 448,-62"/>
<text text-anchor="middle" x="523.5" y="-69" font-family="Helvetica,sans-Serif" font-size="10.00">QualityControl/MonitorObject.h</text>
</a>
</g>
</g>
<!-- Node12&#45;&gt;Node13 -->
<g id="edge12" class="edge"><title>Node12&#45;&gt;Node13</title>
<path fill="none" stroke="midnightblue" d="M714.55,-123.475C675.304,-113.004 608.622,-95.2118 565.327,-83.6601"/>
<polygon fill="midnightblue" stroke="midnightblue" points="565.956,-80.2054 555.391,-81.0091 564.151,-86.9688 565.956,-80.2054"/>
</g>
<!-- Node17 -->
<g id="node17" class="node"><title>Node17</title>
<g id="a_node17"><a xlink:href="MonitorObjectCollection_8h.html" target="_top" xlink:title="QualityControl/MonitorObject\lCollection.h">
<polygon fill="none" stroke="black" points="675,-56.5 675,-86.5 818,-86.5 818,-56.5 675,-56.5"/>
<text text-anchor="start" x="683" y="-74.5" font-family="Helvetica,sans-Serif" font-size="10.00">QualityControl/MonitorObject</text>
<text text-anchor="middle" x="746.5" y="-63.5" font-family="Helvetica,sans-Serif" font-size="10.00">Collection.h</text>
</a>
</g>
</g>
<!-- Node12&#45;&gt;Node17 -->
<g id="edge18" class="edge"><title>Node12&#45;&gt;Node17</title>
<path fill="none" stroke="midnightblue" d="M746.5,-123.475C746.5,-116.471 746.5,-106.192 746.5,-96.6956"/>
<polygon fill="midnightblue" stroke="midnightblue" points="750,-96.5229 746.5,-86.523 743,-96.523 750,-96.5229"/>
</g>
<!-- Node20 -->
<g id="node20" class="node"><title>Node20</title>
<g id="a_node20"><a xlink:href="TaskConfig_8h.html" target="_top" xlink:title="QualityControl/TaskConfig.h">
<polygon fill="none" stroke="black" points="251.5,-62 251.5,-81 391.5,-81 391.5,-62 251.5,-62"/>
<text text-anchor="middle" x="321.5" y="-69" font-family="Helvetica,sans-Serif" font-size="10.00">QualityControl/TaskConfig.h</text>
</a>
</g>
</g>
<!-- Node12&#45;&gt;Node20 -->
<g id="edge21" class="edge"><title>Node12&#45;&gt;Node20</title>
<path fill="none" stroke="midnightblue" d="M675.523,-123.467C606.465,-114.969 498.627,-101.177 405.5,-87 396.89,-85.6893 387.799,-84.2149 378.904,-82.7213"/>
<polygon fill="midnightblue" stroke="midnightblue" points="379.425,-79.2598 368.98,-81.0346 378.252,-86.1608 379.425,-79.2598"/>
</g>
<!-- Node13&#45;&gt;Node5 -->
<g id="edge14" class="edge"><title>Node13&#45;&gt;Node5</title>
<path fill="none" stroke="midnightblue" d="M486.105,-61.9751C433.032,-49.8761 337.091,-28.0045 290.034,-17.277"/>
<polygon fill="midnightblue" stroke="midnightblue" points="290.764,-13.8536 280.236,-15.0433 289.208,-20.6785 290.764,-13.8536"/>
</g>
<!-- Node13&#45;&gt;Node7 -->
<g id="edge13" class="edge"><title>Node13&#45;&gt;Node7</title>
<path fill="none" stroke="midnightblue" d="M498.713,-61.9751C467.639,-51.2877 414.394,-32.975 380.895,-21.4536"/>
<polygon fill="midnightblue" stroke="midnightblue" points="381.773,-18.0547 371.179,-18.112 379.497,-24.6741 381.773,-18.0547"/>
</g>
<!-- Node14 -->
<g id="node14" class="node"><title>Node14</title>
<polygon fill="none" stroke="#bfbfbf" points="419.5,-0.5 419.5,-19.5 475.5,-19.5 475.5,-0.5 419.5,-0.5"/>
<text text-anchor="middle" x="447.5" y="-7.5" font-family="Helvetica,sans-Serif" font-size="10.00">Rtypes.h</text>
</g>
<!-- Node13&#45;&gt;Node14 -->
<g id="edge15" class="edge"><title>Node13&#45;&gt;Node14</title>
<path fill="none" stroke="midnightblue" d="M512.611,-61.9751C500.534,-52.5199 480.833,-37.0961 466.26,-25.6871"/>
<polygon fill="midnightblue" stroke="midnightblue" points="468.4,-22.9177 458.369,-19.5091 464.085,-28.4295 468.4,-22.9177"/>
</g>
<!-- Node15 -->
<g id="node15" class="node"><title>Node15</title>
<polygon fill="none" stroke="#bfbfbf" points="494,-0.5 494,-19.5 553,-19.5 553,-0.5 494,-0.5"/>
<text text-anchor="middle" x="523.5" y="-7.5" font-family="Helvetica,sans-Serif" font-size="10.00">TObject.h</text>
</g>
<!-- Node13&#45;&gt;Node15 -->
<g id="edge16" class="edge"><title>Node13&#45;&gt;Node15</title>
<path fill="none" stroke="midnightblue" d="M523.5,-61.9751C523.5,-53.5803 523.5,-40.4806 523.5,-29.6631"/>
<polygon fill="midnightblue" stroke="midnightblue" points="527,-29.5091 523.5,-19.5091 520,-29.5091 527,-29.5091"/>
</g>
<!-- Node16 -->
<g id="node16" class="node"><title>Node16</title>
<polygon fill="none" stroke="#bfbfbf" points="571.5,-0.5 571.5,-19.5 687.5,-19.5 687.5,-0.5 571.5,-0.5"/>
<text text-anchor="middle" x="629.5" y="-7.5" font-family="Helvetica,sans-Serif" font-size="10.00">Common/Exceptions.h</text>
</g>
<!-- Node13&#45;&gt;Node16 -->
<g id="edge17" class="edge"><title>Node13&#45;&gt;Node16</title>
<path fill="none" stroke="midnightblue" d="M538.687,-61.9751C556.162,-52.1664 585.079,-35.9346 605.583,-24.425"/>
<polygon fill="midnightblue" stroke="midnightblue" points="607.334,-27.456 614.341,-19.5091 603.908,-21.3519 607.334,-27.456"/>
</g>
<!-- Node18 -->
<g id="node18" class="node"><title>Node18</title>
<polygon fill="none" stroke="#bfbfbf" points="709,-0.5 709,-19.5 778,-19.5 778,-0.5 709,-0.5"/>
<text text-anchor="middle" x="743.5" y="-7.5" font-family="Helvetica,sans-Serif" font-size="10.00">TObjArray.h</text>
</g>
<!-- Node17&#45;&gt;Node18 -->
<g id="edge19" class="edge"><title>Node17&#45;&gt;Node18</title>
<path fill="none" stroke="midnightblue" d="M745.789,-56.3993C745.389,-48.4664 744.884,-38.458 744.451,-29.8583"/>
<polygon fill="midnightblue" stroke="midnightblue" points="747.936,-29.4688 743.937,-19.6578 740.945,-29.8214 747.936,-29.4688"/>
</g>
<!-- Node19 -->
<g id="node19" class="node"><title>Node19</title>
<polygon fill="none" stroke="#bfbfbf" points="796.5,-0.5 796.5,-19.5 924.5,-19.5 924.5,-0.5 796.5,-0.5"/>
<text text-anchor="middle" x="860.5" y="-7.5" font-family="Helvetica,sans-Serif" font-size="10.00">Mergers/MergeInterface.h</text>
</g>
<!-- Node17&#45;&gt;Node19 -->
<g id="edge20" class="edge"><title>Node17&#45;&gt;Node19</title>
<path fill="none" stroke="midnightblue" d="M773.516,-56.3993C792.131,-46.6837 816.71,-33.8551 834.991,-24.3137"/>
<polygon fill="midnightblue" stroke="midnightblue" points="836.666,-27.3876 843.912,-19.6578 833.427,-21.182 836.666,-27.3876"/>
</g>
<!-- Node20&#45;&gt;Node7 -->
<g id="edge22" class="edge"><title>Node20&#45;&gt;Node7</title>
<path fill="none" stroke="midnightblue" d="M325.655,-61.9751C329.876,-53.3152 336.537,-39.6486 341.9,-28.6453"/>
<polygon fill="midnightblue" stroke="midnightblue" points="345.118,-30.0317 346.353,-19.5091 338.825,-26.9648 345.118,-30.0317"/>
</g>
<!-- Node20&#45;&gt;Node8 -->
<g id="edge23" class="edge"><title>Node20&#45;&gt;Node8</title>
<path fill="none" stroke="midnightblue" d="M292.845,-61.9751C257.944,-51.592 198.85,-34.0116 160,-22.4538"/>
<polygon fill="midnightblue" stroke="midnightblue" points="160.685,-19.0059 150.102,-19.5091 158.689,-25.7153 160.685,-19.0059"/>
</g>
</g>
</svg>
