<?xml version="1.0" encoding="UTF-8" standalone="no"?>
<!DOCTYPE svg PUBLIC "-//W3C//DTD SVG 1.1//EN"
 "http://www.w3.org/Graphics/SVG/1.1/DTD/svg11.dtd">
<!-- Generated by graphviz version 2.38.0 (20140413.2041)
 -->
<!-- Title: Modules/MFT/src/BasicClusterQcTask.cxx Pages: 1 -->
<!--zoomable 330 -->
<svg id="main" version="1.1" xmlns="http://www.w3.org/2000/svg" xmlns:xlink="http://www.w3.org/1999/xlink" xml:space="preserve" onload="init(evt)">
<style type="text/css"><![CDATA[
.edge:hover path { stroke: red; }
.edge:hover polygon { stroke: red; fill: red; }
]]></style>
<script type="text/javascript"><![CDATA[
var edges = document.getElementsByTagName('g');
if (edges && edges.length) {
  for (var i=0;i<edges.length;i++) {
    if (edges[i].id.substr(0,4)=='edge') {
      edges[i].setAttribute('class','edge');
    }
  }
}
]]></script>
        <defs>
                <circle id="rim" cx="0" cy="0" r="7"/>
                <circle id="rim2" cx="0" cy="0" r="3.5"/>
                <g id="zoomPlus">
                        <use xlink:href="#rim" fill="#404040">
                                <set attributeName="fill" to="#808080" begin="zoomplus.mouseover" end="zoomplus.mouseout"/>
                        </use>
                        <path d="M-4,0h8M0,-4v8" fill="none" stroke="white" stroke-width="1.5" pointer-events="none"/>
                </g>
                <g id="zoomMin">
                        <use xlink:href="#rim" fill="#404040">
                                <set attributeName="fill" to="#808080" begin="zoomminus.mouseover" end="zoomminus.mouseout"/>
                        </use>
                        <path d="M-4,0h8" fill="none" stroke="white" stroke-width="1.5" pointer-events="none"/>
                </g>
                <g id="dirArrow">
                        <path fill="none" stroke="white" stroke-width="1.5" d="M0,-3.0v7 M-2.5,-0.5L0,-3.0L2.5,-0.5"/>
                </g>
               <g id="resetDef">
                       <use xlink:href="#rim2" fill="#404040">
                               <set attributeName="fill" to="#808080" begin="reset.mouseover" end="reset.mouseout"/>
                       </use>
               </g>
        </defs>

<script type="text/javascript">
var viewWidth = 1265;
var viewHeight = 330;
var sectionId = 'dynsection-0';
</script>
<script xlink:href="svgpan.js"/>
<svg id="graph" class="graph">
<g id="viewport">
<title>Modules/MFT/src/BasicClusterQcTask.cxx</title>
<!-- Node1 -->
<g id="node1" class="node"><title>Node1</title>
<polygon fill="#bfbfbf" stroke="black" points="145.5,-291.5 145.5,-321.5 297.5,-321.5 297.5,-291.5 145.5,-291.5"/>
<text text-anchor="start" x="153.5" y="-309.5" font-family="Helvetica,sans-Serif" font-size="10.00">Modules/MFT/src/BasicCluster</text>
<text text-anchor="middle" x="221.5" y="-298.5" font-family="Helvetica,sans-Serif" font-size="10.00">QcTask.cxx</text>
</g>
<!-- Node2 -->
<g id="node2" class="node"><title>Node2</title>
<polygon fill="none" stroke="#bfbfbf" points="0,-235.5 0,-254.5 65,-254.5 65,-235.5 0,-235.5"/>
<text text-anchor="middle" x="32.5" y="-242.5" font-family="Helvetica,sans-Serif" font-size="10.00">TCanvas.h</text>
</g>
<!-- Node1&#45;&gt;Node2 -->
<g id="edge1" class="edge"><title>Node1&#45;&gt;Node2</title>
<path fill="none" stroke="midnightblue" d="M176.71,-291.399C144.051,-281.118 100.32,-267.351 69.607,-257.682"/>
<polygon fill="midnightblue" stroke="midnightblue" points="70.3148,-254.235 59.7253,-254.571 68.2128,-260.912 70.3148,-254.235"/>
</g>
<!-- Node3 -->
<g id="node3" class="node"><title>Node3</title>
<polygon fill="none" stroke="#bfbfbf" points="83.5,-235.5 83.5,-254.5 127.5,-254.5 127.5,-235.5 83.5,-235.5"/>
<text text-anchor="middle" x="105.5" y="-242.5" font-family="Helvetica,sans-Serif" font-size="10.00">TH1.h</text>
</g>
<!-- Node1&#45;&gt;Node3 -->
<g id="edge2" class="edge"><title>Node1&#45;&gt;Node3</title>
<path fill="none" stroke="midnightblue" d="M194.01,-291.399C175.068,-281.684 150.058,-268.855 131.456,-259.314"/>
<polygon fill="midnightblue" stroke="midnightblue" points="132.874,-256.108 122.379,-254.658 129.679,-262.336 132.874,-256.108"/>
</g>
<!-- Node4 -->
<g id="node4" class="node"><title>Node4</title>
<polygon fill="none" stroke="#bfbfbf" points="145.5,-235.5 145.5,-254.5 297.5,-254.5 297.5,-235.5 145.5,-235.5"/>
<text text-anchor="middle" x="221.5" y="-242.5" font-family="Helvetica,sans-Serif" font-size="10.00">DataFormatsITSMFT/Cluster.h</text>
</g>
<!-- Node1&#45;&gt;Node4 -->
<g id="edge3" class="edge"><title>Node1&#45;&gt;Node4</title>
<path fill="none" stroke="midnightblue" d="M221.5,-291.399C221.5,-283.466 221.5,-273.458 221.5,-264.858"/>
<polygon fill="midnightblue" stroke="midnightblue" points="225,-264.658 221.5,-254.658 218,-264.658 225,-264.658"/>
</g>
<!-- Node5 -->
<g id="node5" class="node"><title>Node5</title>
<g id="a_node5"><a xlink:href="QcInfoLogger_8h.html" target="_top" xlink:title="QualityControl/QcInfoLogger.h">
<polygon fill="none" stroke="black" points="316,-235.5 316,-254.5 465,-254.5 465,-235.5 316,-235.5"/>
<text text-anchor="middle" x="390.5" y="-242.5" font-family="Helvetica,sans-Serif" font-size="10.00">QualityControl/QcInfoLogger.h</text>
</a>
</g>
</g>
<!-- Node1&#45;&gt;Node5 -->
<g id="edge4" class="edge"><title>Node1&#45;&gt;Node5</title>
<path fill="none" stroke="midnightblue" d="M261.551,-291.399C290.412,-281.238 328.945,-267.672 356.353,-258.022"/>
<polygon fill="midnightblue" stroke="midnightblue" points="357.639,-261.28 365.909,-254.658 355.314,-254.677 357.639,-261.28"/>
</g>
<!-- Node7 -->
<g id="node7" class="node"><title>Node7</title>
<g id="a_node7"><a xlink:href="BasicClusterQcTask_8h.html" target="_top" xlink:title="MFT/BasicClusterQcTask.h">
<polygon fill="none" stroke="black" points="483,-235.5 483,-254.5 622,-254.5 622,-235.5 483,-235.5"/>
<text text-anchor="middle" x="552.5" y="-242.5" font-family="Helvetica,sans-Serif" font-size="10.00">MFT/BasicClusterQcTask.h</text>
</a>
</g>
</g>
<!-- Node1&#45;&gt;Node7 -->
<g id="edge6" class="edge"><title>Node1&#45;&gt;Node7</title>
<path fill="none" stroke="midnightblue" d="M297.854,-291.775C358.065,-280.951 440.715,-266.094 495.317,-256.279"/>
<polygon fill="midnightblue" stroke="midnightblue" points="495.951,-259.721 505.174,-254.507 494.713,-252.832 495.951,-259.721"/>
</g>
<!-- Node6 -->
<g id="node6" class="node"><title>Node6</title>
<polygon fill="none" stroke="#bfbfbf" points="325.5,-179.5 325.5,-198.5 455.5,-198.5 455.5,-179.5 325.5,-179.5"/>
<text text-anchor="middle" x="390.5" y="-186.5" font-family="Helvetica,sans-Serif" font-size="10.00">InfoLogger/InfoLogger.hxx</text>
</g>
<!-- Node5&#45;&gt;Node6 -->
<g id="edge5" class="edge"><title>Node5&#45;&gt;Node6</title>
<path fill="none" stroke="midnightblue" d="M390.5,-235.083C390.5,-228.006 390.5,-217.861 390.5,-208.986"/>
<polygon fill="midnightblue" stroke="midnightblue" points="394,-208.751 390.5,-198.751 387,-208.751 394,-208.751"/>
</g>
<!-- Node8 -->
<g id="node8" class="node"><title>Node8</title>
<g id="a_node8"><a xlink:href="TaskInterface_8h.html" target="_top" xlink:title="QualityControl/TaskInterface.h">
<polygon fill="none" stroke="black" points="477.5,-179.5 477.5,-198.5 627.5,-198.5 627.5,-179.5 477.5,-179.5"/>
<text text-anchor="middle" x="552.5" y="-186.5" font-family="Helvetica,sans-Serif" font-size="10.00">QualityControl/TaskInterface.h</text>
</a>
</g>
</g>
<!-- Node7&#45;&gt;Node8 -->
<g id="edge7" class="edge"><title>Node7&#45;&gt;Node8</title>
<path fill="none" stroke="midnightblue" d="M552.5,-235.083C552.5,-228.006 552.5,-217.861 552.5,-208.986"/>
<polygon fill="midnightblue" stroke="midnightblue" points="556,-208.751 552.5,-198.751 549,-208.751 556,-208.751"/>
</g>
<!-- Node9 -->
<g id="node9" class="node"><title>Node9</title>
<polygon fill="none" stroke="#bfbfbf" points="577,-0.5 577,-19.5 612,-19.5 612,-0.5 577,-0.5"/>
<text text-anchor="middle" x="594.5" y="-7.5" font-family="Helvetica,sans-Serif" font-size="10.00">map</text>
</g>
<!-- Node8&#45;&gt;Node9 -->
<g id="edge8" class="edge"><title>Node8&#45;&gt;Node9</title>
<path fill="none" stroke="midnightblue" d="M509.433,-179.486C489.104,-173.074 466.677,-161.991 454.5,-143 433.629,-110.45 431.723,-87.246 454.5,-56 480.037,-20.9681 533.292,-12.611 566.259,-10.9548"/>
<polygon fill="midnightblue" stroke="midnightblue" points="566.71,-14.4422 576.592,-10.6212 566.484,-7.4458 566.71,-14.4422"/>
</g>
<!-- Node10 -->
<g id="node10" class="node"><title>Node10</title>
<polygon fill="none" stroke="#bfbfbf" points="507.5,-62 507.5,-81 559.5,-81 559.5,-62 507.5,-62"/>
<text text-anchor="middle" x="533.5" y="-69" font-family="Helvetica,sans-Serif" font-size="10.00">memory</text>
</g>
<!-- Node8&#45;&gt;Node10 -->
<g id="edge9" class="edge"><title>Node8&#45;&gt;Node10</title>
<path fill="none" stroke="midnightblue" d="M545.61,-179.319C539.231,-170.684 530.192,-156.77 526.5,-143 521.88,-125.77 524.742,-105.435 528.09,-91.0438"/>
<polygon fill="midnightblue" stroke="midnightblue" points="531.482,-91.9073 530.63,-81.3467 524.711,-90.1336 531.482,-91.9073"/>
</g>
<!-- Node11 -->
<g id="node11" class="node"><title>Node11</title>
<polygon fill="none" stroke="#bfbfbf" points="662,-0.5 662,-19.5 703,-19.5 703,-0.5 662,-0.5"/>
<text text-anchor="middle" x="682.5" y="-7.5" font-family="Helvetica,sans-Serif" font-size="10.00">string</text>
</g>
<!-- Node8&#45;&gt;Node11 -->
<g id="edge10" class="edge"><title>Node8&#45;&gt;Node11</title>
<path fill="none" stroke="midnightblue" d="M543.521,-179.452C521.164,-157.146 467.008,-96.1226 498.5,-56 508.002,-43.8943 601.983,-25.4328 651.822,-16.3824"/>
<polygon fill="midnightblue" stroke="midnightblue" points="652.517,-19.8136 661.74,-14.5997 651.279,-12.924 652.517,-19.8136"/>
</g>
<!-- Node12 -->
<g id="node12" class="node"><title>Node12</title>
<polygon fill="none" stroke="#bfbfbf" points="412,-0.5 412,-19.5 495,-19.5 495,-0.5 412,-0.5"/>
<text text-anchor="middle" x="453.5" y="-7.5" font-family="Helvetica,sans-Serif" font-size="10.00">unordered_map</text>
</g>
<!-- Node8&#45;&gt;Node12 -->
<g id="edge11" class="edge"><title>Node8&#45;&gt;Node12</title>
<path fill="none" stroke="midnightblue" d="M499.761,-179.473C477.908,-173.143 454.451,-162.133 440.5,-143 415.718,-109.013 432.92,-56.3226 444.81,-28.9237"/>
<polygon fill="midnightblue" stroke="midnightblue" points="448.028,-30.3022 449.008,-19.7528 441.663,-27.3886 448.028,-30.3022"/>
</g>
<!-- Node13 -->
<g id="node13" class="node"><title>Node13</title>
<polygon fill="none" stroke="#bfbfbf" points="535,-123.5 535,-142.5 660,-142.5 660,-123.5 535,-123.5"/>
<text text-anchor="middle" x="597.5" y="-130.5" font-family="Helvetica,sans-Serif" font-size="10.00">Framework/InitContext.h</text>
</g>
<!-- Node8&#45;&gt;Node13 -->
<g id="edge12" class="edge"><title>Node8&#45;&gt;Node13</title>
<path fill="none" stroke="midnightblue" d="M559.931,-179.083C566.353,-171.377 575.806,-160.033 583.622,-150.653"/>
<polygon fill="midnightblue" stroke="midnightblue" points="586.494,-152.674 590.207,-142.751 581.117,-148.193 586.494,-152.674"/>
</g>
<!-- Node14 -->
<g id="node14" class="node"><title>Node14</title>
<polygon fill="none" stroke="#bfbfbf" points="678.5,-123.5 678.5,-142.5 838.5,-142.5 838.5,-123.5 678.5,-123.5"/>
<text text-anchor="middle" x="758.5" y="-130.5" font-family="Helvetica,sans-Serif" font-size="10.00">Framework/ProcessingContext.h</text>
</g>
<!-- Node8&#45;&gt;Node14 -->
<g id="edge13" class="edge"><title>Node8&#45;&gt;Node14</title>
<path fill="none" stroke="midnightblue" d="M585.141,-179.444C620.55,-170.162 677.209,-155.309 716.053,-145.127"/>
<polygon fill="midnightblue" stroke="midnightblue" points="717.226,-148.438 726.011,-142.516 715.451,-141.667 717.226,-148.438"/>
</g>
<!-- Node15 -->
<g id="node15" class="node"><title>Node15</title>
<g id="a_node15"><a xlink:href="Activity_8h.html" target="_top" xlink:title="QualityControl/Activity.h">
<polygon fill="none" stroke="black" points="857,-123.5 857,-142.5 980,-142.5 980,-123.5 857,-123.5"/>
<text text-anchor="middle" x="918.5" y="-130.5" font-family="Helvetica,sans-Serif" font-size="10.00">QualityControl/Activity.h</text>
</a>
</g>
</g>
<!-- Node8&#45;&gt;Node15 -->
<g id="edge14" class="edge"><title>Node8&#45;&gt;Node15</title>
<path fill="none" stroke="midnightblue" d="M610.494,-179.444C675.814,-169.806 781.837,-154.163 850.87,-143.978"/>
<polygon fill="midnightblue" stroke="midnightblue" points="851.396,-147.439 860.778,-142.516 850.374,-140.514 851.396,-147.439"/>
</g>
<!-- Node16 -->
<g id="node16" class="node"><title>Node16</title>
<g id="a_node16"><a xlink:href="ObjectsManager_8h.html" target="_top" xlink:title="QualityControl/ObjectsManager.h">
<polygon fill="none" stroke="black" points="998,-123.5 998,-142.5 1159,-142.5 1159,-123.5 998,-123.5"/>
<text text-anchor="middle" x="1078.5" y="-130.5" font-family="Helvetica,sans-Serif" font-size="10.00">QualityControl/ObjectsManager.h</text>
</a>
</g>
</g>
<!-- Node8&#45;&gt;Node16 -->
<g id="edge15" class="edge"><title>Node8&#45;&gt;Node16</title>
<path fill="none" stroke="midnightblue" d="M627.583,-180.292C722.494,-170.548 885.749,-153.788 987.605,-143.331"/>
<polygon fill="midnightblue" stroke="midnightblue" points="987.981,-146.811 997.572,-142.308 987.266,-139.848 987.981,-146.811"/>
</g>
<!-- Node16&#45;&gt;Node10 -->
<g id="edge29" class="edge"><title>Node16&#45;&gt;Node10</title>
<path fill="none" stroke="midnightblue" d="M997.975,-123.805C995.115,-123.531 992.283,-123.261 989.5,-123 805.174,-105.686 755.444,-126.178 574.5,-87 571.076,-86.2586 567.545,-85.3094 564.06,-84.2523"/>
<polygon fill="midnightblue" stroke="midnightblue" points="565.077,-80.902 554.483,-81.0698 562.869,-87.5448 565.077,-80.902"/>
</g>
<!-- Node16&#45;&gt;Node11 -->
<g id="edge28" class="edge"><title>Node16&#45;&gt;Node11</title>
<path fill="none" stroke="midnightblue" d="M1005.64,-123.471C921.644,-113.301 792.408,-96.4916 771.5,-87 763.225,-83.2434 723.049,-47.6194 699.601,-26.5039"/>
<polygon fill="midnightblue" stroke="midnightblue" points="701.853,-23.8209 692.085,-19.7162 697.161,-29.016 701.853,-23.8209"/>
</g>
<!-- Node17 -->
<g id="node17" class="node"><title>Node17</title>
<g id="a_node17"><a xlink:href="MonitorObject_8h.html" target="_top" xlink:title="QualityControl/MonitorObject.h">
<polygon fill="none" stroke="black" points="780,-62 780,-81 931,-81 931,-62 780,-62"/>
<text text-anchor="middle" x="855.5" y="-69" font-family="Helvetica,sans-Serif" font-size="10.00">QualityControl/MonitorObject.h</text>
</a>
</g>
</g>
<!-- Node16&#45;&gt;Node17 -->
<g id="edge16" class="edge"><title>Node16&#45;&gt;Node17</title>
<path fill="none" stroke="midnightblue" d="M1046.55,-123.475C1007.3,-113.004 940.622,-95.2118 897.327,-83.6601"/>
<polygon fill="midnightblue" stroke="midnightblue" points="897.956,-80.2054 887.391,-81.0091 896.151,-86.9688 897.956,-80.2054"/>
</g>
<!-- Node21 -->
<g id="node21" class="node"><title>Node21</title>
<g id="a_node21"><a xlink:href="MonitorObjectCollection_8h.html" target="_top" xlink:title="QualityControl/MonitorObject\lCollection.h">
<polygon fill="none" stroke="black" points="1007,-56.5 1007,-86.5 1150,-86.5 1150,-56.5 1007,-56.5"/>
<text text-anchor="start" x="1015" y="-74.5" font-family="Helvetica,sans-Serif" font-size="10.00">QualityControl/MonitorObject</text>
<text text-anchor="middle" x="1078.5" y="-63.5" font-family="Helvetica,sans-Serif" font-size="10.00">Collection.h</text>
</a>
</g>
</g>
<!-- Node16&#45;&gt;Node21 -->
<g id="edge22" class="edge"><title>Node16&#45;&gt;Node21</title>
<path fill="none" stroke="midnightblue" d="M1078.5,-123.475C1078.5,-116.471 1078.5,-106.192 1078.5,-96.6956"/>
<polygon fill="midnightblue" stroke="midnightblue" points="1082,-96.5229 1078.5,-86.523 1075,-96.523 1082,-96.5229"/>
</g>
<!-- Node24 -->
<g id="node24" class="node"><title>Node24</title>
<g id="a_node24"><a xlink:href="TaskConfig_8h.html" target="_top" xlink:title="QualityControl/TaskConfig.h">
<polygon fill="none" stroke="black" points="583.5,-62 583.5,-81 723.5,-81 723.5,-62 583.5,-62"/>
<text text-anchor="middle" x="653.5" y="-69" font-family="Helvetica,sans-Serif" font-size="10.00">QualityControl/TaskConfig.h</text>
</a>
</g>
</g>
<!-- Node16&#45;&gt;Node24 -->
<g id="edge25" class="edge"><title>Node16&#45;&gt;Node24</title>
<path fill="none" stroke="midnightblue" d="M1007.52,-123.467C938.465,-114.969 830.627,-101.177 737.5,-87 728.89,-85.6893 719.799,-84.2149 710.904,-82.7213"/>
<polygon fill="midnightblue" stroke="midnightblue" points="711.425,-79.2598 700.98,-81.0346 710.252,-86.1608 711.425,-79.2598"/>
</g>
<!-- Node17&#45;&gt;Node9 -->
<g id="edge18" class="edge"><title>Node17&#45;&gt;Node9</title>
<path fill="none" stroke="midnightblue" d="M818.105,-61.9751C765.032,-49.8761 669.091,-28.0045 622.034,-17.277"/>
<polygon fill="midnightblue" stroke="midnightblue" points="622.764,-13.8536 612.236,-15.0433 621.208,-20.6785 622.764,-13.8536"/>
</g>
<!-- Node17&#45;&gt;Node11 -->
<g id="edge17" class="edge"><title>Node17&#45;&gt;Node11</title>
<path fill="none" stroke="midnightblue" d="M830.713,-61.9751C799.639,-51.2877 746.394,-32.975 712.895,-21.4536"/>
<polygon fill="midnightblue" stroke="midnightblue" points="713.773,-18.0547 703.179,-18.112 711.497,-24.6741 713.773,-18.0547"/>
</g>
<!-- Node18 -->
<g id="node18" class="node"><title>Node18</title>
<polygon fill="none" stroke="#bfbfbf" points="751.5,-0.5 751.5,-19.5 807.5,-19.5 807.5,-0.5 751.5,-0.5"/>
<text text-anchor="middle" x="779.5" y="-7.5" font-family="Helvetica,sans-Serif" font-size="10.00">Rtypes.h</text>
</g>
<!-- Node17&#45;&gt;Node18 -->
<g id="edge19" class="edge"><title>Node17&#45;&gt;Node18</title>
<path fill="none" stroke="midnightblue" d="M844.611,-61.9751C832.534,-52.5199 812.833,-37.0961 798.26,-25.6871"/>
<polygon fill="midnightblue" stroke="midnightblue" points="800.4,-22.9177 790.369,-19.5091 796.085,-28.4295 800.4,-22.9177"/>
</g>
<!-- Node19 -->
<g id="node19" class="node"><title>Node19</title>
<polygon fill="none" stroke="#bfbfbf" points="826,-0.5 826,-19.5 885,-19.5 885,-0.5 826,-0.5"/>
<text text-anchor="middle" x="855.5" y="-7.5" font-family="Helvetica,sans-Serif" font-size="10.00">TObject.h</text>
</g>
<!-- Node17&#45;&gt;Node19 -->
<g id="edge20" class="edge"><title>Node17&#45;&gt;Node19</title>
<path fill="none" stroke="midnightblue" d="M855.5,-61.9751C855.5,-53.5803 855.5,-40.4806 855.5,-29.6631"/>
<polygon fill="midnightblue" stroke="midnightblue" points="859,-29.5091 855.5,-19.5091 852,-29.5091 859,-29.5091"/>
</g>
<!-- Node20 -->
<g id="node20" class="node"><title>Node20</title>
<polygon fill="none" stroke="#bfbfbf" points="903.5,-0.5 903.5,-19.5 1019.5,-19.5 1019.5,-0.5 903.5,-0.5"/>
<text text-anchor="middle" x="961.5" y="-7.5" font-family="Helvetica,sans-Serif" font-size="10.00">Common/Exceptions.h</text>
</g>
<!-- Node17&#45;&gt;Node20 -->
<g id="edge21" class="edge"><title>Node17&#45;&gt;Node20</title>
<path fill="none" stroke="midnightblue" d="M870.687,-61.9751C888.162,-52.1664 917.079,-35.9346 937.583,-24.425"/>
<polygon fill="midnightblue" stroke="midnightblue" points="939.334,-27.456 946.341,-19.5091 935.908,-21.3519 939.334,-27.456"/>
</g>
<!-- Node22 -->
<g id="node22" class="node"><title>Node22</title>
<polygon fill="none" stroke="#bfbfbf" points="1041,-0.5 1041,-19.5 1110,-19.5 1110,-0.5 1041,-0.5"/>
<text text-anchor="middle" x="1075.5" y="-7.5" font-family="Helvetica,sans-Serif" font-size="10.00">TObjArray.h</text>
</g>
<!-- Node21&#45;&gt;Node22 -->
<g id="edge23" class="edge"><title>Node21&#45;&gt;Node22</title>
<path fill="none" stroke="midnightblue" d="M1077.79,-56.3993C1077.39,-48.4664 1076.88,-38.458 1076.45,-29.8583"/>
<polygon fill="midnightblue" stroke="midnightblue" points="1079.94,-29.4688 1075.94,-19.6578 1072.94,-29.8214 1079.94,-29.4688"/>
</g>
<!-- Node23 -->
<g id="node23" class="node"><title>Node23</title>
<polygon fill="none" stroke="#bfbfbf" points="1128.5,-0.5 1128.5,-19.5 1256.5,-19.5 1256.5,-0.5 1128.5,-0.5"/>
<text text-anchor="middle" x="1192.5" y="-7.5" font-family="Helvetica,sans-Serif" font-size="10.00">Mergers/MergeInterface.h</text>
</g>
<!-- Node21&#45;&gt;Node23 -->
<g id="edge24" class="edge"><title>Node21&#45;&gt;Node23</title>
<path fill="none" stroke="midnightblue" d="M1105.52,-56.3993C1124.13,-46.6837 1148.71,-33.8551 1166.99,-24.3137"/>
<polygon fill="midnightblue" stroke="midnightblue" points="1168.67,-27.3876 1175.91,-19.6578 1165.43,-21.182 1168.67,-27.3876"/>
</g>
<!-- Node24&#45;&gt;Node11 -->
<g id="edge26" class="edge"><title>Node24&#45;&gt;Node11</title>
<path fill="none" stroke="midnightblue" d="M657.655,-61.9751C661.876,-53.3152 668.537,-39.6486 673.9,-28.6453"/>
<polygon fill="midnightblue" stroke="midnightblue" points="677.118,-30.0317 678.353,-19.5091 670.825,-26.9648 677.118,-30.0317"/>
</g>
<!-- Node24&#45;&gt;Node12 -->
<g id="edge27" class="edge"><title>Node24&#45;&gt;Node12</title>
<path fill="none" stroke="midnightblue" d="M624.845,-61.9751C589.944,-51.592 530.85,-34.0116 492,-22.4538"/>
<polygon fill="midnightblue" stroke="midnightblue" points="492.685,-19.0059 482.102,-19.5091 490.689,-25.7153 492.685,-19.0059"/>
</g>
</g>
</svg>
        <g id="navigator" transform="translate(0 0)" fill="#404254">
                <rect fill="#f2f5e9" fill-opacity="0.5" stroke="#606060" stroke-width=".5" x="0" y="0" width="60" height="60"/>
                <use id="zoomplus" xlink:href="#zoomPlus" x="17" y="9" onmousedown="handleZoom(evt,'in')"/>
                <use id="zoomminus" xlink:href="#zoomMin" x="42" y="9" onmousedown="handleZoom(evt,'out')"/>
                <use id="reset" xlink:href="#resetDef" x="30" y="36" onmousedown="handleReset()"/>
                <g id="arrowUp" xlink:href="#dirArrow" transform="translate(30 24)" onmousedown="handlePan(0,-1)">
                  <use xlink:href="#rim" fill="#404040">
                        <set attributeName="fill" to="#808080" begin="arrowUp.mouseover" end="arrowUp.mouseout"/>
                  </use>
                  <path fill="none" stroke="white" stroke-width="1.5" d="M0,-3.0v7 M-2.5,-0.5L0,-3.0L2.5,-0.5"/>
                </g>
                <g id="arrowRight" xlink:href="#dirArrow" transform="rotate(90) translate(36 -43)" onmousedown="handlePan(1,0)">
                  <use xlink:href="#rim" fill="#404040">
                        <set attributeName="fill" to="#808080" begin="arrowRight.mouseover" end="arrowRight.mouseout"/>
                  </use>
                  <path fill="none" stroke="white" stroke-width="1.5" d="M0,-3.0v7 M-2.5,-0.5L0,-3.0L2.5,-0.5"/>
                </g>
                <g id="arrowDown" xlink:href="#dirArrow" transform="rotate(180) translate(-30 -48)" onmousedown="handlePan(0,1)">
                  <use xlink:href="#rim" fill="#404040">
                        <set attributeName="fill" to="#808080" begin="arrowDown.mouseover" end="arrowDown.mouseout"/>
                  </use>
                  <path fill="none" stroke="white" stroke-width="1.5" d="M0,-3.0v7 M-2.5,-0.5L0,-3.0L2.5,-0.5"/>
                </g>
                <g id="arrowLeft" xlink:href="#dirArrow" transform="rotate(270) translate(-36 17)" onmousedown="handlePan(-1,0)">
                  <use xlink:href="#rim" fill="#404040">
                        <set attributeName="fill" to="#808080" begin="arrowLeft.mouseover" end="arrowLeft.mouseout"/>
                  </use>
                  <path fill="none" stroke="white" stroke-width="1.5" d="M0,-3.0v7 M-2.5,-0.5L0,-3.0L2.5,-0.5"/>
                </g>
        </g>
        <svg viewBox="0 0 15 15" width="100%" height="30px" preserveAspectRatio="xMaxYMin meet">
         <g id="arrow_out" transform="scale(0.3 0.3)">
          <a xlink:href="BasicClusterQcTask_8cxx__incl_org.svg" target="_base">
           <rect id="button" ry="5" rx="5" y="6" x="6" height="38" width="38"
                fill="#f2f5e9" fill-opacity="0.5" stroke="#606060" stroke-width="1.0"/>
           <path id="arrow"
             d="M 11.500037,31.436501 C 11.940474,20.09759 22.043105,11.32322 32.158766,21.979434 L 37.068811,17.246167 C 37.068811,17.246167 37.088388,32 37.088388,32 L 22.160133,31.978069 C 22.160133,31.978069 26.997745,27.140456 26.997745,27.140456 C 18.528582,18.264221 13.291696,25.230495 11.500037,31.436501 z"
             style="fill:#404040;"/>
          </a>
         </g>
        </svg>
</svg>
