<?xml version="1.0" encoding="UTF-8" standalone="no"?>
<!DOCTYPE svg PUBLIC "-//W3C//DTD SVG 1.1//EN"
 "http://www.w3.org/Graphics/SVG/1.1/DTD/svg11.dtd">
<!-- Generated by graphviz version 2.38.0 (20140413.2041)
 -->
<!-- Title: Framework/src/CcdbDatabase.cxx Pages: 1 -->
<svg width="2532pt" height="319pt"
 viewBox="0.00 0.00 2532.00 319.00" xmlns="http://www.w3.org/2000/svg" xmlns:xlink="http://www.w3.org/1999/xlink">
<g id="graph0" class="graph" transform="scale(1 1) rotate(0) translate(4 315)">
<title>Framework/src/CcdbDatabase.cxx</title>
<!-- Node1 -->
<g id="node1" class="node"><title>Node1</title>
<polygon fill="#bfbfbf" stroke="black" points="1212,-291.5 1212,-310.5 1381,-310.5 1381,-291.5 1212,-291.5"/>
<text text-anchor="middle" x="1296.5" y="-298.5" font-family="Helvetica,sans-Serif" font-size="10.00">Framework/src/CcdbDatabase.cxx</text>
</g>
<!-- Node2 -->
<g id="node2" class="node"><title>Node2</title>
<g id="a_node2"><a xlink:href="CcdbDatabase_8h.html" target="_top" xlink:title="QualityControl/CcdbDatabase.h">
<polygon fill="none" stroke="black" points="121,-230 121,-249 276,-249 276,-230 121,-230"/>
<text text-anchor="middle" x="198.5" y="-237" font-family="Helvetica,sans-Serif" font-size="10.00">QualityControl/CcdbDatabase.h</text>
</a>
</g>
</g>
<!-- Node1&#45;&gt;Node2 -->
<g id="edge1" class="edge"><title>Node1&#45;&gt;Node2</title>
<path fill="none" stroke="midnightblue" d="M1211.91,-296.046C1055.58,-288.652 710.868,-271.94 420.5,-255 376.245,-252.418 327.05,-249.237 286.239,-246.513"/>
<polygon fill="midnightblue" stroke="midnightblue" points="286.264,-243.006 276.052,-245.83 285.796,-249.991 286.264,-243.006"/>
</g>
<!-- Node12 -->
<g id="node12" class="node"><title>Node12</title>
<polygon fill="none" stroke="#bfbfbf" points="380.5,-56.5 380.5,-75.5 496.5,-75.5 496.5,-56.5 380.5,-56.5"/>
<text text-anchor="middle" x="438.5" y="-63.5" font-family="Helvetica,sans-Serif" font-size="10.00">Common/Exceptions.h</text>
</g>
<!-- Node1&#45;&gt;Node12 -->
<g id="edge26" class="edge"><title>Node1&#45;&gt;Node12</title>
<path fill="none" stroke="midnightblue" d="M1211.77,-298.119C1007.76,-293.22 503.981,-278.769 476.5,-255 427.199,-212.359 431.076,-125.008 435.631,-86.2529"/>
<polygon fill="midnightblue" stroke="midnightblue" points="439.161,-86.263 437.009,-75.889 432.222,-85.3407 439.161,-86.263"/>
</g>
<!-- Node15 -->
<g id="node15" class="node"><title>Node15</title>
<g id="a_node15"><a xlink:href="MonitorObject_8h.html" target="_top" xlink:title="QualityControl/MonitorObject.h">
<polygon fill="none" stroke="black" points="463,-112.5 463,-131.5 614,-131.5 614,-112.5 463,-112.5"/>
<text text-anchor="middle" x="538.5" y="-119.5" font-family="Helvetica,sans-Serif" font-size="10.00">QualityControl/MonitorObject.h</text>
</a>
</g>
</g>
<!-- Node1&#45;&gt;Node15 -->
<g id="edge22" class="edge"><title>Node1&#45;&gt;Node15</title>
<path fill="none" stroke="midnightblue" d="M1211.91,-298.363C1010.21,-294.046 515.965,-280.87 491.5,-255 460.145,-221.844 499.981,-166.399 523.509,-139.136"/>
<polygon fill="midnightblue" stroke="midnightblue" points="526.153,-141.431 530.191,-131.636 520.926,-136.774 526.153,-141.431"/>
</g>
<!-- Node16 -->
<g id="node16" class="node"><title>Node16</title>
<polygon fill="none" stroke="#bfbfbf" points="501,-230 501,-249 624,-249 624,-230 501,-230"/>
<text text-anchor="middle" x="562.5" y="-237" font-family="Helvetica,sans-Serif" font-size="10.00">QualityControl/Version.h</text>
</g>
<!-- Node1&#45;&gt;Node16 -->
<g id="edge23" class="edge"><title>Node1&#45;&gt;Node16</title>
<path fill="none" stroke="midnightblue" d="M1211.88,-297.876C1085.5,-293.886 840.143,-282.986 633.5,-255 625.698,-253.943 617.468,-252.537 609.486,-251.015"/>
<polygon fill="midnightblue" stroke="midnightblue" points="610.048,-247.558 599.557,-249.043 608.684,-254.424 610.048,-247.558"/>
</g>
<!-- Node17 -->
<g id="node17" class="node"><title>Node17</title>
<g id="a_node17"><a xlink:href="QcInfoLogger_8h.html" target="_top" xlink:title="QualityControl/QcInfoLogger.h">
<polygon fill="none" stroke="black" points="642,-230 642,-249 791,-249 791,-230 642,-230"/>
<text text-anchor="middle" x="716.5" y="-237" font-family="Helvetica,sans-Serif" font-size="10.00">QualityControl/QcInfoLogger.h</text>
</a>
</g>
</g>
<!-- Node1&#45;&gt;Node17 -->
<g id="edge24" class="edge"><title>Node1&#45;&gt;Node17</title>
<path fill="none" stroke="midnightblue" d="M1211.84,-294.475C1112.74,-287.513 943.792,-274.103 799.5,-255 790.341,-253.787 780.65,-252.291 771.246,-250.724"/>
<polygon fill="midnightblue" stroke="midnightblue" points="771.641,-247.24 761.194,-249.006 770.462,-254.14 771.641,-247.24"/>
</g>
<!-- Node19 -->
<g id="node19" class="node"><title>Node19</title>
<polygon fill="none" stroke="#bfbfbf" points="808.5,-230 808.5,-249 892.5,-249 892.5,-230 808.5,-230"/>
<text text-anchor="middle" x="850.5" y="-237" font-family="Helvetica,sans-Serif" font-size="10.00">TBufferJSON.h</text>
</g>
<!-- Node1&#45;&gt;Node19 -->
<g id="edge27" class="edge"><title>Node1&#45;&gt;Node19</title>
<path fill="none" stroke="midnightblue" d="M1211.89,-294.386C1131.49,-288.105 1007.46,-275.953 901.5,-255 896.782,-254.067 891.865,-252.911 887.027,-251.661"/>
<polygon fill="midnightblue" stroke="midnightblue" points="887.866,-248.262 877.297,-249.008 886.024,-255.016 887.866,-248.262"/>
</g>
<!-- Node20 -->
<g id="node20" class="node"><title>Node20</title>
<polygon fill="none" stroke="#bfbfbf" points="910.5,-230 910.5,-249 960.5,-249 960.5,-230 910.5,-230"/>
<text text-anchor="middle" x="935.5" y="-237" font-family="Helvetica,sans-Serif" font-size="10.00">TH1F.h</text>
</g>
<!-- Node1&#45;&gt;Node20 -->
<g id="edge28" class="edge"><title>Node1&#45;&gt;Node20</title>
<path fill="none" stroke="midnightblue" d="M1211.91,-294.284C1145.39,-288.37 1050.87,-276.807 970.5,-255 968.056,-254.337 965.556,-253.545 963.071,-252.679"/>
<polygon fill="midnightblue" stroke="midnightblue" points="964.309,-249.405 953.719,-249.08 961.795,-255.938 964.309,-249.405"/>
</g>
<!-- Node21 -->
<g id="node21" class="node"><title>Node21</title>
<polygon fill="none" stroke="#bfbfbf" points="979,-230 979,-249 1026,-249 1026,-230 979,-230"/>
<text text-anchor="middle" x="1002.5" y="-237" font-family="Helvetica,sans-Serif" font-size="10.00">TFile.h</text>
</g>
<!-- Node1&#45;&gt;Node21 -->
<g id="edge29" class="edge"><title>Node1&#45;&gt;Node21</title>
<path fill="none" stroke="midnightblue" d="M1217.69,-291.487C1165.3,-284.597 1095.38,-273.024 1035.5,-255 1033.57,-254.418 1031.6,-253.753 1029.63,-253.035"/>
<polygon fill="midnightblue" stroke="midnightblue" points="1030.59,-249.648 1020.01,-249.138 1027.97,-256.136 1030.59,-249.648"/>
</g>
<!-- Node22 -->
<g id="node22" class="node"><title>Node22</title>
<polygon fill="none" stroke="#bfbfbf" points="1044,-230 1044,-249 1091,-249 1091,-230 1044,-230"/>
<text text-anchor="middle" x="1067.5" y="-237" font-family="Helvetica,sans-Serif" font-size="10.00">TList.h</text>
</g>
<!-- Node1&#45;&gt;Node22 -->
<g id="edge30" class="edge"><title>Node1&#45;&gt;Node22</title>
<path fill="none" stroke="midnightblue" d="M1247.88,-291.482C1207.79,-283.832 1149.72,-271.301 1100.5,-255 1098.63,-254.38 1096.72,-253.693 1094.81,-252.965"/>
<polygon fill="midnightblue" stroke="midnightblue" points="1095.99,-249.67 1085.42,-249.103 1093.33,-256.143 1095.99,-249.67"/>
</g>
<!-- Node23 -->
<g id="node23" class="node"><title>Node23</title>
<polygon fill="none" stroke="#bfbfbf" points="1109,-230 1109,-249 1168,-249 1168,-230 1109,-230"/>
<text text-anchor="middle" x="1138.5" y="-237" font-family="Helvetica,sans-Serif" font-size="10.00">TROOT.h</text>
</g>
<!-- Node1&#45;&gt;Node23 -->
<g id="edge31" class="edge"><title>Node1&#45;&gt;Node23</title>
<path fill="none" stroke="midnightblue" d="M1273.86,-291.475C1246.76,-281.269 1201.19,-264.108 1170.5,-252.549"/>
<polygon fill="midnightblue" stroke="midnightblue" points="1171.69,-249.258 1161.1,-249.009 1169.22,-255.809 1171.69,-249.258"/>
</g>
<!-- Node24 -->
<g id="node24" class="node"><title>Node24</title>
<polygon fill="none" stroke="#bfbfbf" points="1186.5,-230 1186.5,-249 1234.5,-249 1234.5,-230 1186.5,-230"/>
<text text-anchor="middle" x="1210.5" y="-237" font-family="Helvetica,sans-Serif" font-size="10.00">TKey.h</text>
</g>
<!-- Node1&#45;&gt;Node24 -->
<g id="edge32" class="edge"><title>Node1&#45;&gt;Node24</title>
<path fill="none" stroke="midnightblue" d="M1284.18,-291.475C1270.38,-281.931 1247.8,-266.307 1231.27,-254.868"/>
<polygon fill="midnightblue" stroke="midnightblue" points="1233.01,-251.82 1222.8,-249.009 1229.03,-257.577 1233.01,-251.82"/>
</g>
<!-- Node25 -->
<g id="node25" class="node"><title>Node25</title>
<polygon fill="none" stroke="#bfbfbf" points="1253,-230 1253,-249 1340,-249 1340,-230 1253,-230"/>
<text text-anchor="middle" x="1296.5" y="-237" font-family="Helvetica,sans-Serif" font-size="10.00">TStreamerInfo.h</text>
</g>
<!-- Node1&#45;&gt;Node25 -->
<g id="edge33" class="edge"><title>Node1&#45;&gt;Node25</title>
<path fill="none" stroke="midnightblue" d="M1296.5,-291.475C1296.5,-283.08 1296.5,-269.981 1296.5,-259.163"/>
<polygon fill="midnightblue" stroke="midnightblue" points="1300,-259.009 1296.5,-249.009 1293,-259.009 1300,-259.009"/>
</g>
<!-- Node26 -->
<g id="node26" class="node"><title>Node26</title>
<polygon fill="none" stroke="#bfbfbf" points="1358,-230 1358,-249 1423,-249 1423,-230 1358,-230"/>
<text text-anchor="middle" x="1390.5" y="-237" font-family="Helvetica,sans-Serif" font-size="10.00">TSystem.h</text>
</g>
<!-- Node1&#45;&gt;Node26 -->
<g id="edge34" class="edge"><title>Node1&#45;&gt;Node26</title>
<path fill="none" stroke="midnightblue" d="M1309.97,-291.475C1325.18,-281.843 1350.19,-266.017 1368.3,-254.552"/>
<polygon fill="midnightblue" stroke="midnightblue" points="1370.48,-257.315 1377.06,-249.009 1366.74,-251.4 1370.48,-257.315"/>
</g>
<!-- Node27 -->
<g id="node27" class="node"><title>Node27</title>
<polygon fill="none" stroke="#bfbfbf" points="1441.5,-230 1441.5,-249 1487.5,-249 1487.5,-230 1441.5,-230"/>
<text text-anchor="middle" x="1464.5" y="-237" font-family="Helvetica,sans-Serif" font-size="10.00">chrono</text>
</g>
<!-- Node1&#45;&gt;Node27 -->
<g id="edge35" class="edge"><title>Node1&#45;&gt;Node27</title>
<path fill="none" stroke="midnightblue" d="M1325.2,-291.472C1352.95,-283.003 1396.02,-269.256 1432.5,-255 1433.92,-254.445 1435.37,-253.86 1436.83,-253.257"/>
<polygon fill="midnightblue" stroke="midnightblue" points="1438.58,-256.309 1446.37,-249.119 1435.8,-249.887 1438.58,-256.309"/>
</g>
<!-- Node28 -->
<g id="node28" class="node"><title>Node28</title>
<polygon fill="none" stroke="#bfbfbf" points="1505.5,-230 1505.5,-249 1557.5,-249 1557.5,-230 1505.5,-230"/>
<text text-anchor="middle" x="1531.5" y="-237" font-family="Helvetica,sans-Serif" font-size="10.00">sstream</text>
</g>
<!-- Node1&#45;&gt;Node28 -->
<g id="edge36" class="edge"><title>Node1&#45;&gt;Node28</title>
<path fill="none" stroke="midnightblue" d="M1345.21,-291.465C1386.09,-283.727 1445.78,-271.081 1496.5,-255 1498.64,-254.322 1500.83,-253.566 1503.02,-252.767"/>
<polygon fill="midnightblue" stroke="midnightblue" points="1504.42,-255.977 1512.46,-249.08 1501.88,-249.457 1504.42,-255.977"/>
</g>
<!-- Node29 -->
<g id="node29" class="node"><title>Node29</title>
<polygon fill="none" stroke="#bfbfbf" points="1575.5,-230 1575.5,-249 1653.5,-249 1653.5,-230 1575.5,-230"/>
<text text-anchor="middle" x="1614.5" y="-237" font-family="Helvetica,sans-Serif" font-size="10.00">unordered_set</text>
</g>
<!-- Node1&#45;&gt;Node29 -->
<g id="edge37" class="edge"><title>Node1&#45;&gt;Node29</title>
<path fill="none" stroke="midnightblue" d="M1361.88,-291.498C1416.85,-283.78 1497.31,-271.145 1566.5,-255 1570.44,-254.08 1574.53,-253.017 1578.59,-251.891"/>
<polygon fill="midnightblue" stroke="midnightblue" points="1579.88,-255.163 1588.51,-249.015 1577.93,-248.44 1579.88,-255.163"/>
</g>
<!-- Node30 -->
<g id="node30" class="node"><title>Node30</title>
<polygon fill="none" stroke="#bfbfbf" points="1672,-230 1672,-249 1801,-249 1801,-230 1672,-230"/>
<text text-anchor="middle" x="1736.5" y="-237" font-family="Helvetica,sans-Serif" font-size="10.00">boost/algorithm/string.hpp</text>
</g>
<!-- Node1&#45;&gt;Node30 -->
<g id="edge38" class="edge"><title>Node1&#45;&gt;Node30</title>
<path fill="none" stroke="midnightblue" d="M1379.59,-291.489C1453.93,-283.469 1565.77,-270.404 1662.5,-255 1669.96,-253.812 1677.82,-252.423 1685.52,-250.983"/>
<polygon fill="midnightblue" stroke="midnightblue" points="1686.33,-254.391 1695.49,-249.075 1685.01,-247.516 1686.33,-254.391"/>
</g>
<!-- Node31 -->
<g id="node31" class="node"><title>Node31</title>
<polygon fill="none" stroke="#bfbfbf" points="1819,-224.5 1819,-254.5 1920,-254.5 1920,-224.5 1819,-224.5"/>
<text text-anchor="start" x="1827" y="-242.5" font-family="Helvetica,sans-Serif" font-size="10.00">boost/property_tree</text>
<text text-anchor="middle" x="1869.5" y="-231.5" font-family="Helvetica,sans-Serif" font-size="10.00">/json_parser.hpp</text>
</g>
<!-- Node1&#45;&gt;Node31 -->
<g id="edge39" class="edge"><title>Node1&#45;&gt;Node31</title>
<path fill="none" stroke="midnightblue" d="M1381.14,-296.58C1481.22,-291.638 1652.91,-280.348 1808.53,-255.175"/>
<polygon fill="midnightblue" stroke="midnightblue" points="1809.45,-258.57 1818.75,-253.496 1808.32,-251.662 1809.45,-258.57"/>
</g>
<!-- Node32 -->
<g id="node32" class="node"><title>Node32</title>
<polygon fill="none" stroke="#bfbfbf" points="1938,-224.5 1938,-254.5 2039,-254.5 2039,-224.5 1938,-224.5"/>
<text text-anchor="start" x="1946" y="-242.5" font-family="Helvetica,sans-Serif" font-size="10.00">boost/property_tree</text>
<text text-anchor="middle" x="1988.5" y="-231.5" font-family="Helvetica,sans-Serif" font-size="10.00">/ptree.hpp</text>
</g>
<!-- Node1&#45;&gt;Node32 -->
<g id="edge40" class="edge"><title>Node1&#45;&gt;Node32</title>
<path fill="none" stroke="midnightblue" d="M1381.23,-298.544C1501.13,-295.468 1727.16,-285.938 1927.63,-255.129"/>
<polygon fill="midnightblue" stroke="midnightblue" points="1928.42,-258.548 1937.76,-253.55 1927.34,-251.632 1928.42,-258.548"/>
</g>
<!-- Node33 -->
<g id="node33" class="node"><title>Node33</title>
<polygon fill="none" stroke="#bfbfbf" points="2057,-230 2057,-249 2152,-249 2152,-230 2057,-230"/>
<text text-anchor="middle" x="2104.5" y="-237" font-family="Helvetica,sans-Serif" font-size="10.00">boost/foreach.hpp</text>
</g>
<!-- Node1&#45;&gt;Node33 -->
<g id="edge41" class="edge"><title>Node1&#45;&gt;Node33</title>
<path fill="none" stroke="midnightblue" d="M1381.09,-300.252C1520.89,-299.482 1808.53,-292.881 2048.5,-255 2054.28,-254.087 2060.34,-252.838 2066.24,-251.453"/>
<polygon fill="midnightblue" stroke="midnightblue" points="2067.09,-254.847 2075.95,-249.03 2065.4,-248.055 2067.09,-254.847"/>
</g>
<!-- Node34 -->
<g id="node34" class="node"><title>Node34</title>
<polygon fill="none" stroke="#bfbfbf" points="2170.5,-230 2170.5,-249 2280.5,-249 2280.5,-230 2170.5,-230"/>
<text text-anchor="middle" x="2225.5" y="-237" font-family="Helvetica,sans-Serif" font-size="10.00">rapidjson/document.h</text>
</g>
<!-- Node1&#45;&gt;Node34 -->
<g id="edge42" class="edge"><title>Node1&#45;&gt;Node34</title>
<path fill="none" stroke="midnightblue" d="M1381.06,-300.376C1536.41,-300.01 1877.36,-294.285 2161.5,-255 2168.4,-254.046 2175.65,-252.721 2182.7,-251.256"/>
<polygon fill="midnightblue" stroke="midnightblue" points="2183.79,-254.599 2192.81,-249.036 2182.29,-247.762 2183.79,-254.599"/>
</g>
<!-- Node35 -->
<g id="node35" class="node"><title>Node35</title>
<polygon fill="none" stroke="#bfbfbf" points="2298.5,-230 2298.5,-249 2414.5,-249 2414.5,-230 2298.5,-230"/>
<text text-anchor="middle" x="2356.5" y="-237" font-family="Helvetica,sans-Serif" font-size="10.00">rapidjson/stringbuffer.h</text>
</g>
<!-- Node1&#45;&gt;Node35 -->
<g id="edge43" class="edge"><title>Node1&#45;&gt;Node35</title>
<path fill="none" stroke="midnightblue" d="M1381.16,-297.992C1588.02,-292.789 2114.94,-277.681 2289.5,-255 2296.97,-254.03 2304.84,-252.653 2312.45,-251.131"/>
<polygon fill="midnightblue" stroke="midnightblue" points="2313.2,-254.551 2322.26,-249.067 2311.76,-247.7 2313.2,-254.551"/>
</g>
<!-- Node36 -->
<g id="node36" class="node"><title>Node36</title>
<polygon fill="none" stroke="#bfbfbf" points="2433,-230 2433,-249 2524,-249 2524,-230 2433,-230"/>
<text text-anchor="middle" x="2478.5" y="-237" font-family="Helvetica,sans-Serif" font-size="10.00">rapidjson/writer.h</text>
</g>
<!-- Node1&#45;&gt;Node36 -->
<g id="edge44" class="edge"><title>Node1&#45;&gt;Node36</title>
<path fill="none" stroke="midnightblue" d="M1381.3,-299.005C1607.69,-295.966 2222.71,-285.108 2423.5,-255 2429.12,-254.158 2434.98,-252.963 2440.71,-251.615"/>
<polygon fill="midnightblue" stroke="midnightblue" points="2441.93,-254.916 2450.77,-249.069 2440.21,-248.13 2441.93,-254.916"/>
</g>
<!-- Node3 -->
<g id="node3" class="node"><title>Node3</title>
<polygon fill="none" stroke="#bfbfbf" points="0,-168.5 0,-187.5 95,-187.5 95,-168.5 0,-168.5"/>
<text text-anchor="middle" x="47.5" y="-175.5" font-family="Helvetica,sans-Serif" font-size="10.00">CCDB/CcdbApi.h</text>
</g>
<!-- Node2&#45;&gt;Node3 -->
<g id="edge2" class="edge"><title>Node2&#45;&gt;Node3</title>
<path fill="none" stroke="midnightblue" d="M176.865,-229.975C151.076,-219.813 107.789,-202.756 78.4603,-191.2"/>
<polygon fill="midnightblue" stroke="midnightblue" points="79.6814,-187.919 69.0945,-187.509 77.1151,-194.432 79.6814,-187.919"/>
</g>
<!-- Node4 -->
<g id="node4" class="node"><title>Node4</title>
<g id="a_node4"><a xlink:href="DatabaseInterface_8h.html" target="_top" xlink:title="QualityControl/DatabaseInterface.h">
<polygon fill="none" stroke="black" points="113.5,-168.5 113.5,-187.5 283.5,-187.5 283.5,-168.5 113.5,-168.5"/>
<text text-anchor="middle" x="198.5" y="-175.5" font-family="Helvetica,sans-Serif" font-size="10.00">QualityControl/DatabaseInterface.h</text>
</a>
</g>
</g>
<!-- Node2&#45;&gt;Node4 -->
<g id="edge3" class="edge"><title>Node2&#45;&gt;Node4</title>
<path fill="none" stroke="midnightblue" d="M198.5,-229.975C198.5,-221.58 198.5,-208.481 198.5,-197.663"/>
<polygon fill="midnightblue" stroke="midnightblue" points="202,-197.509 198.5,-187.509 195,-197.509 202,-197.509"/>
</g>
<!-- Node5 -->
<g id="node5" class="node"><title>Node5</title>
<polygon fill="none" stroke="#bfbfbf" points="176,-0.5 176,-19.5 217,-19.5 217,-0.5 176,-0.5"/>
<text text-anchor="middle" x="196.5" y="-7.5" font-family="Helvetica,sans-Serif" font-size="10.00">string</text>
</g>
<!-- Node4&#45;&gt;Node5 -->
<g id="edge4" class="edge"><title>Node4&#45;&gt;Node5</title>
<path fill="none" stroke="midnightblue" d="M126.578,-168.456C81.5168,-161.455 29.4272,-149.767 15.5,-132 -30.7775,-72.9642 103.464,-32.7441 166.157,-17.6447"/>
<polygon fill="midnightblue" stroke="midnightblue" points="166.981,-21.0466 175.919,-15.3576 165.384,-14.2312 166.981,-21.0466"/>
</g>
<!-- Node6 -->
<g id="node6" class="node"><title>Node6</title>
<polygon fill="none" stroke="#bfbfbf" points="24.5,-112.5 24.5,-131.5 76.5,-131.5 76.5,-112.5 24.5,-112.5"/>
<text text-anchor="middle" x="50.5" y="-119.5" font-family="Helvetica,sans-Serif" font-size="10.00">memory</text>
</g>
<!-- Node4&#45;&gt;Node6 -->
<g id="edge5" class="edge"><title>Node4&#45;&gt;Node6</title>
<path fill="none" stroke="midnightblue" d="M175.049,-168.444C150.367,-159.438 111.315,-145.189 83.5233,-135.049"/>
<polygon fill="midnightblue" stroke="midnightblue" points="84.4352,-131.656 73.8413,-131.516 82.0359,-138.232 84.4352,-131.656"/>
</g>
<!-- Node7 -->
<g id="node7" class="node"><title>Node7</title>
<polygon fill="none" stroke="#bfbfbf" points="94.5,-112.5 94.5,-131.5 138.5,-131.5 138.5,-112.5 94.5,-112.5"/>
<text text-anchor="middle" x="116.5" y="-119.5" font-family="Helvetica,sans-Serif" font-size="10.00">vector</text>
</g>
<!-- Node4&#45;&gt;Node7 -->
<g id="edge6" class="edge"><title>Node4&#45;&gt;Node7</title>
<path fill="none" stroke="midnightblue" d="M185.325,-168.324C172.653,-159.979 153.267,-147.212 138.294,-137.352"/>
<polygon fill="midnightblue" stroke="midnightblue" points="139.919,-134.231 129.642,-131.655 136.069,-140.078 139.919,-134.231"/>
</g>
<!-- Node8 -->
<g id="node8" class="node"><title>Node8</title>
<polygon fill="none" stroke="#bfbfbf" points="157,-112.5 157,-131.5 240,-131.5 240,-112.5 157,-112.5"/>
<text text-anchor="middle" x="198.5" y="-119.5" font-family="Helvetica,sans-Serif" font-size="10.00">unordered_map</text>
</g>
<!-- Node4&#45;&gt;Node8 -->
<g id="edge7" class="edge"><title>Node4&#45;&gt;Node8</title>
<path fill="none" stroke="midnightblue" d="M198.5,-168.083C198.5,-161.006 198.5,-150.861 198.5,-141.986"/>
<polygon fill="midnightblue" stroke="midnightblue" points="202,-141.751 198.5,-131.751 195,-141.751 202,-141.751"/>
</g>
<!-- Node9 -->
<g id="node9" class="node"><title>Node9</title>
<g id="a_node9"><a xlink:href="QualityObject_8h_source.html" target="_top" xlink:title="QualityControl/QualityObject.h">
<polygon fill="none" stroke="black" points="258,-112.5 258,-131.5 407,-131.5 407,-112.5 258,-112.5"/>
<text text-anchor="middle" x="332.5" y="-119.5" font-family="Helvetica,sans-Serif" font-size="10.00">QualityControl/QualityObject.h</text>
</a>
</g>
</g>
<!-- Node4&#45;&gt;Node9 -->
<g id="edge8" class="edge"><title>Node4&#45;&gt;Node9</title>
<path fill="none" stroke="midnightblue" d="M219.733,-168.444C241.884,-159.517 276.819,-145.439 301.936,-135.317"/>
<polygon fill="midnightblue" stroke="midnightblue" points="303.4,-138.501 311.367,-131.516 300.783,-132.008 303.4,-138.501"/>
</g>
<!-- Node4&#45;&gt;Node15 -->
<g id="edge16" class="edge"><title>Node4&#45;&gt;Node15</title>
<path fill="none" stroke="midnightblue" d="M252.374,-168.444C312.805,-158.846 410.738,-143.292 474.884,-133.104"/>
<polygon fill="midnightblue" stroke="midnightblue" points="475.551,-136.542 484.878,-131.516 474.453,-129.628 475.551,-136.542"/>
</g>
<!-- Node10 -->
<g id="node10" class="node"><title>Node10</title>
<polygon fill="none" stroke="#bfbfbf" points="235,-0.5 235,-19.5 270,-19.5 270,-0.5 235,-0.5"/>
<text text-anchor="middle" x="252.5" y="-7.5" font-family="Helvetica,sans-Serif" font-size="10.00">map</text>
</g>
<!-- Node9&#45;&gt;Node10 -->
<g id="edge9" class="edge"><title>Node9&#45;&gt;Node10</title>
<path fill="none" stroke="midnightblue" d="M264.423,-112.499C220.158,-105.413 168.208,-93.605 154.5,-76 149.039,-68.9865 149.702,-63.4828 154.5,-56 158.64,-49.5432 197.638,-32.913 225.169,-21.78"/>
<polygon fill="midnightblue" stroke="midnightblue" points="226.728,-24.9258 234.708,-17.9561 224.123,-18.4285 226.728,-24.9258"/>
</g>
<!-- Node11 -->
<g id="node11" class="node"><title>Node11</title>
<polygon fill="none" stroke="#bfbfbf" points="303,-56.5 303,-75.5 362,-75.5 362,-56.5 303,-56.5"/>
<text text-anchor="middle" x="332.5" y="-63.5" font-family="Helvetica,sans-Serif" font-size="10.00">TObject.h</text>
</g>
<!-- Node9&#45;&gt;Node11 -->
<g id="edge10" class="edge"><title>Node9&#45;&gt;Node11</title>
<path fill="none" stroke="midnightblue" d="M332.5,-112.083C332.5,-105.006 332.5,-94.8611 332.5,-85.9865"/>
<polygon fill="midnightblue" stroke="midnightblue" points="336,-85.751 332.5,-75.7511 329,-85.7511 336,-85.751"/>
</g>
<!-- Node9&#45;&gt;Node12 -->
<g id="edge11" class="edge"><title>Node9&#45;&gt;Node12</title>
<path fill="none" stroke="midnightblue" d="M349.531,-112.324C366.53,-103.664 392.876,-90.2424 412.493,-80.249"/>
<polygon fill="midnightblue" stroke="midnightblue" points="414.19,-83.3125 421.512,-75.6545 411.012,-77.0752 414.19,-83.3125"/>
</g>
<!-- Node13 -->
<g id="node13" class="node"><title>Node13</title>
<g id="a_node13"><a xlink:href="Quality_8h.html" target="_top" xlink:title="QualityControl/Quality.h">
<polygon fill="none" stroke="black" points="164,-56.5 164,-75.5 285,-75.5 285,-56.5 164,-56.5"/>
<text text-anchor="middle" x="224.5" y="-63.5" font-family="Helvetica,sans-Serif" font-size="10.00">QualityControl/Quality.h</text>
</a>
</g>
</g>
<!-- Node9&#45;&gt;Node13 -->
<g id="edge12" class="edge"><title>Node9&#45;&gt;Node13</title>
<path fill="none" stroke="midnightblue" d="M315.148,-112.324C297.828,-103.664 270.985,-90.2424 250.998,-80.249"/>
<polygon fill="midnightblue" stroke="midnightblue" points="252.319,-76.9962 241.809,-75.6545 249.188,-83.2572 252.319,-76.9962"/>
</g>
<!-- Node13&#45;&gt;Node5 -->
<g id="edge14" class="edge"><title>Node13&#45;&gt;Node5</title>
<path fill="none" stroke="midnightblue" d="M219.876,-56.083C216.044,-48.6913 210.476,-37.9533 205.735,-28.8111"/>
<polygon fill="midnightblue" stroke="midnightblue" points="208.748,-27.0175 201.038,-19.7511 202.534,-30.2398 208.748,-27.0175"/>
</g>
<!-- Node13&#45;&gt;Node10 -->
<g id="edge15" class="edge"><title>Node13&#45;&gt;Node10</title>
<path fill="none" stroke="midnightblue" d="M229.124,-56.083C232.956,-48.6913 238.524,-37.9533 243.265,-28.8111"/>
<polygon fill="midnightblue" stroke="midnightblue" points="246.466,-30.2398 247.962,-19.7511 240.252,-27.0175 246.466,-30.2398"/>
</g>
<!-- Node14 -->
<g id="node14" class="node"><title>Node14</title>
<polygon fill="none" stroke="#bfbfbf" points="444.5,-0.5 444.5,-19.5 500.5,-19.5 500.5,-0.5 444.5,-0.5"/>
<text text-anchor="middle" x="472.5" y="-7.5" font-family="Helvetica,sans-Serif" font-size="10.00">Rtypes.h</text>
</g>
<!-- Node13&#45;&gt;Node14 -->
<g id="edge13" class="edge"><title>Node13&#45;&gt;Node14</title>
<path fill="none" stroke="midnightblue" d="M263.796,-56.4435C310.524,-46.269 387.992,-29.401 434.253,-19.3279"/>
<polygon fill="midnightblue" stroke="midnightblue" points="435.161,-22.7124 444.187,-17.1649 433.671,-15.8727 435.161,-22.7124"/>
</g>
<!-- Node15&#45;&gt;Node5 -->
<g id="edge17" class="edge"><title>Node15&#45;&gt;Node5</title>
<path fill="none" stroke="midnightblue" d="M536.762,-112.122C533.439,-97.7345 524.734,-69.5707 505.5,-56 456.543,-21.4581 301.607,-32.2333 227.234,-19.836"/>
<polygon fill="midnightblue" stroke="midnightblue" points="227.775,-16.3759 217.294,-17.9258 226.454,-23.2502 227.775,-16.3759"/>
</g>
<!-- Node15&#45;&gt;Node10 -->
<g id="edge18" class="edge"><title>Node15&#45;&gt;Node10</title>
<path fill="none" stroke="midnightblue" d="M541.702,-112.213C546.09,-98.4565 551.993,-71.7821 538.5,-56 505.462,-17.3571 346.046,-11.6868 280.616,-11.0084"/>
<polygon fill="midnightblue" stroke="midnightblue" points="280.271,-7.50599 270.246,-10.9354 280.221,-14.5058 280.271,-7.50599"/>
</g>
<!-- Node15&#45;&gt;Node11 -->
<g id="edge20" class="edge"><title>Node15&#45;&gt;Node11</title>
<path fill="none" stroke="midnightblue" d="M505.859,-112.444C469.617,-102.943 411.113,-87.6072 372.236,-77.4161"/>
<polygon fill="midnightblue" stroke="midnightblue" points="372.874,-73.9652 362.313,-74.8151 371.099,-80.7365 372.874,-73.9652"/>
</g>
<!-- Node15&#45;&gt;Node12 -->
<g id="edge21" class="edge"><title>Node15&#45;&gt;Node12</title>
<path fill="none" stroke="midnightblue" d="M522.433,-112.324C506.542,-103.743 481.993,-90.486 463.542,-80.5224"/>
<polygon fill="midnightblue" stroke="midnightblue" points="464.989,-77.3264 454.527,-75.6545 461.663,-83.4857 464.989,-77.3264"/>
</g>
<!-- Node15&#45;&gt;Node14 -->
<g id="edge19" class="edge"><title>Node15&#45;&gt;Node14</title>
<path fill="none" stroke="midnightblue" d="M549.974,-112.415C565.384,-99.8114 589.418,-75.6654 576.5,-56 562.01,-33.9421 534.148,-22.645 510.908,-16.8878"/>
<polygon fill="midnightblue" stroke="midnightblue" points="511.473,-13.4282 500.952,-14.679 509.957,-20.262 511.473,-13.4282"/>
</g>
<!-- Node18 -->
<g id="node18" class="node"><title>Node18</title>
<polygon fill="none" stroke="#bfbfbf" points="651.5,-168.5 651.5,-187.5 781.5,-187.5 781.5,-168.5 651.5,-168.5"/>
<text text-anchor="middle" x="716.5" y="-175.5" font-family="Helvetica,sans-Serif" font-size="10.00">InfoLogger/InfoLogger.hxx</text>
</g>
<!-- Node17&#45;&gt;Node18 -->
<g id="edge25" class="edge"><title>Node17&#45;&gt;Node18</title>
<path fill="none" stroke="midnightblue" d="M716.5,-229.975C716.5,-221.58 716.5,-208.481 716.5,-197.663"/>
<polygon fill="midnightblue" stroke="midnightblue" points="720,-197.509 716.5,-187.509 713,-197.509 720,-197.509"/>
</g>
</g>
</svg>
