<?xml version="1.0" encoding="UTF-8" standalone="no"?>
<!DOCTYPE svg PUBLIC "-//W3C//DTD SVG 1.1//EN"
 "http://www.w3.org/Graphics/SVG/1.1/DTD/svg11.dtd">
<!-- Generated by graphviz version 2.38.0 (20140413.2041)
 -->
<!-- Title: Modules/TOF/src/CheckDiagnostics.cxx Pages: 1 -->
<!--zoomable 252 -->
<svg id="main" version="1.1" xmlns="http://www.w3.org/2000/svg" xmlns:xlink="http://www.w3.org/1999/xlink" xml:space="preserve" onload="init(evt)">
<style type="text/css"><![CDATA[
.edge:hover path { stroke: red; }
.edge:hover polygon { stroke: red; fill: red; }
]]></style>
<script type="text/javascript"><![CDATA[
var edges = document.getElementsByTagName('g');
if (edges && edges.length) {
  for (var i=0;i<edges.length;i++) {
    if (edges[i].id.substr(0,4)=='edge') {
      edges[i].setAttribute('class','edge');
    }
  }
}
]]></script>
        <defs>
                <circle id="rim" cx="0" cy="0" r="7"/>
                <circle id="rim2" cx="0" cy="0" r="3.5"/>
                <g id="zoomPlus">
                        <use xlink:href="#rim" fill="#404040">
                                <set attributeName="fill" to="#808080" begin="zoomplus.mouseover" end="zoomplus.mouseout"/>
                        </use>
                        <path d="M-4,0h8M0,-4v8" fill="none" stroke="white" stroke-width="1.5" pointer-events="none"/>
                </g>
                <g id="zoomMin">
                        <use xlink:href="#rim" fill="#404040">
                                <set attributeName="fill" to="#808080" begin="zoomminus.mouseover" end="zoomminus.mouseout"/>
                        </use>
                        <path d="M-4,0h8" fill="none" stroke="white" stroke-width="1.5" pointer-events="none"/>
                </g>
                <g id="dirArrow">
                        <path fill="none" stroke="white" stroke-width="1.5" d="M0,-3.0v7 M-2.5,-0.5L0,-3.0L2.5,-0.5"/>
                </g>
               <g id="resetDef">
                       <use xlink:href="#rim2" fill="#404040">
                               <set attributeName="fill" to="#808080" begin="reset.mouseover" end="reset.mouseout"/>
                       </use>
               </g>
        </defs>

<script type="text/javascript">
var viewWidth = 946;
var viewHeight = 252;
var sectionId = 'dynsection-0';
</script>
<script xlink:href="svgpan.js"/>
<svg id="graph" class="graph">
<g id="viewport">
<title>Modules/TOF/src/CheckDiagnostics.cxx</title>
<!-- Node1 -->
<g id="node1" class="node"><title>Node1</title>
<polygon fill="#bfbfbf" stroke="black" points="543.5,-224.5 543.5,-243.5 737.5,-243.5 737.5,-224.5 543.5,-224.5"/>
<text text-anchor="middle" x="640.5" y="-231.5" font-family="Helvetica,sans-Serif" font-size="10.00">Modules/TOF/src/CheckDiagnostics.cxx</text>
</g>
<!-- Node2 -->
<g id="node2" class="node"><title>Node2</title>
<g id="a_node2"><a xlink:href="CheckDiagnostics_8h.html" target="_top" xlink:title="Checker dedicated to the study of low level raw data diagnostics words. ">
<polygon fill="none" stroke="black" points="298.5,-168.5 298.5,-187.5 426.5,-187.5 426.5,-168.5 298.5,-168.5"/>
<text text-anchor="middle" x="362.5" y="-175.5" font-family="Helvetica,sans-Serif" font-size="10.00">TOF/CheckDiagnostics.h</text>
</a>
</g>
</g>
<!-- Node1&#45;&gt;Node2 -->
<g id="edge1" class="edge"><title>Node1&#45;&gt;Node2</title>
<path fill="none" stroke="midnightblue" d="M596.45,-224.444C547.649,-214.964 468.937,-199.675 416.47,-189.483"/>
<polygon fill="midnightblue" stroke="midnightblue" points="416.828,-185.988 406.344,-187.516 415.493,-192.859 416.828,-185.988"/>
</g>
<!-- Node8 -->
<g id="node8" class="node"><title>Node8</title>
<g id="a_node8"><a xlink:href="MonitorObject_8h.html" target="_top" xlink:title="QualityControl/MonitorObject.h">
<polygon fill="none" stroke="black" points="58,-56.5 58,-75.5 209,-75.5 209,-56.5 58,-56.5"/>
<text text-anchor="middle" x="133.5" y="-63.5" font-family="Helvetica,sans-Serif" font-size="10.00">QualityControl/MonitorObject.h</text>
</a>
</g>
</g>
<!-- Node1&#45;&gt;Node8 -->
<g id="edge19" class="edge"><title>Node1&#45;&gt;Node8</title>
<path fill="none" stroke="midnightblue" d="M543.38,-232.536C471.245,-229.365 371.562,-218.938 289.5,-188 229.045,-165.208 173.039,-110.377 147.708,-83.047"/>
<polygon fill="midnightblue" stroke="midnightblue" points="150.177,-80.5595 140.861,-75.514 144.997,-85.268 150.177,-80.5595"/>
</g>
<!-- Node11 -->
<g id="node11" class="node"><title>Node11</title>
<g id="a_node11"><a xlink:href="Quality_8h.html" target="_top" xlink:title="QualityControl/Quality.h">
<polygon fill="none" stroke="black" points="444,-56.5 444,-75.5 565,-75.5 565,-56.5 444,-56.5"/>
<text text-anchor="middle" x="504.5" y="-63.5" font-family="Helvetica,sans-Serif" font-size="10.00">QualityControl/Quality.h</text>
</a>
</g>
</g>
<!-- Node1&#45;&gt;Node11 -->
<g id="edge20" class="edge"><title>Node1&#45;&gt;Node11</title>
<path fill="none" stroke="midnightblue" d="M557.105,-224.439C534.858,-217.903 513.218,-206.778 499.5,-188 477.361,-157.696 488.527,-110.824 497.316,-85.222"/>
<polygon fill="midnightblue" stroke="midnightblue" points="500.665,-86.2557 500.833,-75.6622 494.095,-83.8386 500.665,-86.2557"/>
</g>
<!-- Node12 -->
<g id="node12" class="node"><title>Node12</title>
<g id="a_node12"><a xlink:href="QcInfoLogger_8h.html" target="_top" xlink:title="QualityControl/QcInfoLogger.h">
<polygon fill="none" stroke="black" points="509,-168.5 509,-187.5 658,-187.5 658,-168.5 509,-168.5"/>
<text text-anchor="middle" x="583.5" y="-175.5" font-family="Helvetica,sans-Serif" font-size="10.00">QualityControl/QcInfoLogger.h</text>
</a>
</g>
</g>
<!-- Node1&#45;&gt;Node12 -->
<g id="edge21" class="edge"><title>Node1&#45;&gt;Node12</title>
<path fill="none" stroke="midnightblue" d="M631.342,-224.324C622.999,-216.42 610.468,-204.548 600.323,-194.938"/>
<polygon fill="midnightblue" stroke="midnightblue" points="602.491,-192.171 592.825,-187.834 597.677,-197.252 602.491,-192.171"/>
</g>
<!-- Node14 -->
<g id="node14" class="node"><title>Node14</title>
<polygon fill="none" stroke="#bfbfbf" points="675.5,-168.5 675.5,-187.5 719.5,-187.5 719.5,-168.5 675.5,-168.5"/>
<text text-anchor="middle" x="697.5" y="-175.5" font-family="Helvetica,sans-Serif" font-size="10.00">TH1.h</text>
</g>
<!-- Node1&#45;&gt;Node14 -->
<g id="edge23" class="edge"><title>Node1&#45;&gt;Node14</title>
<path fill="none" stroke="midnightblue" d="M649.658,-224.324C658.001,-216.42 670.532,-204.548 680.677,-194.938"/>
<polygon fill="midnightblue" stroke="midnightblue" points="683.323,-197.252 688.175,-187.834 678.509,-192.171 683.323,-197.252"/>
</g>
<!-- Node15 -->
<g id="node15" class="node"><title>Node15</title>
<polygon fill="none" stroke="#bfbfbf" points="737.5,-168.5 737.5,-187.5 781.5,-187.5 781.5,-168.5 737.5,-168.5"/>
<text text-anchor="middle" x="759.5" y="-175.5" font-family="Helvetica,sans-Serif" font-size="10.00">TH2.h</text>
</g>
<!-- Node1&#45;&gt;Node15 -->
<g id="edge24" class="edge"><title>Node1&#45;&gt;Node15</title>
<path fill="none" stroke="midnightblue" d="M659.356,-224.444C678.766,-215.636 709.23,-201.812 731.465,-191.722"/>
<polygon fill="midnightblue" stroke="midnightblue" points="733.072,-194.836 740.732,-187.516 730.18,-188.462 733.072,-194.836"/>
</g>
<!-- Node16 -->
<g id="node16" class="node"><title>Node16</title>
<polygon fill="none" stroke="#bfbfbf" points="800,-168.5 800,-187.5 873,-187.5 873,-168.5 800,-168.5"/>
<text text-anchor="middle" x="836.5" y="-175.5" font-family="Helvetica,sans-Serif" font-size="10.00">TPaveText.h</text>
</g>
<!-- Node1&#45;&gt;Node16 -->
<g id="edge25" class="edge"><title>Node1&#45;&gt;Node16</title>
<path fill="none" stroke="midnightblue" d="M671.557,-224.444C705.103,-215.201 758.697,-200.436 795.641,-190.257"/>
<polygon fill="midnightblue" stroke="midnightblue" points="796.877,-193.547 805.589,-187.516 795.018,-186.798 796.877,-193.547"/>
</g>
<!-- Node17 -->
<g id="node17" class="node"><title>Node17</title>
<polygon fill="none" stroke="#bfbfbf" points="891,-168.5 891,-187.5 938,-187.5 938,-168.5 891,-168.5"/>
<text text-anchor="middle" x="914.5" y="-175.5" font-family="Helvetica,sans-Serif" font-size="10.00">TList.h</text>
</g>
<!-- Node1&#45;&gt;Node17 -->
<g id="edge26" class="edge"><title>Node1&#45;&gt;Node17</title>
<path fill="none" stroke="midnightblue" d="M694.137,-224.456C741.156,-216.643 811.528,-204.172 881.002,-188.201"/>
<polygon fill="midnightblue" stroke="midnightblue" points="881.848,-191.597 890.796,-185.924 880.263,-184.779 881.848,-191.597"/>
</g>
<!-- Node3 -->
<g id="node3" class="node"><title>Node3</title>
<g id="a_node3"><a xlink:href="CheckInterface_8h.html" target="_top" xlink:title="QualityControl/CheckInterface.h">
<polygon fill="none" stroke="black" points="258,-112.5 258,-131.5 415,-131.5 415,-112.5 258,-112.5"/>
<text text-anchor="middle" x="336.5" y="-119.5" font-family="Helvetica,sans-Serif" font-size="10.00">QualityControl/CheckInterface.h</text>
</a>
</g>
</g>
<!-- Node2&#45;&gt;Node3 -->
<g id="edge2" class="edge"><title>Node2&#45;&gt;Node3</title>
<path fill="none" stroke="midnightblue" d="M358.207,-168.083C354.648,-160.691 349.478,-149.953 345.076,-140.811"/>
<polygon fill="midnightblue" stroke="midnightblue" points="348.205,-139.243 340.713,-131.751 341.898,-142.279 348.205,-139.243"/>
</g>
<!-- Node2&#45;&gt;Node8 -->
<g id="edge17" class="edge"><title>Node2&#45;&gt;Node8</title>
<path fill="none" stroke="midnightblue" d="M338.066,-168.47C314.696,-160.052 278.65,-146.386 248.5,-132 215.391,-116.202 178.758,-94.7683 155.932,-80.9101"/>
<polygon fill="midnightblue" stroke="midnightblue" points="157.686,-77.8801 147.329,-75.6479 154.034,-83.8516 157.686,-77.8801"/>
</g>
<!-- Node2&#45;&gt;Node11 -->
<g id="edge18" class="edge"><title>Node2&#45;&gt;Node11</title>
<path fill="none" stroke="midnightblue" d="M374.761,-168.179C387.157,-159.21 406.813,-144.842 423.5,-132 445.201,-115.299 469.662,-95.5368 485.97,-82.2236"/>
<polygon fill="midnightblue" stroke="midnightblue" points="488.601,-84.5936 494.123,-75.5513 484.167,-79.1766 488.601,-84.5936"/>
</g>
<!-- Node4 -->
<g id="node4" class="node"><title>Node4</title>
<polygon fill="none" stroke="#bfbfbf" points="214,-0.5 214,-19.5 255,-19.5 255,-0.5 214,-0.5"/>
<text text-anchor="middle" x="234.5" y="-7.5" font-family="Helvetica,sans-Serif" font-size="10.00">string</text>
</g>
<!-- Node3&#45;&gt;Node4 -->
<g id="edge3" class="edge"><title>Node3&#45;&gt;Node4</title>
<path fill="none" stroke="midnightblue" d="M326.344,-112.434C316.149,-103.663 300.177,-89.446 287.5,-76 272.892,-60.506 257.677,-41.501 247.316,-28.0533"/>
<polygon fill="midnightblue" stroke="midnightblue" points="249.83,-25.5771 240.986,-19.7428 244.261,-29.8187 249.83,-25.5771"/>
</g>
<!-- Node5 -->
<g id="node5" class="node"><title>Node5</title>
<polygon fill="none" stroke="#bfbfbf" points="398,-0.5 398,-19.5 433,-19.5 433,-0.5 398,-0.5"/>
<text text-anchor="middle" x="415.5" y="-7.5" font-family="Helvetica,sans-Serif" font-size="10.00">map</text>
</g>
<!-- Node3&#45;&gt;Node5 -->
<g id="edge4" class="edge"><title>Node3&#45;&gt;Node5</title>
<path fill="none" stroke="midnightblue" d="M352.785,-112.397C366.092,-104.576 384.448,-91.8512 395.5,-76 405.101,-62.2289 410.207,-43.7033 412.849,-29.953"/>
<polygon fill="midnightblue" stroke="midnightblue" points="416.36,-30.1713 414.533,-19.7351 409.453,-29.0326 416.36,-30.1713"/>
</g>
<!-- Node6 -->
<g id="node6" class="node"><title>Node6</title>
<polygon fill="none" stroke="#bfbfbf" points="304,-56.5 304,-75.5 387,-75.5 387,-56.5 304,-56.5"/>
<text text-anchor="middle" x="345.5" y="-63.5" font-family="Helvetica,sans-Serif" font-size="10.00">unordered_map</text>
</g>
<!-- Node3&#45;&gt;Node6 -->
<g id="edge5" class="edge"><title>Node3&#45;&gt;Node6</title>
<path fill="none" stroke="midnightblue" d="M337.986,-112.083C339.179,-104.927 340.894,-94.6353 342.385,-85.6911"/>
<polygon fill="midnightblue" stroke="midnightblue" points="345.85,-86.1904 344.041,-75.7511 338.945,-85.0396 345.85,-86.1904"/>
</g>
<!-- Node7 -->
<g id="node7" class="node"><title>Node7</title>
<polygon fill="none" stroke="#bfbfbf" points="273.5,-0.5 273.5,-19.5 329.5,-19.5 329.5,-0.5 273.5,-0.5"/>
<text text-anchor="middle" x="301.5" y="-7.5" font-family="Helvetica,sans-Serif" font-size="10.00">Rtypes.h</text>
</g>
<!-- Node3&#45;&gt;Node7 -->
<g id="edge6" class="edge"><title>Node3&#45;&gt;Node7</title>
<path fill="none" stroke="midnightblue" d="M324.286,-112.236C314.146,-104.143 300.457,-91.1121 294.5,-76 288.647,-61.151 291.337,-43.0019 294.95,-29.659"/>
<polygon fill="midnightblue" stroke="midnightblue" points="298.401,-30.3479 298.035,-19.7594 291.718,-28.2652 298.401,-30.3479"/>
</g>
<!-- Node3&#45;&gt;Node8 -->
<g id="edge7" class="edge"><title>Node3&#45;&gt;Node8</title>
<path fill="none" stroke="midnightblue" d="M304.334,-112.444C269.441,-103.162 213.607,-88.3093 175.329,-78.127"/>
<polygon fill="midnightblue" stroke="midnightblue" points="176.079,-74.7048 165.515,-75.5164 174.28,-81.4696 176.079,-74.7048"/>
</g>
<!-- Node3&#45;&gt;Node11 -->
<g id="edge13" class="edge"><title>Node3&#45;&gt;Node11</title>
<path fill="none" stroke="midnightblue" d="M363.12,-112.444C391.506,-103.32 436.637,-88.8133 468.253,-78.6509"/>
<polygon fill="midnightblue" stroke="midnightblue" points="469.555,-81.9087 478.004,-75.5164 467.413,-75.2445 469.555,-81.9087"/>
</g>
<!-- Node8&#45;&gt;Node4 -->
<g id="edge8" class="edge"><title>Node8&#45;&gt;Node4</title>
<path fill="none" stroke="midnightblue" d="M149.727,-56.324C165.851,-47.7034 190.8,-34.3643 209.464,-24.3855"/>
<polygon fill="midnightblue" stroke="midnightblue" points="211.144,-27.456 218.313,-19.6545 207.844,-21.283 211.144,-27.456"/>
</g>
<!-- Node8&#45;&gt;Node5 -->
<g id="edge9" class="edge"><title>Node8&#45;&gt;Node5</title>
<path fill="none" stroke="midnightblue" d="M178.184,-56.4435C237.217,-45.1393 339.397,-25.573 388.122,-16.2426"/>
<polygon fill="midnightblue" stroke="midnightblue" points="388.783,-19.6797 397.946,-14.3614 387.466,-12.8046 388.783,-19.6797"/>
</g>
<!-- Node8&#45;&gt;Node7 -->
<g id="edge10" class="edge"><title>Node8&#45;&gt;Node7</title>
<path fill="none" stroke="midnightblue" d="M160.12,-56.4435C188.506,-47.3196 233.637,-32.8133 265.253,-22.6509"/>
<polygon fill="midnightblue" stroke="midnightblue" points="266.555,-25.9087 275.004,-19.5164 264.413,-19.2445 266.555,-25.9087"/>
</g>
<!-- Node9 -->
<g id="node9" class="node"><title>Node9</title>
<polygon fill="none" stroke="#bfbfbf" points="0,-0.5 0,-19.5 59,-19.5 59,-0.5 0,-0.5"/>
<text text-anchor="middle" x="29.5" y="-7.5" font-family="Helvetica,sans-Serif" font-size="10.00">TObject.h</text>
</g>
<!-- Node8&#45;&gt;Node9 -->
<g id="edge11" class="edge"><title>Node8&#45;&gt;Node9</title>
<path fill="none" stroke="midnightblue" d="M116.791,-56.324C100.188,-47.7034 74.4979,-34.3643 55.2795,-24.3855"/>
<polygon fill="midnightblue" stroke="midnightblue" points="56.6558,-21.1565 46.1679,-19.6545 53.43,-27.3689 56.6558,-21.1565"/>
</g>
<!-- Node10 -->
<g id="node10" class="node"><title>Node10</title>
<polygon fill="none" stroke="#bfbfbf" points="77.5,-0.5 77.5,-19.5 193.5,-19.5 193.5,-0.5 77.5,-0.5"/>
<text text-anchor="middle" x="135.5" y="-7.5" font-family="Helvetica,sans-Serif" font-size="10.00">Common/Exceptions.h</text>
</g>
<!-- Node8&#45;&gt;Node10 -->
<g id="edge12" class="edge"><title>Node8&#45;&gt;Node10</title>
<path fill="none" stroke="midnightblue" d="M133.83,-56.083C134.092,-49.0059 134.468,-38.8611 134.797,-29.9865"/>
<polygon fill="midnightblue" stroke="midnightblue" points="138.303,-29.8738 135.176,-19.7511 131.308,-29.6147 138.303,-29.8738"/>
</g>
<!-- Node11&#45;&gt;Node4 -->
<g id="edge15" class="edge"><title>Node11&#45;&gt;Node4</title>
<path fill="none" stroke="midnightblue" d="M449.817,-56.4465C403.138,-48.7605 334.073,-36.4821 264.845,-19.8609"/>
<polygon fill="midnightblue" stroke="midnightblue" points="265.622,-16.4479 255.078,-17.4868 263.969,-23.2498 265.622,-16.4479"/>
</g>
<!-- Node11&#45;&gt;Node5 -->
<g id="edge16" class="edge"><title>Node11&#45;&gt;Node5</title>
<path fill="none" stroke="midnightblue" d="M490.201,-56.324C476.317,-47.9002 455.008,-34.9709 438.696,-25.0741"/>
<polygon fill="midnightblue" stroke="midnightblue" points="440.129,-21.8495 429.764,-19.6545 436.498,-27.8341 440.129,-21.8495"/>
</g>
<!-- Node11&#45;&gt;Node7 -->
<g id="edge14" class="edge"><title>Node11&#45;&gt;Node7</title>
<path fill="none" stroke="midnightblue" d="M472.334,-56.4435C436.209,-46.834 377.64,-31.2539 339.343,-21.0667"/>
<polygon fill="midnightblue" stroke="midnightblue" points="340.157,-17.6614 329.593,-18.473 338.357,-24.4262 340.157,-17.6614"/>
</g>
<!-- Node13 -->
<g id="node13" class="node"><title>Node13</title>
<polygon fill="none" stroke="#bfbfbf" points="518.5,-112.5 518.5,-131.5 648.5,-131.5 648.5,-112.5 518.5,-112.5"/>
<text text-anchor="middle" x="583.5" y="-119.5" font-family="Helvetica,sans-Serif" font-size="10.00">InfoLogger/InfoLogger.hxx</text>
</g>
<!-- Node12&#45;&gt;Node13 -->
<g id="edge22" class="edge"><title>Node12&#45;&gt;Node13</title>
<path fill="none" stroke="midnightblue" d="M583.5,-168.083C583.5,-161.006 583.5,-150.861 583.5,-141.986"/>
<polygon fill="midnightblue" stroke="midnightblue" points="587,-141.751 583.5,-131.751 580,-141.751 587,-141.751"/>
</g>
</g>
</svg>
        <g id="navigator" transform="translate(0 0)" fill="#404254">
                <rect fill="#f2f5e9" fill-opacity="0.5" stroke="#606060" stroke-width=".5" x="0" y="0" width="60" height="60"/>
                <use id="zoomplus" xlink:href="#zoomPlus" x="17" y="9" onmousedown="handleZoom(evt,'in')"/>
                <use id="zoomminus" xlink:href="#zoomMin" x="42" y="9" onmousedown="handleZoom(evt,'out')"/>
                <use id="reset" xlink:href="#resetDef" x="30" y="36" onmousedown="handleReset()"/>
                <g id="arrowUp" xlink:href="#dirArrow" transform="translate(30 24)" onmousedown="handlePan(0,-1)">
                  <use xlink:href="#rim" fill="#404040">
                        <set attributeName="fill" to="#808080" begin="arrowUp.mouseover" end="arrowUp.mouseout"/>
                  </use>
                  <path fill="none" stroke="white" stroke-width="1.5" d="M0,-3.0v7 M-2.5,-0.5L0,-3.0L2.5,-0.5"/>
                </g>
                <g id="arrowRight" xlink:href="#dirArrow" transform="rotate(90) translate(36 -43)" onmousedown="handlePan(1,0)">
                  <use xlink:href="#rim" fill="#404040">
                        <set attributeName="fill" to="#808080" begin="arrowRight.mouseover" end="arrowRight.mouseout"/>
                  </use>
                  <path fill="none" stroke="white" stroke-width="1.5" d="M0,-3.0v7 M-2.5,-0.5L0,-3.0L2.5,-0.5"/>
                </g>
                <g id="arrowDown" xlink:href="#dirArrow" transform="rotate(180) translate(-30 -48)" onmousedown="handlePan(0,1)">
                  <use xlink:href="#rim" fill="#404040">
                        <set attributeName="fill" to="#808080" begin="arrowDown.mouseover" end="arrowDown.mouseout"/>
                  </use>
                  <path fill="none" stroke="white" stroke-width="1.5" d="M0,-3.0v7 M-2.5,-0.5L0,-3.0L2.5,-0.5"/>
                </g>
                <g id="arrowLeft" xlink:href="#dirArrow" transform="rotate(270) translate(-36 17)" onmousedown="handlePan(-1,0)">
                  <use xlink:href="#rim" fill="#404040">
                        <set attributeName="fill" to="#808080" begin="arrowLeft.mouseover" end="arrowLeft.mouseout"/>
                  </use>
                  <path fill="none" stroke="white" stroke-width="1.5" d="M0,-3.0v7 M-2.5,-0.5L0,-3.0L2.5,-0.5"/>
                </g>
        </g>
        <svg viewBox="0 0 15 15" width="100%" height="30px" preserveAspectRatio="xMaxYMin meet">
         <g id="arrow_out" transform="scale(0.3 0.3)">
          <a xlink:href="CheckDiagnostics_8cxx__incl_org.svg" target="_base">
           <rect id="button" ry="5" rx="5" y="6" x="6" height="38" width="38"
                fill="#f2f5e9" fill-opacity="0.5" stroke="#606060" stroke-width="1.0"/>
           <path id="arrow"
             d="M 11.500037,31.436501 C 11.940474,20.09759 22.043105,11.32322 32.158766,21.979434 L 37.068811,17.246167 C 37.068811,17.246167 37.088388,32 37.088388,32 L 22.160133,31.978069 C 22.160133,31.978069 26.997745,27.140456 26.997745,27.140456 C 18.528582,18.264221 13.291696,25.230495 11.500037,31.436501 z"
             style="fill:#404040;"/>
          </a>
         </g>
        </svg>
</svg>
