<?xml version="1.0" encoding="UTF-8" standalone="no"?>
<!DOCTYPE svg PUBLIC "-//W3C//DTD SVG 1.1//EN"
 "http://www.w3.org/Graphics/SVG/1.1/DTD/svg11.dtd">
<!-- Generated by graphviz version 2.38.0 (20140413.2041)
 -->
<!-- Title: Framework/include/QualityControl/CheckConfig.h Pages: 1 -->
<svg width="1961pt" height="240pt"
 viewBox="0.00 0.00 1960.50 240.00" xmlns="http://www.w3.org/2000/svg" xmlns:xlink="http://www.w3.org/1999/xlink">
<g id="graph0" class="graph" transform="scale(1 1) rotate(0) translate(4 236)">
<title>Framework/include/QualityControl/CheckConfig.h</title>
<!-- Node1 -->
<g id="node1" class="node"><title>Node1</title>
<polygon fill="#bfbfbf" stroke="black" points="818.5,-201.5 818.5,-231.5 951.5,-231.5 951.5,-201.5 818.5,-201.5"/>
<text text-anchor="start" x="826.5" y="-219.5" font-family="Helvetica,sans-Serif" font-size="10.00">Framework/include/Quality</text>
<text text-anchor="middle" x="885" y="-208.5" font-family="Helvetica,sans-Serif" font-size="10.00">Control/CheckConfig.h</text>
</g>
<!-- Node2 -->
<g id="node2" class="node"><title>Node2</title>
<g id="a_node2"><a xlink:href="Check_8h_source.html" target="_top" xlink:title="Framework/include/Quality\lControl/Check.h">
<polygon fill="none" stroke="black" points="818.5,-134.5 818.5,-164.5 951.5,-164.5 951.5,-134.5 818.5,-134.5"/>
<text text-anchor="start" x="826.5" y="-152.5" font-family="Helvetica,sans-Serif" font-size="10.00">Framework/include/Quality</text>
<text text-anchor="middle" x="885" y="-141.5" font-family="Helvetica,sans-Serif" font-size="10.00">Control/Check.h</text>
</a>
</g>
</g>
<!-- Node1&#45;&gt;Node2 -->
<g id="edge1" class="edge"><title>Node1&#45;&gt;Node2</title>
<path fill="none" stroke="midnightblue" d="M885,-191.108C885,-182.154 885,-172.323 885,-164.577"/>
<polygon fill="midnightblue" stroke="midnightblue" points="881.5,-191.396 885,-201.396 888.5,-191.396 881.5,-191.396"/>
</g>
<!-- Node3 -->
<g id="node3" class="node"><title>Node3</title>
<g id="a_node3"><a xlink:href="CheckRunner_8h.html" target="_top" xlink:title="Framework/include/Quality\lControl/CheckRunner.h">
<polygon fill="none" stroke="black" points="818.5,-67.5 818.5,-97.5 951.5,-97.5 951.5,-67.5 818.5,-67.5"/>
<text text-anchor="start" x="826.5" y="-85.5" font-family="Helvetica,sans-Serif" font-size="10.00">Framework/include/Quality</text>
<text text-anchor="middle" x="885" y="-74.5" font-family="Helvetica,sans-Serif" font-size="10.00">Control/CheckRunner.h</text>
</a>
</g>
</g>
<!-- Node2&#45;&gt;Node3 -->
<g id="edge2" class="edge"><title>Node2&#45;&gt;Node3</title>
<path fill="none" stroke="midnightblue" d="M885,-124.108C885,-115.154 885,-105.323 885,-97.5765"/>
<polygon fill="midnightblue" stroke="midnightblue" points="881.5,-124.396 885,-134.396 888.5,-124.396 881.5,-124.396"/>
</g>
<!-- Node6 -->
<g id="node6" class="node"><title>Node6</title>
<g id="a_node6"><a xlink:href="InfrastructureGenerator_8cxx.html" target="_top" xlink:title="Framework/src/Infrastructure\lGenerator.cxx">
<polygon fill="none" stroke="black" points="170.5,-0.5 170.5,-30.5 313.5,-30.5 313.5,-0.5 170.5,-0.5"/>
<text text-anchor="start" x="178.5" y="-18.5" font-family="Helvetica,sans-Serif" font-size="10.00">Framework/src/Infrastructure</text>
<text text-anchor="middle" x="242" y="-7.5" font-family="Helvetica,sans-Serif" font-size="10.00">Generator.cxx</text>
</a>
</g>
</g>
<!-- Node2&#45;&gt;Node6 -->
<g id="edge21" class="edge"><title>Node2&#45;&gt;Node6</title>
<path fill="none" stroke="midnightblue" d="M808.289,-139.735C738.88,-131.19 634.048,-116.752 544,-98 451.89,-78.819 346.136,-48.2727 287.392,-30.5291"/>
<polygon fill="midnightblue" stroke="midnightblue" points="807.916,-143.215 818.267,-140.953 808.765,-136.267 807.916,-143.215"/>
</g>
<!-- Node14 -->
<g id="node14" class="node"><title>Node14</title>
<g id="a_node14"><a xlink:href="CheckRunnerFactory_8h.html" target="_top" xlink:title="Framework/include/Quality\lControl/CheckRunnerFactory.h">
<polygon fill="none" stroke="black" points="553,-67.5 553,-97.5 705,-97.5 705,-67.5 553,-67.5"/>
<text text-anchor="start" x="561" y="-85.5" font-family="Helvetica,sans-Serif" font-size="10.00">Framework/include/Quality</text>
<text text-anchor="middle" x="629" y="-74.5" font-family="Helvetica,sans-Serif" font-size="10.00">Control/CheckRunnerFactory.h</text>
</a>
</g>
</g>
<!-- Node2&#45;&gt;Node14 -->
<g id="edge13" class="edge"><title>Node2&#45;&gt;Node14</title>
<path fill="none" stroke="midnightblue" d="M819.954,-131.984C778.139,-121.367 724.39,-107.72 684.575,-97.6109"/>
<polygon fill="midnightblue" stroke="midnightblue" points="819.213,-135.407 829.767,-134.476 820.936,-128.623 819.213,-135.407"/>
</g>
<!-- Node16 -->
<g id="node16" class="node"><title>Node16</title>
<polygon fill="none" stroke="#bfbfbf" points="970,-73 970,-92 1102,-92 1102,-73 970,-73"/>
<text text-anchor="middle" x="1036" y="-80" font-family="Helvetica,sans-Serif" font-size="10.00">Framework/src/Check.cxx</text>
</g>
<!-- Node2&#45;&gt;Node16 -->
<g id="edge20" class="edge"><title>Node2&#45;&gt;Node16</title>
<path fill="none" stroke="midnightblue" d="M927.291,-130.295C956.411,-117.76 993.762,-101.682 1016.24,-92.007"/>
<polygon fill="midnightblue" stroke="midnightblue" points="925.566,-127.227 917.765,-134.396 928.334,-133.657 925.566,-127.227"/>
</g>
<!-- Node17 -->
<g id="node17" class="node"><title>Node17</title>
<g id="a_node17"><a xlink:href="runITS_8cxx.html" target="_top" xlink:title="Modules/ITS/src/runITS.cxx">
<polygon fill="none" stroke="black" points="1120,-73 1120,-92 1260,-92 1260,-73 1120,-73"/>
<text text-anchor="middle" x="1190" y="-80" font-family="Helvetica,sans-Serif" font-size="10.00">Modules/ITS/src/runITS.cxx</text>
</a>
</g>
</g>
<!-- Node2&#45;&gt;Node17 -->
<g id="edge22" class="edge"><title>Node2&#45;&gt;Node17</title>
<path fill="none" stroke="midnightblue" d="M960.609,-132.387C1020.57,-119.609 1102,-102.254 1149.98,-92.0287"/>
<polygon fill="midnightblue" stroke="midnightblue" points="959.856,-128.968 950.805,-134.476 961.315,-135.815 959.856,-128.968"/>
</g>
<!-- Node4 -->
<g id="node4" class="node"><title>Node4</title>
<g id="a_node4"><a xlink:href="CheckRunner_8cxx.html" target="_top" xlink:title="Framework/src/CheckRunner.cxx">
<polygon fill="none" stroke="black" points="1477,-6 1477,-25 1641,-25 1641,-6 1477,-6"/>
<text text-anchor="middle" x="1559" y="-13" font-family="Helvetica,sans-Serif" font-size="10.00">Framework/src/CheckRunner.cxx</text>
</a>
</g>
</g>
<!-- Node3&#45;&gt;Node4 -->
<g id="edge3" class="edge"><title>Node3&#45;&gt;Node4</title>
<path fill="none" stroke="midnightblue" d="M961.8,-67.0126C1186.75,-38.3291 1246.86,-56.4199 1468,-31 1481.83,-29.4105 1496.77,-27.2268 1510.46,-25.0362"/>
<polygon fill="midnightblue" stroke="midnightblue" points="961.126,-63.5705 951.657,-68.3232 962.023,-70.5128 961.126,-63.5705"/>
</g>
<!-- Node5 -->
<g id="node5" class="node"><title>Node5</title>
<g id="a_node5"><a xlink:href="CheckRunnerFactory_8cxx.html" target="_top" xlink:title="Framework/src/CheckRunner\lFactory.cxx">
<polygon fill="none" stroke="black" points="556.5,-0.5 556.5,-30.5 701.5,-30.5 701.5,-0.5 556.5,-0.5"/>
<text text-anchor="start" x="564.5" y="-18.5" font-family="Helvetica,sans-Serif" font-size="10.00">Framework/src/CheckRunner</text>
<text text-anchor="middle" x="629" y="-7.5" font-family="Helvetica,sans-Serif" font-size="10.00">Factory.cxx</text>
</a>
</g>
</g>
<!-- Node3&#45;&gt;Node5 -->
<g id="edge4" class="edge"><title>Node3&#45;&gt;Node5</title>
<path fill="none" stroke="midnightblue" d="M819.954,-64.9844C778.139,-54.3674 724.39,-40.7201 684.575,-30.6109"/>
<polygon fill="midnightblue" stroke="midnightblue" points="819.213,-68.4073 829.767,-67.476 820.936,-61.6226 819.213,-68.4073"/>
</g>
<!-- Node3&#45;&gt;Node6 -->
<g id="edge5" class="edge"><title>Node3&#45;&gt;Node6</title>
<path fill="none" stroke="midnightblue" d="M808.411,-74.9939C665.837,-62.8271 369.875,-37.2894 323,-31 319.885,-30.582 316.707,-30.1288 313.5,-29.6495"/>
<polygon fill="midnightblue" stroke="midnightblue" points="808.145,-78.4838 818.406,-75.8464 808.74,-71.5091 808.145,-78.4838"/>
</g>
<!-- Node7 -->
<g id="node7" class="node"><title>Node7</title>
<g id="a_node7"><a xlink:href="runBasic_8cxx.html" target="_top" xlink:title="This is an executable showing QC Task&#39;s usage in Data Processing Layer. ">
<polygon fill="none" stroke="black" points="1659,-6 1659,-25 1801,-25 1801,-6 1659,-6"/>
<text text-anchor="middle" x="1730" y="-13" font-family="Helvetica,sans-Serif" font-size="10.00">Framework/src/runBasic.cxx</text>
</a>
</g>
</g>
<!-- Node3&#45;&gt;Node7 -->
<g id="edge6" class="edge"><title>Node3&#45;&gt;Node7</title>
<path fill="none" stroke="midnightblue" d="M961.679,-67.0506C1267.17,-30.9512 1348.68,-66.0348 1650,-31 1662.62,-29.5328 1676.25,-27.3051 1688.63,-25.0329"/>
<polygon fill="midnightblue" stroke="midnightblue" points="961.16,-63.5876 951.648,-68.252 961.993,-70.538 961.16,-63.5876"/>
</g>
<!-- Node8 -->
<g id="node8" class="node"><title>Node8</title>
<g id="a_node8"><a xlink:href="testCheckRunner_8cxx.html" target="_top" xlink:title="Framework/test/testCheck\lRunner.cxx">
<polygon fill="none" stroke="black" points="719.5,-0.5 719.5,-30.5 852.5,-30.5 852.5,-0.5 719.5,-0.5"/>
<text text-anchor="start" x="727.5" y="-18.5" font-family="Helvetica,sans-Serif" font-size="10.00">Framework/test/testCheck</text>
<text text-anchor="middle" x="786" y="-7.5" font-family="Helvetica,sans-Serif" font-size="10.00">Runner.cxx</text>
</a>
</g>
</g>
<!-- Node3&#45;&gt;Node8 -->
<g id="edge7" class="edge"><title>Node3&#45;&gt;Node8</title>
<path fill="none" stroke="midnightblue" d="M854.894,-61.7337C839.575,-51.6755 821.312,-39.6847 807.44,-30.5765"/>
<polygon fill="midnightblue" stroke="midnightblue" points="853.238,-64.8333 863.518,-67.396 857.08,-58.9818 853.238,-64.8333"/>
</g>
<!-- Node9 -->
<g id="node9" class="node"><title>Node9</title>
<g id="a_node9"><a xlink:href="testCheckWorkflow_8cxx.html" target="_top" xlink:title="Framework/test/testCheck\lWorkflow.cxx">
<polygon fill="none" stroke="black" points="1819.5,-0.5 1819.5,-30.5 1952.5,-30.5 1952.5,-0.5 1819.5,-0.5"/>
<text text-anchor="start" x="1827.5" y="-18.5" font-family="Helvetica,sans-Serif" font-size="10.00">Framework/test/testCheck</text>
<text text-anchor="middle" x="1886" y="-7.5" font-family="Helvetica,sans-Serif" font-size="10.00">Workflow.cxx</text>
</a>
</g>
</g>
<!-- Node3&#45;&gt;Node9 -->
<g id="edge8" class="edge"><title>Node3&#45;&gt;Node9</title>
<path fill="none" stroke="midnightblue" d="M961.716,-67.0574C1337.91,-24.3837 1438.14,-74.1233 1810,-31 1813.07,-30.6441 1816.2,-30.2351 1819.36,-29.7855"/>
<polygon fill="midnightblue" stroke="midnightblue" points="961.178,-63.5961 951.643,-68.2145 961.977,-70.5503 961.178,-63.5961"/>
</g>
<!-- Node10 -->
<g id="node10" class="node"><title>Node10</title>
<g id="a_node10"><a xlink:href="testWorkflow_8cxx.html" target="_top" xlink:title="Framework/test/testWorkflow.cxx">
<polygon fill="none" stroke="black" points="1107,-6 1107,-25 1271,-25 1271,-6 1107,-6"/>
<text text-anchor="middle" x="1189" y="-13" font-family="Helvetica,sans-Serif" font-size="10.00">Framework/test/testWorkflow.cxx</text>
</a>
</g>
</g>
<!-- Node3&#45;&gt;Node10 -->
<g id="edge9" class="edge"><title>Node3&#45;&gt;Node10</title>
<path fill="none" stroke="midnightblue" d="M960.731,-65.3074C1020.46,-52.5371 1101.39,-35.2327 1149.11,-25.0287"/>
<polygon fill="midnightblue" stroke="midnightblue" points="959.636,-61.9624 950.589,-67.476 961.1,-68.8077 959.636,-61.9624"/>
</g>
<!-- Node11 -->
<g id="node11" class="node"><title>Node11</title>
<polygon fill="none" stroke="#bfbfbf" points="871,-6 871,-25 1089,-25 1089,-6 871,-6"/>
<text text-anchor="middle" x="980" y="-13" font-family="Helvetica,sans-Serif" font-size="10.00">Modules/EMCAL/src/runQCEMCALDigits.cxx</text>
</g>
<!-- Node3&#45;&gt;Node11 -->
<g id="edge10" class="edge"><title>Node3&#45;&gt;Node11</title>
<path fill="none" stroke="midnightblue" d="M914.025,-61.6409C931.953,-49.3742 954.041,-34.2613 967.567,-25.007"/>
<polygon fill="midnightblue" stroke="midnightblue" points="911.89,-58.8605 905.614,-67.396 915.843,-64.6377 911.89,-58.8605"/>
</g>
<!-- Node12 -->
<g id="node12" class="node"><title>Node12</title>
<polygon fill="none" stroke="#bfbfbf" points="332,-6 332,-25 538,-25 538,-6 332,-6"/>
<text text-anchor="middle" x="435" y="-13" font-family="Helvetica,sans-Serif" font-size="10.00">Modules/PHOS/src/runQCPHOSDigits.cxx</text>
</g>
<!-- Node3&#45;&gt;Node12 -->
<g id="edge11" class="edge"><title>Node3&#45;&gt;Node12</title>
<path fill="none" stroke="midnightblue" d="M808.083,-70.3898C719.105,-57.5374 574.55,-36.6572 493.991,-25.0209"/>
<polygon fill="midnightblue" stroke="midnightblue" points="807.719,-73.8734 818.116,-71.839 808.719,-66.9453 807.719,-73.8734"/>
</g>
<!-- Node13 -->
<g id="node13" class="node"><title>Node13</title>
<polygon fill="none" stroke="#bfbfbf" points="1289,-0.5 1289,-30.5 1459,-30.5 1459,-0.5 1289,-0.5"/>
<text text-anchor="start" x="1297" y="-18.5" font-family="Helvetica,sans-Serif" font-size="10.00">Modules/TPC/run/runTPCQCTrack</text>
<text text-anchor="middle" x="1374" y="-7.5" font-family="Helvetica,sans-Serif" font-size="10.00">Reader.cxx</text>
</g>
<!-- Node3&#45;&gt;Node13 -->
<g id="edge12" class="edge"><title>Node3&#45;&gt;Node13</title>
<path fill="none" stroke="midnightblue" d="M961.642,-66.9806C1103.76,-45.7949 1141.75,-49.4556 1280,-31 1282.95,-30.6067 1285.94,-30.197 1288.97,-29.7752"/>
<polygon fill="midnightblue" stroke="midnightblue" points="961.046,-63.5308 951.679,-68.4809 962.088,-70.4528 961.046,-63.5308"/>
</g>
<!-- Node14&#45;&gt;Node5 -->
<g id="edge14" class="edge"><title>Node14&#45;&gt;Node5</title>
<path fill="none" stroke="midnightblue" d="M629,-57.1081C629,-48.1539 629,-38.3227 629,-30.5765"/>
<polygon fill="midnightblue" stroke="midnightblue" points="625.5,-57.3959 629,-67.396 632.5,-57.396 625.5,-57.3959"/>
</g>
<!-- Node14&#45;&gt;Node6 -->
<g id="edge15" class="edge"><title>Node14&#45;&gt;Node6</title>
<path fill="none" stroke="midnightblue" d="M542.846,-67.6022C481.505,-57.6288 397.142,-43.7535 323,-31 319.903,-30.4672 316.739,-29.9189 313.544,-29.3617"/>
<polygon fill="midnightblue" stroke="midnightblue" points="542.439,-71.0819 552.871,-69.2308 543.562,-64.1725 542.439,-71.0819"/>
</g>
<!-- Node14&#45;&gt;Node8 -->
<g id="edge17" class="edge"><title>Node14&#45;&gt;Node8</title>
<path fill="none" stroke="midnightblue" d="M672.37,-63.5442C697.493,-53.143 728.664,-40.238 752,-30.5765"/>
<polygon fill="midnightblue" stroke="midnightblue" points="670.967,-60.3368 663.067,-67.396 673.645,-66.8045 670.967,-60.3368"/>
</g>
<!-- Node14&#45;&gt;Node11 -->
<g id="edge18" class="edge"><title>Node14&#45;&gt;Node11</title>
<path fill="none" stroke="midnightblue" d="M714.735,-65.6231C783.853,-52.8236 878.388,-35.317 933.945,-25.0287"/>
<polygon fill="midnightblue" stroke="midnightblue" points="713.925,-62.2135 704.73,-67.476 715.2,-69.0965 713.925,-62.2135"/>
</g>
<!-- Node14&#45;&gt;Node12 -->
<g id="edge19" class="edge"><title>Node14&#45;&gt;Node12</title>
<path fill="none" stroke="midnightblue" d="M577.09,-64.1075C539.349,-51.4622 489.894,-34.8923 460.39,-25.007"/>
<polygon fill="midnightblue" stroke="midnightblue" points="576.311,-67.5376 586.905,-67.396 578.535,-60.9003 576.311,-67.5376"/>
</g>
<!-- Node15 -->
<g id="node15" class="node"><title>Node15</title>
<polygon fill="none" stroke="#bfbfbf" points="0,-6 0,-25 152,-25 152,-6 0,-6"/>
<text text-anchor="middle" x="76" y="-13" font-family="Helvetica,sans-Serif" font-size="10.00">Framework/test/testCheck.cxx</text>
</g>
<!-- Node14&#45;&gt;Node15 -->
<g id="edge16" class="edge"><title>Node14&#45;&gt;Node15</title>
<path fill="none" stroke="midnightblue" d="M542.588,-73.7801C448.522,-65.0025 293.764,-49.4692 161,-31 148.693,-29.288 135.432,-27.1619 123.128,-25.0702"/>
<polygon fill="midnightblue" stroke="midnightblue" points="542.344,-77.2724 552.625,-74.7125 542.992,-70.3025 542.344,-77.2724"/>
</g>
</g>
</svg>
