<?xml version="1.0" encoding="UTF-8" standalone="no"?>
<!DOCTYPE svg PUBLIC "-//W3C//DTD SVG 1.1//EN"
 "http://www.w3.org/Graphics/SVG/1.1/DTD/svg11.dtd">
<!-- Generated by graphviz version 2.38.0 (20140413.2041)
 -->
<!-- Title: Modules/TOF/src/CheckRawTime.cxx Pages: 1 -->
<!--zoomable 263 -->
<svg id="main" version="1.1" xmlns="http://www.w3.org/2000/svg" xmlns:xlink="http://www.w3.org/1999/xlink" xml:space="preserve" onload="init(evt)">
<style type="text/css"><![CDATA[
.edge:hover path { stroke: red; }
.edge:hover polygon { stroke: red; fill: red; }
]]></style>
<script type="text/javascript"><![CDATA[
var edges = document.getElementsByTagName('g');
if (edges && edges.length) {
  for (var i=0;i<edges.length;i++) {
    if (edges[i].id.substr(0,4)=='edge') {
      edges[i].setAttribute('class','edge');
    }
  }
}
]]></script>
        <defs>
                <circle id="rim" cx="0" cy="0" r="7"/>
                <circle id="rim2" cx="0" cy="0" r="3.5"/>
                <g id="zoomPlus">
                        <use xlink:href="#rim" fill="#404040">
                                <set attributeName="fill" to="#808080" begin="zoomplus.mouseover" end="zoomplus.mouseout"/>
                        </use>
                        <path d="M-4,0h8M0,-4v8" fill="none" stroke="white" stroke-width="1.5" pointer-events="none"/>
                </g>
                <g id="zoomMin">
                        <use xlink:href="#rim" fill="#404040">
                                <set attributeName="fill" to="#808080" begin="zoomminus.mouseover" end="zoomminus.mouseout"/>
                        </use>
                        <path d="M-4,0h8" fill="none" stroke="white" stroke-width="1.5" pointer-events="none"/>
                </g>
                <g id="dirArrow">
                        <path fill="none" stroke="white" stroke-width="1.5" d="M0,-3.0v7 M-2.5,-0.5L0,-3.0L2.5,-0.5"/>
                </g>
               <g id="resetDef">
                       <use xlink:href="#rim2" fill="#404040">
                               <set attributeName="fill" to="#808080" begin="reset.mouseover" end="reset.mouseout"/>
                       </use>
               </g>
        </defs>

<script type="text/javascript">
var viewWidth = 685;
var viewHeight = 263;
var sectionId = 'dynsection-0';
</script>
<script xlink:href="svgpan.js"/>
<svg id="graph" class="graph">
<g id="viewport">
<title>Modules/TOF/src/CheckRawTime.cxx</title>
<!-- Node1 -->
<g id="node1" class="node"><title>Node1</title>
<polygon fill="#bfbfbf" stroke="black" points="426.73,-224.5 426.73,-254.5 570.73,-254.5 570.73,-224.5 426.73,-224.5"/>
<text text-anchor="start" x="434.73" y="-242.5" font-family="Helvetica,sans-Serif" font-size="10.00">Modules/TOF/src/CheckRaw</text>
<text text-anchor="middle" x="498.73" y="-231.5" font-family="Helvetica,sans-Serif" font-size="10.00">Time.cxx</text>
</g>
<!-- Node2 -->
<g id="node2" class="node"><title>Node2</title>
<g id="a_node2"><a xlink:href="CheckRawTime_8h.html" target="_top" xlink:title="Checker for TOF raw times. ">
<polygon fill="none" stroke="black" points="149.73,-168.5 149.73,-187.5 267.73,-187.5 267.73,-168.5 149.73,-168.5"/>
<text text-anchor="middle" x="208.73" y="-175.5" font-family="Helvetica,sans-Serif" font-size="10.00">TOF/CheckRawTime.h</text>
</a>
</g>
</g>
<!-- Node1&#45;&gt;Node2 -->
<g id="edge1" class="edge"><title>Node1&#45;&gt;Node2</title>
<path fill="none" stroke="midnightblue" d="M430.372,-224.475C378.265,-213.784 307.629,-199.291 260.231,-189.567"/>
<polygon fill="midnightblue" stroke="midnightblue" points="260.689,-186.088 250.19,-187.506 259.282,-192.945 260.689,-186.088"/>
</g>
<!-- Node12 -->
<g id="node12" class="node"><title>Node12</title>
<g id="a_node12"><a xlink:href="QcInfoLogger_8h.html" target="_top" xlink:title="QualityControl/QcInfoLogger.h">
<polygon fill="none" stroke="black" points="310.23,-168.5 310.23,-187.5 459.23,-187.5 459.23,-168.5 310.23,-168.5"/>
<text text-anchor="middle" x="384.73" y="-175.5" font-family="Helvetica,sans-Serif" font-size="10.00">QualityControl/QcInfoLogger.h</text>
</a>
</g>
</g>
<!-- Node1&#45;&gt;Node12 -->
<g id="edge19" class="edge"><title>Node1&#45;&gt;Node12</title>
<path fill="none" stroke="midnightblue" d="M471.714,-224.399C453.099,-214.684 428.52,-201.855 410.239,-192.314"/>
<polygon fill="midnightblue" stroke="midnightblue" points="411.803,-189.182 401.318,-187.658 408.564,-195.388 411.803,-189.182"/>
</g>
<!-- Node14 -->
<g id="node14" class="node"><title>Node14</title>
<polygon fill="none" stroke="#bfbfbf" points="476.73,-168.5 476.73,-187.5 520.73,-187.5 520.73,-168.5 476.73,-168.5"/>
<text text-anchor="middle" x="498.73" y="-175.5" font-family="Helvetica,sans-Serif" font-size="10.00">TH1.h</text>
</g>
<!-- Node1&#45;&gt;Node14 -->
<g id="edge21" class="edge"><title>Node1&#45;&gt;Node14</title>
<path fill="none" stroke="midnightblue" d="M498.73,-224.399C498.73,-216.466 498.73,-206.458 498.73,-197.858"/>
<polygon fill="midnightblue" stroke="midnightblue" points="502.23,-197.658 498.73,-187.658 495.23,-197.658 502.23,-197.658"/>
</g>
<!-- Node15 -->
<g id="node15" class="node"><title>Node15</title>
<polygon fill="none" stroke="#bfbfbf" points="539.23,-168.5 539.23,-187.5 612.23,-187.5 612.23,-168.5 539.23,-168.5"/>
<text text-anchor="middle" x="575.73" y="-175.5" font-family="Helvetica,sans-Serif" font-size="10.00">TPaveText.h</text>
</g>
<!-- Node1&#45;&gt;Node15 -->
<g id="edge22" class="edge"><title>Node1&#45;&gt;Node15</title>
<path fill="none" stroke="midnightblue" d="M516.978,-224.399C528.859,-215.218 544.338,-203.258 556.424,-193.918"/>
<polygon fill="midnightblue" stroke="midnightblue" points="558.753,-196.542 564.526,-187.658 554.473,-191.003 558.753,-196.542"/>
</g>
<!-- Node16 -->
<g id="node16" class="node"><title>Node16</title>
<polygon fill="none" stroke="#bfbfbf" points="630.23,-168.5 630.23,-187.5 677.23,-187.5 677.23,-168.5 630.23,-168.5"/>
<text text-anchor="middle" x="653.73" y="-175.5" font-family="Helvetica,sans-Serif" font-size="10.00">TList.h</text>
</g>
<!-- Node1&#45;&gt;Node16 -->
<g id="edge23" class="edge"><title>Node1&#45;&gt;Node16</title>
<path fill="none" stroke="midnightblue" d="M535.463,-224.399C561.702,-214.327 596.656,-200.909 621.748,-191.277"/>
<polygon fill="midnightblue" stroke="midnightblue" points="623.095,-194.509 631.176,-187.658 620.586,-187.974 623.095,-194.509"/>
</g>
<!-- Node3 -->
<g id="node3" class="node"><title>Node3</title>
<g id="a_node3"><a xlink:href="CheckInterface_8h.html" target="_top" xlink:title="QualityControl/CheckInterface.h">
<polygon fill="none" stroke="black" points="118.23,-112.5 118.23,-131.5 275.23,-131.5 275.23,-112.5 118.23,-112.5"/>
<text text-anchor="middle" x="196.73" y="-119.5" font-family="Helvetica,sans-Serif" font-size="10.00">QualityControl/CheckInterface.h</text>
</a>
</g>
</g>
<!-- Node2&#45;&gt;Node3 -->
<g id="edge2" class="edge"><title>Node2&#45;&gt;Node3</title>
<path fill="none" stroke="midnightblue" d="M206.749,-168.083C205.159,-160.927 202.871,-150.635 200.884,-141.691"/>
<polygon fill="midnightblue" stroke="midnightblue" points="204.261,-140.754 198.675,-131.751 197.428,-142.272 204.261,-140.754"/>
</g>
<!-- Node8 -->
<g id="node8" class="node"><title>Node8</title>
<g id="a_node8"><a xlink:href="MonitorObject_8h.html" target="_top" xlink:title="QualityControl/MonitorObject.h">
<polygon fill="none" stroke="black" points="331.23,-56.5 331.23,-75.5 482.23,-75.5 482.23,-56.5 331.23,-56.5"/>
<text text-anchor="middle" x="406.73" y="-63.5" font-family="Helvetica,sans-Serif" font-size="10.00">QualityControl/MonitorObject.h</text>
</a>
</g>
</g>
<!-- Node2&#45;&gt;Node8 -->
<g id="edge17" class="edge"><title>Node2&#45;&gt;Node8</title>
<path fill="none" stroke="midnightblue" d="M223.417,-168.461C245.061,-155.915 286.84,-131.841 322.73,-112 342.338,-101.16 364.707,-89.1966 381.429,-80.3311"/>
<polygon fill="midnightblue" stroke="midnightblue" points="383.356,-83.2712 390.559,-75.5012 380.083,-77.0838 383.356,-83.2712"/>
</g>
<!-- Node11 -->
<g id="node11" class="node"><title>Node11</title>
<g id="a_node11"><a xlink:href="Quality_8h.html" target="_top" xlink:title="QualityControl/Quality.h">
<polygon fill="none" stroke="black" points="14.2302,-56.5 14.2302,-75.5 135.23,-75.5 135.23,-56.5 14.2302,-56.5"/>
<text text-anchor="middle" x="74.7302" y="-63.5" font-family="Helvetica,sans-Serif" font-size="10.00">QualityControl/Quality.h</text>
</a>
</g>
</g>
<!-- Node2&#45;&gt;Node11 -->
<g id="edge18" class="edge"><title>Node2&#45;&gt;Node11</title>
<path fill="none" stroke="midnightblue" d="M176.298,-168.466C155.014,-161.52 127.71,-149.89 108.73,-132 95.1421,-119.192 85.9657,-99.7325 80.6049,-85.4426"/>
<polygon fill="midnightblue" stroke="midnightblue" points="83.8176,-84.0237 77.2393,-75.7185 77.2026,-86.3132 83.8176,-84.0237"/>
</g>
<!-- Node4 -->
<g id="node4" class="node"><title>Node4</title>
<polygon fill="none" stroke="#bfbfbf" points="54.2302,-0.5 54.2302,-19.5 95.2302,-19.5 95.2302,-0.5 54.2302,-0.5"/>
<text text-anchor="middle" x="74.7302" y="-7.5" font-family="Helvetica,sans-Serif" font-size="10.00">string</text>
</g>
<!-- Node3&#45;&gt;Node4 -->
<g id="edge3" class="edge"><title>Node3&#45;&gt;Node4</title>
<path fill="none" stroke="midnightblue" d="M118.219,-112.481C71.6947,-105.633 19.0863,-94.1098 4.73025,-76 -11.6021,-55.3972 19.1376,-35.3849 44.9127,-23.1326"/>
<polygon fill="midnightblue" stroke="midnightblue" points="46.4186,-26.2929 54.0878,-18.983 43.534,-19.9149 46.4186,-26.2929"/>
</g>
<!-- Node5 -->
<g id="node5" class="node"><title>Node5</title>
<polygon fill="none" stroke="#bfbfbf" points="133.23,-0.5 133.23,-19.5 168.23,-19.5 168.23,-0.5 133.23,-0.5"/>
<text text-anchor="middle" x="150.73" y="-7.5" font-family="Helvetica,sans-Serif" font-size="10.00">map</text>
</g>
<!-- Node3&#45;&gt;Node5 -->
<g id="edge4" class="edge"><title>Node3&#45;&gt;Node5</title>
<path fill="none" stroke="midnightblue" d="M193.121,-112.368C185.63,-94.4563 168.262,-52.9233 158.236,-28.9482"/>
<polygon fill="midnightblue" stroke="midnightblue" points="161.41,-27.4669 154.323,-19.5914 154.952,-30.1676 161.41,-27.4669"/>
</g>
<!-- Node6 -->
<g id="node6" class="node"><title>Node6</title>
<polygon fill="none" stroke="#bfbfbf" points="230.23,-56.5 230.23,-75.5 313.23,-75.5 313.23,-56.5 230.23,-56.5"/>
<text text-anchor="middle" x="271.73" y="-63.5" font-family="Helvetica,sans-Serif" font-size="10.00">unordered_map</text>
</g>
<!-- Node3&#45;&gt;Node6 -->
<g id="edge5" class="edge"><title>Node3&#45;&gt;Node6</title>
<path fill="none" stroke="midnightblue" d="M208.78,-112.324C220.193,-104.107 237.561,-91.6017 251.165,-81.8069"/>
<polygon fill="midnightblue" stroke="midnightblue" points="253.391,-84.5174 259.461,-75.8339 249.301,-78.8366 253.391,-84.5174"/>
</g>
<!-- Node7 -->
<g id="node7" class="node"><title>Node7</title>
<polygon fill="none" stroke="#bfbfbf" points="186.73,-0.5 186.73,-19.5 242.73,-19.5 242.73,-0.5 186.73,-0.5"/>
<text text-anchor="middle" x="214.73" y="-7.5" font-family="Helvetica,sans-Serif" font-size="10.00">Rtypes.h</text>
</g>
<!-- Node3&#45;&gt;Node7 -->
<g id="edge6" class="edge"><title>Node3&#45;&gt;Node7</title>
<path fill="none" stroke="midnightblue" d="M198.143,-112.368C201.047,-94.617 207.748,-53.6664 211.687,-29.5974"/>
<polygon fill="midnightblue" stroke="midnightblue" points="215.163,-30.0254 213.324,-19.5914 208.255,-28.8949 215.163,-30.0254"/>
</g>
<!-- Node3&#45;&gt;Node8 -->
<g id="edge7" class="edge"><title>Node3&#45;&gt;Node8</title>
<path fill="none" stroke="midnightblue" d="M230.005,-112.444C266.179,-103.142 324.107,-88.246 363.711,-78.062"/>
<polygon fill="midnightblue" stroke="midnightblue" points="364.798,-81.3966 373.611,-75.5164 363.054,-74.6172 364.798,-81.3966"/>
</g>
<!-- Node3&#45;&gt;Node11 -->
<g id="edge13" class="edge"><title>Node3&#45;&gt;Node11</title>
<path fill="none" stroke="midnightblue" d="M177.399,-112.444C157.41,-103.596 125.987,-89.6875 103.166,-79.5865"/>
<polygon fill="midnightblue" stroke="midnightblue" points="104.532,-76.3635 93.9711,-75.5164 101.699,-82.7645 104.532,-76.3635"/>
</g>
<!-- Node8&#45;&gt;Node4 -->
<g id="edge8" class="edge"><title>Node8&#45;&gt;Node4</title>
<path fill="none" stroke="midnightblue" d="M350.554,-56.4731C293.403,-47.7031 202.309,-33.4618 123.73,-20 117.976,-19.0142 111.849,-17.9225 105.947,-16.8494"/>
<polygon fill="midnightblue" stroke="midnightblue" points="106.162,-13.3303 95.6939,-14.9645 104.896,-20.2149 106.162,-13.3303"/>
</g>
<!-- Node8&#45;&gt;Node5 -->
<g id="edge9" class="edge"><title>Node8&#45;&gt;Node5</title>
<path fill="none" stroke="midnightblue" d="M353.078,-56.4527C308.668,-48.9276 243.798,-36.902 178.421,-19.8919"/>
<polygon fill="midnightblue" stroke="midnightblue" points="178.914,-16.402 168.352,-17.2328 177.127,-23.17 178.914,-16.402"/>
</g>
<!-- Node8&#45;&gt;Node7 -->
<g id="edge10" class="edge"><title>Node8&#45;&gt;Node7</title>
<path fill="none" stroke="midnightblue" d="M376.307,-56.4435C342.769,-47.0108 288.776,-31.8252 252.542,-21.6345"/>
<polygon fill="midnightblue" stroke="midnightblue" points="253.399,-18.2398 242.825,-18.9015 251.503,-24.9783 253.399,-18.2398"/>
</g>
<!-- Node9 -->
<g id="node9" class="node"><title>Node9</title>
<polygon fill="none" stroke="#bfbfbf" points="324.23,-0.5 324.23,-19.5 383.23,-19.5 383.23,-0.5 324.23,-0.5"/>
<text text-anchor="middle" x="353.73" y="-7.5" font-family="Helvetica,sans-Serif" font-size="10.00">TObject.h</text>
</g>
<!-- Node8&#45;&gt;Node9 -->
<g id="edge11" class="edge"><title>Node8&#45;&gt;Node9</title>
<path fill="none" stroke="midnightblue" d="M397.978,-56.083C390.261,-48.2195 378.826,-36.5688 369.514,-27.0813"/>
<polygon fill="midnightblue" stroke="midnightblue" points="371.822,-24.4363 362.319,-19.7511 366.826,-29.3396 371.822,-24.4363"/>
</g>
<!-- Node10 -->
<g id="node10" class="node"><title>Node10</title>
<polygon fill="none" stroke="#bfbfbf" points="401.73,-0.5 401.73,-19.5 517.73,-19.5 517.73,-0.5 401.73,-0.5"/>
<text text-anchor="middle" x="459.73" y="-7.5" font-family="Helvetica,sans-Serif" font-size="10.00">Common/Exceptions.h</text>
</g>
<!-- Node8&#45;&gt;Node10 -->
<g id="edge12" class="edge"><title>Node8&#45;&gt;Node10</title>
<path fill="none" stroke="midnightblue" d="M415.482,-56.083C423.2,-48.2195 434.635,-36.5688 443.947,-27.0813"/>
<polygon fill="midnightblue" stroke="midnightblue" points="446.634,-29.3396 451.141,-19.7511 441.639,-24.4363 446.634,-29.3396"/>
</g>
<!-- Node11&#45;&gt;Node4 -->
<g id="edge15" class="edge"><title>Node11&#45;&gt;Node4</title>
<path fill="none" stroke="midnightblue" d="M74.7302,-56.083C74.7302,-49.0059 74.7302,-38.8611 74.7302,-29.9865"/>
<polygon fill="midnightblue" stroke="midnightblue" points="78.2303,-29.751 74.7302,-19.7511 71.2303,-29.7511 78.2303,-29.751"/>
</g>
<!-- Node11&#45;&gt;Node5 -->
<g id="edge16" class="edge"><title>Node11&#45;&gt;Node5</title>
<path fill="none" stroke="midnightblue" d="M86.941,-56.324C98.5061,-48.1066 116.106,-35.6017 129.891,-25.8069"/>
<polygon fill="midnightblue" stroke="midnightblue" points="132.173,-28.4791 138.297,-19.8339 128.118,-22.7729 132.173,-28.4791"/>
</g>
<!-- Node11&#45;&gt;Node7 -->
<g id="edge14" class="edge"><title>Node11&#45;&gt;Node7</title>
<path fill="none" stroke="midnightblue" d="M96.9137,-56.4435C120.159,-47.4776 156.879,-33.314 183.145,-23.1827"/>
<polygon fill="midnightblue" stroke="midnightblue" points="184.58,-26.3807 192.651,-19.5164 182.061,-19.8497 184.58,-26.3807"/>
</g>
<!-- Node13 -->
<g id="node13" class="node"><title>Node13</title>
<polygon fill="none" stroke="#bfbfbf" points="331.73,-112.5 331.73,-131.5 461.73,-131.5 461.73,-112.5 331.73,-112.5"/>
<text text-anchor="middle" x="396.73" y="-119.5" font-family="Helvetica,sans-Serif" font-size="10.00">InfoLogger/InfoLogger.hxx</text>
</g>
<!-- Node12&#45;&gt;Node13 -->
<g id="edge20" class="edge"><title>Node12&#45;&gt;Node13</title>
<path fill="none" stroke="midnightblue" d="M386.712,-168.083C388.302,-160.927 390.589,-150.635 392.577,-141.691"/>
<polygon fill="midnightblue" stroke="midnightblue" points="396.033,-142.272 394.786,-131.751 389.2,-140.754 396.033,-142.272"/>
</g>
</g>
</svg>
        <g id="navigator" transform="translate(0 0)" fill="#404254">
                <rect fill="#f2f5e9" fill-opacity="0.5" stroke="#606060" stroke-width=".5" x="0" y="0" width="60" height="60"/>
                <use id="zoomplus" xlink:href="#zoomPlus" x="17" y="9" onmousedown="handleZoom(evt,'in')"/>
                <use id="zoomminus" xlink:href="#zoomMin" x="42" y="9" onmousedown="handleZoom(evt,'out')"/>
                <use id="reset" xlink:href="#resetDef" x="30" y="36" onmousedown="handleReset()"/>
                <g id="arrowUp" xlink:href="#dirArrow" transform="translate(30 24)" onmousedown="handlePan(0,-1)">
                  <use xlink:href="#rim" fill="#404040">
                        <set attributeName="fill" to="#808080" begin="arrowUp.mouseover" end="arrowUp.mouseout"/>
                  </use>
                  <path fill="none" stroke="white" stroke-width="1.5" d="M0,-3.0v7 M-2.5,-0.5L0,-3.0L2.5,-0.5"/>
                </g>
                <g id="arrowRight" xlink:href="#dirArrow" transform="rotate(90) translate(36 -43)" onmousedown="handlePan(1,0)">
                  <use xlink:href="#rim" fill="#404040">
                        <set attributeName="fill" to="#808080" begin="arrowRight.mouseover" end="arrowRight.mouseout"/>
                  </use>
                  <path fill="none" stroke="white" stroke-width="1.5" d="M0,-3.0v7 M-2.5,-0.5L0,-3.0L2.5,-0.5"/>
                </g>
                <g id="arrowDown" xlink:href="#dirArrow" transform="rotate(180) translate(-30 -48)" onmousedown="handlePan(0,1)">
                  <use xlink:href="#rim" fill="#404040">
                        <set attributeName="fill" to="#808080" begin="arrowDown.mouseover" end="arrowDown.mouseout"/>
                  </use>
                  <path fill="none" stroke="white" stroke-width="1.5" d="M0,-3.0v7 M-2.5,-0.5L0,-3.0L2.5,-0.5"/>
                </g>
                <g id="arrowLeft" xlink:href="#dirArrow" transform="rotate(270) translate(-36 17)" onmousedown="handlePan(-1,0)">
                  <use xlink:href="#rim" fill="#404040">
                        <set attributeName="fill" to="#808080" begin="arrowLeft.mouseover" end="arrowLeft.mouseout"/>
                  </use>
                  <path fill="none" stroke="white" stroke-width="1.5" d="M0,-3.0v7 M-2.5,-0.5L0,-3.0L2.5,-0.5"/>
                </g>
        </g>
        <svg viewBox="0 0 15 15" width="100%" height="30px" preserveAspectRatio="xMaxYMin meet">
         <g id="arrow_out" transform="scale(0.3 0.3)">
          <a xlink:href="CheckRawTime_8cxx__incl_org.svg" target="_base">
           <rect id="button" ry="5" rx="5" y="6" x="6" height="38" width="38"
                fill="#f2f5e9" fill-opacity="0.5" stroke="#606060" stroke-width="1.0"/>
           <path id="arrow"
             d="M 11.500037,31.436501 C 11.940474,20.09759 22.043105,11.32322 32.158766,21.979434 L 37.068811,17.246167 C 37.068811,17.246167 37.088388,32 37.088388,32 L 22.160133,31.978069 C 22.160133,31.978069 26.997745,27.140456 26.997745,27.140456 C 18.528582,18.264221 13.291696,25.230495 11.500037,31.436501 z"
             style="fill:#404040;"/>
          </a>
         </g>
        </svg>
</svg>
