<?xml version="1.0" encoding="UTF-8" standalone="no"?>
<!DOCTYPE svg PUBLIC "-//W3C//DTD SVG 1.1//EN"
 "http://www.w3.org/Graphics/SVG/1.1/DTD/svg11.dtd">
<!-- Generated by graphviz version 2.38.0 (20140413.2041)
 -->
<!-- Title: Modules/TOF/src/CheckCompressedData.cxx Pages: 1 -->
<svg width="751pt" height="263pt"
 viewBox="0.00 0.00 751.23 263.00" xmlns="http://www.w3.org/2000/svg" xmlns:xlink="http://www.w3.org/1999/xlink">
<g id="graph0" class="graph" transform="scale(1 1) rotate(0) translate(4 259)">
<title>Modules/TOF/src/CheckCompressedData.cxx</title>
<!-- Node1 -->
<g id="node1" class="node"><title>Node1</title>
<polygon fill="#bfbfbf" stroke="black" points="444.23,-224.5 444.23,-254.5 623.23,-254.5 623.23,-224.5 444.23,-224.5"/>
<text text-anchor="start" x="452.23" y="-242.5" font-family="Helvetica,sans-Serif" font-size="10.00">Modules/TOF/src/CheckCompressed</text>
<text text-anchor="middle" x="533.73" y="-231.5" font-family="Helvetica,sans-Serif" font-size="10.00">Data.cxx</text>
</g>
<!-- Node2 -->
<g id="node2" class="node"><title>Node2</title>
<g id="a_node2"><a xlink:href="CheckCompressedData_8h.html" target="_top" xlink:title="Checker for the raw compressed data for TOF. ">
<polygon fill="none" stroke="black" points="128.73,-168.5 128.73,-187.5 280.73,-187.5 280.73,-168.5 128.73,-168.5"/>
<text text-anchor="middle" x="204.73" y="-175.5" font-family="Helvetica,sans-Serif" font-size="10.00">TOF/CheckCompressedData.h</text>
</a>
</g>
</g>
<!-- Node1&#45;&gt;Node2 -->
<g id="edge1" class="edge"><title>Node1&#45;&gt;Node2</title>
<path fill="none" stroke="midnightblue" d="M456.178,-224.475C396.569,-213.694 315.583,-199.048 261.81,-189.323"/>
<polygon fill="midnightblue" stroke="midnightblue" points="262.229,-185.842 251.765,-187.506 260.983,-192.73 262.229,-185.842"/>
</g>
<!-- Node12 -->
<g id="node12" class="node"><title>Node12</title>
<g id="a_node12"><a xlink:href="QcInfoLogger_8h.html" target="_top" xlink:title="QualityControl/QcInfoLogger.h">
<polygon fill="none" stroke="black" points="314.23,-168.5 314.23,-187.5 463.23,-187.5 463.23,-168.5 314.23,-168.5"/>
<text text-anchor="middle" x="388.73" y="-175.5" font-family="Helvetica,sans-Serif" font-size="10.00">QualityControl/QcInfoLogger.h</text>
</a>
</g>
</g>
<!-- Node1&#45;&gt;Node12 -->
<g id="edge19" class="edge"><title>Node1&#45;&gt;Node12</title>
<path fill="none" stroke="midnightblue" d="M499.367,-224.399C475.039,-214.416 442.701,-201.147 419.274,-191.534"/>
<polygon fill="midnightblue" stroke="midnightblue" points="420.409,-188.216 409.829,-187.658 417.752,-194.692 420.409,-188.216"/>
</g>
<!-- Node14 -->
<g id="node14" class="node"><title>Node14</title>
<polygon fill="none" stroke="#bfbfbf" points="480.73,-168.5 480.73,-187.5 524.73,-187.5 524.73,-168.5 480.73,-168.5"/>
<text text-anchor="middle" x="502.73" y="-175.5" font-family="Helvetica,sans-Serif" font-size="10.00">TH1.h</text>
</g>
<!-- Node1&#45;&gt;Node14 -->
<g id="edge21" class="edge"><title>Node1&#45;&gt;Node14</title>
<path fill="none" stroke="midnightblue" d="M526.384,-224.399C522.065,-216.11 516.565,-205.554 511.956,-196.708"/>
<polygon fill="midnightblue" stroke="midnightblue" points="514.966,-194.909 507.241,-187.658 508.758,-198.144 514.966,-194.909"/>
</g>
<!-- Node15 -->
<g id="node15" class="node"><title>Node15</title>
<polygon fill="none" stroke="#bfbfbf" points="542.73,-168.5 542.73,-187.5 586.73,-187.5 586.73,-168.5 542.73,-168.5"/>
<text text-anchor="middle" x="564.73" y="-175.5" font-family="Helvetica,sans-Serif" font-size="10.00">TH2.h</text>
</g>
<!-- Node1&#45;&gt;Node15 -->
<g id="edge22" class="edge"><title>Node1&#45;&gt;Node15</title>
<path fill="none" stroke="midnightblue" d="M541.077,-224.399C545.396,-216.11 550.895,-205.554 555.504,-196.708"/>
<polygon fill="midnightblue" stroke="midnightblue" points="558.703,-198.144 560.219,-187.658 552.495,-194.909 558.703,-198.144"/>
</g>
<!-- Node16 -->
<g id="node16" class="node"><title>Node16</title>
<polygon fill="none" stroke="#bfbfbf" points="605.23,-168.5 605.23,-187.5 678.23,-187.5 678.23,-168.5 605.23,-168.5"/>
<text text-anchor="middle" x="641.73" y="-175.5" font-family="Helvetica,sans-Serif" font-size="10.00">TPaveText.h</text>
</g>
<!-- Node1&#45;&gt;Node16 -->
<g id="edge23" class="edge"><title>Node1&#45;&gt;Node16</title>
<path fill="none" stroke="midnightblue" d="M559.325,-224.399C576.798,-214.773 599.819,-202.09 617.086,-192.577"/>
<polygon fill="midnightblue" stroke="midnightblue" points="618.945,-195.549 626.015,-187.658 615.568,-189.418 618.945,-195.549"/>
</g>
<!-- Node17 -->
<g id="node17" class="node"><title>Node17</title>
<polygon fill="none" stroke="#bfbfbf" points="696.23,-168.5 696.23,-187.5 743.23,-187.5 743.23,-168.5 696.23,-168.5"/>
<text text-anchor="middle" x="719.73" y="-175.5" font-family="Helvetica,sans-Serif" font-size="10.00">TList.h</text>
</g>
<!-- Node1&#45;&gt;Node17 -->
<g id="edge24" class="edge"><title>Node1&#45;&gt;Node17</title>
<path fill="none" stroke="midnightblue" d="M577.81,-224.399C611.108,-213.747 656.103,-199.354 686.429,-189.653"/>
<polygon fill="midnightblue" stroke="midnightblue" points="687.655,-192.936 696.113,-186.555 685.522,-186.268 687.655,-192.936"/>
</g>
<!-- Node3 -->
<g id="node3" class="node"><title>Node3</title>
<g id="a_node3"><a xlink:href="CheckInterface_8h.html" target="_top" xlink:title="QualityControl/CheckInterface.h">
<polygon fill="none" stroke="black" points="118.23,-112.5 118.23,-131.5 275.23,-131.5 275.23,-112.5 118.23,-112.5"/>
<text text-anchor="middle" x="196.73" y="-119.5" font-family="Helvetica,sans-Serif" font-size="10.00">QualityControl/CheckInterface.h</text>
</a>
</g>
</g>
<!-- Node2&#45;&gt;Node3 -->
<g id="edge2" class="edge"><title>Node2&#45;&gt;Node3</title>
<path fill="none" stroke="midnightblue" d="M203.409,-168.083C202.349,-160.927 200.824,-150.635 199.499,-141.691"/>
<polygon fill="midnightblue" stroke="midnightblue" points="202.954,-141.13 198.027,-131.751 196.03,-142.156 202.954,-141.13"/>
</g>
<!-- Node8 -->
<g id="node8" class="node"><title>Node8</title>
<g id="a_node8"><a xlink:href="MonitorObject_8h.html" target="_top" xlink:title="QualityControl/MonitorObject.h">
<polygon fill="none" stroke="black" points="331.23,-56.5 331.23,-75.5 482.23,-75.5 482.23,-56.5 331.23,-56.5"/>
<text text-anchor="middle" x="406.73" y="-63.5" font-family="Helvetica,sans-Serif" font-size="10.00">QualityControl/MonitorObject.h</text>
</a>
</g>
</g>
<!-- Node2&#45;&gt;Node8 -->
<g id="edge17" class="edge"><title>Node2&#45;&gt;Node8</title>
<path fill="none" stroke="midnightblue" d="M220.35,-168.32C242.909,-155.801 285.943,-131.985 322.73,-112 342.417,-101.305 364.782,-89.3327 381.482,-80.4272"/>
<polygon fill="midnightblue" stroke="midnightblue" points="383.417,-83.362 390.597,-75.5711 380.125,-77.184 383.417,-83.362"/>
</g>
<!-- Node11 -->
<g id="node11" class="node"><title>Node11</title>
<g id="a_node11"><a xlink:href="Quality_8h.html" target="_top" xlink:title="QualityControl/Quality.h">
<polygon fill="none" stroke="black" points="14.2302,-56.5 14.2302,-75.5 135.23,-75.5 135.23,-56.5 14.2302,-56.5"/>
<text text-anchor="middle" x="74.7302" y="-63.5" font-family="Helvetica,sans-Serif" font-size="10.00">QualityControl/Quality.h</text>
</a>
</g>
</g>
<!-- Node2&#45;&gt;Node11 -->
<g id="edge18" class="edge"><title>Node2&#45;&gt;Node11</title>
<path fill="none" stroke="midnightblue" d="M174.484,-168.48C153.926,-161.439 127.212,-149.693 108.73,-132 95.2417,-119.087 86.0508,-99.643 80.6594,-85.3852"/>
<polygon fill="midnightblue" stroke="midnightblue" points="83.8731,-83.9719 77.269,-75.6873 77.2653,-86.2821 83.8731,-83.9719"/>
</g>
<!-- Node4 -->
<g id="node4" class="node"><title>Node4</title>
<polygon fill="none" stroke="#bfbfbf" points="54.2302,-0.5 54.2302,-19.5 95.2302,-19.5 95.2302,-0.5 54.2302,-0.5"/>
<text text-anchor="middle" x="74.7302" y="-7.5" font-family="Helvetica,sans-Serif" font-size="10.00">string</text>
</g>
<!-- Node3&#45;&gt;Node4 -->
<g id="edge3" class="edge"><title>Node3&#45;&gt;Node4</title>
<path fill="none" stroke="midnightblue" d="M118.219,-112.481C71.6947,-105.633 19.0863,-94.1098 4.73025,-76 -11.6021,-55.3972 19.1376,-35.3849 44.9127,-23.1326"/>
<polygon fill="midnightblue" stroke="midnightblue" points="46.4186,-26.2929 54.0878,-18.983 43.534,-19.9149 46.4186,-26.2929"/>
</g>
<!-- Node5 -->
<g id="node5" class="node"><title>Node5</title>
<polygon fill="none" stroke="#bfbfbf" points="133.23,-0.5 133.23,-19.5 168.23,-19.5 168.23,-0.5 133.23,-0.5"/>
<text text-anchor="middle" x="150.73" y="-7.5" font-family="Helvetica,sans-Serif" font-size="10.00">map</text>
</g>
<!-- Node3&#45;&gt;Node5 -->
<g id="edge4" class="edge"><title>Node3&#45;&gt;Node5</title>
<path fill="none" stroke="midnightblue" d="M193.121,-112.368C185.63,-94.4563 168.262,-52.9233 158.236,-28.9482"/>
<polygon fill="midnightblue" stroke="midnightblue" points="161.41,-27.4669 154.323,-19.5914 154.952,-30.1676 161.41,-27.4669"/>
</g>
<!-- Node6 -->
<g id="node6" class="node"><title>Node6</title>
<polygon fill="none" stroke="#bfbfbf" points="230.23,-56.5 230.23,-75.5 313.23,-75.5 313.23,-56.5 230.23,-56.5"/>
<text text-anchor="middle" x="271.73" y="-63.5" font-family="Helvetica,sans-Serif" font-size="10.00">unordered_map</text>
</g>
<!-- Node3&#45;&gt;Node6 -->
<g id="edge5" class="edge"><title>Node3&#45;&gt;Node6</title>
<path fill="none" stroke="midnightblue" d="M208.78,-112.324C220.193,-104.107 237.561,-91.6017 251.165,-81.8069"/>
<polygon fill="midnightblue" stroke="midnightblue" points="253.391,-84.5174 259.461,-75.8339 249.301,-78.8366 253.391,-84.5174"/>
</g>
<!-- Node7 -->
<g id="node7" class="node"><title>Node7</title>
<polygon fill="none" stroke="#bfbfbf" points="186.73,-0.5 186.73,-19.5 242.73,-19.5 242.73,-0.5 186.73,-0.5"/>
<text text-anchor="middle" x="214.73" y="-7.5" font-family="Helvetica,sans-Serif" font-size="10.00">Rtypes.h</text>
</g>
<!-- Node3&#45;&gt;Node7 -->
<g id="edge6" class="edge"><title>Node3&#45;&gt;Node7</title>
<path fill="none" stroke="midnightblue" d="M198.143,-112.368C201.047,-94.617 207.748,-53.6664 211.687,-29.5974"/>
<polygon fill="midnightblue" stroke="midnightblue" points="215.163,-30.0254 213.324,-19.5914 208.255,-28.8949 215.163,-30.0254"/>
</g>
<!-- Node3&#45;&gt;Node8 -->
<g id="edge7" class="edge"><title>Node3&#45;&gt;Node8</title>
<path fill="none" stroke="midnightblue" d="M230.005,-112.444C266.179,-103.142 324.107,-88.246 363.711,-78.062"/>
<polygon fill="midnightblue" stroke="midnightblue" points="364.798,-81.3966 373.611,-75.5164 363.054,-74.6172 364.798,-81.3966"/>
</g>
<!-- Node3&#45;&gt;Node11 -->
<g id="edge13" class="edge"><title>Node3&#45;&gt;Node11</title>
<path fill="none" stroke="midnightblue" d="M177.399,-112.444C157.41,-103.596 125.987,-89.6875 103.166,-79.5865"/>
<polygon fill="midnightblue" stroke="midnightblue" points="104.532,-76.3635 93.9711,-75.5164 101.699,-82.7645 104.532,-76.3635"/>
</g>
<!-- Node8&#45;&gt;Node4 -->
<g id="edge8" class="edge"><title>Node8&#45;&gt;Node4</title>
<path fill="none" stroke="midnightblue" d="M350.554,-56.4731C293.403,-47.7031 202.309,-33.4618 123.73,-20 117.976,-19.0142 111.849,-17.9225 105.947,-16.8494"/>
<polygon fill="midnightblue" stroke="midnightblue" points="106.162,-13.3303 95.6939,-14.9645 104.896,-20.2149 106.162,-13.3303"/>
</g>
<!-- Node8&#45;&gt;Node5 -->
<g id="edge9" class="edge"><title>Node8&#45;&gt;Node5</title>
<path fill="none" stroke="midnightblue" d="M353.078,-56.4527C308.668,-48.9276 243.798,-36.902 178.421,-19.8919"/>
<polygon fill="midnightblue" stroke="midnightblue" points="178.914,-16.402 168.352,-17.2328 177.127,-23.17 178.914,-16.402"/>
</g>
<!-- Node8&#45;&gt;Node7 -->
<g id="edge10" class="edge"><title>Node8&#45;&gt;Node7</title>
<path fill="none" stroke="midnightblue" d="M376.307,-56.4435C342.769,-47.0108 288.776,-31.8252 252.542,-21.6345"/>
<polygon fill="midnightblue" stroke="midnightblue" points="253.399,-18.2398 242.825,-18.9015 251.503,-24.9783 253.399,-18.2398"/>
</g>
<!-- Node9 -->
<g id="node9" class="node"><title>Node9</title>
<polygon fill="none" stroke="#bfbfbf" points="324.23,-0.5 324.23,-19.5 383.23,-19.5 383.23,-0.5 324.23,-0.5"/>
<text text-anchor="middle" x="353.73" y="-7.5" font-family="Helvetica,sans-Serif" font-size="10.00">TObject.h</text>
</g>
<!-- Node8&#45;&gt;Node9 -->
<g id="edge11" class="edge"><title>Node8&#45;&gt;Node9</title>
<path fill="none" stroke="midnightblue" d="M397.978,-56.083C390.261,-48.2195 378.826,-36.5688 369.514,-27.0813"/>
<polygon fill="midnightblue" stroke="midnightblue" points="371.822,-24.4363 362.319,-19.7511 366.826,-29.3396 371.822,-24.4363"/>
</g>
<!-- Node10 -->
<g id="node10" class="node"><title>Node10</title>
<polygon fill="none" stroke="#bfbfbf" points="401.73,-0.5 401.73,-19.5 517.73,-19.5 517.73,-0.5 401.73,-0.5"/>
<text text-anchor="middle" x="459.73" y="-7.5" font-family="Helvetica,sans-Serif" font-size="10.00">Common/Exceptions.h</text>
</g>
<!-- Node8&#45;&gt;Node10 -->
<g id="edge12" class="edge"><title>Node8&#45;&gt;Node10</title>
<path fill="none" stroke="midnightblue" d="M415.482,-56.083C423.2,-48.2195 434.635,-36.5688 443.947,-27.0813"/>
<polygon fill="midnightblue" stroke="midnightblue" points="446.634,-29.3396 451.141,-19.7511 441.639,-24.4363 446.634,-29.3396"/>
</g>
<!-- Node11&#45;&gt;Node4 -->
<g id="edge15" class="edge"><title>Node11&#45;&gt;Node4</title>
<path fill="none" stroke="midnightblue" d="M74.7302,-56.083C74.7302,-49.0059 74.7302,-38.8611 74.7302,-29.9865"/>
<polygon fill="midnightblue" stroke="midnightblue" points="78.2303,-29.751 74.7302,-19.7511 71.2303,-29.7511 78.2303,-29.751"/>
</g>
<!-- Node11&#45;&gt;Node5 -->
<g id="edge16" class="edge"><title>Node11&#45;&gt;Node5</title>
<path fill="none" stroke="midnightblue" d="M86.941,-56.324C98.5061,-48.1066 116.106,-35.6017 129.891,-25.8069"/>
<polygon fill="midnightblue" stroke="midnightblue" points="132.173,-28.4791 138.297,-19.8339 128.118,-22.7729 132.173,-28.4791"/>
</g>
<!-- Node11&#45;&gt;Node7 -->
<g id="edge14" class="edge"><title>Node11&#45;&gt;Node7</title>
<path fill="none" stroke="midnightblue" d="M96.9137,-56.4435C120.159,-47.4776 156.879,-33.314 183.145,-23.1827"/>
<polygon fill="midnightblue" stroke="midnightblue" points="184.58,-26.3807 192.651,-19.5164 182.061,-19.8497 184.58,-26.3807"/>
</g>
<!-- Node13 -->
<g id="node13" class="node"><title>Node13</title>
<polygon fill="none" stroke="#bfbfbf" points="331.73,-112.5 331.73,-131.5 461.73,-131.5 461.73,-112.5 331.73,-112.5"/>
<text text-anchor="middle" x="396.73" y="-119.5" font-family="Helvetica,sans-Serif" font-size="10.00">InfoLogger/InfoLogger.hxx</text>
</g>
<!-- Node12&#45;&gt;Node13 -->
<g id="edge20" class="edge"><title>Node12&#45;&gt;Node13</title>
<path fill="none" stroke="midnightblue" d="M390.051,-168.083C391.111,-160.927 392.636,-150.635 393.961,-141.691"/>
<polygon fill="midnightblue" stroke="midnightblue" points="397.43,-142.156 395.434,-131.751 390.506,-141.13 397.43,-142.156"/>
</g>
</g>
</svg>
