<?xml version="1.0" encoding="UTF-8" standalone="no"?>
<!DOCTYPE svg PUBLIC "-//W3C//DTD SVG 1.1//EN"
 "http://www.w3.org/Graphics/SVG/1.1/DTD/svg11.dtd">
<!-- Generated by graphviz version 2.38.0 (20140413.2041)
 -->
<!-- Title: Framework/include/QualityControl/CheckRunnerFactory.h Pages: 1 -->
<!--zoomable 263 -->
<svg id="main" version="1.1" xmlns="http://www.w3.org/2000/svg" xmlns:xlink="http://www.w3.org/1999/xlink" xml:space="preserve" onload="init(evt)">
<style type="text/css"><![CDATA[
.edge:hover path { stroke: red; }
.edge:hover polygon { stroke: red; fill: red; }
]]></style>
<script type="text/javascript"><![CDATA[
var edges = document.getElementsByTagName('g');
if (edges && edges.length) {
  for (var i=0;i<edges.length;i++) {
    if (edges[i].id.substr(0,4)=='edge') {
      edges[i].setAttribute('class','edge');
    }
  }
}
]]></script>
        <defs>
                <circle id="rim" cx="0" cy="0" r="7"/>
                <circle id="rim2" cx="0" cy="0" r="3.5"/>
                <g id="zoomPlus">
                        <use xlink:href="#rim" fill="#404040">
                                <set attributeName="fill" to="#808080" begin="zoomplus.mouseover" end="zoomplus.mouseout"/>
                        </use>
                        <path d="M-4,0h8M0,-4v8" fill="none" stroke="white" stroke-width="1.5" pointer-events="none"/>
                </g>
                <g id="zoomMin">
                        <use xlink:href="#rim" fill="#404040">
                                <set attributeName="fill" to="#808080" begin="zoomminus.mouseover" end="zoomminus.mouseout"/>
                        </use>
                        <path d="M-4,0h8" fill="none" stroke="white" stroke-width="1.5" pointer-events="none"/>
                </g>
                <g id="dirArrow">
                        <path fill="none" stroke="white" stroke-width="1.5" d="M0,-3.0v7 M-2.5,-0.5L0,-3.0L2.5,-0.5"/>
                </g>
               <g id="resetDef">
                       <use xlink:href="#rim2" fill="#404040">
                               <set attributeName="fill" to="#808080" begin="reset.mouseover" end="reset.mouseout"/>
                       </use>
               </g>
        </defs>

<script type="text/javascript">
var viewWidth = 1236;
var viewHeight = 263;
var sectionId = 'dynsection-0';
</script>
<script xlink:href="svgpan.js"/>
<svg id="graph" class="graph">
<g id="viewport">
<title>Framework/include/QualityControl/CheckRunnerFactory.h</title>
<!-- Node1 -->
<g id="node1" class="node"><title>Node1</title>
<polygon fill="#bfbfbf" stroke="black" points="549,-224.5 549,-254.5 701,-254.5 701,-224.5 549,-224.5"/>
<text text-anchor="start" x="557" y="-242.5" font-family="Helvetica,sans-Serif" font-size="10.00">Framework/include/Quality</text>
<text text-anchor="middle" x="625" y="-231.5" font-family="Helvetica,sans-Serif" font-size="10.00">Control/CheckRunnerFactory.h</text>
</g>
<!-- Node2 -->
<g id="node2" class="node"><title>Node2</title>
<polygon fill="none" stroke="#bfbfbf" points="754.5,-0.5 754.5,-19.5 795.5,-19.5 795.5,-0.5 754.5,-0.5"/>
<text text-anchor="middle" x="775" y="-7.5" font-family="Helvetica,sans-Serif" font-size="10.00">string</text>
</g>
<!-- Node1&#45;&gt;Node2 -->
<g id="edge1" class="edge"><title>Node1&#45;&gt;Node2</title>
<path fill="none" stroke="midnightblue" d="M701.139,-236.269C844.532,-230.291 1146.01,-208.688 1210,-132 1252.21,-81.4126 1217.89,-90.6634 1123,-56 1011.53,-15.2783 868.199,-10.474 806.042,-10.504"/>
<polygon fill="midnightblue" stroke="midnightblue" points="805.73,-7.00543 795.748,-10.555 805.765,-14.0053 805.73,-7.00543"/>
</g>
<!-- Node3 -->
<g id="node3" class="node"><title>Node3</title>
<polygon fill="none" stroke="#bfbfbf" points="0,-112.5 0,-131.5 164,-131.5 164,-112.5 0,-112.5"/>
<text text-anchor="middle" x="82" y="-119.5" font-family="Helvetica,sans-Serif" font-size="10.00">Framework/DataProcessorSpec.h</text>
</g>
<!-- Node1&#45;&gt;Node3 -->
<g id="edge2" class="edge"><title>Node1&#45;&gt;Node3</title>
<path fill="none" stroke="midnightblue" d="M558.96,-224.453C448.951,-201.053 230.559,-154.6 132.147,-133.667"/>
<polygon fill="midnightblue" stroke="midnightblue" points="132.669,-130.199 122.16,-131.542 131.213,-137.046 132.669,-130.199"/>
</g>
<!-- Node4 -->
<g id="node4" class="node"><title>Node4</title>
<polygon fill="none" stroke="#bfbfbf" points="625.5,-168.5 625.5,-187.5 778.5,-187.5 778.5,-168.5 625.5,-168.5"/>
<text text-anchor="middle" x="702" y="-175.5" font-family="Helvetica,sans-Serif" font-size="10.00">Framework/CompletionPolicy.h</text>
</g>
<!-- Node1&#45;&gt;Node4 -->
<g id="edge3" class="edge"><title>Node1&#45;&gt;Node4</title>
<path fill="none" stroke="midnightblue" d="M643.248,-224.399C655.129,-215.218 670.607,-203.258 682.694,-193.918"/>
<polygon fill="midnightblue" stroke="midnightblue" points="685.023,-196.542 690.796,-187.658 680.743,-191.003 685.023,-196.542"/>
</g>
<!-- Node5 -->
<g id="node5" class="node"><title>Node5</title>
<g id="a_node5"><a xlink:href="Check_8h_source.html" target="_top" xlink:title="QualityControl/Check.h">
<polygon fill="none" stroke="black" points="488.5,-168.5 488.5,-187.5 607.5,-187.5 607.5,-168.5 488.5,-168.5"/>
<text text-anchor="middle" x="548" y="-175.5" font-family="Helvetica,sans-Serif" font-size="10.00">QualityControl/Check.h</text>
</a>
</g>
</g>
<!-- Node1&#45;&gt;Node5 -->
<g id="edge4" class="edge"><title>Node1&#45;&gt;Node5</title>
<path fill="none" stroke="midnightblue" d="M606.752,-224.399C594.871,-215.218 579.393,-203.258 567.306,-193.918"/>
<polygon fill="midnightblue" stroke="midnightblue" points="569.257,-191.003 559.204,-187.658 564.977,-196.542 569.257,-191.003"/>
</g>
<!-- Node5&#45;&gt;Node3 -->
<g id="edge10" class="edge"><title>Node5&#45;&gt;Node3</title>
<path fill="none" stroke="midnightblue" d="M488.033,-170.051C406.053,-160.551 258.601,-143.464 165.751,-132.705"/>
<polygon fill="midnightblue" stroke="midnightblue" points="165.882,-129.197 155.546,-131.522 165.076,-136.15 165.882,-129.197"/>
</g>
<!-- Node6 -->
<g id="node6" class="node"><title>Node6</title>
<polygon fill="none" stroke="#bfbfbf" points="1141.5,-112.5 1141.5,-131.5 1200.5,-131.5 1200.5,-112.5 1141.5,-112.5"/>
<text text-anchor="middle" x="1171" y="-119.5" font-family="Helvetica,sans-Serif" font-size="10.00">functional</text>
</g>
<!-- Node5&#45;&gt;Node6 -->
<g id="edge5" class="edge"><title>Node5&#45;&gt;Node6</title>
<path fill="none" stroke="midnightblue" d="M607.68,-168.888C610.491,-168.573 613.275,-168.275 616,-168 841.926,-145.205 903.552,-166.049 1131.3,-132.038"/>
<polygon fill="midnightblue" stroke="midnightblue" points="1131.86,-135.494 1141.22,-130.538 1130.81,-128.573 1131.86,-135.494"/>
</g>
<!-- Node7 -->
<g id="node7" class="node"><title>Node7</title>
<polygon fill="none" stroke="#bfbfbf" points="438.5,-0.5 438.5,-19.5 473.5,-19.5 473.5,-0.5 438.5,-0.5"/>
<text text-anchor="middle" x="456" y="-7.5" font-family="Helvetica,sans-Serif" font-size="10.00">map</text>
</g>
<!-- Node5&#45;&gt;Node7 -->
<g id="edge6" class="edge"><title>Node5&#45;&gt;Node7</title>
<path fill="none" stroke="midnightblue" d="M539.907,-168.267C526.812,-154.585 499.644,-128.011 472,-112 430.762,-88.1159 398.464,-114.945 371,-76 352.548,-49.8343 397.467,-29.439 428.793,-18.9039"/>
<polygon fill="midnightblue" stroke="midnightblue" points="429.93,-22.215 438.388,-15.8351 427.797,-15.5477 429.93,-22.215"/>
</g>
<!-- Node8 -->
<g id="node8" class="node"><title>Node8</title>
<polygon fill="none" stroke="#bfbfbf" points="349,-112.5 349,-131.5 393,-131.5 393,-112.5 349,-112.5"/>
<text text-anchor="middle" x="371" y="-119.5" font-family="Helvetica,sans-Serif" font-size="10.00">vector</text>
</g>
<!-- Node5&#45;&gt;Node8 -->
<g id="edge7" class="edge"><title>Node5&#45;&gt;Node8</title>
<path fill="none" stroke="midnightblue" d="M519.954,-168.444C488.063,-158.714 436.111,-142.864 402.755,-132.688"/>
<polygon fill="midnightblue" stroke="midnightblue" points="403.629,-129.296 393.043,-129.725 401.587,-135.991 403.629,-129.296"/>
</g>
<!-- Node9 -->
<g id="node9" class="node"><title>Node9</title>
<polygon fill="none" stroke="#bfbfbf" points="411,-112.5 411,-131.5 463,-131.5 463,-112.5 411,-112.5"/>
<text text-anchor="middle" x="437" y="-119.5" font-family="Helvetica,sans-Serif" font-size="10.00">memory</text>
</g>
<!-- Node5&#45;&gt;Node9 -->
<g id="edge8" class="edge"><title>Node5&#45;&gt;Node9</title>
<path fill="none" stroke="midnightblue" d="M530.166,-168.324C512.284,-159.625 484.525,-146.12 463.954,-136.113"/>
<polygon fill="midnightblue" stroke="midnightblue" points="465.313,-132.882 454.79,-131.655 462.251,-139.177 465.313,-132.882"/>
</g>
<!-- Node10 -->
<g id="node10" class="node"><title>Node10</title>
<polygon fill="none" stroke="#bfbfbf" points="803.5,-56.5 803.5,-75.5 886.5,-75.5 886.5,-56.5 803.5,-56.5"/>
<text text-anchor="middle" x="845" y="-63.5" font-family="Helvetica,sans-Serif" font-size="10.00">unordered_map</text>
</g>
<!-- Node5&#45;&gt;Node10 -->
<g id="edge9" class="edge"><title>Node5&#45;&gt;Node10</title>
<path fill="none" stroke="midnightblue" d="M601.826,-168.454C655.3,-159.462 733.216,-144.856 761,-132 787.506,-119.735 813.369,-97.7645 829.237,-82.7936"/>
<polygon fill="midnightblue" stroke="midnightblue" points="831.824,-85.1611 836.575,-75.6913 826.955,-80.1313 831.824,-85.1611"/>
</g>
<!-- Node11 -->
<g id="node11" class="node"><title>Node11</title>
<g id="a_node11"><a xlink:href="Quality_8h.html" target="_top" xlink:title="QualityControl/Quality.h">
<polygon fill="none" stroke="black" points="549.5,-56.5 549.5,-75.5 670.5,-75.5 670.5,-56.5 549.5,-56.5"/>
<text text-anchor="middle" x="610" y="-63.5" font-family="Helvetica,sans-Serif" font-size="10.00">QualityControl/Quality.h</text>
</a>
</g>
</g>
<!-- Node5&#45;&gt;Node11 -->
<g id="edge11" class="edge"><title>Node5&#45;&gt;Node11</title>
<path fill="none" stroke="midnightblue" d="M552.865,-168.368C563.052,-150.296 586.791,-108.176 600.245,-84.3074"/>
<polygon fill="midnightblue" stroke="midnightblue" points="603.296,-86.0215 605.158,-75.5914 597.198,-82.5844 603.296,-86.0215"/>
</g>
<!-- Node13 -->
<g id="node13" class="node"><title>Node13</title>
<g id="a_node13"><a xlink:href="QualityObject_8h_source.html" target="_top" xlink:title="QualityControl/QualityObject.h">
<polygon fill="none" stroke="black" points="182.5,-112.5 182.5,-131.5 331.5,-131.5 331.5,-112.5 182.5,-112.5"/>
<text text-anchor="middle" x="257" y="-119.5" font-family="Helvetica,sans-Serif" font-size="10.00">QualityControl/QualityObject.h</text>
</a>
</g>
</g>
<!-- Node5&#45;&gt;Node13 -->
<g id="edge15" class="edge"><title>Node5&#45;&gt;Node13</title>
<path fill="none" stroke="midnightblue" d="M501.89,-168.444C450.594,-158.925 367.727,-143.547 312.809,-133.356"/>
<polygon fill="midnightblue" stroke="midnightblue" points="313.365,-129.9 302.894,-131.516 312.088,-136.782 313.365,-129.9"/>
</g>
<!-- Node16 -->
<g id="node16" class="node"><title>Node16</title>
<g id="a_node16"><a xlink:href="MonitorObject_8h.html" target="_top" xlink:title="QualityControl/MonitorObject.h">
<polygon fill="none" stroke="black" points="380.5,-56.5 380.5,-75.5 531.5,-75.5 531.5,-56.5 380.5,-56.5"/>
<text text-anchor="middle" x="456" y="-63.5" font-family="Helvetica,sans-Serif" font-size="10.00">QualityControl/MonitorObject.h</text>
</a>
</g>
</g>
<!-- Node5&#45;&gt;Node16 -->
<g id="edge20" class="edge"><title>Node5&#45;&gt;Node16</title>
<path fill="none" stroke="midnightblue" d="M543.06,-168.115C535.643,-155.137 520.805,-130.53 505,-112 495.841,-101.261 484.26,-90.5206 474.657,-82.2272"/>
<polygon fill="midnightblue" stroke="midnightblue" points="476.738,-79.4036 466.838,-75.6305 472.224,-84.7539 476.738,-79.4036"/>
</g>
<!-- Node17 -->
<g id="node17" class="node"><title>Node17</title>
<g id="a_node17"><a xlink:href="CheckInterface_8h.html" target="_top" xlink:title="QualityControl/CheckInterface.h">
<polygon fill="none" stroke="black" points="595.5,-112.5 595.5,-131.5 752.5,-131.5 752.5,-112.5 595.5,-112.5"/>
<text text-anchor="middle" x="674" y="-119.5" font-family="Helvetica,sans-Serif" font-size="10.00">QualityControl/CheckInterface.h</text>
</a>
</g>
</g>
<!-- Node5&#45;&gt;Node17 -->
<g id="edge26" class="edge"><title>Node5&#45;&gt;Node17</title>
<path fill="none" stroke="midnightblue" d="M567.965,-168.444C588.609,-159.596 621.063,-145.687 644.632,-135.586"/>
<polygon fill="midnightblue" stroke="midnightblue" points="646.316,-138.673 654.128,-131.516 643.558,-132.239 646.316,-138.673"/>
</g>
<!-- Node18 -->
<g id="node18" class="node"><title>Node18</title>
<g id="a_node18"><a xlink:href="QcInfoLogger_8h.html" target="_top" xlink:title="QualityControl/QcInfoLogger.h">
<polygon fill="none" stroke="black" points="974.5,-112.5 974.5,-131.5 1123.5,-131.5 1123.5,-112.5 974.5,-112.5"/>
<text text-anchor="middle" x="1049" y="-119.5" font-family="Helvetica,sans-Serif" font-size="10.00">QualityControl/QcInfoLogger.h</text>
</a>
</g>
</g>
<!-- Node5&#45;&gt;Node18 -->
<g id="edge33" class="edge"><title>Node5&#45;&gt;Node18</title>
<path fill="none" stroke="midnightblue" d="M607.692,-169C610.499,-168.655 613.28,-168.32 616,-168 767.97,-150.131 808.752,-148.493 963.955,-132.209"/>
<polygon fill="midnightblue" stroke="midnightblue" points="964.767,-135.643 974.345,-131.115 964.034,-128.681 964.767,-135.643"/>
</g>
<!-- Node20 -->
<g id="node20" class="node"><title>Node20</title>
<g id="a_node20"><a xlink:href="CheckConfig_8h.html" target="_top" xlink:title="QualityControl/CheckConfig.h">
<polygon fill="none" stroke="black" points="809.5,-112.5 809.5,-131.5 956.5,-131.5 956.5,-112.5 809.5,-112.5"/>
<text text-anchor="middle" x="883" y="-119.5" font-family="Helvetica,sans-Serif" font-size="10.00">QualityControl/CheckConfig.h</text>
</a>
</g>
</g>
<!-- Node5&#45;&gt;Node20 -->
<g id="edge35" class="edge"><title>Node5&#45;&gt;Node20</title>
<path fill="none" stroke="midnightblue" d="M601.082,-168.444C660.502,-158.865 756.72,-143.356 819.929,-133.167"/>
<polygon fill="midnightblue" stroke="midnightblue" points="820.851,-136.563 830.167,-131.516 819.737,-129.653 820.851,-136.563"/>
</g>
<!-- Node11&#45;&gt;Node2 -->
<g id="edge13" class="edge"><title>Node11&#45;&gt;Node2</title>
<path fill="none" stroke="midnightblue" d="M636.145,-56.4435C665.536,-46.8247 713.205,-31.2238 744.331,-21.0372"/>
<polygon fill="midnightblue" stroke="midnightblue" points="745.787,-24.2435 754.202,-17.8067 743.609,-17.5907 745.787,-24.2435"/>
</g>
<!-- Node11&#45;&gt;Node7 -->
<g id="edge14" class="edge"><title>Node11&#45;&gt;Node7</title>
<path fill="none" stroke="midnightblue" d="M585.598,-56.4435C557.679,-46.6537 512.088,-30.6672 483.09,-20.4991"/>
<polygon fill="midnightblue" stroke="midnightblue" points="484.176,-17.1711 473.581,-17.1649 481.86,-23.7768 484.176,-17.1711"/>
</g>
<!-- Node12 -->
<g id="node12" class="node"><title>Node12</title>
<polygon fill="none" stroke="#bfbfbf" points="582,-0.5 582,-19.5 638,-19.5 638,-0.5 582,-0.5"/>
<text text-anchor="middle" x="610" y="-7.5" font-family="Helvetica,sans-Serif" font-size="10.00">Rtypes.h</text>
</g>
<!-- Node11&#45;&gt;Node12 -->
<g id="edge12" class="edge"><title>Node11&#45;&gt;Node12</title>
<path fill="none" stroke="midnightblue" d="M610,-56.083C610,-49.0059 610,-38.8611 610,-29.9865"/>
<polygon fill="midnightblue" stroke="midnightblue" points="613.5,-29.751 610,-19.7511 606.5,-29.7511 613.5,-29.751"/>
</g>
<!-- Node13&#45;&gt;Node7 -->
<g id="edge16" class="edge"><title>Node13&#45;&gt;Node7</title>
<path fill="none" stroke="midnightblue" d="M265.787,-112.381C279.963,-98.8563 309.214,-72.4928 338,-56 353.826,-46.9324 398.925,-30.6429 428.561,-20.3492"/>
<polygon fill="midnightblue" stroke="midnightblue" points="430.014,-23.5505 438.325,-16.98 427.731,-16.9333 430.014,-23.5505"/>
</g>
<!-- Node13&#45;&gt;Node11 -->
<g id="edge19" class="edge"><title>Node13&#45;&gt;Node11</title>
<path fill="none" stroke="midnightblue" d="M312.934,-112.444C375.805,-102.826 477.772,-87.2275 544.362,-77.0409"/>
<polygon fill="midnightblue" stroke="midnightblue" points="544.972,-80.4884 554.328,-75.5164 543.913,-73.5689 544.972,-80.4884"/>
</g>
<!-- Node14 -->
<g id="node14" class="node"><title>Node14</title>
<polygon fill="none" stroke="#bfbfbf" points="213.5,-0.5 213.5,-19.5 272.5,-19.5 272.5,-0.5 213.5,-0.5"/>
<text text-anchor="middle" x="243" y="-7.5" font-family="Helvetica,sans-Serif" font-size="10.00">TObject.h</text>
</g>
<!-- Node13&#45;&gt;Node14 -->
<g id="edge17" class="edge"><title>Node13&#45;&gt;Node14</title>
<path fill="none" stroke="midnightblue" d="M255.901,-112.368C253.642,-94.617 248.43,-53.6664 245.367,-29.5974"/>
<polygon fill="midnightblue" stroke="midnightblue" points="248.828,-29.0695 244.093,-19.5914 241.884,-29.9533 248.828,-29.0695"/>
</g>
<!-- Node15 -->
<g id="node15" class="node"><title>Node15</title>
<polygon fill="none" stroke="#bfbfbf" points="300,-0.5 300,-19.5 416,-19.5 416,-0.5 300,-0.5"/>
<text text-anchor="middle" x="358" y="-7.5" font-family="Helvetica,sans-Serif" font-size="10.00">Common/Exceptions.h</text>
</g>
<!-- Node13&#45;&gt;Node15 -->
<g id="edge18" class="edge"><title>Node13&#45;&gt;Node15</title>
<path fill="none" stroke="midnightblue" d="M261.504,-112.373C268.586,-99.2922 283.256,-74.0569 300,-56 310.773,-44.3828 324.76,-33.4369 336.299,-25.2498"/>
<polygon fill="midnightblue" stroke="midnightblue" points="338.305,-28.1183 344.552,-19.5614 334.332,-22.3546 338.305,-28.1183"/>
</g>
<!-- Node16&#45;&gt;Node2 -->
<g id="edge21" class="edge"><title>Node16&#45;&gt;Node2</title>
<path fill="none" stroke="midnightblue" d="M506.546,-56.4435C573.416,-45.124 689.225,-25.5199 744.254,-16.2047"/>
<polygon fill="midnightblue" stroke="midnightblue" points="745.141,-19.6044 754.417,-14.4843 743.973,-12.7025 745.141,-19.6044"/>
</g>
<!-- Node16&#45;&gt;Node7 -->
<g id="edge22" class="edge"><title>Node16&#45;&gt;Node7</title>
<path fill="none" stroke="midnightblue" d="M456,-56.083C456,-49.0059 456,-38.8611 456,-29.9865"/>
<polygon fill="midnightblue" stroke="midnightblue" points="459.5,-29.751 456,-19.7511 452.5,-29.7511 459.5,-29.751"/>
</g>
<!-- Node16&#45;&gt;Node12 -->
<g id="edge23" class="edge"><title>Node16&#45;&gt;Node12</title>
<path fill="none" stroke="midnightblue" d="M480.402,-56.4435C506.197,-47.3986 547.077,-33.064 576.018,-22.9158"/>
<polygon fill="midnightblue" stroke="midnightblue" points="577.434,-26.1283 585.712,-19.5164 575.118,-19.5226 577.434,-26.1283"/>
</g>
<!-- Node16&#45;&gt;Node14 -->
<g id="edge24" class="edge"><title>Node16&#45;&gt;Node14</title>
<path fill="none" stroke="midnightblue" d="M422.25,-56.4435C384.292,-46.8205 322.718,-31.2102 282.539,-21.0239"/>
<polygon fill="midnightblue" stroke="midnightblue" points="283.366,-17.6229 272.812,-18.558 281.645,-24.4082 283.366,-17.6229"/>
</g>
<!-- Node16&#45;&gt;Node15 -->
<g id="edge25" class="edge"><title>Node16&#45;&gt;Node15</title>
<path fill="none" stroke="midnightblue" d="M440.255,-56.324C424.681,-47.7428 400.623,-34.486 382.541,-24.5224"/>
<polygon fill="midnightblue" stroke="midnightblue" points="384.154,-21.4152 373.706,-19.6545 380.776,-27.546 384.154,-21.4152"/>
</g>
<!-- Node17&#45;&gt;Node2 -->
<g id="edge27" class="edge"><title>Node17&#45;&gt;Node2</title>
<path fill="none" stroke="midnightblue" d="M686.612,-112.209C698.322,-103.707 715.874,-90.0762 729,-76 742.808,-61.1922 755.872,-42.0538 764.524,-28.3861"/>
<polygon fill="midnightblue" stroke="midnightblue" points="767.711,-29.8872 769.993,-19.5409 761.757,-26.2063 767.711,-29.8872"/>
</g>
<!-- Node17&#45;&gt;Node7 -->
<g id="edge28" class="edge"><title>Node17&#45;&gt;Node7</title>
<path fill="none" stroke="midnightblue" d="M678.094,-112.292C683.836,-98.6446 692.189,-72.1164 679,-56 654.663,-26.261 538.475,-15.7321 484.136,-12.3921"/>
<polygon fill="midnightblue" stroke="midnightblue" points="484.02,-8.87976 473.836,-11.8002 483.619,-15.8682 484.02,-8.87976"/>
</g>
<!-- Node17&#45;&gt;Node10 -->
<g id="edge29" class="edge"><title>Node17&#45;&gt;Node10</title>
<path fill="none" stroke="midnightblue" d="M701.095,-112.444C729.988,-103.32 775.925,-88.8133 808.105,-78.6509"/>
<polygon fill="midnightblue" stroke="midnightblue" points="809.549,-81.8654 818.031,-75.5164 807.441,-75.1903 809.549,-81.8654"/>
</g>
<!-- Node17&#45;&gt;Node11 -->
<g id="edge32" class="edge"><title>Node17&#45;&gt;Node11</title>
<path fill="none" stroke="midnightblue" d="M663.717,-112.324C654.164,-104.263 639.72,-92.0765 628.216,-82.3695"/>
<polygon fill="midnightblue" stroke="midnightblue" points="630.37,-79.6076 620.47,-75.8339 625.856,-84.9577 630.37,-79.6076"/>
</g>
<!-- Node17&#45;&gt;Node12 -->
<g id="edge30" class="edge"><title>Node17&#45;&gt;Node12</title>
<path fill="none" stroke="midnightblue" d="M685.7,-112.456C701.42,-99.904 725.971,-75.8215 713,-56 698.666,-34.0953 671.071,-22.7908 648.05,-16.9919"/>
<polygon fill="midnightblue" stroke="midnightblue" points="648.713,-13.5537 638.188,-14.7628 647.17,-20.3814 648.713,-13.5537"/>
</g>
<!-- Node17&#45;&gt;Node16 -->
<g id="edge31" class="edge"><title>Node17&#45;&gt;Node16</title>
<path fill="none" stroke="midnightblue" d="M639.457,-112.444C601.747,-103.102 541.26,-88.1194 500.135,-77.9326"/>
<polygon fill="midnightblue" stroke="midnightblue" points="500.929,-74.5236 490.381,-75.5164 499.246,-81.3182 500.929,-74.5236"/>
</g>
<!-- Node19 -->
<g id="node19" class="node"><title>Node19</title>
<polygon fill="none" stroke="#bfbfbf" points="984,-56.5 984,-75.5 1114,-75.5 1114,-56.5 984,-56.5"/>
<text text-anchor="middle" x="1049" y="-63.5" font-family="Helvetica,sans-Serif" font-size="10.00">InfoLogger/InfoLogger.hxx</text>
</g>
<!-- Node18&#45;&gt;Node19 -->
<g id="edge34" class="edge"><title>Node18&#45;&gt;Node19</title>
<path fill="none" stroke="midnightblue" d="M1049,-112.083C1049,-105.006 1049,-94.8611 1049,-85.9865"/>
<polygon fill="midnightblue" stroke="midnightblue" points="1052.5,-85.751 1049,-75.7511 1045.5,-85.7511 1052.5,-85.751"/>
</g>
<!-- Node20&#45;&gt;Node2 -->
<g id="edge36" class="edge"><title>Node20&#45;&gt;Node2</title>
<path fill="none" stroke="midnightblue" d="M888.627,-112.158C896.34,-98.7962 907.954,-73.1989 896,-56 875.811,-26.9516 834.521,-16.6168 805.824,-12.9621"/>
<polygon fill="midnightblue" stroke="midnightblue" points="805.827,-9.44266 795.513,-11.8634 805.086,-16.4033 805.827,-9.44266"/>
</g>
<!-- Node20&#45;&gt;Node10 -->
<g id="edge37" class="edge"><title>Node20&#45;&gt;Node10</title>
<path fill="none" stroke="midnightblue" d="M876.725,-112.083C871.358,-104.455 863.482,-93.2645 856.921,-83.9408"/>
<polygon fill="midnightblue" stroke="midnightblue" points="859.775,-81.9149 851.158,-75.7511 854.051,-85.9434 859.775,-81.9149"/>
</g>
</g>
</svg>
        <g id="navigator" transform="translate(0 0)" fill="#404254">
                <rect fill="#f2f5e9" fill-opacity="0.5" stroke="#606060" stroke-width=".5" x="0" y="0" width="60" height="60"/>
                <use id="zoomplus" xlink:href="#zoomPlus" x="17" y="9" onmousedown="handleZoom(evt,'in')"/>
                <use id="zoomminus" xlink:href="#zoomMin" x="42" y="9" onmousedown="handleZoom(evt,'out')"/>
                <use id="reset" xlink:href="#resetDef" x="30" y="36" onmousedown="handleReset()"/>
                <g id="arrowUp" xlink:href="#dirArrow" transform="translate(30 24)" onmousedown="handlePan(0,-1)">
                  <use xlink:href="#rim" fill="#404040">
                        <set attributeName="fill" to="#808080" begin="arrowUp.mouseover" end="arrowUp.mouseout"/>
                  </use>
                  <path fill="none" stroke="white" stroke-width="1.5" d="M0,-3.0v7 M-2.5,-0.5L0,-3.0L2.5,-0.5"/>
                </g>
                <g id="arrowRight" xlink:href="#dirArrow" transform="rotate(90) translate(36 -43)" onmousedown="handlePan(1,0)">
                  <use xlink:href="#rim" fill="#404040">
                        <set attributeName="fill" to="#808080" begin="arrowRight.mouseover" end="arrowRight.mouseout"/>
                  </use>
                  <path fill="none" stroke="white" stroke-width="1.5" d="M0,-3.0v7 M-2.5,-0.5L0,-3.0L2.5,-0.5"/>
                </g>
                <g id="arrowDown" xlink:href="#dirArrow" transform="rotate(180) translate(-30 -48)" onmousedown="handlePan(0,1)">
                  <use xlink:href="#rim" fill="#404040">
                        <set attributeName="fill" to="#808080" begin="arrowDown.mouseover" end="arrowDown.mouseout"/>
                  </use>
                  <path fill="none" stroke="white" stroke-width="1.5" d="M0,-3.0v7 M-2.5,-0.5L0,-3.0L2.5,-0.5"/>
                </g>
                <g id="arrowLeft" xlink:href="#dirArrow" transform="rotate(270) translate(-36 17)" onmousedown="handlePan(-1,0)">
                  <use xlink:href="#rim" fill="#404040">
                        <set attributeName="fill" to="#808080" begin="arrowLeft.mouseover" end="arrowLeft.mouseout"/>
                  </use>
                  <path fill="none" stroke="white" stroke-width="1.5" d="M0,-3.0v7 M-2.5,-0.5L0,-3.0L2.5,-0.5"/>
                </g>
        </g>
        <svg viewBox="0 0 15 15" width="100%" height="30px" preserveAspectRatio="xMaxYMin meet">
         <g id="arrow_out" transform="scale(0.3 0.3)">
          <a xlink:href="CheckRunnerFactory_8h__incl_org.svg" target="_base">
           <rect id="button" ry="5" rx="5" y="6" x="6" height="38" width="38"
                fill="#f2f5e9" fill-opacity="0.5" stroke="#606060" stroke-width="1.0"/>
           <path id="arrow"
             d="M 11.500037,31.436501 C 11.940474,20.09759 22.043105,11.32322 32.158766,21.979434 L 37.068811,17.246167 C 37.068811,17.246167 37.088388,32 37.088388,32 L 22.160133,31.978069 C 22.160133,31.978069 26.997745,27.140456 26.997745,27.140456 C 18.528582,18.264221 13.291696,25.230495 11.500037,31.436501 z"
             style="fill:#404040;"/>
          </a>
         </g>
        </svg>
</svg>
