<?xml version="1.0" encoding="UTF-8" standalone="no"?>
<!DOCTYPE svg PUBLIC "-//W3C//DTD SVG 1.1//EN"
 "http://www.w3.org/Graphics/SVG/1.1/DTD/svg11.dtd">
<!-- Generated by graphviz version 2.38.0 (20140413.2041)
 -->
<!-- Title: Modules/TOF/src/CheckRawToT.cxx Pages: 1 -->
<!--zoomable 263 -->
<svg id="main" version="1.1" xmlns="http://www.w3.org/2000/svg" xmlns:xlink="http://www.w3.org/1999/xlink" xml:space="preserve" onload="init(evt)">
<style type="text/css"><![CDATA[
.edge:hover path { stroke: red; }
.edge:hover polygon { stroke: red; fill: red; }
]]></style>
<script type="text/javascript"><![CDATA[
var edges = document.getElementsByTagName('g');
if (edges && edges.length) {
  for (var i=0;i<edges.length;i++) {
    if (edges[i].id.substr(0,4)=='edge') {
      edges[i].setAttribute('class','edge');
    }
  }
}
]]></script>
        <defs>
                <circle id="rim" cx="0" cy="0" r="7"/>
                <circle id="rim2" cx="0" cy="0" r="3.5"/>
                <g id="zoomPlus">
                        <use xlink:href="#rim" fill="#404040">
                                <set attributeName="fill" to="#808080" begin="zoomplus.mouseover" end="zoomplus.mouseout"/>
                        </use>
                        <path d="M-4,0h8M0,-4v8" fill="none" stroke="white" stroke-width="1.5" pointer-events="none"/>
                </g>
                <g id="zoomMin">
                        <use xlink:href="#rim" fill="#404040">
                                <set attributeName="fill" to="#808080" begin="zoomminus.mouseover" end="zoomminus.mouseout"/>
                        </use>
                        <path d="M-4,0h8" fill="none" stroke="white" stroke-width="1.5" pointer-events="none"/>
                </g>
                <g id="dirArrow">
                        <path fill="none" stroke="white" stroke-width="1.5" d="M0,-3.0v7 M-2.5,-0.5L0,-3.0L2.5,-0.5"/>
                </g>
               <g id="resetDef">
                       <use xlink:href="#rim2" fill="#404040">
                               <set attributeName="fill" to="#808080" begin="reset.mouseover" end="reset.mouseout"/>
                       </use>
               </g>
        </defs>

<script type="text/javascript">
var viewWidth = 746;
var viewHeight = 263;
var sectionId = 'dynsection-0';
</script>
<script xlink:href="svgpan.js"/>
<svg id="graph" class="graph">
<g id="viewport">
<title>Modules/TOF/src/CheckRawToT.cxx</title>
<!-- Node1 -->
<g id="node1" class="node"><title>Node1</title>
<polygon fill="#bfbfbf" stroke="black" points="456.73,-224.5 456.73,-254.5 600.73,-254.5 600.73,-224.5 456.73,-224.5"/>
<text text-anchor="start" x="464.73" y="-242.5" font-family="Helvetica,sans-Serif" font-size="10.00">Modules/TOF/src/CheckRaw</text>
<text text-anchor="middle" x="528.73" y="-231.5" font-family="Helvetica,sans-Serif" font-size="10.00">ToT.cxx</text>
</g>
<!-- Node2 -->
<g id="node2" class="node"><title>Node2</title>
<g id="a_node2"><a xlink:href="CheckRawToT_8h.html" target="_top" xlink:title="Checker for TOF Raw data on ToT. ">
<polygon fill="none" stroke="black" points="153.23,-168.5 153.23,-187.5 266.23,-187.5 266.23,-168.5 153.23,-168.5"/>
<text text-anchor="middle" x="209.73" y="-175.5" font-family="Helvetica,sans-Serif" font-size="10.00">TOF/CheckRawToT.h</text>
</a>
</g>
</g>
<!-- Node1&#45;&gt;Node2 -->
<g id="edge1" class="edge"><title>Node1&#45;&gt;Node2</title>
<path fill="none" stroke="midnightblue" d="M456.344,-224.999C398.491,-214.208 318.582,-199.303 265.59,-189.419"/>
<polygon fill="midnightblue" stroke="midnightblue" points="266.165,-185.966 255.693,-187.573 264.881,-192.847 266.165,-185.966"/>
</g>
<!-- Node12 -->
<g id="node12" class="node"><title>Node12</title>
<g id="a_node12"><a xlink:href="QcInfoLogger_8h.html" target="_top" xlink:title="QualityControl/QcInfoLogger.h">
<polygon fill="none" stroke="black" points="309.23,-168.5 309.23,-187.5 458.23,-187.5 458.23,-168.5 309.23,-168.5"/>
<text text-anchor="middle" x="383.73" y="-175.5" font-family="Helvetica,sans-Serif" font-size="10.00">QualityControl/QcInfoLogger.h</text>
</a>
</g>
</g>
<!-- Node1&#45;&gt;Node12 -->
<g id="edge19" class="edge"><title>Node1&#45;&gt;Node12</title>
<path fill="none" stroke="midnightblue" d="M494.367,-224.399C470.039,-214.416 437.701,-201.147 414.274,-191.534"/>
<polygon fill="midnightblue" stroke="midnightblue" points="415.409,-188.216 404.829,-187.658 412.752,-194.692 415.409,-188.216"/>
</g>
<!-- Node14 -->
<g id="node14" class="node"><title>Node14</title>
<polygon fill="none" stroke="#bfbfbf" points="475.73,-168.5 475.73,-187.5 519.73,-187.5 519.73,-168.5 475.73,-168.5"/>
<text text-anchor="middle" x="497.73" y="-175.5" font-family="Helvetica,sans-Serif" font-size="10.00">TH1.h</text>
</g>
<!-- Node1&#45;&gt;Node14 -->
<g id="edge21" class="edge"><title>Node1&#45;&gt;Node14</title>
<path fill="none" stroke="midnightblue" d="M521.384,-224.399C517.065,-216.11 511.565,-205.554 506.956,-196.708"/>
<polygon fill="midnightblue" stroke="midnightblue" points="509.966,-194.909 502.241,-187.658 503.758,-198.144 509.966,-194.909"/>
</g>
<!-- Node15 -->
<g id="node15" class="node"><title>Node15</title>
<polygon fill="none" stroke="#bfbfbf" points="537.73,-168.5 537.73,-187.5 581.73,-187.5 581.73,-168.5 537.73,-168.5"/>
<text text-anchor="middle" x="559.73" y="-175.5" font-family="Helvetica,sans-Serif" font-size="10.00">TH2.h</text>
</g>
<!-- Node1&#45;&gt;Node15 -->
<g id="edge22" class="edge"><title>Node1&#45;&gt;Node15</title>
<path fill="none" stroke="midnightblue" d="M536.077,-224.399C540.396,-216.11 545.895,-205.554 550.504,-196.708"/>
<polygon fill="midnightblue" stroke="midnightblue" points="553.703,-198.144 555.219,-187.658 547.495,-194.909 553.703,-198.144"/>
</g>
<!-- Node16 -->
<g id="node16" class="node"><title>Node16</title>
<polygon fill="none" stroke="#bfbfbf" points="600.23,-168.5 600.23,-187.5 673.23,-187.5 673.23,-168.5 600.23,-168.5"/>
<text text-anchor="middle" x="636.73" y="-175.5" font-family="Helvetica,sans-Serif" font-size="10.00">TPaveText.h</text>
</g>
<!-- Node1&#45;&gt;Node16 -->
<g id="edge23" class="edge"><title>Node1&#45;&gt;Node16</title>
<path fill="none" stroke="midnightblue" d="M554.325,-224.399C571.798,-214.773 594.819,-202.09 612.086,-192.577"/>
<polygon fill="midnightblue" stroke="midnightblue" points="613.945,-195.549 621.015,-187.658 610.568,-189.418 613.945,-195.549"/>
</g>
<!-- Node17 -->
<g id="node17" class="node"><title>Node17</title>
<polygon fill="none" stroke="#bfbfbf" points="691.23,-168.5 691.23,-187.5 738.23,-187.5 738.23,-168.5 691.23,-168.5"/>
<text text-anchor="middle" x="714.73" y="-175.5" font-family="Helvetica,sans-Serif" font-size="10.00">TList.h</text>
</g>
<!-- Node1&#45;&gt;Node17 -->
<g id="edge24" class="edge"><title>Node1&#45;&gt;Node17</title>
<path fill="none" stroke="midnightblue" d="M572.81,-224.399C606.108,-213.747 651.103,-199.354 681.429,-189.653"/>
<polygon fill="midnightblue" stroke="midnightblue" points="682.655,-192.936 691.113,-186.555 680.522,-186.268 682.655,-192.936"/>
</g>
<!-- Node3 -->
<g id="node3" class="node"><title>Node3</title>
<g id="a_node3"><a xlink:href="CheckInterface_8h.html" target="_top" xlink:title="QualityControl/CheckInterface.h">
<polygon fill="none" stroke="black" points="118.23,-112.5 118.23,-131.5 275.23,-131.5 275.23,-112.5 118.23,-112.5"/>
<text text-anchor="middle" x="196.73" y="-119.5" font-family="Helvetica,sans-Serif" font-size="10.00">QualityControl/CheckInterface.h</text>
</a>
</g>
</g>
<!-- Node2&#45;&gt;Node3 -->
<g id="edge2" class="edge"><title>Node2&#45;&gt;Node3</title>
<path fill="none" stroke="midnightblue" d="M207.584,-168.083C205.861,-160.927 203.383,-150.635 201.23,-141.691"/>
<polygon fill="midnightblue" stroke="midnightblue" points="204.58,-140.654 198.837,-131.751 197.775,-142.293 204.58,-140.654"/>
</g>
<!-- Node8 -->
<g id="node8" class="node"><title>Node8</title>
<g id="a_node8"><a xlink:href="MonitorObject_8h.html" target="_top" xlink:title="QualityControl/MonitorObject.h">
<polygon fill="none" stroke="black" points="331.23,-56.5 331.23,-75.5 482.23,-75.5 482.23,-56.5 331.23,-56.5"/>
<text text-anchor="middle" x="406.73" y="-63.5" font-family="Helvetica,sans-Serif" font-size="10.00">QualityControl/MonitorObject.h</text>
</a>
</g>
</g>
<!-- Node2&#45;&gt;Node8 -->
<g id="edge17" class="edge"><title>Node2&#45;&gt;Node8</title>
<path fill="none" stroke="midnightblue" d="M224.278,-168.444C245.718,-155.878 287.115,-131.777 322.73,-112 342.196,-101.19 364.411,-89.3091 381.105,-80.4706"/>
<polygon fill="midnightblue" stroke="midnightblue" points="383.025,-83.4146 390.233,-75.6494 379.756,-77.2249 383.025,-83.4146"/>
</g>
<!-- Node11 -->
<g id="node11" class="node"><title>Node11</title>
<g id="a_node11"><a xlink:href="Quality_8h.html" target="_top" xlink:title="QualityControl/Quality.h">
<polygon fill="none" stroke="black" points="14.2302,-56.5 14.2302,-75.5 135.23,-75.5 135.23,-56.5 14.2302,-56.5"/>
<text text-anchor="middle" x="74.7302" y="-63.5" font-family="Helvetica,sans-Serif" font-size="10.00">QualityControl/Quality.h</text>
</a>
</g>
</g>
<!-- Node2&#45;&gt;Node11 -->
<g id="edge18" class="edge"><title>Node2&#45;&gt;Node11</title>
<path fill="none" stroke="midnightblue" d="M176.503,-168.387C155.077,-161.455 127.761,-149.872 108.73,-132 95.1184,-119.217 85.9454,-99.7541 80.5919,-85.4564"/>
<polygon fill="midnightblue" stroke="midnightblue" points="83.8043,-84.0361 77.2322,-75.726 77.1876,-86.3207 83.8043,-84.0361"/>
</g>
<!-- Node4 -->
<g id="node4" class="node"><title>Node4</title>
<polygon fill="none" stroke="#bfbfbf" points="54.2302,-0.5 54.2302,-19.5 95.2302,-19.5 95.2302,-0.5 54.2302,-0.5"/>
<text text-anchor="middle" x="74.7302" y="-7.5" font-family="Helvetica,sans-Serif" font-size="10.00">string</text>
</g>
<!-- Node3&#45;&gt;Node4 -->
<g id="edge3" class="edge"><title>Node3&#45;&gt;Node4</title>
<path fill="none" stroke="midnightblue" d="M118.219,-112.481C71.6947,-105.633 19.0863,-94.1098 4.73025,-76 -11.6021,-55.3972 19.1376,-35.3849 44.9127,-23.1326"/>
<polygon fill="midnightblue" stroke="midnightblue" points="46.4186,-26.2929 54.0878,-18.983 43.534,-19.9149 46.4186,-26.2929"/>
</g>
<!-- Node5 -->
<g id="node5" class="node"><title>Node5</title>
<polygon fill="none" stroke="#bfbfbf" points="133.23,-0.5 133.23,-19.5 168.23,-19.5 168.23,-0.5 133.23,-0.5"/>
<text text-anchor="middle" x="150.73" y="-7.5" font-family="Helvetica,sans-Serif" font-size="10.00">map</text>
</g>
<!-- Node3&#45;&gt;Node5 -->
<g id="edge4" class="edge"><title>Node3&#45;&gt;Node5</title>
<path fill="none" stroke="midnightblue" d="M193.121,-112.368C185.63,-94.4563 168.262,-52.9233 158.236,-28.9482"/>
<polygon fill="midnightblue" stroke="midnightblue" points="161.41,-27.4669 154.323,-19.5914 154.952,-30.1676 161.41,-27.4669"/>
</g>
<!-- Node6 -->
<g id="node6" class="node"><title>Node6</title>
<polygon fill="none" stroke="#bfbfbf" points="230.23,-56.5 230.23,-75.5 313.23,-75.5 313.23,-56.5 230.23,-56.5"/>
<text text-anchor="middle" x="271.73" y="-63.5" font-family="Helvetica,sans-Serif" font-size="10.00">unordered_map</text>
</g>
<!-- Node3&#45;&gt;Node6 -->
<g id="edge5" class="edge"><title>Node3&#45;&gt;Node6</title>
<path fill="none" stroke="midnightblue" d="M208.78,-112.324C220.193,-104.107 237.561,-91.6017 251.165,-81.8069"/>
<polygon fill="midnightblue" stroke="midnightblue" points="253.391,-84.5174 259.461,-75.8339 249.301,-78.8366 253.391,-84.5174"/>
</g>
<!-- Node7 -->
<g id="node7" class="node"><title>Node7</title>
<polygon fill="none" stroke="#bfbfbf" points="186.73,-0.5 186.73,-19.5 242.73,-19.5 242.73,-0.5 186.73,-0.5"/>
<text text-anchor="middle" x="214.73" y="-7.5" font-family="Helvetica,sans-Serif" font-size="10.00">Rtypes.h</text>
</g>
<!-- Node3&#45;&gt;Node7 -->
<g id="edge6" class="edge"><title>Node3&#45;&gt;Node7</title>
<path fill="none" stroke="midnightblue" d="M198.143,-112.368C201.047,-94.617 207.748,-53.6664 211.687,-29.5974"/>
<polygon fill="midnightblue" stroke="midnightblue" points="215.163,-30.0254 213.324,-19.5914 208.255,-28.8949 215.163,-30.0254"/>
</g>
<!-- Node3&#45;&gt;Node8 -->
<g id="edge7" class="edge"><title>Node3&#45;&gt;Node8</title>
<path fill="none" stroke="midnightblue" d="M230.005,-112.444C266.179,-103.142 324.107,-88.246 363.711,-78.062"/>
<polygon fill="midnightblue" stroke="midnightblue" points="364.798,-81.3966 373.611,-75.5164 363.054,-74.6172 364.798,-81.3966"/>
</g>
<!-- Node3&#45;&gt;Node11 -->
<g id="edge13" class="edge"><title>Node3&#45;&gt;Node11</title>
<path fill="none" stroke="midnightblue" d="M177.399,-112.444C157.41,-103.596 125.987,-89.6875 103.166,-79.5865"/>
<polygon fill="midnightblue" stroke="midnightblue" points="104.532,-76.3635 93.9711,-75.5164 101.699,-82.7645 104.532,-76.3635"/>
</g>
<!-- Node8&#45;&gt;Node4 -->
<g id="edge8" class="edge"><title>Node8&#45;&gt;Node4</title>
<path fill="none" stroke="midnightblue" d="M350.554,-56.4731C293.403,-47.7031 202.309,-33.4618 123.73,-20 117.976,-19.0142 111.849,-17.9225 105.947,-16.8494"/>
<polygon fill="midnightblue" stroke="midnightblue" points="106.162,-13.3303 95.6939,-14.9645 104.896,-20.2149 106.162,-13.3303"/>
</g>
<!-- Node8&#45;&gt;Node5 -->
<g id="edge9" class="edge"><title>Node8&#45;&gt;Node5</title>
<path fill="none" stroke="midnightblue" d="M353.078,-56.4527C308.668,-48.9276 243.798,-36.902 178.421,-19.8919"/>
<polygon fill="midnightblue" stroke="midnightblue" points="178.914,-16.402 168.352,-17.2328 177.127,-23.17 178.914,-16.402"/>
</g>
<!-- Node8&#45;&gt;Node7 -->
<g id="edge10" class="edge"><title>Node8&#45;&gt;Node7</title>
<path fill="none" stroke="midnightblue" d="M376.307,-56.4435C342.769,-47.0108 288.776,-31.8252 252.542,-21.6345"/>
<polygon fill="midnightblue" stroke="midnightblue" points="253.399,-18.2398 242.825,-18.9015 251.503,-24.9783 253.399,-18.2398"/>
</g>
<!-- Node9 -->
<g id="node9" class="node"><title>Node9</title>
<polygon fill="none" stroke="#bfbfbf" points="324.23,-0.5 324.23,-19.5 383.23,-19.5 383.23,-0.5 324.23,-0.5"/>
<text text-anchor="middle" x="353.73" y="-7.5" font-family="Helvetica,sans-Serif" font-size="10.00">TObject.h</text>
</g>
<!-- Node8&#45;&gt;Node9 -->
<g id="edge11" class="edge"><title>Node8&#45;&gt;Node9</title>
<path fill="none" stroke="midnightblue" d="M397.978,-56.083C390.261,-48.2195 378.826,-36.5688 369.514,-27.0813"/>
<polygon fill="midnightblue" stroke="midnightblue" points="371.822,-24.4363 362.319,-19.7511 366.826,-29.3396 371.822,-24.4363"/>
</g>
<!-- Node10 -->
<g id="node10" class="node"><title>Node10</title>
<polygon fill="none" stroke="#bfbfbf" points="401.73,-0.5 401.73,-19.5 517.73,-19.5 517.73,-0.5 401.73,-0.5"/>
<text text-anchor="middle" x="459.73" y="-7.5" font-family="Helvetica,sans-Serif" font-size="10.00">Common/Exceptions.h</text>
</g>
<!-- Node8&#45;&gt;Node10 -->
<g id="edge12" class="edge"><title>Node8&#45;&gt;Node10</title>
<path fill="none" stroke="midnightblue" d="M415.482,-56.083C423.2,-48.2195 434.635,-36.5688 443.947,-27.0813"/>
<polygon fill="midnightblue" stroke="midnightblue" points="446.634,-29.3396 451.141,-19.7511 441.639,-24.4363 446.634,-29.3396"/>
</g>
<!-- Node11&#45;&gt;Node4 -->
<g id="edge15" class="edge"><title>Node11&#45;&gt;Node4</title>
<path fill="none" stroke="midnightblue" d="M74.7302,-56.083C74.7302,-49.0059 74.7302,-38.8611 74.7302,-29.9865"/>
<polygon fill="midnightblue" stroke="midnightblue" points="78.2303,-29.751 74.7302,-19.7511 71.2303,-29.7511 78.2303,-29.751"/>
</g>
<!-- Node11&#45;&gt;Node5 -->
<g id="edge16" class="edge"><title>Node11&#45;&gt;Node5</title>
<path fill="none" stroke="midnightblue" d="M86.941,-56.324C98.5061,-48.1066 116.106,-35.6017 129.891,-25.8069"/>
<polygon fill="midnightblue" stroke="midnightblue" points="132.173,-28.4791 138.297,-19.8339 128.118,-22.7729 132.173,-28.4791"/>
</g>
<!-- Node11&#45;&gt;Node7 -->
<g id="edge14" class="edge"><title>Node11&#45;&gt;Node7</title>
<path fill="none" stroke="midnightblue" d="M96.9137,-56.4435C120.159,-47.4776 156.879,-33.314 183.145,-23.1827"/>
<polygon fill="midnightblue" stroke="midnightblue" points="184.58,-26.3807 192.651,-19.5164 182.061,-19.8497 184.58,-26.3807"/>
</g>
<!-- Node13 -->
<g id="node13" class="node"><title>Node13</title>
<polygon fill="none" stroke="#bfbfbf" points="331.73,-112.5 331.73,-131.5 461.73,-131.5 461.73,-112.5 331.73,-112.5"/>
<text text-anchor="middle" x="396.73" y="-119.5" font-family="Helvetica,sans-Serif" font-size="10.00">InfoLogger/InfoLogger.hxx</text>
</g>
<!-- Node12&#45;&gt;Node13 -->
<g id="edge20" class="edge"><title>Node12&#45;&gt;Node13</title>
<path fill="none" stroke="midnightblue" d="M385.877,-168.083C387.6,-160.927 390.077,-150.635 392.231,-141.691"/>
<polygon fill="midnightblue" stroke="midnightblue" points="395.686,-142.293 394.624,-131.751 388.88,-140.654 395.686,-142.293"/>
</g>
</g>
</svg>
        <g id="navigator" transform="translate(0 0)" fill="#404254">
                <rect fill="#f2f5e9" fill-opacity="0.5" stroke="#606060" stroke-width=".5" x="0" y="0" width="60" height="60"/>
                <use id="zoomplus" xlink:href="#zoomPlus" x="17" y="9" onmousedown="handleZoom(evt,'in')"/>
                <use id="zoomminus" xlink:href="#zoomMin" x="42" y="9" onmousedown="handleZoom(evt,'out')"/>
                <use id="reset" xlink:href="#resetDef" x="30" y="36" onmousedown="handleReset()"/>
                <g id="arrowUp" xlink:href="#dirArrow" transform="translate(30 24)" onmousedown="handlePan(0,-1)">
                  <use xlink:href="#rim" fill="#404040">
                        <set attributeName="fill" to="#808080" begin="arrowUp.mouseover" end="arrowUp.mouseout"/>
                  </use>
                  <path fill="none" stroke="white" stroke-width="1.5" d="M0,-3.0v7 M-2.5,-0.5L0,-3.0L2.5,-0.5"/>
                </g>
                <g id="arrowRight" xlink:href="#dirArrow" transform="rotate(90) translate(36 -43)" onmousedown="handlePan(1,0)">
                  <use xlink:href="#rim" fill="#404040">
                        <set attributeName="fill" to="#808080" begin="arrowRight.mouseover" end="arrowRight.mouseout"/>
                  </use>
                  <path fill="none" stroke="white" stroke-width="1.5" d="M0,-3.0v7 M-2.5,-0.5L0,-3.0L2.5,-0.5"/>
                </g>
                <g id="arrowDown" xlink:href="#dirArrow" transform="rotate(180) translate(-30 -48)" onmousedown="handlePan(0,1)">
                  <use xlink:href="#rim" fill="#404040">
                        <set attributeName="fill" to="#808080" begin="arrowDown.mouseover" end="arrowDown.mouseout"/>
                  </use>
                  <path fill="none" stroke="white" stroke-width="1.5" d="M0,-3.0v7 M-2.5,-0.5L0,-3.0L2.5,-0.5"/>
                </g>
                <g id="arrowLeft" xlink:href="#dirArrow" transform="rotate(270) translate(-36 17)" onmousedown="handlePan(-1,0)">
                  <use xlink:href="#rim" fill="#404040">
                        <set attributeName="fill" to="#808080" begin="arrowLeft.mouseover" end="arrowLeft.mouseout"/>
                  </use>
                  <path fill="none" stroke="white" stroke-width="1.5" d="M0,-3.0v7 M-2.5,-0.5L0,-3.0L2.5,-0.5"/>
                </g>
        </g>
        <svg viewBox="0 0 15 15" width="100%" height="30px" preserveAspectRatio="xMaxYMin meet">
         <g id="arrow_out" transform="scale(0.3 0.3)">
          <a xlink:href="CheckRawToT_8cxx__incl_org.svg" target="_base">
           <rect id="button" ry="5" rx="5" y="6" x="6" height="38" width="38"
                fill="#f2f5e9" fill-opacity="0.5" stroke="#606060" stroke-width="1.0"/>
           <path id="arrow"
             d="M 11.500037,31.436501 C 11.940474,20.09759 22.043105,11.32322 32.158766,21.979434 L 37.068811,17.246167 C 37.068811,17.246167 37.088388,32 37.088388,32 L 22.160133,31.978069 C 22.160133,31.978069 26.997745,27.140456 26.997745,27.140456 C 18.528582,18.264221 13.291696,25.230495 11.500037,31.436501 z"
             style="fill:#404040;"/>
          </a>
         </g>
        </svg>
</svg>
