<?xml version="1.0" encoding="UTF-8" standalone="no"?>
<!DOCTYPE svg PUBLIC "-//W3C//DTD SVG 1.1//EN"
 "http://www.w3.org/Graphics/SVG/1.1/DTD/svg11.dtd">
<!-- Generated by graphviz version 2.38.0 (20140413.2041)
 -->
<!-- Title: Framework/include/QualityControl/CheckInterface.h Pages: 1 -->
<svg width="491pt" height="151pt"
 viewBox="0.00 0.00 491.21 151.00" xmlns="http://www.w3.org/2000/svg" xmlns:xlink="http://www.w3.org/1999/xlink">
<g id="graph0" class="graph" transform="scale(1 1) rotate(0) translate(4 147)">
<title>Framework/include/QualityControl/CheckInterface.h</title>
<!-- Node1 -->
<g id="node1" class="node"><title>Node1</title>
<polygon fill="#bfbfbf" stroke="black" points="149.207,-112.5 149.207,-142.5 282.207,-142.5 282.207,-112.5 149.207,-112.5"/>
<text text-anchor="start" x="157.207" y="-130.5" font-family="Helvetica,sans-Serif" font-size="10.00">Framework/include/Quality</text>
<text text-anchor="middle" x="215.707" y="-119.5" font-family="Helvetica,sans-Serif" font-size="10.00">Control/CheckInterface.h</text>
</g>
<!-- Node2 -->
<g id="node2" class="node"><title>Node2</title>
<polygon fill="none" stroke="#bfbfbf" points="54.207,-0.5 54.207,-19.5 95.207,-19.5 95.207,-0.5 54.207,-0.5"/>
<text text-anchor="middle" x="74.707" y="-7.5" font-family="Helvetica,sans-Serif" font-size="10.00">string</text>
</g>
<!-- Node1&#45;&gt;Node2 -->
<g id="edge1" class="edge"><title>Node1&#45;&gt;Node2</title>
<path fill="none" stroke="midnightblue" d="M149.12,-119.504C94.2013,-112.198 22.5249,-98.5856 4.70704,-76 -11.5769,-55.3589 19.1513,-35.3557 44.9105,-23.1159"/>
<polygon fill="midnightblue" stroke="midnightblue" points="46.4092,-26.2795 54.0797,-18.971 43.5257,-19.901 46.4092,-26.2795"/>
</g>
<!-- Node3 -->
<g id="node3" class="node"><title>Node3</title>
<polygon fill="none" stroke="#bfbfbf" points="129.207,-0.5 129.207,-19.5 164.207,-19.5 164.207,-0.5 129.207,-0.5"/>
<text text-anchor="middle" x="146.707" y="-7.5" font-family="Helvetica,sans-Serif" font-size="10.00">map</text>
</g>
<!-- Node1&#45;&gt;Node3 -->
<g id="edge2" class="edge"><title>Node1&#45;&gt;Node3</title>
<path fill="none" stroke="midnightblue" d="M205.891,-112.094C199.173,-102.087 190.166,-88.3795 182.707,-76 173.157,-60.1515 163.007,-41.6569 155.928,-28.4568"/>
<polygon fill="midnightblue" stroke="midnightblue" points="158.962,-26.7085 151.173,-19.5263 152.783,-29.9981 158.962,-26.7085"/>
</g>
<!-- Node4 -->
<g id="node4" class="node"><title>Node4</title>
<polygon fill="none" stroke="#bfbfbf" points="400.207,-56.5 400.207,-75.5 483.207,-75.5 483.207,-56.5 400.207,-56.5"/>
<text text-anchor="middle" x="441.707" y="-63.5" font-family="Helvetica,sans-Serif" font-size="10.00">unordered_map</text>
</g>
<!-- Node1&#45;&gt;Node4 -->
<g id="edge3" class="edge"><title>Node1&#45;&gt;Node4</title>
<path fill="none" stroke="midnightblue" d="M268.98,-112.475C308.821,-101.986 362.562,-87.8367 399.462,-78.1221"/>
<polygon fill="midnightblue" stroke="midnightblue" points="400.618,-81.4371 409.397,-75.5064 398.836,-74.6678 400.618,-81.4371"/>
</g>
<!-- Node5 -->
<g id="node5" class="node"><title>Node5</title>
<polygon fill="none" stroke="#bfbfbf" points="182.707,-0.5 182.707,-19.5 238.707,-19.5 238.707,-0.5 182.707,-0.5"/>
<text text-anchor="middle" x="210.707" y="-7.5" font-family="Helvetica,sans-Serif" font-size="10.00">Rtypes.h</text>
</g>
<!-- Node1&#45;&gt;Node5 -->
<g id="edge4" class="edge"><title>Node1&#45;&gt;Node5</title>
<path fill="none" stroke="midnightblue" d="M282.607,-115.899C327.48,-105.748 374.534,-87.2459 351.707,-56 345.432,-47.4108 288.284,-31.106 248.699,-20.6603"/>
<polygon fill="midnightblue" stroke="midnightblue" points="249.366,-17.2172 238.806,-18.0746 247.596,-23.9897 249.366,-17.2172"/>
</g>
<!-- Node6 -->
<g id="node6" class="node"><title>Node6</title>
<g id="a_node6"><a xlink:href="MonitorObject_8h.html" target="_top" xlink:title="QualityControl/MonitorObject.h">
<polygon fill="none" stroke="black" points="192.207,-56.5 192.207,-75.5 343.207,-75.5 343.207,-56.5 192.207,-56.5"/>
<text text-anchor="middle" x="267.707" y="-63.5" font-family="Helvetica,sans-Serif" font-size="10.00">QualityControl/MonitorObject.h</text>
</a>
</g>
</g>
<!-- Node1&#45;&gt;Node6 -->
<g id="edge5" class="edge"><title>Node1&#45;&gt;Node6</title>
<path fill="none" stroke="midnightblue" d="M228.03,-112.399C235.664,-103.664 245.498,-92.4126 253.465,-83.2962"/>
<polygon fill="midnightblue" stroke="midnightblue" points="256.195,-85.4907 260.141,-75.6578 250.925,-80.8843 256.195,-85.4907"/>
</g>
<!-- Node9 -->
<g id="node9" class="node"><title>Node9</title>
<g id="a_node9"><a xlink:href="Quality_8h.html" target="_top" xlink:title="QualityControl/Quality.h">
<polygon fill="none" stroke="black" points="14.207,-56.5 14.207,-75.5 135.207,-75.5 135.207,-56.5 14.207,-56.5"/>
<text text-anchor="middle" x="74.707" y="-63.5" font-family="Helvetica,sans-Serif" font-size="10.00">QualityControl/Quality.h</text>
</a>
</g>
</g>
<!-- Node1&#45;&gt;Node9 -->
<g id="edge11" class="edge"><title>Node1&#45;&gt;Node9</title>
<path fill="none" stroke="midnightblue" d="M182.292,-112.399C158.74,-102.461 127.469,-89.2649 104.714,-79.6625"/>
<polygon fill="midnightblue" stroke="midnightblue" points="105.798,-76.3211 95.2238,-75.6578 103.076,-82.7704 105.798,-76.3211"/>
</g>
<!-- Node6&#45;&gt;Node2 -->
<g id="edge6" class="edge"><title>Node6&#45;&gt;Node2</title>
<path fill="none" stroke="midnightblue" d="M237.126,-56.4435C201.041,-46.3474 141.402,-29.6606 105.308,-19.562"/>
<polygon fill="midnightblue" stroke="midnightblue" points="105.927,-16.1007 95.3536,-16.7767 104.041,-22.8418 105.927,-16.1007"/>
</g>
<!-- Node6&#45;&gt;Node3 -->
<g id="edge7" class="edge"><title>Node6&#45;&gt;Node3</title>
<path fill="none" stroke="midnightblue" d="M248.534,-56.4435C228.334,-47.4283 196.358,-33.1583 173.632,-23.0161"/>
<polygon fill="midnightblue" stroke="midnightblue" points="174.777,-19.6944 164.219,-18.8151 171.924,-26.0867 174.777,-19.6944"/>
</g>
<!-- Node6&#45;&gt;Node5 -->
<g id="edge8" class="edge"><title>Node6&#45;&gt;Node5</title>
<path fill="none" stroke="midnightblue" d="M258.549,-56.324C250.206,-48.4196 237.675,-36.5482 227.53,-26.9377"/>
<polygon fill="midnightblue" stroke="midnightblue" points="229.698,-24.1705 220.032,-19.8339 224.884,-29.2522 229.698,-24.1705"/>
</g>
<!-- Node7 -->
<g id="node7" class="node"><title>Node7</title>
<polygon fill="none" stroke="#bfbfbf" points="391.207,-0.5 391.207,-19.5 450.207,-19.5 450.207,-0.5 391.207,-0.5"/>
<text text-anchor="middle" x="420.707" y="-7.5" font-family="Helvetica,sans-Serif" font-size="10.00">TObject.h</text>
</g>
<!-- Node6&#45;&gt;Node7 -->
<g id="edge9" class="edge"><title>Node6&#45;&gt;Node7</title>
<path fill="none" stroke="midnightblue" d="M291.95,-56.4435C317.578,-47.3986 358.192,-33.064 386.945,-22.9158"/>
<polygon fill="midnightblue" stroke="midnightblue" points="388.312,-26.1452 396.577,-19.5164 385.982,-19.5442 388.312,-26.1452"/>
</g>
<!-- Node8 -->
<g id="node8" class="node"><title>Node8</title>
<polygon fill="none" stroke="#bfbfbf" points="256.707,-0.5 256.707,-19.5 372.707,-19.5 372.707,-0.5 256.707,-0.5"/>
<text text-anchor="middle" x="314.707" y="-7.5" font-family="Helvetica,sans-Serif" font-size="10.00">Common/Exceptions.h</text>
</g>
<!-- Node6&#45;&gt;Node8 -->
<g id="edge10" class="edge"><title>Node6&#45;&gt;Node8</title>
<path fill="none" stroke="midnightblue" d="M275.468,-56.083C282.244,-48.2982 292.25,-36.8015 300.462,-27.3665"/>
<polygon fill="midnightblue" stroke="midnightblue" points="303.165,-29.592 307.09,-19.7511 297.885,-24.9963 303.165,-29.592"/>
</g>
<!-- Node9&#45;&gt;Node2 -->
<g id="edge13" class="edge"><title>Node9&#45;&gt;Node2</title>
<path fill="none" stroke="midnightblue" d="M74.707,-56.083C74.707,-49.0059 74.707,-38.8611 74.707,-29.9865"/>
<polygon fill="midnightblue" stroke="midnightblue" points="78.2071,-29.751 74.707,-19.7511 71.2071,-29.7511 78.2071,-29.751"/>
</g>
<!-- Node9&#45;&gt;Node3 -->
<g id="edge14" class="edge"><title>Node9&#45;&gt;Node3</title>
<path fill="none" stroke="midnightblue" d="M86.2751,-56.324C97.1272,-48.1849 113.588,-35.8395 126.59,-26.0874"/>
<polygon fill="midnightblue" stroke="midnightblue" points="129.029,-28.6339 134.929,-19.8339 124.828,-23.0339 129.029,-28.6339"/>
</g>
<!-- Node9&#45;&gt;Node5 -->
<g id="edge12" class="edge"><title>Node9&#45;&gt;Node5</title>
<path fill="none" stroke="midnightblue" d="M96.2566,-56.4435C118.738,-47.5171 154.195,-33.4387 179.687,-23.3168"/>
<polygon fill="midnightblue" stroke="midnightblue" points="181.256,-26.4598 189.258,-19.5164 178.672,-19.9539 181.256,-26.4598"/>
</g>
</g>
</svg>
