<?xml version="1.0" encoding="UTF-8" standalone="no"?>
<!DOCTYPE svg PUBLIC "-//W3C//DTD SVG 1.1//EN"
 "http://www.w3.org/Graphics/SVG/1.1/DTD/svg11.dtd">
<!-- Generated by graphviz version 2.38.0 (20140413.2041)
 -->
<!-- Title: Framework/include/QualityControl/CheckRunner.h Pages: 1 -->
<!--zoomable 274 -->
<svg id="main" version="1.1" xmlns="http://www.w3.org/2000/svg" xmlns:xlink="http://www.w3.org/1999/xlink" xml:space="preserve" onload="init(evt)">
<style type="text/css"><![CDATA[
.edge:hover path { stroke: red; }
.edge:hover polygon { stroke: red; fill: red; }
]]></style>
<script type="text/javascript"><![CDATA[
var edges = document.getElementsByTagName('g');
if (edges && edges.length) {
  for (var i=0;i<edges.length;i++) {
    if (edges[i].id.substr(0,4)=='edge') {
      edges[i].setAttribute('class','edge');
    }
  }
}
]]></script>
        <defs>
                <circle id="rim" cx="0" cy="0" r="7"/>
                <circle id="rim2" cx="0" cy="0" r="3.5"/>
                <g id="zoomPlus">
                        <use xlink:href="#rim" fill="#404040">
                                <set attributeName="fill" to="#808080" begin="zoomplus.mouseover" end="zoomplus.mouseout"/>
                        </use>
                        <path d="M-4,0h8M0,-4v8" fill="none" stroke="white" stroke-width="1.5" pointer-events="none"/>
                </g>
                <g id="zoomMin">
                        <use xlink:href="#rim" fill="#404040">
                                <set attributeName="fill" to="#808080" begin="zoomminus.mouseover" end="zoomminus.mouseout"/>
                        </use>
                        <path d="M-4,0h8" fill="none" stroke="white" stroke-width="1.5" pointer-events="none"/>
                </g>
                <g id="dirArrow">
                        <path fill="none" stroke="white" stroke-width="1.5" d="M0,-3.0v7 M-2.5,-0.5L0,-3.0L2.5,-0.5"/>
                </g>
               <g id="resetDef">
                       <use xlink:href="#rim2" fill="#404040">
                               <set attributeName="fill" to="#808080" begin="reset.mouseover" end="reset.mouseout"/>
                       </use>
               </g>
        </defs>

<script type="text/javascript">
var viewWidth = 1674;
var viewHeight = 274;
var sectionId = 'dynsection-0';
</script>
<script xlink:href="svgpan.js"/>
<svg id="graph" class="graph">
<g id="viewport">
<title>Framework/include/QualityControl/CheckRunner.h</title>
<!-- Node1 -->
<g id="node1" class="node"><title>Node1</title>
<polygon fill="#bfbfbf" stroke="black" points="733.5,-235.5 733.5,-265.5 866.5,-265.5 866.5,-235.5 733.5,-235.5"/>
<text text-anchor="start" x="741.5" y="-253.5" font-family="Helvetica,sans-Serif" font-size="10.00">Framework/include/Quality</text>
<text text-anchor="middle" x="800" y="-242.5" font-family="Helvetica,sans-Serif" font-size="10.00">Control/CheckRunner.h</text>
</g>
<!-- Node2 -->
<g id="node2" class="node"><title>Node2</title>
<polygon fill="none" stroke="#bfbfbf" points="0,-174 0,-193 46,-193 46,-174 0,-174"/>
<text text-anchor="middle" x="23" y="-181" font-family="Helvetica,sans-Serif" font-size="10.00">chrono</text>
</g>
<!-- Node1&#45;&gt;Node2 -->
<g id="edge1" class="edge"><title>Node1&#45;&gt;Node2</title>
<path fill="none" stroke="midnightblue" d="M733.219,-247.547C576.194,-242.534 187.215,-227.557 60,-199 57.0002,-198.327 53.9236,-197.448 50.8878,-196.457"/>
<polygon fill="midnightblue" stroke="midnightblue" points="52.0677,-193.162 41.4738,-193.016 49.6648,-199.736 52.0677,-193.162"/>
</g>
<!-- Node3 -->
<g id="node3" class="node"><title>Node3</title>
<polygon fill="none" stroke="#bfbfbf" points="430,-112.5 430,-131.5 482,-131.5 482,-112.5 430,-112.5"/>
<text text-anchor="middle" x="456" y="-119.5" font-family="Helvetica,sans-Serif" font-size="10.00">memory</text>
</g>
<!-- Node1&#45;&gt;Node3 -->
<g id="edge2" class="edge"><title>Node1&#45;&gt;Node3</title>
<path fill="none" stroke="midnightblue" d="M733.375,-241.488C690.241,-234.439 633.789,-221.633 588,-199 568.461,-189.342 568.404,-179.677 550,-168 529.965,-155.288 505.789,-143.791 486.973,-135.6"/>
<polygon fill="midnightblue" stroke="midnightblue" points="488.243,-132.337 477.672,-131.629 485.494,-138.775 488.243,-132.337"/>
</g>
<!-- Node4 -->
<g id="node4" class="node"><title>Node4</title>
<polygon fill="none" stroke="#bfbfbf" points="301.5,-0.5 301.5,-19.5 342.5,-19.5 342.5,-0.5 301.5,-0.5"/>
<text text-anchor="middle" x="322" y="-7.5" font-family="Helvetica,sans-Serif" font-size="10.00">string</text>
</g>
<!-- Node1&#45;&gt;Node4 -->
<g id="edge3" class="edge"><title>Node1&#45;&gt;Node4</title>
<path fill="none" stroke="midnightblue" d="M733.374,-250.055C603.648,-250.082 322.553,-244.676 239,-199 181.298,-167.456 157.153,-105.01 201,-56 224.189,-30.0804 263.724,-19.0493 291.269,-14.3807"/>
<polygon fill="midnightblue" stroke="midnightblue" points="291.813,-17.8382 301.179,-12.8852 290.769,-10.9166 291.813,-17.8382"/>
</g>
<!-- Node5 -->
<g id="node5" class="node"><title>Node5</title>
<polygon fill="none" stroke="#bfbfbf" points="824.5,-0.5 824.5,-19.5 859.5,-19.5 859.5,-0.5 824.5,-0.5"/>
<text text-anchor="middle" x="842" y="-7.5" font-family="Helvetica,sans-Serif" font-size="10.00">map</text>
</g>
<!-- Node1&#45;&gt;Node5 -->
<g id="edge4" class="edge"><title>Node1&#45;&gt;Node5</title>
<path fill="none" stroke="midnightblue" d="M807.064,-235.33C817.924,-214.163 838.842,-175.919 852,-168 937.003,-116.838 1229.73,-204.927 1297,-132 1358.01,-65.8522 977.467,-23.9787 869.803,-13.5578"/>
<polygon fill="midnightblue" stroke="midnightblue" points="869.992,-10.06 859.705,-12.5957 869.328,-17.0285 869.992,-10.06"/>
</g>
<!-- Node6 -->
<g id="node6" class="node"><title>Node6</title>
<polygon fill="none" stroke="#bfbfbf" points="500,-112.5 500,-131.5 544,-131.5 544,-112.5 500,-112.5"/>
<text text-anchor="middle" x="522" y="-119.5" font-family="Helvetica,sans-Serif" font-size="10.00">vector</text>
</g>
<!-- Node1&#45;&gt;Node6 -->
<g id="edge5" class="edge"><title>Node1&#45;&gt;Node6</title>
<path fill="none" stroke="midnightblue" d="M744.959,-235.445C714.245,-226.708 675.701,-214.236 643,-199 623.014,-189.688 572.442,-156.664 543.397,-137.348"/>
<polygon fill="midnightblue" stroke="midnightblue" points="545.05,-134.243 534.789,-131.605 541.166,-140.067 545.05,-134.243"/>
</g>
<!-- Node7 -->
<g id="node7" class="node"><title>Node7</title>
<polygon fill="none" stroke="#bfbfbf" points="904,-174 904,-193 982,-193 982,-174 904,-174"/>
<text text-anchor="middle" x="943" y="-181" font-family="Helvetica,sans-Serif" font-size="10.00">unordered_set</text>
</g>
<!-- Node1&#45;&gt;Node7 -->
<g id="edge6" class="edge"><title>Node1&#45;&gt;Node7</title>
<path fill="none" stroke="midnightblue" d="M831.029,-235.396C856.009,-224.041 890.816,-208.22 914.964,-197.244"/>
<polygon fill="midnightblue" stroke="midnightblue" points="916.629,-200.331 924.285,-193.007 913.733,-193.959 916.629,-200.331"/>
</g>
<!-- Node8 -->
<g id="node8" class="node"><title>Node8</title>
<polygon fill="none" stroke="#bfbfbf" points="1000,-174 1000,-193 1092,-193 1092,-174 1000,-174"/>
<text text-anchor="middle" x="1046" y="-181" font-family="Helvetica,sans-Serif" font-size="10.00">Common/Timer.h</text>
</g>
<!-- Node1&#45;&gt;Node8 -->
<g id="edge7" class="edge"><title>Node1&#45;&gt;Node8</title>
<path fill="none" stroke="midnightblue" d="M853.075,-235.476C898.224,-223.547 962.193,-206.644 1003.89,-195.628"/>
<polygon fill="midnightblue" stroke="midnightblue" points="1004.95,-198.967 1013.72,-193.029 1003.16,-192.199 1004.95,-198.967"/>
</g>
<!-- Node9 -->
<g id="node9" class="node"><title>Node9</title>
<polygon fill="none" stroke="#bfbfbf" points="1110,-174 1110,-193 1208,-193 1208,-174 1110,-174"/>
<text text-anchor="middle" x="1159" y="-181" font-family="Helvetica,sans-Serif" font-size="10.00">Framework/Task.h</text>
</g>
<!-- Node1&#45;&gt;Node9 -->
<g id="edge8" class="edge"><title>Node1&#45;&gt;Node9</title>
<path fill="none" stroke="midnightblue" d="M866.636,-239.861C927.817,-230.647 1020.86,-215.713 1101,-199 1106.14,-197.928 1111.51,-196.714 1116.82,-195.455"/>
<polygon fill="midnightblue" stroke="midnightblue" points="1118,-198.771 1126.89,-193.006 1116.35,-191.969 1118,-198.771"/>
</g>
<!-- Node10 -->
<g id="node10" class="node"><title>Node10</title>
<polygon fill="none" stroke="#bfbfbf" points="1226.5,-174 1226.5,-193 1343.5,-193 1343.5,-174 1226.5,-174"/>
<text text-anchor="middle" x="1285" y="-181" font-family="Helvetica,sans-Serif" font-size="10.00">Headers/DataHeader.h</text>
</g>
<!-- Node1&#45;&gt;Node10 -->
<g id="edge9" class="edge"><title>Node1&#45;&gt;Node10</title>
<path fill="none" stroke="midnightblue" d="M866.707,-243.282C949.261,-235.159 1094,-219.52 1217,-199 1223.8,-197.866 1230.95,-196.516 1237.96,-195.103"/>
<polygon fill="midnightblue" stroke="midnightblue" points="1238.98,-198.465 1248.06,-193.006 1237.56,-191.611 1238.98,-198.465"/>
</g>
<!-- Node11 -->
<g id="node11" class="node"><title>Node11</title>
<polygon fill="none" stroke="#bfbfbf" points="1361.5,-174 1361.5,-193 1512.5,-193 1512.5,-174 1361.5,-174"/>
<text text-anchor="middle" x="1437" y="-181" font-family="Helvetica,sans-Serif" font-size="10.00">Monitoring/MonitoringFactory.h</text>
</g>
<!-- Node1&#45;&gt;Node11 -->
<g id="edge10" class="edge"><title>Node1&#45;&gt;Node11</title>
<path fill="none" stroke="midnightblue" d="M866.587,-245.145C970.662,-237.949 1178.09,-222.046 1353,-199 1362.16,-197.793 1371.85,-196.313 1381.26,-194.764"/>
<polygon fill="midnightblue" stroke="midnightblue" points="1382.05,-198.181 1391.33,-193.066 1380.88,-191.278 1382.05,-198.181"/>
</g>
<!-- Node12 -->
<g id="node12" class="node"><title>Node12</title>
<polygon fill="none" stroke="#bfbfbf" points="1530.5,-168.5 1530.5,-198.5 1665.5,-198.5 1665.5,-168.5 1530.5,-168.5"/>
<text text-anchor="start" x="1538.5" y="-186.5" font-family="Helvetica,sans-Serif" font-size="10.00">Configuration/Configuration</text>
<text text-anchor="middle" x="1598" y="-175.5" font-family="Helvetica,sans-Serif" font-size="10.00">Interface.h</text>
</g>
<!-- Node1&#45;&gt;Node12 -->
<g id="edge11" class="edge"><title>Node1&#45;&gt;Node12</title>
<path fill="none" stroke="midnightblue" d="M866.955,-247.471C993.013,-243.073 1274.3,-230.509 1519.92,-199.18"/>
<polygon fill="midnightblue" stroke="midnightblue" points="1520.64,-202.616 1530.11,-197.866 1519.75,-195.673 1520.64,-202.616"/>
</g>
<!-- Node13 -->
<g id="node13" class="node"><title>Node13</title>
<polygon fill="none" stroke="#bfbfbf" points="1124,-112.5 1124,-131.5 1288,-131.5 1288,-112.5 1124,-112.5"/>
<text text-anchor="middle" x="1206" y="-119.5" font-family="Helvetica,sans-Serif" font-size="10.00">Framework/DataProcessorSpec.h</text>
</g>
<!-- Node1&#45;&gt;Node13 -->
<g id="edge12" class="edge"><title>Node1&#45;&gt;Node13</title>
<path fill="none" stroke="midnightblue" d="M799.762,-235.185C800.3,-216.618 804.271,-184.645 824,-168 829.529,-163.335 1002.71,-144.356 1113.97,-132.586"/>
<polygon fill="midnightblue" stroke="midnightblue" points="1114.62,-136.037 1124.2,-131.506 1113.89,-129.075 1114.62,-136.037"/>
</g>
<!-- Node14 -->
<g id="node14" class="node"><title>Node14</title>
<g id="a_node14"><a xlink:href="CheckInterface_8h.html" target="_top" xlink:title="QualityControl/CheckInterface.h">
<polygon fill="none" stroke="black" points="216.5,-112.5 216.5,-131.5 373.5,-131.5 373.5,-112.5 216.5,-112.5"/>
<text text-anchor="middle" x="295" y="-119.5" font-family="Helvetica,sans-Serif" font-size="10.00">QualityControl/CheckInterface.h</text>
</a>
</g>
</g>
<!-- Node1&#45;&gt;Node14 -->
<g id="edge13" class="edge"><title>Node1&#45;&gt;Node14</title>
<path fill="none" stroke="midnightblue" d="M733.388,-247.617C627.177,-243.657 425.008,-231.924 362,-199 336.745,-185.803 316.623,-158.874 305.251,-140.878"/>
<polygon fill="midnightblue" stroke="midnightblue" points="308.021,-138.694 299.857,-131.942 302.029,-142.312 308.021,-138.694"/>
</g>
<!-- Node17 -->
<g id="node17" class="node"><title>Node17</title>
<g id="a_node17"><a xlink:href="MonitorObject_8h.html" target="_top" xlink:title="QualityControl/MonitorObject.h">
<polygon fill="none" stroke="black" points="351.5,-56.5 351.5,-75.5 502.5,-75.5 502.5,-56.5 351.5,-56.5"/>
<text text-anchor="middle" x="427" y="-63.5" font-family="Helvetica,sans-Serif" font-size="10.00">QualityControl/MonitorObject.h</text>
</a>
</g>
</g>
<!-- Node1&#45;&gt;Node17 -->
<g id="edge39" class="edge"><title>Node1&#45;&gt;Node17</title>
<path fill="none" stroke="midnightblue" d="M733.407,-248.232C587.792,-243.763 249.604,-223.536 194,-132 189.385,-124.403 188.342,-118.855 194,-112 212.686,-89.3599 282.769,-77.9813 341.237,-72.342"/>
<polygon fill="midnightblue" stroke="midnightblue" points="341.619,-75.8218 351.256,-71.4199 340.977,-68.8513 341.619,-75.8218"/>
</g>
<!-- Node21 -->
<g id="node21" class="node"><title>Node21</title>
<g id="a_node21"><a xlink:href="DatabaseInterface_8h.html" target="_top" xlink:title="QualityControl/DatabaseInterface.h">
<polygon fill="none" stroke="black" points="371,-174 371,-193 541,-193 541,-174 371,-174"/>
<text text-anchor="middle" x="456" y="-181" font-family="Helvetica,sans-Serif" font-size="10.00">QualityControl/DatabaseInterface.h</text>
</a>
</g>
</g>
<!-- Node1&#45;&gt;Node21 -->
<g id="edge28" class="edge"><title>Node1&#45;&gt;Node21</title>
<path fill="none" stroke="midnightblue" d="M733.265,-236.89C668.621,-224.675 571.741,-206.37 511.283,-194.946"/>
<polygon fill="midnightblue" stroke="midnightblue" points="511.645,-191.453 501.169,-193.035 510.346,-198.331 511.645,-191.453"/>
</g>
<!-- Node23 -->
<g id="node23" class="node"><title>Node23</title>
<g id="a_node23"><a xlink:href="QcInfoLogger_8h.html" target="_top" xlink:title="QualityControl/QcInfoLogger.h">
<polygon fill="none" stroke="black" points="1343.5,-112.5 1343.5,-131.5 1492.5,-131.5 1492.5,-112.5 1343.5,-112.5"/>
<text text-anchor="middle" x="1418" y="-119.5" font-family="Helvetica,sans-Serif" font-size="10.00">QualityControl/QcInfoLogger.h</text>
</a>
</g>
</g>
<!-- Node1&#45;&gt;Node23 -->
<g id="edge40" class="edge"><title>Node1&#45;&gt;Node23</title>
<path fill="none" stroke="midnightblue" d="M814.294,-235.268C835.992,-214.019 876.654,-175.666 895,-168 984.498,-130.602 1233.42,-140.935 1330,-132 1330.94,-131.913 1331.88,-131.826 1332.83,-131.737"/>
<polygon fill="midnightblue" stroke="midnightblue" points="1333.49,-135.19 1343.12,-130.758 1332.83,-128.221 1333.49,-135.19"/>
</g>
<!-- Node25 -->
<g id="node25" class="node"><title>Node25</title>
<g id="a_node25"><a xlink:href="Check_8h_source.html" target="_top" xlink:title="QualityControl/Check.h">
<polygon fill="none" stroke="black" points="652.5,-174 652.5,-193 771.5,-193 771.5,-174 652.5,-174"/>
<text text-anchor="middle" x="712" y="-181" font-family="Helvetica,sans-Serif" font-size="10.00">QualityControl/Check.h</text>
</a>
</g>
</g>
<!-- Node1&#45;&gt;Node25 -->
<g id="edge42" class="edge"><title>Node1&#45;&gt;Node25</title>
<path fill="none" stroke="midnightblue" d="M780.905,-235.396C766.421,-224.697 746.568,-210.033 731.892,-199.193"/>
<polygon fill="midnightblue" stroke="midnightblue" points="733.64,-196.133 723.517,-193.007 729.481,-201.764 733.64,-196.133"/>
</g>
<!-- Node14&#45;&gt;Node4 -->
<g id="edge14" class="edge"><title>Node14&#45;&gt;Node4</title>
<path fill="none" stroke="midnightblue" d="M296.71,-112.124C299.174,-99.5669 303.982,-75.9254 309,-56 311.237,-47.1174 314.022,-37.3394 316.44,-29.1737"/>
<polygon fill="midnightblue" stroke="midnightblue" points="319.797,-30.1633 319.33,-19.5788 313.095,-28.1444 319.797,-30.1633"/>
</g>
<!-- Node14&#45;&gt;Node5 -->
<g id="edge15" class="edge"><title>Node14&#45;&gt;Node5</title>
<path fill="none" stroke="midnightblue" d="M358.127,-112.432C401.858,-105.395 460.978,-93.6735 511,-76 529.367,-69.5107 531.438,-61.9082 550,-56 657.389,-21.8191 690.109,-40.0952 801,-20 805.356,-19.2106 809.954,-18.289 814.433,-17.3425"/>
<polygon fill="midnightblue" stroke="midnightblue" points="815.479,-20.6963 824.5,-15.1389 813.982,-13.8582 815.479,-20.6963"/>
</g>
<!-- Node15 -->
<g id="node15" class="node"><title>Node15</title>
<polygon fill="none" stroke="#bfbfbf" points="559.5,-56.5 559.5,-75.5 642.5,-75.5 642.5,-56.5 559.5,-56.5"/>
<text text-anchor="middle" x="601" y="-63.5" font-family="Helvetica,sans-Serif" font-size="10.00">unordered_map</text>
</g>
<!-- Node14&#45;&gt;Node15 -->
<g id="edge16" class="edge"><title>Node14&#45;&gt;Node15</title>
<path fill="none" stroke="midnightblue" d="M343.487,-112.444C399.606,-102.54 491.659,-86.2955 549.163,-76.1477"/>
<polygon fill="midnightblue" stroke="midnightblue" points="549.893,-79.5731 559.132,-74.3884 548.676,-72.6796 549.893,-79.5731"/>
</g>
<!-- Node16 -->
<g id="node16" class="node"><title>Node16</title>
<polygon fill="none" stroke="#bfbfbf" points="399,-0.5 399,-19.5 455,-19.5 455,-0.5 399,-0.5"/>
<text text-anchor="middle" x="427" y="-7.5" font-family="Helvetica,sans-Serif" font-size="10.00">Rtypes.h</text>
</g>
<!-- Node14&#45;&gt;Node16 -->
<g id="edge17" class="edge"><title>Node14&#45;&gt;Node16</title>
<path fill="none" stroke="midnightblue" d="M299.474,-112.458C306.844,-99.0376 322.666,-72.8151 342,-56 357.587,-42.4435 377.961,-31.4801 394.854,-23.7696"/>
<polygon fill="midnightblue" stroke="midnightblue" points="396.584,-26.8327 404.336,-19.6106 393.772,-20.4223 396.584,-26.8327"/>
</g>
<!-- Node14&#45;&gt;Node17 -->
<g id="edge18" class="edge"><title>Node14&#45;&gt;Node17</title>
<path fill="none" stroke="midnightblue" d="M315.916,-112.444C337.736,-103.517 372.15,-89.4387 396.892,-79.3168"/>
<polygon fill="midnightblue" stroke="midnightblue" points="398.252,-82.5422 406.182,-75.5164 395.601,-76.0634 398.252,-82.5422"/>
</g>
<!-- Node20 -->
<g id="node20" class="node"><title>Node20</title>
<g id="a_node20"><a xlink:href="Quality_8h.html" target="_top" xlink:title="QualityControl/Quality.h">
<polygon fill="none" stroke="black" points="699.5,-56.5 699.5,-75.5 820.5,-75.5 820.5,-56.5 699.5,-56.5"/>
<text text-anchor="middle" x="760" y="-63.5" font-family="Helvetica,sans-Serif" font-size="10.00">QualityControl/Quality.h</text>
</a>
</g>
</g>
<!-- Node14&#45;&gt;Node20 -->
<g id="edge24" class="edge"><title>Node14&#45;&gt;Node20</title>
<path fill="none" stroke="midnightblue" d="M368.424,-112.473C456.31,-102.267 602.455,-85.2956 689.174,-75.225"/>
<polygon fill="midnightblue" stroke="midnightblue" points="689.658,-78.6924 699.187,-74.0621 688.85,-71.7391 689.658,-78.6924"/>
</g>
<!-- Node17&#45;&gt;Node4 -->
<g id="edge19" class="edge"><title>Node17&#45;&gt;Node4</title>
<path fill="none" stroke="midnightblue" d="M410.13,-56.324C393.291,-47.6641 367.193,-34.2424 347.762,-24.249"/>
<polygon fill="midnightblue" stroke="midnightblue" points="349.322,-21.1155 338.828,-19.6545 346.12,-27.3405 349.322,-21.1155"/>
</g>
<!-- Node17&#45;&gt;Node5 -->
<g id="edge20" class="edge"><title>Node17&#45;&gt;Node5</title>
<path fill="none" stroke="midnightblue" d="M502.661,-56.7695C594.909,-46.5817 745.387,-29.4271 801,-20 805.284,-19.2738 809.797,-18.3977 814.199,-17.4808"/>
<polygon fill="midnightblue" stroke="midnightblue" points="815.087,-20.8695 824.111,-15.319 813.595,-14.0303 815.087,-20.8695"/>
</g>
<!-- Node17&#45;&gt;Node16 -->
<g id="edge21" class="edge"><title>Node17&#45;&gt;Node16</title>
<path fill="none" stroke="midnightblue" d="M427,-56.083C427,-49.0059 427,-38.8611 427,-29.9865"/>
<polygon fill="midnightblue" stroke="midnightblue" points="430.5,-29.751 427,-19.7511 423.5,-29.7511 430.5,-29.751"/>
</g>
<!-- Node18 -->
<g id="node18" class="node"><title>Node18</title>
<polygon fill="none" stroke="#bfbfbf" points="570.5,-0.5 570.5,-19.5 629.5,-19.5 629.5,-0.5 570.5,-0.5"/>
<text text-anchor="middle" x="600" y="-7.5" font-family="Helvetica,sans-Serif" font-size="10.00">TObject.h</text>
</g>
<!-- Node17&#45;&gt;Node18 -->
<g id="edge22" class="edge"><title>Node17&#45;&gt;Node18</title>
<path fill="none" stroke="midnightblue" d="M454.412,-56.4435C483.769,-47.2801 530.519,-32.6876 563.096,-22.5192"/>
<polygon fill="midnightblue" stroke="midnightblue" points="564.213,-25.8371 572.716,-19.5164 562.127,-19.1551 564.213,-25.8371"/>
</g>
<!-- Node19 -->
<g id="node19" class="node"><title>Node19</title>
<polygon fill="none" stroke="#bfbfbf" points="676,-0.5 676,-19.5 792,-19.5 792,-0.5 676,-0.5"/>
<text text-anchor="middle" x="734" y="-7.5" font-family="Helvetica,sans-Serif" font-size="10.00">Common/Exceptions.h</text>
</g>
<!-- Node17&#45;&gt;Node19 -->
<g id="edge23" class="edge"><title>Node17&#45;&gt;Node19</title>
<path fill="none" stroke="midnightblue" d="M475.645,-56.4435C529.874,-46.9049 617.548,-31.4834 675.482,-21.293"/>
<polygon fill="midnightblue" stroke="midnightblue" points="676.34,-24.696 685.583,-19.5164 675.127,-17.8018 676.34,-24.696"/>
</g>
<!-- Node20&#45;&gt;Node4 -->
<g id="edge26" class="edge"><title>Node20&#45;&gt;Node4</title>
<path fill="none" stroke="midnightblue" d="M699.401,-57.7088C610.336,-46.9791 448.336,-27.4078 390,-20 377.789,-18.4495 364.354,-16.6839 352.673,-15.1296"/>
<polygon fill="midnightblue" stroke="midnightblue" points="352.9,-11.6289 342.525,-13.7739 351.973,-18.5673 352.9,-11.6289"/>
</g>
<!-- Node20&#45;&gt;Node5 -->
<g id="edge27" class="edge"><title>Node20&#45;&gt;Node5</title>
<path fill="none" stroke="midnightblue" d="M773.175,-56.324C785.847,-47.979 805.233,-35.2122 820.206,-25.3524"/>
<polygon fill="midnightblue" stroke="midnightblue" points="822.431,-28.0776 828.858,-19.6545 818.581,-22.2313 822.431,-28.0776"/>
</g>
<!-- Node20&#45;&gt;Node16 -->
<g id="edge25" class="edge"><title>Node20&#45;&gt;Node16</title>
<path fill="none" stroke="midnightblue" d="M707.235,-56.4435C639.936,-45.5302 525.15,-26.9162 465.519,-17.2464"/>
<polygon fill="midnightblue" stroke="midnightblue" points="465.828,-13.7508 455.397,-15.6049 464.708,-20.6606 465.828,-13.7508"/>
</g>
<!-- Node21&#45;&gt;Node3 -->
<g id="edge30" class="edge"><title>Node21&#45;&gt;Node3</title>
<path fill="none" stroke="midnightblue" d="M456,-173.975C456,-165.58 456,-152.481 456,-141.663"/>
<polygon fill="midnightblue" stroke="midnightblue" points="459.5,-141.509 456,-131.509 452.5,-141.509 459.5,-141.509"/>
</g>
<!-- Node21&#45;&gt;Node4 -->
<g id="edge29" class="edge"><title>Node21&#45;&gt;Node4</title>
<path fill="none" stroke="midnightblue" d="M370.83,-177.564C303.132,-171.651 216.231,-158.925 194,-132 157.388,-87.6576 243.627,-43.1714 291.991,-22.6782"/>
<polygon fill="midnightblue" stroke="midnightblue" points="293.49,-25.846 301.395,-18.7922 290.816,-19.3766 293.49,-25.846"/>
</g>
<!-- Node21&#45;&gt;Node6 -->
<g id="edge31" class="edge"><title>Node21&#45;&gt;Node6</title>
<path fill="none" stroke="midnightblue" d="M465.456,-173.975C475.748,-164.697 492.416,-149.671 504.994,-138.331"/>
<polygon fill="midnightblue" stroke="midnightblue" points="507.478,-140.805 512.561,-131.509 502.79,-135.605 507.478,-140.805"/>
</g>
<!-- Node21&#45;&gt;Node15 -->
<g id="edge32" class="edge"><title>Node21&#45;&gt;Node15</title>
<path fill="none" stroke="midnightblue" d="M445.58,-173.61C430.377,-159.568 405.526,-131.818 421,-112 429.021,-101.727 498.847,-86.4567 549.123,-76.6143"/>
<polygon fill="midnightblue" stroke="midnightblue" points="550.057,-79.9985 559.209,-74.6607 548.726,-73.1262 550.057,-79.9985"/>
</g>
<!-- Node21&#45;&gt;Node17 -->
<g id="edge38" class="edge"><title>Node21&#45;&gt;Node17</title>
<path fill="none" stroke="midnightblue" d="M370.826,-176.547C307.115,-170.113 227.59,-157.185 207,-132 166.591,-82.5727 263.052,-69.5597 340.816,-66.7376"/>
<polygon fill="midnightblue" stroke="midnightblue" points="341.277,-70.2251 351.163,-66.4167 341.06,-63.2284 341.277,-70.2251"/>
</g>
<!-- Node22 -->
<g id="node22" class="node"><title>Node22</title>
<g id="a_node22"><a xlink:href="QualityObject_8h_source.html" target="_top" xlink:title="QualityControl/QualityObject.h">
<polygon fill="none" stroke="black" points="841.5,-112.5 841.5,-131.5 990.5,-131.5 990.5,-112.5 841.5,-112.5"/>
<text text-anchor="middle" x="916" y="-119.5" font-family="Helvetica,sans-Serif" font-size="10.00">QualityControl/QualityObject.h</text>
</a>
</g>
</g>
<!-- Node21&#45;&gt;Node22 -->
<g id="edge33" class="edge"><title>Node21&#45;&gt;Node22</title>
<path fill="none" stroke="midnightblue" d="M521.907,-173.975C606.108,-163.084 751.531,-144.274 840.221,-132.802"/>
<polygon fill="midnightblue" stroke="midnightblue" points="840.747,-136.263 850.215,-131.509 839.849,-129.321 840.747,-136.263"/>
</g>
<!-- Node22&#45;&gt;Node5 -->
<g id="edge34" class="edge"><title>Node22&#45;&gt;Node5</title>
<path fill="none" stroke="midnightblue" d="M915.829,-112.286C915.188,-99.0924 912.428,-73.7113 901,-56 892.707,-43.1473 879.415,-32.5367 867.545,-24.8532"/>
<polygon fill="midnightblue" stroke="midnightblue" points="869.213,-21.771 858.851,-19.5595 865.572,-27.7498 869.213,-21.771"/>
</g>
<!-- Node22&#45;&gt;Node18 -->
<g id="edge35" class="edge"><title>Node22&#45;&gt;Node18</title>
<path fill="none" stroke="midnightblue" d="M905.808,-112.469C886.633,-96.5782 845.629,-63.3831 829,-56 795.62,-41.1796 695.688,-24.9163 639.491,-16.5921"/>
<polygon fill="midnightblue" stroke="midnightblue" points="639.935,-13.1198 629.533,-15.1323 638.92,-20.0458 639.935,-13.1198"/>
</g>
<!-- Node22&#45;&gt;Node19 -->
<g id="edge36" class="edge"><title>Node22&#45;&gt;Node19</title>
<path fill="none" stroke="midnightblue" d="M910.988,-112.116C902.722,-98.227 884.941,-71.3741 863,-56 840.207,-40.0294 811.209,-29.2454 786.481,-22.2485"/>
<polygon fill="midnightblue" stroke="midnightblue" points="787.097,-18.7898 776.531,-19.5685 785.277,-25.5489 787.097,-18.7898"/>
</g>
<!-- Node22&#45;&gt;Node20 -->
<g id="edge37" class="edge"><title>Node22&#45;&gt;Node20</title>
<path fill="none" stroke="midnightblue" d="M891.281,-112.444C865.152,-103.399 823.741,-89.064 794.424,-78.9158"/>
<polygon fill="midnightblue" stroke="midnightblue" points="795.198,-75.4801 784.603,-75.5164 792.908,-82.0951 795.198,-75.4801"/>
</g>
<!-- Node24 -->
<g id="node24" class="node"><title>Node24</title>
<polygon fill="none" stroke="#bfbfbf" points="1353,-56.5 1353,-75.5 1483,-75.5 1483,-56.5 1353,-56.5"/>
<text text-anchor="middle" x="1418" y="-63.5" font-family="Helvetica,sans-Serif" font-size="10.00">InfoLogger/InfoLogger.hxx</text>
</g>
<!-- Node23&#45;&gt;Node24 -->
<g id="edge41" class="edge"><title>Node23&#45;&gt;Node24</title>
<path fill="none" stroke="midnightblue" d="M1418,-112.083C1418,-105.006 1418,-94.8611 1418,-85.9865"/>
<polygon fill="midnightblue" stroke="midnightblue" points="1421.5,-85.751 1418,-75.7511 1414.5,-85.7511 1421.5,-85.751"/>
</g>
<!-- Node25&#45;&gt;Node3 -->
<g id="edge46" class="edge"><title>Node25&#45;&gt;Node3</title>
<path fill="none" stroke="midnightblue" d="M673.201,-173.967C630.996,-164.612 561.297,-148.947 492.11,-132.224"/>
<polygon fill="midnightblue" stroke="midnightblue" points="492.897,-128.814 482.354,-129.858 491.247,-135.617 492.897,-128.814"/>
</g>
<!-- Node25&#45;&gt;Node5 -->
<g id="edge44" class="edge"><title>Node25&#45;&gt;Node5</title>
<path fill="none" stroke="midnightblue" d="M763.361,-173.956C775.984,-171.931 789.472,-169.829 802,-168 862.986,-159.097 1036.35,-178.323 1077,-132 1140.04,-60.1713 944.991,-25.1319 870.048,-14.5608"/>
<polygon fill="midnightblue" stroke="midnightblue" points="870.289,-11.0613 859.908,-13.1772 869.343,-17.9971 870.289,-11.0613"/>
</g>
<!-- Node25&#45;&gt;Node6 -->
<g id="edge45" class="edge"><title>Node25&#45;&gt;Node6</title>
<path fill="none" stroke="midnightblue" d="M684.778,-173.975C650.168,-163.137 590.516,-144.456 553.836,-132.97"/>
<polygon fill="midnightblue" stroke="midnightblue" points="554.729,-129.582 544.14,-129.933 552.637,-136.262 554.729,-129.582"/>
</g>
<!-- Node25&#45;&gt;Node13 -->
<g id="edge48" class="edge"><title>Node25&#45;&gt;Node13</title>
<path fill="none" stroke="midnightblue" d="M752.216,-173.962C763.143,-171.822 774.997,-169.664 786,-168 847.05,-158.766 1009.51,-142.209 1113.55,-131.959"/>
<polygon fill="midnightblue" stroke="midnightblue" points="1114.14,-135.418 1123.75,-130.956 1113.45,-128.452 1114.14,-135.418"/>
</g>
<!-- Node25&#45;&gt;Node14 -->
<g id="edge52" class="edge"><title>Node25&#45;&gt;Node14</title>
<path fill="none" stroke="midnightblue" d="M652.254,-173.975C576.234,-163.128 445.163,-144.426 364.676,-132.942"/>
<polygon fill="midnightblue" stroke="midnightblue" points="365.029,-129.457 354.635,-131.509 364.04,-136.387 365.029,-129.457"/>
</g>
<!-- Node25&#45;&gt;Node15 -->
<g id="edge47" class="edge"><title>Node25&#45;&gt;Node15</title>
<path fill="none" stroke="midnightblue" d="M690.362,-173.85C671.925,-165.526 645.818,-151.351 629,-132 617.425,-118.681 610.025,-99.8506 605.759,-85.8833"/>
<polygon fill="midnightblue" stroke="midnightblue" points="609.04,-84.6194 602.989,-75.9226 602.296,-86.4948 609.04,-84.6194"/>
</g>
<!-- Node25&#45;&gt;Node17 -->
<g id="edge51" class="edge"><title>Node25&#45;&gt;Node17</title>
<path fill="none" stroke="midnightblue" d="M693.587,-173.8C664.161,-160.018 604.593,-132.618 553,-112 522.723,-99.9006 487.768,-87.5407 462.366,-78.8435"/>
<polygon fill="midnightblue" stroke="midnightblue" points="463.384,-75.4926 452.789,-75.5829 461.128,-82.1191 463.384,-75.4926"/>
</g>
<!-- Node25&#45;&gt;Node20 -->
<g id="edge49" class="edge"><title>Node25&#45;&gt;Node20</title>
<path fill="none" stroke="midnightblue" d="M739.011,-173.869C758.121,-166.184 782.341,-152.873 794,-132 803.241,-115.456 790.253,-96.1847 777.755,-82.9456"/>
<polygon fill="midnightblue" stroke="midnightblue" points="780.202,-80.4434 770.624,-75.9138 775.287,-85.4276 780.202,-80.4434"/>
</g>
<!-- Node25&#45;&gt;Node22 -->
<g id="edge50" class="edge"><title>Node25&#45;&gt;Node22</title>
<path fill="none" stroke="midnightblue" d="M741.228,-173.975C776.903,-163.57 837.36,-145.937 876.982,-134.38"/>
<polygon fill="midnightblue" stroke="midnightblue" points="878.206,-137.669 886.826,-131.509 876.246,-130.949 878.206,-137.669"/>
</g>
<!-- Node25&#45;&gt;Node23 -->
<g id="edge53" class="edge"><title>Node25&#45;&gt;Node23</title>
<path fill="none" stroke="midnightblue" d="M771.833,-176.5C799.296,-173.802 832.291,-170.638 862,-168 1028.81,-153.188 1223.95,-137.854 1333.04,-129.462"/>
<polygon fill="midnightblue" stroke="midnightblue" points="1333.62,-132.928 1343.33,-128.672 1333.09,-125.948 1333.62,-132.928"/>
</g>
<!-- Node26 -->
<g id="node26" class="node"><title>Node26</title>
<polygon fill="none" stroke="#bfbfbf" points="1008.5,-112.5 1008.5,-131.5 1067.5,-131.5 1067.5,-112.5 1008.5,-112.5"/>
<text text-anchor="middle" x="1038" y="-119.5" font-family="Helvetica,sans-Serif" font-size="10.00">functional</text>
</g>
<!-- Node25&#45;&gt;Node26 -->
<g id="edge43" class="edge"><title>Node25&#45;&gt;Node26</title>
<path fill="none" stroke="midnightblue" d="M754.617,-173.952C764.884,-171.948 775.826,-169.856 786,-168 877.314,-151.34 903.152,-150.819 998.187,-132.061"/>
<polygon fill="midnightblue" stroke="midnightblue" points="999.104,-135.447 1008.23,-130.062 997.738,-128.581 999.104,-135.447"/>
</g>
<!-- Node27 -->
<g id="node27" class="node"><title>Node27</title>
<g id="a_node27"><a xlink:href="CheckConfig_8h.html" target="_top" xlink:title="QualityControl/CheckConfig.h">
<polygon fill="none" stroke="black" points="638.5,-112.5 638.5,-131.5 785.5,-131.5 785.5,-112.5 638.5,-112.5"/>
<text text-anchor="middle" x="712" y="-119.5" font-family="Helvetica,sans-Serif" font-size="10.00">QualityControl/CheckConfig.h</text>
</a>
</g>
</g>
<!-- Node25&#45;&gt;Node27 -->
<g id="edge54" class="edge"><title>Node25&#45;&gt;Node27</title>
<path fill="none" stroke="midnightblue" d="M712,-173.975C712,-165.58 712,-152.481 712,-141.663"/>
<polygon fill="midnightblue" stroke="midnightblue" points="715.5,-141.509 712,-131.509 708.5,-141.509 715.5,-141.509"/>
</g>
<!-- Node27&#45;&gt;Node4 -->
<g id="edge55" class="edge"><title>Node27&#45;&gt;Node4</title>
<path fill="none" stroke="midnightblue" d="M706.549,-112.04C697.189,-97.5338 676.578,-69.2037 651,-56 647.683,-54.2878 434.217,-25.869 352.949,-15.096"/>
<polygon fill="midnightblue" stroke="midnightblue" points="353.206,-11.5995 342.833,-13.7556 352.287,-18.5389 353.206,-11.5995"/>
</g>
<!-- Node27&#45;&gt;Node15 -->
<g id="edge56" class="edge"><title>Node27&#45;&gt;Node15</title>
<path fill="none" stroke="midnightblue" d="M694.166,-112.324C676.284,-103.625 648.525,-90.1202 627.954,-80.113"/>
<polygon fill="midnightblue" stroke="midnightblue" points="629.313,-76.8819 618.79,-75.6545 626.251,-83.1765 629.313,-76.8819"/>
</g>
</g>
</svg>
        <g id="navigator" transform="translate(0 0)" fill="#404254">
                <rect fill="#f2f5e9" fill-opacity="0.5" stroke="#606060" stroke-width=".5" x="0" y="0" width="60" height="60"/>
                <use id="zoomplus" xlink:href="#zoomPlus" x="17" y="9" onmousedown="handleZoom(evt,'in')"/>
                <use id="zoomminus" xlink:href="#zoomMin" x="42" y="9" onmousedown="handleZoom(evt,'out')"/>
                <use id="reset" xlink:href="#resetDef" x="30" y="36" onmousedown="handleReset()"/>
                <g id="arrowUp" xlink:href="#dirArrow" transform="translate(30 24)" onmousedown="handlePan(0,-1)">
                  <use xlink:href="#rim" fill="#404040">
                        <set attributeName="fill" to="#808080" begin="arrowUp.mouseover" end="arrowUp.mouseout"/>
                  </use>
                  <path fill="none" stroke="white" stroke-width="1.5" d="M0,-3.0v7 M-2.5,-0.5L0,-3.0L2.5,-0.5"/>
                </g>
                <g id="arrowRight" xlink:href="#dirArrow" transform="rotate(90) translate(36 -43)" onmousedown="handlePan(1,0)">
                  <use xlink:href="#rim" fill="#404040">
                        <set attributeName="fill" to="#808080" begin="arrowRight.mouseover" end="arrowRight.mouseout"/>
                  </use>
                  <path fill="none" stroke="white" stroke-width="1.5" d="M0,-3.0v7 M-2.5,-0.5L0,-3.0L2.5,-0.5"/>
                </g>
                <g id="arrowDown" xlink:href="#dirArrow" transform="rotate(180) translate(-30 -48)" onmousedown="handlePan(0,1)">
                  <use xlink:href="#rim" fill="#404040">
                        <set attributeName="fill" to="#808080" begin="arrowDown.mouseover" end="arrowDown.mouseout"/>
                  </use>
                  <path fill="none" stroke="white" stroke-width="1.5" d="M0,-3.0v7 M-2.5,-0.5L0,-3.0L2.5,-0.5"/>
                </g>
                <g id="arrowLeft" xlink:href="#dirArrow" transform="rotate(270) translate(-36 17)" onmousedown="handlePan(-1,0)">
                  <use xlink:href="#rim" fill="#404040">
                        <set attributeName="fill" to="#808080" begin="arrowLeft.mouseover" end="arrowLeft.mouseout"/>
                  </use>
                  <path fill="none" stroke="white" stroke-width="1.5" d="M0,-3.0v7 M-2.5,-0.5L0,-3.0L2.5,-0.5"/>
                </g>
        </g>
        <svg viewBox="0 0 15 15" width="100%" height="30px" preserveAspectRatio="xMaxYMin meet">
         <g id="arrow_out" transform="scale(0.3 0.3)">
          <a xlink:href="CheckRunner_8h__incl_org.svg" target="_base">
           <rect id="button" ry="5" rx="5" y="6" x="6" height="38" width="38"
                fill="#f2f5e9" fill-opacity="0.5" stroke="#606060" stroke-width="1.0"/>
           <path id="arrow"
             d="M 11.500037,31.436501 C 11.940474,20.09759 22.043105,11.32322 32.158766,21.979434 L 37.068811,17.246167 C 37.068811,17.246167 37.088388,32 37.088388,32 L 22.160133,31.978069 C 22.160133,31.978069 26.997745,27.140456 26.997745,27.140456 C 18.528582,18.264221 13.291696,25.230495 11.500037,31.436501 z"
             style="fill:#404040;"/>
          </a>
         </g>
        </svg>
</svg>
