<?xml version="1.0" encoding="UTF-8" standalone="no"?>
<!DOCTYPE svg PUBLIC "-//W3C//DTD SVG 1.1//EN"
 "http://www.w3.org/Graphics/SVG/1.1/DTD/svg11.dtd">
<!-- Generated by graphviz version 2.38.0 (20140413.2041)
 -->
<!-- Title: Framework/src/CheckRunnerFactory.cxx Pages: 1 -->
<svg width="2059pt" height="341pt"
 viewBox="0.00 0.00 2059.44 341.00" xmlns="http://www.w3.org/2000/svg" xmlns:xlink="http://www.w3.org/1999/xlink">
<g id="graph0" class="graph" transform="scale(1 1) rotate(0) translate(4 337)">
<title>Framework/src/CheckRunnerFactory.cxx</title>
<!-- Node1 -->
<g id="node1" class="node"><title>Node1</title>
<polygon fill="#bfbfbf" stroke="black" points="1046.31,-302.5 1046.31,-332.5 1191.31,-332.5 1191.31,-302.5 1046.31,-302.5"/>
<text text-anchor="start" x="1054.31" y="-320.5" font-family="Helvetica,sans-Serif" font-size="10.00">Framework/src/CheckRunner</text>
<text text-anchor="middle" x="1118.81" y="-309.5" font-family="Helvetica,sans-Serif" font-size="10.00">Factory.cxx</text>
</g>
<!-- Node2 -->
<g id="node2" class="node"><title>Node2</title>
<polygon fill="none" stroke="#bfbfbf" points="585.812,-112.5 585.812,-131.5 629.812,-131.5 629.812,-112.5 585.812,-112.5"/>
<text text-anchor="middle" x="607.812" y="-119.5" font-family="Helvetica,sans-Serif" font-size="10.00">vector</text>
</g>
<!-- Node1&#45;&gt;Node2 -->
<g id="edge1" class="edge"><title>Node1&#45;&gt;Node2</title>
<path fill="none" stroke="midnightblue" d="M1046.2,-314.625C809.617,-307.743 72.41,-279.912 6.81157,-199 -1.86522,-188.298 -2.56003,-178.1 6.81157,-168 45.6762,-126.117 455.764,-122.946 575.291,-122.917"/>
<polygon fill="midnightblue" stroke="midnightblue" points="575.614,-126.417 585.616,-122.922 575.617,-119.417 575.614,-126.417"/>
</g>
<!-- Node3 -->
<g id="node3" class="node"><title>Node3</title>
<polygon fill="none" stroke="#bfbfbf" points="15.8116,-174 15.8116,-193 93.8116,-193 93.8116,-174 15.8116,-174"/>
<text text-anchor="middle" x="54.8116" y="-181" font-family="Helvetica,sans-Serif" font-size="10.00">unordered_set</text>
</g>
<!-- Node1&#45;&gt;Node3 -->
<g id="edge2" class="edge"><title>Node1&#45;&gt;Node3</title>
<path fill="none" stroke="midnightblue" d="M1046.22,-311.85C879.306,-300.337 455.848,-266.431 107.812,-199 102.974,-198.063 97.9304,-196.913 92.9613,-195.675"/>
<polygon fill="midnightblue" stroke="midnightblue" points="93.5167,-192.203 82.9559,-193.05 91.7402,-198.974 93.5167,-192.203"/>
</g>
<!-- Node4 -->
<g id="node4" class="node"><title>Node4</title>
<polygon fill="none" stroke="#bfbfbf" points="1772.81,-112.5 1772.81,-131.5 1936.81,-131.5 1936.81,-112.5 1772.81,-112.5"/>
<text text-anchor="middle" x="1854.81" y="-119.5" font-family="Helvetica,sans-Serif" font-size="10.00">Framework/DataProcessorSpec.h</text>
</g>
<!-- Node1&#45;&gt;Node4 -->
<g id="edge3" class="edge"><title>Node1&#45;&gt;Node4</title>
<path fill="none" stroke="midnightblue" d="M1191.36,-310.395C1343.82,-296.525 1691.74,-259.106 1792.81,-199 1816.52,-184.9 1835.05,-158.211 1845.46,-140.512"/>
<polygon fill="midnightblue" stroke="midnightblue" points="1848.54,-142.174 1850.39,-131.742 1842.44,-138.744 1848.54,-142.174"/>
</g>
<!-- Node5 -->
<g id="node5" class="node"><title>Node5</title>
<polygon fill="none" stroke="#bfbfbf" points="977.812,-241 977.812,-260 1107.81,-260 1107.81,-241 977.812,-241"/>
<text text-anchor="middle" x="1042.81" y="-248" font-family="Helvetica,sans-Serif" font-size="10.00">Framework/DeviceSpec.h</text>
</g>
<!-- Node1&#45;&gt;Node5 -->
<g id="edge4" class="edge"><title>Node1&#45;&gt;Node5</title>
<path fill="none" stroke="midnightblue" d="M1102.32,-302.396C1090.12,-291.96 1073.5,-277.751 1060.93,-266.998"/>
<polygon fill="midnightblue" stroke="midnightblue" points="1062.85,-264.034 1052.98,-260.195 1058.3,-269.354 1062.85,-264.034"/>
</g>
<!-- Node6 -->
<g id="node6" class="node"><title>Node6</title>
<polygon fill="none" stroke="#bfbfbf" points="1125.81,-241 1125.81,-260 1265.81,-260 1265.81,-241 1125.81,-241"/>
<text text-anchor="middle" x="1195.81" y="-248" font-family="Helvetica,sans-Serif" font-size="10.00">Framework/DataSpecUtils.h</text>
</g>
<!-- Node1&#45;&gt;Node6 -->
<g id="edge5" class="edge"><title>Node1&#45;&gt;Node6</title>
<path fill="none" stroke="midnightblue" d="M1135.52,-302.396C1148,-291.86 1165.04,-277.477 1177.82,-266.689"/>
<polygon fill="midnightblue" stroke="midnightblue" points="1180.13,-269.32 1185.51,-260.195 1175.61,-263.971 1180.13,-269.32"/>
</g>
<!-- Node7 -->
<g id="node7" class="node"><title>Node7</title>
<polygon fill="none" stroke="#bfbfbf" points="1284.31,-235.5 1284.31,-265.5 1429.31,-265.5 1429.31,-235.5 1284.31,-235.5"/>
<text text-anchor="start" x="1292.31" y="-253.5" font-family="Helvetica,sans-Serif" font-size="10.00">Framework/CompletionPolicy</text>
<text text-anchor="middle" x="1356.81" y="-242.5" font-family="Helvetica,sans-Serif" font-size="10.00">Helpers.h</text>
</g>
<!-- Node1&#45;&gt;Node7 -->
<g id="edge6" class="edge"><title>Node1&#45;&gt;Node7</title>
<path fill="none" stroke="midnightblue" d="M1170.16,-302.476C1206.79,-292.472 1256.22,-278.971 1295.02,-268.377"/>
<polygon fill="midnightblue" stroke="midnightblue" points="1296.42,-271.622 1305.14,-265.611 1294.58,-264.869 1296.42,-271.622"/>
</g>
<!-- Node8 -->
<g id="node8" class="node"><title>Node8</title>
<g id="a_node8"><a xlink:href="CheckRunner_8h.html" target="_top" xlink:title="QualityControl/CheckRunner.h">
<polygon fill="none" stroke="black" points="809.812,-241 809.812,-260 959.812,-260 959.812,-241 809.812,-241"/>
<text text-anchor="middle" x="884.812" y="-248" font-family="Helvetica,sans-Serif" font-size="10.00">QualityControl/CheckRunner.h</text>
</a>
</g>
</g>
<!-- Node1&#45;&gt;Node8 -->
<g id="edge7" class="edge"><title>Node1&#45;&gt;Node8</title>
<path fill="none" stroke="midnightblue" d="M1068.33,-302.476C1025.56,-290.597 965.045,-273.787 925.375,-262.768"/>
<polygon fill="midnightblue" stroke="midnightblue" points="926.087,-259.333 915.515,-260.029 924.213,-266.077 926.087,-259.333"/>
</g>
<!-- Node32 -->
<g id="node32" class="node"><title>Node32</title>
<g id="a_node32"><a xlink:href="CheckRunnerFactory_8h.html" target="_top" xlink:title="QualityControl/CheckRunner\lFactory.h">
<polygon fill="none" stroke="black" points="1844.81,-235.5 1844.81,-265.5 1986.81,-265.5 1986.81,-235.5 1844.81,-235.5"/>
<text text-anchor="start" x="1852.81" y="-253.5" font-family="Helvetica,sans-Serif" font-size="10.00">QualityControl/CheckRunner</text>
<text text-anchor="middle" x="1915.81" y="-242.5" font-family="Helvetica,sans-Serif" font-size="10.00">Factory.h</text>
</a>
</g>
</g>
<!-- Node1&#45;&gt;Node32 -->
<g id="edge64" class="edge"><title>Node1&#45;&gt;Node32</title>
<path fill="none" stroke="midnightblue" d="M1191.55,-313.7C1320.65,-308.206 1598.13,-294.03 1830.81,-266 1831.93,-265.866 1833.05,-265.727 1834.18,-265.584"/>
<polygon fill="midnightblue" stroke="midnightblue" points="1835.02,-269.001 1844.46,-264.193 1834.09,-262.064 1835.02,-269.001"/>
</g>
<!-- Node8&#45;&gt;Node2 -->
<g id="edge12" class="edge"><title>Node8&#45;&gt;Node2</title>
<path fill="none" stroke="midnightblue" d="M867.098,-240.862C847.904,-231.303 816.572,-215.108 790.812,-199 770.836,-186.509 768.84,-178.624 747.812,-168 737.98,-163.033 677.78,-144.312 639.59,-132.639"/>
<polygon fill="midnightblue" stroke="midnightblue" points="640.517,-129.262 629.931,-129.693 638.475,-135.958 640.517,-129.262"/>
</g>
<!-- Node8&#45;&gt;Node3 -->
<g id="edge13" class="edge"><title>Node8&#45;&gt;Node3</title>
<path fill="none" stroke="midnightblue" d="M809.619,-246.553C641.882,-239.662 241.384,-221.376 107.812,-199 102.594,-198.126 97.1504,-196.95 91.823,-195.645"/>
<polygon fill="midnightblue" stroke="midnightblue" points="92.3725,-192.17 81.8117,-193.019 90.5964,-198.941 92.3725,-192.17"/>
</g>
<!-- Node8&#45;&gt;Node4 -->
<g id="edge19" class="edge"><title>Node8&#45;&gt;Node4</title>
<path fill="none" stroke="midnightblue" d="M928.263,-240.933C941.258,-238.66 955.571,-236.44 968.812,-235 1142.64,-216.092 1590.43,-258.597 1754.81,-199 1772.98,-192.413 1813.92,-158.519 1837.4,-138.286"/>
<polygon fill="midnightblue" stroke="midnightblue" points="1839.93,-140.725 1845.18,-131.526 1835.34,-135.44 1839.93,-140.725"/>
</g>
<!-- Node9 -->
<g id="node9" class="node"><title>Node9</title>
<polygon fill="none" stroke="#bfbfbf" points="1025.81,-174 1025.81,-193 1071.81,-193 1071.81,-174 1025.81,-174"/>
<text text-anchor="middle" x="1048.81" y="-181" font-family="Helvetica,sans-Serif" font-size="10.00">chrono</text>
</g>
<!-- Node8&#45;&gt;Node9 -->
<g id="edge8" class="edge"><title>Node8&#45;&gt;Node9</title>
<path fill="none" stroke="midnightblue" d="M906.59,-240.869C935.095,-229.571 985.24,-209.696 1017.73,-196.818"/>
<polygon fill="midnightblue" stroke="midnightblue" points="1019.2,-200.002 1027.2,-193.064 1016.62,-193.495 1019.2,-200.002"/>
</g>
<!-- Node10 -->
<g id="node10" class="node"><title>Node10</title>
<polygon fill="none" stroke="#bfbfbf" points="889.812,-112.5 889.812,-131.5 941.812,-131.5 941.812,-112.5 889.812,-112.5"/>
<text text-anchor="middle" x="915.812" y="-119.5" font-family="Helvetica,sans-Serif" font-size="10.00">memory</text>
</g>
<!-- Node8&#45;&gt;Node10 -->
<g id="edge9" class="edge"><title>Node8&#45;&gt;Node10</title>
<path fill="none" stroke="midnightblue" d="M918.888,-240.868C940.161,-233.525 965.882,-220.624 978.812,-199 985.882,-187.175 985.116,-180.251 978.812,-168 971.734,-154.247 958.291,-143.766 945.634,-136.394"/>
<polygon fill="midnightblue" stroke="midnightblue" points="947.125,-133.222 936.659,-131.573 943.812,-139.389 947.125,-133.222"/>
</g>
<!-- Node11 -->
<g id="node11" class="node"><title>Node11</title>
<polygon fill="none" stroke="#bfbfbf" points="1208.31,-0.5 1208.31,-19.5 1249.31,-19.5 1249.31,-0.5 1208.31,-0.5"/>
<text text-anchor="middle" x="1228.81" y="-7.5" font-family="Helvetica,sans-Serif" font-size="10.00">string</text>
</g>
<!-- Node8&#45;&gt;Node11 -->
<g id="edge10" class="edge"><title>Node8&#45;&gt;Node11</title>
<path fill="none" stroke="midnightblue" d="M929.595,-240.953C942.24,-238.763 956.034,-236.581 968.812,-235 1137.3,-214.148 1620.66,-265.286 1725.81,-132 1738.01,-116.534 1738,-75.8105 1716.81,-56 1683.38,-24.7476 1361.43,-14.2411 1259.56,-11.6842"/>
<polygon fill="midnightblue" stroke="midnightblue" points="1259.4,-8.17959 1249.32,-11.4358 1259.23,-15.1775 1259.4,-8.17959"/>
</g>
<!-- Node12 -->
<g id="node12" class="node"><title>Node12</title>
<polygon fill="none" stroke="#bfbfbf" points="867.312,-0.5 867.312,-19.5 902.312,-19.5 902.312,-0.5 867.312,-0.5"/>
<text text-anchor="middle" x="884.812" y="-7.5" font-family="Helvetica,sans-Serif" font-size="10.00">map</text>
</g>
<!-- Node8&#45;&gt;Node12 -->
<g id="edge11" class="edge"><title>Node8&#45;&gt;Node12</title>
<path fill="none" stroke="midnightblue" d="M809.678,-247.138C625.233,-240.976 163.42,-223.195 140.812,-199 131.405,-188.933 132.133,-178.701 140.812,-168 152.563,-153.509 724.044,-42.1222 857.262,-16.3229"/>
<polygon fill="midnightblue" stroke="midnightblue" points="857.948,-19.7552 867.101,-14.4188 856.618,-12.8827 857.948,-19.7552"/>
</g>
<!-- Node13 -->
<g id="node13" class="node"><title>Node13</title>
<polygon fill="none" stroke="#bfbfbf" points="1127.81,-174 1127.81,-193 1219.81,-193 1219.81,-174 1127.81,-174"/>
<text text-anchor="middle" x="1173.81" y="-181" font-family="Helvetica,sans-Serif" font-size="10.00">Common/Timer.h</text>
</g>
<!-- Node8&#45;&gt;Node13 -->
<g id="edge14" class="edge"><title>Node8&#45;&gt;Node13</title>
<path fill="none" stroke="midnightblue" d="M924.581,-240.983C970.3,-231.134 1047.57,-214.307 1113.81,-199 1118.77,-197.853 1123.96,-196.632 1129.12,-195.405"/>
<polygon fill="midnightblue" stroke="midnightblue" points="1130.03,-198.786 1138.94,-193.052 1128.4,-191.979 1130.03,-198.786"/>
</g>
<!-- Node14 -->
<g id="node14" class="node"><title>Node14</title>
<polygon fill="none" stroke="#bfbfbf" points="149.812,-174 149.812,-193 247.812,-193 247.812,-174 149.812,-174"/>
<text text-anchor="middle" x="198.812" y="-181" font-family="Helvetica,sans-Serif" font-size="10.00">Framework/Task.h</text>
</g>
<!-- Node8&#45;&gt;Node14 -->
<g id="edge15" class="edge"><title>Node8&#45;&gt;Node14</title>
<path fill="none" stroke="midnightblue" d="M809.409,-247.445C691.016,-243.319 454.606,-231.45 256.812,-199 250.972,-198.042 244.856,-196.791 238.878,-195.426"/>
<polygon fill="midnightblue" stroke="midnightblue" points="239.559,-191.99 229.018,-193.052 237.92,-198.796 239.559,-191.99"/>
</g>
<!-- Node15 -->
<g id="node15" class="node"><title>Node15</title>
<polygon fill="none" stroke="#bfbfbf" points="266.312,-174 266.312,-193 383.312,-193 383.312,-174 266.312,-174"/>
<text text-anchor="middle" x="324.812" y="-181" font-family="Helvetica,sans-Serif" font-size="10.00">Headers/DataHeader.h</text>
</g>
<!-- Node8&#45;&gt;Node15 -->
<g id="edge16" class="edge"><title>Node8&#45;&gt;Node15</title>
<path fill="none" stroke="midnightblue" d="M809.724,-244.415C712.777,-237.254 539.025,-222.396 391.812,-199 385.02,-197.921 377.881,-196.59 370.898,-195.176"/>
<polygon fill="midnightblue" stroke="midnightblue" points="371.341,-191.693 360.836,-193.065 369.904,-198.544 371.341,-191.693"/>
</g>
<!-- Node16 -->
<g id="node16" class="node"><title>Node16</title>
<polygon fill="none" stroke="#bfbfbf" points="401.312,-174 401.312,-193 552.312,-193 552.312,-174 401.312,-174"/>
<text text-anchor="middle" x="476.812" y="-181" font-family="Helvetica,sans-Serif" font-size="10.00">Monitoring/MonitoringFactory.h</text>
</g>
<!-- Node8&#45;&gt;Node16 -->
<g id="edge17" class="edge"><title>Node8&#45;&gt;Node16</title>
<path fill="none" stroke="midnightblue" d="M828.286,-240.975C763.594,-231.153 654.486,-214.384 560.812,-199 552.625,-197.655 543.995,-196.204 535.509,-194.758"/>
<polygon fill="midnightblue" stroke="midnightblue" points="536.096,-191.308 525.649,-193.069 534.914,-198.207 536.096,-191.308"/>
</g>
<!-- Node17 -->
<g id="node17" class="node"><title>Node17</title>
<polygon fill="none" stroke="#bfbfbf" points="570.312,-168.5 570.312,-198.5 705.312,-198.5 705.312,-168.5 570.312,-168.5"/>
<text text-anchor="start" x="578.312" y="-186.5" font-family="Helvetica,sans-Serif" font-size="10.00">Configuration/Configuration</text>
<text text-anchor="middle" x="637.812" y="-175.5" font-family="Helvetica,sans-Serif" font-size="10.00">Interface.h</text>
</g>
<!-- Node8&#45;&gt;Node17 -->
<g id="edge18" class="edge"><title>Node8&#45;&gt;Node17</title>
<path fill="none" stroke="midnightblue" d="M852.267,-240.936C813.907,-230.841 749.277,-213.833 700.973,-201.122"/>
<polygon fill="midnightblue" stroke="midnightblue" points="701.798,-197.719 691.236,-198.559 700.016,-204.489 701.798,-197.719"/>
</g>
<!-- Node18 -->
<g id="node18" class="node"><title>Node18</title>
<g id="a_node18"><a xlink:href="CheckInterface_8h.html" target="_top" xlink:title="QualityControl/CheckInterface.h">
<polygon fill="none" stroke="black" points="1074.31,-112.5 1074.31,-131.5 1231.31,-131.5 1231.31,-112.5 1074.31,-112.5"/>
<text text-anchor="middle" x="1152.81" y="-119.5" font-family="Helvetica,sans-Serif" font-size="10.00">QualityControl/CheckInterface.h</text>
</a>
</g>
</g>
<!-- Node8&#45;&gt;Node18 -->
<g id="edge20" class="edge"><title>Node8&#45;&gt;Node18</title>
<path fill="none" stroke="midnightblue" d="M929.797,-240.922C979.371,-230.946 1055.45,-213.936 1080.81,-199 1106.18,-184.057 1128.28,-157.592 1141.08,-140.171"/>
<polygon fill="midnightblue" stroke="midnightblue" points="1144.26,-141.734 1147.2,-131.554 1138.56,-137.681 1144.26,-141.734"/>
</g>
<!-- Node21 -->
<g id="node21" class="node"><title>Node21</title>
<g id="a_node21"><a xlink:href="MonitorObject_8h.html" target="_top" xlink:title="QualityControl/MonitorObject.h">
<polygon fill="none" stroke="black" points="757.312,-56.5 757.312,-75.5 908.312,-75.5 908.312,-56.5 757.312,-56.5"/>
<text text-anchor="middle" x="832.812" y="-63.5" font-family="Helvetica,sans-Serif" font-size="10.00">QualityControl/MonitorObject.h</text>
</a>
</g>
</g>
<!-- Node8&#45;&gt;Node21 -->
<g id="edge46" class="edge"><title>Node8&#45;&gt;Node21</title>
<path fill="none" stroke="midnightblue" d="M850.797,-240.936C822.03,-232.788 780.411,-218.818 747.812,-199 730.338,-188.377 731.776,-177.77 713.812,-168 658.506,-137.921 615.257,-181.854 576.812,-132 571.383,-124.961 571.096,-118.808 576.812,-112 598.363,-86.3295 681.106,-75.2986 746.765,-70.561"/>
<polygon fill="midnightblue" stroke="midnightblue" points="747.406,-74.0255 757.145,-69.8534 746.93,-67.0417 747.406,-74.0255"/>
</g>
<!-- Node25 -->
<g id="node25" class="node"><title>Node25</title>
<g id="a_node25"><a xlink:href="DatabaseInterface_8h.html" target="_top" xlink:title="QualityControl/DatabaseInterface.h">
<polygon fill="none" stroke="black" points="799.812,-174 799.812,-193 969.812,-193 969.812,-174 799.812,-174"/>
<text text-anchor="middle" x="884.812" y="-181" font-family="Helvetica,sans-Serif" font-size="10.00">QualityControl/DatabaseInterface.h</text>
</a>
</g>
</g>
<!-- Node8&#45;&gt;Node25 -->
<g id="edge35" class="edge"><title>Node8&#45;&gt;Node25</title>
<path fill="none" stroke="midnightblue" d="M884.812,-240.734C884.812,-231.183 884.812,-215.618 884.812,-203.283"/>
<polygon fill="midnightblue" stroke="midnightblue" points="888.312,-203.127 884.812,-193.127 881.312,-203.127 888.312,-203.127"/>
</g>
<!-- Node27 -->
<g id="node27" class="node"><title>Node27</title>
<g id="a_node27"><a xlink:href="QcInfoLogger_8h.html" target="_top" xlink:title="QualityControl/QcInfoLogger.h">
<polygon fill="none" stroke="black" points="1568.31,-112.5 1568.31,-131.5 1717.31,-131.5 1717.31,-112.5 1568.31,-112.5"/>
<text text-anchor="middle" x="1642.81" y="-119.5" font-family="Helvetica,sans-Serif" font-size="10.00">QualityControl/QcInfoLogger.h</text>
</a>
</g>
</g>
<!-- Node8&#45;&gt;Node27 -->
<g id="edge47" class="edge"><title>Node8&#45;&gt;Node27</title>
<path fill="none" stroke="midnightblue" d="M930.485,-240.928C942.889,-238.788 956.34,-236.639 968.812,-235 1144.47,-211.913 1191.48,-230.563 1365.81,-199 1454.37,-182.967 1555.73,-151.77 1607.83,-134.757"/>
<polygon fill="midnightblue" stroke="midnightblue" points="1609.17,-138.001 1617.57,-131.552 1606.98,-131.351 1609.17,-138.001"/>
</g>
<!-- Node29 -->
<g id="node29" class="node"><title>Node29</title>
<g id="a_node29"><a xlink:href="Check_8h_source.html" target="_top" xlink:title="QualityControl/Check.h">
<polygon fill="none" stroke="black" points="1238.31,-174 1238.31,-193 1357.31,-193 1357.31,-174 1238.31,-174"/>
<text text-anchor="middle" x="1297.81" y="-181" font-family="Helvetica,sans-Serif" font-size="10.00">QualityControl/Check.h</text>
</a>
</g>
</g>
<!-- Node8&#45;&gt;Node29 -->
<g id="edge49" class="edge"><title>Node8&#45;&gt;Node29</title>
<path fill="none" stroke="midnightblue" d="M932.741,-240.942C944.523,-238.917 957.113,-236.819 968.812,-235 1084.08,-217.076 1113.88,-219.008 1228.81,-199 1235.54,-197.829 1242.61,-196.481 1249.55,-195.087"/>
<polygon fill="midnightblue" stroke="midnightblue" points="1250.49,-198.467 1259.58,-193.028 1249.08,-191.61 1250.49,-198.467"/>
</g>
<!-- Node18&#45;&gt;Node11 -->
<g id="edge21" class="edge"><title>Node18&#45;&gt;Node11</title>
<path fill="none" stroke="midnightblue" d="M1166.01,-112.46C1177.65,-104.33 1194.35,-91.1164 1204.81,-76 1214.65,-61.7966 1221,-43.0737 1224.68,-29.3717"/>
<polygon fill="midnightblue" stroke="midnightblue" points="1228.09,-30.1885 1227.08,-19.6416 1221.29,-28.5141 1228.09,-30.1885"/>
</g>
<!-- Node18&#45;&gt;Node12 -->
<g id="edge22" class="edge"><title>Node18&#45;&gt;Node12</title>
<path fill="none" stroke="midnightblue" d="M1147.63,-112.25C1138.73,-98.046 1119.13,-70.1402 1094.81,-56 1036.1,-21.8623 954.626,-13.5221 912.502,-11.5512"/>
<polygon fill="midnightblue" stroke="midnightblue" points="912.563,-8.05104 902.437,-11.1684 912.297,-15.046 912.563,-8.05104"/>
</g>
<!-- Node19 -->
<g id="node19" class="node"><title>Node19</title>
<polygon fill="none" stroke="#bfbfbf" points="1257.31,-56.5 1257.31,-75.5 1340.31,-75.5 1340.31,-56.5 1257.31,-56.5"/>
<text text-anchor="middle" x="1298.81" y="-63.5" font-family="Helvetica,sans-Serif" font-size="10.00">unordered_map</text>
</g>
<!-- Node18&#45;&gt;Node19 -->
<g id="edge23" class="edge"><title>Node18&#45;&gt;Node19</title>
<path fill="none" stroke="midnightblue" d="M1175.95,-112.444C1200.29,-103.438 1238.82,-89.1891 1266.23,-79.049"/>
<polygon fill="midnightblue" stroke="midnightblue" points="1267.62,-82.2681 1275.79,-75.5164 1265.19,-75.7028 1267.62,-82.2681"/>
</g>
<!-- Node20 -->
<g id="node20" class="node"><title>Node20</title>
<polygon fill="none" stroke="#bfbfbf" points="997.812,-0.5 997.812,-19.5 1053.81,-19.5 1053.81,-0.5 997.812,-0.5"/>
<text text-anchor="middle" x="1025.81" y="-7.5" font-family="Helvetica,sans-Serif" font-size="10.00">Rtypes.h</text>
</g>
<!-- Node18&#45;&gt;Node20 -->
<g id="edge24" class="edge"><title>Node18&#45;&gt;Node20</title>
<path fill="none" stroke="midnightblue" d="M1151.79,-112.288C1149.75,-98.6353 1144,-72.0999 1128.81,-56 1111.47,-37.6197 1085.32,-26.3201 1063.71,-19.6409"/>
<polygon fill="midnightblue" stroke="midnightblue" points="1064.41,-16.2016 1053.83,-16.8053 1062.48,-22.9297 1064.41,-16.2016"/>
</g>
<!-- Node18&#45;&gt;Node21 -->
<g id="edge25" class="edge"><title>Node18&#45;&gt;Node21</title>
<path fill="none" stroke="midnightblue" d="M1102.11,-112.444C1045.46,-102.885 953.816,-87.4195 893.432,-77.2298"/>
<polygon fill="midnightblue" stroke="midnightblue" points="893.722,-73.7293 883.279,-75.5164 892.557,-80.6317 893.722,-73.7293"/>
</g>
<!-- Node24 -->
<g id="node24" class="node"><title>Node24</title>
<g id="a_node24"><a xlink:href="Quality_8h.html" target="_top" xlink:title="QualityControl/Quality.h">
<polygon fill="none" stroke="black" points="965.312,-56.5 965.312,-75.5 1086.31,-75.5 1086.31,-56.5 965.312,-56.5"/>
<text text-anchor="middle" x="1025.81" y="-63.5" font-family="Helvetica,sans-Serif" font-size="10.00">QualityControl/Quality.h</text>
</a>
</g>
</g>
<!-- Node18&#45;&gt;Node24 -->
<g id="edge31" class="edge"><title>Node18&#45;&gt;Node24</title>
<path fill="none" stroke="midnightblue" d="M1132.69,-112.444C1111.79,-103.557 1078.88,-89.5632 1055.1,-79.4514"/>
<polygon fill="midnightblue" stroke="midnightblue" points="1056.41,-76.2085 1045.84,-75.5164 1053.67,-82.6504 1056.41,-76.2085"/>
</g>
<!-- Node21&#45;&gt;Node11 -->
<g id="edge26" class="edge"><title>Node21&#45;&gt;Node11</title>
<path fill="none" stroke="midnightblue" d="M895.559,-56.4435C981.706,-44.6962 1133.29,-24.0263 1198.06,-15.1936"/>
<polygon fill="midnightblue" stroke="midnightblue" points="1198.61,-18.6512 1208.04,-13.8321 1197.66,-11.7154 1198.61,-18.6512"/>
</g>
<!-- Node21&#45;&gt;Node12 -->
<g id="edge27" class="edge"><title>Node21&#45;&gt;Node12</title>
<path fill="none" stroke="midnightblue" d="M841.398,-56.083C848.971,-48.2195 860.19,-36.5688 869.326,-27.0813"/>
<polygon fill="midnightblue" stroke="midnightblue" points="871.969,-29.3821 876.385,-19.7511 866.927,-24.5266 871.969,-29.3821"/>
</g>
<!-- Node21&#45;&gt;Node20 -->
<g id="edge28" class="edge"><title>Node21&#45;&gt;Node20</title>
<path fill="none" stroke="midnightblue" d="M863.393,-56.4435C897.106,-47.0108 951.381,-31.8252 987.803,-21.6345"/>
<polygon fill="midnightblue" stroke="midnightblue" points="988.884,-24.9666 997.571,-18.9015 986.998,-18.2255 988.884,-24.9666"/>
</g>
<!-- Node22 -->
<g id="node22" class="node"><title>Node22</title>
<polygon fill="none" stroke="#bfbfbf" points="357.312,-0.5 357.312,-19.5 416.312,-19.5 416.312,-0.5 357.312,-0.5"/>
<text text-anchor="middle" x="386.812" y="-7.5" font-family="Helvetica,sans-Serif" font-size="10.00">TObject.h</text>
</g>
<!-- Node21&#45;&gt;Node22 -->
<g id="edge29" class="edge"><title>Node21&#45;&gt;Node22</title>
<path fill="none" stroke="midnightblue" d="M762.142,-56.4435C667.25,-44.9544 501.867,-24.9305 426.397,-15.7929"/>
<polygon fill="midnightblue" stroke="midnightblue" points="426.71,-12.3052 416.361,-14.5778 425.868,-19.2545 426.71,-12.3052"/>
</g>
<!-- Node23 -->
<g id="node23" class="node"><title>Node23</title>
<polygon fill="none" stroke="#bfbfbf" points="708.812,-0.5 708.812,-19.5 824.812,-19.5 824.812,-0.5 708.812,-0.5"/>
<text text-anchor="middle" x="766.812" y="-7.5" font-family="Helvetica,sans-Serif" font-size="10.00">Common/Exceptions.h</text>
</g>
<!-- Node21&#45;&gt;Node23 -->
<g id="edge30" class="edge"><title>Node21&#45;&gt;Node23</title>
<path fill="none" stroke="midnightblue" d="M822.208,-56.324C812.355,-48.2631 797.461,-36.0765 785.596,-26.3695"/>
<polygon fill="midnightblue" stroke="midnightblue" points="787.564,-23.4575 777.609,-19.8339 783.132,-28.8752 787.564,-23.4575"/>
</g>
<!-- Node24&#45;&gt;Node11 -->
<g id="edge33" class="edge"><title>Node24&#45;&gt;Node11</title>
<path fill="none" stroke="midnightblue" d="M1057.98,-56.4435C1096.5,-46.1953 1160.56,-29.1565 1198.32,-19.1103"/>
<polygon fill="midnightblue" stroke="midnightblue" points="1199.47,-22.4268 1208.23,-16.4736 1197.67,-15.662 1199.47,-22.4268"/>
</g>
<!-- Node24&#45;&gt;Node12 -->
<g id="edge34" class="edge"><title>Node24&#45;&gt;Node12</title>
<path fill="none" stroke="midnightblue" d="M1003.47,-56.4435C978.682,-46.9502 938.678,-31.6297 912.068,-21.4385"/>
<polygon fill="midnightblue" stroke="midnightblue" points="913.175,-18.1147 902.584,-17.8067 910.671,-24.6517 913.175,-18.1147"/>
</g>
<!-- Node24&#45;&gt;Node20 -->
<g id="edge32" class="edge"><title>Node24&#45;&gt;Node20</title>
<path fill="none" stroke="midnightblue" d="M1025.81,-56.083C1025.81,-49.0059 1025.81,-38.8611 1025.81,-29.9865"/>
<polygon fill="midnightblue" stroke="midnightblue" points="1029.31,-29.751 1025.81,-19.7511 1022.31,-29.7511 1029.31,-29.751"/>
</g>
<!-- Node25&#45;&gt;Node2 -->
<g id="edge38" class="edge"><title>Node25&#45;&gt;Node2</title>
<path fill="none" stroke="midnightblue" d="M836.71,-173.989C788.87,-165.229 713.211,-150.58 639.889,-132.38"/>
<polygon fill="midnightblue" stroke="midnightblue" points="640.581,-128.946 630.03,-129.908 638.878,-135.735 640.581,-128.946"/>
</g>
<!-- Node25&#45;&gt;Node10 -->
<g id="edge37" class="edge"><title>Node25&#45;&gt;Node10</title>
<path fill="none" stroke="midnightblue" d="M889.253,-173.975C893.765,-165.315 900.885,-151.649 906.618,-140.645"/>
<polygon fill="midnightblue" stroke="midnightblue" points="909.862,-141.995 911.378,-131.509 903.654,-138.76 909.862,-141.995"/>
</g>
<!-- Node25&#45;&gt;Node11 -->
<g id="edge36" class="edge"><title>Node25&#45;&gt;Node11</title>
<path fill="none" stroke="midnightblue" d="M880.964,-173.945C875.062,-159.369 865.928,-129.597 880.812,-112 911.954,-75.1807 1048.87,-90.672 1094.81,-76 1135.61,-62.9682 1179.72,-39.5844 1205.77,-24.703"/>
<polygon fill="midnightblue" stroke="midnightblue" points="1207.61,-27.681 1214.51,-19.6399 1204.1,-21.6238 1207.61,-27.681"/>
</g>
<!-- Node25&#45;&gt;Node19 -->
<g id="edge39" class="edge"><title>Node25&#45;&gt;Node19</title>
<path fill="none" stroke="midnightblue" d="M953.104,-173.995C1052.67,-161.422 1227.28,-138.643 1239.81,-132 1260.55,-121.003 1277.69,-99.7082 1288.06,-84.4885"/>
<polygon fill="midnightblue" stroke="midnightblue" points="1291.1,-86.2364 1293.61,-75.9435 1285.23,-82.4237 1291.1,-86.2364"/>
</g>
<!-- Node25&#45;&gt;Node21 -->
<g id="edge45" class="edge"><title>Node25&#45;&gt;Node21</title>
<path fill="none" stroke="midnightblue" d="M876.787,-173.9C868.332,-164.373 855.235,-148.205 847.812,-132 841.029,-117.193 837.172,-99.0402 835.073,-85.6849"/>
<polygon fill="midnightblue" stroke="midnightblue" points="838.539,-85.1977 833.697,-75.7737 831.605,-86.1599 838.539,-85.1977"/>
</g>
<!-- Node26 -->
<g id="node26" class="node"><title>Node26</title>
<g id="a_node26"><a xlink:href="QualityObject_8h_source.html" target="_top" xlink:title="QualityControl/QualityObject.h">
<polygon fill="none" stroke="black" points="647.312,-112.5 647.312,-131.5 796.312,-131.5 796.312,-112.5 647.312,-112.5"/>
<text text-anchor="middle" x="721.812" y="-119.5" font-family="Helvetica,sans-Serif" font-size="10.00">QualityControl/QualityObject.h</text>
</a>
</g>
</g>
<!-- Node25&#45;&gt;Node26 -->
<g id="edge40" class="edge"><title>Node25&#45;&gt;Node26</title>
<path fill="none" stroke="midnightblue" d="M861.458,-173.975C833.497,-163.769 786.485,-146.608 754.82,-135.049"/>
<polygon fill="midnightblue" stroke="midnightblue" points="755.716,-131.65 745.122,-131.509 753.316,-138.226 755.716,-131.65"/>
</g>
<!-- Node26&#45;&gt;Node12 -->
<g id="edge41" class="edge"><title>Node26&#45;&gt;Node12</title>
<path fill="none" stroke="midnightblue" d="M722.955,-112.1C725.209,-98.1889 731.507,-71.3063 747.812,-56 763.774,-41.0151 821.876,-25.5004 857.085,-17.1748"/>
<polygon fill="midnightblue" stroke="midnightblue" points="858.252,-20.497 867.204,-14.8303 856.672,-13.6776 858.252,-20.497"/>
</g>
<!-- Node26&#45;&gt;Node22 -->
<g id="edge42" class="edge"><title>Node26&#45;&gt;Node22</title>
<path fill="none" stroke="midnightblue" d="M695.803,-112.46C636.437,-92.9664 490.841,-45.1591 422.867,-22.839"/>
<polygon fill="midnightblue" stroke="midnightblue" points="423.627,-19.4048 413.034,-19.6104 421.443,-26.0555 423.627,-19.4048"/>
</g>
<!-- Node26&#45;&gt;Node23 -->
<g id="edge43" class="edge"><title>Node26&#45;&gt;Node23</title>
<path fill="none" stroke="midnightblue" d="M718.081,-112.128C713.23,-99.1675 706.319,-74.581 714.812,-56 720.589,-43.3602 731.864,-32.911 742.442,-25.2737"/>
<polygon fill="midnightblue" stroke="midnightblue" points="744.66,-28.0009 751.028,-19.5333 740.77,-22.1817 744.66,-28.0009"/>
</g>
<!-- Node26&#45;&gt;Node24 -->
<g id="edge44" class="edge"><title>Node26&#45;&gt;Node24</title>
<path fill="none" stroke="midnightblue" d="M769.981,-112.444C823.68,-102.905 910.498,-87.4834 967.866,-77.293"/>
<polygon fill="midnightblue" stroke="midnightblue" points="968.634,-80.7115 977.867,-75.5164 967.409,-73.8194 968.634,-80.7115"/>
</g>
<!-- Node28 -->
<g id="node28" class="node"><title>Node28</title>
<polygon fill="none" stroke="#bfbfbf" points="1577.81,-56.5 1577.81,-75.5 1707.81,-75.5 1707.81,-56.5 1577.81,-56.5"/>
<text text-anchor="middle" x="1642.81" y="-63.5" font-family="Helvetica,sans-Serif" font-size="10.00">InfoLogger/InfoLogger.hxx</text>
</g>
<!-- Node27&#45;&gt;Node28 -->
<g id="edge48" class="edge"><title>Node27&#45;&gt;Node28</title>
<path fill="none" stroke="midnightblue" d="M1642.81,-112.083C1642.81,-105.006 1642.81,-94.8611 1642.81,-85.9865"/>
<polygon fill="midnightblue" stroke="midnightblue" points="1646.31,-85.751 1642.81,-75.7511 1639.31,-85.7511 1646.31,-85.751"/>
</g>
<!-- Node29&#45;&gt;Node2 -->
<g id="edge52" class="edge"><title>Node29&#45;&gt;Node2</title>
<path fill="none" stroke="midnightblue" d="M1262.17,-173.973C1251.5,-171.701 1239.73,-169.472 1228.81,-168 971.327,-133.293 898.73,-176.978 640.027,-132.041"/>
<polygon fill="midnightblue" stroke="midnightblue" points="640.41,-128.555 629.954,-130.264 639.193,-135.448 640.41,-128.555"/>
</g>
<!-- Node29&#45;&gt;Node4 -->
<g id="edge55" class="edge"><title>Node29&#45;&gt;Node4</title>
<path fill="none" stroke="midnightblue" d="M1357.42,-176.132C1455.22,-165.685 1650.31,-144.845 1764.94,-132.6"/>
<polygon fill="midnightblue" stroke="midnightblue" points="1765.53,-136.057 1775.1,-131.515 1764.78,-129.097 1765.53,-136.057"/>
</g>
<!-- Node29&#45;&gt;Node10 -->
<g id="edge53" class="edge"><title>Node29&#45;&gt;Node10</title>
<path fill="none" stroke="midnightblue" d="M1259.59,-173.927C1249.6,-171.835 1238.83,-169.71 1228.81,-168 1108.17,-147.401 1076.3,-153.454 955.812,-132 954.55,-131.775 953.268,-131.538 951.975,-131.29"/>
<polygon fill="midnightblue" stroke="midnightblue" points="952.492,-127.824 941.993,-129.246 951.088,-134.681 952.492,-127.824"/>
</g>
<!-- Node29&#45;&gt;Node12 -->
<g id="edge51" class="edge"><title>Node29&#45;&gt;Node12</title>
<path fill="none" stroke="midnightblue" d="M1257.7,-173.958C1248.23,-171.973 1238.17,-169.889 1228.81,-168 1146.28,-151.341 1120.96,-163.353 1042.81,-132 982.658,-107.866 925.822,-54.1277 899.742,-27.132"/>
<polygon fill="midnightblue" stroke="midnightblue" points="902.088,-24.5199 892.666,-19.675 897.01,-29.3382 902.088,-24.5199"/>
</g>
<!-- Node29&#45;&gt;Node18 -->
<g id="edge59" class="edge"><title>Node29&#45;&gt;Node18</title>
<path fill="none" stroke="midnightblue" d="M1277.04,-173.975C1252.38,-163.857 1211.07,-146.905 1182.91,-135.351"/>
<polygon fill="midnightblue" stroke="midnightblue" points="1184.13,-132.067 1173.55,-131.509 1181.47,-138.543 1184.13,-132.067"/>
</g>
<!-- Node29&#45;&gt;Node19 -->
<g id="edge54" class="edge"><title>Node29&#45;&gt;Node19</title>
<path fill="none" stroke="midnightblue" d="M1297.89,-173.819C1298.05,-155.257 1298.43,-111.339 1298.65,-85.9734"/>
<polygon fill="midnightblue" stroke="midnightblue" points="1302.15,-85.812 1298.74,-75.782 1295.15,-85.7513 1302.15,-85.812"/>
</g>
<!-- Node29&#45;&gt;Node21 -->
<g id="edge58" class="edge"><title>Node29&#45;&gt;Node21</title>
<path fill="none" stroke="midnightblue" d="M1259.2,-173.995C1249.32,-171.925 1238.69,-169.793 1228.81,-168 1124.85,-149.128 1094.95,-162.587 993.812,-132 973.637,-125.899 970.226,-120.205 950.812,-112 922.714,-100.126 890.305,-87.8673 866.57,-79.1492"/>
<polygon fill="midnightblue" stroke="midnightblue" points="867.56,-75.7848 856.966,-75.641 865.158,-82.3598 867.56,-75.7848"/>
</g>
<!-- Node29&#45;&gt;Node24 -->
<g id="edge56" class="edge"><title>Node29&#45;&gt;Node24</title>
<path fill="none" stroke="midnightblue" d="M1257.38,-173.947C1191.19,-159.917 1066.79,-133.415 1064.81,-132 1048.8,-120.525 1038.18,-100.249 1032.12,-85.3861"/>
<polygon fill="midnightblue" stroke="midnightblue" points="1035.29,-83.8605 1028.5,-75.7233 1028.73,-86.3157 1035.29,-83.8605"/>
</g>
<!-- Node29&#45;&gt;Node26 -->
<g id="edge57" class="edge"><title>Node29&#45;&gt;Node26</title>
<path fill="none" stroke="midnightblue" d="M1261.07,-173.937C1250.69,-171.746 1239.34,-169.569 1228.81,-168 1081.15,-146.01 907.568,-133.446 806.593,-127.443"/>
<polygon fill="midnightblue" stroke="midnightblue" points="806.638,-123.94 796.45,-126.848 806.228,-130.928 806.638,-123.94"/>
</g>
<!-- Node29&#45;&gt;Node27 -->
<g id="edge60" class="edge"><title>Node29&#45;&gt;Node27</title>
<path fill="none" stroke="midnightblue" d="M1347.24,-173.975C1409.62,-163.216 1516.81,-144.73 1583.53,-133.224"/>
<polygon fill="midnightblue" stroke="midnightblue" points="1584.21,-136.658 1593.47,-131.509 1583.02,-129.76 1584.21,-136.658"/>
</g>
<!-- Node30 -->
<g id="node30" class="node"><title>Node30</title>
<polygon fill="none" stroke="#bfbfbf" points="1326.31,-112.5 1326.31,-131.5 1385.31,-131.5 1385.31,-112.5 1326.31,-112.5"/>
<text text-anchor="middle" x="1355.81" y="-119.5" font-family="Helvetica,sans-Serif" font-size="10.00">functional</text>
</g>
<!-- Node29&#45;&gt;Node30 -->
<g id="edge50" class="edge"><title>Node29&#45;&gt;Node30</title>
<path fill="none" stroke="midnightblue" d="M1306.12,-173.975C1314.99,-164.873 1329.26,-150.241 1340.23,-138.983"/>
<polygon fill="midnightblue" stroke="midnightblue" points="1343.04,-141.113 1347.52,-131.509 1338.03,-136.227 1343.04,-141.113"/>
</g>
<!-- Node31 -->
<g id="node31" class="node"><title>Node31</title>
<g id="a_node31"><a xlink:href="CheckConfig_8h.html" target="_top" xlink:title="QualityControl/CheckConfig.h">
<polygon fill="none" stroke="black" points="1403.31,-112.5 1403.31,-131.5 1550.31,-131.5 1550.31,-112.5 1403.31,-112.5"/>
<text text-anchor="middle" x="1476.81" y="-119.5" font-family="Helvetica,sans-Serif" font-size="10.00">QualityControl/CheckConfig.h</text>
</a>
</g>
</g>
<!-- Node29&#45;&gt;Node31 -->
<g id="edge61" class="edge"><title>Node29&#45;&gt;Node31</title>
<path fill="none" stroke="midnightblue" d="M1323.46,-173.975C1354.43,-163.68 1406.68,-146.31 1441.46,-134.75"/>
<polygon fill="midnightblue" stroke="midnightblue" points="1442.83,-137.985 1451.21,-131.509 1440.62,-131.342 1442.83,-137.985"/>
</g>
<!-- Node31&#45;&gt;Node11 -->
<g id="edge62" class="edge"><title>Node31&#45;&gt;Node11</title>
<path fill="none" stroke="midnightblue" d="M1461.32,-112.424C1437.51,-99.4101 1390.33,-74.2608 1348.81,-56 1318.74,-42.7741 1283.43,-29.8346 1258.94,-21.2511"/>
<polygon fill="midnightblue" stroke="midnightblue" points="1260.07,-17.9377 1249.47,-17.962 1257.77,-24.55 1260.07,-17.9377"/>
</g>
<!-- Node31&#45;&gt;Node19 -->
<g id="edge63" class="edge"><title>Node31&#45;&gt;Node19</title>
<path fill="none" stroke="midnightblue" d="M1448.61,-112.444C1418.4,-103.28 1370.3,-88.6876 1336.78,-78.5192"/>
<polygon fill="midnightblue" stroke="midnightblue" points="1337.47,-75.0703 1326.88,-75.5164 1335.44,-81.7688 1337.47,-75.0703"/>
</g>
<!-- Node32&#45;&gt;Node4 -->
<g id="edge66" class="edge"><title>Node32&#45;&gt;Node4</title>
<path fill="none" stroke="midnightblue" d="M1901.42,-235.218C1892.57,-225.698 1881.66,-212.494 1874.81,-199 1865.57,-180.79 1860.3,-157.895 1857.51,-142.017"/>
<polygon fill="midnightblue" stroke="midnightblue" points="1860.93,-141.192 1855.9,-131.864 1854.01,-142.288 1860.93,-141.192"/>
</g>
<!-- Node32&#45;&gt;Node11 -->
<g id="edge65" class="edge"><title>Node32&#45;&gt;Node11</title>
<path fill="none" stroke="midnightblue" d="M1986.91,-238.247C2009.54,-230.937 2032.21,-218.882 2045.81,-199 2053.59,-187.63 2052.78,-179.886 2045.81,-168 1963.95,-28.3268 1398.94,-12.8817 1259.75,-11.2001"/>
<polygon fill="midnightblue" stroke="midnightblue" points="1259.43,-7.69666 1249.39,-11.0916 1259.36,-14.6963 1259.43,-7.69666"/>
</g>
<!-- Node32&#45;&gt;Node29 -->
<g id="edge68" class="edge"><title>Node32&#45;&gt;Node29</title>
<path fill="none" stroke="midnightblue" d="M1844.62,-242.012C1725.27,-229.459 1486.27,-204.322 1367.76,-191.857"/>
<polygon fill="midnightblue" stroke="midnightblue" points="1368.02,-188.365 1357.71,-190.8 1367.29,-195.327 1368.02,-188.365"/>
</g>
<!-- Node33 -->
<g id="node33" class="node"><title>Node33</title>
<polygon fill="none" stroke="#bfbfbf" points="1883.31,-174 1883.31,-193 2036.31,-193 2036.31,-174 1883.31,-174"/>
<text text-anchor="middle" x="1959.81" y="-181" font-family="Helvetica,sans-Serif" font-size="10.00">Framework/CompletionPolicy.h</text>
</g>
<!-- Node32&#45;&gt;Node33 -->
<g id="edge67" class="edge"><title>Node32&#45;&gt;Node33</title>
<path fill="none" stroke="midnightblue" d="M1925.36,-235.396C1932.08,-225.462 1941.12,-212.108 1948.26,-201.572"/>
<polygon fill="midnightblue" stroke="midnightblue" points="1951.22,-203.438 1953.93,-193.195 1945.42,-199.514 1951.22,-203.438"/>
</g>
</g>
</svg>
