<?xml version="1.0" encoding="UTF-8" standalone="no"?>
<!DOCTYPE svg PUBLIC "-//W3C//DTD SVG 1.1//EN"
 "http://www.w3.org/Graphics/SVG/1.1/DTD/svg11.dtd">
<!-- Generated by graphviz version 2.38.0 (20140413.2041)
 -->
<!-- Title: o2::quality_control::postprocessing::Reductor Pages: 1 -->
<svg width="1212pt" height="380pt"
 viewBox="0.00 0.00 1212.00 380.00" xmlns="http://www.w3.org/2000/svg" xmlns:xlink="http://www.w3.org/1999/xlink">
<g id="graph0" class="graph" transform="scale(1 1) rotate(0) translate(4 376)">
<title>o2::quality_control::postprocessing::Reductor</title>
<!-- Node1 -->
<g id="node1" class="node"><title>Node1</title>
<polygon fill="#bfbfbf" stroke="black" points="529,-259.5 529,-371.5 663,-371.5 663,-259.5 529,-259.5"/>
<text text-anchor="start" x="537" y="-359.5" font-family="Helvetica,sans-Serif" font-size="10.00">o2::quality_control</text>
<text text-anchor="middle" x="596" y="-348.5" font-family="Helvetica,sans-Serif" font-size="10.00">::postprocessing::Reductor</text>
<polyline fill="none" stroke="black" points="529,-341.5 663,-341.5 "/>
<text text-anchor="middle" x="596" y="-329.5" font-family="Helvetica,sans-Serif" font-size="10.00"> </text>
<polyline fill="none" stroke="black" points="529,-322.5 663,-322.5 "/>
<text text-anchor="start" x="537" y="-310.5" font-family="Helvetica,sans-Serif" font-size="10.00">+ Reductor()</text>
<text text-anchor="start" x="537" y="-299.5" font-family="Helvetica,sans-Serif" font-size="10.00">+ ~Reductor()</text>
<text text-anchor="start" x="537" y="-288.5" font-family="Helvetica,sans-Serif" font-size="10.00">+ getBranchAddress()</text>
<text text-anchor="start" x="537" y="-277.5" font-family="Helvetica,sans-Serif" font-size="10.00">+ getBranchLeafList()</text>
<text text-anchor="start" x="537" y="-266.5" font-family="Helvetica,sans-Serif" font-size="10.00">+ update()</text>
</g>
<!-- Node2 -->
<g id="node2" class="node"><title>Node2</title>
<g id="a_node2"><a xlink:href="classMyReductor.html" target="_top" xlink:title="{MyReductor\n|+ integral\l|+ MyReductor()\l+ ~MyReductor()\l+ getBranchAddress()\l+ getBranchLeafList()\l+ update()\l}">
<polygon fill="none" stroke="black" points="0,-61 0,-162 112,-162 112,-61 0,-61"/>
<text text-anchor="middle" x="56" y="-150" font-family="Helvetica,sans-Serif" font-size="10.00">MyReductor</text>
<polyline fill="none" stroke="black" points="0,-143 112,-143 "/>
<text text-anchor="start" x="8" y="-131" font-family="Helvetica,sans-Serif" font-size="10.00">+ integral</text>
<polyline fill="none" stroke="black" points="0,-124 112,-124 "/>
<text text-anchor="start" x="8" y="-112" font-family="Helvetica,sans-Serif" font-size="10.00">+ MyReductor()</text>
<text text-anchor="start" x="8" y="-101" font-family="Helvetica,sans-Serif" font-size="10.00">+ ~MyReductor()</text>
<text text-anchor="start" x="8" y="-90" font-family="Helvetica,sans-Serif" font-size="10.00">+ getBranchAddress()</text>
<text text-anchor="start" x="8" y="-79" font-family="Helvetica,sans-Serif" font-size="10.00">+ getBranchLeafList()</text>
<text text-anchor="start" x="8" y="-68" font-family="Helvetica,sans-Serif" font-size="10.00">+ update()</text>
</a>
</g>
</g>
<!-- Node1&#45;&gt;Node2 -->
<g id="edge1" class="edge"><title>Node1&#45;&gt;Node2</title>
<path fill="none" stroke="midnightblue" d="M518.717,-307.362C401.057,-295.226 183.999,-267.472 121,-223 99.9078,-208.111 84.5845,-184.027 74.1327,-162.138"/>
<polygon fill="none" stroke="midnightblue" points="518.443,-310.852 528.746,-308.383 519.152,-303.888 518.443,-310.852"/>
</g>
<!-- Node3 -->
<g id="node3" class="node"><title>Node3</title>
<g id="a_node3"><a xlink:href="classo2_1_1quality__control__modules_1_1common_1_1QualityReductor.html" target="_top" xlink:title="A Reductor of QualityObjects, stores a name and level of a Quality. ">
<polygon fill="none" stroke="black" points="130.5,-44.5 130.5,-178.5 309.5,-178.5 309.5,-44.5 130.5,-44.5"/>
<text text-anchor="start" x="138.5" y="-166.5" font-family="Helvetica,sans-Serif" font-size="10.00">o2::quality_control</text>
<text text-anchor="middle" x="220" y="-155.5" font-family="Helvetica,sans-Serif" font-size="10.00">_modules::common::QualityReductor</text>
<polyline fill="none" stroke="black" points="130.5,-148.5 309.5,-148.5 "/>
<text text-anchor="start" x="138.5" y="-136.5" font-family="Helvetica,sans-Serif" font-size="10.00">+ level</text>
<text text-anchor="start" x="138.5" y="-125.5" font-family="Helvetica,sans-Serif" font-size="10.00">+ name</text>
<text text-anchor="start" x="138.5" y="-114.5" font-family="Helvetica,sans-Serif" font-size="10.00">+ NAME_SIZE</text>
<polyline fill="none" stroke="black" points="130.5,-107.5 309.5,-107.5 "/>
<text text-anchor="start" x="138.5" y="-95.5" font-family="Helvetica,sans-Serif" font-size="10.00">+ QualityReductor()</text>
<text text-anchor="start" x="138.5" y="-84.5" font-family="Helvetica,sans-Serif" font-size="10.00">+ ~QualityReductor()</text>
<text text-anchor="start" x="138.5" y="-73.5" font-family="Helvetica,sans-Serif" font-size="10.00">+ getBranchAddress()</text>
<text text-anchor="start" x="138.5" y="-62.5" font-family="Helvetica,sans-Serif" font-size="10.00">+ getBranchLeafList()</text>
<text text-anchor="start" x="138.5" y="-51.5" font-family="Helvetica,sans-Serif" font-size="10.00">+ update()</text>
</a>
</g>
</g>
<!-- Node1&#45;&gt;Node3 -->
<g id="edge2" class="edge"><title>Node1&#45;&gt;Node3</title>
<path fill="none" stroke="midnightblue" d="M518.804,-300.539C460.162,-287.334 379.406,-263.374 318,-223 299.788,-211.026 282.866,-194.821 268.385,-178.516"/>
<polygon fill="none" stroke="midnightblue" points="518.233,-303.997 528.751,-302.724 519.735,-297.16 518.233,-303.997"/>
</g>
<!-- Node4 -->
<g id="node4" class="node"><title>Node4</title>
<g id="a_node4"><a xlink:href="classo2_1_1quality__control__modules_1_1common_1_1TH1Reductor.html" target="_top" xlink:title="A Reductor which obtains the most popular characteristics of TH1. ">
<polygon fill="none" stroke="black" points="327.5,-44.5 327.5,-178.5 494.5,-178.5 494.5,-44.5 327.5,-44.5"/>
<text text-anchor="start" x="335.5" y="-166.5" font-family="Helvetica,sans-Serif" font-size="10.00">o2::quality_control</text>
<text text-anchor="middle" x="411" y="-155.5" font-family="Helvetica,sans-Serif" font-size="10.00">_modules::common::TH1Reductor</text>
<polyline fill="none" stroke="black" points="327.5,-148.5 494.5,-148.5 "/>
<text text-anchor="start" x="335.5" y="-136.5" font-family="Helvetica,sans-Serif" font-size="10.00">+ mean</text>
<text text-anchor="start" x="335.5" y="-125.5" font-family="Helvetica,sans-Serif" font-size="10.00">+ stddev</text>
<text text-anchor="start" x="335.5" y="-114.5" font-family="Helvetica,sans-Serif" font-size="10.00">+ entries</text>
<polyline fill="none" stroke="black" points="327.5,-107.5 494.5,-107.5 "/>
<text text-anchor="start" x="335.5" y="-95.5" font-family="Helvetica,sans-Serif" font-size="10.00">+ TH1Reductor()</text>
<text text-anchor="start" x="335.5" y="-84.5" font-family="Helvetica,sans-Serif" font-size="10.00">+ ~TH1Reductor()</text>
<text text-anchor="start" x="335.5" y="-73.5" font-family="Helvetica,sans-Serif" font-size="10.00">+ getBranchAddress()</text>
<text text-anchor="start" x="335.5" y="-62.5" font-family="Helvetica,sans-Serif" font-size="10.00">+ getBranchLeafList()</text>
<text text-anchor="start" x="335.5" y="-51.5" font-family="Helvetica,sans-Serif" font-size="10.00">+ update()</text>
</a>
</g>
</g>
<!-- Node1&#45;&gt;Node4 -->
<g id="edge3" class="edge"><title>Node1&#45;&gt;Node4</title>
<path fill="none" stroke="midnightblue" d="M531.598,-251.904C522.202,-242.354 512.752,-232.511 504,-223 491.096,-208.977 477.657,-193.542 465.139,-178.768"/>
<polygon fill="none" stroke="midnightblue" points="529.237,-254.495 538.76,-259.139 534.212,-249.57 529.237,-254.495"/>
</g>
<!-- Node5 -->
<g id="node5" class="node"><title>Node5</title>
<g id="a_node5"><a xlink:href="classo2_1_1quality__control__modules_1_1common_1_1TH2Reductor.html" target="_top" xlink:title="A Reductor which obtains the most popular characteristics of TH2. ">
<polygon fill="none" stroke="black" points="512.5,-0.5 512.5,-222.5 679.5,-222.5 679.5,-0.5 512.5,-0.5"/>
<text text-anchor="start" x="520.5" y="-210.5" font-family="Helvetica,sans-Serif" font-size="10.00">o2::quality_control</text>
<text text-anchor="middle" x="596" y="-199.5" font-family="Helvetica,sans-Serif" font-size="10.00">_modules::common::TH2Reductor</text>
<polyline fill="none" stroke="black" points="512.5,-192.5 679.5,-192.5 "/>
<text text-anchor="start" x="520.5" y="-180.5" font-family="Helvetica,sans-Serif" font-size="10.00">+ sumw</text>
<text text-anchor="start" x="520.5" y="-169.5" font-family="Helvetica,sans-Serif" font-size="10.00">+ sumw2</text>
<text text-anchor="start" x="520.5" y="-158.5" font-family="Helvetica,sans-Serif" font-size="10.00">+ sumwx</text>
<text text-anchor="start" x="520.5" y="-147.5" font-family="Helvetica,sans-Serif" font-size="10.00">+ sumwx2</text>
<text text-anchor="start" x="520.5" y="-136.5" font-family="Helvetica,sans-Serif" font-size="10.00">+ sumwy</text>
<text text-anchor="start" x="520.5" y="-125.5" font-family="Helvetica,sans-Serif" font-size="10.00">+ sumwy2</text>
<text text-anchor="start" x="520.5" y="-114.5" font-family="Helvetica,sans-Serif" font-size="10.00">+ sumwxy</text>
<text text-anchor="start" x="520.5" y="-103.5" font-family="Helvetica,sans-Serif" font-size="10.00">+ named</text>
<text text-anchor="start" x="520.5" y="-92.5" font-family="Helvetica,sans-Serif" font-size="10.00">+ array</text>
<text text-anchor="start" x="520.5" y="-81.5" font-family="Helvetica,sans-Serif" font-size="10.00">+ sums</text>
<text text-anchor="start" x="520.5" y="-70.5" font-family="Helvetica,sans-Serif" font-size="10.00">+ entries</text>
<polyline fill="none" stroke="black" points="512.5,-63.5 679.5,-63.5 "/>
<text text-anchor="start" x="520.5" y="-51.5" font-family="Helvetica,sans-Serif" font-size="10.00">+ TH2Reductor()</text>
<text text-anchor="start" x="520.5" y="-40.5" font-family="Helvetica,sans-Serif" font-size="10.00">+ ~TH2Reductor()</text>
<text text-anchor="start" x="520.5" y="-29.5" font-family="Helvetica,sans-Serif" font-size="10.00">+ getBranchAddress()</text>
<text text-anchor="start" x="520.5" y="-18.5" font-family="Helvetica,sans-Serif" font-size="10.00">+ getBranchLeafList()</text>
<text text-anchor="start" x="520.5" y="-7.5" font-family="Helvetica,sans-Serif" font-size="10.00">+ update()</text>
</a>
</g>
</g>
<!-- Node1&#45;&gt;Node5 -->
<g id="edge4" class="edge"><title>Node1&#45;&gt;Node5</title>
<path fill="none" stroke="midnightblue" d="M596,-249.145C596,-240.645 596,-231.758 596,-222.772"/>
<polygon fill="none" stroke="midnightblue" points="592.5,-249.303 596,-259.303 599.5,-249.303 592.5,-249.303"/>
</g>
<!-- Node6 -->
<g id="node6" class="node"><title>Node6</title>
<g id="a_node6"><a xlink:href="classo2_1_1quality__control__modules_1_1common_1_1THnSparseReductor.html" target="_top" xlink:title="A Reductor which obtains the most popular characteristics of THnSparse. ">
<polygon fill="none" stroke="black" points="697,-39 697,-184 855,-184 855,-39 697,-39"/>
<text text-anchor="start" x="705" y="-172" font-family="Helvetica,sans-Serif" font-size="10.00">o2::quality_control</text>
<text text-anchor="start" x="705" y="-161" font-family="Helvetica,sans-Serif" font-size="10.00">_modules::common::THnSparse</text>
<text text-anchor="middle" x="776" y="-150" font-family="Helvetica,sans-Serif" font-size="10.00">Reductor</text>
<polyline fill="none" stroke="black" points="697,-143 855,-143 "/>
<text text-anchor="start" x="705" y="-131" font-family="Helvetica,sans-Serif" font-size="10.00">+ mean</text>
<text text-anchor="start" x="705" y="-120" font-family="Helvetica,sans-Serif" font-size="10.00">+ stddev</text>
<text text-anchor="start" x="705" y="-109" font-family="Helvetica,sans-Serif" font-size="10.00">+ entries</text>
<polyline fill="none" stroke="black" points="697,-102 855,-102 "/>
<text text-anchor="start" x="705" y="-90" font-family="Helvetica,sans-Serif" font-size="10.00">+ THnSparseReductor()</text>
<text text-anchor="start" x="705" y="-79" font-family="Helvetica,sans-Serif" font-size="10.00">+ ~THnSparseReductor()</text>
<text text-anchor="start" x="705" y="-68" font-family="Helvetica,sans-Serif" font-size="10.00">+ getBranchAddress()</text>
<text text-anchor="start" x="705" y="-57" font-family="Helvetica,sans-Serif" font-size="10.00">+ getBranchLeafList()</text>
<text text-anchor="start" x="705" y="-46" font-family="Helvetica,sans-Serif" font-size="10.00">+ update()</text>
</a>
</g>
</g>
<!-- Node1&#45;&gt;Node6 -->
<g id="edge5" class="edge"><title>Node1&#45;&gt;Node6</title>
<path fill="none" stroke="midnightblue" d="M660.636,-252.117C669.999,-242.537 679.378,-232.628 688,-223 698.961,-210.759 710.213,-197.357 720.852,-184.24"/>
<polygon fill="none" stroke="midnightblue" points="658.017,-249.788 653.492,-259.368 663.004,-254.701 658.017,-249.788"/>
</g>
<!-- Node7 -->
<g id="node7" class="node"><title>Node7</title>
<g id="a_node7"><a xlink:href="classo2_1_1quality__control__modules_1_1emcal_1_1DigitOccupancyReductor.html" target="_top" xlink:title="A Reductor which obtains the most popular characteristics of TH2. ">
<polygon fill="none" stroke="black" points="872.5,-44.5 872.5,-178.5 1039.5,-178.5 1039.5,-44.5 872.5,-44.5"/>
<text text-anchor="start" x="880.5" y="-166.5" font-family="Helvetica,sans-Serif" font-size="10.00">o2::quality_control</text>
<text text-anchor="start" x="880.5" y="-155.5" font-family="Helvetica,sans-Serif" font-size="10.00">_modules::emcal::DigitOccupancy</text>
<text text-anchor="middle" x="956" y="-144.5" font-family="Helvetica,sans-Serif" font-size="10.00">Reductor</text>
<polyline fill="none" stroke="black" points="872.5,-137.5 1039.5,-137.5 "/>
<text text-anchor="start" x="880.5" y="-125.5" font-family="Helvetica,sans-Serif" font-size="10.00">+ mCountTotal</text>
<text text-anchor="start" x="880.5" y="-114.5" font-family="Helvetica,sans-Serif" font-size="10.00">+ mCountSM</text>
<polyline fill="none" stroke="black" points="872.5,-107.5 1039.5,-107.5 "/>
<text text-anchor="start" x="880.5" y="-95.5" font-family="Helvetica,sans-Serif" font-size="10.00">+ DigitOccupancyReductor()</text>
<text text-anchor="start" x="880.5" y="-84.5" font-family="Helvetica,sans-Serif" font-size="10.00">+ ~DigitOccupancyReductor()</text>
<text text-anchor="start" x="880.5" y="-73.5" font-family="Helvetica,sans-Serif" font-size="10.00">+ getBranchAddress()</text>
<text text-anchor="start" x="880.5" y="-62.5" font-family="Helvetica,sans-Serif" font-size="10.00">+ getBranchLeafList()</text>
<text text-anchor="start" x="880.5" y="-51.5" font-family="Helvetica,sans-Serif" font-size="10.00">+ update()</text>
</a>
</g>
</g>
<!-- Node1&#45;&gt;Node7 -->
<g id="edge6" class="edge"><title>Node1&#45;&gt;Node7</title>
<path fill="none" stroke="midnightblue" d="M673.076,-299.964C729.588,-286.631 806.212,-262.769 864,-223 881.376,-211.042 897.305,-194.939 910.849,-178.73"/>
<polygon fill="none" stroke="midnightblue" points="672.084,-296.601 663.123,-302.253 673.653,-303.422 672.084,-296.601"/>
</g>
<!-- Node8 -->
<g id="node8" class="node"><title>Node8</title>
<g id="a_node8"><a xlink:href="classo2_1_1quality__control__modules_1_1tpc_1_1ROCReductor.html" target="_top" xlink:title="A Reductor of ROC, stores mean, standard deviation and median for each ROC. ">
<polygon fill="none" stroke="black" points="1058,-44.5 1058,-178.5 1204,-178.5 1204,-44.5 1058,-44.5"/>
<text text-anchor="start" x="1066" y="-166.5" font-family="Helvetica,sans-Serif" font-size="10.00">o2::quality_control</text>
<text text-anchor="middle" x="1131" y="-155.5" font-family="Helvetica,sans-Serif" font-size="10.00">_modules::tpc::ROCReductor</text>
<polyline fill="none" stroke="black" points="1058,-148.5 1204,-148.5 "/>
<text text-anchor="start" x="1066" y="-136.5" font-family="Helvetica,sans-Serif" font-size="10.00">+ mean</text>
<text text-anchor="start" x="1066" y="-125.5" font-family="Helvetica,sans-Serif" font-size="10.00">+ stddev</text>
<text text-anchor="start" x="1066" y="-114.5" font-family="Helvetica,sans-Serif" font-size="10.00">+ median</text>
<polyline fill="none" stroke="black" points="1058,-107.5 1204,-107.5 "/>
<text text-anchor="start" x="1066" y="-95.5" font-family="Helvetica,sans-Serif" font-size="10.00">+ ROCReductor()</text>
<text text-anchor="start" x="1066" y="-84.5" font-family="Helvetica,sans-Serif" font-size="10.00">+ ~ROCReductor()</text>
<text text-anchor="start" x="1066" y="-73.5" font-family="Helvetica,sans-Serif" font-size="10.00">+ getBranchAddress()</text>
<text text-anchor="start" x="1066" y="-62.5" font-family="Helvetica,sans-Serif" font-size="10.00">+ getBranchLeafList()</text>
<text text-anchor="start" x="1066" y="-51.5" font-family="Helvetica,sans-Serif" font-size="10.00">+ update()</text>
</a>
</g>
</g>
<!-- Node1&#45;&gt;Node8 -->
<g id="edge7" class="edge"><title>Node1&#45;&gt;Node8</title>
<path fill="none" stroke="midnightblue" d="M673.448,-305.644C785.88,-291.661 987.591,-262.002 1049,-223 1066.65,-211.793 1081.81,-195.338 1094.12,-178.532"/>
<polygon fill="none" stroke="midnightblue" points="672.683,-302.211 663.186,-306.907 673.539,-309.159 672.683,-302.211"/>
</g>
</g>
</svg>
