<?xml version="1.0" encoding="UTF-8" standalone="no"?>
<!DOCTYPE svg PUBLIC "-//W3C//DTD SVG 1.1//EN"
 "http://www.w3.org/Graphics/SVG/1.1/DTD/svg11.dtd">
<!-- Generated by graphviz version 2.38.0 (20140413.2041)
 -->
<!-- Title: o2::quality_control_modules::tof::DiagnosticsCounter Pages: 1 -->
<!--zoomable 551 -->
<svg id="main" version="1.1" xmlns="http://www.w3.org/2000/svg" xmlns:xlink="http://www.w3.org/1999/xlink" xml:space="preserve" onload="init(evt)">
<style type="text/css"><![CDATA[
.edge:hover path { stroke: red; }
.edge:hover polygon { stroke: red; fill: red; }
]]></style>
<script type="text/javascript"><![CDATA[
var edges = document.getElementsByTagName('g');
if (edges && edges.length) {
  for (var i=0;i<edges.length;i++) {
    if (edges[i].id.substr(0,4)=='edge') {
      edges[i].setAttribute('class','edge');
    }
  }
}
]]></script>
        <defs>
                <circle id="rim" cx="0" cy="0" r="7"/>
                <circle id="rim2" cx="0" cy="0" r="3.5"/>
                <g id="zoomPlus">
                        <use xlink:href="#rim" fill="#404040">
                                <set attributeName="fill" to="#808080" begin="zoomplus.mouseover" end="zoomplus.mouseout"/>
                        </use>
                        <path d="M-4,0h8M0,-4v8" fill="none" stroke="white" stroke-width="1.5" pointer-events="none"/>
                </g>
                <g id="zoomMin">
                        <use xlink:href="#rim" fill="#404040">
                                <set attributeName="fill" to="#808080" begin="zoomminus.mouseover" end="zoomminus.mouseout"/>
                        </use>
                        <path d="M-4,0h8" fill="none" stroke="white" stroke-width="1.5" pointer-events="none"/>
                </g>
                <g id="dirArrow">
                        <path fill="none" stroke="white" stroke-width="1.5" d="M0,-3.0v7 M-2.5,-0.5L0,-3.0L2.5,-0.5"/>
                </g>
               <g id="resetDef">
                       <use xlink:href="#rim2" fill="#404040">
                               <set attributeName="fill" to="#808080" begin="reset.mouseover" end="reset.mouseout"/>
                       </use>
               </g>
        </defs>

<script type="text/javascript">
var viewWidth = 1060;
var viewHeight = 551;
var sectionId = 'dynsection-1';
</script>
<script xlink:href="svgpan.js"/>
<svg id="graph" class="graph">
<g id="viewport">
<title>o2::quality_control_modules::tof::DiagnosticsCounter</title>
<!-- Node1 -->
<g id="node1" class="node"><title>Node1</title>
<polygon fill="#bfbfbf" stroke="black" points="497,-0.5 497,-101.5 631,-101.5 631,-0.5 497,-0.5"/>
<text text-anchor="start" x="505" y="-89.5" font-family="Helvetica,sans-Serif" font-size="10.00">o2::quality_control</text>
<text text-anchor="start" x="505" y="-78.5" font-family="Helvetica,sans-Serif" font-size="10.00">_modules::tof::Diagnostics</text>
<text text-anchor="middle" x="564" y="-67.5" font-family="Helvetica,sans-Serif" font-size="10.00">Counter</text>
<polyline fill="none" stroke="black" points="497,-60.5 631,-60.5 "/>
<text text-anchor="middle" x="564" y="-48.5" font-family="Helvetica,sans-Serif" font-size="10.00"> </text>
<polyline fill="none" stroke="black" points="497,-41.5 631,-41.5 "/>
<text text-anchor="start" x="505" y="-29.5" font-family="Helvetica,sans-Serif" font-size="10.00">+ DiagnosticsCounter()</text>
<text text-anchor="start" x="505" y="-18.5" font-family="Helvetica,sans-Serif" font-size="10.00">+ ~DiagnosticsCounter()</text>
<text text-anchor="start" x="505" y="-7.5" font-family="Helvetica,sans-Serif" font-size="10.00">+ decode()</text>
</g>
<!-- Node2 -->
<g id="node2" class="node"><title>Node2</title>
<g id="a_node2"><a xlink:href="classDecoderBase.html" target="_top" xlink:title="{DecoderBase\n||}">
<polygon fill="none" stroke="black" points="0,-226.5 0,-283.5 76,-283.5 76,-226.5 0,-226.5"/>
<text text-anchor="middle" x="38" y="-271.5" font-family="Helvetica,sans-Serif" font-size="10.00">DecoderBase</text>
<polyline fill="none" stroke="black" points="0,-264.5 76,-264.5 "/>
<text text-anchor="middle" x="38" y="-252.5" font-family="Helvetica,sans-Serif" font-size="10.00"> </text>
<polyline fill="none" stroke="black" points="0,-245.5 76,-245.5 "/>
<text text-anchor="middle" x="38" y="-233.5" font-family="Helvetica,sans-Serif" font-size="10.00"> </text>
</a>
</g>
</g>
<!-- Node2&#45;&gt;Node1 -->
<g id="edge1" class="edge"><title>Node2&#45;&gt;Node1</title>
<path fill="none" stroke="midnightblue" d="M51.1951,-216.834C58.7407,-200.549 69.7869,-182.554 85,-171 208.683,-77.0676 397.34,-56.4932 496.967,-52.4867"/>
<polygon fill="none" stroke="midnightblue" points="47.9172,-215.596 47.1519,-226.163 54.3399,-218.379 47.9172,-215.596"/>
</g>
<!-- Node3 -->
<g id="node3" class="node"><title>Node3</title>
<g id="a_node3"><a xlink:href="classo2_1_1quality__control__modules_1_1tof_1_1Counter.html" target="_top" xlink:title="{o2::quality_control\l_modules::tof::Counter\l\&lt; o2::quality_control\l_modules::tof::ETRMChainCounter_t \&gt;\n||+ Counter()\l+ ~Counter()\l+ Count()\l+ Reset()\l+ HowMany()\l+ MakeHistogram()\l+ FillHistogram()\l+ Size()\l}">
<polygon fill="none" stroke="black" points="94,-171.5 94,-338.5 282,-338.5 282,-171.5 94,-171.5"/>
<text text-anchor="start" x="102" y="-326.5" font-family="Helvetica,sans-Serif" font-size="10.00">o2::quality_control</text>
<text text-anchor="start" x="102" y="-315.5" font-family="Helvetica,sans-Serif" font-size="10.00">_modules::tof::Counter</text>
<text text-anchor="start" x="102" y="-304.5" font-family="Helvetica,sans-Serif" font-size="10.00">&lt; o2::quality_control</text>
<text text-anchor="middle" x="188" y="-293.5" font-family="Helvetica,sans-Serif" font-size="10.00">_modules::tof::ETRMChainCounter_t &gt;</text>
<polyline fill="none" stroke="black" points="94,-286.5 282,-286.5 "/>
<text text-anchor="middle" x="188" y="-274.5" font-family="Helvetica,sans-Serif" font-size="10.00"> </text>
<polyline fill="none" stroke="black" points="94,-267.5 282,-267.5 "/>
<text text-anchor="start" x="102" y="-255.5" font-family="Helvetica,sans-Serif" font-size="10.00">+ Counter()</text>
<text text-anchor="start" x="102" y="-244.5" font-family="Helvetica,sans-Serif" font-size="10.00">+ ~Counter()</text>
<text text-anchor="start" x="102" y="-233.5" font-family="Helvetica,sans-Serif" font-size="10.00">+ Count()</text>
<text text-anchor="start" x="102" y="-222.5" font-family="Helvetica,sans-Serif" font-size="10.00">+ Reset()</text>
<text text-anchor="start" x="102" y="-211.5" font-family="Helvetica,sans-Serif" font-size="10.00">+ HowMany()</text>
<text text-anchor="start" x="102" y="-200.5" font-family="Helvetica,sans-Serif" font-size="10.00">+ MakeHistogram()</text>
<text text-anchor="start" x="102" y="-189.5" font-family="Helvetica,sans-Serif" font-size="10.00">+ FillHistogram()</text>
<text text-anchor="start" x="102" y="-178.5" font-family="Helvetica,sans-Serif" font-size="10.00">+ Size()</text>
</a>
</g>
</g>
<!-- Node3&#45;&gt;Node1 -->
<g id="edge2" class="edge"><title>Node3&#45;&gt;Node1</title>
<path fill="none" stroke="#404040" d="M277.497,-171.384C300.881,-152.667 326.886,-134.162 353,-120 394.262,-97.6227 444.099,-81.1333 484.975,-70.0005"/>
<polygon fill="none" stroke="#404040" points="485.203,-69.9399 489.975,-64.5338 496.801,-66.8597 492.029,-72.2658 485.203,-69.9399"/>
<text text-anchor="middle" x="403" y="-134" font-family="Helvetica,sans-Serif" font-size="10.00"> +mTRMChainCounter</text>
</g>
<!-- Node4 -->
<g id="node4" class="node"><title>Node4</title>
<g id="a_node4"><a xlink:href="classo2_1_1quality__control__modules_1_1tof_1_1Counter.html" target="_top" xlink:title="Class to count events. ">
<polygon fill="none" stroke="black" points="491,-397.5 491,-542.5 637,-542.5 637,-397.5 491,-397.5"/>
<text text-anchor="start" x="499" y="-530.5" font-family="Helvetica,sans-Serif" font-size="10.00">o2::quality_control</text>
<text text-anchor="middle" x="564" y="-519.5" font-family="Helvetica,sans-Serif" font-size="10.00">_modules::tof::Counter&lt; Tc &gt;</text>
<polyline fill="none" stroke="black" points="491,-512.5 637,-512.5 "/>
<text text-anchor="middle" x="564" y="-500.5" font-family="Helvetica,sans-Serif" font-size="10.00"> </text>
<polyline fill="none" stroke="black" points="491,-493.5 637,-493.5 "/>
<text text-anchor="start" x="499" y="-481.5" font-family="Helvetica,sans-Serif" font-size="10.00">+ Counter()</text>
<text text-anchor="start" x="499" y="-470.5" font-family="Helvetica,sans-Serif" font-size="10.00">+ ~Counter()</text>
<text text-anchor="start" x="499" y="-459.5" font-family="Helvetica,sans-Serif" font-size="10.00">+ Count()</text>
<text text-anchor="start" x="499" y="-448.5" font-family="Helvetica,sans-Serif" font-size="10.00">+ Reset()</text>
<text text-anchor="start" x="499" y="-437.5" font-family="Helvetica,sans-Serif" font-size="10.00">+ HowMany()</text>
<text text-anchor="start" x="499" y="-426.5" font-family="Helvetica,sans-Serif" font-size="10.00">+ MakeHistogram()</text>
<text text-anchor="start" x="499" y="-415.5" font-family="Helvetica,sans-Serif" font-size="10.00">+ FillHistogram()</text>
<text text-anchor="start" x="499" y="-404.5" font-family="Helvetica,sans-Serif" font-size="10.00">+ Size()</text>
</a>
</g>
</g>
<!-- Node4&#45;&gt;Node3 -->
<g id="edge3" class="edge"><title>Node4&#45;&gt;Node3</title>
<path fill="none" stroke="orange" d="M480.711,-456.526C392.256,-441.664 260.268,-414.338 224,-379 212.685,-367.975 204.878,-353.605 199.502,-338.592"/>
<polygon fill="orange" stroke="orange" points="480.298,-460.006 490.736,-458.189 481.443,-453.1 480.298,-460.006"/>
<text text-anchor="start" x="224" y="-371" font-family="Helvetica,sans-Serif" font-size="10.00"> &lt; o2::quality_control</text>
<text text-anchor="middle" x="310" y="-360" font-family="Helvetica,sans-Serif" font-size="10.00">_modules::tof::ETRMChainCounter_t &gt;</text>
</g>
<!-- Node5 -->
<g id="node5" class="node"><title>Node5</title>
<g id="a_node5"><a xlink:href="classo2_1_1quality__control__modules_1_1tof_1_1Counter.html" target="_top" xlink:title="{o2::quality_control\l_modules::tof::Counter\l\&lt; o2::quality_control\l_modules::tof::EDRMCounter_t \&gt;\n||+ Counter()\l+ ~Counter()\l+ Count()\l+ Reset()\l+ HowMany()\l+ MakeHistogram()\l+ FillHistogram()\l+ Size()\l}">
<polygon fill="none" stroke="black" points="300,-171.5 300,-338.5 464,-338.5 464,-171.5 300,-171.5"/>
<text text-anchor="start" x="308" y="-326.5" font-family="Helvetica,sans-Serif" font-size="10.00">o2::quality_control</text>
<text text-anchor="start" x="308" y="-315.5" font-family="Helvetica,sans-Serif" font-size="10.00">_modules::tof::Counter</text>
<text text-anchor="start" x="308" y="-304.5" font-family="Helvetica,sans-Serif" font-size="10.00">&lt; o2::quality_control</text>
<text text-anchor="middle" x="382" y="-293.5" font-family="Helvetica,sans-Serif" font-size="10.00">_modules::tof::EDRMCounter_t &gt;</text>
<polyline fill="none" stroke="black" points="300,-286.5 464,-286.5 "/>
<text text-anchor="middle" x="382" y="-274.5" font-family="Helvetica,sans-Serif" font-size="10.00"> </text>
<polyline fill="none" stroke="black" points="300,-267.5 464,-267.5 "/>
<text text-anchor="start" x="308" y="-255.5" font-family="Helvetica,sans-Serif" font-size="10.00">+ Counter()</text>
<text text-anchor="start" x="308" y="-244.5" font-family="Helvetica,sans-Serif" font-size="10.00">+ ~Counter()</text>
<text text-anchor="start" x="308" y="-233.5" font-family="Helvetica,sans-Serif" font-size="10.00">+ Count()</text>
<text text-anchor="start" x="308" y="-222.5" font-family="Helvetica,sans-Serif" font-size="10.00">+ Reset()</text>
<text text-anchor="start" x="308" y="-211.5" font-family="Helvetica,sans-Serif" font-size="10.00">+ HowMany()</text>
<text text-anchor="start" x="308" y="-200.5" font-family="Helvetica,sans-Serif" font-size="10.00">+ MakeHistogram()</text>
<text text-anchor="start" x="308" y="-189.5" font-family="Helvetica,sans-Serif" font-size="10.00">+ FillHistogram()</text>
<text text-anchor="start" x="308" y="-178.5" font-family="Helvetica,sans-Serif" font-size="10.00">+ Size()</text>
</a>
</g>
</g>
<!-- Node4&#45;&gt;Node5 -->
<g id="edge5" class="edge"><title>Node4&#45;&gt;Node5</title>
<path fill="none" stroke="orange" d="M481.826,-435.85C456.094,-421.805 429.803,-403.025 412,-379 403.232,-367.168 396.999,-353.104 392.574,-338.787"/>
<polygon fill="orange" stroke="orange" points="480.41,-439.06 490.889,-440.621 483.67,-432.866 480.41,-439.06"/>
<text text-anchor="start" x="412" y="-371" font-family="Helvetica,sans-Serif" font-size="10.00"> &lt; o2::quality_control</text>
<text text-anchor="middle" x="486" y="-360" font-family="Helvetica,sans-Serif" font-size="10.00">_modules::tof::EDRMCounter_t &gt;</text>
</g>
<!-- Node6 -->
<g id="node6" class="node"><title>Node6</title>
<g id="a_node6"><a xlink:href="classo2_1_1quality__control__modules_1_1tof_1_1Counter.html" target="_top" xlink:title="{o2::quality_control\l_modules::tof::Counter\l\&lt; o2::quality_control\l_modules::tof::ERDHCounter_t \&gt;\n||+ Counter()\l+ ~Counter()\l+ Count()\l+ Reset()\l+ HowMany()\l+ MakeHistogram()\l+ FillHistogram()\l+ Size()\l}">
<polygon fill="none" stroke="black" points="482.5,-171.5 482.5,-338.5 645.5,-338.5 645.5,-171.5 482.5,-171.5"/>
<text text-anchor="start" x="490.5" y="-326.5" font-family="Helvetica,sans-Serif" font-size="10.00">o2::quality_control</text>
<text text-anchor="start" x="490.5" y="-315.5" font-family="Helvetica,sans-Serif" font-size="10.00">_modules::tof::Counter</text>
<text text-anchor="start" x="490.5" y="-304.5" font-family="Helvetica,sans-Serif" font-size="10.00">&lt; o2::quality_control</text>
<text text-anchor="middle" x="564" y="-293.5" font-family="Helvetica,sans-Serif" font-size="10.00">_modules::tof::ERDHCounter_t &gt;</text>
<polyline fill="none" stroke="black" points="482.5,-286.5 645.5,-286.5 "/>
<text text-anchor="middle" x="564" y="-274.5" font-family="Helvetica,sans-Serif" font-size="10.00"> </text>
<polyline fill="none" stroke="black" points="482.5,-267.5 645.5,-267.5 "/>
<text text-anchor="start" x="490.5" y="-255.5" font-family="Helvetica,sans-Serif" font-size="10.00">+ Counter()</text>
<text text-anchor="start" x="490.5" y="-244.5" font-family="Helvetica,sans-Serif" font-size="10.00">+ ~Counter()</text>
<text text-anchor="start" x="490.5" y="-233.5" font-family="Helvetica,sans-Serif" font-size="10.00">+ Count()</text>
<text text-anchor="start" x="490.5" y="-222.5" font-family="Helvetica,sans-Serif" font-size="10.00">+ Reset()</text>
<text text-anchor="start" x="490.5" y="-211.5" font-family="Helvetica,sans-Serif" font-size="10.00">+ HowMany()</text>
<text text-anchor="start" x="490.5" y="-200.5" font-family="Helvetica,sans-Serif" font-size="10.00">+ MakeHistogram()</text>
<text text-anchor="start" x="490.5" y="-189.5" font-family="Helvetica,sans-Serif" font-size="10.00">+ FillHistogram()</text>
<text text-anchor="start" x="490.5" y="-178.5" font-family="Helvetica,sans-Serif" font-size="10.00">+ Size()</text>
</a>
</g>
</g>
<!-- Node4&#45;&gt;Node6 -->
<g id="edge7" class="edge"><title>Node4&#45;&gt;Node6</title>
<path fill="none" stroke="orange" d="M564,-387.175C564,-371.297 564,-354.644 564,-338.737"/>
<polygon fill="orange" stroke="orange" points="560.5,-387.482 564,-397.482 567.5,-387.482 560.5,-387.482"/>
<text text-anchor="start" x="564" y="-371" font-family="Helvetica,sans-Serif" font-size="10.00"> &lt; o2::quality_control</text>
<text text-anchor="middle" x="637.5" y="-360" font-family="Helvetica,sans-Serif" font-size="10.00">_modules::tof::ERDHCounter_t &gt;</text>
</g>
<!-- Node8 -->
<g id="node8" class="node"><title>Node8</title>
<g id="a_node8"><a xlink:href="classo2_1_1quality__control__modules_1_1tof_1_1Counter.html" target="_top" xlink:title="{o2::quality_control\l_modules::tof::Counter\l\&lt; o2::quality_control\l_modules::tof::ELTMCounter_t \&gt;\n||+ Counter()\l+ ~Counter()\l+ Count()\l+ Reset()\l+ HowMany()\l+ MakeHistogram()\l+ FillHistogram()\l+ Size()\l}">
<polygon fill="none" stroke="black" points="664,-171.5 664,-338.5 824,-338.5 824,-171.5 664,-171.5"/>
<text text-anchor="start" x="672" y="-326.5" font-family="Helvetica,sans-Serif" font-size="10.00">o2::quality_control</text>
<text text-anchor="start" x="672" y="-315.5" font-family="Helvetica,sans-Serif" font-size="10.00">_modules::tof::Counter</text>
<text text-anchor="start" x="672" y="-304.5" font-family="Helvetica,sans-Serif" font-size="10.00">&lt; o2::quality_control</text>
<text text-anchor="middle" x="744" y="-293.5" font-family="Helvetica,sans-Serif" font-size="10.00">_modules::tof::ELTMCounter_t &gt;</text>
<polyline fill="none" stroke="black" points="664,-286.5 824,-286.5 "/>
<text text-anchor="middle" x="744" y="-274.5" font-family="Helvetica,sans-Serif" font-size="10.00"> </text>
<polyline fill="none" stroke="black" points="664,-267.5 824,-267.5 "/>
<text text-anchor="start" x="672" y="-255.5" font-family="Helvetica,sans-Serif" font-size="10.00">+ Counter()</text>
<text text-anchor="start" x="672" y="-244.5" font-family="Helvetica,sans-Serif" font-size="10.00">+ ~Counter()</text>
<text text-anchor="start" x="672" y="-233.5" font-family="Helvetica,sans-Serif" font-size="10.00">+ Count()</text>
<text text-anchor="start" x="672" y="-222.5" font-family="Helvetica,sans-Serif" font-size="10.00">+ Reset()</text>
<text text-anchor="start" x="672" y="-211.5" font-family="Helvetica,sans-Serif" font-size="10.00">+ HowMany()</text>
<text text-anchor="start" x="672" y="-200.5" font-family="Helvetica,sans-Serif" font-size="10.00">+ MakeHistogram()</text>
<text text-anchor="start" x="672" y="-189.5" font-family="Helvetica,sans-Serif" font-size="10.00">+ FillHistogram()</text>
<text text-anchor="start" x="672" y="-178.5" font-family="Helvetica,sans-Serif" font-size="10.00">+ Size()</text>
</a>
</g>
</g>
<!-- Node4&#45;&gt;Node8 -->
<g id="edge10" class="edge"><title>Node4&#45;&gt;Node8</title>
<path fill="none" stroke="orange" d="M646.097,-435.63C671.554,-421.604 697.491,-402.892 715,-379 723.689,-367.143 729.816,-353.068 734.127,-338.747"/>
<polygon fill="orange" stroke="orange" points="644.315,-432.613 637.126,-440.396 647.599,-438.794 644.315,-432.613"/>
<text text-anchor="start" x="727" y="-371" font-family="Helvetica,sans-Serif" font-size="10.00"> &lt; o2::quality_control</text>
<text text-anchor="middle" x="799" y="-360" font-family="Helvetica,sans-Serif" font-size="10.00">_modules::tof::ELTMCounter_t &gt;</text>
</g>
<!-- Node9 -->
<g id="node9" class="node"><title>Node9</title>
<g id="a_node9"><a xlink:href="classo2_1_1quality__control__modules_1_1tof_1_1Counter.html" target="_top" xlink:title="{o2::quality_control\l_modules::tof::Counter\l\&lt; o2::quality_control\l_modules::tof::ETRMCounter_t \&gt;\n||+ Counter()\l+ ~Counter()\l+ Count()\l+ Reset()\l+ HowMany()\l+ MakeHistogram()\l+ FillHistogram()\l+ Size()\l}">
<polygon fill="none" stroke="black" points="842,-171.5 842,-338.5 1004,-338.5 1004,-171.5 842,-171.5"/>
<text text-anchor="start" x="850" y="-326.5" font-family="Helvetica,sans-Serif" font-size="10.00">o2::quality_control</text>
<text text-anchor="start" x="850" y="-315.5" font-family="Helvetica,sans-Serif" font-size="10.00">_modules::tof::Counter</text>
<text text-anchor="start" x="850" y="-304.5" font-family="Helvetica,sans-Serif" font-size="10.00">&lt; o2::quality_control</text>
<text text-anchor="middle" x="923" y="-293.5" font-family="Helvetica,sans-Serif" font-size="10.00">_modules::tof::ETRMCounter_t &gt;</text>
<polyline fill="none" stroke="black" points="842,-286.5 1004,-286.5 "/>
<text text-anchor="middle" x="923" y="-274.5" font-family="Helvetica,sans-Serif" font-size="10.00"> </text>
<polyline fill="none" stroke="black" points="842,-267.5 1004,-267.5 "/>
<text text-anchor="start" x="850" y="-255.5" font-family="Helvetica,sans-Serif" font-size="10.00">+ Counter()</text>
<text text-anchor="start" x="850" y="-244.5" font-family="Helvetica,sans-Serif" font-size="10.00">+ ~Counter()</text>
<text text-anchor="start" x="850" y="-233.5" font-family="Helvetica,sans-Serif" font-size="10.00">+ Count()</text>
<text text-anchor="start" x="850" y="-222.5" font-family="Helvetica,sans-Serif" font-size="10.00">+ Reset()</text>
<text text-anchor="start" x="850" y="-211.5" font-family="Helvetica,sans-Serif" font-size="10.00">+ HowMany()</text>
<text text-anchor="start" x="850" y="-200.5" font-family="Helvetica,sans-Serif" font-size="10.00">+ MakeHistogram()</text>
<text text-anchor="start" x="850" y="-189.5" font-family="Helvetica,sans-Serif" font-size="10.00">+ FillHistogram()</text>
<text text-anchor="start" x="850" y="-178.5" font-family="Helvetica,sans-Serif" font-size="10.00">+ Size()</text>
</a>
</g>
</g>
<!-- Node4&#45;&gt;Node9 -->
<g id="edge12" class="edge"><title>Node4&#45;&gt;Node9</title>
<path fill="none" stroke="orange" d="M646.97,-464.826C715.915,-457.156 812.503,-436.089 875,-379 887.016,-368.023 896.059,-353.674 902.854,-338.668"/>
<polygon fill="orange" stroke="orange" points="646.59,-461.347 637.006,-465.863 647.315,-468.309 646.59,-461.347"/>
<text text-anchor="start" x="893" y="-371" font-family="Helvetica,sans-Serif" font-size="10.00"> &lt; o2::quality_control</text>
<text text-anchor="middle" x="966" y="-360" font-family="Helvetica,sans-Serif" font-size="10.00">_modules::tof::ETRMCounter_t &gt;</text>
</g>
<!-- Node5&#45;&gt;Node1 -->
<g id="edge4" class="edge"><title>Node5&#45;&gt;Node1</title>
<path fill="none" stroke="#404040" d="M440.521,-171.283C454.118,-153.768 469.019,-135.811 484,-120 487.223,-116.599 490.604,-113.195 494.081,-109.824"/>
<polygon fill="none" stroke="#404040" points="494.149,-109.76 495.772,-102.734 502.882,-101.53 501.259,-108.556 494.149,-109.76"/>
<text text-anchor="middle" x="522" y="-134" font-family="Helvetica,sans-Serif" font-size="10.00"> +mDRMCounter</text>
</g>
<!-- Node6&#45;&gt;Node1 -->
<g id="edge6" class="edge"><title>Node6&#45;&gt;Node1</title>
<path fill="none" stroke="#404040" d="M564,-171.256C564,-152.046 564,-131.924 564,-113.797"/>
<polygon fill="none" stroke="#404040" points="564,-113.602 560,-107.602 564,-101.602 568,-107.602 564,-113.602"/>
<text text-anchor="middle" x="601.5" y="-134" font-family="Helvetica,sans-Serif" font-size="10.00"> +mRDHCounter</text>
</g>
<!-- Node7 -->
<g id="node7" class="node"><title>Node7</title>
<polygon fill="none" stroke="#bfbfbf" points="1022.5,-226.5 1022.5,-283.5 1051.5,-283.5 1051.5,-226.5 1022.5,-226.5"/>
<text text-anchor="middle" x="1037" y="-271.5" font-family="Helvetica,sans-Serif" font-size="10.00">int</text>
<polyline fill="none" stroke="#bfbfbf" points="1022.5,-264.5 1051.5,-264.5 "/>
<text text-anchor="middle" x="1037" y="-252.5" font-family="Helvetica,sans-Serif" font-size="10.00"> </text>
<polyline fill="none" stroke="#bfbfbf" points="1022.5,-245.5 1051.5,-245.5 "/>
<text text-anchor="middle" x="1037" y="-233.5" font-family="Helvetica,sans-Serif" font-size="10.00"> </text>
</g>
<!-- Node7&#45;&gt;Node1 -->
<g id="edge8" class="edge"><title>Node7&#45;&gt;Node1</title>
<path fill="none" stroke="#404040" d="M1035.16,-226.347C1032.62,-208.592 1026.7,-186.112 1013,-171 963.82,-116.765 758.526,-79.5995 643.314,-62.5738"/>
<polygon fill="none" stroke="#404040" points="643.306,-62.5727 636.792,-65.6655 631.431,-60.842 637.946,-57.7492 643.306,-62.5727"/>
<text text-anchor="middle" x="1014" y="-145" font-family="Helvetica,sans-Serif" font-size="10.00"> +ntrms</text>
<text text-anchor="middle" x="1014" y="-134" font-family="Helvetica,sans-Serif" font-size="10.00">+ntrmschains</text>
<text text-anchor="middle" x="1014" y="-123" font-family="Helvetica,sans-Serif" font-size="10.00">+ncrates</text>
</g>
<!-- Node8&#45;&gt;Node1 -->
<g id="edge9" class="edge"><title>Node8&#45;&gt;Node1</title>
<path fill="none" stroke="#404040" d="M686.063,-171.32C672.598,-153.803 657.841,-135.836 643,-120 639.819,-116.606 636.481,-113.208 633.049,-109.842"/>
<polygon fill="none" stroke="#404040" points="633.044,-109.837 625.942,-108.592 624.36,-101.556 631.462,-102.802 633.044,-109.837"/>
<text text-anchor="middle" x="707" y="-134" font-family="Helvetica,sans-Serif" font-size="10.00"> +mLTMCounter</text>
</g>
<!-- Node9&#45;&gt;Node1 -->
<g id="edge11" class="edge"><title>Node9&#45;&gt;Node1</title>
<path fill="none" stroke="#404040" d="M841.972,-177.896C838.979,-175.528 835.983,-173.222 833,-171 775.045,-127.84 698.973,-96.0351 642.518,-76.2192"/>
<polygon fill="none" stroke="#404040" points="642.486,-76.208 635.509,-78.0326 631.142,-72.2945 638.118,-70.47 642.486,-76.208"/>
<text text-anchor="middle" x="844" y="-134" font-family="Helvetica,sans-Serif" font-size="10.00"> +mTRMCounter</text>
</g>
</g>
</svg>
        <g id="navigator" transform="translate(0 0)" fill="#404254">
                <rect fill="#f2f5e9" fill-opacity="0.5" stroke="#606060" stroke-width=".5" x="0" y="0" width="60" height="60"/>
                <use id="zoomplus" xlink:href="#zoomPlus" x="17" y="9" onmousedown="handleZoom(evt,'in')"/>
                <use id="zoomminus" xlink:href="#zoomMin" x="42" y="9" onmousedown="handleZoom(evt,'out')"/>
                <use id="reset" xlink:href="#resetDef" x="30" y="36" onmousedown="handleReset()"/>
                <g id="arrowUp" xlink:href="#dirArrow" transform="translate(30 24)" onmousedown="handlePan(0,-1)">
                  <use xlink:href="#rim" fill="#404040">
                        <set attributeName="fill" to="#808080" begin="arrowUp.mouseover" end="arrowUp.mouseout"/>
                  </use>
                  <path fill="none" stroke="white" stroke-width="1.5" d="M0,-3.0v7 M-2.5,-0.5L0,-3.0L2.5,-0.5"/>
                </g>
                <g id="arrowRight" xlink:href="#dirArrow" transform="rotate(90) translate(36 -43)" onmousedown="handlePan(1,0)">
                  <use xlink:href="#rim" fill="#404040">
                        <set attributeName="fill" to="#808080" begin="arrowRight.mouseover" end="arrowRight.mouseout"/>
                  </use>
                  <path fill="none" stroke="white" stroke-width="1.5" d="M0,-3.0v7 M-2.5,-0.5L0,-3.0L2.5,-0.5"/>
                </g>
                <g id="arrowDown" xlink:href="#dirArrow" transform="rotate(180) translate(-30 -48)" onmousedown="handlePan(0,1)">
                  <use xlink:href="#rim" fill="#404040">
                        <set attributeName="fill" to="#808080" begin="arrowDown.mouseover" end="arrowDown.mouseout"/>
                  </use>
                  <path fill="none" stroke="white" stroke-width="1.5" d="M0,-3.0v7 M-2.5,-0.5L0,-3.0L2.5,-0.5"/>
                </g>
                <g id="arrowLeft" xlink:href="#dirArrow" transform="rotate(270) translate(-36 17)" onmousedown="handlePan(-1,0)">
                  <use xlink:href="#rim" fill="#404040">
                        <set attributeName="fill" to="#808080" begin="arrowLeft.mouseover" end="arrowLeft.mouseout"/>
                  </use>
                  <path fill="none" stroke="white" stroke-width="1.5" d="M0,-3.0v7 M-2.5,-0.5L0,-3.0L2.5,-0.5"/>
                </g>
        </g>
        <svg viewBox="0 0 15 15" width="100%" height="30px" preserveAspectRatio="xMaxYMin meet">
         <g id="arrow_out" transform="scale(0.3 0.3)">
          <a xlink:href="classo2_1_1quality__control__modules_1_1tof_1_1DiagnosticsCounter__coll__graph_org.svg" target="_base">
           <rect id="button" ry="5" rx="5" y="6" x="6" height="38" width="38"
                fill="#f2f5e9" fill-opacity="0.5" stroke="#606060" stroke-width="1.0"/>
           <path id="arrow"
             d="M 11.500037,31.436501 C 11.940474,20.09759 22.043105,11.32322 32.158766,21.979434 L 37.068811,17.246167 C 37.068811,17.246167 37.088388,32 37.088388,32 L 22.160133,31.978069 C 22.160133,31.978069 26.997745,27.140456 26.997745,27.140456 C 18.528582,18.264221 13.291696,25.230495 11.500037,31.436501 z"
             style="fill:#404040;"/>
          </a>
         </g>
        </svg>
</svg>
