<?xml version="1.0" encoding="UTF-8" standalone="no"?>
<!DOCTYPE svg PUBLIC "-//W3C//DTD SVG 1.1//EN"
 "http://www.w3.org/Graphics/SVG/1.1/DTD/svg11.dtd">
<!-- Generated by graphviz version 2.38.0 (20140413.2041)
 -->
<!-- Title: o2::quality_control::core::Quality Pages: 1 -->
<svg width="188pt" height="314pt"
 viewBox="0.00 0.00 187.50 314.00" xmlns="http://www.w3.org/2000/svg" xmlns:xlink="http://www.w3.org/1999/xlink">
<g id="graph0" class="graph" transform="scale(1 1) rotate(0) translate(4 310)">
<title>o2::quality_control::core::Quality</title>
<!-- Node1 -->
<g id="node1" class="node"><title>Node1</title>
<polygon fill="#bfbfbf" stroke="black" points="5.5,-0.5 5.5,-200.5 117.5,-200.5 117.5,-0.5 5.5,-0.5"/>
<text text-anchor="start" x="13.5" y="-188.5" font-family="Helvetica,sans-Serif" font-size="10.00">o2::quality_control</text>
<text text-anchor="middle" x="61.5" y="-177.5" font-family="Helvetica,sans-Serif" font-size="10.00">::core::Quality</text>
<polyline fill="none" stroke="black" points="5.5,-170.5 117.5,-170.5 "/>
<text text-anchor="middle" x="61.5" y="-158.5" font-family="Helvetica,sans-Serif" font-size="10.00"> </text>
<polyline fill="none" stroke="black" points="5.5,-151.5 117.5,-151.5 "/>
<text text-anchor="start" x="13.5" y="-139.5" font-family="Helvetica,sans-Serif" font-size="10.00">+ Quality()</text>
<text text-anchor="start" x="13.5" y="-128.5" font-family="Helvetica,sans-Serif" font-size="10.00">+ ~Quality()</text>
<text text-anchor="start" x="13.5" y="-117.5" font-family="Helvetica,sans-Serif" font-size="10.00">+ Quality()</text>
<text text-anchor="start" x="13.5" y="-106.5" font-family="Helvetica,sans-Serif" font-size="10.00">+ getLevel()</text>
<text text-anchor="start" x="13.5" y="-95.5" font-family="Helvetica,sans-Serif" font-size="10.00">+ getName()</text>
<text text-anchor="start" x="13.5" y="-84.5" font-family="Helvetica,sans-Serif" font-size="10.00">+ isWorseThan()</text>
<text text-anchor="start" x="13.5" y="-73.5" font-family="Helvetica,sans-Serif" font-size="10.00">+ isBetterThan()</text>
<text text-anchor="start" x="13.5" y="-62.5" font-family="Helvetica,sans-Serif" font-size="10.00">+ addMetadata()</text>
<text text-anchor="start" x="13.5" y="-51.5" font-family="Helvetica,sans-Serif" font-size="10.00">+ addMetadata()</text>
<text text-anchor="start" x="13.5" y="-40.5" font-family="Helvetica,sans-Serif" font-size="10.00">+ updateMetadata()</text>
<text text-anchor="start" x="13.5" y="-29.5" font-family="Helvetica,sans-Serif" font-size="10.00">+ getMetadataMap()</text>
<text text-anchor="start" x="13.5" y="-18.5" font-family="Helvetica,sans-Serif" font-size="10.00">+ overwriteMetadata()</text>
<text text-anchor="start" x="13.5" y="-7.5" font-family="Helvetica,sans-Serif" font-size="10.00">+ getMetadata()</text>
</g>
<!-- Node1&#45;&gt;Node1 -->
<g id="edge2" class="edge"><title>Node1&#45;&gt;Node1</title>
<path fill="none" stroke="#404040" d="M117.646,-122.557C128.122,-119.84 135.5,-112.488 135.5,-100.5 135.5,-93.382 132.899,-87.8983 128.593,-84.0491"/>
<polygon fill="none" stroke="#404040" points="128.327,-83.9131 121.163,-84.7386 117.646,-78.4434 124.81,-77.6179 128.327,-83.9131"/>
<text text-anchor="middle" x="157.5" y="-114.5" font-family="Helvetica,sans-Serif" font-size="10.00"> +Medium</text>
<text text-anchor="middle" x="157.5" y="-103.5" font-family="Helvetica,sans-Serif" font-size="10.00">+Good</text>
<text text-anchor="middle" x="157.5" y="-92.5" font-family="Helvetica,sans-Serif" font-size="10.00">+Bad</text>
<text text-anchor="middle" x="157.5" y="-81.5" font-family="Helvetica,sans-Serif" font-size="10.00">+Null</text>
</g>
<!-- Node2 -->
<g id="node2" class="node"><title>Node2</title>
<polygon fill="none" stroke="#bfbfbf" points="0,-248.5 0,-305.5 123,-305.5 123,-248.5 0,-248.5"/>
<text text-anchor="middle" x="61.5" y="-293.5" font-family="Helvetica,sans-Serif" font-size="10.00">static const unsigned int</text>
<polyline fill="none" stroke="#bfbfbf" points="0,-286.5 123,-286.5 "/>
<text text-anchor="middle" x="61.5" y="-274.5" font-family="Helvetica,sans-Serif" font-size="10.00"> </text>
<polyline fill="none" stroke="#bfbfbf" points="0,-267.5 123,-267.5 "/>
<text text-anchor="middle" x="61.5" y="-255.5" font-family="Helvetica,sans-Serif" font-size="10.00"> </text>
</g>
<!-- Node2&#45;&gt;Node1 -->
<g id="edge1" class="edge"><title>Node2&#45;&gt;Node1</title>
<path fill="none" stroke="#404040" d="M61.5,-248.35C61.5,-238.196 61.5,-225.98 61.5,-212.984"/>
<polygon fill="none" stroke="#404040" points="61.5001,-212.867 57.5,-206.867 61.5,-200.867 65.5,-206.867 61.5001,-212.867"/>
<text text-anchor="middle" x="86.5" y="-222" font-family="Helvetica,sans-Serif" font-size="10.00"> +NullLevel</text>
</g>
</g>
</svg>
