<?xml version="1.0" encoding="UTF-8" standalone="no"?>
<!DOCTYPE svg PUBLIC "-//W3C//DTD SVG 1.1//EN"
 "http://www.w3.org/Graphics/SVG/1.1/DTD/svg11.dtd">
<!-- Generated by graphviz version 2.38.0 (20140413.2041)
 -->
<!-- Title: o2::quality_control::checker::CheckInterface Pages: 1 -->
<svg width="3611pt" height="347pt"
 viewBox="0.00 0.00 3611.00 347.00" xmlns="http://www.w3.org/2000/svg" xmlns:xlink="http://www.w3.org/1999/xlink">
<g id="graph0" class="graph" transform="scale(1 1) rotate(0) translate(4 343)">
<title>o2::quality_control::checker::CheckInterface</title>
<!-- Node1 -->
<g id="node1" class="node"><title>Node1</title>
<polygon fill="#bfbfbf" stroke="black" points="1723,-182.5 1723,-338.5 1853,-338.5 1853,-182.5 1723,-182.5"/>
<text text-anchor="start" x="1731" y="-326.5" font-family="Helvetica,sans-Serif" font-size="10.00">o2::quality_control</text>
<text text-anchor="middle" x="1788" y="-315.5" font-family="Helvetica,sans-Serif" font-size="10.00">::checker::CheckInterface</text>
<polyline fill="none" stroke="black" points="1723,-308.5 1853,-308.5 "/>
<text text-anchor="start" x="1731" y="-296.5" font-family="Helvetica,sans-Serif" font-size="10.00"># mCustomParameters</text>
<polyline fill="none" stroke="black" points="1723,-289.5 1853,-289.5 "/>
<text text-anchor="start" x="1731" y="-277.5" font-family="Helvetica,sans-Serif" font-size="10.00">+ CheckInterface()</text>
<text text-anchor="start" x="1731" y="-266.5" font-family="Helvetica,sans-Serif" font-size="10.00">+ ~CheckInterface()</text>
<text text-anchor="start" x="1731" y="-255.5" font-family="Helvetica,sans-Serif" font-size="10.00">+ configure()</text>
<text text-anchor="start" x="1731" y="-244.5" font-family="Helvetica,sans-Serif" font-size="10.00">+ check()</text>
<text text-anchor="start" x="1731" y="-233.5" font-family="Helvetica,sans-Serif" font-size="10.00">+ beautify()</text>
<text text-anchor="start" x="1731" y="-222.5" font-family="Helvetica,sans-Serif" font-size="10.00">+ getAcceptedType()</text>
<text text-anchor="start" x="1731" y="-211.5" font-family="Helvetica,sans-Serif" font-size="10.00">+ isObjectCheckable()</text>
<text text-anchor="start" x="1731" y="-200.5" font-family="Helvetica,sans-Serif" font-size="10.00">+ isObjectCheckable()</text>
<text text-anchor="start" x="1731" y="-189.5" font-family="Helvetica,sans-Serif" font-size="10.00">+ setCustomParameters()</text>
</g>
<!-- Node2 -->
<g id="node2" class="node"><title>Node2</title>
<g id="a_node2"><a xlink:href="classo2_1_1quality__control_1_1test_1_1TestCheck.html" target="_top" xlink:title="{o2::quality_control\l::test::TestCheck\n|+ mValidString\l|+ TestCheck()\l+ ~TestCheck()\l+ configure()\l+ check()\l+ beautify()\l+ getAcceptedType()\l}">
<polygon fill="none" stroke="black" points="0,-11.5 0,-134.5 108,-134.5 108,-11.5 0,-11.5"/>
<text text-anchor="start" x="8" y="-122.5" font-family="Helvetica,sans-Serif" font-size="10.00">o2::quality_control</text>
<text text-anchor="middle" x="54" y="-111.5" font-family="Helvetica,sans-Serif" font-size="10.00">::test::TestCheck</text>
<polyline fill="none" stroke="black" points="0,-104.5 108,-104.5 "/>
<text text-anchor="start" x="8" y="-92.5" font-family="Helvetica,sans-Serif" font-size="10.00">+ mValidString</text>
<polyline fill="none" stroke="black" points="0,-85.5 108,-85.5 "/>
<text text-anchor="start" x="8" y="-73.5" font-family="Helvetica,sans-Serif" font-size="10.00">+ TestCheck()</text>
<text text-anchor="start" x="8" y="-62.5" font-family="Helvetica,sans-Serif" font-size="10.00">+ ~TestCheck()</text>
<text text-anchor="start" x="8" y="-51.5" font-family="Helvetica,sans-Serif" font-size="10.00">+ configure()</text>
<text text-anchor="start" x="8" y="-40.5" font-family="Helvetica,sans-Serif" font-size="10.00">+ check()</text>
<text text-anchor="start" x="8" y="-29.5" font-family="Helvetica,sans-Serif" font-size="10.00">+ beautify()</text>
<text text-anchor="start" x="8" y="-18.5" font-family="Helvetica,sans-Serif" font-size="10.00">+ getAcceptedType()</text>
</a>
</g>
</g>
<!-- Node1&#45;&gt;Node2 -->
<g id="edge1" class="edge"><title>Node1&#45;&gt;Node2</title>
<path fill="none" stroke="midnightblue" d="M1712.42,-257.751C1405.41,-250.191 261.195,-217.422 117,-146 110.898,-142.977 105.134,-139.076 99.757,-134.655"/>
<polygon fill="none" stroke="midnightblue" points="1712.47,-261.253 1722.55,-257.999 1712.64,-254.255 1712.47,-261.253"/>
</g>
<!-- Node3 -->
<g id="node3" class="node"><title>Node3</title>
<g id="a_node3"><a xlink:href="classo2_1_1quality__control__modules_1_1common_1_1MeanIsAbove.html" target="_top" xlink:title="Check whether the mean of the plot is above a certain limit. ">
<polygon fill="none" stroke="black" points="126,-11.5 126,-134.5 294,-134.5 294,-11.5 126,-11.5"/>
<text text-anchor="start" x="134" y="-122.5" font-family="Helvetica,sans-Serif" font-size="10.00">o2::quality_control</text>
<text text-anchor="middle" x="210" y="-111.5" font-family="Helvetica,sans-Serif" font-size="10.00">_modules::common::MeanIsAbove</text>
<polyline fill="none" stroke="black" points="126,-104.5 294,-104.5 "/>
<text text-anchor="middle" x="210" y="-92.5" font-family="Helvetica,sans-Serif" font-size="10.00"> </text>
<polyline fill="none" stroke="black" points="126,-85.5 294,-85.5 "/>
<text text-anchor="start" x="134" y="-73.5" font-family="Helvetica,sans-Serif" font-size="10.00">+ MeanIsAbove()</text>
<text text-anchor="start" x="134" y="-62.5" font-family="Helvetica,sans-Serif" font-size="10.00">+ ~MeanIsAbove()</text>
<text text-anchor="start" x="134" y="-51.5" font-family="Helvetica,sans-Serif" font-size="10.00">+ configure()</text>
<text text-anchor="start" x="134" y="-40.5" font-family="Helvetica,sans-Serif" font-size="10.00">+ check()</text>
<text text-anchor="start" x="134" y="-29.5" font-family="Helvetica,sans-Serif" font-size="10.00">+ beautify()</text>
<text text-anchor="start" x="134" y="-18.5" font-family="Helvetica,sans-Serif" font-size="10.00">+ getAcceptedType()</text>
</a>
</g>
</g>
<!-- Node1&#45;&gt;Node3 -->
<g id="edge2" class="edge"><title>Node1&#45;&gt;Node3</title>
<path fill="none" stroke="midnightblue" d="M1712.35,-259.414C1447.57,-258.238 564.479,-246.68 303,-146 295.092,-142.955 287.304,-139.005 279.805,-134.524"/>
<polygon fill="none" stroke="midnightblue" points="1712.61,-262.915 1722.62,-259.456 1712.64,-255.915 1712.61,-262.915"/>
</g>
<!-- Node4 -->
<g id="node4" class="node"><title>Node4</title>
<g id="a_node4"><a xlink:href="classo2_1_1quality__control__modules_1_1common_1_1NonEmpty.html" target="_top" xlink:title="Check whether a plot is empty or not. ">
<polygon fill="none" stroke="black" points="312.5,-6 312.5,-140 467.5,-140 467.5,-6 312.5,-6"/>
<text text-anchor="start" x="320.5" y="-128" font-family="Helvetica,sans-Serif" font-size="10.00">o2::quality_control</text>
<text text-anchor="middle" x="390" y="-117" font-family="Helvetica,sans-Serif" font-size="10.00">_modules::common::NonEmpty</text>
<polyline fill="none" stroke="black" points="312.5,-110 467.5,-110 "/>
<text text-anchor="middle" x="390" y="-98" font-family="Helvetica,sans-Serif" font-size="10.00"> </text>
<polyline fill="none" stroke="black" points="312.5,-91 467.5,-91 "/>
<text text-anchor="start" x="320.5" y="-79" font-family="Helvetica,sans-Serif" font-size="10.00">+ NonEmpty()</text>
<text text-anchor="start" x="320.5" y="-68" font-family="Helvetica,sans-Serif" font-size="10.00">+ ~NonEmpty()</text>
<text text-anchor="start" x="320.5" y="-57" font-family="Helvetica,sans-Serif" font-size="10.00">+ configure()</text>
<text text-anchor="start" x="320.5" y="-46" font-family="Helvetica,sans-Serif" font-size="10.00">+ check()</text>
<text text-anchor="start" x="320.5" y="-35" font-family="Helvetica,sans-Serif" font-size="10.00">+ beautify()</text>
<text text-anchor="start" x="320.5" y="-24" font-family="Helvetica,sans-Serif" font-size="10.00">+ getAcceptedType()</text>
<text text-anchor="start" x="320.5" y="-13" font-family="Helvetica,sans-Serif" font-size="10.00">+ ClassDefOverride()</text>
</a>
</g>
</g>
<!-- Node1&#45;&gt;Node4 -->
<g id="edge3" class="edge"><title>Node1&#45;&gt;Node4</title>
<path fill="none" stroke="midnightblue" d="M1712.58,-258.828C1468.58,-255.75 703.382,-238.751 477,-146 472.827,-144.29 468.702,-142.307 464.65,-140.112"/>
<polygon fill="none" stroke="midnightblue" points="1712.72,-262.33 1722.76,-258.953 1712.81,-255.331 1712.72,-262.33"/>
</g>
<!-- Node5 -->
<g id="node5" class="node"><title>Node5</title>
<g id="a_node5"><a xlink:href="classo2_1_1quality__control__modules_1_1daq_1_1EverIncreasingGraph.html" target="_top" xlink:title="Check whether a plot is empty or not. ">
<polygon fill="none" stroke="black" points="486,-6 486,-140 638,-140 638,-6 486,-6"/>
<text text-anchor="start" x="494" y="-128" font-family="Helvetica,sans-Serif" font-size="10.00">o2::quality_control</text>
<text text-anchor="start" x="494" y="-117" font-family="Helvetica,sans-Serif" font-size="10.00">_modules::daq::EverIncreasing</text>
<text text-anchor="middle" x="562" y="-106" font-family="Helvetica,sans-Serif" font-size="10.00">Graph</text>
<polyline fill="none" stroke="black" points="486,-99 638,-99 "/>
<text text-anchor="middle" x="562" y="-87" font-family="Helvetica,sans-Serif" font-size="10.00"> </text>
<polyline fill="none" stroke="black" points="486,-80 638,-80 "/>
<text text-anchor="start" x="494" y="-68" font-family="Helvetica,sans-Serif" font-size="10.00">+ EverIncreasingGraph()</text>
<text text-anchor="start" x="494" y="-57" font-family="Helvetica,sans-Serif" font-size="10.00">+ ~EverIncreasingGraph()</text>
<text text-anchor="start" x="494" y="-46" font-family="Helvetica,sans-Serif" font-size="10.00">+ configure()</text>
<text text-anchor="start" x="494" y="-35" font-family="Helvetica,sans-Serif" font-size="10.00">+ check()</text>
<text text-anchor="start" x="494" y="-24" font-family="Helvetica,sans-Serif" font-size="10.00">+ beautify()</text>
<text text-anchor="start" x="494" y="-13" font-family="Helvetica,sans-Serif" font-size="10.00">+ getAcceptedType()</text>
</a>
</g>
</g>
<!-- Node1&#45;&gt;Node5 -->
<g id="edge4" class="edge"><title>Node1&#45;&gt;Node5</title>
<path fill="none" stroke="midnightblue" d="M1712.63,-257.812C1490.26,-251.928 840.382,-227.981 647,-146 642.905,-144.264 638.859,-142.259 634.888,-140.046"/>
<polygon fill="none" stroke="midnightblue" points="1712.81,-261.318 1722.89,-258.079 1712.99,-254.32 1712.81,-261.318"/>
</g>
<!-- Node6 -->
<g id="node6" class="node"><title>Node6</title>
<g id="a_node6"><a xlink:href="classo2_1_1quality__control__modules_1_1emcal_1_1DigitCheck.html" target="_top" xlink:title="Check whether a plot is empty or not. ">
<polygon fill="none" stroke="black" points="656,-6 656,-140 802,-140 802,-6 656,-6"/>
<text text-anchor="start" x="664" y="-128" font-family="Helvetica,sans-Serif" font-size="10.00">o2::quality_control</text>
<text text-anchor="middle" x="729" y="-117" font-family="Helvetica,sans-Serif" font-size="10.00">_modules::emcal::DigitCheck</text>
<polyline fill="none" stroke="black" points="656,-110 802,-110 "/>
<text text-anchor="middle" x="729" y="-98" font-family="Helvetica,sans-Serif" font-size="10.00"> </text>
<polyline fill="none" stroke="black" points="656,-91 802,-91 "/>
<text text-anchor="start" x="664" y="-79" font-family="Helvetica,sans-Serif" font-size="10.00">+ DigitCheck()</text>
<text text-anchor="start" x="664" y="-68" font-family="Helvetica,sans-Serif" font-size="10.00">+ ~DigitCheck()</text>
<text text-anchor="start" x="664" y="-57" font-family="Helvetica,sans-Serif" font-size="10.00">+ configure()</text>
<text text-anchor="start" x="664" y="-46" font-family="Helvetica,sans-Serif" font-size="10.00">+ check()</text>
<text text-anchor="start" x="664" y="-35" font-family="Helvetica,sans-Serif" font-size="10.00">+ beautify()</text>
<text text-anchor="start" x="664" y="-24" font-family="Helvetica,sans-Serif" font-size="10.00">+ getAcceptedType()</text>
<text text-anchor="start" x="664" y="-13" font-family="Helvetica,sans-Serif" font-size="10.00">+ ClassDefOverride()</text>
</a>
</g>
</g>
<!-- Node1&#45;&gt;Node6 -->
<g id="edge5" class="edge"><title>Node1&#45;&gt;Node6</title>
<path fill="none" stroke="midnightblue" d="M1712.86,-256.539C1513.03,-247.758 972.723,-217.854 811,-146 807.105,-144.269 803.26,-142.287 799.489,-140.11"/>
<polygon fill="none" stroke="midnightblue" points="1712.83,-260.041 1722.97,-256.978 1713.13,-253.047 1712.83,-260.041"/>
</g>
<!-- Node7 -->
<g id="node7" class="node"><title>Node7</title>
<g id="a_node7"><a xlink:href="classo2_1_1quality__control__modules_1_1emcal_1_1RawCheck.html" target="_top" xlink:title="EMCAL raw data check It is final because there is no reason to derive from it. Just remove it if need...">
<polygon fill="none" stroke="black" points="820,-6 820,-140 966,-140 966,-6 820,-6"/>
<text text-anchor="start" x="828" y="-128" font-family="Helvetica,sans-Serif" font-size="10.00">o2::quality_control</text>
<text text-anchor="middle" x="893" y="-117" font-family="Helvetica,sans-Serif" font-size="10.00">_modules::emcal::RawCheck</text>
<polyline fill="none" stroke="black" points="820,-110 966,-110 "/>
<text text-anchor="middle" x="893" y="-98" font-family="Helvetica,sans-Serif" font-size="10.00"> </text>
<polyline fill="none" stroke="black" points="820,-91 966,-91 "/>
<text text-anchor="start" x="828" y="-79" font-family="Helvetica,sans-Serif" font-size="10.00">+ RawCheck()</text>
<text text-anchor="start" x="828" y="-68" font-family="Helvetica,sans-Serif" font-size="10.00">+ ~RawCheck()</text>
<text text-anchor="start" x="828" y="-57" font-family="Helvetica,sans-Serif" font-size="10.00">+ configure()</text>
<text text-anchor="start" x="828" y="-46" font-family="Helvetica,sans-Serif" font-size="10.00">+ check()</text>
<text text-anchor="start" x="828" y="-35" font-family="Helvetica,sans-Serif" font-size="10.00">+ beautify()</text>
<text text-anchor="start" x="828" y="-24" font-family="Helvetica,sans-Serif" font-size="10.00">+ getAcceptedType()</text>
<text text-anchor="start" x="828" y="-13" font-family="Helvetica,sans-Serif" font-size="10.00">+ ClassDefOverride()</text>
</a>
</g>
</g>
<!-- Node1&#45;&gt;Node7 -->
<g id="edge6" class="edge"><title>Node1&#45;&gt;Node7</title>
<path fill="none" stroke="midnightblue" d="M1712.78,-254.524C1537.34,-242.04 1106,-206.022 975,-146 971.211,-144.264 967.467,-142.294 963.79,-140.145"/>
<polygon fill="none" stroke="midnightblue" points="1712.74,-258.03 1722.96,-255.242 1713.23,-251.047 1712.74,-258.03"/>
</g>
<!-- Node8 -->
<g id="node8" class="node"><title>Node8</title>
<g id="a_node8"><a xlink:href="classo2_1_1quality__control__modules_1_1example_1_1FakeCheck.html" target="_top" xlink:title="Check whether a plot is empty or not. ">
<polygon fill="none" stroke="black" points="984,-6 984,-140 1142,-140 1142,-6 984,-6"/>
<text text-anchor="start" x="992" y="-128" font-family="Helvetica,sans-Serif" font-size="10.00">o2::quality_control</text>
<text text-anchor="middle" x="1063" y="-117" font-family="Helvetica,sans-Serif" font-size="10.00">_modules::example::FakeCheck</text>
<polyline fill="none" stroke="black" points="984,-110 1142,-110 "/>
<text text-anchor="middle" x="1063" y="-98" font-family="Helvetica,sans-Serif" font-size="10.00"> </text>
<polyline fill="none" stroke="black" points="984,-91 1142,-91 "/>
<text text-anchor="start" x="992" y="-79" font-family="Helvetica,sans-Serif" font-size="10.00">+ FakeCheck()</text>
<text text-anchor="start" x="992" y="-68" font-family="Helvetica,sans-Serif" font-size="10.00">+ ~FakeCheck()</text>
<text text-anchor="start" x="992" y="-57" font-family="Helvetica,sans-Serif" font-size="10.00">+ configure()</text>
<text text-anchor="start" x="992" y="-46" font-family="Helvetica,sans-Serif" font-size="10.00">+ check()</text>
<text text-anchor="start" x="992" y="-35" font-family="Helvetica,sans-Serif" font-size="10.00">+ beautify()</text>
<text text-anchor="start" x="992" y="-24" font-family="Helvetica,sans-Serif" font-size="10.00">+ getAcceptedType()</text>
<text text-anchor="start" x="992" y="-13" font-family="Helvetica,sans-Serif" font-size="10.00">+ ClassDefOverride()</text>
</a>
</g>
</g>
<!-- Node1&#45;&gt;Node8 -->
<g id="edge7" class="edge"><title>Node1&#45;&gt;Node8</title>
<path fill="none" stroke="midnightblue" d="M1712.82,-258.228C1589.83,-253.553 1340.35,-233.077 1151,-146 1147.14,-144.227 1143.32,-142.244 1139.54,-140.098"/>
<polygon fill="none" stroke="midnightblue" points="1712.77,-261.729 1722.89,-258.586 1713.02,-254.733 1712.77,-261.729"/>
</g>
<!-- Node9 -->
<g id="node9" class="node"><title>Node9</title>
<g id="a_node9"><a xlink:href="classo2_1_1quality__control__modules_1_1mft_1_1BasicClusterQcCheck.html" target="_top" xlink:title="MFT Cluster Check. ">
<polygon fill="none" stroke="black" points="1160.5,-0.5 1160.5,-145.5 1301.5,-145.5 1301.5,-0.5 1160.5,-0.5"/>
<text text-anchor="start" x="1168.5" y="-133.5" font-family="Helvetica,sans-Serif" font-size="10.00">o2::quality_control</text>
<text text-anchor="start" x="1168.5" y="-122.5" font-family="Helvetica,sans-Serif" font-size="10.00">_modules::mft::BasicCluster</text>
<text text-anchor="middle" x="1231" y="-111.5" font-family="Helvetica,sans-Serif" font-size="10.00">QcCheck</text>
<polyline fill="none" stroke="black" points="1160.5,-104.5 1301.5,-104.5 "/>
<text text-anchor="middle" x="1231" y="-92.5" font-family="Helvetica,sans-Serif" font-size="10.00"> </text>
<polyline fill="none" stroke="black" points="1160.5,-85.5 1301.5,-85.5 "/>
<text text-anchor="start" x="1168.5" y="-73.5" font-family="Helvetica,sans-Serif" font-size="10.00">+ BasicClusterQcCheck()</text>
<text text-anchor="start" x="1168.5" y="-62.5" font-family="Helvetica,sans-Serif" font-size="10.00">+ ~BasicClusterQcCheck()</text>
<text text-anchor="start" x="1168.5" y="-51.5" font-family="Helvetica,sans-Serif" font-size="10.00">+ configure()</text>
<text text-anchor="start" x="1168.5" y="-40.5" font-family="Helvetica,sans-Serif" font-size="10.00">+ check()</text>
<text text-anchor="start" x="1168.5" y="-29.5" font-family="Helvetica,sans-Serif" font-size="10.00">+ beautify()</text>
<text text-anchor="start" x="1168.5" y="-18.5" font-family="Helvetica,sans-Serif" font-size="10.00">+ getAcceptedType()</text>
<text text-anchor="start" x="1168.5" y="-7.5" font-family="Helvetica,sans-Serif" font-size="10.00">+ ClassDefOverride()</text>
</a>
</g>
</g>
<!-- Node1&#45;&gt;Node9 -->
<g id="edge8" class="edge"><title>Node1&#45;&gt;Node9</title>
<path fill="none" stroke="midnightblue" d="M1712.83,-253.382C1615.06,-242.88 1441.29,-215.37 1310,-146 1307.21,-144.526 1304.44,-142.931 1301.71,-141.236"/>
<polygon fill="none" stroke="midnightblue" points="1712.61,-256.878 1722.92,-254.434 1713.33,-249.916 1712.61,-256.878"/>
</g>
<!-- Node10 -->
<g id="node10" class="node"><title>Node10</title>
<g id="a_node10"><a xlink:href="classo2_1_1quality__control__modules_1_1mft_1_1BasicDigitQcCheck.html" target="_top" xlink:title="MFT Digit Check. ">
<polygon fill="none" stroke="black" points="1319.5,-0.5 1319.5,-145.5 1462.5,-145.5 1462.5,-0.5 1319.5,-0.5"/>
<text text-anchor="start" x="1327.5" y="-133.5" font-family="Helvetica,sans-Serif" font-size="10.00">o2::quality_control</text>
<text text-anchor="start" x="1327.5" y="-122.5" font-family="Helvetica,sans-Serif" font-size="10.00">_modules::mft::BasicDigitQc</text>
<text text-anchor="middle" x="1391" y="-111.5" font-family="Helvetica,sans-Serif" font-size="10.00">Check</text>
<polyline fill="none" stroke="black" points="1319.5,-104.5 1462.5,-104.5 "/>
<text text-anchor="middle" x="1391" y="-92.5" font-family="Helvetica,sans-Serif" font-size="10.00"> </text>
<polyline fill="none" stroke="black" points="1319.5,-85.5 1462.5,-85.5 "/>
<text text-anchor="start" x="1327.5" y="-73.5" font-family="Helvetica,sans-Serif" font-size="10.00">+ BasicDigitQcCheck()</text>
<text text-anchor="start" x="1327.5" y="-62.5" font-family="Helvetica,sans-Serif" font-size="10.00">+ ~BasicDigitQcCheck()</text>
<text text-anchor="start" x="1327.5" y="-51.5" font-family="Helvetica,sans-Serif" font-size="10.00">+ configure()</text>
<text text-anchor="start" x="1327.5" y="-40.5" font-family="Helvetica,sans-Serif" font-size="10.00">+ check()</text>
<text text-anchor="start" x="1327.5" y="-29.5" font-family="Helvetica,sans-Serif" font-size="10.00">+ beautify()</text>
<text text-anchor="start" x="1327.5" y="-18.5" font-family="Helvetica,sans-Serif" font-size="10.00">+ getAcceptedType()</text>
<text text-anchor="start" x="1327.5" y="-7.5" font-family="Helvetica,sans-Serif" font-size="10.00">+ ClassDefOverride()</text>
</a>
</g>
</g>
<!-- Node1&#45;&gt;Node10 -->
<g id="edge9" class="edge"><title>Node1&#45;&gt;Node10</title>
<path fill="none" stroke="midnightblue" d="M1712.82,-241.482C1646.2,-223.497 1547.86,-191.896 1471,-146 1468.27,-144.371 1465.55,-142.642 1462.86,-140.831"/>
<polygon fill="none" stroke="midnightblue" points="1712.26,-244.954 1722.82,-244.144 1714.06,-238.19 1712.26,-244.954"/>
</g>
<!-- Node11 -->
<g id="node11" class="node"><title>Node11</title>
<g id="a_node11"><a xlink:href="classo2_1_1quality__control__modules_1_1mft_1_1BasicTrackQcCheck.html" target="_top" xlink:title="MFT Track Check. ">
<polygon fill="none" stroke="black" points="1480.5,-0.5 1480.5,-145.5 1627.5,-145.5 1627.5,-0.5 1480.5,-0.5"/>
<text text-anchor="start" x="1488.5" y="-133.5" font-family="Helvetica,sans-Serif" font-size="10.00">o2::quality_control</text>
<text text-anchor="start" x="1488.5" y="-122.5" font-family="Helvetica,sans-Serif" font-size="10.00">_modules::mft::BasicTrackQc</text>
<text text-anchor="middle" x="1554" y="-111.5" font-family="Helvetica,sans-Serif" font-size="10.00">Check</text>
<polyline fill="none" stroke="black" points="1480.5,-104.5 1627.5,-104.5 "/>
<text text-anchor="middle" x="1554" y="-92.5" font-family="Helvetica,sans-Serif" font-size="10.00"> </text>
<polyline fill="none" stroke="black" points="1480.5,-85.5 1627.5,-85.5 "/>
<text text-anchor="start" x="1488.5" y="-73.5" font-family="Helvetica,sans-Serif" font-size="10.00">+ BasicTrackQcCheck()</text>
<text text-anchor="start" x="1488.5" y="-62.5" font-family="Helvetica,sans-Serif" font-size="10.00">+ ~BasicTrackQcCheck()</text>
<text text-anchor="start" x="1488.5" y="-51.5" font-family="Helvetica,sans-Serif" font-size="10.00">+ configure()</text>
<text text-anchor="start" x="1488.5" y="-40.5" font-family="Helvetica,sans-Serif" font-size="10.00">+ check()</text>
<text text-anchor="start" x="1488.5" y="-29.5" font-family="Helvetica,sans-Serif" font-size="10.00">+ beautify()</text>
<text text-anchor="start" x="1488.5" y="-18.5" font-family="Helvetica,sans-Serif" font-size="10.00">+ getAcceptedType()</text>
<text text-anchor="start" x="1488.5" y="-7.5" font-family="Helvetica,sans-Serif" font-size="10.00">+ ClassDefOverride()</text>
</a>
</g>
</g>
<!-- Node1&#45;&gt;Node11 -->
<g id="edge10" class="edge"><title>Node1&#45;&gt;Node11</title>
<path fill="none" stroke="midnightblue" d="M1714.7,-206.587C1689.43,-187.869 1661.17,-166.393 1636,-146 1633.2,-143.734 1630.37,-141.408 1627.52,-139.042"/>
<polygon fill="none" stroke="midnightblue" points="1712.67,-209.437 1722.79,-212.562 1716.83,-203.806 1712.67,-209.437"/>
</g>
<!-- Node12 -->
<g id="node12" class="node"><title>Node12</title>
<g id="a_node12"><a xlink:href="classo2_1_1quality__control__modules_1_1muonchambers_1_1PedestalsCheck.html" target="_top" xlink:title="Check whether a plot is empty or not. ">
<polygon fill="none" stroke="black" points="1645.5,-0.5 1645.5,-145.5 1776.5,-145.5 1776.5,-0.5 1645.5,-0.5"/>
<text text-anchor="start" x="1653.5" y="-133.5" font-family="Helvetica,sans-Serif" font-size="10.00">o2::quality_control</text>
<text text-anchor="start" x="1653.5" y="-122.5" font-family="Helvetica,sans-Serif" font-size="10.00">_modules::muonchambers</text>
<text text-anchor="middle" x="1711" y="-111.5" font-family="Helvetica,sans-Serif" font-size="10.00">::PedestalsCheck</text>
<polyline fill="none" stroke="black" points="1645.5,-104.5 1776.5,-104.5 "/>
<text text-anchor="start" x="1653.5" y="-92.5" font-family="Helvetica,sans-Serif" font-size="10.00">+ minMCHpedestal</text>
<text text-anchor="start" x="1653.5" y="-81.5" font-family="Helvetica,sans-Serif" font-size="10.00">+ maxMCHpedestal</text>
<polyline fill="none" stroke="black" points="1645.5,-74.5 1776.5,-74.5 "/>
<text text-anchor="start" x="1653.5" y="-62.5" font-family="Helvetica,sans-Serif" font-size="10.00">+ PedestalsCheck()</text>
<text text-anchor="start" x="1653.5" y="-51.5" font-family="Helvetica,sans-Serif" font-size="10.00">+ ~PedestalsCheck()</text>
<text text-anchor="start" x="1653.5" y="-40.5" font-family="Helvetica,sans-Serif" font-size="10.00">+ configure()</text>
<text text-anchor="start" x="1653.5" y="-29.5" font-family="Helvetica,sans-Serif" font-size="10.00">+ check()</text>
<text text-anchor="start" x="1653.5" y="-18.5" font-family="Helvetica,sans-Serif" font-size="10.00">+ beautify()</text>
<text text-anchor="start" x="1653.5" y="-7.5" font-family="Helvetica,sans-Serif" font-size="10.00">+ getAcceptedType()</text>
</a>
</g>
</g>
<!-- Node1&#45;&gt;Node12 -->
<g id="edge11" class="edge"><title>Node1&#45;&gt;Node12</title>
<path fill="none" stroke="midnightblue" d="M1752.09,-172.991C1748.31,-163.879 1744.49,-154.686 1740.79,-145.767"/>
<polygon fill="none" stroke="midnightblue" points="1748.95,-174.549 1756.01,-182.443 1755.41,-171.865 1748.95,-174.549"/>
</g>
<!-- Node13 -->
<g id="node13" class="node"><title>Node13</title>
<g id="a_node13"><a xlink:href="classo2_1_1quality__control__modules_1_1phos_1_1DigitCheck.html" target="_top" xlink:title="Check mos: appearence of dead regions in occupancy plots, mean and RMS etc. ">
<polygon fill="none" stroke="black" points="1795,-6 1795,-140 1935,-140 1935,-6 1795,-6"/>
<text text-anchor="start" x="1803" y="-128" font-family="Helvetica,sans-Serif" font-size="10.00">o2::quality_control</text>
<text text-anchor="middle" x="1865" y="-117" font-family="Helvetica,sans-Serif" font-size="10.00">_modules::phos::DigitCheck</text>
<polyline fill="none" stroke="black" points="1795,-110 1935,-110 "/>
<text text-anchor="middle" x="1865" y="-98" font-family="Helvetica,sans-Serif" font-size="10.00"> </text>
<polyline fill="none" stroke="black" points="1795,-91 1935,-91 "/>
<text text-anchor="start" x="1803" y="-79" font-family="Helvetica,sans-Serif" font-size="10.00">+ DigitCheck()</text>
<text text-anchor="start" x="1803" y="-68" font-family="Helvetica,sans-Serif" font-size="10.00">+ ~DigitCheck()</text>
<text text-anchor="start" x="1803" y="-57" font-family="Helvetica,sans-Serif" font-size="10.00">+ configure()</text>
<text text-anchor="start" x="1803" y="-46" font-family="Helvetica,sans-Serif" font-size="10.00">+ check()</text>
<text text-anchor="start" x="1803" y="-35" font-family="Helvetica,sans-Serif" font-size="10.00">+ beautify()</text>
<text text-anchor="start" x="1803" y="-24" font-family="Helvetica,sans-Serif" font-size="10.00">+ getAcceptedType()</text>
<text text-anchor="start" x="1803" y="-13" font-family="Helvetica,sans-Serif" font-size="10.00">+ ClassDefOverride()</text>
</a>
</g>
</g>
<!-- Node1&#45;&gt;Node13 -->
<g id="edge12" class="edge"><title>Node1&#45;&gt;Node13</title>
<path fill="none" stroke="midnightblue" d="M1823.83,-173.175C1828.43,-162.091 1833.09,-150.884 1837.52,-140.191"/>
<polygon fill="none" stroke="midnightblue" points="1820.59,-171.865 1819.99,-182.443 1827.05,-174.549 1820.59,-171.865"/>
</g>
<!-- Node14 -->
<g id="node14" class="node"><title>Node14</title>
<g id="a_node14"><a xlink:href="classo2_1_1quality__control__modules_1_1phos_1_1RawCheck.html" target="_top" xlink:title="PHOS raw data check It is final because there is no reason to derive from it. Just remove it if neede...">
<polygon fill="none" stroke="black" points="1953,-6 1953,-140 2093,-140 2093,-6 1953,-6"/>
<text text-anchor="start" x="1961" y="-128" font-family="Helvetica,sans-Serif" font-size="10.00">o2::quality_control</text>
<text text-anchor="middle" x="2023" y="-117" font-family="Helvetica,sans-Serif" font-size="10.00">_modules::phos::RawCheck</text>
<polyline fill="none" stroke="black" points="1953,-110 2093,-110 "/>
<text text-anchor="middle" x="2023" y="-98" font-family="Helvetica,sans-Serif" font-size="10.00"> </text>
<polyline fill="none" stroke="black" points="1953,-91 2093,-91 "/>
<text text-anchor="start" x="1961" y="-79" font-family="Helvetica,sans-Serif" font-size="10.00">+ RawCheck()</text>
<text text-anchor="start" x="1961" y="-68" font-family="Helvetica,sans-Serif" font-size="10.00">+ ~RawCheck()</text>
<text text-anchor="start" x="1961" y="-57" font-family="Helvetica,sans-Serif" font-size="10.00">+ configure()</text>
<text text-anchor="start" x="1961" y="-46" font-family="Helvetica,sans-Serif" font-size="10.00">+ check()</text>
<text text-anchor="start" x="1961" y="-35" font-family="Helvetica,sans-Serif" font-size="10.00">+ beautify()</text>
<text text-anchor="start" x="1961" y="-24" font-family="Helvetica,sans-Serif" font-size="10.00">+ getAcceptedType()</text>
<text text-anchor="start" x="1961" y="-13" font-family="Helvetica,sans-Serif" font-size="10.00">+ ClassDefOverride()</text>
</a>
</g>
</g>
<!-- Node1&#45;&gt;Node14 -->
<g id="edge13" class="edge"><title>Node1&#45;&gt;Node14</title>
<path fill="none" stroke="midnightblue" d="M1861.79,-208.35C1888.2,-189.382 1917.88,-167.294 1944,-146 1946.88,-143.655 1949.79,-141.236 1952.7,-138.771"/>
<polygon fill="none" stroke="midnightblue" points="1859.43,-205.73 1853.33,-214.394 1863.5,-211.424 1859.43,-205.73"/>
</g>
<!-- Node15 -->
<g id="node15" class="node"><title>Node15</title>
<g id="a_node15"><a xlink:href="classo2_1_1quality__control__modules_1_1skeleton_1_1SkeletonCheck.html" target="_top" xlink:title="Example QC Check. ">
<polygon fill="none" stroke="black" points="2111,-0.5 2111,-145.5 2221,-145.5 2221,-0.5 2111,-0.5"/>
<text text-anchor="start" x="2119" y="-133.5" font-family="Helvetica,sans-Serif" font-size="10.00">o2::quality_control</text>
<text text-anchor="start" x="2119" y="-122.5" font-family="Helvetica,sans-Serif" font-size="10.00">_modules::skeleton::</text>
<text text-anchor="middle" x="2166" y="-111.5" font-family="Helvetica,sans-Serif" font-size="10.00">SkeletonCheck</text>
<polyline fill="none" stroke="black" points="2111,-104.5 2221,-104.5 "/>
<text text-anchor="middle" x="2166" y="-92.5" font-family="Helvetica,sans-Serif" font-size="10.00"> </text>
<polyline fill="none" stroke="black" points="2111,-85.5 2221,-85.5 "/>
<text text-anchor="start" x="2119" y="-73.5" font-family="Helvetica,sans-Serif" font-size="10.00">+ SkeletonCheck()</text>
<text text-anchor="start" x="2119" y="-62.5" font-family="Helvetica,sans-Serif" font-size="10.00">+ ~SkeletonCheck()</text>
<text text-anchor="start" x="2119" y="-51.5" font-family="Helvetica,sans-Serif" font-size="10.00">+ configure()</text>
<text text-anchor="start" x="2119" y="-40.5" font-family="Helvetica,sans-Serif" font-size="10.00">+ check()</text>
<text text-anchor="start" x="2119" y="-29.5" font-family="Helvetica,sans-Serif" font-size="10.00">+ beautify()</text>
<text text-anchor="start" x="2119" y="-18.5" font-family="Helvetica,sans-Serif" font-size="10.00">+ getAcceptedType()</text>
<text text-anchor="start" x="2119" y="-7.5" font-family="Helvetica,sans-Serif" font-size="10.00">+ ClassDefOverride()</text>
</a>
</g>
</g>
<!-- Node1&#45;&gt;Node15 -->
<g id="edge14" class="edge"><title>Node1&#45;&gt;Node15</title>
<path fill="none" stroke="midnightblue" d="M1863.13,-243.525C1929.97,-226.82 2028.28,-195.947 2102,-146 2105.05,-143.936 2108.04,-141.695 2110.97,-139.323"/>
<polygon fill="none" stroke="midnightblue" points="1861.97,-240.205 1853.09,-245.986 1863.64,-247.004 1861.97,-240.205"/>
</g>
<!-- Node16 -->
<g id="node16" class="node"><title>Node16</title>
<g id="a_node16"><a xlink:href="classo2_1_1quality__control__modules_1_1tof_1_1CheckCompressedData.html" target="_top" xlink:title="Checker for the data produced by the TOF compressor (i.e. checking raw data) ">
<polygon fill="none" stroke="black" points="2239.5,-11.5 2239.5,-134.5 2426.5,-134.5 2426.5,-11.5 2239.5,-11.5"/>
<text text-anchor="start" x="2247.5" y="-122.5" font-family="Helvetica,sans-Serif" font-size="10.00">o2::quality_control</text>
<text text-anchor="middle" x="2333" y="-111.5" font-family="Helvetica,sans-Serif" font-size="10.00">_modules::tof::CheckCompressedData</text>
<polyline fill="none" stroke="black" points="2239.5,-104.5 2426.5,-104.5 "/>
<text text-anchor="middle" x="2333" y="-92.5" font-family="Helvetica,sans-Serif" font-size="10.00"> </text>
<polyline fill="none" stroke="black" points="2239.5,-85.5 2426.5,-85.5 "/>
<text text-anchor="start" x="2247.5" y="-73.5" font-family="Helvetica,sans-Serif" font-size="10.00">+ CheckCompressedData()</text>
<text text-anchor="start" x="2247.5" y="-62.5" font-family="Helvetica,sans-Serif" font-size="10.00">+ ~CheckCompressedData()</text>
<text text-anchor="start" x="2247.5" y="-51.5" font-family="Helvetica,sans-Serif" font-size="10.00">+ configure()</text>
<text text-anchor="start" x="2247.5" y="-40.5" font-family="Helvetica,sans-Serif" font-size="10.00">+ check()</text>
<text text-anchor="start" x="2247.5" y="-29.5" font-family="Helvetica,sans-Serif" font-size="10.00">+ beautify()</text>
<text text-anchor="start" x="2247.5" y="-18.5" font-family="Helvetica,sans-Serif" font-size="10.00">+ getAcceptedType()</text>
</a>
</g>
</g>
<!-- Node1&#45;&gt;Node16 -->
<g id="edge15" class="edge"><title>Node1&#45;&gt;Node16</title>
<path fill="none" stroke="midnightblue" d="M1863.16,-248.641C1953.39,-233.725 2107.83,-202.137 2230,-146 2237.34,-142.63 2244.7,-138.729 2251.94,-134.523"/>
<polygon fill="none" stroke="midnightblue" points="1862.33,-245.231 1853.02,-250.292 1863.45,-252.14 1862.33,-245.231"/>
</g>
<!-- Node17 -->
<g id="node17" class="node"><title>Node17</title>
<g id="a_node17"><a xlink:href="classo2_1_1quality__control__modules_1_1tof_1_1CheckDiagnostics.html" target="_top" xlink:title="Checker for diagnostic histogram of TOF Raw data. ">
<polygon fill="none" stroke="black" points="2445,-6 2445,-140 2607,-140 2607,-6 2445,-6"/>
<text text-anchor="start" x="2453" y="-128" font-family="Helvetica,sans-Serif" font-size="10.00">o2::quality_control</text>
<text text-anchor="middle" x="2526" y="-117" font-family="Helvetica,sans-Serif" font-size="10.00">_modules::tof::CheckDiagnostics</text>
<polyline fill="none" stroke="black" points="2445,-110 2607,-110 "/>
<text text-anchor="middle" x="2526" y="-98" font-family="Helvetica,sans-Serif" font-size="10.00"> </text>
<polyline fill="none" stroke="black" points="2445,-91 2607,-91 "/>
<text text-anchor="start" x="2453" y="-79" font-family="Helvetica,sans-Serif" font-size="10.00">+ CheckDiagnostics()</text>
<text text-anchor="start" x="2453" y="-68" font-family="Helvetica,sans-Serif" font-size="10.00">+ ~CheckDiagnostics()</text>
<text text-anchor="start" x="2453" y="-57" font-family="Helvetica,sans-Serif" font-size="10.00">+ configure()</text>
<text text-anchor="start" x="2453" y="-46" font-family="Helvetica,sans-Serif" font-size="10.00">+ check()</text>
<text text-anchor="start" x="2453" y="-35" font-family="Helvetica,sans-Serif" font-size="10.00">+ beautify()</text>
<text text-anchor="start" x="2453" y="-24" font-family="Helvetica,sans-Serif" font-size="10.00">+ getAcceptedType()</text>
<text text-anchor="start" x="2453" y="-13" font-family="Helvetica,sans-Serif" font-size="10.00">+ ClassDefOverride()</text>
</a>
</g>
</g>
<!-- Node1&#45;&gt;Node17 -->
<g id="edge16" class="edge"><title>Node1&#45;&gt;Node17</title>
<path fill="none" stroke="midnightblue" d="M1863.38,-258.291C1987.98,-253.723 2242.36,-233.421 2436,-146 2439.92,-144.23 2443.82,-142.249 2447.67,-140.106"/>
<polygon fill="none" stroke="midnightblue" points="1863.06,-254.799 1853.19,-258.64 1863.3,-261.795 1863.06,-254.799"/>
</g>
<!-- Node18 -->
<g id="node18" class="node"><title>Node18</title>
<g id="a_node18"><a xlink:href="classo2_1_1quality__control__modules_1_1tof_1_1CheckRawMultiplicity.html" target="_top" xlink:title="Check whether a plot is empty or not. ">
<polygon fill="none" stroke="black" points="2625.5,-11.5 2625.5,-134.5 2802.5,-134.5 2802.5,-11.5 2625.5,-11.5"/>
<text text-anchor="start" x="2633.5" y="-122.5" font-family="Helvetica,sans-Serif" font-size="10.00">o2::quality_control</text>
<text text-anchor="middle" x="2714" y="-111.5" font-family="Helvetica,sans-Serif" font-size="10.00">_modules::tof::CheckRawMultiplicity</text>
<polyline fill="none" stroke="black" points="2625.5,-104.5 2802.5,-104.5 "/>
<text text-anchor="middle" x="2714" y="-92.5" font-family="Helvetica,sans-Serif" font-size="10.00"> </text>
<polyline fill="none" stroke="black" points="2625.5,-85.5 2802.5,-85.5 "/>
<text text-anchor="start" x="2633.5" y="-73.5" font-family="Helvetica,sans-Serif" font-size="10.00">+ CheckRawMultiplicity()</text>
<text text-anchor="start" x="2633.5" y="-62.5" font-family="Helvetica,sans-Serif" font-size="10.00">+ ~CheckRawMultiplicity()</text>
<text text-anchor="start" x="2633.5" y="-51.5" font-family="Helvetica,sans-Serif" font-size="10.00">+ configure()</text>
<text text-anchor="start" x="2633.5" y="-40.5" font-family="Helvetica,sans-Serif" font-size="10.00">+ check()</text>
<text text-anchor="start" x="2633.5" y="-29.5" font-family="Helvetica,sans-Serif" font-size="10.00">+ beautify()</text>
<text text-anchor="start" x="2633.5" y="-18.5" font-family="Helvetica,sans-Serif" font-size="10.00">+ getAcceptedType()</text>
</a>
</g>
</g>
<!-- Node1&#45;&gt;Node18 -->
<g id="edge17" class="edge"><title>Node1&#45;&gt;Node18</title>
<path fill="none" stroke="midnightblue" d="M1863.03,-253.967C2040.18,-240.147 2479.71,-201.215 2616,-146 2623.83,-142.829 2631.6,-138.891 2639.15,-134.503"/>
<polygon fill="none" stroke="midnightblue" points="1862.72,-250.481 1853.02,-254.744 1863.26,-257.46 1862.72,-250.481"/>
</g>
<!-- Node19 -->
<g id="node19" class="node"><title>Node19</title>
<g id="a_node19"><a xlink:href="classo2_1_1quality__control__modules_1_1tof_1_1CheckRawTime.html" target="_top" xlink:title="{o2::quality_control\l_modules::tof::CheckRawTime\n||+ CheckRawTime()\l+ ~CheckRawTime()\l+ configure()\l+ check()\l+ beautify()\l+ getAcceptedType()\l}">
<polygon fill="none" stroke="black" points="2821,-11.5 2821,-134.5 2973,-134.5 2973,-11.5 2821,-11.5"/>
<text text-anchor="start" x="2829" y="-122.5" font-family="Helvetica,sans-Serif" font-size="10.00">o2::quality_control</text>
<text text-anchor="middle" x="2897" y="-111.5" font-family="Helvetica,sans-Serif" font-size="10.00">_modules::tof::CheckRawTime</text>
<polyline fill="none" stroke="black" points="2821,-104.5 2973,-104.5 "/>
<text text-anchor="middle" x="2897" y="-92.5" font-family="Helvetica,sans-Serif" font-size="10.00"> </text>
<polyline fill="none" stroke="black" points="2821,-85.5 2973,-85.5 "/>
<text text-anchor="start" x="2829" y="-73.5" font-family="Helvetica,sans-Serif" font-size="10.00">+ CheckRawTime()</text>
<text text-anchor="start" x="2829" y="-62.5" font-family="Helvetica,sans-Serif" font-size="10.00">+ ~CheckRawTime()</text>
<text text-anchor="start" x="2829" y="-51.5" font-family="Helvetica,sans-Serif" font-size="10.00">+ configure()</text>
<text text-anchor="start" x="2829" y="-40.5" font-family="Helvetica,sans-Serif" font-size="10.00">+ check()</text>
<text text-anchor="start" x="2829" y="-29.5" font-family="Helvetica,sans-Serif" font-size="10.00">+ beautify()</text>
<text text-anchor="start" x="2829" y="-18.5" font-family="Helvetica,sans-Serif" font-size="10.00">+ getAcceptedType()</text>
</a>
</g>
</g>
<!-- Node1&#45;&gt;Node19 -->
<g id="edge18" class="edge"><title>Node1&#45;&gt;Node19</title>
<path fill="none" stroke="midnightblue" d="M1863.41,-256.827C2069.97,-248.615 2640.85,-219.693 2812,-146 2819.11,-142.941 2826.07,-139.08 2832.75,-134.742"/>
<polygon fill="none" stroke="midnightblue" points="1863.12,-253.336 1853.27,-257.225 1863.4,-260.33 1863.12,-253.336"/>
</g>
<!-- Node20 -->
<g id="node20" class="node"><title>Node20</title>
<g id="a_node20"><a xlink:href="classo2_1_1quality__control__modules_1_1tof_1_1CheckRawToT.html" target="_top" xlink:title="{o2::quality_control\l_modules::tof::CheckRawToT\n||+ CheckRawToT()\l+ ~CheckRawToT()\l+ configure()\l+ check()\l+ beautify()\l+ getAcceptedType()\l}">
<polygon fill="none" stroke="black" points="2991,-11.5 2991,-134.5 3139,-134.5 3139,-11.5 2991,-11.5"/>
<text text-anchor="start" x="2999" y="-122.5" font-family="Helvetica,sans-Serif" font-size="10.00">o2::quality_control</text>
<text text-anchor="middle" x="3065" y="-111.5" font-family="Helvetica,sans-Serif" font-size="10.00">_modules::tof::CheckRawToT</text>
<polyline fill="none" stroke="black" points="2991,-104.5 3139,-104.5 "/>
<text text-anchor="middle" x="3065" y="-92.5" font-family="Helvetica,sans-Serif" font-size="10.00"> </text>
<polyline fill="none" stroke="black" points="2991,-85.5 3139,-85.5 "/>
<text text-anchor="start" x="2999" y="-73.5" font-family="Helvetica,sans-Serif" font-size="10.00">+ CheckRawToT()</text>
<text text-anchor="start" x="2999" y="-62.5" font-family="Helvetica,sans-Serif" font-size="10.00">+ ~CheckRawToT()</text>
<text text-anchor="start" x="2999" y="-51.5" font-family="Helvetica,sans-Serif" font-size="10.00">+ configure()</text>
<text text-anchor="start" x="2999" y="-40.5" font-family="Helvetica,sans-Serif" font-size="10.00">+ check()</text>
<text text-anchor="start" x="2999" y="-29.5" font-family="Helvetica,sans-Serif" font-size="10.00">+ beautify()</text>
<text text-anchor="start" x="2999" y="-18.5" font-family="Helvetica,sans-Serif" font-size="10.00">+ getAcceptedType()</text>
</a>
</g>
</g>
<!-- Node1&#45;&gt;Node20 -->
<g id="edge19" class="edge"><title>Node1&#45;&gt;Node20</title>
<path fill="none" stroke="midnightblue" d="M1863.34,-258.303C2092.68,-253.731 2779,-232.946 2982,-146 2989.19,-142.921 2996.2,-138.981 3002.92,-134.535"/>
<polygon fill="none" stroke="midnightblue" points="1863.02,-254.808 1853.09,-258.502 1863.16,-261.807 1863.02,-254.808"/>
</g>
<!-- Node21 -->
<g id="node21" class="node"><title>Node21</title>
<g id="a_node21"><a xlink:href="classo2_1_1quality__control__modules_1_1tpc_1_1PIDClusterCheck.html" target="_top" xlink:title="Check whether the cluster number for a track is smaller than 159 in PID task. ">
<polygon fill="none" stroke="black" points="3157.5,-11.5 3157.5,-134.5 3318.5,-134.5 3318.5,-11.5 3157.5,-11.5"/>
<text text-anchor="start" x="3165.5" y="-122.5" font-family="Helvetica,sans-Serif" font-size="10.00">o2::quality_control</text>
<text text-anchor="middle" x="3238" y="-111.5" font-family="Helvetica,sans-Serif" font-size="10.00">_modules::tpc::PIDClusterCheck</text>
<polyline fill="none" stroke="black" points="3157.5,-104.5 3318.5,-104.5 "/>
<text text-anchor="middle" x="3238" y="-92.5" font-family="Helvetica,sans-Serif" font-size="10.00"> </text>
<polyline fill="none" stroke="black" points="3157.5,-85.5 3318.5,-85.5 "/>
<text text-anchor="start" x="3165.5" y="-73.5" font-family="Helvetica,sans-Serif" font-size="10.00">+ PIDClusterCheck()</text>
<text text-anchor="start" x="3165.5" y="-62.5" font-family="Helvetica,sans-Serif" font-size="10.00">+ ~PIDClusterCheck()</text>
<text text-anchor="start" x="3165.5" y="-51.5" font-family="Helvetica,sans-Serif" font-size="10.00">+ configure()</text>
<text text-anchor="start" x="3165.5" y="-40.5" font-family="Helvetica,sans-Serif" font-size="10.00">+ check()</text>
<text text-anchor="start" x="3165.5" y="-29.5" font-family="Helvetica,sans-Serif" font-size="10.00">+ beautify()</text>
<text text-anchor="start" x="3165.5" y="-18.5" font-family="Helvetica,sans-Serif" font-size="10.00">+ getAcceptedType()</text>
</a>
</g>
</g>
<!-- Node1&#45;&gt;Node21 -->
<g id="edge20" class="edge"><title>Node1&#45;&gt;Node21</title>
<path fill="none" stroke="midnightblue" d="M1863.2,-258.951C2112.8,-256.244 2911.35,-240.247 3148,-146 3155.62,-142.965 3163.11,-139.055 3170.31,-134.628"/>
<polygon fill="none" stroke="midnightblue" points="1863.1,-255.452 1853.14,-259.056 1863.18,-262.451 1863.1,-255.452"/>
</g>
<!-- Node22 -->
<g id="node22" class="node"><title>Node22</title>
<g id="a_node22"><a xlink:href="classo2_1_1quality__control__modules_1_1tpc_1_1TrackClusterCheck.html" target="_top" xlink:title="Check whether the cluster number for a track is smaller than 40 or 20 in Track task. ">
<polygon fill="none" stroke="black" points="3337,-6 3337,-140 3477,-140 3477,-6 3337,-6"/>
<text text-anchor="start" x="3345" y="-128" font-family="Helvetica,sans-Serif" font-size="10.00">o2::quality_control</text>
<text text-anchor="start" x="3345" y="-117" font-family="Helvetica,sans-Serif" font-size="10.00">_modules::tpc::TrackCluster</text>
<text text-anchor="middle" x="3407" y="-106" font-family="Helvetica,sans-Serif" font-size="10.00">Check</text>
<polyline fill="none" stroke="black" points="3337,-99 3477,-99 "/>
<text text-anchor="middle" x="3407" y="-87" font-family="Helvetica,sans-Serif" font-size="10.00"> </text>
<polyline fill="none" stroke="black" points="3337,-80 3477,-80 "/>
<text text-anchor="start" x="3345" y="-68" font-family="Helvetica,sans-Serif" font-size="10.00">+ TrackClusterCheck()</text>
<text text-anchor="start" x="3345" y="-57" font-family="Helvetica,sans-Serif" font-size="10.00">+ ~TrackClusterCheck()</text>
<text text-anchor="start" x="3345" y="-46" font-family="Helvetica,sans-Serif" font-size="10.00">+ configure()</text>
<text text-anchor="start" x="3345" y="-35" font-family="Helvetica,sans-Serif" font-size="10.00">+ check()</text>
<text text-anchor="start" x="3345" y="-24" font-family="Helvetica,sans-Serif" font-size="10.00">+ beautify()</text>
<text text-anchor="start" x="3345" y="-13" font-family="Helvetica,sans-Serif" font-size="10.00">+ getAcceptedType()</text>
</a>
</g>
</g>
<!-- Node1&#45;&gt;Node22 -->
<g id="edge21" class="edge"><title>Node1&#45;&gt;Node22</title>
<path fill="none" stroke="midnightblue" d="M1863.19,-256.839C2153.59,-246.172 3192.62,-204.248 3328,-146 3331.92,-144.313 3335.77,-142.348 3339.54,-140.169"/>
<polygon fill="none" stroke="midnightblue" points="1863.04,-253.342 1853.17,-257.206 1863.3,-260.338 1863.04,-253.342"/>
</g>
<!-- Node23 -->
<g id="node23" class="node"><title>Node23</title>
<g id="a_node23"><a xlink:href="classTestCheck.html" target="_top" xlink:title="{TestCheck\n|+ mCheck\l+ mBeautify\l|+ TestCheck()\l+ configure()\l+ check()\l+ beautify()\l+ getAcceptedType()\l}">
<polygon fill="none" stroke="black" points="3495,-17 3495,-129 3603,-129 3603,-17 3495,-17"/>
<text text-anchor="middle" x="3549" y="-117" font-family="Helvetica,sans-Serif" font-size="10.00">TestCheck</text>
<polyline fill="none" stroke="black" points="3495,-110 3603,-110 "/>
<text text-anchor="start" x="3503" y="-98" font-family="Helvetica,sans-Serif" font-size="10.00">+ mCheck</text>
<text text-anchor="start" x="3503" y="-87" font-family="Helvetica,sans-Serif" font-size="10.00">+ mBeautify</text>
<polyline fill="none" stroke="black" points="3495,-80 3603,-80 "/>
<text text-anchor="start" x="3503" y="-68" font-family="Helvetica,sans-Serif" font-size="10.00">+ TestCheck()</text>
<text text-anchor="start" x="3503" y="-57" font-family="Helvetica,sans-Serif" font-size="10.00">+ configure()</text>
<text text-anchor="start" x="3503" y="-46" font-family="Helvetica,sans-Serif" font-size="10.00">+ check()</text>
<text text-anchor="start" x="3503" y="-35" font-family="Helvetica,sans-Serif" font-size="10.00">+ beautify()</text>
<text text-anchor="start" x="3503" y="-24" font-family="Helvetica,sans-Serif" font-size="10.00">+ getAcceptedType()</text>
</a>
</g>
</g>
<!-- Node1&#45;&gt;Node23 -->
<g id="edge22" class="edge"><title>Node1&#45;&gt;Node23</title>
<path fill="none" stroke="midnightblue" d="M1863.24,-257.847C2172.86,-250.588 3339.2,-218.613 3486,-146 3494.49,-141.802 3502.32,-135.905 3509.36,-129.272"/>
<polygon fill="none" stroke="midnightblue" points="1862.94,-254.353 1853.03,-258.084 1863.1,-261.351 1862.94,-254.353"/>
</g>
</g>
</svg>
