<?xml version="1.0" encoding="UTF-8" standalone="no"?>
<!DOCTYPE svg PUBLIC "-//W3C//DTD SVG 1.1//EN"
 "http://www.w3.org/Graphics/SVG/1.1/DTD/svg11.dtd">
<!-- Generated by graphviz version 2.38.0 (20140413.2041)
 -->
<!-- Title: Modules/TPC/include/TPC/Clusters.h Pages: 1 -->
<svg width="1055pt" height="274pt"
 viewBox="0.00 0.00 1055.00 274.00" xmlns="http://www.w3.org/2000/svg" xmlns:xlink="http://www.w3.org/1999/xlink">
<g id="graph0" class="graph" transform="scale(1 1) rotate(0) translate(4 270)">
<title>Modules/TPC/include/TPC/Clusters.h</title>
<!-- Node1 -->
<g id="node1" class="node"><title>Node1</title>
<polygon fill="#bfbfbf" stroke="black" points="208,-235.5 208,-265.5 318,-265.5 318,-235.5 208,-235.5"/>
<text text-anchor="start" x="216" y="-253.5" font-family="Helvetica,sans-Serif" font-size="10.00">Modules/TPC/include</text>
<text text-anchor="middle" x="263" y="-242.5" font-family="Helvetica,sans-Serif" font-size="10.00">/TPC/Clusters.h</text>
</g>
<!-- Node2 -->
<g id="node2" class="node"><title>Node2</title>
<polygon fill="none" stroke="#bfbfbf" points="0,-179.5 0,-198.5 100,-198.5 100,-179.5 0,-179.5"/>
<text text-anchor="middle" x="50" y="-186.5" font-family="Helvetica,sans-Serif" font-size="10.00">TPCQC/Clusters.h</text>
</g>
<!-- Node1&#45;&gt;Node2 -->
<g id="edge1" class="edge"><title>Node1&#45;&gt;Node2</title>
<path fill="none" stroke="midnightblue" d="M212.792,-235.475C175.403,-225.03 125.025,-210.958 90.2619,-201.247"/>
<polygon fill="midnightblue" stroke="midnightblue" points="91.0243,-197.826 80.4514,-198.506 89.141,-204.568 91.0243,-197.826"/>
</g>
<!-- Node3 -->
<g id="node3" class="node"><title>Node3</title>
<polygon fill="none" stroke="#bfbfbf" points="118,-179.5 118,-198.5 250,-198.5 250,-179.5 118,-179.5"/>
<text text-anchor="middle" x="184" y="-186.5" font-family="Helvetica,sans-Serif" font-size="10.00">TPCQC/CalPadWrapper.h</text>
</g>
<!-- Node1&#45;&gt;Node3 -->
<g id="edge2" class="edge"><title>Node1&#45;&gt;Node3</title>
<path fill="none" stroke="midnightblue" d="M244.278,-235.399C232.088,-226.218 216.208,-214.258 203.807,-204.918"/>
<polygon fill="midnightblue" stroke="midnightblue" points="205.589,-201.878 195.495,-198.658 201.377,-207.47 205.589,-201.878"/>
</g>
<!-- Node4 -->
<g id="node4" class="node"><title>Node4</title>
<g id="a_node4"><a xlink:href="TaskInterface_8h.html" target="_top" xlink:title="QualityControl/TaskInterface.h">
<polygon fill="none" stroke="black" points="268,-179.5 268,-198.5 418,-198.5 418,-179.5 268,-179.5"/>
<text text-anchor="middle" x="343" y="-186.5" font-family="Helvetica,sans-Serif" font-size="10.00">QualityControl/TaskInterface.h</text>
</a>
</g>
</g>
<!-- Node1&#45;&gt;Node4 -->
<g id="edge3" class="edge"><title>Node1&#45;&gt;Node4</title>
<path fill="none" stroke="midnightblue" d="M281.959,-235.399C294.423,-226.129 310.697,-214.025 323.307,-204.647"/>
<polygon fill="midnightblue" stroke="midnightblue" points="325.424,-207.434 331.359,-198.658 321.247,-201.817 325.424,-207.434"/>
</g>
<!-- Node21 -->
<g id="node21" class="node"><title>Node21</title>
<polygon fill="none" stroke="#bfbfbf" points="436,-179.5 436,-198.5 486,-198.5 486,-179.5 436,-179.5"/>
<text text-anchor="middle" x="461" y="-186.5" font-family="Helvetica,sans-Serif" font-size="10.00">TH2F.h</text>
</g>
<!-- Node1&#45;&gt;Node21 -->
<g id="edge26" class="edge"><title>Node1&#45;&gt;Node21</title>
<path fill="none" stroke="midnightblue" d="M309.673,-235.475C345.265,-224.779 393.52,-210.278 425.881,-200.553"/>
<polygon fill="midnightblue" stroke="midnightblue" points="427.224,-203.805 435.793,-197.575 425.209,-197.101 427.224,-203.805"/>
</g>
<!-- Node5 -->
<g id="node5" class="node"><title>Node5</title>
<polygon fill="none" stroke="#bfbfbf" points="367.5,-0.5 367.5,-19.5 402.5,-19.5 402.5,-0.5 367.5,-0.5"/>
<text text-anchor="middle" x="385" y="-7.5" font-family="Helvetica,sans-Serif" font-size="10.00">map</text>
</g>
<!-- Node4&#45;&gt;Node5 -->
<g id="edge4" class="edge"><title>Node4&#45;&gt;Node5</title>
<path fill="none" stroke="midnightblue" d="M299.933,-179.486C279.604,-173.074 257.177,-161.991 245,-143 224.129,-110.45 222.223,-87.246 245,-56 270.537,-20.9681 323.792,-12.611 356.759,-10.9548"/>
<polygon fill="midnightblue" stroke="midnightblue" points="357.21,-14.4422 367.092,-10.6212 356.984,-7.4458 357.21,-14.4422"/>
</g>
<!-- Node6 -->
<g id="node6" class="node"><title>Node6</title>
<polygon fill="none" stroke="#bfbfbf" points="298,-62 298,-81 350,-81 350,-62 298,-62"/>
<text text-anchor="middle" x="324" y="-69" font-family="Helvetica,sans-Serif" font-size="10.00">memory</text>
</g>
<!-- Node4&#45;&gt;Node6 -->
<g id="edge5" class="edge"><title>Node4&#45;&gt;Node6</title>
<path fill="none" stroke="midnightblue" d="M335.849,-179.364C329.227,-170.763 319.843,-156.873 316,-143 311.231,-125.783 314.433,-105.447 318.105,-91.0511"/>
<polygon fill="midnightblue" stroke="midnightblue" points="321.495,-91.9279 320.881,-81.3508 314.765,-90.0022 321.495,-91.9279"/>
</g>
<!-- Node7 -->
<g id="node7" class="node"><title>Node7</title>
<polygon fill="none" stroke="#bfbfbf" points="452.5,-0.5 452.5,-19.5 493.5,-19.5 493.5,-0.5 452.5,-0.5"/>
<text text-anchor="middle" x="473" y="-7.5" font-family="Helvetica,sans-Serif" font-size="10.00">string</text>
</g>
<!-- Node4&#45;&gt;Node7 -->
<g id="edge6" class="edge"><title>Node4&#45;&gt;Node7</title>
<path fill="none" stroke="midnightblue" d="M334.021,-179.452C311.664,-157.146 257.508,-96.1226 289,-56 298.502,-43.8943 392.483,-25.4328 442.322,-16.3824"/>
<polygon fill="midnightblue" stroke="midnightblue" points="443.017,-19.8136 452.24,-14.5997 441.779,-12.924 443.017,-19.8136"/>
</g>
<!-- Node8 -->
<g id="node8" class="node"><title>Node8</title>
<polygon fill="none" stroke="#bfbfbf" points="202.5,-0.5 202.5,-19.5 285.5,-19.5 285.5,-0.5 202.5,-0.5"/>
<text text-anchor="middle" x="244" y="-7.5" font-family="Helvetica,sans-Serif" font-size="10.00">unordered_map</text>
</g>
<!-- Node4&#45;&gt;Node8 -->
<g id="edge7" class="edge"><title>Node4&#45;&gt;Node8</title>
<path fill="none" stroke="midnightblue" d="M290.261,-179.473C268.408,-173.143 244.951,-162.133 231,-143 206.218,-109.013 223.42,-56.3226 235.31,-28.9237"/>
<polygon fill="midnightblue" stroke="midnightblue" points="238.528,-30.3022 239.508,-19.7528 232.163,-27.3886 238.528,-30.3022"/>
</g>
<!-- Node9 -->
<g id="node9" class="node"><title>Node9</title>
<polygon fill="none" stroke="#bfbfbf" points="325.5,-123.5 325.5,-142.5 450.5,-142.5 450.5,-123.5 325.5,-123.5"/>
<text text-anchor="middle" x="388" y="-130.5" font-family="Helvetica,sans-Serif" font-size="10.00">Framework/InitContext.h</text>
</g>
<!-- Node4&#45;&gt;Node9 -->
<g id="edge8" class="edge"><title>Node4&#45;&gt;Node9</title>
<path fill="none" stroke="midnightblue" d="M350.431,-179.083C356.853,-171.377 366.306,-160.033 374.122,-150.653"/>
<polygon fill="midnightblue" stroke="midnightblue" points="376.994,-152.674 380.707,-142.751 371.617,-148.193 376.994,-152.674"/>
</g>
<!-- Node10 -->
<g id="node10" class="node"><title>Node10</title>
<polygon fill="none" stroke="#bfbfbf" points="469,-123.5 469,-142.5 629,-142.5 629,-123.5 469,-123.5"/>
<text text-anchor="middle" x="549" y="-130.5" font-family="Helvetica,sans-Serif" font-size="10.00">Framework/ProcessingContext.h</text>
</g>
<!-- Node4&#45;&gt;Node10 -->
<g id="edge9" class="edge"><title>Node4&#45;&gt;Node10</title>
<path fill="none" stroke="midnightblue" d="M375.641,-179.444C411.05,-170.162 467.709,-155.309 506.553,-145.127"/>
<polygon fill="midnightblue" stroke="midnightblue" points="507.726,-148.438 516.511,-142.516 505.951,-141.667 507.726,-148.438"/>
</g>
<!-- Node11 -->
<g id="node11" class="node"><title>Node11</title>
<g id="a_node11"><a xlink:href="Activity_8h.html" target="_top" xlink:title="QualityControl/Activity.h">
<polygon fill="none" stroke="black" points="647.5,-123.5 647.5,-142.5 770.5,-142.5 770.5,-123.5 647.5,-123.5"/>
<text text-anchor="middle" x="709" y="-130.5" font-family="Helvetica,sans-Serif" font-size="10.00">QualityControl/Activity.h</text>
</a>
</g>
</g>
<!-- Node4&#45;&gt;Node11 -->
<g id="edge10" class="edge"><title>Node4&#45;&gt;Node11</title>
<path fill="none" stroke="midnightblue" d="M400.994,-179.444C466.314,-169.806 572.337,-154.163 641.37,-143.978"/>
<polygon fill="midnightblue" stroke="midnightblue" points="641.896,-147.439 651.278,-142.516 640.874,-140.514 641.896,-147.439"/>
</g>
<!-- Node12 -->
<g id="node12" class="node"><title>Node12</title>
<g id="a_node12"><a xlink:href="ObjectsManager_8h.html" target="_top" xlink:title="QualityControl/ObjectsManager.h">
<polygon fill="none" stroke="black" points="788.5,-123.5 788.5,-142.5 949.5,-142.5 949.5,-123.5 788.5,-123.5"/>
<text text-anchor="middle" x="869" y="-130.5" font-family="Helvetica,sans-Serif" font-size="10.00">QualityControl/ObjectsManager.h</text>
</a>
</g>
</g>
<!-- Node4&#45;&gt;Node12 -->
<g id="edge11" class="edge"><title>Node4&#45;&gt;Node12</title>
<path fill="none" stroke="midnightblue" d="M418.104,-179.933C421.108,-179.617 424.083,-179.305 427,-179 492.838,-172.122 669.086,-154.238 778.093,-143.198"/>
<polygon fill="midnightblue" stroke="midnightblue" points="778.503,-146.675 788.1,-142.185 777.798,-139.71 778.503,-146.675"/>
</g>
<!-- Node12&#45;&gt;Node6 -->
<g id="edge25" class="edge"><title>Node12&#45;&gt;Node6</title>
<path fill="none" stroke="midnightblue" d="M788.475,-123.805C785.615,-123.531 782.783,-123.261 780,-123 595.674,-105.686 545.944,-126.178 365,-87 361.576,-86.2586 358.045,-85.3094 354.56,-84.2523"/>
<polygon fill="midnightblue" stroke="midnightblue" points="355.577,-80.902 344.983,-81.0698 353.369,-87.5448 355.577,-80.902"/>
</g>
<!-- Node12&#45;&gt;Node7 -->
<g id="edge24" class="edge"><title>Node12&#45;&gt;Node7</title>
<path fill="none" stroke="midnightblue" d="M795.891,-123.499C711.616,-113.357 581.95,-96.5756 561,-87 556.856,-85.1057 514.769,-48.0657 490.332,-26.4071"/>
<polygon fill="midnightblue" stroke="midnightblue" points="492.604,-23.7443 482.802,-19.7247 487.958,-28.98 492.604,-23.7443"/>
</g>
<!-- Node13 -->
<g id="node13" class="node"><title>Node13</title>
<g id="a_node13"><a xlink:href="MonitorObject_8h.html" target="_top" xlink:title="QualityControl/MonitorObject.h">
<polygon fill="none" stroke="black" points="570.5,-62 570.5,-81 721.5,-81 721.5,-62 570.5,-62"/>
<text text-anchor="middle" x="646" y="-69" font-family="Helvetica,sans-Serif" font-size="10.00">QualityControl/MonitorObject.h</text>
</a>
</g>
</g>
<!-- Node12&#45;&gt;Node13 -->
<g id="edge12" class="edge"><title>Node12&#45;&gt;Node13</title>
<path fill="none" stroke="midnightblue" d="M837.05,-123.475C797.804,-113.004 731.122,-95.2118 687.827,-83.6601"/>
<polygon fill="midnightblue" stroke="midnightblue" points="688.456,-80.2054 677.891,-81.0091 686.651,-86.9688 688.456,-80.2054"/>
</g>
<!-- Node17 -->
<g id="node17" class="node"><title>Node17</title>
<g id="a_node17"><a xlink:href="MonitorObjectCollection_8h.html" target="_top" xlink:title="QualityControl/MonitorObject\lCollection.h">
<polygon fill="none" stroke="black" points="797.5,-56.5 797.5,-86.5 940.5,-86.5 940.5,-56.5 797.5,-56.5"/>
<text text-anchor="start" x="805.5" y="-74.5" font-family="Helvetica,sans-Serif" font-size="10.00">QualityControl/MonitorObject</text>
<text text-anchor="middle" x="869" y="-63.5" font-family="Helvetica,sans-Serif" font-size="10.00">Collection.h</text>
</a>
</g>
</g>
<!-- Node12&#45;&gt;Node17 -->
<g id="edge18" class="edge"><title>Node12&#45;&gt;Node17</title>
<path fill="none" stroke="midnightblue" d="M869,-123.475C869,-116.471 869,-106.192 869,-96.6956"/>
<polygon fill="midnightblue" stroke="midnightblue" points="872.5,-96.5229 869,-86.523 865.5,-96.523 872.5,-96.5229"/>
</g>
<!-- Node20 -->
<g id="node20" class="node"><title>Node20</title>
<g id="a_node20"><a xlink:href="TaskConfig_8h.html" target="_top" xlink:title="QualityControl/TaskConfig.h">
<polygon fill="none" stroke="black" points="374,-62 374,-81 514,-81 514,-62 374,-62"/>
<text text-anchor="middle" x="444" y="-69" font-family="Helvetica,sans-Serif" font-size="10.00">QualityControl/TaskConfig.h</text>
</a>
</g>
</g>
<!-- Node12&#45;&gt;Node20 -->
<g id="edge21" class="edge"><title>Node12&#45;&gt;Node20</title>
<path fill="none" stroke="midnightblue" d="M798.023,-123.467C728.965,-114.969 621.127,-101.177 528,-87 519.39,-85.6893 510.299,-84.2149 501.404,-82.7213"/>
<polygon fill="midnightblue" stroke="midnightblue" points="501.925,-79.2598 491.48,-81.0346 500.752,-86.1608 501.925,-79.2598"/>
</g>
<!-- Node13&#45;&gt;Node5 -->
<g id="edge14" class="edge"><title>Node13&#45;&gt;Node5</title>
<path fill="none" stroke="midnightblue" d="M608.605,-61.9751C555.532,-49.8761 459.591,-28.0045 412.534,-17.277"/>
<polygon fill="midnightblue" stroke="midnightblue" points="413.264,-13.8536 402.736,-15.0433 411.708,-20.6785 413.264,-13.8536"/>
</g>
<!-- Node13&#45;&gt;Node7 -->
<g id="edge13" class="edge"><title>Node13&#45;&gt;Node7</title>
<path fill="none" stroke="midnightblue" d="M621.213,-61.9751C590.139,-51.2877 536.894,-32.975 503.395,-21.4536"/>
<polygon fill="midnightblue" stroke="midnightblue" points="504.273,-18.0547 493.679,-18.112 501.997,-24.6741 504.273,-18.0547"/>
</g>
<!-- Node14 -->
<g id="node14" class="node"><title>Node14</title>
<polygon fill="none" stroke="#bfbfbf" points="542,-0.5 542,-19.5 598,-19.5 598,-0.5 542,-0.5"/>
<text text-anchor="middle" x="570" y="-7.5" font-family="Helvetica,sans-Serif" font-size="10.00">Rtypes.h</text>
</g>
<!-- Node13&#45;&gt;Node14 -->
<g id="edge15" class="edge"><title>Node13&#45;&gt;Node14</title>
<path fill="none" stroke="midnightblue" d="M635.111,-61.9751C623.034,-52.5199 603.333,-37.0961 588.76,-25.6871"/>
<polygon fill="midnightblue" stroke="midnightblue" points="590.9,-22.9177 580.869,-19.5091 586.585,-28.4295 590.9,-22.9177"/>
</g>
<!-- Node15 -->
<g id="node15" class="node"><title>Node15</title>
<polygon fill="none" stroke="#bfbfbf" points="616.5,-0.5 616.5,-19.5 675.5,-19.5 675.5,-0.5 616.5,-0.5"/>
<text text-anchor="middle" x="646" y="-7.5" font-family="Helvetica,sans-Serif" font-size="10.00">TObject.h</text>
</g>
<!-- Node13&#45;&gt;Node15 -->
<g id="edge16" class="edge"><title>Node13&#45;&gt;Node15</title>
<path fill="none" stroke="midnightblue" d="M646,-61.9751C646,-53.5803 646,-40.4806 646,-29.6631"/>
<polygon fill="midnightblue" stroke="midnightblue" points="649.5,-29.5091 646,-19.5091 642.5,-29.5091 649.5,-29.5091"/>
</g>
<!-- Node16 -->
<g id="node16" class="node"><title>Node16</title>
<polygon fill="none" stroke="#bfbfbf" points="694,-0.5 694,-19.5 810,-19.5 810,-0.5 694,-0.5"/>
<text text-anchor="middle" x="752" y="-7.5" font-family="Helvetica,sans-Serif" font-size="10.00">Common/Exceptions.h</text>
</g>
<!-- Node13&#45;&gt;Node16 -->
<g id="edge17" class="edge"><title>Node13&#45;&gt;Node16</title>
<path fill="none" stroke="midnightblue" d="M661.187,-61.9751C678.662,-52.1664 707.579,-35.9346 728.083,-24.425"/>
<polygon fill="midnightblue" stroke="midnightblue" points="729.834,-27.456 736.841,-19.5091 726.408,-21.3519 729.834,-27.456"/>
</g>
<!-- Node18 -->
<g id="node18" class="node"><title>Node18</title>
<polygon fill="none" stroke="#bfbfbf" points="831.5,-0.5 831.5,-19.5 900.5,-19.5 900.5,-0.5 831.5,-0.5"/>
<text text-anchor="middle" x="866" y="-7.5" font-family="Helvetica,sans-Serif" font-size="10.00">TObjArray.h</text>
</g>
<!-- Node17&#45;&gt;Node18 -->
<g id="edge19" class="edge"><title>Node17&#45;&gt;Node18</title>
<path fill="none" stroke="midnightblue" d="M868.289,-56.3993C867.889,-48.4664 867.384,-38.458 866.951,-29.8583"/>
<polygon fill="midnightblue" stroke="midnightblue" points="870.436,-29.4688 866.437,-19.6578 863.445,-29.8214 870.436,-29.4688"/>
</g>
<!-- Node19 -->
<g id="node19" class="node"><title>Node19</title>
<polygon fill="none" stroke="#bfbfbf" points="919,-0.5 919,-19.5 1047,-19.5 1047,-0.5 919,-0.5"/>
<text text-anchor="middle" x="983" y="-7.5" font-family="Helvetica,sans-Serif" font-size="10.00">Mergers/MergeInterface.h</text>
</g>
<!-- Node17&#45;&gt;Node19 -->
<g id="edge20" class="edge"><title>Node17&#45;&gt;Node19</title>
<path fill="none" stroke="midnightblue" d="M896.016,-56.3993C914.631,-46.6837 939.21,-33.8551 957.491,-24.3137"/>
<polygon fill="midnightblue" stroke="midnightblue" points="959.166,-27.3876 966.412,-19.6578 955.927,-21.182 959.166,-27.3876"/>
</g>
<!-- Node20&#45;&gt;Node7 -->
<g id="edge22" class="edge"><title>Node20&#45;&gt;Node7</title>
<path fill="none" stroke="midnightblue" d="M448.155,-61.9751C452.376,-53.3152 459.037,-39.6486 464.4,-28.6453"/>
<polygon fill="midnightblue" stroke="midnightblue" points="467.618,-30.0317 468.853,-19.5091 461.325,-26.9648 467.618,-30.0317"/>
</g>
<!-- Node20&#45;&gt;Node8 -->
<g id="edge23" class="edge"><title>Node20&#45;&gt;Node8</title>
<path fill="none" stroke="midnightblue" d="M415.345,-61.9751C380.444,-51.592 321.35,-34.0116 282.5,-22.4538"/>
<polygon fill="midnightblue" stroke="midnightblue" points="283.185,-19.0059 272.602,-19.5091 281.189,-25.7153 283.185,-19.0059"/>
</g>
</g>
</svg>
