<?xml version="1.0" encoding="UTF-8" standalone="no"?>
<!DOCTYPE svg PUBLIC "-//W3C//DTD SVG 1.1//EN"
 "http://www.w3.org/Graphics/SVG/1.1/DTD/svg11.dtd">
<!-- Generated by graphviz version 2.38.0 (20140413.2041)
 -->
<!-- Title: Modules/TPC/src/Clusters.cxx Pages: 1 -->
<!--zoomable 330 -->
<svg id="main" version="1.1" xmlns="http://www.w3.org/2000/svg" xmlns:xlink="http://www.w3.org/1999/xlink" xml:space="preserve" onload="init(evt)">
<style type="text/css"><![CDATA[
.edge:hover path { stroke: red; }
.edge:hover polygon { stroke: red; fill: red; }
]]></style>
<script type="text/javascript"><![CDATA[
var edges = document.getElementsByTagName('g');
if (edges && edges.length) {
  for (var i=0;i<edges.length;i++) {
    if (edges[i].id.substr(0,4)=='edge') {
      edges[i].setAttribute('class','edge');
    }
  }
}
]]></script>
        <defs>
                <circle id="rim" cx="0" cy="0" r="7"/>
                <circle id="rim2" cx="0" cy="0" r="3.5"/>
                <g id="zoomPlus">
                        <use xlink:href="#rim" fill="#404040">
                                <set attributeName="fill" to="#808080" begin="zoomplus.mouseover" end="zoomplus.mouseout"/>
                        </use>
                        <path d="M-4,0h8M0,-4v8" fill="none" stroke="white" stroke-width="1.5" pointer-events="none"/>
                </g>
                <g id="zoomMin">
                        <use xlink:href="#rim" fill="#404040">
                                <set attributeName="fill" to="#808080" begin="zoomminus.mouseover" end="zoomminus.mouseout"/>
                        </use>
                        <path d="M-4,0h8" fill="none" stroke="white" stroke-width="1.5" pointer-events="none"/>
                </g>
                <g id="dirArrow">
                        <path fill="none" stroke="white" stroke-width="1.5" d="M0,-3.0v7 M-2.5,-0.5L0,-3.0L2.5,-0.5"/>
                </g>
               <g id="resetDef">
                       <use xlink:href="#rim2" fill="#404040">
                               <set attributeName="fill" to="#808080" begin="reset.mouseover" end="reset.mouseout"/>
                       </use>
               </g>
        </defs>

<script type="text/javascript">
var viewWidth = 3031;
var viewHeight = 330;
var sectionId = 'dynsection-0';
</script>
<script xlink:href="svgpan.js"/>
<svg id="graph" class="graph">
<g id="viewport">
<title>Modules/TPC/src/Clusters.cxx</title>
<!-- Node1 -->
<g id="node1" class="node"><title>Node1</title>
<polygon fill="#bfbfbf" stroke="black" points="1377,-302.5 1377,-321.5 1529,-321.5 1529,-302.5 1377,-302.5"/>
<text text-anchor="middle" x="1453" y="-309.5" font-family="Helvetica,sans-Serif" font-size="10.00">Modules/TPC/src/Clusters.cxx</text>
</g>
<!-- Node2 -->
<g id="node2" class="node"><title>Node2</title>
<polygon fill="none" stroke="#bfbfbf" points="0,-241 0,-260 110,-260 110,-241 0,-241"/>
<text text-anchor="middle" x="55" y="-248" font-family="Helvetica,sans-Serif" font-size="10.00">Framework/PartRef.h</text>
</g>
<!-- Node1&#45;&gt;Node2 -->
<g id="edge1" class="edge"><title>Node1&#45;&gt;Node2</title>
<path fill="none" stroke="midnightblue" d="M1376.92,-310.325C1131.88,-307.852 364.913,-297.715 119,-266 111.776,-265.068 104.168,-263.697 96.8185,-262.165"/>
<polygon fill="midnightblue" stroke="midnightblue" points="97.5369,-258.739 87.0175,-260.001 96.0278,-265.575 97.5369,-258.739"/>
</g>
<!-- Node3 -->
<g id="node3" class="node"><title>Node3</title>
<polygon fill="none" stroke="#bfbfbf" points="128,-241 128,-260 268,-260 268,-241 128,-241"/>
<text text-anchor="middle" x="198" y="-248" font-family="Helvetica,sans-Serif" font-size="10.00">Framework/WorkflowSpec.h</text>
</g>
<!-- Node1&#45;&gt;Node3 -->
<g id="edge2" class="edge"><title>Node1&#45;&gt;Node3</title>
<path fill="none" stroke="midnightblue" d="M1376.62,-309.509C1151.22,-304.881 491.253,-289.639 277,-266 267.737,-264.978 257.927,-263.502 248.487,-261.877"/>
<polygon fill="midnightblue" stroke="midnightblue" points="248.892,-258.394 238.431,-260.072 247.655,-265.284 248.892,-258.394"/>
</g>
<!-- Node4 -->
<g id="node4" class="node"><title>Node4</title>
<polygon fill="none" stroke="#bfbfbf" points="286,-241 286,-260 420,-260 420,-241 286,-241"/>
<text text-anchor="middle" x="353" y="-248" font-family="Helvetica,sans-Serif" font-size="10.00">Framework/DataRefUtils.h</text>
</g>
<!-- Node1&#45;&gt;Node4 -->
<g id="edge3" class="edge"><title>Node1&#45;&gt;Node4</title>
<path fill="none" stroke="midnightblue" d="M1376.91,-311.407C1206.52,-311.5 781.614,-307.166 429,-266 420.179,-264.97 410.845,-263.505 401.851,-261.898"/>
<polygon fill="midnightblue" stroke="midnightblue" points="402.359,-258.433 391.887,-260.04 401.075,-265.314 402.359,-258.433"/>
</g>
<!-- Node5 -->
<g id="node5" class="node"><title>Node5</title>
<polygon fill="none" stroke="#bfbfbf" points="438,-241 438,-260 578,-260 578,-241 438,-241"/>
<text text-anchor="middle" x="508" y="-248" font-family="Helvetica,sans-Serif" font-size="10.00">Framework/DataSpecUtils.h</text>
</g>
<!-- Node1&#45;&gt;Node5 -->
<g id="edge4" class="edge"><title>Node1&#45;&gt;Node5</title>
<path fill="none" stroke="midnightblue" d="M1376.85,-310.353C1225.73,-308.339 877.454,-300.057 587,-266 577.846,-264.927 568.153,-263.441 558.81,-261.828"/>
<polygon fill="midnightblue" stroke="midnightblue" points="559.311,-258.362 548.85,-260.04 558.075,-265.252 559.311,-258.362"/>
</g>
<!-- Node6 -->
<g id="node6" class="node"><title>Node6</title>
<polygon fill="none" stroke="#bfbfbf" points="596.5,-241 596.5,-260 737.5,-260 737.5,-241 596.5,-241"/>
<text text-anchor="middle" x="667" y="-248" font-family="Helvetica,sans-Serif" font-size="10.00">Framework/ControlService.h</text>
</g>
<!-- Node1&#45;&gt;Node6 -->
<g id="edge5" class="edge"><title>Node1&#45;&gt;Node6</title>
<path fill="none" stroke="midnightblue" d="M1376.99,-309.037C1247.33,-305.044 975.282,-293.869 747,-266 737.842,-264.882 728.146,-263.39 718.783,-261.787"/>
<polygon fill="midnightblue" stroke="midnightblue" points="719.253,-258.316 708.796,-260.017 718.032,-265.209 719.253,-258.316"/>
</g>
<!-- Node7 -->
<g id="node7" class="node"><title>Node7</title>
<polygon fill="none" stroke="#bfbfbf" points="756,-241 756,-260 926,-260 926,-241 756,-241"/>
<text text-anchor="middle" x="841" y="-248" font-family="Helvetica,sans-Serif" font-size="10.00">Framework/ConfigParamRegistry.h</text>
</g>
<!-- Node1&#45;&gt;Node7 -->
<g id="edge6" class="edge"><title>Node1&#45;&gt;Node7</title>
<path fill="none" stroke="midnightblue" d="M1376.63,-305.903C1275.61,-298.807 1092.1,-284.687 936,-266 925.219,-264.709 913.781,-263.138 902.715,-261.512"/>
<polygon fill="midnightblue" stroke="midnightblue" points="903.095,-258.03 892.687,-260.01 902.058,-264.953 903.095,-258.03"/>
</g>
<!-- Node8 -->
<g id="node8" class="node"><title>Node8</title>
<polygon fill="none" stroke="#bfbfbf" points="944.5,-241 944.5,-260 1105.5,-260 1105.5,-241 944.5,-241"/>
<text text-anchor="middle" x="1025" y="-248" font-family="Helvetica,sans-Serif" font-size="10.00">Framework/InputRecordWalker.h</text>
</g>
<!-- Node1&#45;&gt;Node8 -->
<g id="edge7" class="edge"><title>Node1&#45;&gt;Node8</title>
<path fill="none" stroke="midnightblue" d="M1384.95,-302.496C1316.63,-293.828 1208.42,-279.741 1115,-266 1105.7,-264.632 1095.88,-263.119 1086.27,-261.602"/>
<polygon fill="midnightblue" stroke="midnightblue" points="1086.79,-258.141 1076.36,-260.024 1085.69,-265.054 1086.79,-258.141"/>
</g>
<!-- Node9 -->
<g id="node9" class="node"><title>Node9</title>
<polygon fill="none" stroke="#bfbfbf" points="1124,-235.5 1124,-265.5 1270,-265.5 1270,-235.5 1124,-235.5"/>
<text text-anchor="start" x="1132" y="-253.5" font-family="Helvetica,sans-Serif" font-size="10.00">DataFormatsTPC/TPCSector</text>
<text text-anchor="middle" x="1197" y="-242.5" font-family="Helvetica,sans-Serif" font-size="10.00">Header.h</text>
</g>
<!-- Node1&#45;&gt;Node9 -->
<g id="edge8" class="edge"><title>Node1&#45;&gt;Node9</title>
<path fill="none" stroke="midnightblue" d="M1416.32,-302.475C1377.52,-293.456 1315.35,-279.008 1267.1,-267.792"/>
<polygon fill="midnightblue" stroke="midnightblue" points="1267.87,-264.378 1257.33,-265.523 1266.28,-271.196 1267.87,-264.378"/>
</g>
<!-- Node10 -->
<g id="node10" class="node"><title>Node10</title>
<polygon fill="none" stroke="#bfbfbf" points="1288.5,-241 1288.5,-260 1329.5,-260 1329.5,-241 1288.5,-241"/>
<text text-anchor="middle" x="1309" y="-248" font-family="Helvetica,sans-Serif" font-size="10.00">bitset</text>
</g>
<!-- Node1&#45;&gt;Node10 -->
<g id="edge9" class="edge"><title>Node1&#45;&gt;Node10</title>
<path fill="none" stroke="midnightblue" d="M1429.65,-302.364C1406.46,-293.651 1369.99,-279.582 1339,-266 1337.81,-265.477 1336.59,-264.935 1335.37,-264.38"/>
<polygon fill="midnightblue" stroke="midnightblue" points="1336.57,-261.078 1326.03,-260.003 1333.6,-267.416 1336.57,-261.078"/>
</g>
<!-- Node11 -->
<g id="node11" class="node"><title>Node11</title>
<polygon fill="none" stroke="#bfbfbf" points="1347.5,-241 1347.5,-260 1412.5,-260 1412.5,-241 1347.5,-241"/>
<text text-anchor="middle" x="1380" y="-248" font-family="Helvetica,sans-Serif" font-size="10.00">TCanvas.h</text>
</g>
<!-- Node1&#45;&gt;Node11 -->
<g id="edge10" class="edge"><title>Node1&#45;&gt;Node11</title>
<path fill="none" stroke="midnightblue" d="M1442.54,-302.475C1431.05,-293.108 1412.37,-277.884 1398.41,-266.508"/>
<polygon fill="midnightblue" stroke="midnightblue" points="1400.4,-263.614 1390.44,-260.009 1395.98,-269.04 1400.4,-263.614"/>
</g>
<!-- Node12 -->
<g id="node12" class="node"><title>Node12</title>
<polygon fill="none" stroke="#bfbfbf" points="1431,-241 1431,-260 1475,-260 1475,-241 1431,-241"/>
<text text-anchor="middle" x="1453" y="-248" font-family="Helvetica,sans-Serif" font-size="10.00">TH1.h</text>
</g>
<!-- Node1&#45;&gt;Node12 -->
<g id="edge11" class="edge"><title>Node1&#45;&gt;Node12</title>
<path fill="none" stroke="midnightblue" d="M1453,-302.475C1453,-294.08 1453,-280.981 1453,-270.163"/>
<polygon fill="midnightblue" stroke="midnightblue" points="1456.5,-270.009 1453,-260.009 1449.5,-270.009 1456.5,-270.009"/>
</g>
<!-- Node13 -->
<g id="node13" class="node"><title>Node13</title>
<polygon fill="none" stroke="#bfbfbf" points="1493,-241 1493,-260 1537,-260 1537,-241 1493,-241"/>
<text text-anchor="middle" x="1515" y="-248" font-family="Helvetica,sans-Serif" font-size="10.00">TH2.h</text>
</g>
<!-- Node1&#45;&gt;Node13 -->
<g id="edge12" class="edge"><title>Node1&#45;&gt;Node13</title>
<path fill="none" stroke="midnightblue" d="M1461.88,-302.475C1471.46,-293.285 1486.91,-278.456 1498.69,-267.156"/>
<polygon fill="midnightblue" stroke="midnightblue" points="1501.34,-269.458 1506.13,-260.009 1496.49,-264.408 1501.34,-269.458"/>
</g>
<!-- Node14 -->
<g id="node14" class="node"><title>Node14</title>
<polygon fill="none" stroke="#bfbfbf" points="1766,-123.5 1766,-142.5 1926,-142.5 1926,-123.5 1766,-123.5"/>
<text text-anchor="middle" x="1846" y="-130.5" font-family="Helvetica,sans-Serif" font-size="10.00">Framework/ProcessingContext.h</text>
</g>
<!-- Node1&#45;&gt;Node14 -->
<g id="edge13" class="edge"><title>Node1&#45;&gt;Node14</title>
<path fill="none" stroke="midnightblue" d="M1474.06,-302.492C1493.41,-294.288 1522.56,-280.944 1546,-266 1564.38,-254.285 1565.15,-245.945 1584,-235 1657.27,-192.453 1751.81,-161.125 1804.97,-145.393"/>
<polygon fill="midnightblue" stroke="midnightblue" points="1806.1,-148.709 1814.72,-142.546 1804.14,-141.99 1806.1,-148.709"/>
</g>
<!-- Node15 -->
<g id="node15" class="node"><title>Node15</title>
<polygon fill="none" stroke="#bfbfbf" points="1593,-241 1593,-260 1719,-260 1719,-241 1593,-241"/>
<text text-anchor="middle" x="1656" y="-248" font-family="Helvetica,sans-Serif" font-size="10.00">DataFormatsTPC/Defs.h</text>
</g>
<!-- Node1&#45;&gt;Node15 -->
<g id="edge14" class="edge"><title>Node1&#45;&gt;Node15</title>
<path fill="none" stroke="midnightblue" d="M1482.08,-302.475C1517.58,-292.07 1577.75,-274.437 1617.17,-262.88"/>
<polygon fill="midnightblue" stroke="midnightblue" points="1618.36,-266.181 1626.97,-260.009 1616.39,-259.463 1618.36,-266.181"/>
</g>
<!-- Node16 -->
<g id="node16" class="node"><title>Node16</title>
<polygon fill="none" stroke="#bfbfbf" points="1737.5,-241 1737.5,-260 1838.5,-260 1838.5,-241 1737.5,-241"/>
<text text-anchor="middle" x="1788" y="-248" font-family="Helvetica,sans-Serif" font-size="10.00">TPCBase/Painter.h</text>
</g>
<!-- Node1&#45;&gt;Node16 -->
<g id="edge15" class="edge"><title>Node1&#45;&gt;Node16</title>
<path fill="none" stroke="midnightblue" d="M1513.05,-302.498C1568.92,-294.275 1654.39,-280.896 1728,-266 1733.38,-264.911 1739.02,-263.676 1744.58,-262.399"/>
<polygon fill="midnightblue" stroke="midnightblue" points="1745.53,-265.772 1754.46,-260.074 1743.93,-258.958 1745.53,-265.772"/>
</g>
<!-- Node17 -->
<g id="node17" class="node"><title>Node17</title>
<polygon fill="none" stroke="#bfbfbf" points="1856.5,-241 1856.5,-260 2021.5,-260 2021.5,-241 1856.5,-241"/>
<text text-anchor="middle" x="1939" y="-248" font-family="Helvetica,sans-Serif" font-size="10.00">DataFormatsTPC/ClusterNative.h</text>
</g>
<!-- Node1&#45;&gt;Node17 -->
<g id="edge16" class="edge"><title>Node1&#45;&gt;Node17</title>
<path fill="none" stroke="midnightblue" d="M1529.22,-303.335C1608.86,-295.087 1737.39,-281.106 1848,-266 1857.75,-264.669 1868.06,-263.14 1878.11,-261.586"/>
<polygon fill="midnightblue" stroke="midnightblue" points="1878.7,-265.036 1888.04,-260.03 1877.62,-258.121 1878.7,-265.036"/>
</g>
<!-- Node18 -->
<g id="node18" class="node"><title>Node18</title>
<polygon fill="none" stroke="#bfbfbf" points="2039.5,-235.5 2039.5,-265.5 2196.5,-265.5 2196.5,-235.5 2039.5,-235.5"/>
<text text-anchor="start" x="2047.5" y="-253.5" font-family="Helvetica,sans-Serif" font-size="10.00">DataFormatsTPC/ClusterNative</text>
<text text-anchor="middle" x="2118" y="-242.5" font-family="Helvetica,sans-Serif" font-size="10.00">Helper.h</text>
</g>
<!-- Node1&#45;&gt;Node18 -->
<g id="edge17" class="edge"><title>Node1&#45;&gt;Node18</title>
<path fill="none" stroke="midnightblue" d="M1529.41,-307.184C1638.24,-301.274 1844.3,-288.332 2029.14,-266.162"/>
<polygon fill="midnightblue" stroke="midnightblue" points="2029.82,-269.606 2039.32,-264.929 2028.98,-262.657 2029.82,-269.606"/>
</g>
<!-- Node19 -->
<g id="node19" class="node"><title>Node19</title>
<polygon fill="none" stroke="#bfbfbf" points="2215,-235.5 2215,-265.5 2329,-265.5 2329,-235.5 2215,-235.5"/>
<text text-anchor="start" x="2223" y="-253.5" font-family="Helvetica,sans-Serif" font-size="10.00">SimulationDataFormat</text>
<text text-anchor="middle" x="2272" y="-242.5" font-family="Helvetica,sans-Serif" font-size="10.00">/MCTruthContainer.h</text>
</g>
<!-- Node1&#45;&gt;Node19 -->
<g id="edge18" class="edge"><title>Node1&#45;&gt;Node19</title>
<path fill="none" stroke="midnightblue" d="M1529,-310.382C1663.5,-308.428 1952.28,-300.372 2204.76,-266.018"/>
<polygon fill="midnightblue" stroke="midnightblue" points="2205.43,-269.459 2214.86,-264.627 2204.48,-262.524 2205.43,-269.459"/>
</g>
<!-- Node20 -->
<g id="node20" class="node"><title>Node20</title>
<polygon fill="none" stroke="#bfbfbf" points="2347,-241 2347,-260 2497,-260 2497,-241 2347,-241"/>
<text text-anchor="middle" x="2422" y="-248" font-family="Helvetica,sans-Serif" font-size="10.00">DataFormatsTPC/Constants.h</text>
</g>
<!-- Node1&#45;&gt;Node20 -->
<g id="edge19" class="edge"><title>Node1&#45;&gt;Node20</title>
<path fill="none" stroke="midnightblue" d="M1529.01,-310.206C1682.42,-307.928 2039.85,-299.192 2338,-266 2347.93,-264.895 2358.46,-263.364 2368.59,-261.71"/>
<polygon fill="midnightblue" stroke="midnightblue" points="2369.27,-265.144 2378.54,-260.025 2368.1,-258.243 2369.27,-265.144"/>
</g>
<!-- Node21 -->
<g id="node21" class="node"><title>Node21</title>
<g id="a_node21"><a xlink:href="QcInfoLogger_8h.html" target="_top" xlink:title="QualityControl/QcInfoLogger.h">
<polygon fill="none" stroke="black" points="2514.5,-241 2514.5,-260 2663.5,-260 2663.5,-241 2514.5,-241"/>
<text text-anchor="middle" x="2589" y="-248" font-family="Helvetica,sans-Serif" font-size="10.00">QualityControl/QcInfoLogger.h</text>
</a>
</g>
</g>
<!-- Node1&#45;&gt;Node21 -->
<g id="edge20" class="edge"><title>Node1&#45;&gt;Node21</title>
<path fill="none" stroke="midnightblue" d="M1529.24,-311.138C1703.03,-310.71 2141.71,-305.435 2506,-266 2515.93,-264.926 2526.46,-263.393 2536.57,-261.724"/>
<polygon fill="midnightblue" stroke="midnightblue" points="2537.24,-265.161 2546.5,-260.021 2536.05,-258.261 2537.24,-265.161"/>
</g>
<!-- Node23 -->
<g id="node23" class="node"><title>Node23</title>
<g id="a_node23"><a xlink:href="Clusters_8h.html" target="_top" xlink:title="TPC/Clusters.h">
<polygon fill="none" stroke="black" points="2681.5,-241 2681.5,-260 2766.5,-260 2766.5,-241 2681.5,-241"/>
<text text-anchor="middle" x="2724" y="-248" font-family="Helvetica,sans-Serif" font-size="10.00">TPC/Clusters.h</text>
</a>
</g>
</g>
<!-- Node1&#45;&gt;Node23 -->
<g id="edge22" class="edge"><title>Node1&#45;&gt;Node23</title>
<path fill="none" stroke="midnightblue" d="M1529.07,-310.581C1760.05,-308.931 2451.09,-301.114 2673,-266 2678.15,-265.185 2683.52,-264.02 2688.76,-262.7"/>
<polygon fill="midnightblue" stroke="midnightblue" points="2689.86,-266.029 2698.59,-260.022 2688.02,-259.276 2689.86,-266.029"/>
</g>
<!-- Node22 -->
<g id="node22" class="node"><title>Node22</title>
<polygon fill="none" stroke="#bfbfbf" points="2336,-179.5 2336,-198.5 2466,-198.5 2466,-179.5 2336,-179.5"/>
<text text-anchor="middle" x="2401" y="-186.5" font-family="Helvetica,sans-Serif" font-size="10.00">InfoLogger/InfoLogger.hxx</text>
</g>
<!-- Node21&#45;&gt;Node22 -->
<g id="edge21" class="edge"><title>Node21&#45;&gt;Node22</title>
<path fill="none" stroke="midnightblue" d="M2562.06,-240.975C2529.4,-230.636 2474.18,-213.161 2437.66,-201.602"/>
<polygon fill="midnightblue" stroke="midnightblue" points="2438.48,-198.19 2427.89,-198.509 2436.36,-204.863 2438.48,-198.19"/>
</g>
<!-- Node24 -->
<g id="node24" class="node"><title>Node24</title>
<polygon fill="none" stroke="#bfbfbf" points="2720,-179.5 2720,-198.5 2820,-198.5 2820,-179.5 2720,-179.5"/>
<text text-anchor="middle" x="2770" y="-186.5" font-family="Helvetica,sans-Serif" font-size="10.00">TPCQC/Clusters.h</text>
</g>
<!-- Node23&#45;&gt;Node24 -->
<g id="edge23" class="edge"><title>Node23&#45;&gt;Node24</title>
<path fill="none" stroke="midnightblue" d="M2730.59,-240.975C2737.49,-232.05 2748.5,-217.807 2757.13,-206.643"/>
<polygon fill="midnightblue" stroke="midnightblue" points="2760.07,-208.561 2763.42,-198.509 2754.54,-204.28 2760.07,-208.561"/>
</g>
<!-- Node25 -->
<g id="node25" class="node"><title>Node25</title>
<polygon fill="none" stroke="#bfbfbf" points="2838,-179.5 2838,-198.5 2970,-198.5 2970,-179.5 2838,-179.5"/>
<text text-anchor="middle" x="2904" y="-186.5" font-family="Helvetica,sans-Serif" font-size="10.00">TPCQC/CalPadWrapper.h</text>
</g>
<!-- Node23&#45;&gt;Node25 -->
<g id="edge24" class="edge"><title>Node23&#45;&gt;Node25</title>
<path fill="none" stroke="midnightblue" d="M2749.79,-240.975C2780.93,-230.68 2833.48,-213.31 2868.45,-201.75"/>
<polygon fill="midnightblue" stroke="midnightblue" points="2869.86,-204.971 2878.26,-198.509 2867.66,-198.325 2869.86,-204.971"/>
</g>
<!-- Node26 -->
<g id="node26" class="node"><title>Node26</title>
<g id="a_node26"><a xlink:href="TaskInterface_8h.html" target="_top" xlink:title="QualityControl/TaskInterface.h">
<polygon fill="none" stroke="black" points="2484,-179.5 2484,-198.5 2634,-198.5 2634,-179.5 2484,-179.5"/>
<text text-anchor="middle" x="2559" y="-186.5" font-family="Helvetica,sans-Serif" font-size="10.00">QualityControl/TaskInterface.h</text>
</a>
</g>
</g>
<!-- Node23&#45;&gt;Node26 -->
<g id="edge25" class="edge"><title>Node23&#45;&gt;Node26</title>
<path fill="none" stroke="midnightblue" d="M2700.36,-240.975C2672.06,-230.769 2624.47,-213.608 2592.41,-202.049"/>
<polygon fill="midnightblue" stroke="midnightblue" points="2593.19,-198.609 2582.6,-198.509 2590.82,-205.194 2593.19,-198.609"/>
</g>
<!-- Node42 -->
<g id="node42" class="node"><title>Node42</title>
<polygon fill="none" stroke="#bfbfbf" points="2652,-179.5 2652,-198.5 2702,-198.5 2702,-179.5 2652,-179.5"/>
<text text-anchor="middle" x="2677" y="-186.5" font-family="Helvetica,sans-Serif" font-size="10.00">TH2F.h</text>
</g>
<!-- Node23&#45;&gt;Node42 -->
<g id="edge48" class="edge"><title>Node23&#45;&gt;Node42</title>
<path fill="none" stroke="midnightblue" d="M2717.27,-240.975C2710.22,-232.05 2698.97,-217.807 2690.15,-206.643"/>
<polygon fill="midnightblue" stroke="midnightblue" points="2692.67,-204.187 2683.72,-198.509 2687.17,-208.526 2692.67,-204.187"/>
</g>
<!-- Node26&#45;&gt;Node14 -->
<g id="edge31" class="edge"><title>Node26&#45;&gt;Node14</title>
<path fill="none" stroke="midnightblue" d="M2483.91,-179.822C2480.9,-179.536 2477.92,-179.261 2475,-179 2283.29,-161.877 2058.24,-147.05 1936.06,-139.44"/>
<polygon fill="midnightblue" stroke="midnightblue" points="1936.2,-135.942 1926,-138.816 1935.77,-142.929 1936.2,-135.942"/>
</g>
<!-- Node27 -->
<g id="node27" class="node"><title>Node27</title>
<polygon fill="none" stroke="#bfbfbf" points="2987.5,-0.5 2987.5,-19.5 3022.5,-19.5 3022.5,-0.5 2987.5,-0.5"/>
<text text-anchor="middle" x="3005" y="-7.5" font-family="Helvetica,sans-Serif" font-size="10.00">map</text>
</g>
<!-- Node26&#45;&gt;Node27 -->
<g id="edge26" class="edge"><title>Node26&#45;&gt;Node27</title>
<path fill="none" stroke="midnightblue" d="M2631.88,-179.495C2738.82,-165.571 2930.89,-134.606 2980,-87 2995.63,-71.8531 3001.49,-46.7788 3003.69,-29.6026"/>
<polygon fill="midnightblue" stroke="midnightblue" points="3007.17,-29.9343 3004.67,-19.6395 3000.21,-29.2487 3007.17,-29.9343"/>
</g>
<!-- Node28 -->
<g id="node28" class="node"><title>Node28</title>
<polygon fill="none" stroke="#bfbfbf" points="2263,-62 2263,-81 2315,-81 2315,-62 2263,-62"/>
<text text-anchor="middle" x="2289" y="-69" font-family="Helvetica,sans-Serif" font-size="10.00">memory</text>
</g>
<!-- Node26&#45;&gt;Node28 -->
<g id="edge27" class="edge"><title>Node26&#45;&gt;Node28</title>
<path fill="none" stroke="midnightblue" d="M2490.85,-179.488C2421.53,-170.241 2322.42,-155.16 2309,-143 2294.74,-130.076 2290.35,-107.807 2289.14,-91.7511"/>
<polygon fill="midnightblue" stroke="midnightblue" points="2292.62,-91.2343 2288.73,-81.3805 2285.63,-91.5111 2292.62,-91.2343"/>
</g>
<!-- Node29 -->
<g id="node29" class="node"><title>Node29</title>
<polygon fill="none" stroke="#bfbfbf" points="2642.5,-0.5 2642.5,-19.5 2683.5,-19.5 2683.5,-0.5 2642.5,-0.5"/>
<text text-anchor="middle" x="2663" y="-7.5" font-family="Helvetica,sans-Serif" font-size="10.00">string</text>
</g>
<!-- Node26&#45;&gt;Node29 -->
<g id="edge28" class="edge"><title>Node26&#45;&gt;Node29</title>
<path fill="none" stroke="midnightblue" d="M2617.43,-179.49C2677.05,-170.211 2762.21,-155.073 2772,-143 2807.33,-99.4321 2731.33,-48.3621 2688.94,-24.5297"/>
<polygon fill="midnightblue" stroke="midnightblue" points="2690.42,-21.3463 2679.97,-19.6047 2687.05,-27.4833 2690.42,-21.3463"/>
</g>
<!-- Node30 -->
<g id="node30" class="node"><title>Node30</title>
<polygon fill="none" stroke="#bfbfbf" points="2205.5,-0.5 2205.5,-19.5 2288.5,-19.5 2288.5,-0.5 2205.5,-0.5"/>
<text text-anchor="middle" x="2247" y="-7.5" font-family="Helvetica,sans-Serif" font-size="10.00">unordered_map</text>
</g>
<!-- Node26&#45;&gt;Node30 -->
<g id="edge29" class="edge"><title>Node26&#45;&gt;Node30</title>
<path fill="none" stroke="midnightblue" d="M2491.93,-179.485C2418.41,-169.714 2308.61,-153.667 2292,-143 2266.69,-126.749 2264.14,-115.316 2254,-87 2247.31,-68.3301 2246.05,-45.5126 2246.16,-29.7792"/>
<polygon fill="midnightblue" stroke="midnightblue" points="2249.66,-29.8231 2246.42,-19.7354 2242.66,-29.6409 2249.66,-29.8231"/>
</g>
<!-- Node31 -->
<g id="node31" class="node"><title>Node31</title>
<polygon fill="none" stroke="#bfbfbf" points="2496.5,-123.5 2496.5,-142.5 2621.5,-142.5 2621.5,-123.5 2496.5,-123.5"/>
<text text-anchor="middle" x="2559" y="-130.5" font-family="Helvetica,sans-Serif" font-size="10.00">Framework/InitContext.h</text>
</g>
<!-- Node26&#45;&gt;Node31 -->
<g id="edge30" class="edge"><title>Node26&#45;&gt;Node31</title>
<path fill="none" stroke="midnightblue" d="M2559,-179.083C2559,-172.006 2559,-161.861 2559,-152.986"/>
<polygon fill="midnightblue" stroke="midnightblue" points="2562.5,-152.751 2559,-142.751 2555.5,-152.751 2562.5,-152.751"/>
</g>
<!-- Node32 -->
<g id="node32" class="node"><title>Node32</title>
<g id="a_node32"><a xlink:href="Activity_8h.html" target="_top" xlink:title="QualityControl/Activity.h">
<polygon fill="none" stroke="black" points="2639.5,-123.5 2639.5,-142.5 2762.5,-142.5 2762.5,-123.5 2639.5,-123.5"/>
<text text-anchor="middle" x="2701" y="-130.5" font-family="Helvetica,sans-Serif" font-size="10.00">QualityControl/Activity.h</text>
</a>
</g>
</g>
<!-- Node26&#45;&gt;Node32 -->
<g id="edge32" class="edge"><title>Node26&#45;&gt;Node32</title>
<path fill="none" stroke="midnightblue" d="M2581.5,-179.444C2605.08,-170.478 2642.32,-156.314 2668.96,-146.183"/>
<polygon fill="midnightblue" stroke="midnightblue" points="2670.5,-149.342 2678.6,-142.516 2668.01,-142.8 2670.5,-149.342"/>
</g>
<!-- Node33 -->
<g id="node33" class="node"><title>Node33</title>
<g id="a_node33"><a xlink:href="ObjectsManager_8h.html" target="_top" xlink:title="QualityControl/ObjectsManager.h">
<polygon fill="none" stroke="black" points="2317.5,-123.5 2317.5,-142.5 2478.5,-142.5 2478.5,-123.5 2317.5,-123.5"/>
<text text-anchor="middle" x="2398" y="-130.5" font-family="Helvetica,sans-Serif" font-size="10.00">QualityControl/ObjectsManager.h</text>
</a>
</g>
</g>
<!-- Node26&#45;&gt;Node33 -->
<g id="edge33" class="edge"><title>Node26&#45;&gt;Node33</title>
<path fill="none" stroke="midnightblue" d="M2533.49,-179.444C2506.4,-170.359 2463.41,-155.939 2433.13,-145.783"/>
<polygon fill="midnightblue" stroke="midnightblue" points="2433.99,-142.378 2423.39,-142.516 2431.76,-149.015 2433.99,-142.378"/>
</g>
<!-- Node33&#45;&gt;Node28 -->
<g id="edge47" class="edge"><title>Node33&#45;&gt;Node28</title>
<path fill="none" stroke="midnightblue" d="M2382.38,-123.475C2364.41,-113.666 2334.68,-97.4346 2313.59,-85.925"/>
<polygon fill="midnightblue" stroke="midnightblue" points="2315.04,-82.7284 2304.59,-81.0091 2311.69,-88.8726 2315.04,-82.7284"/>
</g>
<!-- Node33&#45;&gt;Node29 -->
<g id="edge46" class="edge"><title>Node33&#45;&gt;Node29</title>
<path fill="none" stroke="midnightblue" d="M2465.45,-123.46C2533.71,-114.221 2631.02,-99.1777 2644,-87 2659.62,-72.346 2663.21,-46.9563 2663.67,-29.5875"/>
<polygon fill="midnightblue" stroke="midnightblue" points="2667.16,-29.5035 2663.6,-19.5255 2660.16,-29.5472 2667.16,-29.5035"/>
</g>
<!-- Node34 -->
<g id="node34" class="node"><title>Node34</title>
<g id="a_node34"><a xlink:href="MonitorObject_8h.html" target="_top" xlink:title="QualityControl/MonitorObject.h">
<polygon fill="none" stroke="black" points="2819.5,-62 2819.5,-81 2970.5,-81 2970.5,-62 2819.5,-62"/>
<text text-anchor="middle" x="2895" y="-69" font-family="Helvetica,sans-Serif" font-size="10.00">QualityControl/MonitorObject.h</text>
</a>
</g>
</g>
<!-- Node33&#45;&gt;Node34 -->
<g id="edge34" class="edge"><title>Node33&#45;&gt;Node34</title>
<path fill="none" stroke="midnightblue" d="M2469.21,-123.475C2560.37,-112.562 2717.94,-93.6974 2813.71,-82.2322"/>
<polygon fill="midnightblue" stroke="midnightblue" points="2814.41,-85.6731 2823.92,-81.0091 2813.58,-78.7227 2814.41,-85.6731"/>
</g>
<!-- Node38 -->
<g id="node38" class="node"><title>Node38</title>
<g id="a_node38"><a xlink:href="MonitorObjectCollection_8h.html" target="_top" xlink:title="QualityControl/MonitorObject\lCollection.h">
<polygon fill="none" stroke="black" points="2333.5,-56.5 2333.5,-86.5 2476.5,-86.5 2476.5,-56.5 2333.5,-56.5"/>
<text text-anchor="start" x="2341.5" y="-74.5" font-family="Helvetica,sans-Serif" font-size="10.00">QualityControl/MonitorObject</text>
<text text-anchor="middle" x="2405" y="-63.5" font-family="Helvetica,sans-Serif" font-size="10.00">Collection.h</text>
</a>
</g>
</g>
<!-- Node33&#45;&gt;Node38 -->
<g id="edge40" class="edge"><title>Node33&#45;&gt;Node38</title>
<path fill="none" stroke="midnightblue" d="M2399,-123.475C2399.83,-116.471 2401.04,-106.192 2402.15,-96.6956"/>
<polygon fill="midnightblue" stroke="midnightblue" points="2405.66,-96.8635 2403.35,-86.523 2398.71,-96.0455 2405.66,-96.8635"/>
</g>
<!-- Node41 -->
<g id="node41" class="node"><title>Node41</title>
<g id="a_node41"><a xlink:href="TaskConfig_8h.html" target="_top" xlink:title="QualityControl/TaskConfig.h">
<polygon fill="none" stroke="black" points="2495,-62 2495,-81 2635,-81 2635,-62 2495,-62"/>
<text text-anchor="middle" x="2565" y="-69" font-family="Helvetica,sans-Serif" font-size="10.00">QualityControl/TaskConfig.h</text>
</a>
</g>
</g>
<!-- Node33&#45;&gt;Node41 -->
<g id="edge43" class="edge"><title>Node33&#45;&gt;Node41</title>
<path fill="none" stroke="midnightblue" d="M2421.93,-123.475C2450.7,-113.225 2499.16,-95.9593 2531.6,-84.3994"/>
<polygon fill="midnightblue" stroke="midnightblue" points="2532.87,-87.6624 2541.12,-81.0091 2530.52,-81.0684 2532.87,-87.6624"/>
</g>
<!-- Node34&#45;&gt;Node27 -->
<g id="edge36" class="edge"><title>Node34&#45;&gt;Node27</title>
<path fill="none" stroke="midnightblue" d="M2910.76,-61.9751C2928.98,-52.1222 2959.17,-35.7883 2980.47,-24.2697"/>
<polygon fill="midnightblue" stroke="midnightblue" points="2982.14,-27.3453 2989.27,-19.5091 2978.81,-21.1883 2982.14,-27.3453"/>
</g>
<!-- Node34&#45;&gt;Node29 -->
<g id="edge35" class="edge"><title>Node34&#45;&gt;Node29</title>
<path fill="none" stroke="midnightblue" d="M2858.74,-61.973C2820.19,-52.7874 2757.22,-37.446 2693.44,-20.0226"/>
<polygon fill="midnightblue" stroke="midnightblue" points="2694.19,-16.5979 2683.62,-17.3234 2692.34,-23.3477 2694.19,-16.5979"/>
</g>
<!-- Node35 -->
<g id="node35" class="node"><title>Node35</title>
<polygon fill="none" stroke="#bfbfbf" points="2913,-0.5 2913,-19.5 2969,-19.5 2969,-0.5 2913,-0.5"/>
<text text-anchor="middle" x="2941" y="-7.5" font-family="Helvetica,sans-Serif" font-size="10.00">Rtypes.h</text>
</g>
<!-- Node34&#45;&gt;Node35 -->
<g id="edge37" class="edge"><title>Node34&#45;&gt;Node35</title>
<path fill="none" stroke="midnightblue" d="M2901.59,-61.9751C2908.49,-53.0501 2919.5,-38.8071 2928.13,-27.6425"/>
<polygon fill="midnightblue" stroke="midnightblue" points="2931.07,-29.5612 2934.42,-19.5091 2925.54,-25.2798 2931.07,-29.5612"/>
</g>
<!-- Node36 -->
<g id="node36" class="node"><title>Node36</title>
<polygon fill="none" stroke="#bfbfbf" points="2701.5,-0.5 2701.5,-19.5 2760.5,-19.5 2760.5,-0.5 2701.5,-0.5"/>
<text text-anchor="middle" x="2731" y="-7.5" font-family="Helvetica,sans-Serif" font-size="10.00">TObject.h</text>
</g>
<!-- Node34&#45;&gt;Node36 -->
<g id="edge38" class="edge"><title>Node34&#45;&gt;Node36</title>
<path fill="none" stroke="midnightblue" d="M2871.5,-61.9751C2843.37,-51.7687 2796.07,-34.608 2764.21,-23.0492"/>
<polygon fill="midnightblue" stroke="midnightblue" points="2765.05,-19.6295 2754.45,-19.5091 2762.66,-26.2098 2765.05,-19.6295"/>
</g>
<!-- Node37 -->
<g id="node37" class="node"><title>Node37</title>
<polygon fill="none" stroke="#bfbfbf" points="2779,-0.5 2779,-19.5 2895,-19.5 2895,-0.5 2779,-0.5"/>
<text text-anchor="middle" x="2837" y="-7.5" font-family="Helvetica,sans-Serif" font-size="10.00">Common/Exceptions.h</text>
</g>
<!-- Node34&#45;&gt;Node37 -->
<g id="edge39" class="edge"><title>Node34&#45;&gt;Node37</title>
<path fill="none" stroke="midnightblue" d="M2886.69,-61.9751C2877.82,-52.8733 2863.55,-38.241 2852.58,-26.983"/>
<polygon fill="midnightblue" stroke="midnightblue" points="2854.78,-24.2268 2845.29,-19.5091 2849.77,-29.113 2854.78,-24.2268"/>
</g>
<!-- Node39 -->
<g id="node39" class="node"><title>Node39</title>
<polygon fill="none" stroke="#bfbfbf" points="2464.5,-0.5 2464.5,-19.5 2533.5,-19.5 2533.5,-0.5 2464.5,-0.5"/>
<text text-anchor="middle" x="2499" y="-7.5" font-family="Helvetica,sans-Serif" font-size="10.00">TObjArray.h</text>
</g>
<!-- Node38&#45;&gt;Node39 -->
<g id="edge41" class="edge"><title>Node38&#45;&gt;Node39</title>
<path fill="none" stroke="midnightblue" d="M2427.28,-56.3993C2442.2,-46.9511 2461.78,-34.5589 2476.71,-25.1089"/>
<polygon fill="midnightblue" stroke="midnightblue" points="2478.74,-27.9636 2485.32,-19.6578 2475,-22.0489 2478.74,-27.9636"/>
</g>
<!-- Node40 -->
<g id="node40" class="node"><title>Node40</title>
<polygon fill="none" stroke="#bfbfbf" points="2318,-0.5 2318,-19.5 2446,-19.5 2446,-0.5 2318,-0.5"/>
<text text-anchor="middle" x="2382" y="-7.5" font-family="Helvetica,sans-Serif" font-size="10.00">Mergers/MergeInterface.h</text>
</g>
<!-- Node38&#45;&gt;Node40 -->
<g id="edge42" class="edge"><title>Node38&#45;&gt;Node40</title>
<path fill="none" stroke="midnightblue" d="M2399.55,-56.3993C2396.38,-48.1989 2392.35,-37.7809 2388.96,-28.9936"/>
<polygon fill="midnightblue" stroke="midnightblue" points="2392.22,-27.7232 2385.35,-19.6578 2385.69,-30.2471 2392.22,-27.7232"/>
</g>
<!-- Node41&#45;&gt;Node29 -->
<g id="edge44" class="edge"><title>Node41&#45;&gt;Node29</title>
<path fill="none" stroke="midnightblue" d="M2579.04,-61.9751C2595.05,-52.2548 2621.45,-36.2266 2640.37,-24.7372"/>
<polygon fill="midnightblue" stroke="midnightblue" points="2642.25,-27.6907 2648.99,-19.5091 2638.62,-21.7072 2642.25,-27.6907"/>
</g>
<!-- Node41&#45;&gt;Node30 -->
<g id="edge45" class="edge"><title>Node41&#45;&gt;Node30</title>
<path fill="none" stroke="midnightblue" d="M2519.44,-61.9751C2460.95,-51.0323 2359.75,-32.0954 2298.52,-20.6394"/>
<polygon fill="midnightblue" stroke="midnightblue" points="2299.15,-17.1973 2288.68,-18.7984 2297.86,-24.0779 2299.15,-17.1973"/>
</g>
</g>
</svg>
        <g id="navigator" transform="translate(0 0)" fill="#404254">
                <rect fill="#f2f5e9" fill-opacity="0.5" stroke="#606060" stroke-width=".5" x="0" y="0" width="60" height="60"/>
                <use id="zoomplus" xlink:href="#zoomPlus" x="17" y="9" onmousedown="handleZoom(evt,'in')"/>
                <use id="zoomminus" xlink:href="#zoomMin" x="42" y="9" onmousedown="handleZoom(evt,'out')"/>
                <use id="reset" xlink:href="#resetDef" x="30" y="36" onmousedown="handleReset()"/>
                <g id="arrowUp" xlink:href="#dirArrow" transform="translate(30 24)" onmousedown="handlePan(0,-1)">
                  <use xlink:href="#rim" fill="#404040">
                        <set attributeName="fill" to="#808080" begin="arrowUp.mouseover" end="arrowUp.mouseout"/>
                  </use>
                  <path fill="none" stroke="white" stroke-width="1.5" d="M0,-3.0v7 M-2.5,-0.5L0,-3.0L2.5,-0.5"/>
                </g>
                <g id="arrowRight" xlink:href="#dirArrow" transform="rotate(90) translate(36 -43)" onmousedown="handlePan(1,0)">
                  <use xlink:href="#rim" fill="#404040">
                        <set attributeName="fill" to="#808080" begin="arrowRight.mouseover" end="arrowRight.mouseout"/>
                  </use>
                  <path fill="none" stroke="white" stroke-width="1.5" d="M0,-3.0v7 M-2.5,-0.5L0,-3.0L2.5,-0.5"/>
                </g>
                <g id="arrowDown" xlink:href="#dirArrow" transform="rotate(180) translate(-30 -48)" onmousedown="handlePan(0,1)">
                  <use xlink:href="#rim" fill="#404040">
                        <set attributeName="fill" to="#808080" begin="arrowDown.mouseover" end="arrowDown.mouseout"/>
                  </use>
                  <path fill="none" stroke="white" stroke-width="1.5" d="M0,-3.0v7 M-2.5,-0.5L0,-3.0L2.5,-0.5"/>
                </g>
                <g id="arrowLeft" xlink:href="#dirArrow" transform="rotate(270) translate(-36 17)" onmousedown="handlePan(-1,0)">
                  <use xlink:href="#rim" fill="#404040">
                        <set attributeName="fill" to="#808080" begin="arrowLeft.mouseover" end="arrowLeft.mouseout"/>
                  </use>
                  <path fill="none" stroke="white" stroke-width="1.5" d="M0,-3.0v7 M-2.5,-0.5L0,-3.0L2.5,-0.5"/>
                </g>
        </g>
        <svg viewBox="0 0 15 15" width="100%" height="30px" preserveAspectRatio="xMaxYMin meet">
         <g id="arrow_out" transform="scale(0.3 0.3)">
          <a xlink:href="Clusters_8cxx__incl_org.svg" target="_base">
           <rect id="button" ry="5" rx="5" y="6" x="6" height="38" width="38"
                fill="#f2f5e9" fill-opacity="0.5" stroke="#606060" stroke-width="1.0"/>
           <path id="arrow"
             d="M 11.500037,31.436501 C 11.940474,20.09759 22.043105,11.32322 32.158766,21.979434 L 37.068811,17.246167 C 37.068811,17.246167 37.088388,32 37.088388,32 L 22.160133,31.978069 C 22.160133,31.978069 26.997745,27.140456 26.997745,27.140456 C 18.528582,18.264221 13.291696,25.230495 11.500037,31.436501 z"
             style="fill:#404040;"/>
          </a>
         </g>
        </svg>
</svg>
