<?xml version="1.0" encoding="UTF-8" standalone="no"?>
<!DOCTYPE svg PUBLIC "-//W3C//DTD SVG 1.1//EN"
 "http://www.w3.org/Graphics/SVG/1.1/DTD/svg11.dtd">
<!-- Generated by graphviz version 2.38.0 (20140413.2041)
 -->
<!-- Title: Framework/include/QualityControl/DatabaseInterface.h Pages: 1 -->
<svg width="4375pt" height="173pt"
 viewBox="0.00 0.00 4375.00 173.00" xmlns="http://www.w3.org/2000/svg" xmlns:xlink="http://www.w3.org/1999/xlink">
<g id="graph0" class="graph" transform="scale(1 1) rotate(0) translate(4 169)">
<title>Framework/include/QualityControl/DatabaseInterface.h</title>
<!-- Node1 -->
<g id="node1" class="node"><title>Node1</title>
<polygon fill="#bfbfbf" stroke="black" points="3321.5,-134.5 3321.5,-164.5 3461.5,-164.5 3461.5,-134.5 3321.5,-134.5"/>
<text text-anchor="start" x="3329.5" y="-152.5" font-family="Helvetica,sans-Serif" font-size="10.00">Framework/include/Quality</text>
<text text-anchor="middle" x="3391.5" y="-141.5" font-family="Helvetica,sans-Serif" font-size="10.00">Control/DatabaseInterface.h</text>
</g>
<!-- Node2 -->
<g id="node2" class="node"><title>Node2</title>
<g id="a_node2"><a xlink:href="CcdbDatabase_8h.html" target="_top" xlink:title="Framework/include/Quality\lControl/CcdbDatabase.h">
<polygon fill="none" stroke="black" points="506,-67.5 506,-97.5 639,-97.5 639,-67.5 506,-67.5"/>
<text text-anchor="start" x="514" y="-85.5" font-family="Helvetica,sans-Serif" font-size="10.00">Framework/include/Quality</text>
<text text-anchor="middle" x="572.5" y="-74.5" font-family="Helvetica,sans-Serif" font-size="10.00">Control/CcdbDatabase.h</text>
</a>
</g>
</g>
<!-- Node1&#45;&gt;Node2 -->
<g id="edge1" class="edge"><title>Node1&#45;&gt;Node2</title>
<path fill="none" stroke="midnightblue" d="M3311.05,-147.665C2998.86,-144.258 1837.42,-130.039 881.5,-98 797.902,-95.1981 701.65,-90.4384 639.085,-87.1402"/>
<polygon fill="midnightblue" stroke="midnightblue" points="3311.32,-151.168 3321.36,-147.777 3311.4,-144.168 3311.32,-151.168"/>
</g>
<!-- Node8 -->
<g id="node8" class="node"><title>Node8</title>
<g id="a_node8"><a xlink:href="CheckRunner_8h.html" target="_top" xlink:title="Framework/include/Quality\lControl/CheckRunner.h">
<polygon fill="none" stroke="black" points="2221,-67.5 2221,-97.5 2354,-97.5 2354,-67.5 2221,-67.5"/>
<text text-anchor="start" x="2229" y="-85.5" font-family="Helvetica,sans-Serif" font-size="10.00">Framework/include/Quality</text>
<text text-anchor="middle" x="2287.5" y="-74.5" font-family="Helvetica,sans-Serif" font-size="10.00">Control/CheckRunner.h</text>
</a>
</g>
</g>
<!-- Node1&#45;&gt;Node8 -->
<g id="edge7" class="edge"><title>Node1&#45;&gt;Node8</title>
<path fill="none" stroke="midnightblue" d="M3310.91,-143.755C3102.13,-131.463 2546.61,-98.7555 2354.21,-87.4274"/>
<polygon fill="midnightblue" stroke="midnightblue" points="3310.99,-147.266 3321.18,-144.36 3311.4,-140.278 3310.99,-147.266"/>
</g>
<!-- Node19 -->
<g id="node19" class="node"><title>Node19</title>
<g id="a_node19"><a xlink:href="DatabaseFactory_8h.html" target="_top" xlink:title="Framework/include/Quality\lControl/DatabaseFactory.h">
<polygon fill="none" stroke="black" points="1254.5,-67.5 1254.5,-97.5 1388.5,-97.5 1388.5,-67.5 1254.5,-67.5"/>
<text text-anchor="start" x="1262.5" y="-85.5" font-family="Helvetica,sans-Serif" font-size="10.00">Framework/include/Quality</text>
<text text-anchor="middle" x="1321.5" y="-74.5" font-family="Helvetica,sans-Serif" font-size="10.00">Control/DatabaseFactory.h</text>
</a>
</g>
</g>
<!-- Node1&#45;&gt;Node19 -->
<g id="edge18" class="edge"><title>Node1&#45;&gt;Node19</title>
<path fill="none" stroke="midnightblue" d="M3311.36,-145.983C2977.1,-135.487 1697.1,-95.2941 1388.66,-85.6088"/>
<polygon fill="midnightblue" stroke="midnightblue" points="3311.34,-149.484 3321.44,-146.3 3311.56,-142.488 3311.34,-149.484"/>
</g>
<!-- Node23 -->
<g id="node23" class="node"><title>Node23</title>
<g id="a_node23"><a xlink:href="DummyDatabase_8h.html" target="_top" xlink:title="Framework/include/Quality\lControl/DummyDatabase.h">
<polygon fill="none" stroke="black" points="890.5,-67.5 890.5,-97.5 1026.5,-97.5 1026.5,-67.5 890.5,-67.5"/>
<text text-anchor="start" x="898.5" y="-85.5" font-family="Helvetica,sans-Serif" font-size="10.00">Framework/include/Quality</text>
<text text-anchor="middle" x="958.5" y="-74.5" font-family="Helvetica,sans-Serif" font-size="10.00">Control/DummyDatabase.h</text>
</a>
</g>
</g>
<!-- Node1&#45;&gt;Node23 -->
<g id="edge26" class="edge"><title>Node1&#45;&gt;Node23</title>
<path fill="none" stroke="midnightblue" d="M3310.9,-147.386C3027.6,-143.305 2051.14,-127.825 1245.5,-98 1170.59,-95.2268 1084.75,-90.7141 1026.61,-87.459"/>
<polygon fill="midnightblue" stroke="midnightblue" points="3311.04,-150.888 3321.08,-147.532 3311.14,-143.889 3311.04,-150.888"/>
</g>
<!-- Node25 -->
<g id="node25" class="node"><title>Node25</title>
<g id="a_node25"><a xlink:href="MySqlDatabase_8h.html" target="_top" xlink:title="Framework/include/Quality\lControl/MySqlDatabase.h">
<polygon fill="none" stroke="black" points="3640,-67.5 3640,-97.5 3773,-97.5 3773,-67.5 3640,-67.5"/>
<text text-anchor="start" x="3648" y="-85.5" font-family="Helvetica,sans-Serif" font-size="10.00">Framework/include/Quality</text>
<text text-anchor="middle" x="3706.5" y="-74.5" font-family="Helvetica,sans-Serif" font-size="10.00">Control/MySqlDatabase.h</text>
</a>
</g>
</g>
<!-- Node1&#45;&gt;Node25 -->
<g id="edge30" class="edge"><title>Node1&#45;&gt;Node25</title>
<path fill="none" stroke="midnightblue" d="M3469.37,-132.432C3521.69,-121.636 3589.91,-107.558 3639.74,-97.2757"/>
<polygon fill="midnightblue" stroke="midnightblue" points="3468.55,-129.027 3459.46,-134.476 3469.96,-135.883 3468.55,-129.027"/>
</g>
<!-- Node27 -->
<g id="node27" class="node"><title>Node27</title>
<g id="a_node27"><a xlink:href="PostProcessingRunner_8h.html" target="_top" xlink:title="Framework/include/Quality\lControl/PostProcessingRunner.h">
<polygon fill="none" stroke="black" points="3311.5,-67.5 3311.5,-97.5 3471.5,-97.5 3471.5,-67.5 3311.5,-67.5"/>
<text text-anchor="start" x="3319.5" y="-85.5" font-family="Helvetica,sans-Serif" font-size="10.00">Framework/include/Quality</text>
<text text-anchor="middle" x="3391.5" y="-74.5" font-family="Helvetica,sans-Serif" font-size="10.00">Control/PostProcessingRunner.h</text>
</a>
</g>
</g>
<!-- Node1&#45;&gt;Node27 -->
<g id="edge32" class="edge"><title>Node1&#45;&gt;Node27</title>
<path fill="none" stroke="midnightblue" d="M3391.5,-124.108C3391.5,-115.154 3391.5,-105.323 3391.5,-97.5765"/>
<polygon fill="midnightblue" stroke="midnightblue" points="3388,-124.396 3391.5,-134.396 3395,-124.396 3388,-124.396"/>
</g>
<!-- Node31 -->
<g id="node31" class="node"><title>Node31</title>
<g id="a_node31"><a xlink:href="RepositoryBenchmark_8h.html" target="_top" xlink:title="Framework/src/Repository\lBenchmark.h">
<polygon fill="none" stroke="black" points="3489.5,-67.5 3489.5,-97.5 3621.5,-97.5 3621.5,-67.5 3489.5,-67.5"/>
<text text-anchor="start" x="3497.5" y="-85.5" font-family="Helvetica,sans-Serif" font-size="10.00">Framework/src/Repository</text>
<text text-anchor="middle" x="3555.5" y="-74.5" font-family="Helvetica,sans-Serif" font-size="10.00">Benchmark.h</text>
</a>
</g>
</g>
<!-- Node1&#45;&gt;Node31 -->
<g id="edge37" class="edge"><title>Node1&#45;&gt;Node31</title>
<path fill="none" stroke="midnightblue" d="M3436.46,-130.682C3462.76,-120.257 3495.5,-107.281 3519.98,-97.5765"/>
<polygon fill="midnightblue" stroke="midnightblue" points="3435.09,-127.458 3427.09,-134.396 3437.67,-133.965 3435.09,-127.458"/>
</g>
<!-- Node33 -->
<g id="node33" class="node"><title>Node33</title>
<g id="a_node33"><a xlink:href="TrendingTask_8cxx.html" target="_top" xlink:title="Framework/src/TrendingTask.cxx">
<polygon fill="none" stroke="black" points="3791,-73 3791,-92 3954,-92 3954,-73 3791,-73"/>
<text text-anchor="middle" x="3872.5" y="-80" font-family="Helvetica,sans-Serif" font-size="10.00">Framework/src/TrendingTask.cxx</text>
</a>
</g>
</g>
<!-- Node1&#45;&gt;Node33 -->
<g id="edge40" class="edge"><title>Node1&#45;&gt;Node33</title>
<path fill="none" stroke="midnightblue" d="M3471.89,-138.863C3551.01,-129.202 3675.21,-113.567 3782.5,-98 3795.03,-96.1819 3808.52,-94.0841 3821.14,-92.059"/>
<polygon fill="midnightblue" stroke="midnightblue" points="3471.02,-135.443 3461.51,-140.127 3471.86,-142.392 3471.02,-135.443"/>
</g>
<!-- Node34 -->
<g id="node34" class="node"><title>Node34</title>
<g id="a_node34"><a xlink:href="TrendingTaskITS_8cxx.html" target="_top" xlink:title="Modules/ITS/src/Trending\lTaskITS.cxx">
<polygon fill="none" stroke="black" points="3972,-67.5 3972,-97.5 4101,-97.5 4101,-67.5 3972,-67.5"/>
<text text-anchor="start" x="3980" y="-85.5" font-family="Helvetica,sans-Serif" font-size="10.00">Modules/ITS/src/Trending</text>
<text text-anchor="middle" x="4036.5" y="-74.5" font-family="Helvetica,sans-Serif" font-size="10.00">TaskITS.cxx</text>
</a>
</g>
</g>
<!-- Node1&#45;&gt;Node34 -->
<g id="edge41" class="edge"><title>Node1&#45;&gt;Node34</title>
<path fill="none" stroke="midnightblue" d="M3471.9,-144.149C3582.88,-137.517 3789.09,-122.947 3963.5,-98 3966.19,-97.6158 3968.92,-97.1971 3971.68,-96.752"/>
<polygon fill="midnightblue" stroke="midnightblue" points="3471.56,-140.662 3461.78,-144.746 3471.97,-147.65 3471.56,-140.662"/>
</g>
<!-- Node3 -->
<g id="node3" class="node"><title>Node3</title>
<g id="a_node3"><a xlink:href="CcdbDatabase_8cxx.html" target="_top" xlink:title="Framework/src/CcdbDatabase.cxx">
<polygon fill="none" stroke="black" points="0,-6 0,-25 169,-25 169,-6 0,-6"/>
<text text-anchor="middle" x="84.5" y="-13" font-family="Helvetica,sans-Serif" font-size="10.00">Framework/src/CcdbDatabase.cxx</text>
</a>
</g>
</g>
<!-- Node2&#45;&gt;Node3 -->
<g id="edge2" class="edge"><title>Node2&#45;&gt;Node3</title>
<path fill="none" stroke="midnightblue" d="M495.445,-72.2148C415.964,-62.4985 288.453,-46.5243 178.5,-31 165.42,-29.1532 151.335,-27.0446 138.151,-25.0183"/>
<polygon fill="midnightblue" stroke="midnightblue" points="495.504,-75.7479 505.855,-73.4851 496.352,-68.7994 495.504,-75.7479"/>
</g>
<!-- Node4 -->
<g id="node4" class="node"><title>Node4</title>
<g id="a_node4"><a xlink:href="DatabaseFactory_8cxx.html" target="_top" xlink:title="Framework/src/DatabaseFactory.cxx">
<polygon fill="none" stroke="black" points="968,-6 968,-25 1147,-25 1147,-6 968,-6"/>
<text text-anchor="middle" x="1057.5" y="-13" font-family="Helvetica,sans-Serif" font-size="10.00">Framework/src/DatabaseFactory.cxx</text>
</a>
</g>
</g>
<!-- Node2&#45;&gt;Node4 -->
<g id="edge3" class="edge"><title>Node2&#45;&gt;Node4</title>
<path fill="none" stroke="midnightblue" d="M649.352,-71.798C727.287,-61.8766 851.346,-45.8557 958.5,-31 972.093,-29.1155 986.724,-27.0132 1000.46,-25.0071"/>
<polygon fill="midnightblue" stroke="midnightblue" points="648.618,-68.3631 639.14,-73.0969 649.501,-75.3072 648.618,-68.3631"/>
</g>
<!-- Node5 -->
<g id="node5" class="node"><title>Node5</title>
<g id="a_node5"><a xlink:href="testCcdbDatabase_8cxx.html" target="_top" xlink:title="Framework/test/testCcdbDatabase.cxx">
<polygon fill="none" stroke="black" points="187.5,-6 187.5,-25 375.5,-25 375.5,-6 187.5,-6"/>
<text text-anchor="middle" x="281.5" y="-13" font-family="Helvetica,sans-Serif" font-size="10.00">Framework/test/testCcdbDatabase.cxx</text>
</a>
</g>
</g>
<!-- Node2&#45;&gt;Node5 -->
<g id="edge4" class="edge"><title>Node2&#45;&gt;Node5</title>
<path fill="none" stroke="midnightblue" d="M499.652,-65.2282C442.515,-52.4656 365.27,-35.2116 319.682,-25.0287"/>
<polygon fill="midnightblue" stroke="midnightblue" points="499.193,-68.7118 509.716,-67.476 500.719,-61.8801 499.193,-68.7118"/>
</g>
<!-- Node6 -->
<g id="node6" class="node"><title>Node6</title>
<polygon fill="none" stroke="#bfbfbf" points="393.5,-0.5 393.5,-30.5 563.5,-30.5 563.5,-0.5 393.5,-0.5"/>
<text text-anchor="start" x="401.5" y="-18.5" font-family="Helvetica,sans-Serif" font-size="10.00">Framework/test/testCcdbDatabase</text>
<text text-anchor="middle" x="478.5" y="-7.5" font-family="Helvetica,sans-Serif" font-size="10.00">Extra.cxx</text>
</g>
<!-- Node2&#45;&gt;Node6 -->
<g id="edge5" class="edge"><title>Node2&#45;&gt;Node6</title>
<path fill="none" stroke="midnightblue" d="M543.506,-61.4511C529.045,-51.4517 511.905,-39.5995 498.857,-30.5765"/>
<polygon fill="midnightblue" stroke="midnightblue" points="541.888,-64.5872 552.103,-67.396 545.869,-58.8296 541.888,-64.5872"/>
</g>
<!-- Node7 -->
<g id="node7" class="node"><title>Node7</title>
<g id="a_node7"><a xlink:href="testDbFactory_8cxx.html" target="_top" xlink:title="Framework/test/testDbFactory.cxx">
<polygon fill="none" stroke="black" points="582,-6 582,-25 751,-25 751,-6 582,-6"/>
<text text-anchor="middle" x="666.5" y="-13" font-family="Helvetica,sans-Serif" font-size="10.00">Framework/test/testDbFactory.cxx</text>
</a>
</g>
</g>
<!-- Node2&#45;&gt;Node7 -->
<g id="edge6" class="edge"><title>Node2&#45;&gt;Node7</title>
<path fill="none" stroke="midnightblue" d="M601.219,-61.6409C618.959,-49.3742 640.814,-34.2613 654.198,-25.007"/>
<polygon fill="midnightblue" stroke="midnightblue" points="599.131,-58.8296 592.897,-67.396 603.112,-64.5872 599.131,-58.8296"/>
</g>
<!-- Node9 -->
<g id="node9" class="node"><title>Node9</title>
<g id="a_node9"><a xlink:href="CheckRunner_8cxx.html" target="_top" xlink:title="Framework/src/CheckRunner.cxx">
<polygon fill="none" stroke="black" points="1325.5,-6 1325.5,-25 1489.5,-25 1489.5,-6 1325.5,-6"/>
<text text-anchor="middle" x="1407.5" y="-13" font-family="Helvetica,sans-Serif" font-size="10.00">Framework/src/CheckRunner.cxx</text>
</a>
</g>
</g>
<!-- Node8&#45;&gt;Node9 -->
<g id="edge8" class="edge"><title>Node8&#45;&gt;Node9</title>
<path fill="none" stroke="midnightblue" d="M2210.52,-78.979C2069.12,-73.8142 1758.68,-59.9901 1498.5,-31 1484.51,-29.441 1469.38,-27.2405 1455.56,-25.0236"/>
<polygon fill="midnightblue" stroke="midnightblue" points="2210.69,-82.4875 2220.81,-79.3506 2210.95,-75.4921 2210.69,-82.4875"/>
</g>
<!-- Node10 -->
<g id="node10" class="node"><title>Node10</title>
<g id="a_node10"><a xlink:href="CheckRunnerFactory_8cxx.html" target="_top" xlink:title="Framework/src/CheckRunner\lFactory.cxx">
<polygon fill="none" stroke="black" points="2984,-0.5 2984,-30.5 3129,-30.5 3129,-0.5 2984,-0.5"/>
<text text-anchor="start" x="2992" y="-18.5" font-family="Helvetica,sans-Serif" font-size="10.00">Framework/src/CheckRunner</text>
<text text-anchor="middle" x="3056.5" y="-7.5" font-family="Helvetica,sans-Serif" font-size="10.00">Factory.cxx</text>
</a>
</g>
</g>
<!-- Node8&#45;&gt;Node10 -->
<g id="edge9" class="edge"><title>Node8&#45;&gt;Node10</title>
<path fill="none" stroke="midnightblue" d="M2364.07,-78.4151C2491.23,-72.7227 2753.81,-58.5506 2974.5,-31 2977.51,-30.6239 2980.58,-30.2119 2983.68,-29.7725"/>
<polygon fill="midnightblue" stroke="midnightblue" points="2363.88,-74.9202 2354.04,-78.859 2364.19,-81.9133 2363.88,-74.9202"/>
</g>
<!-- Node11 -->
<g id="node11" class="node"><title>Node11</title>
<g id="a_node11"><a xlink:href="InfrastructureGenerator_8cxx.html" target="_top" xlink:title="Framework/src/Infrastructure\lGenerator.cxx">
<polygon fill="none" stroke="black" points="1508,-0.5 1508,-30.5 1651,-30.5 1651,-0.5 1508,-0.5"/>
<text text-anchor="start" x="1516" y="-18.5" font-family="Helvetica,sans-Serif" font-size="10.00">Framework/src/Infrastructure</text>
<text text-anchor="middle" x="1579.5" y="-7.5" font-family="Helvetica,sans-Serif" font-size="10.00">Generator.cxx</text>
</a>
</g>
</g>
<!-- Node8&#45;&gt;Node11 -->
<g id="edge10" class="edge"><title>Node8&#45;&gt;Node11</title>
<path fill="none" stroke="midnightblue" d="M2210.87,-77.7231C2092.47,-71.348 1858.08,-56.5804 1660.5,-31 1657.52,-30.6148 1654.49,-30.1952 1651.43,-29.7495"/>
<polygon fill="midnightblue" stroke="midnightblue" points="2210.75,-81.2217 2220.93,-78.2592 2211.13,-74.2316 2210.75,-81.2217"/>
</g>
<!-- Node12 -->
<g id="node12" class="node"><title>Node12</title>
<g id="a_node12"><a xlink:href="runBasic_8cxx.html" target="_top" xlink:title="This is an executable showing QC Task&#39;s usage in Data Processing Layer. ">
<polygon fill="none" stroke="black" points="1669.5,-6 1669.5,-25 1811.5,-25 1811.5,-6 1669.5,-6"/>
<text text-anchor="middle" x="1740.5" y="-13" font-family="Helvetica,sans-Serif" font-size="10.00">Framework/src/runBasic.cxx</text>
</a>
</g>
</g>
<!-- Node8&#45;&gt;Node12 -->
<g id="edge11" class="edge"><title>Node8&#45;&gt;Node12</title>
<path fill="none" stroke="midnightblue" d="M2210.67,-74.8914C2117.94,-66.5242 1957.42,-50.7853 1820.5,-31 1808.77,-29.3043 1796.12,-27.1602 1784.42,-25.0446"/>
<polygon fill="midnightblue" stroke="midnightblue" points="2210.53,-78.3932 2220.8,-75.8011 2211.16,-71.4212 2210.53,-78.3932"/>
</g>
<!-- Node13 -->
<g id="node13" class="node"><title>Node13</title>
<g id="a_node13"><a xlink:href="testCheckRunner_8cxx.html" target="_top" xlink:title="Framework/test/testCheck\lRunner.cxx">
<polygon fill="none" stroke="black" points="2054,-0.5 2054,-30.5 2187,-30.5 2187,-0.5 2054,-0.5"/>
<text text-anchor="start" x="2062" y="-18.5" font-family="Helvetica,sans-Serif" font-size="10.00">Framework/test/testCheck</text>
<text text-anchor="middle" x="2120.5" y="-7.5" font-family="Helvetica,sans-Serif" font-size="10.00">Runner.cxx</text>
</a>
</g>
</g>
<!-- Node8&#45;&gt;Node13 -->
<g id="edge12" class="edge"><title>Node8&#45;&gt;Node13</title>
<path fill="none" stroke="midnightblue" d="M2241.72,-63.6815C2214.94,-53.2568 2181.6,-40.2805 2156.67,-30.5765"/>
<polygon fill="midnightblue" stroke="midnightblue" points="2240.67,-67.0304 2251.26,-67.396 2243.21,-60.5071 2240.67,-67.0304"/>
</g>
<!-- Node14 -->
<g id="node14" class="node"><title>Node14</title>
<g id="a_node14"><a xlink:href="testCheckWorkflow_8cxx.html" target="_top" xlink:title="Framework/test/testCheck\lWorkflow.cxx">
<polygon fill="none" stroke="black" points="3147,-0.5 3147,-30.5 3280,-30.5 3280,-0.5 3147,-0.5"/>
<text text-anchor="start" x="3155" y="-18.5" font-family="Helvetica,sans-Serif" font-size="10.00">Framework/test/testCheck</text>
<text text-anchor="middle" x="3213.5" y="-7.5" font-family="Helvetica,sans-Serif" font-size="10.00">Workflow.cxx</text>
</a>
</g>
</g>
<!-- Node8&#45;&gt;Node14 -->
<g id="edge13" class="edge"><title>Node8&#45;&gt;Node14</title>
<path fill="none" stroke="midnightblue" d="M2364.61,-80.2497C2514.2,-77.0884 2854.03,-66.3124 3137.5,-31 3140.57,-30.6181 3143.69,-30.1878 3146.85,-29.7208"/>
<polygon fill="midnightblue" stroke="midnightblue" points="2364.09,-76.7594 2354.17,-80.4644 2364.24,-83.7579 2364.09,-76.7594"/>
</g>
<!-- Node15 -->
<g id="node15" class="node"><title>Node15</title>
<g id="a_node15"><a xlink:href="testWorkflow_8cxx.html" target="_top" xlink:title="Framework/test/testWorkflow.cxx">
<polygon fill="none" stroke="black" points="2205.5,-6 2205.5,-25 2369.5,-25 2369.5,-6 2205.5,-6"/>
<text text-anchor="middle" x="2287.5" y="-13" font-family="Helvetica,sans-Serif" font-size="10.00">Framework/test/testWorkflow.cxx</text>
</a>
</g>
</g>
<!-- Node8&#45;&gt;Node15 -->
<g id="edge14" class="edge"><title>Node8&#45;&gt;Node15</title>
<path fill="none" stroke="midnightblue" d="M2287.5,-57.2495C2287.5,-46.017 2287.5,-33.3767 2287.5,-25.1945"/>
<polygon fill="midnightblue" stroke="midnightblue" points="2284,-57.3959 2287.5,-67.396 2291,-57.396 2284,-57.3959"/>
</g>
<!-- Node16 -->
<g id="node16" class="node"><title>Node16</title>
<polygon fill="none" stroke="#bfbfbf" points="2387.5,-6 2387.5,-25 2605.5,-25 2605.5,-6 2387.5,-6"/>
<text text-anchor="middle" x="2496.5" y="-13" font-family="Helvetica,sans-Serif" font-size="10.00">Modules/EMCAL/src/runQCEMCALDigits.cxx</text>
</g>
<!-- Node8&#45;&gt;Node16 -->
<g id="edge15" class="edge"><title>Node8&#45;&gt;Node16</title>
<path fill="none" stroke="midnightblue" d="M2342.39,-64.4298C2383.14,-51.7542 2437.01,-35.0008 2469.08,-25.0287"/>
<polygon fill="midnightblue" stroke="midnightblue" points="2341.1,-61.1641 2332.59,-67.476 2343.18,-67.8483 2341.1,-61.1641"/>
</g>
<!-- Node17 -->
<g id="node17" class="node"><title>Node17</title>
<polygon fill="none" stroke="#bfbfbf" points="1829.5,-6 1829.5,-25 2035.5,-25 2035.5,-6 1829.5,-6"/>
<text text-anchor="middle" x="1932.5" y="-13" font-family="Helvetica,sans-Serif" font-size="10.00">Modules/PHOS/src/runQCPHOSDigits.cxx</text>
</g>
<!-- Node8&#45;&gt;Node17 -->
<g id="edge16" class="edge"><title>Node8&#45;&gt;Node17</title>
<path fill="none" stroke="midnightblue" d="M2210.57,-67.4136C2140.09,-54.5089 2038.04,-35.8234 1979.16,-25.0441"/>
<polygon fill="midnightblue" stroke="midnightblue" points="2210.26,-70.9156 2220.73,-69.274 2211.52,-64.0301 2210.26,-70.9156"/>
</g>
<!-- Node18 -->
<g id="node18" class="node"><title>Node18</title>
<polygon fill="none" stroke="#bfbfbf" points="2623.5,-0.5 2623.5,-30.5 2793.5,-30.5 2793.5,-0.5 2623.5,-0.5"/>
<text text-anchor="start" x="2631.5" y="-18.5" font-family="Helvetica,sans-Serif" font-size="10.00">Modules/TPC/run/runTPCQCTrack</text>
<text text-anchor="middle" x="2708.5" y="-7.5" font-family="Helvetica,sans-Serif" font-size="10.00">Reader.cxx</text>
</g>
<!-- Node8&#45;&gt;Node18 -->
<g id="edge17" class="edge"><title>Node8&#45;&gt;Node18</title>
<path fill="none" stroke="midnightblue" d="M2364.28,-69.6458C2437.43,-58.3522 2547.34,-41.3824 2623.19,-29.6715"/>
<polygon fill="midnightblue" stroke="midnightblue" points="2363.56,-66.2156 2354.21,-71.2006 2364.63,-73.1336 2363.56,-66.2156"/>
</g>
<!-- Node19&#45;&gt;Node4 -->
<g id="edge20" class="edge"><title>Node19&#45;&gt;Node4</title>
<path fill="none" stroke="midnightblue" d="M1254.77,-65.0694C1203,-52.3228 1133.33,-35.1694 1092.14,-25.0287"/>
<polygon fill="midnightblue" stroke="midnightblue" points="1253.99,-68.4837 1264.54,-67.476 1255.67,-61.6867 1253.99,-68.4837"/>
</g>
<!-- Node19&#45;&gt;Node6 -->
<g id="edge23" class="edge"><title>Node19&#45;&gt;Node6</title>
<path fill="none" stroke="midnightblue" d="M1244.19,-77.1324C1079.99,-67.7171 700.969,-45.213 572.5,-31 569.546,-30.6732 566.542,-30.3206 563.511,-29.9476"/>
<polygon fill="midnightblue" stroke="midnightblue" points="1244.04,-80.6291 1254.22,-77.7064 1244.44,-73.6405 1244.04,-80.6291"/>
</g>
<!-- Node19&#45;&gt;Node7 -->
<g id="edge24" class="edge"><title>Node19&#45;&gt;Node7</title>
<path fill="none" stroke="midnightblue" d="M1244.25,-76.1001C1135.92,-68.1748 932.822,-52.0254 760.5,-31 746.732,-29.3201 731.878,-27.1815 718.134,-25.066"/>
<polygon fill="midnightblue" stroke="midnightblue" points="1244.2,-79.6061 1254.43,-76.8413 1244.71,-72.6245 1244.2,-79.6061"/>
</g>
<!-- Node19&#45;&gt;Node9 -->
<g id="edge19" class="edge"><title>Node19&#45;&gt;Node9</title>
<path fill="none" stroke="midnightblue" d="M1348.17,-61.3425C1364.22,-49.2128 1383.83,-34.389 1396,-25.1945"/>
<polygon fill="midnightblue" stroke="midnightblue" points="1346.03,-58.5741 1340.16,-67.396 1350.25,-64.1585 1346.03,-58.5741"/>
</g>
<!-- Node20 -->
<g id="node20" class="node"><title>Node20</title>
<polygon fill="none" stroke="#bfbfbf" points="2811.5,-0.5 2811.5,-30.5 2965.5,-30.5 2965.5,-0.5 2811.5,-0.5"/>
<text text-anchor="start" x="2819.5" y="-18.5" font-family="Helvetica,sans-Serif" font-size="10.00">Framework/src/PostProcessing</text>
<text text-anchor="middle" x="2888.5" y="-7.5" font-family="Helvetica,sans-Serif" font-size="10.00">Runner.cxx</text>
</g>
<!-- Node19&#45;&gt;Node20 -->
<g id="edge21" class="edge"><title>Node19&#45;&gt;Node20</title>
<path fill="none" stroke="midnightblue" d="M1398.92,-80.221C1662.84,-75.6475 2526.23,-58.876 2802.5,-31 2805.36,-30.7112 2808.27,-30.3854 2811.21,-30.0297"/>
<polygon fill="midnightblue" stroke="midnightblue" points="1398.6,-76.7258 1388.66,-80.3978 1398.72,-83.7248 1398.6,-76.7258"/>
</g>
<!-- Node21 -->
<g id="node21" class="node"><title>Node21</title>
<g id="a_node21"><a xlink:href="RepositoryBenchmark_8cxx.html" target="_top" xlink:title="Framework/src/Repository\lBenchmark.cxx">
<polygon fill="none" stroke="black" points="3687.5,-0.5 3687.5,-30.5 3819.5,-30.5 3819.5,-0.5 3687.5,-0.5"/>
<text text-anchor="start" x="3695.5" y="-18.5" font-family="Helvetica,sans-Serif" font-size="10.00">Framework/src/Repository</text>
<text text-anchor="middle" x="3753.5" y="-7.5" font-family="Helvetica,sans-Serif" font-size="10.00">Benchmark.cxx</text>
</a>
</g>
</g>
<!-- Node19&#45;&gt;Node21 -->
<g id="edge22" class="edge"><title>Node19&#45;&gt;Node21</title>
<path fill="none" stroke="midnightblue" d="M1398.71,-80.2081C1792.35,-73.5751 3561.84,-43.1869 3677.5,-31 3680.71,-30.6622 3683.98,-30.2603 3687.28,-29.8093"/>
<polygon fill="midnightblue" stroke="midnightblue" points="1398.5,-76.7109 1388.56,-80.3789 1398.62,-83.7099 1398.5,-76.7109"/>
</g>
<!-- Node22 -->
<g id="node22" class="node"><title>Node22</title>
<g id="a_node22"><a xlink:href="testTrendingTask_8cxx.html" target="_top" xlink:title="Framework/test/testTrending\lTask.cxx">
<polygon fill="none" stroke="black" points="1165.5,-0.5 1165.5,-30.5 1307.5,-30.5 1307.5,-0.5 1165.5,-0.5"/>
<text text-anchor="start" x="1173.5" y="-18.5" font-family="Helvetica,sans-Serif" font-size="10.00">Framework/test/testTrending</text>
<text text-anchor="middle" x="1236.5" y="-7.5" font-family="Helvetica,sans-Serif" font-size="10.00">Task.cxx</text>
</a>
</g>
</g>
<!-- Node19&#45;&gt;Node22 -->
<g id="edge25" class="edge"><title>Node19&#45;&gt;Node22</title>
<path fill="none" stroke="midnightblue" d="M1294.91,-61.1677C1281.91,-51.2283 1266.6,-39.5144 1254.91,-30.5765"/>
<polygon fill="midnightblue" stroke="midnightblue" points="1292.99,-64.1017 1303.06,-67.396 1297.24,-58.5412 1292.99,-64.1017"/>
</g>
<!-- Node23&#45;&gt;Node4 -->
<g id="edge27" class="edge"><title>Node23&#45;&gt;Node4</title>
<path fill="none" stroke="midnightblue" d="M988.492,-61.808C1007.22,-49.5117 1030.38,-34.3034 1044.54,-25.007"/>
<polygon fill="midnightblue" stroke="midnightblue" points="986.42,-58.9818 979.982,-67.396 990.262,-64.8333 986.42,-58.9818"/>
</g>
<!-- Node23&#45;&gt;Node7 -->
<g id="edge29" class="edge"><title>Node23&#45;&gt;Node7</title>
<path fill="none" stroke="midnightblue" d="M885.402,-65.2282C828.069,-52.4656 750.558,-35.2116 704.813,-25.0287"/>
<polygon fill="midnightblue" stroke="midnightblue" points="884.978,-68.7195 895.5,-67.476 886.499,-61.8867 884.978,-68.7195"/>
</g>
<!-- Node24 -->
<g id="node24" class="node"><title>Node24</title>
<g id="a_node24"><a xlink:href="DummyDatabase_8cxx.html" target="_top" xlink:title="Framework/src/DummyDatabase.cxx">
<polygon fill="none" stroke="black" points="769.5,-6 769.5,-25 949.5,-25 949.5,-6 769.5,-6"/>
<text text-anchor="middle" x="859.5" y="-13" font-family="Helvetica,sans-Serif" font-size="10.00">Framework/src/DummyDatabase.cxx</text>
</a>
</g>
</g>
<!-- Node23&#45;&gt;Node24 -->
<g id="edge28" class="edge"><title>Node23&#45;&gt;Node24</title>
<path fill="none" stroke="midnightblue" d="M928.508,-61.808C909.779,-49.5117 886.616,-34.3034 872.457,-25.007"/>
<polygon fill="midnightblue" stroke="midnightblue" points="926.738,-64.8333 937.018,-67.396 930.58,-58.9818 926.738,-64.8333"/>
</g>
<!-- Node26 -->
<g id="node26" class="node"><title>Node26</title>
<g id="a_node26"><a xlink:href="MySqlDatabase_8cxx.html" target="_top" xlink:title="Framework/src/MySqlDatabase.cxx">
<polygon fill="none" stroke="black" points="4194,-6 4194,-25 4367,-25 4367,-6 4194,-6"/>
<text text-anchor="middle" x="4280.5" y="-13" font-family="Helvetica,sans-Serif" font-size="10.00">Framework/src/MySqlDatabase.cxx</text>
</a>
</g>
</g>
<!-- Node25&#45;&gt;Node26 -->
<g id="edge31" class="edge"><title>Node25&#45;&gt;Node26</title>
<path fill="none" stroke="midnightblue" d="M3783.16,-67.0068C3961.87,-42.5204 4009.62,-52.0182 4184.5,-31 4198.56,-29.3105 4213.73,-27.1686 4227.76,-25.053"/>
<polygon fill="midnightblue" stroke="midnightblue" points="3782.59,-63.5528 3773.17,-68.3933 3783.55,-70.4864 3782.59,-63.5528"/>
</g>
<!-- Node27&#45;&gt;Node20 -->
<g id="edge33" class="edge"><title>Node27&#45;&gt;Node20</title>
<path fill="none" stroke="midnightblue" d="M3301.33,-71.8053C3216.76,-62.423 3086.85,-47.2656 2974.5,-31 2971.65,-30.5878 2968.75,-30.1569 2965.83,-29.7124"/>
<polygon fill="midnightblue" stroke="midnightblue" points="3301.09,-75.3 3311.41,-72.9205 3301.86,-68.3424 3301.09,-75.3"/>
</g>
<!-- Node28 -->
<g id="node28" class="node"><title>Node28</title>
<g id="a_node28"><a xlink:href="runPostProcessing_8cxx.html" target="_top" xlink:title="This is a standalone executable to run postprocessing. ">
<polygon fill="none" stroke="black" points="3298.5,-6 3298.5,-25 3484.5,-25 3484.5,-6 3298.5,-6"/>
<text text-anchor="middle" x="3391.5" y="-13" font-family="Helvetica,sans-Serif" font-size="10.00">Framework/src/runPostProcessing.cxx</text>
</a>
</g>
</g>
<!-- Node27&#45;&gt;Node28 -->
<g id="edge34" class="edge"><title>Node27&#45;&gt;Node28</title>
<path fill="none" stroke="midnightblue" d="M3391.5,-57.2495C3391.5,-46.017 3391.5,-33.3767 3391.5,-25.1945"/>
<polygon fill="midnightblue" stroke="midnightblue" points="3388,-57.3959 3391.5,-67.396 3395,-57.396 3388,-57.3959"/>
</g>
<!-- Node29 -->
<g id="node29" class="node"><title>Node29</title>
<g id="a_node29"><a xlink:href="runPostProcessingOCC_8cxx.html" target="_top" xlink:title="This is an OCC executable to run postprocessing. ">
<polygon fill="none" stroke="black" points="3502,-0.5 3502,-30.5 3669,-30.5 3669,-0.5 3502,-0.5"/>
<text text-anchor="start" x="3510" y="-18.5" font-family="Helvetica,sans-Serif" font-size="10.00">Framework/src/runPostProcessing</text>
<text text-anchor="middle" x="3585.5" y="-7.5" font-family="Helvetica,sans-Serif" font-size="10.00">OCC.cxx</text>
</a>
</g>
</g>
<!-- Node27&#45;&gt;Node29 -->
<g id="edge35" class="edge"><title>Node27&#45;&gt;Node29</title>
<path fill="none" stroke="midnightblue" d="M3443.46,-64.0917C3474.77,-53.5988 3514.14,-40.4082 3543.49,-30.5765"/>
<polygon fill="midnightblue" stroke="midnightblue" points="3441.97,-60.9003 3433.6,-67.396 3444.19,-67.5376 3441.97,-60.9003"/>
</g>
<!-- Node30 -->
<g id="node30" class="node"><title>Node30</title>
<g id="a_node30"><a xlink:href="testPostProcessingRunner_8cxx.html" target="_top" xlink:title="Framework/test/testPostProcessing\lRunner.cxx">
<polygon fill="none" stroke="black" points="3838,-0.5 3838,-30.5 4011,-30.5 4011,-0.5 3838,-0.5"/>
<text text-anchor="start" x="3846" y="-18.5" font-family="Helvetica,sans-Serif" font-size="10.00">Framework/test/testPostProcessing</text>
<text text-anchor="middle" x="3924.5" y="-7.5" font-family="Helvetica,sans-Serif" font-size="10.00">Runner.cxx</text>
</a>
</g>
</g>
<!-- Node27&#45;&gt;Node30 -->
<g id="edge36" class="edge"><title>Node27&#45;&gt;Node30</title>
<path fill="none" stroke="midnightblue" d="M3481.87,-66.8703C3636.39,-46.656 3677.56,-50.1951 3828.5,-31 3831.59,-30.6066 3834.74,-30.1943 3837.92,-29.768"/>
<polygon fill="midnightblue" stroke="midnightblue" points="3480.98,-63.4572 3471.52,-68.2366 3481.89,-70.3969 3480.98,-63.4572"/>
</g>
<!-- Node31&#45;&gt;Node21 -->
<g id="edge38" class="edge"><title>Node31&#45;&gt;Node21</title>
<path fill="none" stroke="midnightblue" d="M3608.11,-64.2278C3640.14,-53.7131 3680.54,-40.4508 3710.62,-30.5765"/>
<polygon fill="midnightblue" stroke="midnightblue" points="3606.87,-60.9514 3598.46,-67.396 3609.06,-67.6022 3606.87,-60.9514"/>
</g>
<!-- Node32 -->
<g id="node32" class="node"><title>Node32</title>
<g id="a_node32"><a xlink:href="runRepositoryBenchmark_8cxx.html" target="_top" xlink:title="Framework/src/runRepository\lBenchmark.cxx">
<polygon fill="none" stroke="black" points="4029.5,-0.5 4029.5,-30.5 4175.5,-30.5 4175.5,-0.5 4029.5,-0.5"/>
<text text-anchor="start" x="4037.5" y="-18.5" font-family="Helvetica,sans-Serif" font-size="10.00">Framework/src/runRepository</text>
<text text-anchor="middle" x="4102.5" y="-7.5" font-family="Helvetica,sans-Serif" font-size="10.00">Benchmark.cxx</text>
</a>
</g>
</g>
<!-- Node31&#45;&gt;Node32 -->
<g id="edge39" class="edge"><title>Node31&#45;&gt;Node32</title>
<path fill="none" stroke="midnightblue" d="M3631.64,-66.9318C3804.55,-42.8722 3851.18,-53.7452 4020.5,-31 4023.37,-30.615 4026.28,-30.2017 4029.23,-29.7669"/>
<polygon fill="midnightblue" stroke="midnightblue" points="3631.11,-63.4719 3621.69,-68.3343 3632.08,-70.4033 3631.11,-63.4719"/>
</g>
</g>
</svg>
