<?xml version="1.0" encoding="UTF-8" standalone="no"?>
<!DOCTYPE svg PUBLIC "-//W3C//DTD SVG 1.1//EN"
 "http://www.w3.org/Graphics/SVG/1.1/DTD/svg11.dtd">
<!-- Generated by graphviz version 2.38.0 (20140413.2041)
 -->
<!-- Title: Framework/src/DatabaseFactory.cxx Pages: 1 -->
<svg width="782pt" height="308pt"
 viewBox="0.00 0.00 781.96 308.00" xmlns="http://www.w3.org/2000/svg" xmlns:xlink="http://www.w3.org/1999/xlink">
<g id="graph0" class="graph" transform="scale(1 1) rotate(0) translate(4 304)">
<title>Framework/src/DatabaseFactory.cxx</title>
<!-- Node1 -->
<g id="node1" class="node"><title>Node1</title>
<polygon fill="#bfbfbf" stroke="black" points="396.956,-280.5 396.956,-299.5 575.956,-299.5 575.956,-280.5 396.956,-280.5"/>
<text text-anchor="middle" x="486.456" y="-287.5" font-family="Helvetica,sans-Serif" font-size="10.00">Framework/src/DatabaseFactory.cxx</text>
</g>
<!-- Node2 -->
<g id="node2" class="node"><title>Node2</title>
<g id="a_node2"><a xlink:href="CcdbDatabase_8h.html" target="_top" xlink:title="QualityControl/CcdbDatabase.h">
<polygon fill="none" stroke="black" points="45.956,-224.5 45.956,-243.5 200.956,-243.5 200.956,-224.5 45.956,-224.5"/>
<text text-anchor="middle" x="123.456" y="-231.5" font-family="Helvetica,sans-Serif" font-size="10.00">QualityControl/CcdbDatabase.h</text>
</a>
</g>
</g>
<!-- Node1&#45;&gt;Node2 -->
<g id="edge1" class="edge"><title>Node1&#45;&gt;Node2</title>
<path fill="none" stroke="midnightblue" d="M428.938,-280.444C364.286,-270.826 259.43,-255.228 190.953,-245.041"/>
<polygon fill="midnightblue" stroke="midnightblue" points="191.112,-241.526 180.705,-243.516 190.081,-248.45 191.112,-241.526"/>
</g>
<!-- Node12 -->
<g id="node12" class="node"><title>Node12</title>
<polygon fill="none" stroke="#bfbfbf" points="381.456,-56.5 381.456,-75.5 497.456,-75.5 497.456,-56.5 381.456,-56.5"/>
<text text-anchor="middle" x="439.456" y="-63.5" font-family="Helvetica,sans-Serif" font-size="10.00">Common/Exceptions.h</text>
</g>
<!-- Node1&#45;&gt;Node12 -->
<g id="edge22" class="edge"><title>Node1&#45;&gt;Node12</title>
<path fill="none" stroke="midnightblue" d="M524.359,-280.37C543.779,-273.829 565.749,-262.663 577.456,-244 608.632,-194.3 612.966,-159.445 578.456,-112 562.051,-89.4455 534.096,-77.9642 507.539,-72.2048"/>
<polygon fill="midnightblue" stroke="midnightblue" points="507.937,-68.7174 497.456,-70.2665 506.616,-75.5915 507.937,-68.7174"/>
</g>
<!-- Node16 -->
<g id="node16" class="node"><title>Node16</title>
<g id="a_node16"><a xlink:href="DummyDatabase_8h.html" target="_top" xlink:title="QualityControl/DummyDatabase.h">
<polygon fill="none" stroke="black" points="218.956,-224.5 218.956,-243.5 385.956,-243.5 385.956,-224.5 218.956,-224.5"/>
<text text-anchor="middle" x="302.456" y="-231.5" font-family="Helvetica,sans-Serif" font-size="10.00">QualityControl/DummyDatabase.h</text>
</a>
</g>
</g>
<!-- Node1&#45;&gt;Node16 -->
<g id="edge23" class="edge"><title>Node1&#45;&gt;Node16</title>
<path fill="none" stroke="midnightblue" d="M457.301,-280.444C425.943,-271.241 375.925,-256.562 341.259,-246.388"/>
<polygon fill="midnightblue" stroke="midnightblue" points="342.056,-242.974 331.475,-243.516 340.085,-249.691 342.056,-242.974"/>
</g>
<!-- Node17 -->
<g id="node17" class="node"><title>Node17</title>
<g id="a_node17"><a xlink:href="DatabaseFactory_8h.html" target="_top" xlink:title="QualityControl/DatabaseFactory.h">
<polygon fill="none" stroke="black" points="403.956,-224.5 403.956,-243.5 568.956,-243.5 568.956,-224.5 403.956,-224.5"/>
<text text-anchor="middle" x="486.456" y="-231.5" font-family="Helvetica,sans-Serif" font-size="10.00">QualityControl/DatabaseFactory.h</text>
</a>
</g>
</g>
<!-- Node1&#45;&gt;Node17 -->
<g id="edge25" class="edge"><title>Node1&#45;&gt;Node17</title>
<path fill="none" stroke="midnightblue" d="M486.456,-280.083C486.456,-273.006 486.456,-262.861 486.456,-253.986"/>
<polygon fill="midnightblue" stroke="midnightblue" points="489.956,-253.751 486.456,-243.751 482.956,-253.751 489.956,-253.751"/>
</g>
<!-- Node18 -->
<g id="node18" class="node"><title>Node18</title>
<g id="a_node18"><a xlink:href="QcInfoLogger_8h.html" target="_top" xlink:title="QualityControl/QcInfoLogger.h">
<polygon fill="none" stroke="black" points="624.956,-224.5 624.956,-243.5 773.956,-243.5 773.956,-224.5 624.956,-224.5"/>
<text text-anchor="middle" x="699.456" y="-231.5" font-family="Helvetica,sans-Serif" font-size="10.00">QualityControl/QcInfoLogger.h</text>
</a>
</g>
</g>
<!-- Node1&#45;&gt;Node18 -->
<g id="edge28" class="edge"><title>Node1&#45;&gt;Node18</title>
<path fill="none" stroke="midnightblue" d="M520.207,-280.444C556.974,-271.122 615.902,-256.183 656.078,-245.997"/>
<polygon fill="midnightblue" stroke="midnightblue" points="657.03,-249.367 665.863,-243.516 655.31,-242.581 657.03,-249.367"/>
</g>
<!-- Node3 -->
<g id="node3" class="node"><title>Node3</title>
<polygon fill="none" stroke="#bfbfbf" points="75.956,-168.5 75.956,-187.5 170.956,-187.5 170.956,-168.5 75.956,-168.5"/>
<text text-anchor="middle" x="123.456" y="-175.5" font-family="Helvetica,sans-Serif" font-size="10.00">CCDB/CcdbApi.h</text>
</g>
<!-- Node2&#45;&gt;Node3 -->
<g id="edge2" class="edge"><title>Node2&#45;&gt;Node3</title>
<path fill="none" stroke="midnightblue" d="M123.456,-224.083C123.456,-217.006 123.456,-206.861 123.456,-197.986"/>
<polygon fill="midnightblue" stroke="midnightblue" points="126.956,-197.751 123.456,-187.751 119.956,-197.751 126.956,-197.751"/>
</g>
<!-- Node4 -->
<g id="node4" class="node"><title>Node4</title>
<g id="a_node4"><a xlink:href="DatabaseInterface_8h.html" target="_top" xlink:title="QualityControl/DatabaseInterface.h">
<polygon fill="none" stroke="black" points="206.456,-168.5 206.456,-187.5 376.456,-187.5 376.456,-168.5 206.456,-168.5"/>
<text text-anchor="middle" x="291.456" y="-175.5" font-family="Helvetica,sans-Serif" font-size="10.00">QualityControl/DatabaseInterface.h</text>
</a>
</g>
</g>
<!-- Node2&#45;&gt;Node4 -->
<g id="edge3" class="edge"><title>Node2&#45;&gt;Node4</title>
<path fill="none" stroke="midnightblue" d="M150.076,-224.444C178.462,-215.32 223.593,-200.813 255.209,-190.651"/>
<polygon fill="midnightblue" stroke="midnightblue" points="256.511,-193.909 264.96,-187.516 254.369,-187.244 256.511,-193.909"/>
</g>
<!-- Node5 -->
<g id="node5" class="node"><title>Node5</title>
<polygon fill="none" stroke="#bfbfbf" points="39.956,-0.5 39.956,-19.5 80.956,-19.5 80.956,-0.5 39.956,-0.5"/>
<text text-anchor="middle" x="60.456" y="-7.5" font-family="Helvetica,sans-Serif" font-size="10.00">string</text>
</g>
<!-- Node4&#45;&gt;Node5 -->
<g id="edge4" class="edge"><title>Node4&#45;&gt;Node5</title>
<path fill="none" stroke="midnightblue" d="M206.186,-168.972C127.932,-160.721 22.2461,-146.993 9.45604,-132 -17.7787,-100.075 20.5222,-51.4997 44.1927,-26.7257"/>
<polygon fill="midnightblue" stroke="midnightblue" points="46.7241,-29.1435 51.2622,-19.5698 41.7443,-24.2239 46.7241,-29.1435"/>
</g>
<!-- Node6 -->
<g id="node6" class="node"><title>Node6</title>
<polygon fill="none" stroke="#bfbfbf" points="517.456,-112.5 517.456,-131.5 569.456,-131.5 569.456,-112.5 517.456,-112.5"/>
<text text-anchor="middle" x="543.456" y="-119.5" font-family="Helvetica,sans-Serif" font-size="10.00">memory</text>
</g>
<!-- Node4&#45;&gt;Node6 -->
<g id="edge5" class="edge"><title>Node4&#45;&gt;Node6</title>
<path fill="none" stroke="midnightblue" d="M335.644,-168.472C377.442,-160.263 442.16,-147.188 507.114,-132.233"/>
<polygon fill="midnightblue" stroke="midnightblue" points="508.164,-135.582 517.115,-129.915 506.583,-128.763 508.164,-135.582"/>
</g>
<!-- Node7 -->
<g id="node7" class="node"><title>Node7</title>
<polygon fill="none" stroke="#bfbfbf" points="18.456,-112.5 18.456,-131.5 62.456,-131.5 62.456,-112.5 18.456,-112.5"/>
<text text-anchor="middle" x="40.456" y="-119.5" font-family="Helvetica,sans-Serif" font-size="10.00">vector</text>
</g>
<!-- Node4&#45;&gt;Node7 -->
<g id="edge6" class="edge"><title>Node4&#45;&gt;Node7</title>
<path fill="none" stroke="midnightblue" d="M244.002,-168.441C201.461,-160.511 137.158,-147.892 72.6776,-132.154"/>
<polygon fill="midnightblue" stroke="midnightblue" points="73.296,-128.701 62.7489,-129.706 71.6202,-135.498 73.296,-128.701"/>
</g>
<!-- Node8 -->
<g id="node8" class="node"><title>Node8</title>
<polygon fill="none" stroke="#bfbfbf" points="249.956,-112.5 249.956,-131.5 332.956,-131.5 332.956,-112.5 249.956,-112.5"/>
<text text-anchor="middle" x="291.456" y="-119.5" font-family="Helvetica,sans-Serif" font-size="10.00">unordered_map</text>
</g>
<!-- Node4&#45;&gt;Node8 -->
<g id="edge7" class="edge"><title>Node4&#45;&gt;Node8</title>
<path fill="none" stroke="midnightblue" d="M291.456,-168.083C291.456,-161.006 291.456,-150.861 291.456,-141.986"/>
<polygon fill="midnightblue" stroke="midnightblue" points="294.956,-141.751 291.456,-131.751 287.956,-141.751 294.956,-141.751"/>
</g>
<!-- Node9 -->
<g id="node9" class="node"><title>Node9</title>
<g id="a_node9"><a xlink:href="QualityObject_8h_source.html" target="_top" xlink:title="QualityControl/QualityObject.h">
<polygon fill="none" stroke="black" points="350.956,-112.5 350.956,-131.5 499.956,-131.5 499.956,-112.5 350.956,-112.5"/>
<text text-anchor="middle" x="425.456" y="-119.5" font-family="Helvetica,sans-Serif" font-size="10.00">QualityControl/QualityObject.h</text>
</a>
</g>
</g>
<!-- Node4&#45;&gt;Node9 -->
<g id="edge8" class="edge"><title>Node4&#45;&gt;Node9</title>
<path fill="none" stroke="midnightblue" d="M312.689,-168.444C334.84,-159.517 369.775,-145.439 394.892,-135.317"/>
<polygon fill="midnightblue" stroke="midnightblue" points="396.356,-138.501 404.323,-131.516 393.739,-132.008 396.356,-138.501"/>
</g>
<!-- Node15 -->
<g id="node15" class="node"><title>Node15</title>
<g id="a_node15"><a xlink:href="MonitorObject_8h.html" target="_top" xlink:title="QualityControl/MonitorObject.h">
<polygon fill="none" stroke="black" points="80.956,-112.5 80.956,-131.5 231.956,-131.5 231.956,-112.5 80.956,-112.5"/>
<text text-anchor="middle" x="156.456" y="-119.5" font-family="Helvetica,sans-Serif" font-size="10.00">QualityControl/MonitorObject.h</text>
</a>
</g>
</g>
<!-- Node4&#45;&gt;Node15 -->
<g id="edge16" class="edge"><title>Node4&#45;&gt;Node15</title>
<path fill="none" stroke="midnightblue" d="M270.065,-168.444C247.749,-159.517 212.553,-145.439 187.248,-135.317"/>
<polygon fill="midnightblue" stroke="midnightblue" points="188.332,-131.981 177.747,-131.516 185.732,-138.48 188.332,-131.981"/>
</g>
<!-- Node10 -->
<g id="node10" class="node"><title>Node10</title>
<polygon fill="none" stroke="#bfbfbf" points="335.956,-0.5 335.956,-19.5 370.956,-19.5 370.956,-0.5 335.956,-0.5"/>
<text text-anchor="middle" x="353.456" y="-7.5" font-family="Helvetica,sans-Serif" font-size="10.00">map</text>
</g>
<!-- Node9&#45;&gt;Node10 -->
<g id="edge9" class="edge"><title>Node9&#45;&gt;Node10</title>
<path fill="none" stroke="midnightblue" d="M452.425,-112.426C482.581,-101.395 524.927,-80.6866 506.456,-56 491.42,-35.9041 420.944,-21.7025 381.095,-15.1254"/>
<polygon fill="midnightblue" stroke="midnightblue" points="381.634,-11.6673 371.207,-13.5461 380.53,-18.5796 381.634,-11.6673"/>
</g>
<!-- Node11 -->
<g id="node11" class="node"><title>Node11</title>
<polygon fill="none" stroke="#bfbfbf" points="126.956,-56.5 126.956,-75.5 185.956,-75.5 185.956,-56.5 126.956,-56.5"/>
<text text-anchor="middle" x="156.456" y="-63.5" font-family="Helvetica,sans-Serif" font-size="10.00">TObject.h</text>
</g>
<!-- Node9&#45;&gt;Node11 -->
<g id="edge10" class="edge"><title>Node9&#45;&gt;Node11</title>
<path fill="none" stroke="midnightblue" d="M378.886,-112.496C334.344,-104.236 265.036,-91.0515 196.417,-76.3654"/>
<polygon fill="midnightblue" stroke="midnightblue" points="196.814,-72.8706 186.301,-74.1881 195.341,-79.7139 196.814,-72.8706"/>
</g>
<!-- Node9&#45;&gt;Node12 -->
<g id="edge11" class="edge"><title>Node9&#45;&gt;Node12</title>
<path fill="none" stroke="midnightblue" d="M427.768,-112.083C429.623,-104.927 432.291,-94.6353 434.61,-85.6911"/>
<polygon fill="midnightblue" stroke="midnightblue" points="438.066,-86.3094 437.187,-75.7511 431.29,-84.5527 438.066,-86.3094"/>
</g>
<!-- Node13 -->
<g id="node13" class="node"><title>Node13</title>
<g id="a_node13"><a xlink:href="Quality_8h.html" target="_top" xlink:title="QualityControl/Quality.h">
<polygon fill="none" stroke="black" points="203.956,-56.5 203.956,-75.5 324.956,-75.5 324.956,-56.5 203.956,-56.5"/>
<text text-anchor="middle" x="264.456" y="-63.5" font-family="Helvetica,sans-Serif" font-size="10.00">QualityControl/Quality.h</text>
</a>
</g>
</g>
<!-- Node9&#45;&gt;Node13 -->
<g id="edge12" class="edge"><title>Node9&#45;&gt;Node13</title>
<path fill="none" stroke="midnightblue" d="M399.945,-112.444C372.86,-103.359 329.866,-88.9388 299.587,-78.7831"/>
<polygon fill="midnightblue" stroke="midnightblue" points="300.442,-75.3781 289.848,-75.5164 298.216,-82.0148 300.442,-75.3781"/>
</g>
<!-- Node13&#45;&gt;Node5 -->
<g id="edge14" class="edge"><title>Node13&#45;&gt;Node5</title>
<path fill="none" stroke="midnightblue" d="M232.132,-56.4435C193.416,-46.1953 129.047,-29.1565 91.0948,-19.1103"/>
<polygon fill="midnightblue" stroke="midnightblue" points="91.6968,-15.6491 81.1341,-16.4736 89.9055,-22.4161 91.6968,-15.6491"/>
</g>
<!-- Node13&#45;&gt;Node10 -->
<g id="edge15" class="edge"><title>Node13&#45;&gt;Node10</title>
<path fill="none" stroke="midnightblue" d="M278.755,-56.324C292.639,-47.9002 313.948,-34.9709 330.26,-25.0741"/>
<polygon fill="midnightblue" stroke="midnightblue" points="332.458,-27.8341 339.192,-19.6545 328.827,-21.8495 332.458,-27.8341"/>
</g>
<!-- Node14 -->
<g id="node14" class="node"><title>Node14</title>
<polygon fill="none" stroke="#bfbfbf" points="168.456,-0.5 168.456,-19.5 224.456,-19.5 224.456,-0.5 168.456,-0.5"/>
<text text-anchor="middle" x="196.456" y="-7.5" font-family="Helvetica,sans-Serif" font-size="10.00">Rtypes.h</text>
</g>
<!-- Node13&#45;&gt;Node14 -->
<g id="edge13" class="edge"><title>Node13&#45;&gt;Node14</title>
<path fill="none" stroke="midnightblue" d="M253.531,-56.324C243.281,-48.1849 227.735,-35.8395 215.455,-26.0874"/>
<polygon fill="midnightblue" stroke="midnightblue" points="217.588,-23.3119 207.58,-19.8339 213.235,-28.7937 217.588,-23.3119"/>
</g>
<!-- Node15&#45;&gt;Node5 -->
<g id="edge17" class="edge"><title>Node15&#45;&gt;Node5</title>
<path fill="none" stroke="midnightblue" d="M146.908,-112.401C137.325,-103.604 122.324,-89.3672 110.456,-76 96.6321,-60.4292 82.2845,-41.4352 72.5234,-28.011"/>
<polygon fill="midnightblue" stroke="midnightblue" points="75.2403,-25.7942 66.5612,-19.7178 69.5567,-29.8804 75.2403,-25.7942"/>
</g>
<!-- Node15&#45;&gt;Node10 -->
<g id="edge18" class="edge"><title>Node15&#45;&gt;Node10</title>
<path fill="none" stroke="midnightblue" d="M214.855,-112.445C259.574,-104.772 316.402,-92.2295 333.456,-76 346.009,-64.0542 350.742,-44.4416 352.496,-29.8792"/>
<polygon fill="midnightblue" stroke="midnightblue" points="356.016,-29.7817 353.356,-19.5262 349.04,-29.202 356.016,-29.7817"/>
</g>
<!-- Node15&#45;&gt;Node11 -->
<g id="edge20" class="edge"><title>Node15&#45;&gt;Node11</title>
<path fill="none" stroke="midnightblue" d="M156.456,-112.083C156.456,-105.006 156.456,-94.8611 156.456,-85.9865"/>
<polygon fill="midnightblue" stroke="midnightblue" points="159.956,-85.751 156.456,-75.7511 152.956,-85.7511 159.956,-85.751"/>
</g>
<!-- Node15&#45;&gt;Node12 -->
<g id="edge21" class="edge"><title>Node15&#45;&gt;Node12</title>
<path fill="none" stroke="midnightblue" d="M201.298,-112.444C251.081,-102.944 331.439,-87.611 384.848,-77.4198"/>
<polygon fill="midnightblue" stroke="midnightblue" points="385.657,-80.8288 394.824,-75.5164 384.345,-73.9528 385.657,-80.8288"/>
</g>
<!-- Node15&#45;&gt;Node14 -->
<g id="edge19" class="edge"><title>Node15&#45;&gt;Node14</title>
<path fill="none" stroke="midnightblue" d="M144.781,-112.424C129.402,-100.031 105.618,-76.3663 117.456,-56 126.455,-40.5175 142.994,-29.9197 158.622,-22.9179"/>
<polygon fill="midnightblue" stroke="midnightblue" points="160.232,-26.0407 168.159,-19.0115 157.579,-19.563 160.232,-26.0407"/>
</g>
<!-- Node16&#45;&gt;Node4 -->
<g id="edge24" class="edge"><title>Node16&#45;&gt;Node4</title>
<path fill="none" stroke="midnightblue" d="M300.64,-224.083C299.182,-216.927 297.085,-206.635 295.263,-197.691"/>
<polygon fill="midnightblue" stroke="midnightblue" points="298.664,-196.851 293.239,-187.751 291.805,-198.248 298.664,-196.851"/>
</g>
<!-- Node17&#45;&gt;Node4 -->
<g id="edge27" class="edge"><title>Node17&#45;&gt;Node4</title>
<path fill="none" stroke="midnightblue" d="M455.558,-224.444C422.182,-215.201 368.862,-200.436 332.107,-190.257"/>
<polygon fill="midnightblue" stroke="midnightblue" points="332.781,-186.812 322.21,-187.516 330.913,-193.558 332.781,-186.812"/>
</g>
<!-- Node17&#45;&gt;Node6 -->
<g id="edge26" class="edge"><title>Node17&#45;&gt;Node6</title>
<path fill="none" stroke="midnightblue" d="M490.929,-224.368C500.252,-206.376 521.925,-164.55 534.322,-140.627"/>
<polygon fill="midnightblue" stroke="midnightblue" points="537.511,-142.081 539.004,-131.591 531.296,-138.86 537.511,-142.081"/>
</g>
<!-- Node19 -->
<g id="node19" class="node"><title>Node19</title>
<polygon fill="none" stroke="#bfbfbf" points="634.456,-168.5 634.456,-187.5 764.456,-187.5 764.456,-168.5 634.456,-168.5"/>
<text text-anchor="middle" x="699.456" y="-175.5" font-family="Helvetica,sans-Serif" font-size="10.00">InfoLogger/InfoLogger.hxx</text>
</g>
<!-- Node18&#45;&gt;Node19 -->
<g id="edge29" class="edge"><title>Node18&#45;&gt;Node19</title>
<path fill="none" stroke="midnightblue" d="M699.456,-224.083C699.456,-217.006 699.456,-206.861 699.456,-197.986"/>
<polygon fill="midnightblue" stroke="midnightblue" points="702.956,-197.751 699.456,-187.751 695.956,-197.751 702.956,-197.751"/>
</g>
</g>
</svg>
