<?xml version="1.0" encoding="UTF-8" standalone="no"?>
<!DOCTYPE svg PUBLIC "-//W3C//DTD SVG 1.1//EN"
 "http://www.w3.org/Graphics/SVG/1.1/DTD/svg11.dtd">
<!-- Generated by graphviz version 2.38.0 (20140413.2041)
 -->
<!-- Title: Framework/include/QualityControl/DatabaseInterface.h Pages: 1 -->
<!--zoomable 207 -->
<svg id="main" version="1.1" xmlns="http://www.w3.org/2000/svg" xmlns:xlink="http://www.w3.org/1999/xlink" xml:space="preserve" onload="init(evt)">
<style type="text/css"><![CDATA[
.edge:hover path { stroke: red; }
.edge:hover polygon { stroke: red; fill: red; }
]]></style>
<script type="text/javascript"><![CDATA[
var edges = document.getElementsByTagName('g');
if (edges && edges.length) {
  for (var i=0;i<edges.length;i++) {
    if (edges[i].id.substr(0,4)=='edge') {
      edges[i].setAttribute('class','edge');
    }
  }
}
]]></script>
        <defs>
                <circle id="rim" cx="0" cy="0" r="7"/>
                <circle id="rim2" cx="0" cy="0" r="3.5"/>
                <g id="zoomPlus">
                        <use xlink:href="#rim" fill="#404040">
                                <set attributeName="fill" to="#808080" begin="zoomplus.mouseover" end="zoomplus.mouseout"/>
                        </use>
                        <path d="M-4,0h8M0,-4v8" fill="none" stroke="white" stroke-width="1.5" pointer-events="none"/>
                </g>
                <g id="zoomMin">
                        <use xlink:href="#rim" fill="#404040">
                                <set attributeName="fill" to="#808080" begin="zoomminus.mouseover" end="zoomminus.mouseout"/>
                        </use>
                        <path d="M-4,0h8" fill="none" stroke="white" stroke-width="1.5" pointer-events="none"/>
                </g>
                <g id="dirArrow">
                        <path fill="none" stroke="white" stroke-width="1.5" d="M0,-3.0v7 M-2.5,-0.5L0,-3.0L2.5,-0.5"/>
                </g>
               <g id="resetDef">
                       <use xlink:href="#rim2" fill="#404040">
                               <set attributeName="fill" to="#808080" begin="reset.mouseover" end="reset.mouseout"/>
                       </use>
               </g>
        </defs>

<script type="text/javascript">
var viewWidth = 582;
var viewHeight = 207;
var sectionId = 'dynsection-0';
</script>
<script xlink:href="svgpan.js"/>
<svg id="graph" class="graph">
<g id="viewport">
<title>Framework/include/QualityControl/DatabaseInterface.h</title>
<!-- Node1 -->
<g id="node1" class="node"><title>Node1</title>
<polygon fill="#bfbfbf" stroke="black" points="255.497,-168.5 255.497,-198.5 395.497,-198.5 395.497,-168.5 255.497,-168.5"/>
<text text-anchor="start" x="263.497" y="-186.5" font-family="Helvetica,sans-Serif" font-size="10.00">Framework/include/Quality</text>
<text text-anchor="middle" x="325.497" y="-175.5" font-family="Helvetica,sans-Serif" font-size="10.00">Control/DatabaseInterface.h</text>
</g>
<!-- Node2 -->
<g id="node2" class="node"><title>Node2</title>
<polygon fill="none" stroke="#bfbfbf" points="3.99746,-0.5 3.99746,-19.5 44.9975,-19.5 44.9975,-0.5 3.99746,-0.5"/>
<text text-anchor="middle" x="24.4975" y="-7.5" font-family="Helvetica,sans-Serif" font-size="10.00">string</text>
</g>
<!-- Node1&#45;&gt;Node2 -->
<g id="edge1" class="edge"><title>Node1&#45;&gt;Node2</title>
<path fill="none" stroke="midnightblue" d="M255.207,-181.311C172.899,-178.257 43.906,-167.726 13.4975,-132 -11.1362,-103.059 4.35394,-54.9183 15.691,-28.9401"/>
<polygon fill="midnightblue" stroke="midnightblue" points="19.0023,-30.1181 20.0246,-19.5727 12.6493,-27.179 19.0023,-30.1181"/>
</g>
<!-- Node3 -->
<g id="node3" class="node"><title>Node3</title>
<polygon fill="none" stroke="#bfbfbf" points="358.497,-112.5 358.497,-131.5 410.497,-131.5 410.497,-112.5 358.497,-112.5"/>
<text text-anchor="middle" x="384.497" y="-119.5" font-family="Helvetica,sans-Serif" font-size="10.00">memory</text>
</g>
<!-- Node1&#45;&gt;Node3 -->
<g id="edge2" class="edge"><title>Node1&#45;&gt;Node3</title>
<path fill="none" stroke="midnightblue" d="M339.48,-168.399C348.23,-159.575 359.526,-148.183 368.614,-139.018"/>
<polygon fill="midnightblue" stroke="midnightblue" points="371.357,-141.223 375.912,-131.658 366.386,-136.294 371.357,-141.223"/>
</g>
<!-- Node4 -->
<g id="node4" class="node"><title>Node4</title>
<polygon fill="none" stroke="#bfbfbf" points="428.497,-112.5 428.497,-131.5 472.497,-131.5 472.497,-112.5 428.497,-112.5"/>
<text text-anchor="middle" x="450.497" y="-119.5" font-family="Helvetica,sans-Serif" font-size="10.00">vector</text>
</g>
<!-- Node1&#45;&gt;Node4 -->
<g id="edge3" class="edge"><title>Node1&#45;&gt;Node4</title>
<path fill="none" stroke="midnightblue" d="M355.121,-168.399C375.719,-158.595 402.978,-145.619 423.077,-136.052"/>
<polygon fill="midnightblue" stroke="midnightblue" points="424.784,-139.116 432.309,-131.658 421.775,-132.796 424.784,-139.116"/>
</g>
<!-- Node5 -->
<g id="node5" class="node"><title>Node5</title>
<polygon fill="none" stroke="#bfbfbf" points="490.997,-112.5 490.997,-131.5 573.997,-131.5 573.997,-112.5 490.997,-112.5"/>
<text text-anchor="middle" x="532.497" y="-119.5" font-family="Helvetica,sans-Serif" font-size="10.00">unordered_map</text>
</g>
<!-- Node1&#45;&gt;Node5 -->
<g id="edge4" class="edge"><title>Node1&#45;&gt;Node5</title>
<path fill="none" stroke="midnightblue" d="M374.291,-168.475C410.471,-158.075 459.166,-144.078 492.934,-134.372"/>
<polygon fill="midnightblue" stroke="midnightblue" points="494.26,-137.633 502.904,-131.506 492.326,-130.905 494.26,-137.633"/>
</g>
<!-- Node6 -->
<g id="node6" class="node"><title>Node6</title>
<g id="a_node6"><a xlink:href="QualityObject_8h_source.html" target="_top" xlink:title="QualityControl/QualityObject.h">
<polygon fill="none" stroke="black" points="191.997,-112.5 191.997,-131.5 340.997,-131.5 340.997,-112.5 191.997,-112.5"/>
<text text-anchor="middle" x="266.497" y="-119.5" font-family="Helvetica,sans-Serif" font-size="10.00">QualityControl/QualityObject.h</text>
</a>
</g>
</g>
<!-- Node1&#45;&gt;Node6 -->
<g id="edge5" class="edge"><title>Node1&#45;&gt;Node6</title>
<path fill="none" stroke="midnightblue" d="M311.515,-168.399C302.765,-159.575 291.469,-148.183 282.381,-139.018"/>
<polygon fill="midnightblue" stroke="midnightblue" points="284.609,-136.294 275.082,-131.658 279.638,-141.223 284.609,-136.294"/>
</g>
<!-- Node12 -->
<g id="node12" class="node"><title>Node12</title>
<g id="a_node12"><a xlink:href="MonitorObject_8h.html" target="_top" xlink:title="QualityControl/MonitorObject.h">
<polygon fill="none" stroke="black" points="22.9975,-112.5 22.9975,-131.5 173.997,-131.5 173.997,-112.5 22.9975,-112.5"/>
<text text-anchor="middle" x="98.4975" y="-119.5" font-family="Helvetica,sans-Serif" font-size="10.00">QualityControl/MonitorObject.h</text>
</a>
</g>
</g>
<!-- Node1&#45;&gt;Node12 -->
<g id="edge13" class="edge"><title>Node1&#45;&gt;Node12</title>
<path fill="none" stroke="midnightblue" d="M271.989,-168.475C231.972,-157.986 177.992,-143.837 140.93,-134.122"/>
<polygon fill="midnightblue" stroke="midnightblue" points="141.511,-130.656 130.95,-131.506 139.736,-137.428 141.511,-130.656"/>
</g>
<!-- Node7 -->
<g id="node7" class="node"><title>Node7</title>
<polygon fill="none" stroke="#bfbfbf" points="383.997,-0.5 383.997,-19.5 418.997,-19.5 418.997,-0.5 383.997,-0.5"/>
<text text-anchor="middle" x="401.497" y="-7.5" font-family="Helvetica,sans-Serif" font-size="10.00">map</text>
</g>
<!-- Node6&#45;&gt;Node7 -->
<g id="edge6" class="edge"><title>Node6&#45;&gt;Node7</title>
<path fill="none" stroke="midnightblue" d="M321.96,-112.467C379.389,-103.067 462.063,-87.73 471.497,-76 488.623,-54.7074 454.707,-33.8977 428.358,-21.7695"/>
<polygon fill="midnightblue" stroke="midnightblue" points="429.665,-18.5209 419.101,-17.7092 426.853,-24.9313 429.665,-18.5209"/>
</g>
<!-- Node8 -->
<g id="node8" class="node"><title>Node8</title>
<polygon fill="none" stroke="#bfbfbf" points="128.997,-56.5 128.997,-75.5 187.997,-75.5 187.997,-56.5 128.997,-56.5"/>
<text text-anchor="middle" x="158.497" y="-63.5" font-family="Helvetica,sans-Serif" font-size="10.00">TObject.h</text>
</g>
<!-- Node6&#45;&gt;Node8 -->
<g id="edge7" class="edge"><title>Node6&#45;&gt;Node8</title>
<path fill="none" stroke="midnightblue" d="M249.145,-112.324C231.826,-103.664 204.982,-90.2424 184.996,-80.249"/>
<polygon fill="midnightblue" stroke="midnightblue" points="186.316,-76.9962 175.806,-75.6545 183.185,-83.2572 186.316,-76.9962"/>
</g>
<!-- Node9 -->
<g id="node9" class="node"><title>Node9</title>
<polygon fill="none" stroke="#bfbfbf" points="206.497,-56.5 206.497,-75.5 322.497,-75.5 322.497,-56.5 206.497,-56.5"/>
<text text-anchor="middle" x="264.497" y="-63.5" font-family="Helvetica,sans-Serif" font-size="10.00">Common/Exceptions.h</text>
</g>
<!-- Node6&#45;&gt;Node9 -->
<g id="edge8" class="edge"><title>Node6&#45;&gt;Node9</title>
<path fill="none" stroke="midnightblue" d="M266.167,-112.083C265.905,-105.006 265.529,-94.8611 265.201,-85.9865"/>
<polygon fill="midnightblue" stroke="midnightblue" points="268.689,-85.6147 264.822,-75.7511 261.694,-85.8738 268.689,-85.6147"/>
</g>
<!-- Node10 -->
<g id="node10" class="node"><title>Node10</title>
<g id="a_node10"><a xlink:href="Quality_8h.html" target="_top" xlink:title="QualityControl/Quality.h">
<polygon fill="none" stroke="black" points="340.997,-56.5 340.997,-75.5 461.997,-75.5 461.997,-56.5 340.997,-56.5"/>
<text text-anchor="middle" x="401.497" y="-63.5" font-family="Helvetica,sans-Serif" font-size="10.00">QualityControl/Quality.h</text>
</a>
</g>
</g>
<!-- Node6&#45;&gt;Node10 -->
<g id="edge9" class="edge"><title>Node6&#45;&gt;Node10</title>
<path fill="none" stroke="midnightblue" d="M287.889,-112.444C310.205,-103.517 345.401,-89.4387 370.705,-79.3168"/>
<polygon fill="midnightblue" stroke="midnightblue" points="372.222,-82.4801 380.206,-75.5164 369.622,-75.9807 372.222,-82.4801"/>
</g>
<!-- Node10&#45;&gt;Node2 -->
<g id="edge11" class="edge"><title>Node10&#45;&gt;Node2</title>
<path fill="none" stroke="midnightblue" d="M341.761,-56.4435C260.309,-44.7767 117.414,-24.309 55.0536,-15.3767"/>
<polygon fill="midnightblue" stroke="midnightblue" points="55.4621,-11.8996 45.0669,-13.9463 54.4696,-18.8289 55.4621,-11.8996"/>
</g>
<!-- Node10&#45;&gt;Node7 -->
<g id="edge12" class="edge"><title>Node10&#45;&gt;Node7</title>
<path fill="none" stroke="midnightblue" d="M401.497,-56.083C401.497,-49.0059 401.497,-38.8611 401.497,-29.9865"/>
<polygon fill="midnightblue" stroke="midnightblue" points="404.998,-29.751 401.497,-19.7511 397.998,-29.7511 404.998,-29.751"/>
</g>
<!-- Node11 -->
<g id="node11" class="node"><title>Node11</title>
<polygon fill="none" stroke="#bfbfbf" points="186.497,-0.5 186.497,-19.5 242.497,-19.5 242.497,-0.5 186.497,-0.5"/>
<text text-anchor="middle" x="214.497" y="-7.5" font-family="Helvetica,sans-Serif" font-size="10.00">Rtypes.h</text>
</g>
<!-- Node10&#45;&gt;Node11 -->
<g id="edge10" class="edge"><title>Node10&#45;&gt;Node11</title>
<path fill="none" stroke="midnightblue" d="M371.867,-56.4435C339.622,-47.1323 287.966,-32.2155 252.697,-22.0308"/>
<polygon fill="midnightblue" stroke="midnightblue" points="253.344,-18.5748 242.765,-19.1629 251.402,-25.3 253.344,-18.5748"/>
</g>
<!-- Node12&#45;&gt;Node2 -->
<g id="edge14" class="edge"><title>Node12&#45;&gt;Node2</title>
<path fill="none" stroke="midnightblue" d="M85.8169,-112.351C74.6344,-104.146 58.5907,-90.8857 48.4975,-76 38.8024,-61.7016 32.4321,-42.9903 28.7073,-29.3167"/>
<polygon fill="midnightblue" stroke="midnightblue" points="32.101,-28.4601 26.2743,-19.6114 25.3111,-30.1623 32.101,-28.4601"/>
</g>
<!-- Node12&#45;&gt;Node7 -->
<g id="edge15" class="edge"><title>Node12&#45;&gt;Node7</title>
<path fill="none" stroke="midnightblue" d="M98.5915,-112.297C99.2501,-98.1602 102.745,-70.3491 119.497,-56 157.406,-23.5306 310.135,-14.2992 373.614,-11.8375"/>
<polygon fill="midnightblue" stroke="midnightblue" points="373.828,-15.3322 383.696,-11.4751 373.576,-8.33674 373.828,-15.3322"/>
</g>
<!-- Node12&#45;&gt;Node8 -->
<g id="edge17" class="edge"><title>Node12&#45;&gt;Node8</title>
<path fill="none" stroke="midnightblue" d="M108.138,-112.324C117.007,-104.341 130.372,-92.3128 141.105,-82.6529"/>
<polygon fill="midnightblue" stroke="midnightblue" points="143.59,-85.1251 148.682,-75.8339 138.908,-79.922 143.59,-85.1251"/>
</g>
<!-- Node12&#45;&gt;Node9 -->
<g id="edge18" class="edge"><title>Node12&#45;&gt;Node9</title>
<path fill="none" stroke="midnightblue" d="M124.801,-112.444C152.848,-103.32 197.442,-88.8133 228.682,-78.6509"/>
<polygon fill="midnightblue" stroke="midnightblue" points="229.891,-81.9383 238.317,-75.5164 227.725,-75.2816 229.891,-81.9383"/>
</g>
<!-- Node12&#45;&gt;Node11 -->
<g id="edge16" class="edge"><title>Node12&#45;&gt;Node11</title>
<path fill="none" stroke="midnightblue" d="M93.0427,-112.118C85.5828,-98.7055 74.4243,-73.0421 86.4975,-56 106.656,-27.5444 146.307,-16.9511 176.163,-13.0771"/>
<polygon fill="midnightblue" stroke="midnightblue" points="176.708,-16.5384 186.267,-11.9687 175.945,-9.58009 176.708,-16.5384"/>
</g>
</g>
</svg>
        <g id="navigator" transform="translate(0 0)" fill="#404254">
                <rect fill="#f2f5e9" fill-opacity="0.5" stroke="#606060" stroke-width=".5" x="0" y="0" width="60" height="60"/>
                <use id="zoomplus" xlink:href="#zoomPlus" x="17" y="9" onmousedown="handleZoom(evt,'in')"/>
                <use id="zoomminus" xlink:href="#zoomMin" x="42" y="9" onmousedown="handleZoom(evt,'out')"/>
                <use id="reset" xlink:href="#resetDef" x="30" y="36" onmousedown="handleReset()"/>
                <g id="arrowUp" xlink:href="#dirArrow" transform="translate(30 24)" onmousedown="handlePan(0,-1)">
                  <use xlink:href="#rim" fill="#404040">
                        <set attributeName="fill" to="#808080" begin="arrowUp.mouseover" end="arrowUp.mouseout"/>
                  </use>
                  <path fill="none" stroke="white" stroke-width="1.5" d="M0,-3.0v7 M-2.5,-0.5L0,-3.0L2.5,-0.5"/>
                </g>
                <g id="arrowRight" xlink:href="#dirArrow" transform="rotate(90) translate(36 -43)" onmousedown="handlePan(1,0)">
                  <use xlink:href="#rim" fill="#404040">
                        <set attributeName="fill" to="#808080" begin="arrowRight.mouseover" end="arrowRight.mouseout"/>
                  </use>
                  <path fill="none" stroke="white" stroke-width="1.5" d="M0,-3.0v7 M-2.5,-0.5L0,-3.0L2.5,-0.5"/>
                </g>
                <g id="arrowDown" xlink:href="#dirArrow" transform="rotate(180) translate(-30 -48)" onmousedown="handlePan(0,1)">
                  <use xlink:href="#rim" fill="#404040">
                        <set attributeName="fill" to="#808080" begin="arrowDown.mouseover" end="arrowDown.mouseout"/>
                  </use>
                  <path fill="none" stroke="white" stroke-width="1.5" d="M0,-3.0v7 M-2.5,-0.5L0,-3.0L2.5,-0.5"/>
                </g>
                <g id="arrowLeft" xlink:href="#dirArrow" transform="rotate(270) translate(-36 17)" onmousedown="handlePan(-1,0)">
                  <use xlink:href="#rim" fill="#404040">
                        <set attributeName="fill" to="#808080" begin="arrowLeft.mouseover" end="arrowLeft.mouseout"/>
                  </use>
                  <path fill="none" stroke="white" stroke-width="1.5" d="M0,-3.0v7 M-2.5,-0.5L0,-3.0L2.5,-0.5"/>
                </g>
        </g>
        <svg viewBox="0 0 15 15" width="100%" height="30px" preserveAspectRatio="xMaxYMin meet">
         <g id="arrow_out" transform="scale(0.3 0.3)">
          <a xlink:href="DatabaseInterface_8h__incl_org.svg" target="_base">
           <rect id="button" ry="5" rx="5" y="6" x="6" height="38" width="38"
                fill="#f2f5e9" fill-opacity="0.5" stroke="#606060" stroke-width="1.0"/>
           <path id="arrow"
             d="M 11.500037,31.436501 C 11.940474,20.09759 22.043105,11.32322 32.158766,21.979434 L 37.068811,17.246167 C 37.068811,17.246167 37.088388,32 37.088388,32 L 22.160133,31.978069 C 22.160133,31.978069 26.997745,27.140456 26.997745,27.140456 C 18.528582,18.264221 13.291696,25.230495 11.500037,31.436501 z"
             style="fill:#404040;"/>
          </a>
         </g>
        </svg>
</svg>
