<?xml version="1.0" encoding="UTF-8" standalone="no"?>
<!DOCTYPE svg PUBLIC "-//W3C//DTD SVG 1.1//EN"
 "http://www.w3.org/Graphics/SVG/1.1/DTD/svg11.dtd">
<!-- Generated by graphviz version 2.38.0 (20140413.2041)
 -->
<!-- Title: Framework/include/QualityControl/DummyDatabase.h Pages: 1 -->
<!--zoomable 263 -->
<svg id="main" version="1.1" xmlns="http://www.w3.org/2000/svg" xmlns:xlink="http://www.w3.org/1999/xlink" xml:space="preserve" onload="init(evt)">
<style type="text/css"><![CDATA[
.edge:hover path { stroke: red; }
.edge:hover polygon { stroke: red; fill: red; }
]]></style>
<script type="text/javascript"><![CDATA[
var edges = document.getElementsByTagName('g');
if (edges && edges.length) {
  for (var i=0;i<edges.length;i++) {
    if (edges[i].id.substr(0,4)=='edge') {
      edges[i].setAttribute('class','edge');
    }
  }
}
]]></script>
        <defs>
                <circle id="rim" cx="0" cy="0" r="7"/>
                <circle id="rim2" cx="0" cy="0" r="3.5"/>
                <g id="zoomPlus">
                        <use xlink:href="#rim" fill="#404040">
                                <set attributeName="fill" to="#808080" begin="zoomplus.mouseover" end="zoomplus.mouseout"/>
                        </use>
                        <path d="M-4,0h8M0,-4v8" fill="none" stroke="white" stroke-width="1.5" pointer-events="none"/>
                </g>
                <g id="zoomMin">
                        <use xlink:href="#rim" fill="#404040">
                                <set attributeName="fill" to="#808080" begin="zoomminus.mouseover" end="zoomminus.mouseout"/>
                        </use>
                        <path d="M-4,0h8" fill="none" stroke="white" stroke-width="1.5" pointer-events="none"/>
                </g>
                <g id="dirArrow">
                        <path fill="none" stroke="white" stroke-width="1.5" d="M0,-3.0v7 M-2.5,-0.5L0,-3.0L2.5,-0.5"/>
                </g>
               <g id="resetDef">
                       <use xlink:href="#rim2" fill="#404040">
                               <set attributeName="fill" to="#808080" begin="reset.mouseover" end="reset.mouseout"/>
                       </use>
               </g>
        </defs>

<script type="text/javascript">
var viewWidth = 582;
var viewHeight = 263;
var sectionId = 'dynsection-0';
</script>
<script xlink:href="svgpan.js"/>
<svg id="graph" class="graph">
<g id="viewport">
<title>Framework/include/QualityControl/DummyDatabase.h</title>
<!-- Node1 -->
<g id="node1" class="node"><title>Node1</title>
<polygon fill="#bfbfbf" stroke="black" points="257.656,-224.5 257.656,-254.5 393.656,-254.5 393.656,-224.5 257.656,-224.5"/>
<text text-anchor="start" x="265.656" y="-242.5" font-family="Helvetica,sans-Serif" font-size="10.00">Framework/include/Quality</text>
<text text-anchor="middle" x="325.656" y="-231.5" font-family="Helvetica,sans-Serif" font-size="10.00">Control/DummyDatabase.h</text>
</g>
<!-- Node2 -->
<g id="node2" class="node"><title>Node2</title>
<g id="a_node2"><a xlink:href="DatabaseInterface_8h.html" target="_top" xlink:title="QualityControl/DatabaseInterface.h">
<polygon fill="none" stroke="black" points="240.656,-168.5 240.656,-187.5 410.656,-187.5 410.656,-168.5 240.656,-168.5"/>
<text text-anchor="middle" x="325.656" y="-175.5" font-family="Helvetica,sans-Serif" font-size="10.00">QualityControl/DatabaseInterface.h</text>
</a>
</g>
</g>
<!-- Node1&#45;&gt;Node2 -->
<g id="edge1" class="edge"><title>Node1&#45;&gt;Node2</title>
<path fill="none" stroke="midnightblue" d="M325.656,-224.399C325.656,-216.466 325.656,-206.458 325.656,-197.858"/>
<polygon fill="midnightblue" stroke="midnightblue" points="329.156,-197.658 325.656,-187.658 322.156,-197.658 329.156,-197.658"/>
</g>
<!-- Node3 -->
<g id="node3" class="node"><title>Node3</title>
<polygon fill="none" stroke="#bfbfbf" points="4.15616,-0.5 4.15616,-19.5 45.1562,-19.5 45.1562,-0.5 4.15616,-0.5"/>
<text text-anchor="middle" x="24.6562" y="-7.5" font-family="Helvetica,sans-Serif" font-size="10.00">string</text>
</g>
<!-- Node2&#45;&gt;Node3 -->
<g id="edge2" class="edge"><title>Node2&#45;&gt;Node3</title>
<path fill="none" stroke="midnightblue" d="M240.564,-176.766C158.466,-174.514 42.4989,-165.301 13.6562,-132 -11.2258,-103.272 4.36554,-55.0447 15.7843,-28.9962"/>
<polygon fill="midnightblue" stroke="midnightblue" points="19.1097,-30.1453 20.1497,-19.6016 12.7616,-27.1955 19.1097,-30.1453"/>
</g>
<!-- Node4 -->
<g id="node4" class="node"><title>Node4</title>
<polygon fill="none" stroke="#bfbfbf" points="358.656,-112.5 358.656,-131.5 410.656,-131.5 410.656,-112.5 358.656,-112.5"/>
<text text-anchor="middle" x="384.656" y="-119.5" font-family="Helvetica,sans-Serif" font-size="10.00">memory</text>
</g>
<!-- Node2&#45;&gt;Node4 -->
<g id="edge3" class="edge"><title>Node2&#45;&gt;Node4</title>
<path fill="none" stroke="midnightblue" d="M335.136,-168.324C343.857,-160.341 357,-148.313 367.554,-138.653"/>
<polygon fill="midnightblue" stroke="midnightblue" points="369.991,-141.167 375.004,-131.834 365.264,-136.004 369.991,-141.167"/>
</g>
<!-- Node5 -->
<g id="node5" class="node"><title>Node5</title>
<polygon fill="none" stroke="#bfbfbf" points="428.656,-112.5 428.656,-131.5 472.656,-131.5 472.656,-112.5 428.656,-112.5"/>
<text text-anchor="middle" x="450.656" y="-119.5" font-family="Helvetica,sans-Serif" font-size="10.00">vector</text>
</g>
<!-- Node2&#45;&gt;Node5 -->
<g id="edge4" class="edge"><title>Node2&#45;&gt;Node5</title>
<path fill="none" stroke="midnightblue" d="M345.463,-168.444C365.943,-159.596 398.139,-145.687 421.521,-135.586"/>
<polygon fill="midnightblue" stroke="midnightblue" points="423.15,-138.695 430.942,-131.516 420.374,-132.269 423.15,-138.695"/>
</g>
<!-- Node6 -->
<g id="node6" class="node"><title>Node6</title>
<polygon fill="none" stroke="#bfbfbf" points="491.156,-112.5 491.156,-131.5 574.156,-131.5 574.156,-112.5 491.156,-112.5"/>
<text text-anchor="middle" x="532.656" y="-119.5" font-family="Helvetica,sans-Serif" font-size="10.00">unordered_map</text>
</g>
<!-- Node2&#45;&gt;Node6 -->
<g id="edge5" class="edge"><title>Node2&#45;&gt;Node6</title>
<path fill="none" stroke="midnightblue" d="M358.456,-168.444C394.037,-159.162 450.971,-144.309 490.003,-134.127"/>
<polygon fill="midnightblue" stroke="midnightblue" points="491.217,-137.427 500.01,-131.516 489.45,-130.654 491.217,-137.427"/>
</g>
<!-- Node7 -->
<g id="node7" class="node"><title>Node7</title>
<g id="a_node7"><a xlink:href="QualityObject_8h_source.html" target="_top" xlink:title="QualityControl/QualityObject.h">
<polygon fill="none" stroke="black" points="192.156,-112.5 192.156,-131.5 341.156,-131.5 341.156,-112.5 192.156,-112.5"/>
<text text-anchor="middle" x="266.656" y="-119.5" font-family="Helvetica,sans-Serif" font-size="10.00">QualityControl/QualityObject.h</text>
</a>
</g>
</g>
<!-- Node2&#45;&gt;Node7 -->
<g id="edge6" class="edge"><title>Node2&#45;&gt;Node7</title>
<path fill="none" stroke="midnightblue" d="M316.177,-168.324C307.455,-160.341 294.313,-148.313 283.758,-138.653"/>
<polygon fill="midnightblue" stroke="midnightblue" points="286.048,-136.004 276.308,-131.834 281.322,-141.167 286.048,-136.004"/>
</g>
<!-- Node13 -->
<g id="node13" class="node"><title>Node13</title>
<g id="a_node13"><a xlink:href="MonitorObject_8h.html" target="_top" xlink:title="QualityControl/MonitorObject.h">
<polygon fill="none" stroke="black" points="23.1562,-112.5 23.1562,-131.5 174.156,-131.5 174.156,-112.5 23.1562,-112.5"/>
<text text-anchor="middle" x="98.6562" y="-119.5" font-family="Helvetica,sans-Serif" font-size="10.00">QualityControl/MonitorObject.h</text>
</a>
</g>
</g>
<!-- Node2&#45;&gt;Node13 -->
<g id="edge14" class="edge"><title>Node2&#45;&gt;Node13</title>
<path fill="none" stroke="midnightblue" d="M289.687,-168.444C250.337,-159.083 187.17,-144.056 144.342,-133.868"/>
<polygon fill="midnightblue" stroke="midnightblue" points="144.995,-130.426 134.457,-131.516 143.375,-137.236 144.995,-130.426"/>
</g>
<!-- Node8 -->
<g id="node8" class="node"><title>Node8</title>
<polygon fill="none" stroke="#bfbfbf" points="384.156,-0.5 384.156,-19.5 419.156,-19.5 419.156,-0.5 384.156,-0.5"/>
<text text-anchor="middle" x="401.656" y="-7.5" font-family="Helvetica,sans-Serif" font-size="10.00">map</text>
</g>
<!-- Node7&#45;&gt;Node8 -->
<g id="edge7" class="edge"><title>Node7&#45;&gt;Node8</title>
<path fill="none" stroke="midnightblue" d="M322.119,-112.467C379.548,-103.067 462.222,-87.73 471.656,-76 488.782,-54.7074 454.866,-33.8977 428.517,-21.7695"/>
<polygon fill="midnightblue" stroke="midnightblue" points="429.824,-18.5209 419.26,-17.7092 427.012,-24.9313 429.824,-18.5209"/>
</g>
<!-- Node9 -->
<g id="node9" class="node"><title>Node9</title>
<polygon fill="none" stroke="#bfbfbf" points="129.156,-56.5 129.156,-75.5 188.156,-75.5 188.156,-56.5 129.156,-56.5"/>
<text text-anchor="middle" x="158.656" y="-63.5" font-family="Helvetica,sans-Serif" font-size="10.00">TObject.h</text>
</g>
<!-- Node7&#45;&gt;Node9 -->
<g id="edge8" class="edge"><title>Node7&#45;&gt;Node9</title>
<path fill="none" stroke="midnightblue" d="M249.304,-112.324C231.984,-103.664 205.141,-90.2424 185.154,-80.249"/>
<polygon fill="midnightblue" stroke="midnightblue" points="186.475,-76.9962 175.965,-75.6545 183.344,-83.2572 186.475,-76.9962"/>
</g>
<!-- Node10 -->
<g id="node10" class="node"><title>Node10</title>
<polygon fill="none" stroke="#bfbfbf" points="206.656,-56.5 206.656,-75.5 322.656,-75.5 322.656,-56.5 206.656,-56.5"/>
<text text-anchor="middle" x="264.656" y="-63.5" font-family="Helvetica,sans-Serif" font-size="10.00">Common/Exceptions.h</text>
</g>
<!-- Node7&#45;&gt;Node10 -->
<g id="edge9" class="edge"><title>Node7&#45;&gt;Node10</title>
<path fill="none" stroke="midnightblue" d="M266.326,-112.083C266.064,-105.006 265.688,-94.8611 265.359,-85.9865"/>
<polygon fill="midnightblue" stroke="midnightblue" points="268.848,-85.6147 264.98,-75.7511 261.853,-85.8738 268.848,-85.6147"/>
</g>
<!-- Node11 -->
<g id="node11" class="node"><title>Node11</title>
<g id="a_node11"><a xlink:href="Quality_8h.html" target="_top" xlink:title="QualityControl/Quality.h">
<polygon fill="none" stroke="black" points="341.156,-56.5 341.156,-75.5 462.156,-75.5 462.156,-56.5 341.156,-56.5"/>
<text text-anchor="middle" x="401.656" y="-63.5" font-family="Helvetica,sans-Serif" font-size="10.00">QualityControl/Quality.h</text>
</a>
</g>
</g>
<!-- Node7&#45;&gt;Node11 -->
<g id="edge10" class="edge"><title>Node7&#45;&gt;Node11</title>
<path fill="none" stroke="midnightblue" d="M288.047,-112.444C310.363,-103.517 345.559,-89.4387 370.864,-79.3168"/>
<polygon fill="midnightblue" stroke="midnightblue" points="372.38,-82.4801 380.365,-75.5164 369.78,-75.9807 372.38,-82.4801"/>
</g>
<!-- Node11&#45;&gt;Node3 -->
<g id="edge12" class="edge"><title>Node11&#45;&gt;Node3</title>
<path fill="none" stroke="midnightblue" d="M341.919,-56.4435C260.467,-44.7767 117.573,-24.309 55.2123,-15.3767"/>
<polygon fill="midnightblue" stroke="midnightblue" points="55.6208,-11.8996 45.2256,-13.9463 54.6283,-18.8289 55.6208,-11.8996"/>
</g>
<!-- Node11&#45;&gt;Node8 -->
<g id="edge13" class="edge"><title>Node11&#45;&gt;Node8</title>
<path fill="none" stroke="midnightblue" d="M401.656,-56.083C401.656,-49.0059 401.656,-38.8611 401.656,-29.9865"/>
<polygon fill="midnightblue" stroke="midnightblue" points="405.156,-29.751 401.656,-19.7511 398.156,-29.7511 405.156,-29.751"/>
</g>
<!-- Node12 -->
<g id="node12" class="node"><title>Node12</title>
<polygon fill="none" stroke="#bfbfbf" points="186.656,-0.5 186.656,-19.5 242.656,-19.5 242.656,-0.5 186.656,-0.5"/>
<text text-anchor="middle" x="214.656" y="-7.5" font-family="Helvetica,sans-Serif" font-size="10.00">Rtypes.h</text>
</g>
<!-- Node11&#45;&gt;Node12 -->
<g id="edge11" class="edge"><title>Node11&#45;&gt;Node12</title>
<path fill="none" stroke="midnightblue" d="M372.025,-56.4435C339.781,-47.1323 288.125,-32.2155 252.855,-22.0308"/>
<polygon fill="midnightblue" stroke="midnightblue" points="253.503,-18.5748 242.924,-19.1629 251.561,-25.3 253.503,-18.5748"/>
</g>
<!-- Node13&#45;&gt;Node3 -->
<g id="edge15" class="edge"><title>Node13&#45;&gt;Node3</title>
<path fill="none" stroke="midnightblue" d="M85.9756,-112.351C74.7931,-104.146 58.7494,-90.8857 48.6562,-76 38.9611,-61.7016 32.5908,-42.9903 28.866,-29.3167"/>
<polygon fill="midnightblue" stroke="midnightblue" points="32.2597,-28.4601 26.433,-19.6114 25.4698,-30.1623 32.2597,-28.4601"/>
</g>
<!-- Node13&#45;&gt;Node8 -->
<g id="edge16" class="edge"><title>Node13&#45;&gt;Node8</title>
<path fill="none" stroke="midnightblue" d="M98.7502,-112.297C99.4088,-98.1602 102.904,-70.3491 119.656,-56 157.564,-23.5306 310.294,-14.2992 373.773,-11.8375"/>
<polygon fill="midnightblue" stroke="midnightblue" points="373.987,-15.3322 383.855,-11.4751 373.735,-8.33674 373.987,-15.3322"/>
</g>
<!-- Node13&#45;&gt;Node9 -->
<g id="edge18" class="edge"><title>Node13&#45;&gt;Node9</title>
<path fill="none" stroke="midnightblue" d="M108.296,-112.324C117.166,-104.341 130.531,-92.3128 141.264,-82.6529"/>
<polygon fill="midnightblue" stroke="midnightblue" points="143.749,-85.1251 148.841,-75.8339 139.066,-79.922 143.749,-85.1251"/>
</g>
<!-- Node13&#45;&gt;Node10 -->
<g id="edge19" class="edge"><title>Node13&#45;&gt;Node10</title>
<path fill="none" stroke="midnightblue" d="M124.959,-112.444C153.007,-103.32 197.601,-88.8133 228.84,-78.6509"/>
<polygon fill="midnightblue" stroke="midnightblue" points="230.049,-81.9383 238.476,-75.5164 227.884,-75.2816 230.049,-81.9383"/>
</g>
<!-- Node13&#45;&gt;Node12 -->
<g id="edge17" class="edge"><title>Node13&#45;&gt;Node12</title>
<path fill="none" stroke="midnightblue" d="M93.2014,-112.118C85.7415,-98.7055 74.583,-73.0421 86.6562,-56 106.815,-27.5444 146.465,-16.9511 176.322,-13.0771"/>
<polygon fill="midnightblue" stroke="midnightblue" points="176.867,-16.5384 186.426,-11.9687 176.104,-9.58009 176.867,-16.5384"/>
</g>
</g>
</svg>
        <g id="navigator" transform="translate(0 0)" fill="#404254">
                <rect fill="#f2f5e9" fill-opacity="0.5" stroke="#606060" stroke-width=".5" x="0" y="0" width="60" height="60"/>
                <use id="zoomplus" xlink:href="#zoomPlus" x="17" y="9" onmousedown="handleZoom(evt,'in')"/>
                <use id="zoomminus" xlink:href="#zoomMin" x="42" y="9" onmousedown="handleZoom(evt,'out')"/>
                <use id="reset" xlink:href="#resetDef" x="30" y="36" onmousedown="handleReset()"/>
                <g id="arrowUp" xlink:href="#dirArrow" transform="translate(30 24)" onmousedown="handlePan(0,-1)">
                  <use xlink:href="#rim" fill="#404040">
                        <set attributeName="fill" to="#808080" begin="arrowUp.mouseover" end="arrowUp.mouseout"/>
                  </use>
                  <path fill="none" stroke="white" stroke-width="1.5" d="M0,-3.0v7 M-2.5,-0.5L0,-3.0L2.5,-0.5"/>
                </g>
                <g id="arrowRight" xlink:href="#dirArrow" transform="rotate(90) translate(36 -43)" onmousedown="handlePan(1,0)">
                  <use xlink:href="#rim" fill="#404040">
                        <set attributeName="fill" to="#808080" begin="arrowRight.mouseover" end="arrowRight.mouseout"/>
                  </use>
                  <path fill="none" stroke="white" stroke-width="1.5" d="M0,-3.0v7 M-2.5,-0.5L0,-3.0L2.5,-0.5"/>
                </g>
                <g id="arrowDown" xlink:href="#dirArrow" transform="rotate(180) translate(-30 -48)" onmousedown="handlePan(0,1)">
                  <use xlink:href="#rim" fill="#404040">
                        <set attributeName="fill" to="#808080" begin="arrowDown.mouseover" end="arrowDown.mouseout"/>
                  </use>
                  <path fill="none" stroke="white" stroke-width="1.5" d="M0,-3.0v7 M-2.5,-0.5L0,-3.0L2.5,-0.5"/>
                </g>
                <g id="arrowLeft" xlink:href="#dirArrow" transform="rotate(270) translate(-36 17)" onmousedown="handlePan(-1,0)">
                  <use xlink:href="#rim" fill="#404040">
                        <set attributeName="fill" to="#808080" begin="arrowLeft.mouseover" end="arrowLeft.mouseout"/>
                  </use>
                  <path fill="none" stroke="white" stroke-width="1.5" d="M0,-3.0v7 M-2.5,-0.5L0,-3.0L2.5,-0.5"/>
                </g>
        </g>
        <svg viewBox="0 0 15 15" width="100%" height="30px" preserveAspectRatio="xMaxYMin meet">
         <g id="arrow_out" transform="scale(0.3 0.3)">
          <a xlink:href="DummyDatabase_8h__incl_org.svg" target="_base">
           <rect id="button" ry="5" rx="5" y="6" x="6" height="38" width="38"
                fill="#f2f5e9" fill-opacity="0.5" stroke="#606060" stroke-width="1.0"/>
           <path id="arrow"
             d="M 11.500037,31.436501 C 11.940474,20.09759 22.043105,11.32322 32.158766,21.979434 L 37.068811,17.246167 C 37.068811,17.246167 37.088388,32 37.088388,32 L 22.160133,31.978069 C 22.160133,31.978069 26.997745,27.140456 26.997745,27.140456 C 18.528582,18.264221 13.291696,25.230495 11.500037,31.436501 z"
             style="fill:#404040;"/>
          </a>
         </g>
        </svg>
</svg>
