<?xml version="1.0" encoding="UTF-8" standalone="no"?>
<!DOCTYPE svg PUBLIC "-//W3C//DTD SVG 1.1//EN"
 "http://www.w3.org/Graphics/SVG/1.1/DTD/svg11.dtd">
<!-- Generated by graphviz version 2.38.0 (20140413.2041)
 -->
<!-- Title: Modules/Daq/src/EverIncreasingGraph.cxx Pages: 1 -->
<svg width="910pt" height="263pt"
 viewBox="0.00 0.00 910.00 263.00" xmlns="http://www.w3.org/2000/svg" xmlns:xlink="http://www.w3.org/1999/xlink">
<g id="graph0" class="graph" transform="scale(1 1) rotate(0) translate(4 259)">
<title>Modules/Daq/src/EverIncreasingGraph.cxx</title>
<!-- Node1 -->
<g id="node1" class="node"><title>Node1</title>
<polygon fill="#bfbfbf" stroke="black" points="514,-224.5 514,-254.5 673,-254.5 673,-224.5 514,-224.5"/>
<text text-anchor="start" x="522" y="-242.5" font-family="Helvetica,sans-Serif" font-size="10.00">Modules/Daq/src/EverIncreasing</text>
<text text-anchor="middle" x="593.5" y="-231.5" font-family="Helvetica,sans-Serif" font-size="10.00">Graph.cxx</text>
</g>
<!-- Node2 -->
<g id="node2" class="node"><title>Node2</title>
<g id="a_node2"><a xlink:href="EverIncreasingGraph_8h.html" target="_top" xlink:title="Daq/EverIncreasingGraph.h">
<polygon fill="none" stroke="black" points="304,-168.5 304,-187.5 441,-187.5 441,-168.5 304,-168.5"/>
<text text-anchor="middle" x="372.5" y="-175.5" font-family="Helvetica,sans-Serif" font-size="10.00">Daq/EverIncreasingGraph.h</text>
</a>
</g>
</g>
<!-- Node1&#45;&gt;Node2 -->
<g id="edge1" class="edge"><title>Node1&#45;&gt;Node2</title>
<path fill="none" stroke="midnightblue" d="M541.406,-224.475C502.446,-213.986 449.894,-199.837 413.811,-190.122"/>
<polygon fill="midnightblue" stroke="midnightblue" points="414.661,-186.727 404.095,-187.506 412.841,-193.486 414.661,-186.727"/>
</g>
<!-- Node8 -->
<g id="node8" class="node"><title>Node8</title>
<g id="a_node8"><a xlink:href="MonitorObject_8h.html" target="_top" xlink:title="QualityControl/MonitorObject.h">
<polygon fill="none" stroke="black" points="56,-56.5 56,-75.5 207,-75.5 207,-56.5 56,-56.5"/>
<text text-anchor="middle" x="131.5" y="-63.5" font-family="Helvetica,sans-Serif" font-size="10.00">QualityControl/MonitorObject.h</text>
</a>
</g>
</g>
<!-- Node1&#45;&gt;Node8 -->
<g id="edge17" class="edge"><title>Node1&#45;&gt;Node8</title>
<path fill="none" stroke="midnightblue" d="M513.836,-237.195C448.091,-233.478 353.723,-221.938 278.5,-188 222.222,-162.609 169.811,-109.855 145.585,-83.1842"/>
<polygon fill="midnightblue" stroke="midnightblue" points="148.008,-80.643 138.74,-75.5093 142.784,-85.3021 148.008,-80.643"/>
</g>
<!-- Node11 -->
<g id="node11" class="node"><title>Node11</title>
<g id="a_node11"><a xlink:href="Quality_8h.html" target="_top" xlink:title="QualityControl/Quality.h">
<polygon fill="none" stroke="black" points="264,-56.5 264,-75.5 385,-75.5 385,-56.5 264,-56.5"/>
<text text-anchor="middle" x="324.5" y="-63.5" font-family="Helvetica,sans-Serif" font-size="10.00">QualityControl/Quality.h</text>
</a>
</g>
</g>
<!-- Node1&#45;&gt;Node11 -->
<g id="edge18" class="edge"><title>Node1&#45;&gt;Node11</title>
<path fill="none" stroke="midnightblue" d="M513.875,-235.738C435.495,-231.216 323.45,-219.309 294.5,-188 271.519,-163.146 278.514,-144.019 289.5,-112 293.219,-101.161 300.733,-90.9216 307.849,-82.9566"/>
<polygon fill="midnightblue" stroke="midnightblue" points="310.554,-85.1922 314.944,-75.5497 305.499,-80.3498 310.554,-85.1922"/>
</g>
<!-- Node12 -->
<g id="node12" class="node"><title>Node12</title>
<g id="a_node12"><a xlink:href="QcInfoLogger_8h.html" target="_top" xlink:title="QualityControl/QcInfoLogger.h">
<polygon fill="none" stroke="black" points="459,-168.5 459,-187.5 608,-187.5 608,-168.5 459,-168.5"/>
<text text-anchor="middle" x="533.5" y="-175.5" font-family="Helvetica,sans-Serif" font-size="10.00">QualityControl/QcInfoLogger.h</text>
</a>
</g>
</g>
<!-- Node1&#45;&gt;Node12 -->
<g id="edge19" class="edge"><title>Node1&#45;&gt;Node12</title>
<path fill="none" stroke="midnightblue" d="M579.281,-224.399C570.292,-215.486 558.662,-203.952 549.373,-194.741"/>
<polygon fill="midnightblue" stroke="midnightblue" points="551.796,-192.214 542.231,-187.658 546.867,-197.184 551.796,-192.214"/>
</g>
<!-- Node14 -->
<g id="node14" class="node"><title>Node14</title>
<polygon fill="none" stroke="#bfbfbf" points="626,-168.5 626,-187.5 683,-187.5 683,-168.5 626,-168.5"/>
<text text-anchor="middle" x="654.5" y="-175.5" font-family="Helvetica,sans-Serif" font-size="10.00">TGraph.h</text>
</g>
<!-- Node1&#45;&gt;Node14 -->
<g id="edge21" class="edge"><title>Node1&#45;&gt;Node14</title>
<path fill="none" stroke="midnightblue" d="M607.956,-224.399C617.094,-215.486 628.919,-203.952 638.362,-194.741"/>
<polygon fill="midnightblue" stroke="midnightblue" points="640.909,-197.146 645.624,-187.658 636.022,-192.135 640.909,-197.146"/>
</g>
<!-- Node15 -->
<g id="node15" class="node"><title>Node15</title>
<polygon fill="none" stroke="#bfbfbf" points="701.5,-168.5 701.5,-187.5 745.5,-187.5 745.5,-168.5 701.5,-168.5"/>
<text text-anchor="middle" x="723.5" y="-175.5" font-family="Helvetica,sans-Serif" font-size="10.00">TH1.h</text>
</g>
<!-- Node1&#45;&gt;Node15 -->
<g id="edge22" class="edge"><title>Node1&#45;&gt;Node15</title>
<path fill="none" stroke="midnightblue" d="M624.308,-224.399C645.828,-214.55 674.337,-201.501 695.268,-191.922"/>
<polygon fill="midnightblue" stroke="midnightblue" points="696.948,-195.002 704.584,-187.658 694.034,-188.637 696.948,-195.002"/>
</g>
<!-- Node16 -->
<g id="node16" class="node"><title>Node16</title>
<polygon fill="none" stroke="#bfbfbf" points="764,-168.5 764,-187.5 811,-187.5 811,-168.5 764,-168.5"/>
<text text-anchor="middle" x="787.5" y="-175.5" font-family="Helvetica,sans-Serif" font-size="10.00">TList.h</text>
</g>
<!-- Node1&#45;&gt;Node16 -->
<g id="edge23" class="edge"><title>Node1&#45;&gt;Node16</title>
<path fill="none" stroke="midnightblue" d="M639.475,-224.399C674.761,-213.577 722.64,-198.893 754.272,-189.191"/>
<polygon fill="midnightblue" stroke="midnightblue" points="755.4,-192.506 763.934,-186.228 753.348,-185.814 755.4,-192.506"/>
</g>
<!-- Node17 -->
<g id="node17" class="node"><title>Node17</title>
<polygon fill="none" stroke="#bfbfbf" points="829,-168.5 829,-187.5 902,-187.5 902,-168.5 829,-168.5"/>
<text text-anchor="middle" x="865.5" y="-175.5" font-family="Helvetica,sans-Serif" font-size="10.00">TPaveText.h</text>
</g>
<!-- Node1&#45;&gt;Node17 -->
<g id="edge24" class="edge"><title>Node1&#45;&gt;Node17</title>
<path fill="none" stroke="midnightblue" d="M657.616,-224.475C707.157,-213.637 774.558,-198.894 819.01,-189.17"/>
<polygon fill="midnightblue" stroke="midnightblue" points="819.939,-192.549 828.96,-186.993 818.443,-185.711 819.939,-192.549"/>
</g>
<!-- Node3 -->
<g id="node3" class="node"><title>Node3</title>
<g id="a_node3"><a xlink:href="CheckInterface_8h.html" target="_top" xlink:title="QualityControl/CheckInterface.h">
<polygon fill="none" stroke="black" points="299,-112.5 299,-131.5 456,-131.5 456,-112.5 299,-112.5"/>
<text text-anchor="middle" x="377.5" y="-119.5" font-family="Helvetica,sans-Serif" font-size="10.00">QualityControl/CheckInterface.h</text>
</a>
</g>
</g>
<!-- Node2&#45;&gt;Node3 -->
<g id="edge2" class="edge"><title>Node2&#45;&gt;Node3</title>
<path fill="none" stroke="midnightblue" d="M373.326,-168.083C373.981,-161.006 374.92,-150.861 375.742,-141.986"/>
<polygon fill="midnightblue" stroke="midnightblue" points="379.253,-142.031 376.69,-131.751 372.283,-141.386 379.253,-142.031"/>
</g>
<!-- Node4 -->
<g id="node4" class="node"><title>Node4</title>
<polygon fill="none" stroke="#bfbfbf" points="215,-0.5 215,-19.5 256,-19.5 256,-0.5 215,-0.5"/>
<text text-anchor="middle" x="235.5" y="-7.5" font-family="Helvetica,sans-Serif" font-size="10.00">string</text>
</g>
<!-- Node3&#45;&gt;Node4 -->
<g id="edge3" class="edge"><title>Node3&#45;&gt;Node4</title>
<path fill="none" stroke="midnightblue" d="M322.923,-112.461C299.003,-106.113 272.367,-95.0933 254.5,-76 242.837,-63.5363 238.292,-44.3029 236.542,-29.9874"/>
<polygon fill="midnightblue" stroke="midnightblue" points="240.008,-29.4438 235.656,-19.7843 233.034,-30.0497 240.008,-29.4438"/>
</g>
<!-- Node5 -->
<g id="node5" class="node"><title>Node5</title>
<polygon fill="none" stroke="#bfbfbf" points="290,-0.5 290,-19.5 325,-19.5 325,-0.5 290,-0.5"/>
<text text-anchor="middle" x="307.5" y="-7.5" font-family="Helvetica,sans-Serif" font-size="10.00">map</text>
</g>
<!-- Node3&#45;&gt;Node5 -->
<g id="edge4" class="edge"><title>Node3&#45;&gt;Node5</title>
<path fill="none" stroke="midnightblue" d="M425.499,-112.411C467.175,-102.823 517.508,-84.7595 494.5,-56 450.923,-1.52898 408.523,-36.2516 335.206,-19.7129"/>
<polygon fill="midnightblue" stroke="midnightblue" points="335.694,-16.226 325.14,-17.1625 333.974,-23.0116 335.694,-16.226"/>
</g>
<!-- Node6 -->
<g id="node6" class="node"><title>Node6</title>
<polygon fill="none" stroke="#bfbfbf" points="403,-56.5 403,-75.5 486,-75.5 486,-56.5 403,-56.5"/>
<text text-anchor="middle" x="444.5" y="-63.5" font-family="Helvetica,sans-Serif" font-size="10.00">unordered_map</text>
</g>
<!-- Node3&#45;&gt;Node6 -->
<g id="edge5" class="edge"><title>Node3&#45;&gt;Node6</title>
<path fill="none" stroke="midnightblue" d="M388.265,-112.324C398.266,-104.263 413.387,-92.0765 425.43,-82.3695"/>
<polygon fill="midnightblue" stroke="midnightblue" points="427.95,-84.8343 433.539,-75.8339 423.557,-79.3841 427.95,-84.8343"/>
</g>
<!-- Node7 -->
<g id="node7" class="node"><title>Node7</title>
<polygon fill="none" stroke="#bfbfbf" points="343.5,-0.5 343.5,-19.5 399.5,-19.5 399.5,-0.5 343.5,-0.5"/>
<text text-anchor="middle" x="371.5" y="-7.5" font-family="Helvetica,sans-Serif" font-size="10.00">Rtypes.h</text>
</g>
<!-- Node3&#45;&gt;Node7 -->
<g id="edge6" class="edge"><title>Node3&#45;&gt;Node7</title>
<path fill="none" stroke="midnightblue" d="M456.2,-112.89C504.453,-104.592 552.72,-88.1379 528.5,-56 514.223,-37.056 451.541,-23.6521 409.827,-16.6388"/>
<polygon fill="midnightblue" stroke="midnightblue" points="410.148,-13.1451 399.715,-14.994 409.024,-20.0543 410.148,-13.1451"/>
</g>
<!-- Node3&#45;&gt;Node8 -->
<g id="edge7" class="edge"><title>Node3&#45;&gt;Node8</title>
<path fill="none" stroke="midnightblue" d="M338.521,-112.444C295.606,-103.023 226.554,-87.8656 180.131,-77.6752"/>
<polygon fill="midnightblue" stroke="midnightblue" points="180.815,-74.242 170.297,-75.5164 179.314,-81.0792 180.815,-74.242"/>
</g>
<!-- Node3&#45;&gt;Node11 -->
<g id="edge13" class="edge"><title>Node3&#45;&gt;Node11</title>
<path fill="none" stroke="midnightblue" d="M368.748,-112.083C361.03,-104.22 349.595,-92.5688 340.283,-83.0813"/>
<polygon fill="midnightblue" stroke="midnightblue" points="342.592,-80.4363 333.089,-75.7511 337.596,-85.3396 342.592,-80.4363"/>
</g>
<!-- Node8&#45;&gt;Node4 -->
<g id="edge8" class="edge"><title>Node8&#45;&gt;Node4</title>
<path fill="none" stroke="midnightblue" d="M148.209,-56.324C164.812,-47.7034 190.502,-34.3643 209.72,-24.3855"/>
<polygon fill="midnightblue" stroke="midnightblue" points="211.57,-27.3689 218.832,-19.6545 208.344,-21.1565 211.57,-27.3689"/>
</g>
<!-- Node8&#45;&gt;Node5 -->
<g id="edge9" class="edge"><title>Node8&#45;&gt;Node5</title>
<path fill="none" stroke="midnightblue" d="M159.388,-56.4435C192.449,-46.2999 247.193,-29.5034 280.057,-19.4199"/>
<polygon fill="midnightblue" stroke="midnightblue" points="281.37,-22.6782 289.904,-16.3989 279.317,-15.9861 281.37,-22.6782"/>
</g>
<!-- Node8&#45;&gt;Node7 -->
<g id="edge10" class="edge"><title>Node8&#45;&gt;Node7</title>
<path fill="none" stroke="midnightblue" d="M170.637,-56.4438C211.356,-47.5035 276.948,-32.9953 333.5,-20 333.599,-19.9772 333.698,-19.9544 333.798,-19.9315"/>
<polygon fill="midnightblue" stroke="midnightblue" points="334.34,-23.3989 343.288,-17.726 332.755,-16.5806 334.34,-23.3989"/>
</g>
<!-- Node9 -->
<g id="node9" class="node"><title>Node9</title>
<polygon fill="none" stroke="#bfbfbf" points="0,-0.5 0,-19.5 59,-19.5 59,-0.5 0,-0.5"/>
<text text-anchor="middle" x="29.5" y="-7.5" font-family="Helvetica,sans-Serif" font-size="10.00">TObject.h</text>
</g>
<!-- Node8&#45;&gt;Node9 -->
<g id="edge11" class="edge"><title>Node8&#45;&gt;Node9</title>
<path fill="none" stroke="midnightblue" d="M115.112,-56.324C98.8287,-47.7034 73.6325,-34.3643 54.7837,-24.3855"/>
<polygon fill="midnightblue" stroke="midnightblue" points="56.3229,-21.2402 45.8474,-19.6545 53.0477,-27.4267 56.3229,-21.2402"/>
</g>
<!-- Node10 -->
<g id="node10" class="node"><title>Node10</title>
<polygon fill="none" stroke="#bfbfbf" points="77.5,-0.5 77.5,-19.5 193.5,-19.5 193.5,-0.5 77.5,-0.5"/>
<text text-anchor="middle" x="135.5" y="-7.5" font-family="Helvetica,sans-Serif" font-size="10.00">Common/Exceptions.h</text>
</g>
<!-- Node8&#45;&gt;Node10 -->
<g id="edge12" class="edge"><title>Node8&#45;&gt;Node10</title>
<path fill="none" stroke="midnightblue" d="M132.161,-56.083C132.685,-49.0059 133.436,-38.8611 134.094,-29.9865"/>
<polygon fill="midnightblue" stroke="midnightblue" points="137.603,-29.9823 134.852,-19.7511 130.623,-29.4652 137.603,-29.9823"/>
</g>
<!-- Node11&#45;&gt;Node4 -->
<g id="edge15" class="edge"><title>Node11&#45;&gt;Node4</title>
<path fill="none" stroke="midnightblue" d="M310.201,-56.324C296.317,-47.9002 275.008,-34.9709 258.696,-25.0741"/>
<polygon fill="midnightblue" stroke="midnightblue" points="260.129,-21.8495 249.764,-19.6545 256.498,-27.8341 260.129,-21.8495"/>
</g>
<!-- Node11&#45;&gt;Node5 -->
<g id="edge16" class="edge"><title>Node11&#45;&gt;Node5</title>
<path fill="none" stroke="midnightblue" d="M321.693,-56.083C319.415,-48.8486 316.129,-38.4087 313.292,-29.3968"/>
<polygon fill="midnightblue" stroke="midnightblue" points="316.596,-28.2385 310.255,-19.7511 309.919,-30.3406 316.596,-28.2385"/>
</g>
<!-- Node11&#45;&gt;Node7 -->
<g id="edge14" class="edge"><title>Node11&#45;&gt;Node7</title>
<path fill="none" stroke="midnightblue" d="M332.261,-56.083C339.037,-48.2982 349.043,-36.8015 357.255,-27.3665"/>
<polygon fill="midnightblue" stroke="midnightblue" points="359.958,-29.592 363.883,-19.7511 354.678,-24.9963 359.958,-29.592"/>
</g>
<!-- Node13 -->
<g id="node13" class="node"><title>Node13</title>
<polygon fill="none" stroke="#bfbfbf" points="474.5,-112.5 474.5,-131.5 604.5,-131.5 604.5,-112.5 474.5,-112.5"/>
<text text-anchor="middle" x="539.5" y="-119.5" font-family="Helvetica,sans-Serif" font-size="10.00">InfoLogger/InfoLogger.hxx</text>
</g>
<!-- Node12&#45;&gt;Node13 -->
<g id="edge20" class="edge"><title>Node12&#45;&gt;Node13</title>
<path fill="none" stroke="midnightblue" d="M534.491,-168.083C535.286,-160.927 536.429,-150.635 537.423,-141.691"/>
<polygon fill="midnightblue" stroke="midnightblue" points="540.902,-142.076 538.528,-131.751 533.945,-141.303 540.902,-142.076"/>
</g>
</g>
</svg>
