<?xml version="1.0" encoding="UTF-8" standalone="no"?>
<!DOCTYPE svg PUBLIC "-//W3C//DTD SVG 1.1//EN"
 "http://www.w3.org/Graphics/SVG/1.1/DTD/svg11.dtd">
<!-- Generated by graphviz version 2.38.0 (20140413.2041)
 -->
<!-- Title: Framework/src/HistoProducer.cxx Pages: 1 -->
<svg width="565pt" height="151pt"
 viewBox="0.00 0.00 564.50 151.00" xmlns="http://www.w3.org/2000/svg" xmlns:xlink="http://www.w3.org/1999/xlink">
<g id="graph0" class="graph" transform="scale(1 1) rotate(0) translate(4 147)">
<title>Framework/src/HistoProducer.cxx</title>
<!-- Node1 -->
<g id="node1" class="node"><title>Node1</title>
<polygon fill="#bfbfbf" stroke="black" points="228,-123.5 228,-142.5 394,-142.5 394,-123.5 228,-123.5"/>
<text text-anchor="middle" x="311" y="-130.5" font-family="Helvetica,sans-Serif" font-size="10.00">Framework/src/HistoProducer.cxx</text>
</g>
<!-- Node2 -->
<g id="node2" class="node"><title>Node2</title>
<g id="a_node2"><a xlink:href="HistoProducer_8h.html" target="_top" xlink:title="QualityControl/HistoProducer.h">
<polygon fill="none" stroke="black" points="6,-62 6,-81 158,-81 158,-62 6,-62"/>
<text text-anchor="middle" x="82" y="-69" font-family="Helvetica,sans-Serif" font-size="10.00">QualityControl/HistoProducer.h</text>
</a>
</g>
</g>
<!-- Node1&#45;&gt;Node2 -->
<g id="edge1" class="edge"><title>Node1&#45;&gt;Node2</title>
<path fill="none" stroke="midnightblue" d="M278.19,-123.475C237.803,-112.982 169.123,-95.1367 124.671,-83.587"/>
<polygon fill="midnightblue" stroke="midnightblue" points="125.308,-80.1364 114.749,-81.0091 123.548,-86.9114 125.308,-80.1364"/>
</g>
<!-- Node4 -->
<g id="node4" class="node"><title>Node4</title>
<polygon fill="none" stroke="#bfbfbf" points="176,-62 176,-81 268,-81 268,-62 176,-62"/>
<text text-anchor="middle" x="222" y="-69" font-family="Helvetica,sans-Serif" font-size="10.00">Common/Timer.h</text>
</g>
<!-- Node1&#45;&gt;Node4 -->
<g id="edge3" class="edge"><title>Node1&#45;&gt;Node4</title>
<path fill="none" stroke="midnightblue" d="M298.248,-123.475C283.973,-113.931 260.603,-98.3073 243.492,-86.8683"/>
<polygon fill="midnightblue" stroke="midnightblue" points="244.986,-83.6572 234.728,-81.0091 241.096,-89.4766 244.986,-83.6572"/>
</g>
<!-- Node5 -->
<g id="node5" class="node"><title>Node5</title>
<polygon fill="none" stroke="#bfbfbf" points="286,-62 286,-81 336,-81 336,-62 286,-62"/>
<text text-anchor="middle" x="311" y="-69" font-family="Helvetica,sans-Serif" font-size="10.00">TH1F.h</text>
</g>
<!-- Node1&#45;&gt;Node5 -->
<g id="edge4" class="edge"><title>Node1&#45;&gt;Node5</title>
<path fill="none" stroke="midnightblue" d="M311,-123.475C311,-115.08 311,-101.981 311,-91.1631"/>
<polygon fill="midnightblue" stroke="midnightblue" points="314.5,-91.0091 311,-81.0091 307.5,-91.0091 314.5,-91.0091"/>
</g>
<!-- Node6 -->
<g id="node6" class="node"><title>Node6</title>
<g id="a_node6"><a xlink:href="MonitorObjectCollection_8h.html" target="_top" xlink:title="QualityControl/MonitorObject\lCollection.h">
<polygon fill="none" stroke="black" points="354.5,-56.5 354.5,-86.5 497.5,-86.5 497.5,-56.5 354.5,-56.5"/>
<text text-anchor="start" x="362.5" y="-74.5" font-family="Helvetica,sans-Serif" font-size="10.00">QualityControl/MonitorObject</text>
<text text-anchor="middle" x="426" y="-63.5" font-family="Helvetica,sans-Serif" font-size="10.00">Collection.h</text>
</a>
</g>
</g>
<!-- Node1&#45;&gt;Node6 -->
<g id="edge5" class="edge"><title>Node1&#45;&gt;Node6</title>
<path fill="none" stroke="midnightblue" d="M327.477,-123.475C343.707,-115.078 369.036,-101.973 389.947,-91.1534"/>
<polygon fill="midnightblue" stroke="midnightblue" points="391.623,-94.2269 398.897,-86.523 388.407,-88.0097 391.623,-94.2269"/>
</g>
<!-- Node9 -->
<g id="node9" class="node"><title>Node9</title>
<polygon fill="none" stroke="#bfbfbf" points="515.5,-62 515.5,-81 556.5,-81 556.5,-62 515.5,-62"/>
<text text-anchor="middle" x="536" y="-69" font-family="Helvetica,sans-Serif" font-size="10.00">string</text>
</g>
<!-- Node1&#45;&gt;Node9 -->
<g id="edge8" class="edge"><title>Node1&#45;&gt;Node9</title>
<path fill="none" stroke="midnightblue" d="M363.55,-123.451C403.581,-116.102 459.682,-103.987 507,-87 508.424,-86.4889 509.868,-85.9252 511.313,-85.3258"/>
<polygon fill="midnightblue" stroke="midnightblue" points="513.029,-88.3892 520.647,-81.0264 510.1,-82.0313 513.029,-88.3892"/>
</g>
<!-- Node3 -->
<g id="node3" class="node"><title>Node3</title>
<polygon fill="none" stroke="#bfbfbf" points="0,-0.5 0,-19.5 164,-19.5 164,-0.5 0,-0.5"/>
<text text-anchor="middle" x="82" y="-7.5" font-family="Helvetica,sans-Serif" font-size="10.00">Framework/DataProcessorSpec.h</text>
</g>
<!-- Node2&#45;&gt;Node3 -->
<g id="edge2" class="edge"><title>Node2&#45;&gt;Node3</title>
<path fill="none" stroke="midnightblue" d="M82,-61.9751C82,-53.5803 82,-40.4806 82,-29.6631"/>
<polygon fill="midnightblue" stroke="midnightblue" points="85.5001,-29.5091 82,-19.5091 78.5001,-29.5091 85.5001,-29.5091"/>
</g>
<!-- Node7 -->
<g id="node7" class="node"><title>Node7</title>
<polygon fill="none" stroke="#bfbfbf" points="332.5,-0.5 332.5,-19.5 401.5,-19.5 401.5,-0.5 332.5,-0.5"/>
<text text-anchor="middle" x="367" y="-7.5" font-family="Helvetica,sans-Serif" font-size="10.00">TObjArray.h</text>
</g>
<!-- Node6&#45;&gt;Node7 -->
<g id="edge6" class="edge"><title>Node6&#45;&gt;Node7</title>
<path fill="none" stroke="midnightblue" d="M412.018,-56.3993C403.268,-47.575 391.971,-36.1827 382.883,-27.0178"/>
<polygon fill="midnightblue" stroke="midnightblue" points="385.112,-24.2942 375.585,-19.6578 380.141,-29.2231 385.112,-24.2942"/>
</g>
<!-- Node8 -->
<g id="node8" class="node"><title>Node8</title>
<polygon fill="none" stroke="#bfbfbf" points="420,-0.5 420,-19.5 548,-19.5 548,-0.5 420,-0.5"/>
<text text-anchor="middle" x="484" y="-7.5" font-family="Helvetica,sans-Serif" font-size="10.00">Mergers/MergeInterface.h</text>
</g>
<!-- Node6&#45;&gt;Node8 -->
<g id="edge7" class="edge"><title>Node6&#45;&gt;Node8</title>
<path fill="none" stroke="midnightblue" d="M439.745,-56.3993C448.347,-47.575 459.452,-36.1827 468.386,-27.0178"/>
<polygon fill="midnightblue" stroke="midnightblue" points="471.086,-29.2616 475.56,-19.6578 466.074,-24.3755 471.086,-29.2616"/>
</g>
</g>
</svg>
