<?xml version="1.0" encoding="UTF-8" standalone="no"?>
<!DOCTYPE svg PUBLIC "-//W3C//DTD SVG 1.1//EN"
 "http://www.w3.org/Graphics/SVG/1.1/DTD/svg11.dtd">
<!-- Generated by graphviz version 2.38.0 (20140413.2041)
 -->
<!-- Title: Graphical Class Hierarchy Pages: 1 -->
<svg width="331pt" height="1060pt"
 viewBox="0.00 0.00 331.00 1060.00" xmlns="http://www.w3.org/2000/svg" xmlns:xlink="http://www.w3.org/1999/xlink">
<g id="graph0" class="graph" transform="scale(1 1) rotate(0) translate(4 1056)">
<title>Graphical Class Hierarchy</title>
<!-- Node1 -->
<g id="node1" class="node"><title>Node1</title>
<g id="a_node1"><a xlink:href="classo2_1_1quality__control_1_1core_1_1TaskInterface.html" target="_top" xlink:title="Skeleton of a QC task. ">
<polygon fill="none" stroke="black" points="0,-516.5 0,-546.5 107,-546.5 107,-516.5 0,-516.5"/>
<text text-anchor="start" x="8" y="-534.5" font-family="Helvetica,sans-Serif" font-size="10.00">o2::quality_control</text>
<text text-anchor="middle" x="53.5" y="-523.5" font-family="Helvetica,sans-Serif" font-size="10.00">::core::TaskInterface</text>
</a>
</g>
</g>
<!-- Node2 -->
<g id="node2" class="node"><title>Node2</title>
<g id="a_node2"><a xlink:href="classo2_1_1quality__control_1_1test_1_1TestTask.html" target="_top" xlink:title="o2::quality_control\l::test::TestTask">
<polygon fill="none" stroke="black" points="185,-1021.5 185,-1051.5 281,-1051.5 281,-1021.5 185,-1021.5"/>
<text text-anchor="start" x="193" y="-1039.5" font-family="Helvetica,sans-Serif" font-size="10.00">o2::quality_control</text>
<text text-anchor="middle" x="233" y="-1028.5" font-family="Helvetica,sans-Serif" font-size="10.00">::test::TestTask</text>
</a>
</g>
</g>
<!-- Node1&#45;&gt;Node2 -->
<g id="edge1" class="edge"><title>Node1&#45;&gt;Node2</title>
<path fill="none" stroke="midnightblue" d="M55.692,-556.933C60.3962,-646.386 80.5771,-944.774 143,-1012.5 153.738,-1024.15 169.48,-1030.38 184.751,-1033.64"/>
<polygon fill="midnightblue" stroke="midnightblue" points="59.1834,-556.672 55.1822,-546.862 52.1924,-557.026 59.1834,-556.672"/>
</g>
<!-- Node3 -->
<g id="node3" class="node"><title>Node3</title>
<g id="a_node3"><a xlink:href="classo2_1_1quality__control__modules_1_1daq_1_1DaqTask.html" target="_top" xlink:title="Example Quality Control Task It is final because there is no reason to derive from it...">
<polygon fill="none" stroke="black" points="170,-972.5 170,-1002.5 296,-1002.5 296,-972.5 170,-972.5"/>
<text text-anchor="start" x="178" y="-990.5" font-family="Helvetica,sans-Serif" font-size="10.00">o2::quality_control</text>
<text text-anchor="middle" x="233" y="-979.5" font-family="Helvetica,sans-Serif" font-size="10.00">_modules::daq::DaqTask</text>
</a>
</g>
</g>
<!-- Node1&#45;&gt;Node3 -->
<g id="edge2" class="edge"><title>Node1&#45;&gt;Node3</title>
<path fill="none" stroke="midnightblue" d="M56.2571,-556.75C62.5504,-639.951 86.6556,-903.589 143,-963.5 150.236,-971.194 159.657,-976.516 169.654,-980.178"/>
<polygon fill="midnightblue" stroke="midnightblue" points="59.7399,-556.385 55.5159,-546.669 52.7588,-556.899 59.7399,-556.385"/>
</g>
<!-- Node4 -->
<g id="node4" class="node"><title>Node4</title>
<g id="a_node4"><a xlink:href="classo2_1_1quality__control__modules_1_1emcal_1_1DigitsQcTask.html" target="_top" xlink:title="QC Task for EMCAL digits. ">
<polygon fill="none" stroke="black" points="154.5,-923.5 154.5,-953.5 311.5,-953.5 311.5,-923.5 154.5,-923.5"/>
<text text-anchor="start" x="162.5" y="-941.5" font-family="Helvetica,sans-Serif" font-size="10.00">o2::quality_control</text>
<text text-anchor="middle" x="233" y="-930.5" font-family="Helvetica,sans-Serif" font-size="10.00">_modules::emcal::DigitsQcTask</text>
</a>
</g>
</g>
<!-- Node1&#45;&gt;Node4 -->
<g id="edge3" class="edge"><title>Node1&#45;&gt;Node4</title>
<path fill="none" stroke="midnightblue" d="M56.9862,-556.862C65.0277,-633.791 92.7685,-862.41 143,-914.5 146.333,-917.956 150.106,-920.931 154.172,-923.492"/>
<polygon fill="midnightblue" stroke="midnightblue" points="60.4414,-556.244 55.9424,-546.652 53.4777,-556.956 60.4414,-556.244"/>
</g>
<!-- Node5 -->
<g id="node5" class="node"><title>Node5</title>
<g id="a_node5"><a xlink:href="classo2_1_1quality__control__modules_1_1emcal_1_1RawTask.html" target="_top" xlink:title="Example Quality Control DPL Task It is final because there is no reason to derive from it...">
<polygon fill="none" stroke="black" points="163.5,-874.5 163.5,-904.5 302.5,-904.5 302.5,-874.5 163.5,-874.5"/>
<text text-anchor="start" x="171.5" y="-892.5" font-family="Helvetica,sans-Serif" font-size="10.00">o2::quality_control</text>
<text text-anchor="middle" x="233" y="-881.5" font-family="Helvetica,sans-Serif" font-size="10.00">_modules::emcal::RawTask</text>
</a>
</g>
</g>
<!-- Node1&#45;&gt;Node5 -->
<g id="edge4" class="edge"><title>Node1&#45;&gt;Node5</title>
<path fill="none" stroke="midnightblue" d="M57.9058,-556.821C67.8237,-626.891 98.8074,-821.113 143,-865.5 148.759,-871.284 155.755,-875.716 163.267,-879.105"/>
<polygon fill="midnightblue" stroke="midnightblue" points="61.3401,-556.106 56.4961,-546.683 54.4068,-557.07 61.3401,-556.106"/>
</g>
<!-- Node6 -->
<g id="node6" class="node"><title>Node6</title>
<g id="a_node6"><a xlink:href="classo2_1_1quality__control__modules_1_1example_1_1BenchmarkTask.html" target="_top" xlink:title="Quality Control Task for benchmarking It publishes a number of TH1F (configurable, see example.ini in module QualityControl). The histos are reset and refilled (1000 random) at EOC. They have 1000 bins. The monitoring of data blocks is empty (sleep 100 ms). ">
<polygon fill="none" stroke="black" points="143.5,-825.5 143.5,-855.5 322.5,-855.5 322.5,-825.5 143.5,-825.5"/>
<text text-anchor="start" x="151.5" y="-843.5" font-family="Helvetica,sans-Serif" font-size="10.00">o2::quality_control</text>
<text text-anchor="middle" x="233" y="-832.5" font-family="Helvetica,sans-Serif" font-size="10.00">_modules::example::BenchmarkTask</text>
</a>
</g>
</g>
<!-- Node1&#45;&gt;Node6 -->
<g id="edge5" class="edge"><title>Node1&#45;&gt;Node6</title>
<path fill="none" stroke="midnightblue" d="M54.6575,-556.776C56.4248,-612.146 68.6538,-744.904 143,-816.5 146.573,-819.941 150.587,-822.901 154.88,-825.445"/>
<polygon fill="midnightblue" stroke="midnightblue" points="58.1566,-556.692 54.4283,-546.775 51.1585,-556.853 58.1566,-556.692"/>
</g>
<!-- Node7 -->
<g id="node7" class="node"><title>Node7</title>
<g id="a_node7"><a xlink:href="classo2_1_1quality__control__modules_1_1example_1_1ExampleTask.html" target="_top" xlink:title="Example Quality Control Task It is final because there is no reason to derive from it...">
<polygon fill="none" stroke="black" points="149.5,-776.5 149.5,-806.5 316.5,-806.5 316.5,-776.5 149.5,-776.5"/>
<text text-anchor="start" x="157.5" y="-794.5" font-family="Helvetica,sans-Serif" font-size="10.00">o2::quality_control</text>
<text text-anchor="middle" x="233" y="-783.5" font-family="Helvetica,sans-Serif" font-size="10.00">_modules::example::ExampleTask</text>
</a>
</g>
</g>
<!-- Node1&#45;&gt;Node7 -->
<g id="edge6" class="edge"><title>Node1&#45;&gt;Node7</title>
<path fill="none" stroke="midnightblue" d="M56.5507,-556.698C61.8558,-604.933 80.3634,-710.569 143,-767.5 146.79,-770.944 151.022,-773.903 155.529,-776.443"/>
<polygon fill="midnightblue" stroke="midnightblue" points="60.011,-556.125 55.5367,-546.522 53.0455,-556.819 60.011,-556.125"/>
</g>
<!-- Node8 -->
<g id="node8" class="node"><title>Node8</title>
<g id="a_node8"><a xlink:href="classo2_1_1quality__control__modules_1_1its_1_1ITSRawTask.html" target="_top" xlink:title="o2::quality_control\l_modules::its::ITSRawTask">
<polygon fill="none" stroke="black" points="163.5,-727.5 163.5,-757.5 302.5,-757.5 302.5,-727.5 163.5,-727.5"/>
<text text-anchor="start" x="171.5" y="-745.5" font-family="Helvetica,sans-Serif" font-size="10.00">o2::quality_control</text>
<text text-anchor="middle" x="233" y="-734.5" font-family="Helvetica,sans-Serif" font-size="10.00">_modules::its::ITSRawTask</text>
</a>
</g>
</g>
<!-- Node1&#45;&gt;Node8 -->
<g id="edge7" class="edge"><title>Node1&#45;&gt;Node8</title>
<path fill="none" stroke="midnightblue" d="M59.3167,-556.561C68.3904,-596.843 91.8925,-675.794 143,-718.5 149.017,-723.528 155.992,-727.511 163.337,-730.664"/>
<polygon fill="midnightblue" stroke="midnightblue" points="62.7312,-555.79 57.2204,-546.741 55.8854,-557.252 62.7312,-555.79"/>
</g>
<!-- Node9 -->
<g id="node9" class="node"><title>Node9</title>
<g id="a_node9"><a xlink:href="classo2_1_1quality__control__modules_1_1mft_1_1BasicClusterQcTask.html" target="_top" xlink:title="MFT Cluster QC task. ">
<polygon fill="none" stroke="black" points="162.5,-668 162.5,-709 303.5,-709 303.5,-668 162.5,-668"/>
<text text-anchor="start" x="170.5" y="-697" font-family="Helvetica,sans-Serif" font-size="10.00">o2::quality_control</text>
<text text-anchor="start" x="170.5" y="-686" font-family="Helvetica,sans-Serif" font-size="10.00">_modules::mft::BasicCluster</text>
<text text-anchor="middle" x="233" y="-675" font-family="Helvetica,sans-Serif" font-size="10.00">QcTask</text>
</a>
</g>
</g>
<!-- Node1&#45;&gt;Node9 -->
<g id="edge8" class="edge"><title>Node1&#45;&gt;Node9</title>
<path fill="none" stroke="midnightblue" d="M65.2937,-555.859C79.2425,-584.638 106.181,-632.062 143,-659.5 148.864,-663.87 155.416,-667.599 162.234,-670.779"/>
<polygon fill="midnightblue" stroke="midnightblue" points="68.3266,-554.083 60.9066,-546.52 61.9908,-557.06 68.3266,-554.083"/>
</g>
<!-- Node10 -->
<g id="node10" class="node"><title>Node10</title>
<g id="a_node10"><a xlink:href="classo2_1_1quality__control__modules_1_1mft_1_1BasicDigitQcTask.html" target="_top" xlink:title="MFT Digit QC task. ">
<polygon fill="none" stroke="black" points="151,-619.5 151,-649.5 315,-649.5 315,-619.5 151,-619.5"/>
<text text-anchor="start" x="159" y="-637.5" font-family="Helvetica,sans-Serif" font-size="10.00">o2::quality_control</text>
<text text-anchor="middle" x="233" y="-626.5" font-family="Helvetica,sans-Serif" font-size="10.00">_modules::mft::BasicDigitQcTask</text>
</a>
</g>
</g>
<!-- Node1&#45;&gt;Node10 -->
<g id="edge9" class="edge"><title>Node1&#45;&gt;Node10</title>
<path fill="none" stroke="midnightblue" d="M74.3455,-554.28C91.0005,-572.043 116.297,-596.048 143,-610.5 149.333,-613.928 156.19,-616.892 163.191,-619.45"/>
<polygon fill="midnightblue" stroke="midnightblue" points="76.6616,-551.626 67.3273,-546.614 71.4986,-556.353 76.6616,-551.626"/>
</g>
<!-- Node11 -->
<g id="node11" class="node"><title>Node11</title>
<g id="a_node11"><a xlink:href="classo2_1_1quality__control__modules_1_1mft_1_1BasicTrackQcTask.html" target="_top" xlink:title="MFT Track QC task. ">
<polygon fill="none" stroke="black" points="148.5,-570.5 148.5,-600.5 317.5,-600.5 317.5,-570.5 148.5,-570.5"/>
<text text-anchor="start" x="156.5" y="-588.5" font-family="Helvetica,sans-Serif" font-size="10.00">o2::quality_control</text>
<text text-anchor="middle" x="233" y="-577.5" font-family="Helvetica,sans-Serif" font-size="10.00">_modules::mft::BasicTrackQcTask</text>
</a>
</g>
</g>
<!-- Node1&#45;&gt;Node11 -->
<g id="edge10" class="edge"><title>Node1&#45;&gt;Node11</title>
<path fill="none" stroke="midnightblue" d="M106.838,-549.854C118.683,-553.837 131.237,-557.924 143,-561.5 152.952,-564.525 163.589,-567.562 173.92,-570.408"/>
<polygon fill="midnightblue" stroke="midnightblue" points="107.681,-546.444 97.0866,-546.546 105.432,-553.073 107.681,-546.444"/>
</g>
<!-- Node12 -->
<g id="node12" class="node"><title>Node12</title>
<g id="a_node12"><a xlink:href="classo2_1_1quality__control__modules_1_1muonchambers_1_1PedestalsTask.html" target="_top" xlink:title="Quality Control Task for the analysis of MCH pedestal data. ">
<polygon fill="none" stroke="black" points="167.5,-511 167.5,-552 298.5,-552 298.5,-511 167.5,-511"/>
<text text-anchor="start" x="175.5" y="-540" font-family="Helvetica,sans-Serif" font-size="10.00">o2::quality_control</text>
<text text-anchor="start" x="175.5" y="-529" font-family="Helvetica,sans-Serif" font-size="10.00">_modules::muonchambers</text>
<text text-anchor="middle" x="233" y="-518" font-family="Helvetica,sans-Serif" font-size="10.00">::PedestalsTask</text>
</a>
</g>
</g>
<!-- Node1&#45;&gt;Node12 -->
<g id="edge11" class="edge"><title>Node1&#45;&gt;Node12</title>
<path fill="none" stroke="midnightblue" d="M117.695,-531.5C133.861,-531.5 151.263,-531.5 167.494,-531.5"/>
<polygon fill="midnightblue" stroke="midnightblue" points="117.275,-528 107.275,-531.5 117.275,-535 117.275,-528"/>
</g>
<!-- Node13 -->
<g id="node13" class="node"><title>Node13</title>
<g id="a_node13"><a xlink:href="classo2_1_1quality__control__modules_1_1muonchambers_1_1PhysicsTask.html" target="_top" xlink:title="Quality Control Task for the analysis of MCH physics data. ">
<polygon fill="none" stroke="black" points="167.5,-451 167.5,-492 298.5,-492 298.5,-451 167.5,-451"/>
<text text-anchor="start" x="175.5" y="-480" font-family="Helvetica,sans-Serif" font-size="10.00">o2::quality_control</text>
<text text-anchor="start" x="175.5" y="-469" font-family="Helvetica,sans-Serif" font-size="10.00">_modules::muonchambers</text>
<text text-anchor="middle" x="233" y="-458" font-family="Helvetica,sans-Serif" font-size="10.00">::PhysicsTask</text>
</a>
</g>
</g>
<!-- Node1&#45;&gt;Node13 -->
<g id="edge12" class="edge"><title>Node1&#45;&gt;Node13</title>
<path fill="none" stroke="midnightblue" d="M108.82,-513.07C120.116,-509.242 131.945,-505.237 143,-501.5 151.959,-498.472 161.427,-495.275 170.714,-492.143"/>
<polygon fill="midnightblue" stroke="midnightblue" points="107.41,-509.852 99.0632,-516.377 109.658,-516.482 107.41,-509.852"/>
</g>
<!-- Node14 -->
<g id="node14" class="node"><title>Node14</title>
<g id="a_node14"><a xlink:href="classo2_1_1quality__control__modules_1_1phos_1_1DigitsQcTask.html" target="_top" xlink:title="QC Task for PHOS digits. ">
<polygon fill="none" stroke="black" points="157,-402.5 157,-432.5 309,-432.5 309,-402.5 157,-402.5"/>
<text text-anchor="start" x="165" y="-420.5" font-family="Helvetica,sans-Serif" font-size="10.00">o2::quality_control</text>
<text text-anchor="middle" x="233" y="-409.5" font-family="Helvetica,sans-Serif" font-size="10.00">_modules::phos::DigitsQcTask</text>
</a>
</g>
</g>
<!-- Node1&#45;&gt;Node14 -->
<g id="edge13" class="edge"><title>Node1&#45;&gt;Node14</title>
<path fill="none" stroke="midnightblue" d="M71.5743,-508.128C87.752,-487.631 113.859,-458.52 143,-441.5 148.804,-438.11 155.099,-435.187 161.568,-432.668"/>
<polygon fill="midnightblue" stroke="midnightblue" points="68.5923,-506.264 65.2691,-516.324 74.1405,-510.532 68.5923,-506.264"/>
</g>
<!-- Node15 -->
<g id="node15" class="node"><title>Node15</title>
<g id="a_node15"><a xlink:href="classo2_1_1quality__control__modules_1_1phos_1_1RawTask.html" target="_top" xlink:title="PHOS Quality Control DPL Task. ">
<polygon fill="none" stroke="black" points="166,-353.5 166,-383.5 300,-383.5 300,-353.5 166,-353.5"/>
<text text-anchor="start" x="174" y="-371.5" font-family="Helvetica,sans-Serif" font-size="10.00">o2::quality_control</text>
<text text-anchor="middle" x="233" y="-360.5" font-family="Helvetica,sans-Serif" font-size="10.00">_modules::phos::RawTask</text>
</a>
</g>
</g>
<!-- Node1&#45;&gt;Node15 -->
<g id="edge14" class="edge"><title>Node1&#45;&gt;Node15</title>
<path fill="none" stroke="midnightblue" d="M63.8061,-506.84C76.7989,-475.761 103.332,-422.862 143,-393.5 149.837,-388.439 157.658,-384.402 165.762,-381.182"/>
<polygon fill="midnightblue" stroke="midnightblue" points="60.4134,-505.895 59.9195,-516.478 66.9054,-508.513 60.4134,-505.895"/>
</g>
<!-- Node16 -->
<g id="node16" class="node"><title>Node16</title>
<g id="a_node16"><a xlink:href="classo2_1_1quality__control__modules_1_1skeleton_1_1SkeletonTask.html" target="_top" xlink:title="Example Quality Control DPL Task. ">
<polygon fill="none" stroke="black" points="179.5,-294 179.5,-335 286.5,-335 286.5,-294 179.5,-294"/>
<text text-anchor="start" x="187.5" y="-323" font-family="Helvetica,sans-Serif" font-size="10.00">o2::quality_control</text>
<text text-anchor="start" x="187.5" y="-312" font-family="Helvetica,sans-Serif" font-size="10.00">_modules::skeleton::</text>
<text text-anchor="middle" x="233" y="-301" font-family="Helvetica,sans-Serif" font-size="10.00">SkeletonTask</text>
</a>
</g>
</g>
<!-- Node1&#45;&gt;Node16 -->
<g id="edge15" class="edge"><title>Node1&#45;&gt;Node16</title>
<path fill="none" stroke="midnightblue" d="M59.6835,-506.54C69.233,-466.682 93.3405,-388.668 143,-344.5 153.234,-335.397 166.335,-329.038 179.318,-324.602"/>
<polygon fill="midnightblue" stroke="midnightblue" points="56.2266,-505.957 57.4156,-516.485 63.0514,-507.514 56.2266,-505.957"/>
</g>
<!-- Node17 -->
<g id="node17" class="node"><title>Node17</title>
<g id="a_node17"><a xlink:href="classo2_1_1quality__control__modules_1_1tof_1_1TaskCompressedData.html" target="_top" xlink:title="TOF Quality Control DPL Task for TOF Compressed data. ">
<polygon fill="none" stroke="black" points="143,-245.5 143,-275.5 323,-275.5 323,-245.5 143,-245.5"/>
<text text-anchor="start" x="151" y="-263.5" font-family="Helvetica,sans-Serif" font-size="10.00">o2::quality_control</text>
<text text-anchor="middle" x="233" y="-252.5" font-family="Helvetica,sans-Serif" font-size="10.00">_modules::tof::TaskCompressedData</text>
</a>
</g>
</g>
<!-- Node1&#45;&gt;Node17 -->
<g id="edge16" class="edge"><title>Node1&#45;&gt;Node17</title>
<path fill="none" stroke="midnightblue" d="M56.0747,-506.192C60.5768,-456.25 77.7871,-344.655 143,-284.5 146.647,-281.136 150.715,-278.235 155.05,-275.734"/>
<polygon fill="midnightblue" stroke="midnightblue" points="52.5654,-506.169 55.256,-516.417 59.5431,-506.728 52.5654,-506.169"/>
</g>
<!-- Node18 -->
<g id="node18" class="node"><title>Node18</title>
<g id="a_node18"><a xlink:href="classo2_1_1quality__control__modules_1_1tof_1_1TaskDiagnostics.html" target="_top" xlink:title="TOF Quality Control DPL Task for TOF Compressed data. ">
<polygon fill="none" stroke="black" points="155.5,-196.5 155.5,-226.5 310.5,-226.5 310.5,-196.5 155.5,-196.5"/>
<text text-anchor="start" x="163.5" y="-214.5" font-family="Helvetica,sans-Serif" font-size="10.00">o2::quality_control</text>
<text text-anchor="middle" x="233" y="-203.5" font-family="Helvetica,sans-Serif" font-size="10.00">_modules::tof::TaskDiagnostics</text>
</a>
</g>
</g>
<!-- Node1&#45;&gt;Node18 -->
<g id="edge17" class="edge"><title>Node1&#45;&gt;Node18</title>
<path fill="none" stroke="midnightblue" d="M54.3985,-506.219C55.5934,-449.56 66.6589,-311.508 143,-236.5 146.892,-232.676 151.321,-229.426 156.074,-226.666"/>
<polygon fill="midnightblue" stroke="midnightblue" points="50.8963,-506.382 54.2747,-516.423 57.8958,-506.467 50.8963,-506.382"/>
</g>
<!-- Node19 -->
<g id="node19" class="node"><title>Node19</title>
<g id="a_node19"><a xlink:href="classo2_1_1quality__control__modules_1_1tof_1_1TaskDigits.html" target="_top" xlink:title="TOF Quality Control DPL Task. ">
<polygon fill="none" stroke="black" points="168.5,-147.5 168.5,-177.5 297.5,-177.5 297.5,-147.5 168.5,-147.5"/>
<text text-anchor="start" x="176.5" y="-165.5" font-family="Helvetica,sans-Serif" font-size="10.00">o2::quality_control</text>
<text text-anchor="middle" x="233" y="-154.5" font-family="Helvetica,sans-Serif" font-size="10.00">_modules::tof::TaskDigits</text>
</a>
</g>
</g>
<!-- Node1&#45;&gt;Node19 -->
<g id="edge18" class="edge"><title>Node1&#45;&gt;Node19</title>
<path fill="none" stroke="midnightblue" d="M57.7552,-505.942C67.3784,-434.278 97.8722,-233.633 143,-187.5 149.958,-180.387 158.766,-175.253 168.12,-171.556"/>
<polygon fill="midnightblue" stroke="midnightblue" points="54.2277,-505.922 56.3909,-516.293 61.1677,-506.836 54.2277,-505.922"/>
</g>
<!-- Node20 -->
<g id="node20" class="node"><title>Node20</title>
<g id="a_node20"><a xlink:href="classo2_1_1quality__control__modules_1_1tpc_1_1Clusters.html" target="_top" xlink:title="Example Quality Control DPL Task It is final because there is no reason to derive from it...">
<polygon fill="none" stroke="black" points="172.5,-98.5 172.5,-128.5 293.5,-128.5 293.5,-98.5 172.5,-98.5"/>
<text text-anchor="start" x="180.5" y="-116.5" font-family="Helvetica,sans-Serif" font-size="10.00">o2::quality_control</text>
<text text-anchor="middle" x="233" y="-105.5" font-family="Helvetica,sans-Serif" font-size="10.00">_modules::tpc::Clusters</text>
</a>
</g>
</g>
<!-- Node1&#45;&gt;Node20 -->
<g id="edge19" class="edge"><title>Node1&#45;&gt;Node20</title>
<path fill="none" stroke="midnightblue" d="M56.8616,-506.035C64.6254,-427.71 91.8375,-192.413 143,-138.5 150.954,-130.118 161.474,-124.473 172.488,-120.689"/>
<polygon fill="midnightblue" stroke="midnightblue" points="53.337,-506.121 55.8567,-516.412 60.3044,-506.796 53.337,-506.121"/>
</g>
<!-- Node21 -->
<g id="node21" class="node"><title>Node21</title>
<g id="a_node21"><a xlink:href="classo2_1_1quality__control__modules_1_1tpc_1_1PID.html" target="_top" xlink:title="TPC PID QC Task It is final because there is no reason to derive from it. Just remove it if needed...">
<polygon fill="none" stroke="black" points="182.5,-49.5 182.5,-79.5 283.5,-79.5 283.5,-49.5 182.5,-49.5"/>
<text text-anchor="start" x="190.5" y="-67.5" font-family="Helvetica,sans-Serif" font-size="10.00">o2::quality_control</text>
<text text-anchor="middle" x="233" y="-56.5" font-family="Helvetica,sans-Serif" font-size="10.00">_modules::tpc::PID</text>
</a>
</g>
</g>
<!-- Node1&#45;&gt;Node21 -->
<g id="edge20" class="edge"><title>Node1&#45;&gt;Node21</title>
<path fill="none" stroke="midnightblue" d="M56.1551,-506.26C62.1901,-421.86 85.7338,-151.307 143,-89.5 153.144,-78.5513 167.664,-72.2581 182.041,-68.683"/>
<polygon fill="midnightblue" stroke="midnightblue" points="52.6476,-506.248 55.4466,-516.467 59.6308,-506.733 52.6476,-506.248"/>
</g>
<!-- Node22 -->
<g id="node22" class="node"><title>Node22</title>
<g id="a_node22"><a xlink:href="classo2_1_1quality__control__modules_1_1tpc_1_1Tracks.html" target="_top" xlink:title="Quality Control DPL Task for QC Module TPC for track related observables. ">
<polygon fill="none" stroke="black" points="176,-0.5 176,-30.5 290,-30.5 290,-0.5 176,-0.5"/>
<text text-anchor="start" x="184" y="-18.5" font-family="Helvetica,sans-Serif" font-size="10.00">o2::quality_control</text>
<text text-anchor="middle" x="233" y="-7.5" font-family="Helvetica,sans-Serif" font-size="10.00">_modules::tpc::Tracks</text>
</a>
</g>
</g>
<!-- Node1&#45;&gt;Node22 -->
<g id="edge21" class="edge"><title>Node1&#45;&gt;Node22</title>
<path fill="none" stroke="midnightblue" d="M55.6086,-506.169C60.0752,-415.696 79.6693,-110.188 143,-40.5 151.635,-30.998 163.565,-24.9934 175.886,-21.2282"/>
<polygon fill="midnightblue" stroke="midnightblue" points="52.1042,-506.18 55.1266,-516.335 59.0964,-506.512 52.1042,-506.18"/>
</g>
</g>
</svg>
