<?xml version="1.0" encoding="UTF-8" standalone="no"?>
<!DOCTYPE svg PUBLIC "-//W3C//DTD SVG 1.1//EN"
 "http://www.w3.org/Graphics/SVG/1.1/DTD/svg11.dtd">
<!-- Generated by graphviz version 2.38.0 (20140413.2041)
 -->
<!-- Title: Graphical Class Hierarchy Pages: 1 -->
<svg width="362pt" height="207pt"
 viewBox="0.00 0.00 362.00 207.00" xmlns="http://www.w3.org/2000/svg" xmlns:xlink="http://www.w3.org/1999/xlink">
<g id="graph0" class="graph" transform="scale(1 1) rotate(0) translate(4 203)">
<title>Graphical Class Hierarchy</title>
<!-- Node1 -->
<g id="node1" class="node"><title>Node1</title>
<g id="a_node1"><a xlink:href="classo2_1_1quality__control_1_1postprocessing_1_1PostProcessingInterface.html" target="_top" xlink:title="Skeleton of a post&#45;processing task. ">
<polygon fill="none" stroke="black" points="0,-79 0,-120 164,-120 164,-79 0,-79"/>
<text text-anchor="start" x="8" y="-108" font-family="Helvetica,sans-Serif" font-size="10.00">o2::quality_control</text>
<text text-anchor="start" x="8" y="-97" font-family="Helvetica,sans-Serif" font-size="10.00">::postprocessing::PostProcessing</text>
<text text-anchor="middle" x="82" y="-86" font-family="Helvetica,sans-Serif" font-size="10.00">Interface</text>
</a>
</g>
</g>
<!-- Node2 -->
<g id="node2" class="node"><title>Node2</title>
<g id="a_node2"><a xlink:href="classo2_1_1quality__control_1_1postprocessing_1_1TrendingTask.html" target="_top" xlink:title="A post&#45;processing task which trends values, stores them in a TTree and produces plots. ">
<polygon fill="none" stroke="black" points="200,-168.5 200,-198.5 354,-198.5 354,-168.5 200,-168.5"/>
<text text-anchor="start" x="208" y="-186.5" font-family="Helvetica,sans-Serif" font-size="10.00">o2::quality_control</text>
<text text-anchor="middle" x="277" y="-175.5" font-family="Helvetica,sans-Serif" font-size="10.00">::postprocessing::TrendingTask</text>
</a>
</g>
</g>
<!-- Node1&#45;&gt;Node2 -->
<g id="edge1" class="edge"><title>Node1&#45;&gt;Node2</title>
<path fill="none" stroke="midnightblue" d="M128.005,-124.825C149.415,-136.287 175.612,-149.479 200,-159.5 207.679,-162.655 215.933,-165.65 224.071,-168.386"/>
<polygon fill="midnightblue" stroke="midnightblue" points="129.602,-121.711 119.141,-120.033 126.273,-127.868 129.602,-121.711"/>
</g>
<!-- Node3 -->
<g id="node3" class="node"><title>Node3</title>
<g id="a_node3"><a xlink:href="classo2_1_1quality__control_1_1postprocessing_1_1TrendingTaskITS.html" target="_top" xlink:title="A post&#45;processing task which trends values, stores them in a TTree and produces plots. ">
<polygon fill="none" stroke="black" points="211,-109 211,-150 343,-150 343,-109 211,-109"/>
<text text-anchor="start" x="219" y="-138" font-family="Helvetica,sans-Serif" font-size="10.00">o2::quality_control</text>
<text text-anchor="start" x="219" y="-127" font-family="Helvetica,sans-Serif" font-size="10.00">::postprocessing::Trending</text>
<text text-anchor="middle" x="277" y="-116" font-family="Helvetica,sans-Serif" font-size="10.00">TaskITS</text>
</a>
</g>
</g>
<!-- Node1&#45;&gt;Node3 -->
<g id="edge2" class="edge"><title>Node1&#45;&gt;Node3</title>
<path fill="none" stroke="midnightblue" d="M173.926,-113.634C186.342,-115.563 198.881,-117.513 210.718,-119.353"/>
<polygon fill="midnightblue" stroke="midnightblue" points="174.429,-110.17 164.01,-112.092 173.354,-117.087 174.429,-110.17"/>
</g>
<!-- Node4 -->
<g id="node4" class="node"><title>Node4</title>
<g id="a_node4"><a xlink:href="classo2_1_1quality__control__modules_1_1skeleton_1_1SkeletonPostProcessing.html" target="_top" xlink:title="Example Quality Control Postprocessing Task. ">
<polygon fill="none" stroke="black" points="215,-49 215,-90 339,-90 339,-49 215,-49"/>
<text text-anchor="start" x="223" y="-78" font-family="Helvetica,sans-Serif" font-size="10.00">o2::quality_control</text>
<text text-anchor="start" x="223" y="-67" font-family="Helvetica,sans-Serif" font-size="10.00">_modules::skeleton::</text>
<text text-anchor="middle" x="277" y="-56" font-family="Helvetica,sans-Serif" font-size="10.00">SkeletonPostProcessing</text>
</a>
</g>
</g>
<!-- Node1&#45;&gt;Node4 -->
<g id="edge3" class="edge"><title>Node1&#45;&gt;Node4</title>
<path fill="none" stroke="midnightblue" d="M174.043,-85.3483C187.88,-83.1975 201.866,-81.0233 214.861,-79.0035"/>
<polygon fill="midnightblue" stroke="midnightblue" points="173.354,-81.9132 164.01,-86.9077 174.429,-88.8301 173.354,-81.9132"/>
</g>
<!-- Node5 -->
<g id="node5" class="node"><title>Node5</title>
<g id="a_node5"><a xlink:href="classo2_1_1quality__control__modules_1_1test_1_1TestTask.html" target="_top" xlink:title="o2::quality_control\l_modules::test::TestTask">
<polygon fill="none" stroke="black" points="213,-0.5 213,-30.5 341,-30.5 341,-0.5 213,-0.5"/>
<text text-anchor="start" x="221" y="-18.5" font-family="Helvetica,sans-Serif" font-size="10.00">o2::quality_control</text>
<text text-anchor="middle" x="277" y="-7.5" font-family="Helvetica,sans-Serif" font-size="10.00">_modules::test::TestTask</text>
</a>
</g>
</g>
<!-- Node1&#45;&gt;Node5 -->
<g id="edge4" class="edge"><title>Node1&#45;&gt;Node5</title>
<path fill="none" stroke="midnightblue" d="M128.005,-74.1746C149.415,-62.7127 175.612,-49.5208 200,-39.5 207.679,-36.3447 215.933,-33.3501 224.071,-30.6142"/>
<polygon fill="midnightblue" stroke="midnightblue" points="126.273,-71.1318 119.141,-78.9666 129.602,-77.2895 126.273,-71.1318"/>
</g>
</g>
</svg>
