<?xml version="1.0" encoding="UTF-8" standalone="no"?>
<!DOCTYPE svg PUBLIC "-//W3C//DTD SVG 1.1//EN"
 "http://www.w3.org/Graphics/SVG/1.1/DTD/svg11.dtd">
<!-- Generated by graphviz version 2.38.0 (20140413.2041)
 -->
<!-- Title: Graphical Class Hierarchy Pages: 1 -->
<svg width="361pt" height="1131pt"
 viewBox="0.00 0.00 361.00 1130.50" xmlns="http://www.w3.org/2000/svg" xmlns:xlink="http://www.w3.org/1999/xlink">
<g id="graph0" class="graph" transform="scale(1 1) rotate(0) translate(4 1126.5)">
<title>Graphical Class Hierarchy</title>
<!-- Node1 -->
<g id="node1" class="node"><title>Node1</title>
<g id="a_node1"><a xlink:href="classo2_1_1quality__control_1_1checker_1_1CheckInterface.html" target="_top" xlink:title="Skeleton of a check. ">
<polygon fill="none" stroke="black" points="0,-527 0,-557 130,-557 130,-527 0,-527"/>
<text text-anchor="start" x="8" y="-545" font-family="Helvetica,sans-Serif" font-size="10.00">o2::quality_control</text>
<text text-anchor="middle" x="65" y="-534" font-family="Helvetica,sans-Serif" font-size="10.00">::checker::CheckInterface</text>
</a>
</g>
</g>
<!-- Node2 -->
<g id="node2" class="node"><title>Node2</title>
<g id="a_node2"><a xlink:href="classo2_1_1quality__control_1_1test_1_1TestCheck.html" target="_top" xlink:title="o2::quality_control\l::test::TestCheck">
<polygon fill="none" stroke="black" points="211.5,-1092 211.5,-1122 307.5,-1122 307.5,-1092 211.5,-1092"/>
<text text-anchor="start" x="219.5" y="-1110" font-family="Helvetica,sans-Serif" font-size="10.00">o2::quality_control</text>
<text text-anchor="middle" x="259.5" y="-1099" font-family="Helvetica,sans-Serif" font-size="10.00">::test::TestCheck</text>
</a>
</g>
</g>
<!-- Node1&#45;&gt;Node2 -->
<g id="edge1" class="edge"><title>Node1&#45;&gt;Node2</title>
<path fill="none" stroke="midnightblue" d="M67.1743,-567.421C72.1478,-663.971 94.6163,-1006.35 166,-1083 177.646,-1095.51 194.895,-1101.83 211.353,-1104.93"/>
<polygon fill="midnightblue" stroke="midnightblue" points="70.6556,-566.954 66.6639,-557.14 63.6642,-567.302 70.6556,-566.954"/>
</g>
<!-- Node3 -->
<g id="node3" class="node"><title>Node3</title>
<g id="a_node3"><a xlink:href="classo2_1_1quality__control__modules_1_1common_1_1MeanIsAbove.html" target="_top" xlink:title="Check whether the mean of the plot is above a certain limit. ">
<polygon fill="none" stroke="black" points="175.5,-1043 175.5,-1073 343.5,-1073 343.5,-1043 175.5,-1043"/>
<text text-anchor="start" x="183.5" y="-1061" font-family="Helvetica,sans-Serif" font-size="10.00">o2::quality_control</text>
<text text-anchor="middle" x="259.5" y="-1050" font-family="Helvetica,sans-Serif" font-size="10.00">_modules::common::MeanIsAbove</text>
</a>
</g>
</g>
<!-- Node1&#45;&gt;Node3 -->
<g id="edge2" class="edge"><title>Node1&#45;&gt;Node3</title>
<path fill="none" stroke="midnightblue" d="M67.6861,-567.455C74.2177,-658.36 100.805,-965.232 166,-1034 169.196,-1037.37 172.8,-1040.29 176.683,-1042.82"/>
<polygon fill="midnightblue" stroke="midnightblue" points="71.161,-566.972 66.9722,-557.24 64.178,-567.46 71.161,-566.972"/>
</g>
<!-- Node4 -->
<g id="node4" class="node"><title>Node4</title>
<g id="a_node4"><a xlink:href="classo2_1_1quality__control__modules_1_1common_1_1NonEmpty.html" target="_top" xlink:title="Check whether a plot is empty or not. ">
<polygon fill="none" stroke="black" points="182,-994 182,-1024 337,-1024 337,-994 182,-994"/>
<text text-anchor="start" x="190" y="-1012" font-family="Helvetica,sans-Serif" font-size="10.00">o2::quality_control</text>
<text text-anchor="middle" x="259.5" y="-1001" font-family="Helvetica,sans-Serif" font-size="10.00">_modules::common::NonEmpty</text>
</a>
</g>
</g>
<!-- Node1&#45;&gt;Node4 -->
<g id="edge3" class="edge"><title>Node1&#45;&gt;Node4</title>
<path fill="none" stroke="midnightblue" d="M68.2726,-567.112C76.4209,-651.642 106.878,-923.964 166,-985 170.617,-989.767 176.05,-993.63 181.93,-996.755"/>
<polygon fill="midnightblue" stroke="midnightblue" points="71.753,-566.739 67.3291,-557.112 64.784,-567.397 71.753,-566.739"/>
</g>
<!-- Node5 -->
<g id="node5" class="node"><title>Node5</title>
<g id="a_node5"><a xlink:href="classo2_1_1quality__control__modules_1_1daq_1_1EverIncreasingGraph.html" target="_top" xlink:title="Check whether a plot is empty or not. ">
<polygon fill="none" stroke="black" points="183.5,-934.5 183.5,-975.5 335.5,-975.5 335.5,-934.5 183.5,-934.5"/>
<text text-anchor="start" x="191.5" y="-963.5" font-family="Helvetica,sans-Serif" font-size="10.00">o2::quality_control</text>
<text text-anchor="start" x="191.5" y="-952.5" font-family="Helvetica,sans-Serif" font-size="10.00">_modules::daq::EverIncreasing</text>
<text text-anchor="middle" x="259.5" y="-941.5" font-family="Helvetica,sans-Serif" font-size="10.00">Graph</text>
</a>
</g>
</g>
<!-- Node1&#45;&gt;Node5 -->
<g id="edge4" class="edge"><title>Node1&#45;&gt;Node5</title>
<path fill="none" stroke="midnightblue" d="M69.3737,-567.368C80.0882,-644.325 115.63,-873.096 166,-926 170.99,-931.241 176.914,-935.54 183.316,-939.065"/>
<polygon fill="midnightblue" stroke="midnightblue" points="72.7994,-566.587 67.9742,-557.155 65.8642,-567.537 72.7994,-566.587"/>
</g>
<!-- Node6 -->
<g id="node6" class="node"><title>Node6</title>
<g id="a_node6"><a xlink:href="classo2_1_1quality__control__modules_1_1emcal_1_1DigitCheck.html" target="_top" xlink:title="Check whether a plot is empty or not. ">
<polygon fill="none" stroke="black" points="186.5,-886 186.5,-916 332.5,-916 332.5,-886 186.5,-886"/>
<text text-anchor="start" x="194.5" y="-904" font-family="Helvetica,sans-Serif" font-size="10.00">o2::quality_control</text>
<text text-anchor="middle" x="259.5" y="-893" font-family="Helvetica,sans-Serif" font-size="10.00">_modules::emcal::DigitCheck</text>
</a>
</g>
</g>
<!-- Node1&#45;&gt;Node6 -->
<g id="edge5" class="edge"><title>Node1&#45;&gt;Node6</title>
<path fill="none" stroke="midnightblue" d="M65.6721,-567.426C66.3165,-629.725 76.9777,-791.146 166,-877 171.852,-882.643 178.852,-887.006 186.347,-890.37"/>
<polygon fill="midnightblue" stroke="midnightblue" points="69.172,-567.307 65.6496,-557.315 62.172,-567.322 69.172,-567.307"/>
</g>
<!-- Node7 -->
<g id="node7" class="node"><title>Node7</title>
<g id="a_node7"><a xlink:href="classo2_1_1quality__control__modules_1_1emcal_1_1RawCheck.html" target="_top" xlink:title="EMCAL raw data check It is final because there is no reason to derive from it. Just remove it if need...">
<polygon fill="none" stroke="black" points="186.5,-837 186.5,-867 332.5,-867 332.5,-837 186.5,-837"/>
<text text-anchor="start" x="194.5" y="-855" font-family="Helvetica,sans-Serif" font-size="10.00">o2::quality_control</text>
<text text-anchor="middle" x="259.5" y="-844" font-family="Helvetica,sans-Serif" font-size="10.00">_modules::emcal::RawCheck</text>
</a>
</g>
</g>
<!-- Node1&#45;&gt;Node7 -->
<g id="edge6" class="edge"><title>Node1&#45;&gt;Node7</title>
<path fill="none" stroke="midnightblue" d="M67.1705,-567.1C71.1604,-622.684 88.7282,-756.854 166,-828 171.859,-833.394 178.772,-837.609 186.139,-840.898"/>
<polygon fill="midnightblue" stroke="midnightblue" points="70.6608,-566.834 66.5399,-557.073 63.6746,-567.273 70.6608,-566.834"/>
</g>
<!-- Node8 -->
<g id="node8" class="node"><title>Node8</title>
<g id="a_node8"><a xlink:href="classo2_1_1quality__control__modules_1_1example_1_1FakeCheck.html" target="_top" xlink:title="Check whether a plot is empty or not. ">
<polygon fill="none" stroke="black" points="180.5,-788 180.5,-818 338.5,-818 338.5,-788 180.5,-788"/>
<text text-anchor="start" x="188.5" y="-806" font-family="Helvetica,sans-Serif" font-size="10.00">o2::quality_control</text>
<text text-anchor="middle" x="259.5" y="-795" font-family="Helvetica,sans-Serif" font-size="10.00">_modules::example::FakeCheck</text>
</a>
</g>
</g>
<!-- Node1&#45;&gt;Node8 -->
<g id="edge7" class="edge"><title>Node1&#45;&gt;Node8</title>
<path fill="none" stroke="midnightblue" d="M69.2397,-567.122C76.86,-615.632 100.504,-722.397 166,-779 170.268,-782.688 175.034,-785.82 180.09,-788.479"/>
<polygon fill="midnightblue" stroke="midnightblue" points="72.6927,-566.546 67.7744,-557.162 65.7672,-567.565 72.6927,-566.546"/>
</g>
<!-- Node9 -->
<g id="node9" class="node"><title>Node9</title>
<g id="a_node9"><a xlink:href="classo2_1_1quality__control__modules_1_1mft_1_1BasicClusterQcCheck.html" target="_top" xlink:title="MFT Cluster Check. ">
<polygon fill="none" stroke="black" points="189,-728.5 189,-769.5 330,-769.5 330,-728.5 189,-728.5"/>
<text text-anchor="start" x="197" y="-757.5" font-family="Helvetica,sans-Serif" font-size="10.00">o2::quality_control</text>
<text text-anchor="start" x="197" y="-746.5" font-family="Helvetica,sans-Serif" font-size="10.00">_modules::mft::BasicCluster</text>
<text text-anchor="middle" x="259.5" y="-735.5" font-family="Helvetica,sans-Serif" font-size="10.00">QcCheck</text>
</a>
</g>
</g>
<!-- Node1&#45;&gt;Node9 -->
<g id="edge8" class="edge"><title>Node1&#45;&gt;Node9</title>
<path fill="none" stroke="midnightblue" d="M73.4993,-566.831C86.2882,-605.031 115.911,-678.073 166,-719 172.798,-724.555 180.651,-729.091 188.85,-732.792"/>
<polygon fill="midnightblue" stroke="midnightblue" points="76.74,-565.477 70.3356,-557.037 70.0788,-567.629 76.74,-565.477"/>
</g>
<!-- Node10 -->
<g id="node10" class="node"><title>Node10</title>
<g id="a_node10"><a xlink:href="classo2_1_1quality__control__modules_1_1mft_1_1BasicDigitQcCheck.html" target="_top" xlink:title="MFT Digit Check. ">
<polygon fill="none" stroke="black" points="188,-668.5 188,-709.5 331,-709.5 331,-668.5 188,-668.5"/>
<text text-anchor="start" x="196" y="-697.5" font-family="Helvetica,sans-Serif" font-size="10.00">o2::quality_control</text>
<text text-anchor="start" x="196" y="-686.5" font-family="Helvetica,sans-Serif" font-size="10.00">_modules::mft::BasicDigitQc</text>
<text text-anchor="middle" x="259.5" y="-675.5" font-family="Helvetica,sans-Serif" font-size="10.00">Check</text>
</a>
</g>
</g>
<!-- Node1&#45;&gt;Node10 -->
<g id="edge9" class="edge"><title>Node1&#45;&gt;Node10</title>
<path fill="none" stroke="midnightblue" d="M80.5898,-565.901C97.8696,-592.296 129.023,-634.317 166,-659 172.74,-663.499 180.204,-667.366 187.885,-670.679"/>
<polygon fill="midnightblue" stroke="midnightblue" points="83.4062,-563.808 75.0694,-557.27 77.5093,-567.58 83.4062,-563.808"/>
</g>
<!-- Node11 -->
<g id="node11" class="node"><title>Node11</title>
<g id="a_node11"><a xlink:href="classo2_1_1quality__control__modules_1_1mft_1_1BasicTrackQcCheck.html" target="_top" xlink:title="MFT Track Check. ">
<polygon fill="none" stroke="black" points="186,-608.5 186,-649.5 333,-649.5 333,-608.5 186,-608.5"/>
<text text-anchor="start" x="194" y="-637.5" font-family="Helvetica,sans-Serif" font-size="10.00">o2::quality_control</text>
<text text-anchor="start" x="194" y="-626.5" font-family="Helvetica,sans-Serif" font-size="10.00">_modules::mft::BasicTrackQc</text>
<text text-anchor="middle" x="259.5" y="-615.5" font-family="Helvetica,sans-Serif" font-size="10.00">Check</text>
</a>
</g>
</g>
<!-- Node1&#45;&gt;Node11 -->
<g id="edge10" class="edge"><title>Node1&#45;&gt;Node11</title>
<path fill="none" stroke="midnightblue" d="M98.1691,-562.579C117.355,-574.277 142.486,-588.616 166,-599 173.567,-602.342 181.627,-605.503 189.713,-608.431"/>
<polygon fill="midnightblue" stroke="midnightblue" points="99.8783,-559.521 89.5306,-557.245 96.201,-565.477 99.8783,-559.521"/>
</g>
<!-- Node12 -->
<g id="node12" class="node"><title>Node12</title>
<g id="a_node12"><a xlink:href="classo2_1_1quality__control__modules_1_1muonchambers_1_1PedestalsCheck.html" target="_top" xlink:title="Check whether a plot is empty or not. ">
<polygon fill="none" stroke="black" points="194,-548.5 194,-589.5 325,-589.5 325,-548.5 194,-548.5"/>
<text text-anchor="start" x="202" y="-577.5" font-family="Helvetica,sans-Serif" font-size="10.00">o2::quality_control</text>
<text text-anchor="start" x="202" y="-566.5" font-family="Helvetica,sans-Serif" font-size="10.00">_modules::muonchambers</text>
<text text-anchor="middle" x="259.5" y="-555.5" font-family="Helvetica,sans-Serif" font-size="10.00">::PedestalsCheck</text>
</a>
</g>
</g>
<!-- Node1&#45;&gt;Node12 -->
<g id="edge11" class="edge"><title>Node1&#45;&gt;Node12</title>
<path fill="none" stroke="midnightblue" d="M140.324,-552.425C157.924,-554.893 176.557,-557.507 193.695,-559.91"/>
<polygon fill="midnightblue" stroke="midnightblue" points="140.489,-548.914 130.1,-550.991 139.517,-555.846 140.489,-548.914"/>
</g>
<!-- Node13 -->
<g id="node13" class="node"><title>Node13</title>
<g id="a_node13"><a xlink:href="classo2_1_1quality__control__modules_1_1phos_1_1DigitCheck.html" target="_top" xlink:title="Check mos: appearence of dead regions in occupancy plots, mean and RMS etc. ">
<polygon fill="none" stroke="black" points="189.5,-500 189.5,-530 329.5,-530 329.5,-500 189.5,-500"/>
<text text-anchor="start" x="197.5" y="-518" font-family="Helvetica,sans-Serif" font-size="10.00">o2::quality_control</text>
<text text-anchor="middle" x="259.5" y="-507" font-family="Helvetica,sans-Serif" font-size="10.00">_modules::phos::DigitCheck</text>
</a>
</g>
</g>
<!-- Node1&#45;&gt;Node13 -->
<g id="edge12" class="edge"><title>Node1&#45;&gt;Node13</title>
<path fill="none" stroke="midnightblue" d="M140.063,-531.612C156.276,-529.338 173.379,-526.939 189.39,-524.693"/>
<polygon fill="midnightblue" stroke="midnightblue" points="139.517,-528.154 130.1,-533.009 140.489,-535.086 139.517,-528.154"/>
</g>
<!-- Node14 -->
<g id="node14" class="node"><title>Node14</title>
<g id="a_node14"><a xlink:href="classo2_1_1quality__control__modules_1_1phos_1_1RawCheck.html" target="_top" xlink:title="PHOS raw data check It is final because there is no reason to derive from it. Just remove it if neede...">
<polygon fill="none" stroke="black" points="189.5,-451 189.5,-481 329.5,-481 329.5,-451 189.5,-451"/>
<text text-anchor="start" x="197.5" y="-469" font-family="Helvetica,sans-Serif" font-size="10.00">o2::quality_control</text>
<text text-anchor="middle" x="259.5" y="-458" font-family="Helvetica,sans-Serif" font-size="10.00">_modules::phos::RawCheck</text>
</a>
</g>
</g>
<!-- Node1&#45;&gt;Node14 -->
<g id="edge13" class="edge"><title>Node1&#45;&gt;Node14</title>
<path fill="none" stroke="midnightblue" d="M100.866,-521.958C119.716,-511.707 143.652,-499.611 166,-491 175.469,-487.351 185.677,-484.022 195.735,-481.067"/>
<polygon fill="midnightblue" stroke="midnightblue" points="99.1179,-518.925 92.0508,-526.819 102.498,-525.055 99.1179,-518.925"/>
</g>
<!-- Node15 -->
<g id="node15" class="node"><title>Node15</title>
<g id="a_node15"><a xlink:href="classo2_1_1quality__control__modules_1_1skeleton_1_1SkeletonCheck.html" target="_top" xlink:title="Example QC Check. ">
<polygon fill="none" stroke="black" points="206,-391.5 206,-432.5 313,-432.5 313,-391.5 206,-391.5"/>
<text text-anchor="start" x="214" y="-420.5" font-family="Helvetica,sans-Serif" font-size="10.00">o2::quality_control</text>
<text text-anchor="start" x="214" y="-409.5" font-family="Helvetica,sans-Serif" font-size="10.00">_modules::skeleton::</text>
<text text-anchor="middle" x="259.5" y="-398.5" font-family="Helvetica,sans-Serif" font-size="10.00">SkeletonCheck</text>
</a>
</g>
</g>
<!-- Node1&#45;&gt;Node15 -->
<g id="edge14" class="edge"><title>Node1&#45;&gt;Node15</title>
<path fill="none" stroke="midnightblue" d="M83.6419,-518.849C101.962,-496.284 132.581,-462.467 166,-442 178.094,-434.594 192.21,-428.818 205.719,-424.4"/>
<polygon fill="midnightblue" stroke="midnightblue" points="80.7281,-516.89 77.2426,-526.895 86.2066,-521.248 80.7281,-516.89"/>
</g>
<!-- Node16 -->
<g id="node16" class="node"><title>Node16</title>
<g id="a_node16"><a xlink:href="classo2_1_1quality__control__modules_1_1tof_1_1CheckCompressedData.html" target="_top" xlink:title="Checker for the data produced by the TOF compressor (i.e. checking raw data) ">
<polygon fill="none" stroke="black" points="166,-343 166,-373 353,-373 353,-343 166,-343"/>
<text text-anchor="start" x="174" y="-361" font-family="Helvetica,sans-Serif" font-size="10.00">o2::quality_control</text>
<text text-anchor="middle" x="259.5" y="-350" font-family="Helvetica,sans-Serif" font-size="10.00">_modules::tof::CheckCompressedData</text>
</a>
</g>
</g>
<!-- Node1&#45;&gt;Node16 -->
<g id="edge15" class="edge"><title>Node1&#45;&gt;Node16</title>
<path fill="none" stroke="midnightblue" d="M74.5901,-517.416C88.2654,-481.965 118.407,-416.922 166,-382 170.682,-378.565 175.812,-375.62 181.181,-373.096"/>
<polygon fill="midnightblue" stroke="midnightblue" points="71.234,-516.399 71.0208,-526.991 77.7931,-518.844 71.234,-516.399"/>
</g>
<!-- Node17 -->
<g id="node17" class="node"><title>Node17</title>
<g id="a_node17"><a xlink:href="classo2_1_1quality__control__modules_1_1tof_1_1CheckDiagnostics.html" target="_top" xlink:title="Checker for diagnostic histogram of TOF Raw data. ">
<polygon fill="none" stroke="black" points="178.5,-294 178.5,-324 340.5,-324 340.5,-294 178.5,-294"/>
<text text-anchor="start" x="186.5" y="-312" font-family="Helvetica,sans-Serif" font-size="10.00">o2::quality_control</text>
<text text-anchor="middle" x="259.5" y="-301" font-family="Helvetica,sans-Serif" font-size="10.00">_modules::tof::CheckDiagnostics</text>
</a>
</g>
</g>
<!-- Node1&#45;&gt;Node17 -->
<g id="edge16" class="edge"><title>Node1&#45;&gt;Node17</title>
<path fill="none" stroke="midnightblue" d="M70.9339,-516.929C80.8976,-473.073 107.636,-382.495 166,-334 170.606,-330.173 175.746,-326.927 181.178,-324.176"/>
<polygon fill="midnightblue" stroke="midnightblue" points="67.4977,-516.26 68.8031,-526.774 74.3393,-517.741 67.4977,-516.26"/>
</g>
<!-- Node18 -->
<g id="node18" class="node"><title>Node18</title>
<g id="a_node18"><a xlink:href="classo2_1_1quality__control__modules_1_1tof_1_1CheckRawMultiplicity.html" target="_top" xlink:title="Check whether a plot is empty or not. ">
<polygon fill="none" stroke="black" points="171,-245 171,-275 348,-275 348,-245 171,-245"/>
<text text-anchor="start" x="179" y="-263" font-family="Helvetica,sans-Serif" font-size="10.00">o2::quality_control</text>
<text text-anchor="middle" x="259.5" y="-252" font-family="Helvetica,sans-Serif" font-size="10.00">_modules::tof::CheckRawMultiplicity</text>
</a>
</g>
</g>
<!-- Node1&#45;&gt;Node18 -->
<g id="edge17" class="edge"><title>Node1&#45;&gt;Node18</title>
<path fill="none" stroke="midnightblue" d="M68.3896,-516.686C74.6339,-465.175 96.1501,-347.742 166,-285 170.331,-281.109 175.208,-277.815 180.398,-275.027"/>
<polygon fill="midnightblue" stroke="midnightblue" points="64.8791,-516.586 67.2487,-526.913 71.8359,-517.362 64.8791,-516.586"/>
</g>
<!-- Node19 -->
<g id="node19" class="node"><title>Node19</title>
<g id="a_node19"><a xlink:href="classo2_1_1quality__control__modules_1_1tof_1_1CheckRawTime.html" target="_top" xlink:title="o2::quality_control\l_modules::tof::CheckRawTime">
<polygon fill="none" stroke="black" points="183.5,-196 183.5,-226 335.5,-226 335.5,-196 183.5,-196"/>
<text text-anchor="start" x="191.5" y="-214" font-family="Helvetica,sans-Serif" font-size="10.00">o2::quality_control</text>
<text text-anchor="middle" x="259.5" y="-203" font-family="Helvetica,sans-Serif" font-size="10.00">_modules::tof::CheckRawTime</text>
</a>
</g>
</g>
<!-- Node1&#45;&gt;Node19 -->
<g id="edge18" class="edge"><title>Node1&#45;&gt;Node19</title>
<path fill="none" stroke="midnightblue" d="M66.5617,-516.853C69.2695,-458.613 84.3227,-313.545 166,-236 171.067,-231.189 176.961,-227.284 183.275,-224.117"/>
<polygon fill="midnightblue" stroke="midnightblue" points="63.0589,-516.865 66.1775,-526.99 70.0538,-517.13 63.0589,-516.865"/>
</g>
<!-- Node20 -->
<g id="node20" class="node"><title>Node20</title>
<g id="a_node20"><a xlink:href="classo2_1_1quality__control__modules_1_1tof_1_1CheckRawToT.html" target="_top" xlink:title="o2::quality_control\l_modules::tof::CheckRawToT">
<polygon fill="none" stroke="black" points="185.5,-147 185.5,-177 333.5,-177 333.5,-147 185.5,-147"/>
<text text-anchor="start" x="193.5" y="-165" font-family="Helvetica,sans-Serif" font-size="10.00">o2::quality_control</text>
<text text-anchor="middle" x="259.5" y="-154" font-family="Helvetica,sans-Serif" font-size="10.00">_modules::tof::CheckRawToT</text>
</a>
</g>
</g>
<!-- Node1&#45;&gt;Node20 -->
<g id="edge19" class="edge"><title>Node1&#45;&gt;Node20</title>
<path fill="none" stroke="midnightblue" d="M65.2203,-516.911C64.6511,-452.446 72.4166,-279.596 166,-187 171.558,-181.501 178.193,-177.178 185.322,-173.786"/>
<polygon fill="midnightblue" stroke="midnightblue" points="61.7218,-517.033 65.3877,-526.974 68.7208,-516.917 61.7218,-517.033"/>
</g>
<!-- Node21 -->
<g id="node21" class="node"><title>Node21</title>
<g id="a_node21"><a xlink:href="classo2_1_1quality__control__modules_1_1tpc_1_1PIDClusterCheck.html" target="_top" xlink:title="Check whether the cluster number for a track is smaller than 159 in PID task. ">
<polygon fill="none" stroke="black" points="179,-98 179,-128 340,-128 340,-98 179,-98"/>
<text text-anchor="start" x="187" y="-116" font-family="Helvetica,sans-Serif" font-size="10.00">o2::quality_control</text>
<text text-anchor="middle" x="259.5" y="-105" font-family="Helvetica,sans-Serif" font-size="10.00">_modules::tpc::PIDClusterCheck</text>
</a>
</g>
</g>
<!-- Node1&#45;&gt;Node21 -->
<g id="edge20" class="edge"><title>Node1&#45;&gt;Node21</title>
<path fill="none" stroke="midnightblue" d="M68.8973,-516.806C78.5442,-437.204 112.053,-193.109 166,-138 169.84,-134.077 174.227,-130.75 178.957,-127.931"/>
<polygon fill="midnightblue" stroke="midnightblue" points="65.4013,-516.566 67.6948,-526.909 72.3522,-517.393 65.4013,-516.566"/>
</g>
<!-- Node22 -->
<g id="node22" class="node"><title>Node22</title>
<g id="a_node22"><a xlink:href="classo2_1_1quality__control__modules_1_1tpc_1_1TrackClusterCheck.html" target="_top" xlink:title="Check whether the cluster number for a track is smaller than 40 or 20 in Track task. ">
<polygon fill="none" stroke="black" points="189.5,-38.5 189.5,-79.5 329.5,-79.5 329.5,-38.5 189.5,-38.5"/>
<text text-anchor="start" x="197.5" y="-67.5" font-family="Helvetica,sans-Serif" font-size="10.00">o2::quality_control</text>
<text text-anchor="start" x="197.5" y="-56.5" font-family="Helvetica,sans-Serif" font-size="10.00">_modules::tpc::TrackCluster</text>
<text text-anchor="middle" x="259.5" y="-45.5" font-family="Helvetica,sans-Serif" font-size="10.00">Check</text>
</a>
</g>
</g>
<!-- Node1&#45;&gt;Node22 -->
<g id="edge21" class="edge"><title>Node1&#45;&gt;Node22</title>
<path fill="none" stroke="midnightblue" d="M68.3303,-516.46C76.6647,-430.467 107.649,-153.263 166,-89 172.469,-81.8757 180.643,-76.4366 189.442,-72.2856"/>
<polygon fill="midnightblue" stroke="midnightblue" points="64.8255,-516.346 67.3645,-526.632 71.7942,-517.007 64.8255,-516.346"/>
</g>
<!-- Node23 -->
<g id="node23" class="node"><title>Node23</title>
<g id="a_node23"><a xlink:href="classTestCheck.html" target="_top" xlink:title="TestCheck">
<polygon fill="none" stroke="black" points="227,-0.5 227,-19.5 292,-19.5 292,-0.5 227,-0.5"/>
<text text-anchor="middle" x="259.5" y="-7.5" font-family="Helvetica,sans-Serif" font-size="10.00">TestCheck</text>
</a>
</g>
</g>
<!-- Node1&#45;&gt;Node23 -->
<g id="edge22" class="edge"><title>Node1&#45;&gt;Node23</title>
<path fill="none" stroke="midnightblue" d="M67.3285,-516.574C72.7459,-422.978 96.2973,-99.4082 166,-29 181.686,-13.155 206.812,-8.783 226.92,-8.16582"/>
<polygon fill="midnightblue" stroke="midnightblue" points="63.8197,-516.635 66.7559,-526.815 70.8088,-517.026 63.8197,-516.635"/>
</g>
</g>
</svg>
