<?xml version="1.0" encoding="UTF-8" standalone="no"?>
<!DOCTYPE svg PUBLIC "-//W3C//DTD SVG 1.1//EN"
 "http://www.w3.org/Graphics/SVG/1.1/DTD/svg11.dtd">
<!-- Generated by graphviz version 2.38.0 (20140413.2041)
 -->
<!-- Title: Graphical Class Hierarchy Pages: 1 -->
<svg width="357pt" height="344pt"
 viewBox="0.00 0.00 357.00 343.50" xmlns="http://www.w3.org/2000/svg" xmlns:xlink="http://www.w3.org/1999/xlink">
<g id="graph0" class="graph" transform="scale(1 1) rotate(0) translate(4 339.5)">
<title>Graphical Class Hierarchy</title>
<!-- Node1 -->
<g id="node1" class="node"><title>Node1</title>
<g id="a_node1"><a xlink:href="classo2_1_1quality__control_1_1postprocessing_1_1Reductor.html" target="_top" xlink:title="An interface for storing data derived from QC objects into a TTree. ">
<polygon fill="none" stroke="black" points="0,-168.5 0,-198.5 134,-198.5 134,-168.5 0,-168.5"/>
<text text-anchor="start" x="8" y="-186.5" font-family="Helvetica,sans-Serif" font-size="10.00">o2::quality_control</text>
<text text-anchor="middle" x="67" y="-175.5" font-family="Helvetica,sans-Serif" font-size="10.00">::postprocessing::Reductor</text>
</a>
</g>
</g>
<!-- Node2 -->
<g id="node2" class="node"><title>Node2</title>
<g id="a_node2"><a xlink:href="classMyReductor.html" target="_top" xlink:title="MyReductor">
<polygon fill="none" stroke="black" points="224.5,-316 224.5,-335 294.5,-335 294.5,-316 224.5,-316"/>
<text text-anchor="middle" x="259.5" y="-323" font-family="Helvetica,sans-Serif" font-size="10.00">MyReductor</text>
</a>
</g>
</g>
<!-- Node1&#45;&gt;Node2 -->
<g id="edge1" class="edge"><title>Node1&#45;&gt;Node2</title>
<path fill="none" stroke="midnightblue" d="M81.2034,-207.637C97.9972,-235.94 129.717,-282.08 170,-306.5 186.26,-316.357 206.921,-321.141 224.189,-323.445"/>
<polygon fill="midnightblue" stroke="midnightblue" points="84.1207,-205.69 76.0895,-198.78 78.0585,-209.19 84.1207,-205.69"/>
</g>
<!-- Node3 -->
<g id="node3" class="node"><title>Node3</title>
<g id="a_node3"><a xlink:href="classo2_1_1quality__control__modules_1_1common_1_1QualityReductor.html" target="_top" xlink:title="A Reductor of QualityObjects, stores a name and level of a Quality. ">
<polygon fill="none" stroke="black" points="170,-266.5 170,-296.5 349,-296.5 349,-266.5 170,-266.5"/>
<text text-anchor="start" x="178" y="-284.5" font-family="Helvetica,sans-Serif" font-size="10.00">o2::quality_control</text>
<text text-anchor="middle" x="259.5" y="-273.5" font-family="Helvetica,sans-Serif" font-size="10.00">_modules::common::QualityReductor</text>
</a>
</g>
</g>
<!-- Node1&#45;&gt;Node3 -->
<g id="edge2" class="edge"><title>Node1&#45;&gt;Node3</title>
<path fill="none" stroke="midnightblue" d="M92.6577,-205.366C112.361,-221.812 141.334,-243.786 170,-257.5 177.037,-260.866 184.622,-263.823 192.288,-266.404"/>
<polygon fill="midnightblue" stroke="midnightblue" points="94.6956,-202.504 84.8089,-198.696 90.1627,-207.839 94.6956,-202.504"/>
</g>
<!-- Node4 -->
<g id="node4" class="node"><title>Node4</title>
<g id="a_node4"><a xlink:href="classo2_1_1quality__control__modules_1_1common_1_1TH1Reductor.html" target="_top" xlink:title="A Reductor which obtains the most popular characteristics of TH1. ">
<polygon fill="none" stroke="black" points="176,-217.5 176,-247.5 343,-247.5 343,-217.5 176,-217.5"/>
<text text-anchor="start" x="184" y="-235.5" font-family="Helvetica,sans-Serif" font-size="10.00">o2::quality_control</text>
<text text-anchor="middle" x="259.5" y="-224.5" font-family="Helvetica,sans-Serif" font-size="10.00">_modules::common::TH1Reductor</text>
</a>
</g>
</g>
<!-- Node1&#45;&gt;Node4 -->
<g id="edge3" class="edge"><title>Node1&#45;&gt;Node4</title>
<path fill="none" stroke="midnightblue" d="M136.229,-201.05C157.149,-206.431 179.964,-212.299 200.16,-217.494"/>
<polygon fill="midnightblue" stroke="midnightblue" points="137.008,-197.636 126.451,-198.535 135.264,-204.415 137.008,-197.636"/>
</g>
<!-- Node5 -->
<g id="node5" class="node"><title>Node5</title>
<g id="a_node5"><a xlink:href="classo2_1_1quality__control__modules_1_1common_1_1TH2Reductor.html" target="_top" xlink:title="A Reductor which obtains the most popular characteristics of TH2. ">
<polygon fill="none" stroke="black" points="176,-168.5 176,-198.5 343,-198.5 343,-168.5 176,-168.5"/>
<text text-anchor="start" x="184" y="-186.5" font-family="Helvetica,sans-Serif" font-size="10.00">o2::quality_control</text>
<text text-anchor="middle" x="259.5" y="-175.5" font-family="Helvetica,sans-Serif" font-size="10.00">_modules::common::TH2Reductor</text>
</a>
</g>
</g>
<!-- Node1&#45;&gt;Node5 -->
<g id="edge4" class="edge"><title>Node1&#45;&gt;Node5</title>
<path fill="none" stroke="midnightblue" d="M144.309,-183.5C154.648,-183.5 165.297,-183.5 175.742,-183.5"/>
<polygon fill="midnightblue" stroke="midnightblue" points="144.093,-180 134.093,-183.5 144.093,-187 144.093,-180"/>
</g>
<!-- Node6 -->
<g id="node6" class="node"><title>Node6</title>
<g id="a_node6"><a xlink:href="classo2_1_1quality__control__modules_1_1common_1_1THnSparseReductor.html" target="_top" xlink:title="A Reductor which obtains the most popular characteristics of THnSparse. ">
<polygon fill="none" stroke="black" points="180.5,-109 180.5,-150 338.5,-150 338.5,-109 180.5,-109"/>
<text text-anchor="start" x="188.5" y="-138" font-family="Helvetica,sans-Serif" font-size="10.00">o2::quality_control</text>
<text text-anchor="start" x="188.5" y="-127" font-family="Helvetica,sans-Serif" font-size="10.00">_modules::common::THnSparse</text>
<text text-anchor="middle" x="259.5" y="-116" font-family="Helvetica,sans-Serif" font-size="10.00">Reductor</text>
</a>
</g>
</g>
<!-- Node1&#45;&gt;Node6 -->
<g id="edge5" class="edge"><title>Node1&#45;&gt;Node6</title>
<path fill="none" stroke="midnightblue" d="M130.721,-165.721C148.453,-160.694 167.894,-155.184 186.143,-150.011"/>
<polygon fill="midnightblue" stroke="midnightblue" points="129.731,-162.363 121.065,-168.458 131.64,-169.098 129.731,-162.363"/>
</g>
<!-- Node7 -->
<g id="node7" class="node"><title>Node7</title>
<g id="a_node7"><a xlink:href="classo2_1_1quality__control__modules_1_1emcal_1_1DigitOccupancyReductor.html" target="_top" xlink:title="A Reductor which obtains the most popular characteristics of TH2. ">
<polygon fill="none" stroke="black" points="176,-49 176,-90 343,-90 343,-49 176,-49"/>
<text text-anchor="start" x="184" y="-78" font-family="Helvetica,sans-Serif" font-size="10.00">o2::quality_control</text>
<text text-anchor="start" x="184" y="-67" font-family="Helvetica,sans-Serif" font-size="10.00">_modules::emcal::DigitOccupancy</text>
<text text-anchor="middle" x="259.5" y="-56" font-family="Helvetica,sans-Serif" font-size="10.00">Reductor</text>
</a>
</g>
</g>
<!-- Node1&#45;&gt;Node7 -->
<g id="edge6" class="edge"><title>Node1&#45;&gt;Node7</title>
<path fill="none" stroke="midnightblue" d="M90.1414,-161.186C109.699,-142.53 139.74,-116.342 170,-99.5 176.237,-96.0285 182.945,-92.8641 189.777,-90.0038"/>
<polygon fill="midnightblue" stroke="midnightblue" points="87.6738,-158.703 82.9311,-168.177 92.5468,-163.729 87.6738,-158.703"/>
</g>
<!-- Node8 -->
<g id="node8" class="node"><title>Node8</title>
<g id="a_node8"><a xlink:href="classo2_1_1quality__control__modules_1_1tpc_1_1ROCReductor.html" target="_top" xlink:title="A Reductor of ROC, stores mean, standard deviation and median for each ROC. ">
<polygon fill="none" stroke="black" points="186.5,-0.5 186.5,-30.5 332.5,-30.5 332.5,-0.5 186.5,-0.5"/>
<text text-anchor="start" x="194.5" y="-18.5" font-family="Helvetica,sans-Serif" font-size="10.00">o2::quality_control</text>
<text text-anchor="middle" x="259.5" y="-7.5" font-family="Helvetica,sans-Serif" font-size="10.00">_modules::tpc::ROCReductor</text>
</a>
</g>
</g>
<!-- Node1&#45;&gt;Node8 -->
<g id="edge7" class="edge"><title>Node1&#45;&gt;Node8</title>
<path fill="none" stroke="midnightblue" d="M78.7557,-159.043C94.2278,-126.738 125.841,-70.341 170,-39.5 174.96,-36.0362 180.397,-33.0719 186.06,-30.5351"/>
<polygon fill="midnightblue" stroke="midnightblue" points="75.5217,-157.697 74.4762,-168.241 81.8683,-160.651 75.5217,-157.697"/>
</g>
</g>
</svg>
