<?xml version="1.0" encoding="UTF-8" standalone="no"?>
<!DOCTYPE svg PUBLIC "-//W3C//DTD SVG 1.1//EN"
 "http://www.w3.org/Graphics/SVG/1.1/DTD/svg11.dtd">
<!-- Generated by graphviz version 2.38.0 (20140413.2041)
 -->
<!-- Title: Modules/Common/src/MeanIsAbove.cxx Pages: 1 -->
<svg width="870pt" height="263pt"
 viewBox="0.00 0.00 870.00 263.00" xmlns="http://www.w3.org/2000/svg" xmlns:xlink="http://www.w3.org/1999/xlink">
<g id="graph0" class="graph" transform="scale(1 1) rotate(0) translate(4 259)">
<title>Modules/Common/src/MeanIsAbove.cxx</title>
<!-- Node1 -->
<g id="node1" class="node"><title>Node1</title>
<polygon fill="#bfbfbf" stroke="black" points="450,-224.5 450,-254.5 563,-254.5 563,-224.5 450,-224.5"/>
<text text-anchor="start" x="458" y="-242.5" font-family="Helvetica,sans-Serif" font-size="10.00">Modules/Common/src</text>
<text text-anchor="middle" x="506.5" y="-231.5" font-family="Helvetica,sans-Serif" font-size="10.00">/MeanIsAbove.cxx</text>
</g>
<!-- Node2 -->
<g id="node2" class="node"><title>Node2</title>
<g id="a_node2"><a xlink:href="MeanIsAbove_8h.html" target="_top" xlink:title="Common/MeanIsAbove.h">
<polygon fill="none" stroke="black" points="298.5,-168.5 298.5,-187.5 426.5,-187.5 426.5,-168.5 298.5,-168.5"/>
<text text-anchor="middle" x="362.5" y="-175.5" font-family="Helvetica,sans-Serif" font-size="10.00">Common/MeanIsAbove.h</text>
</a>
</g>
</g>
<!-- Node1&#45;&gt;Node2 -->
<g id="edge1" class="edge"><title>Node1&#45;&gt;Node2</title>
<path fill="none" stroke="midnightblue" d="M472.374,-224.399C448.213,-214.416 416.098,-201.147 392.833,-191.534"/>
<polygon fill="midnightblue" stroke="midnightblue" points="394.032,-188.242 383.453,-187.658 391.359,-194.711 394.032,-188.242"/>
</g>
<!-- Node8 -->
<g id="node8" class="node"><title>Node8</title>
<g id="a_node8"><a xlink:href="MonitorObject_8h.html" target="_top" xlink:title="QualityControl/MonitorObject.h">
<polygon fill="none" stroke="black" points="56,-56.5 56,-75.5 207,-75.5 207,-56.5 56,-56.5"/>
<text text-anchor="middle" x="131.5" y="-63.5" font-family="Helvetica,sans-Serif" font-size="10.00">QualityControl/MonitorObject.h</text>
</a>
</g>
</g>
<!-- Node1&#45;&gt;Node8 -->
<g id="edge21" class="edge"><title>Node1&#45;&gt;Node8</title>
<path fill="none" stroke="midnightblue" d="M449.869,-233.788C401.499,-228.008 331.126,-215.354 275.5,-188 221.031,-161.215 169.742,-109.533 145.732,-83.2312"/>
<polygon fill="midnightblue" stroke="midnightblue" points="148.21,-80.7519 138.926,-75.6473 143,-85.4274 148.21,-80.7519"/>
</g>
<!-- Node11 -->
<g id="node11" class="node"><title>Node11</title>
<g id="a_node11"><a xlink:href="Quality_8h.html" target="_top" xlink:title="QualityControl/Quality.h">
<polygon fill="none" stroke="black" points="264,-56.5 264,-75.5 385,-75.5 385,-56.5 264,-56.5"/>
<text text-anchor="middle" x="324.5" y="-63.5" font-family="Helvetica,sans-Serif" font-size="10.00">QualityControl/Quality.h</text>
</a>
</g>
</g>
<!-- Node1&#45;&gt;Node11 -->
<g id="edge22" class="edge"><title>Node1&#45;&gt;Node11</title>
<path fill="none" stroke="midnightblue" d="M449.945,-233.215C392.478,-226.537 309.193,-212.802 289.5,-188 268.496,-161.547 278.538,-143.949 289.5,-112 293.219,-101.161 300.733,-90.9216 307.849,-82.9566"/>
<polygon fill="midnightblue" stroke="midnightblue" points="310.554,-85.1922 314.944,-75.5497 305.499,-80.3498 310.554,-85.1922"/>
</g>
<!-- Node12 -->
<g id="node12" class="node"><title>Node12</title>
<polygon fill="none" stroke="#bfbfbf" points="444.5,-168.5 444.5,-187.5 500.5,-187.5 500.5,-168.5 444.5,-168.5"/>
<text text-anchor="middle" x="472.5" y="-175.5" font-family="Helvetica,sans-Serif" font-size="10.00">TClass.h</text>
</g>
<!-- Node1&#45;&gt;Node12 -->
<g id="edge17" class="edge"><title>Node1&#45;&gt;Node12</title>
<path fill="none" stroke="midnightblue" d="M498.442,-224.399C493.655,-216.021 487.544,-205.327 482.456,-196.423"/>
<polygon fill="midnightblue" stroke="midnightblue" points="485.448,-194.604 477.447,-187.658 479.37,-198.077 485.448,-194.604"/>
</g>
<!-- Node13 -->
<g id="node13" class="node"><title>Node13</title>
<polygon fill="none" stroke="#bfbfbf" points="518.5,-168.5 518.5,-187.5 562.5,-187.5 562.5,-168.5 518.5,-168.5"/>
<text text-anchor="middle" x="540.5" y="-175.5" font-family="Helvetica,sans-Serif" font-size="10.00">TH1.h</text>
</g>
<!-- Node1&#45;&gt;Node13 -->
<g id="edge18" class="edge"><title>Node1&#45;&gt;Node13</title>
<path fill="none" stroke="midnightblue" d="M514.558,-224.399C519.345,-216.021 525.456,-205.327 530.544,-196.423"/>
<polygon fill="midnightblue" stroke="midnightblue" points="533.63,-198.077 535.553,-187.658 527.552,-194.604 533.63,-198.077"/>
</g>
<!-- Node14 -->
<g id="node14" class="node"><title>Node14</title>
<polygon fill="none" stroke="#bfbfbf" points="581,-168.5 581,-187.5 630,-187.5 630,-168.5 581,-168.5"/>
<text text-anchor="middle" x="605.5" y="-175.5" font-family="Helvetica,sans-Serif" font-size="10.00">TLine.h</text>
</g>
<!-- Node1&#45;&gt;Node14 -->
<g id="edge19" class="edge"><title>Node1&#45;&gt;Node14</title>
<path fill="none" stroke="midnightblue" d="M529.962,-224.399C545.831,-214.862 566.691,-202.325 582.468,-192.842"/>
<polygon fill="midnightblue" stroke="midnightblue" points="584.326,-195.809 591.095,-187.658 580.721,-189.809 584.326,-195.809"/>
</g>
<!-- Node15 -->
<g id="node15" class="node"><title>Node15</title>
<polygon fill="none" stroke="#bfbfbf" points="648,-168.5 648,-187.5 695,-187.5 695,-168.5 648,-168.5"/>
<text text-anchor="middle" x="671.5" y="-175.5" font-family="Helvetica,sans-Serif" font-size="10.00">TList.h</text>
</g>
<!-- Node1&#45;&gt;Node15 -->
<g id="edge20" class="edge"><title>Node1&#45;&gt;Node15</title>
<path fill="none" stroke="midnightblue" d="M545.603,-224.399C573.827,-214.222 611.524,-200.628 638.291,-190.975"/>
<polygon fill="midnightblue" stroke="midnightblue" points="639.752,-194.169 647.972,-187.484 637.377,-187.584 639.752,-194.169"/>
</g>
<!-- Node16 -->
<g id="node16" class="node"><title>Node16</title>
<g id="a_node16"><a xlink:href="QcInfoLogger_8h.html" target="_top" xlink:title="QualityControl/QcInfoLogger.h">
<polygon fill="none" stroke="black" points="713,-168.5 713,-187.5 862,-187.5 862,-168.5 713,-168.5"/>
<text text-anchor="middle" x="787.5" y="-175.5" font-family="Helvetica,sans-Serif" font-size="10.00">QualityControl/QcInfoLogger.h</text>
</a>
</g>
</g>
<!-- Node1&#45;&gt;Node16 -->
<g id="edge23" class="edge"><title>Node1&#45;&gt;Node16</title>
<path fill="none" stroke="midnightblue" d="M563.027,-226.531C613.899,-215.759 687.971,-200.075 736.923,-189.709"/>
<polygon fill="midnightblue" stroke="midnightblue" points="737.913,-193.077 746.971,-187.582 736.463,-186.229 737.913,-193.077"/>
</g>
<!-- Node3 -->
<g id="node3" class="node"><title>Node3</title>
<g id="a_node3"><a xlink:href="CheckInterface_8h.html" target="_top" xlink:title="QualityControl/CheckInterface.h">
<polygon fill="none" stroke="black" points="299,-112.5 299,-131.5 456,-131.5 456,-112.5 299,-112.5"/>
<text text-anchor="middle" x="377.5" y="-119.5" font-family="Helvetica,sans-Serif" font-size="10.00">QualityControl/CheckInterface.h</text>
</a>
</g>
</g>
<!-- Node2&#45;&gt;Node3 -->
<g id="edge2" class="edge"><title>Node2&#45;&gt;Node3</title>
<path fill="none" stroke="midnightblue" d="M364.977,-168.083C366.986,-160.849 369.886,-150.409 372.39,-141.397"/>
<polygon fill="midnightblue" stroke="midnightblue" points="375.765,-142.323 375.069,-131.751 369.02,-140.449 375.765,-142.323"/>
</g>
<!-- Node4 -->
<g id="node4" class="node"><title>Node4</title>
<polygon fill="none" stroke="#bfbfbf" points="215,-0.5 215,-19.5 256,-19.5 256,-0.5 215,-0.5"/>
<text text-anchor="middle" x="235.5" y="-7.5" font-family="Helvetica,sans-Serif" font-size="10.00">string</text>
</g>
<!-- Node3&#45;&gt;Node4 -->
<g id="edge3" class="edge"><title>Node3&#45;&gt;Node4</title>
<path fill="none" stroke="midnightblue" d="M322.923,-112.461C299.003,-106.113 272.367,-95.0933 254.5,-76 242.837,-63.5363 238.292,-44.3029 236.542,-29.9874"/>
<polygon fill="midnightblue" stroke="midnightblue" points="240.008,-29.4438 235.656,-19.7843 233.034,-30.0497 240.008,-29.4438"/>
</g>
<!-- Node5 -->
<g id="node5" class="node"><title>Node5</title>
<polygon fill="none" stroke="#bfbfbf" points="290,-0.5 290,-19.5 325,-19.5 325,-0.5 290,-0.5"/>
<text text-anchor="middle" x="307.5" y="-7.5" font-family="Helvetica,sans-Serif" font-size="10.00">map</text>
</g>
<!-- Node3&#45;&gt;Node5 -->
<g id="edge4" class="edge"><title>Node3&#45;&gt;Node5</title>
<path fill="none" stroke="midnightblue" d="M425.499,-112.411C467.175,-102.823 517.508,-84.7595 494.5,-56 450.923,-1.52898 408.523,-36.2516 335.206,-19.7129"/>
<polygon fill="midnightblue" stroke="midnightblue" points="335.694,-16.226 325.14,-17.1625 333.974,-23.0116 335.694,-16.226"/>
</g>
<!-- Node6 -->
<g id="node6" class="node"><title>Node6</title>
<polygon fill="none" stroke="#bfbfbf" points="403,-56.5 403,-75.5 486,-75.5 486,-56.5 403,-56.5"/>
<text text-anchor="middle" x="444.5" y="-63.5" font-family="Helvetica,sans-Serif" font-size="10.00">unordered_map</text>
</g>
<!-- Node3&#45;&gt;Node6 -->
<g id="edge5" class="edge"><title>Node3&#45;&gt;Node6</title>
<path fill="none" stroke="midnightblue" d="M388.265,-112.324C398.266,-104.263 413.387,-92.0765 425.43,-82.3695"/>
<polygon fill="midnightblue" stroke="midnightblue" points="427.95,-84.8343 433.539,-75.8339 423.557,-79.3841 427.95,-84.8343"/>
</g>
<!-- Node7 -->
<g id="node7" class="node"><title>Node7</title>
<polygon fill="none" stroke="#bfbfbf" points="343.5,-0.5 343.5,-19.5 399.5,-19.5 399.5,-0.5 343.5,-0.5"/>
<text text-anchor="middle" x="371.5" y="-7.5" font-family="Helvetica,sans-Serif" font-size="10.00">Rtypes.h</text>
</g>
<!-- Node3&#45;&gt;Node7 -->
<g id="edge6" class="edge"><title>Node3&#45;&gt;Node7</title>
<path fill="none" stroke="midnightblue" d="M456.2,-112.89C504.453,-104.592 552.72,-88.1379 528.5,-56 514.223,-37.056 451.541,-23.6521 409.827,-16.6388"/>
<polygon fill="midnightblue" stroke="midnightblue" points="410.148,-13.1451 399.715,-14.994 409.024,-20.0543 410.148,-13.1451"/>
</g>
<!-- Node3&#45;&gt;Node8 -->
<g id="edge7" class="edge"><title>Node3&#45;&gt;Node8</title>
<path fill="none" stroke="midnightblue" d="M338.521,-112.444C295.606,-103.023 226.554,-87.8656 180.131,-77.6752"/>
<polygon fill="midnightblue" stroke="midnightblue" points="180.815,-74.242 170.297,-75.5164 179.314,-81.0792 180.815,-74.242"/>
</g>
<!-- Node3&#45;&gt;Node11 -->
<g id="edge13" class="edge"><title>Node3&#45;&gt;Node11</title>
<path fill="none" stroke="midnightblue" d="M368.748,-112.083C361.03,-104.22 349.595,-92.5688 340.283,-83.0813"/>
<polygon fill="midnightblue" stroke="midnightblue" points="342.592,-80.4363 333.089,-75.7511 337.596,-85.3396 342.592,-80.4363"/>
</g>
<!-- Node8&#45;&gt;Node4 -->
<g id="edge8" class="edge"><title>Node8&#45;&gt;Node4</title>
<path fill="none" stroke="midnightblue" d="M148.209,-56.324C164.812,-47.7034 190.502,-34.3643 209.72,-24.3855"/>
<polygon fill="midnightblue" stroke="midnightblue" points="211.57,-27.3689 218.832,-19.6545 208.344,-21.1565 211.57,-27.3689"/>
</g>
<!-- Node8&#45;&gt;Node5 -->
<g id="edge9" class="edge"><title>Node8&#45;&gt;Node5</title>
<path fill="none" stroke="midnightblue" d="M159.388,-56.4435C192.449,-46.2999 247.193,-29.5034 280.057,-19.4199"/>
<polygon fill="midnightblue" stroke="midnightblue" points="281.37,-22.6782 289.904,-16.3989 279.317,-15.9861 281.37,-22.6782"/>
</g>
<!-- Node8&#45;&gt;Node7 -->
<g id="edge10" class="edge"><title>Node8&#45;&gt;Node7</title>
<path fill="none" stroke="midnightblue" d="M170.637,-56.4438C211.356,-47.5035 276.948,-32.9953 333.5,-20 333.599,-19.9772 333.698,-19.9544 333.798,-19.9315"/>
<polygon fill="midnightblue" stroke="midnightblue" points="334.34,-23.3989 343.288,-17.726 332.755,-16.5806 334.34,-23.3989"/>
</g>
<!-- Node9 -->
<g id="node9" class="node"><title>Node9</title>
<polygon fill="none" stroke="#bfbfbf" points="0,-0.5 0,-19.5 59,-19.5 59,-0.5 0,-0.5"/>
<text text-anchor="middle" x="29.5" y="-7.5" font-family="Helvetica,sans-Serif" font-size="10.00">TObject.h</text>
</g>
<!-- Node8&#45;&gt;Node9 -->
<g id="edge11" class="edge"><title>Node8&#45;&gt;Node9</title>
<path fill="none" stroke="midnightblue" d="M115.112,-56.324C98.8287,-47.7034 73.6325,-34.3643 54.7837,-24.3855"/>
<polygon fill="midnightblue" stroke="midnightblue" points="56.3229,-21.2402 45.8474,-19.6545 53.0477,-27.4267 56.3229,-21.2402"/>
</g>
<!-- Node10 -->
<g id="node10" class="node"><title>Node10</title>
<polygon fill="none" stroke="#bfbfbf" points="77.5,-0.5 77.5,-19.5 193.5,-19.5 193.5,-0.5 77.5,-0.5"/>
<text text-anchor="middle" x="135.5" y="-7.5" font-family="Helvetica,sans-Serif" font-size="10.00">Common/Exceptions.h</text>
</g>
<!-- Node8&#45;&gt;Node10 -->
<g id="edge12" class="edge"><title>Node8&#45;&gt;Node10</title>
<path fill="none" stroke="midnightblue" d="M132.161,-56.083C132.685,-49.0059 133.436,-38.8611 134.094,-29.9865"/>
<polygon fill="midnightblue" stroke="midnightblue" points="137.603,-29.9823 134.852,-19.7511 130.623,-29.4652 137.603,-29.9823"/>
</g>
<!-- Node11&#45;&gt;Node4 -->
<g id="edge15" class="edge"><title>Node11&#45;&gt;Node4</title>
<path fill="none" stroke="midnightblue" d="M310.201,-56.324C296.317,-47.9002 275.008,-34.9709 258.696,-25.0741"/>
<polygon fill="midnightblue" stroke="midnightblue" points="260.129,-21.8495 249.764,-19.6545 256.498,-27.8341 260.129,-21.8495"/>
</g>
<!-- Node11&#45;&gt;Node5 -->
<g id="edge16" class="edge"><title>Node11&#45;&gt;Node5</title>
<path fill="none" stroke="midnightblue" d="M321.693,-56.083C319.415,-48.8486 316.129,-38.4087 313.292,-29.3968"/>
<polygon fill="midnightblue" stroke="midnightblue" points="316.596,-28.2385 310.255,-19.7511 309.919,-30.3406 316.596,-28.2385"/>
</g>
<!-- Node11&#45;&gt;Node7 -->
<g id="edge14" class="edge"><title>Node11&#45;&gt;Node7</title>
<path fill="none" stroke="midnightblue" d="M332.261,-56.083C339.037,-48.2982 349.043,-36.8015 357.255,-27.3665"/>
<polygon fill="midnightblue" stroke="midnightblue" points="359.958,-29.592 363.883,-19.7511 354.678,-24.9963 359.958,-29.592"/>
</g>
<!-- Node17 -->
<g id="node17" class="node"><title>Node17</title>
<polygon fill="none" stroke="#bfbfbf" points="722.5,-112.5 722.5,-131.5 852.5,-131.5 852.5,-112.5 722.5,-112.5"/>
<text text-anchor="middle" x="787.5" y="-119.5" font-family="Helvetica,sans-Serif" font-size="10.00">InfoLogger/InfoLogger.hxx</text>
</g>
<!-- Node16&#45;&gt;Node17 -->
<g id="edge24" class="edge"><title>Node16&#45;&gt;Node17</title>
<path fill="none" stroke="midnightblue" d="M787.5,-168.083C787.5,-161.006 787.5,-150.861 787.5,-141.986"/>
<polygon fill="midnightblue" stroke="midnightblue" points="791,-141.751 787.5,-131.751 784,-141.751 791,-141.751"/>
</g>
</g>
</svg>
