<?xml version="1.0" encoding="UTF-8" standalone="no"?>
<!DOCTYPE svg PUBLIC "-//W3C//DTD SVG 1.1//EN"
 "http://www.w3.org/Graphics/SVG/1.1/DTD/svg11.dtd">
<!-- Generated by graphviz version 2.38.0 (20140413.2041)
 -->
<!-- Title: Framework/src/MySqlDatabase.cxx Pages: 1 -->
<!--zoomable 308 -->
<svg id="main" version="1.1" xmlns="http://www.w3.org/2000/svg" xmlns:xlink="http://www.w3.org/1999/xlink" xml:space="preserve" onload="init(evt)">
<style type="text/css"><![CDATA[
.edge:hover path { stroke: red; }
.edge:hover polygon { stroke: red; fill: red; }
]]></style>
<script type="text/javascript"><![CDATA[
var edges = document.getElementsByTagName('g');
if (edges && edges.length) {
  for (var i=0;i<edges.length;i++) {
    if (edges[i].id.substr(0,4)=='edge') {
      edges[i].setAttribute('class','edge');
    }
  }
}
]]></script>
        <defs>
                <circle id="rim" cx="0" cy="0" r="7"/>
                <circle id="rim2" cx="0" cy="0" r="3.5"/>
                <g id="zoomPlus">
                        <use xlink:href="#rim" fill="#404040">
                                <set attributeName="fill" to="#808080" begin="zoomplus.mouseover" end="zoomplus.mouseout"/>
                        </use>
                        <path d="M-4,0h8M0,-4v8" fill="none" stroke="white" stroke-width="1.5" pointer-events="none"/>
                </g>
                <g id="zoomMin">
                        <use xlink:href="#rim" fill="#404040">
                                <set attributeName="fill" to="#808080" begin="zoomminus.mouseover" end="zoomminus.mouseout"/>
                        </use>
                        <path d="M-4,0h8" fill="none" stroke="white" stroke-width="1.5" pointer-events="none"/>
                </g>
                <g id="dirArrow">
                        <path fill="none" stroke="white" stroke-width="1.5" d="M0,-3.0v7 M-2.5,-0.5L0,-3.0L2.5,-0.5"/>
                </g>
               <g id="resetDef">
                       <use xlink:href="#rim2" fill="#404040">
                               <set attributeName="fill" to="#808080" begin="reset.mouseover" end="reset.mouseout"/>
                       </use>
               </g>
        </defs>

<script type="text/javascript">
var viewWidth = 1348;
var viewHeight = 308;
var sectionId = 'dynsection-0';
</script>
<script xlink:href="svgpan.js"/>
<svg id="graph" class="graph">
<g id="viewport">
<title>Framework/src/MySqlDatabase.cxx</title>
<!-- Node1 -->
<g id="node1" class="node"><title>Node1</title>
<polygon fill="#bfbfbf" stroke="black" points="392.5,-280.5 392.5,-299.5 565.5,-299.5 565.5,-280.5 392.5,-280.5"/>
<text text-anchor="middle" x="479" y="-287.5" font-family="Helvetica,sans-Serif" font-size="10.00">Framework/src/MySqlDatabase.cxx</text>
</g>
<!-- Node2 -->
<g id="node2" class="node"><title>Node2</title>
<polygon fill="none" stroke="#bfbfbf" points="0,-224.5 0,-243.5 52,-243.5 52,-224.5 0,-224.5"/>
<text text-anchor="middle" x="26" y="-231.5" font-family="Helvetica,sans-Serif" font-size="10.00">sstream</text>
</g>
<!-- Node1&#45;&gt;Node2 -->
<g id="edge1" class="edge"><title>Node1&#45;&gt;Node2</title>
<path fill="none" stroke="midnightblue" d="M392.419,-283.346C309.841,-277.116 181.88,-265.288 62.3435,-244.01"/>
<polygon fill="midnightblue" stroke="midnightblue" points="62.7462,-240.526 52.2833,-242.193 61.5019,-247.414 62.7462,-240.526"/>
</g>
<!-- Node3 -->
<g id="node3" class="node"><title>Node3</title>
<polygon fill="none" stroke="#bfbfbf" points="70.5,-224.5 70.5,-243.5 141.5,-243.5 141.5,-224.5 70.5,-224.5"/>
<text text-anchor="middle" x="106" y="-231.5" font-family="Helvetica,sans-Serif" font-size="10.00">TMessage.h</text>
</g>
<!-- Node1&#45;&gt;Node3 -->
<g id="edge2" class="edge"><title>Node1&#45;&gt;Node3</title>
<path fill="none" stroke="midnightblue" d="M407.467,-280.463C343.168,-272.498 245.919,-259.731 151.804,-244.046"/>
<polygon fill="midnightblue" stroke="midnightblue" points="152.267,-240.575 141.825,-242.37 151.107,-247.478 152.267,-240.575"/>
</g>
<!-- Node4 -->
<g id="node4" class="node"><title>Node4</title>
<polygon fill="none" stroke="#bfbfbf" points="160,-224.5 160,-243.5 252,-243.5 252,-224.5 160,-224.5"/>
<text text-anchor="middle" x="206" y="-231.5" font-family="Helvetica,sans-Serif" font-size="10.00">TMySQLServer.h</text>
</g>
<!-- Node1&#45;&gt;Node4 -->
<g id="edge3" class="edge"><title>Node1&#45;&gt;Node4</title>
<path fill="none" stroke="midnightblue" d="M435.742,-280.444C387.819,-270.964 310.522,-255.675 259,-245.483"/>
<polygon fill="midnightblue" stroke="midnightblue" points="259.544,-242.023 249.055,-243.516 258.186,-248.89 259.544,-242.023"/>
</g>
<!-- Node5 -->
<g id="node5" class="node"><title>Node5</title>
<polygon fill="none" stroke="#bfbfbf" points="270,-224.5 270,-243.5 362,-243.5 362,-224.5 270,-224.5"/>
<text text-anchor="middle" x="316" y="-231.5" font-family="Helvetica,sans-Serif" font-size="10.00">TMySQLResult.h</text>
</g>
<!-- Node1&#45;&gt;Node5 -->
<g id="edge4" class="edge"><title>Node1&#45;&gt;Node5</title>
<path fill="none" stroke="midnightblue" d="M453.172,-280.444C425.751,-271.359 382.223,-256.939 351.568,-246.783"/>
<polygon fill="midnightblue" stroke="midnightblue" points="352.3,-243.339 341.707,-243.516 350.099,-249.984 352.3,-243.339"/>
</g>
<!-- Node6 -->
<g id="node6" class="node"><title>Node6</title>
<polygon fill="none" stroke="#bfbfbf" points="380,-224.5 380,-243.5 464,-243.5 464,-224.5 380,-224.5"/>
<text text-anchor="middle" x="422" y="-231.5" font-family="Helvetica,sans-Serif" font-size="10.00">TMySQLRow.h</text>
</g>
<!-- Node1&#45;&gt;Node6 -->
<g id="edge5" class="edge"><title>Node1&#45;&gt;Node6</title>
<path fill="none" stroke="midnightblue" d="M469.842,-280.324C461.499,-272.42 448.968,-260.548 438.823,-250.938"/>
<polygon fill="midnightblue" stroke="midnightblue" points="440.991,-248.171 431.325,-243.834 436.177,-253.252 440.991,-248.171"/>
</g>
<!-- Node7 -->
<g id="node7" class="node"><title>Node7</title>
<polygon fill="none" stroke="#bfbfbf" points="482.5,-224.5 482.5,-243.5 591.5,-243.5 591.5,-224.5 482.5,-224.5"/>
<text text-anchor="middle" x="537" y="-231.5" font-family="Helvetica,sans-Serif" font-size="10.00">TMySQLStatement.h</text>
</g>
<!-- Node1&#45;&gt;Node7 -->
<g id="edge6" class="edge"><title>Node1&#45;&gt;Node7</title>
<path fill="none" stroke="midnightblue" d="M488.319,-280.324C496.893,-272.341 509.812,-260.313 520.188,-250.653"/>
<polygon fill="midnightblue" stroke="midnightblue" points="522.578,-253.21 527.512,-243.834 517.808,-248.086 522.578,-253.21"/>
</g>
<!-- Node8 -->
<g id="node8" class="node"><title>Node8</title>
<polygon fill="none" stroke="#bfbfbf" points="610,-224.5 610,-243.5 694,-243.5 694,-224.5 610,-224.5"/>
<text text-anchor="middle" x="652" y="-231.5" font-family="Helvetica,sans-Serif" font-size="10.00">TBufferJSON.h</text>
</g>
<!-- Node1&#45;&gt;Node8 -->
<g id="edge7" class="edge"><title>Node1&#45;&gt;Node8</title>
<path fill="none" stroke="midnightblue" d="M506.412,-280.444C535.769,-271.28 582.519,-256.688 615.096,-246.519"/>
<polygon fill="midnightblue" stroke="midnightblue" points="616.213,-249.837 624.716,-243.516 614.127,-243.155 616.213,-249.837"/>
</g>
<!-- Node9 -->
<g id="node9" class="node"><title>Node9</title>
<polygon fill="none" stroke="#bfbfbf" points="684,-56.5 684,-75.5 800,-75.5 800,-56.5 684,-56.5"/>
<text text-anchor="middle" x="742" y="-63.5" font-family="Helvetica,sans-Serif" font-size="10.00">Common/Exceptions.h</text>
</g>
<!-- Node1&#45;&gt;Node9 -->
<g id="edge8" class="edge"><title>Node1&#45;&gt;Node9</title>
<path fill="none" stroke="midnightblue" d="M565.748,-281.316C620.132,-274.709 683.503,-263.137 703,-244 725.428,-221.985 736.601,-126.562 740.427,-85.6915"/>
<polygon fill="midnightblue" stroke="midnightblue" points="743.933,-85.7816 741.332,-75.5109 736.961,-85.1616 743.933,-85.7816"/>
</g>
<!-- Node10 -->
<g id="node10" class="node"><title>Node10</title>
<g id="a_node10"><a xlink:href="MySqlDatabase_8h.html" target="_top" xlink:title="QualityControl/MySqlDatabase.h">
<polygon fill="none" stroke="black" points="779,-224.5 779,-243.5 939,-243.5 939,-224.5 779,-224.5"/>
<text text-anchor="middle" x="859" y="-231.5" font-family="Helvetica,sans-Serif" font-size="10.00">QualityControl/MySqlDatabase.h</text>
</a>
</g>
</g>
<!-- Node1&#45;&gt;Node10 -->
<g id="edge9" class="edge"><title>Node1&#45;&gt;Node10</title>
<path fill="none" stroke="midnightblue" d="M539.212,-280.444C607.031,-270.806 717.109,-255.163 788.783,-244.978"/>
<polygon fill="midnightblue" stroke="midnightblue" points="789.661,-248.389 799.07,-243.516 788.677,-241.458 789.661,-248.389"/>
</g>
<!-- Node23 -->
<g id="node23" class="node"><title>Node23</title>
<g id="a_node23"><a xlink:href="QcInfoLogger_8h.html" target="_top" xlink:title="QualityControl/QcInfoLogger.h">
<polygon fill="none" stroke="black" points="1057.5,-224.5 1057.5,-243.5 1206.5,-243.5 1206.5,-224.5 1057.5,-224.5"/>
<text text-anchor="middle" x="1132" y="-231.5" font-family="Helvetica,sans-Serif" font-size="10.00">QualityControl/QcInfoLogger.h</text>
</a>
</g>
</g>
<!-- Node1&#45;&gt;Node23 -->
<g id="edge30" class="edge"><title>Node1&#45;&gt;Node23</title>
<path fill="none" stroke="midnightblue" d="M565.713,-281.829C691.243,-271.449 922.164,-252.352 1046.83,-242.044"/>
<polygon fill="midnightblue" stroke="midnightblue" points="1047.41,-245.508 1057.08,-241.195 1046.83,-238.531 1047.41,-245.508"/>
</g>
<!-- Node11 -->
<g id="node11" class="node"><title>Node11</title>
<polygon fill="none" stroke="#bfbfbf" points="813,-168.5 813,-187.5 905,-187.5 905,-168.5 813,-168.5"/>
<text text-anchor="middle" x="859" y="-175.5" font-family="Helvetica,sans-Serif" font-size="10.00">Common/Timer.h</text>
</g>
<!-- Node10&#45;&gt;Node11 -->
<g id="edge10" class="edge"><title>Node10&#45;&gt;Node11</title>
<path fill="none" stroke="midnightblue" d="M859,-224.083C859,-217.006 859,-206.861 859,-197.986"/>
<polygon fill="midnightblue" stroke="midnightblue" points="862.5,-197.751 859,-187.751 855.5,-197.751 862.5,-197.751"/>
</g>
<!-- Node12 -->
<g id="node12" class="node"><title>Node12</title>
<g id="a_node12"><a xlink:href="DatabaseInterface_8h.html" target="_top" xlink:title="QualityControl/DatabaseInterface.h">
<polygon fill="none" stroke="black" points="980,-168.5 980,-187.5 1150,-187.5 1150,-168.5 980,-168.5"/>
<text text-anchor="middle" x="1065" y="-175.5" font-family="Helvetica,sans-Serif" font-size="10.00">QualityControl/DatabaseInterface.h</text>
</a>
</g>
</g>
<!-- Node10&#45;&gt;Node12 -->
<g id="edge11" class="edge"><title>Node10&#45;&gt;Node12</title>
<path fill="none" stroke="midnightblue" d="M891.641,-224.444C927.05,-215.162 983.709,-200.309 1022.55,-190.127"/>
<polygon fill="midnightblue" stroke="midnightblue" points="1023.73,-193.438 1032.51,-187.516 1021.95,-186.667 1023.73,-193.438"/>
</g>
<!-- Node13 -->
<g id="node13" class="node"><title>Node13</title>
<polygon fill="none" stroke="#bfbfbf" points="1139.5,-0.5 1139.5,-19.5 1180.5,-19.5 1180.5,-0.5 1139.5,-0.5"/>
<text text-anchor="middle" x="1160" y="-7.5" font-family="Helvetica,sans-Serif" font-size="10.00">string</text>
</g>
<!-- Node12&#45;&gt;Node13 -->
<g id="edge12" class="edge"><title>Node12&#45;&gt;Node13</title>
<path fill="none" stroke="midnightblue" d="M1121.69,-168.495C1143.35,-162.18 1165.95,-151.176 1179,-132 1200.45,-100.478 1182.53,-53.7562 1169.87,-28.5887"/>
<polygon fill="midnightblue" stroke="midnightblue" points="1172.83,-26.7029 1165.05,-19.5097 1166.65,-29.9838 1172.83,-26.7029"/>
</g>
<!-- Node14 -->
<g id="node14" class="node"><title>Node14</title>
<polygon fill="none" stroke="#bfbfbf" points="1226,-112.5 1226,-131.5 1278,-131.5 1278,-112.5 1226,-112.5"/>
<text text-anchor="middle" x="1252" y="-119.5" font-family="Helvetica,sans-Serif" font-size="10.00">memory</text>
</g>
<!-- Node12&#45;&gt;Node14 -->
<g id="edge13" class="edge"><title>Node12&#45;&gt;Node14</title>
<path fill="none" stroke="midnightblue" d="M1094.63,-168.444C1127.53,-158.943 1180.64,-143.606 1215.93,-133.415"/>
<polygon fill="midnightblue" stroke="midnightblue" points="1217.19,-136.695 1225.83,-130.558 1215.25,-129.97 1217.19,-136.695"/>
</g>
<!-- Node15 -->
<g id="node15" class="node"><title>Node15</title>
<polygon fill="none" stroke="#bfbfbf" points="1296,-112.5 1296,-131.5 1340,-131.5 1340,-112.5 1296,-112.5"/>
<text text-anchor="middle" x="1318" y="-119.5" font-family="Helvetica,sans-Serif" font-size="10.00">vector</text>
</g>
<!-- Node12&#45;&gt;Node15 -->
<g id="edge14" class="edge"><title>Node12&#45;&gt;Node15</title>
<path fill="none" stroke="midnightblue" d="M1112.89,-168.475C1155.82,-160.568 1220.71,-147.965 1285.7,-132.168"/>
<polygon fill="midnightblue" stroke="midnightblue" points="1286.83,-135.495 1295.71,-129.71 1285.16,-128.697 1286.83,-135.495"/>
</g>
<!-- Node16 -->
<g id="node16" class="node"><title>Node16</title>
<polygon fill="none" stroke="#bfbfbf" points="750.5,-112.5 750.5,-131.5 833.5,-131.5 833.5,-112.5 750.5,-112.5"/>
<text text-anchor="middle" x="792" y="-119.5" font-family="Helvetica,sans-Serif" font-size="10.00">unordered_map</text>
</g>
<!-- Node12&#45;&gt;Node16 -->
<g id="edge15" class="edge"><title>Node12&#45;&gt;Node16</title>
<path fill="none" stroke="midnightblue" d="M1021.74,-168.444C973.396,-158.88 895.156,-143.404 843.642,-133.215"/>
<polygon fill="midnightblue" stroke="midnightblue" points="844.201,-129.758 833.712,-131.251 842.843,-136.625 844.201,-129.758"/>
</g>
<!-- Node17 -->
<g id="node17" class="node"><title>Node17</title>
<g id="a_node17"><a xlink:href="QualityObject_8h_source.html" target="_top" xlink:title="QualityControl/QualityObject.h">
<polygon fill="none" stroke="black" points="851.5,-112.5 851.5,-131.5 1000.5,-131.5 1000.5,-112.5 851.5,-112.5"/>
<text text-anchor="middle" x="926" y="-119.5" font-family="Helvetica,sans-Serif" font-size="10.00">QualityControl/QualityObject.h</text>
</a>
</g>
</g>
<!-- Node12&#45;&gt;Node17 -->
<g id="edge16" class="edge"><title>Node12&#45;&gt;Node17</title>
<path fill="none" stroke="midnightblue" d="M1042.98,-168.444C1019.9,-159.478 983.438,-145.314 957.359,-135.183"/>
<polygon fill="midnightblue" stroke="midnightblue" points="958.511,-131.875 947.922,-131.516 955.976,-138.4 958.511,-131.875"/>
</g>
<!-- Node22 -->
<g id="node22" class="node"><title>Node22</title>
<g id="a_node22"><a xlink:href="MonitorObject_8h.html" target="_top" xlink:title="QualityControl/MonitorObject.h">
<polygon fill="none" stroke="black" points="1018.5,-112.5 1018.5,-131.5 1169.5,-131.5 1169.5,-112.5 1018.5,-112.5"/>
<text text-anchor="middle" x="1094" y="-119.5" font-family="Helvetica,sans-Serif" font-size="10.00">QualityControl/MonitorObject.h</text>
</a>
</g>
</g>
<!-- Node12&#45;&gt;Node22 -->
<g id="edge24" class="edge"><title>Node12&#45;&gt;Node22</title>
<path fill="none" stroke="midnightblue" d="M1069.79,-168.083C1073.76,-160.691 1079.53,-149.953 1084.43,-140.811"/>
<polygon fill="midnightblue" stroke="midnightblue" points="1087.65,-142.217 1089.3,-131.751 1081.49,-138.905 1087.65,-142.217"/>
</g>
<!-- Node17&#45;&gt;Node9 -->
<g id="edge19" class="edge"><title>Node17&#45;&gt;Node9</title>
<path fill="none" stroke="midnightblue" d="M896.845,-112.444C865.487,-103.241 815.469,-88.5617 780.803,-78.3879"/>
<polygon fill="midnightblue" stroke="midnightblue" points="781.6,-74.9742 771.019,-75.5164 779.629,-81.6909 781.6,-74.9742"/>
</g>
<!-- Node18 -->
<g id="node18" class="node"><title>Node18</title>
<polygon fill="none" stroke="#bfbfbf" points="926.5,-0.5 926.5,-19.5 961.5,-19.5 961.5,-0.5 926.5,-0.5"/>
<text text-anchor="middle" x="944" y="-7.5" font-family="Helvetica,sans-Serif" font-size="10.00">map</text>
</g>
<!-- Node17&#45;&gt;Node18 -->
<g id="edge17" class="edge"><title>Node17&#45;&gt;Node18</title>
<path fill="none" stroke="midnightblue" d="M900.064,-112.484C871.596,-101.655 831.924,-81.2895 848,-56 862.918,-32.532 893.661,-21.0909 916.357,-15.6547"/>
<polygon fill="midnightblue" stroke="midnightblue" points="917.392,-19.0126 926.439,-13.4998 915.929,-12.1672 917.392,-19.0126"/>
</g>
<!-- Node19 -->
<g id="node19" class="node"><title>Node19</title>
<polygon fill="none" stroke="#bfbfbf" points="856.5,-56.5 856.5,-75.5 915.5,-75.5 915.5,-56.5 856.5,-56.5"/>
<text text-anchor="middle" x="886" y="-63.5" font-family="Helvetica,sans-Serif" font-size="10.00">TObject.h</text>
</g>
<!-- Node17&#45;&gt;Node19 -->
<g id="edge18" class="edge"><title>Node17&#45;&gt;Node19</title>
<path fill="none" stroke="midnightblue" d="M919.395,-112.083C913.745,-104.455 905.455,-93.2645 898.549,-83.9408"/>
<polygon fill="midnightblue" stroke="midnightblue" points="901.247,-81.7034 892.482,-75.7511 895.622,-85.87 901.247,-81.7034"/>
</g>
<!-- Node20 -->
<g id="node20" class="node"><title>Node20</title>
<g id="a_node20"><a xlink:href="Quality_8h.html" target="_top" xlink:title="QualityControl/Quality.h">
<polygon fill="none" stroke="black" points="972.5,-56.5 972.5,-75.5 1093.5,-75.5 1093.5,-56.5 972.5,-56.5"/>
<text text-anchor="middle" x="1033" y="-63.5" font-family="Helvetica,sans-Serif" font-size="10.00">QualityControl/Quality.h</text>
</a>
</g>
</g>
<!-- Node17&#45;&gt;Node20 -->
<g id="edge20" class="edge"><title>Node17&#45;&gt;Node20</title>
<path fill="none" stroke="midnightblue" d="M943.191,-112.324C960.351,-103.664 986.946,-90.2424 1006.75,-80.249"/>
<polygon fill="midnightblue" stroke="midnightblue" points="1008.5,-83.2847 1015.85,-75.6545 1005.35,-77.0354 1008.5,-83.2847"/>
</g>
<!-- Node20&#45;&gt;Node13 -->
<g id="edge22" class="edge"><title>Node20&#45;&gt;Node13</title>
<path fill="none" stroke="midnightblue" d="M1053.12,-56.4435C1074.02,-47.5566 1106.93,-33.5632 1130.72,-23.4514"/>
<polygon fill="midnightblue" stroke="midnightblue" points="1132.14,-26.6504 1139.97,-19.5164 1129.4,-20.2085 1132.14,-26.6504"/>
</g>
<!-- Node20&#45;&gt;Node18 -->
<g id="edge23" class="edge"><title>Node20&#45;&gt;Node18</title>
<path fill="none" stroke="midnightblue" d="M1018.7,-56.324C1004.82,-47.9002 983.508,-34.9709 967.196,-25.0741"/>
<polygon fill="midnightblue" stroke="midnightblue" points="968.629,-21.8495 958.264,-19.6545 964.998,-27.8341 968.629,-21.8495"/>
</g>
<!-- Node21 -->
<g id="node21" class="node"><title>Node21</title>
<polygon fill="none" stroke="#bfbfbf" points="1035,-0.5 1035,-19.5 1091,-19.5 1091,-0.5 1035,-0.5"/>
<text text-anchor="middle" x="1063" y="-7.5" font-family="Helvetica,sans-Serif" font-size="10.00">Rtypes.h</text>
</g>
<!-- Node20&#45;&gt;Node21 -->
<g id="edge21" class="edge"><title>Node20&#45;&gt;Node21</title>
<path fill="none" stroke="midnightblue" d="M1037.95,-56.083C1042.1,-48.6127 1048.15,-37.7244 1053.27,-28.5199"/>
<polygon fill="midnightblue" stroke="midnightblue" points="1056.34,-30.1924 1058.14,-19.7511 1050.22,-26.7929 1056.34,-30.1924"/>
</g>
<!-- Node22&#45;&gt;Node9 -->
<g id="edge29" class="edge"><title>Node22&#45;&gt;Node9</title>
<path fill="none" stroke="midnightblue" d="M1038.22,-112.444C975.532,-102.826 873.854,-87.2275 807.452,-77.0409"/>
<polygon fill="midnightblue" stroke="midnightblue" points="807.93,-73.5733 797.514,-75.5164 806.868,-80.4924 807.93,-73.5733"/>
</g>
<!-- Node22&#45;&gt;Node13 -->
<g id="edge25" class="edge"><title>Node22&#45;&gt;Node13</title>
<path fill="none" stroke="midnightblue" d="M1099.18,-112.368C1110.02,-94.2957 1135.29,-52.1764 1149.62,-28.3074"/>
<polygon fill="midnightblue" stroke="midnightblue" points="1152.7,-29.9671 1154.85,-19.5914 1146.7,-26.3656 1152.7,-29.9671"/>
</g>
<!-- Node22&#45;&gt;Node18 -->
<g id="edge26" class="edge"><title>Node22&#45;&gt;Node18</title>
<path fill="none" stroke="midnightblue" d="M1034.18,-112.482C1009.55,-106.16 982.5,-95.1545 964,-76 952.091,-63.67 947.257,-44.4186 945.304,-30.0625"/>
<polygon fill="midnightblue" stroke="midnightblue" points="948.757,-29.4242 944.275,-19.8245 941.793,-30.1245 948.757,-29.4242"/>
</g>
<!-- Node22&#45;&gt;Node19 -->
<g id="edge28" class="edge"><title>Node22&#45;&gt;Node19</title>
<path fill="none" stroke="midnightblue" d="M1061.04,-112.444C1024.26,-102.896 964.784,-87.4535 925.533,-77.2634"/>
<polygon fill="midnightblue" stroke="midnightblue" points="926.33,-73.8543 915.771,-74.729 924.571,-80.6297 926.33,-73.8543"/>
</g>
<!-- Node22&#45;&gt;Node21 -->
<g id="edge27" class="edge"><title>Node22&#45;&gt;Node21</title>
<path fill="none" stroke="midnightblue" d="M1097.84,-112.283C1102.88,-99.5158 1110.29,-75.1677 1103,-56 1098.66,-44.5976 1089.97,-34.2394 1081.79,-26.343"/>
<polygon fill="midnightblue" stroke="midnightblue" points="1084.04,-23.6595 1074.27,-19.5728 1079.36,-28.8633 1084.04,-23.6595"/>
</g>
<!-- Node24 -->
<g id="node24" class="node"><title>Node24</title>
<polygon fill="none" stroke="#bfbfbf" points="1168,-168.5 1168,-187.5 1298,-187.5 1298,-168.5 1168,-168.5"/>
<text text-anchor="middle" x="1233" y="-175.5" font-family="Helvetica,sans-Serif" font-size="10.00">InfoLogger/InfoLogger.hxx</text>
</g>
<!-- Node23&#45;&gt;Node24 -->
<g id="edge31" class="edge"><title>Node23&#45;&gt;Node24</title>
<path fill="none" stroke="midnightblue" d="M1148.23,-224.324C1164.35,-215.703 1189.3,-202.364 1207.96,-192.386"/>
<polygon fill="midnightblue" stroke="midnightblue" points="1209.64,-195.456 1216.81,-187.655 1206.34,-189.283 1209.64,-195.456"/>
</g>
</g>
</svg>
        <g id="navigator" transform="translate(0 0)" fill="#404254">
                <rect fill="#f2f5e9" fill-opacity="0.5" stroke="#606060" stroke-width=".5" x="0" y="0" width="60" height="60"/>
                <use id="zoomplus" xlink:href="#zoomPlus" x="17" y="9" onmousedown="handleZoom(evt,'in')"/>
                <use id="zoomminus" xlink:href="#zoomMin" x="42" y="9" onmousedown="handleZoom(evt,'out')"/>
                <use id="reset" xlink:href="#resetDef" x="30" y="36" onmousedown="handleReset()"/>
                <g id="arrowUp" xlink:href="#dirArrow" transform="translate(30 24)" onmousedown="handlePan(0,-1)">
                  <use xlink:href="#rim" fill="#404040">
                        <set attributeName="fill" to="#808080" begin="arrowUp.mouseover" end="arrowUp.mouseout"/>
                  </use>
                  <path fill="none" stroke="white" stroke-width="1.5" d="M0,-3.0v7 M-2.5,-0.5L0,-3.0L2.5,-0.5"/>
                </g>
                <g id="arrowRight" xlink:href="#dirArrow" transform="rotate(90) translate(36 -43)" onmousedown="handlePan(1,0)">
                  <use xlink:href="#rim" fill="#404040">
                        <set attributeName="fill" to="#808080" begin="arrowRight.mouseover" end="arrowRight.mouseout"/>
                  </use>
                  <path fill="none" stroke="white" stroke-width="1.5" d="M0,-3.0v7 M-2.5,-0.5L0,-3.0L2.5,-0.5"/>
                </g>
                <g id="arrowDown" xlink:href="#dirArrow" transform="rotate(180) translate(-30 -48)" onmousedown="handlePan(0,1)">
                  <use xlink:href="#rim" fill="#404040">
                        <set attributeName="fill" to="#808080" begin="arrowDown.mouseover" end="arrowDown.mouseout"/>
                  </use>
                  <path fill="none" stroke="white" stroke-width="1.5" d="M0,-3.0v7 M-2.5,-0.5L0,-3.0L2.5,-0.5"/>
                </g>
                <g id="arrowLeft" xlink:href="#dirArrow" transform="rotate(270) translate(-36 17)" onmousedown="handlePan(-1,0)">
                  <use xlink:href="#rim" fill="#404040">
                        <set attributeName="fill" to="#808080" begin="arrowLeft.mouseover" end="arrowLeft.mouseout"/>
                  </use>
                  <path fill="none" stroke="white" stroke-width="1.5" d="M0,-3.0v7 M-2.5,-0.5L0,-3.0L2.5,-0.5"/>
                </g>
        </g>
        <svg viewBox="0 0 15 15" width="100%" height="30px" preserveAspectRatio="xMaxYMin meet">
         <g id="arrow_out" transform="scale(0.3 0.3)">
          <a xlink:href="MySqlDatabase_8cxx__incl_org.svg" target="_base">
           <rect id="button" ry="5" rx="5" y="6" x="6" height="38" width="38"
                fill="#f2f5e9" fill-opacity="0.5" stroke="#606060" stroke-width="1.0"/>
           <path id="arrow"
             d="M 11.500037,31.436501 C 11.940474,20.09759 22.043105,11.32322 32.158766,21.979434 L 37.068811,17.246167 C 37.068811,17.246167 37.088388,32 37.088388,32 L 22.160133,31.978069 C 22.160133,31.978069 26.997745,27.140456 26.997745,27.140456 C 18.528582,18.264221 13.291696,25.230495 11.500037,31.436501 z"
             style="fill:#404040;"/>
          </a>
         </g>
        </svg>
</svg>
