<?xml version="1.0" encoding="UTF-8" standalone="no"?>
<!DOCTYPE svg PUBLIC "-//W3C//DTD SVG 1.1//EN"
 "http://www.w3.org/Graphics/SVG/1.1/DTD/svg11.dtd">
<!-- Generated by graphviz version 2.38.0 (20140413.2041)
 -->
<!-- Title: Modules/MUON/MCH/include/MCH/PedestalsTask.h Pages: 1 -->
<!--zoomable 397 -->
<svg id="main" version="1.1" xmlns="http://www.w3.org/2000/svg" xmlns:xlink="http://www.w3.org/1999/xlink" xml:space="preserve" onload="init(evt)">
<style type="text/css"><![CDATA[
.edge:hover path { stroke: red; }
.edge:hover polygon { stroke: red; fill: red; }
]]></style>
<script type="text/javascript"><![CDATA[
var edges = document.getElementsByTagName('g');
if (edges && edges.length) {
  for (var i=0;i<edges.length;i++) {
    if (edges[i].id.substr(0,4)=='edge') {
      edges[i].setAttribute('class','edge');
    }
  }
}
]]></script>
        <defs>
                <circle id="rim" cx="0" cy="0" r="7"/>
                <circle id="rim2" cx="0" cy="0" r="3.5"/>
                <g id="zoomPlus">
                        <use xlink:href="#rim" fill="#404040">
                                <set attributeName="fill" to="#808080" begin="zoomplus.mouseover" end="zoomplus.mouseout"/>
                        </use>
                        <path d="M-4,0h8M0,-4v8" fill="none" stroke="white" stroke-width="1.5" pointer-events="none"/>
                </g>
                <g id="zoomMin">
                        <use xlink:href="#rim" fill="#404040">
                                <set attributeName="fill" to="#808080" begin="zoomminus.mouseover" end="zoomminus.mouseout"/>
                        </use>
                        <path d="M-4,0h8" fill="none" stroke="white" stroke-width="1.5" pointer-events="none"/>
                </g>
                <g id="dirArrow">
                        <path fill="none" stroke="white" stroke-width="1.5" d="M0,-3.0v7 M-2.5,-0.5L0,-3.0L2.5,-0.5"/>
                </g>
               <g id="resetDef">
                       <use xlink:href="#rim2" fill="#404040">
                               <set attributeName="fill" to="#808080" begin="reset.mouseover" end="reset.mouseout"/>
                       </use>
               </g>
        </defs>

<script type="text/javascript">
var viewWidth = 875;
var viewHeight = 397;
var sectionId = 'dynsection-0';
</script>
<script xlink:href="svgpan.js"/>
<svg id="graph" class="graph">
<g id="viewport">
<title>Modules/MUON/MCH/include/MCH/PedestalsTask.h</title>
<!-- Node1 -->
<g id="node1" class="node"><title>Node1</title>
<polygon fill="#bfbfbf" stroke="black" points="566,-358.5 566,-388.5 713,-388.5 713,-358.5 566,-358.5"/>
<text text-anchor="start" x="574" y="-376.5" font-family="Helvetica,sans-Serif" font-size="10.00">Modules/MUON/MCH/include</text>
<text text-anchor="middle" x="639.5" y="-365.5" font-family="Helvetica,sans-Serif" font-size="10.00">/MCH/PedestalsTask.h</text>
</g>
<!-- Node2 -->
<g id="node2" class="node"><title>Node2</title>
<g id="a_node2"><a xlink:href="TaskInterface_8h.html" target="_top" xlink:title="QualityControl/TaskInterface.h">
<polygon fill="none" stroke="black" points="394.5,-185 394.5,-204 544.5,-204 544.5,-185 394.5,-185"/>
<text text-anchor="middle" x="469.5" y="-192" font-family="Helvetica,sans-Serif" font-size="10.00">QualityControl/TaskInterface.h</text>
</a>
</g>
</g>
<!-- Node1&#45;&gt;Node2 -->
<g id="edge1" class="edge"><title>Node1&#45;&gt;Node2</title>
<path fill="none" stroke="midnightblue" d="M654.832,-358.321C679.833,-333.493 723.883,-281.425 695.5,-246 677.774,-223.875 610.988,-210.801 554.577,-203.521"/>
<polygon fill="midnightblue" stroke="midnightblue" points="554.897,-200.033 544.541,-202.271 554.032,-206.98 554.897,-200.033"/>
</g>
<!-- Node19 -->
<g id="node19" class="node"><title>Node19</title>
<g id="a_node19"><a xlink:href="Mapping_8h_source.html" target="_top" xlink:title="MCH/Mapping.h">
<polygon fill="none" stroke="black" points="314.5,-246.5 314.5,-265.5 402.5,-265.5 402.5,-246.5 314.5,-246.5"/>
<text text-anchor="middle" x="358.5" y="-253.5" font-family="Helvetica,sans-Serif" font-size="10.00">MCH/Mapping.h</text>
</a>
</g>
</g>
<!-- Node1&#45;&gt;Node19 -->
<g id="edge24" class="edge"><title>Node1&#45;&gt;Node19</title>
<path fill="none" stroke="midnightblue" d="M573.241,-358.498C539.047,-350.087 497.141,-337.904 461.5,-322 430.521,-308.177 397.919,-286.152 377.895,-271.634"/>
<polygon fill="midnightblue" stroke="midnightblue" points="379.758,-268.659 369.63,-265.548 375.607,-274.296 379.758,-268.659"/>
</g>
<!-- Node21 -->
<g id="node21" class="node"><title>Node21</title>
<g id="a_node21"><a xlink:href="Decoding_8h.html" target="_top" xlink:title="MCH/Decoding.h">
<polygon fill="none" stroke="black" points="470.5,-302.5 470.5,-321.5 562.5,-321.5 562.5,-302.5 470.5,-302.5"/>
<text text-anchor="middle" x="516.5" y="-309.5" font-family="Helvetica,sans-Serif" font-size="10.00">MCH/Decoding.h</text>
</a>
</g>
</g>
<!-- Node1&#45;&gt;Node21 -->
<g id="edge27" class="edge"><title>Node1&#45;&gt;Node21</title>
<path fill="none" stroke="midnightblue" d="M610.351,-358.399C590.082,-348.595 563.259,-335.619 543.481,-326.052"/>
<polygon fill="midnightblue" stroke="midnightblue" points="544.924,-322.862 534.398,-321.658 541.876,-329.163 544.924,-322.862"/>
</g>
<!-- Node23 -->
<g id="node23" class="node"><title>Node23</title>
<polygon fill="none" stroke="#bfbfbf" points="592.5,-246.5 592.5,-265.5 686.5,-265.5 686.5,-246.5 592.5,-246.5"/>
<text text-anchor="middle" x="639.5" y="-253.5" font-family="Helvetica,sans-Serif" font-size="10.00">MCHBase/Digit.h</text>
</g>
<!-- Node1&#45;&gt;Node23 -->
<g id="edge32" class="edge"><title>Node1&#45;&gt;Node23</title>
<path fill="none" stroke="midnightblue" d="M639.5,-358.337C639.5,-337.622 639.5,-299.016 639.5,-275.899"/>
<polygon fill="midnightblue" stroke="midnightblue" points="643,-275.669 639.5,-265.669 636,-275.669 643,-275.669"/>
</g>
<!-- Node24 -->
<g id="node24" class="node"><title>Node24</title>
<g id="a_node24"><a xlink:href="GlobalHistogram_8h_source.html" target="_top" xlink:title="MCH/GlobalHistogram.h">
<polygon fill="none" stroke="black" points="742.5,-302.5 742.5,-321.5 866.5,-321.5 866.5,-302.5 742.5,-302.5"/>
<text text-anchor="middle" x="804.5" y="-309.5" font-family="Helvetica,sans-Serif" font-size="10.00">MCH/GlobalHistogram.h</text>
</a>
</g>
</g>
<!-- Node1&#45;&gt;Node24 -->
<g id="edge33" class="edge"><title>Node1&#45;&gt;Node24</title>
<path fill="none" stroke="midnightblue" d="M678.603,-358.399C706.658,-348.283 744.073,-334.791 770.809,-325.149"/>
<polygon fill="midnightblue" stroke="midnightblue" points="772.271,-328.343 780.491,-321.658 769.897,-321.758 772.271,-328.343"/>
</g>
<!-- Node3 -->
<g id="node3" class="node"><title>Node3</title>
<polygon fill="none" stroke="#bfbfbf" points="785,-0.5 785,-19.5 820,-19.5 820,-0.5 785,-0.5"/>
<text text-anchor="middle" x="802.5" y="-7.5" font-family="Helvetica,sans-Serif" font-size="10.00">map</text>
</g>
<!-- Node2&#45;&gt;Node3 -->
<g id="edge2" class="edge"><title>Node2&#45;&gt;Node3</title>
<path fill="none" stroke="midnightblue" d="M544.5,-188.603C618.232,-182.352 724.139,-169.063 755.5,-143 789.854,-114.45 799.106,-58.9432 801.592,-29.84"/>
<polygon fill="midnightblue" stroke="midnightblue" points="805.09,-29.9825 802.267,-19.7708 798.106,-29.5142 805.09,-29.9825"/>
</g>
<!-- Node4 -->
<g id="node4" class="node"><title>Node4</title>
<polygon fill="none" stroke="#bfbfbf" points="50.5,-62 50.5,-81 102.5,-81 102.5,-62 50.5,-62"/>
<text text-anchor="middle" x="76.5" y="-69" font-family="Helvetica,sans-Serif" font-size="10.00">memory</text>
</g>
<!-- Node2&#45;&gt;Node4 -->
<g id="edge3" class="edge"><title>Node2&#45;&gt;Node4</title>
<path fill="none" stroke="midnightblue" d="M422.473,-184.96C410.439,-182.891 397.506,-180.768 385.5,-179 320.163,-169.38 138.908,-187.925 90.5,-143 76.6629,-130.158 74.2907,-107.875 74.6653,-91.7926"/>
<polygon fill="midnightblue" stroke="midnightblue" points="78.1836,-91.5968 75.2988,-81.4022 71.1966,-91.1707 78.1836,-91.5968"/>
</g>
<!-- Node5 -->
<g id="node5" class="node"><title>Node5</title>
<polygon fill="none" stroke="#bfbfbf" points="438,-0.5 438,-19.5 479,-19.5 479,-0.5 438,-0.5"/>
<text text-anchor="middle" x="458.5" y="-7.5" font-family="Helvetica,sans-Serif" font-size="10.00">string</text>
</g>
<!-- Node2&#45;&gt;Node5 -->
<g id="edge4" class="edge"><title>Node2&#45;&gt;Node5</title>
<path fill="none" stroke="midnightblue" d="M544.676,-189.465C613.806,-183.995 709.03,-171.405 732.5,-143 786.925,-77.1304 786.274,-157.585 607.5,-87 561.394,-68.7959 510.525,-41.0769 481.746,-24.6264"/>
<polygon fill="midnightblue" stroke="midnightblue" points="483.283,-21.4726 472.871,-19.5096 479.786,-27.5368 483.283,-21.4726"/>
</g>
<!-- Node6 -->
<g id="node6" class="node"><title>Node6</title>
<polygon fill="none" stroke="#bfbfbf" points="0,-0.5 0,-19.5 83,-19.5 83,-0.5 0,-0.5"/>
<text text-anchor="middle" x="41.5" y="-7.5" font-family="Helvetica,sans-Serif" font-size="10.00">unordered_map</text>
</g>
<!-- Node2&#45;&gt;Node6 -->
<g id="edge5" class="edge"><title>Node2&#45;&gt;Node6</title>
<path fill="none" stroke="midnightblue" d="M422.92,-184.987C410.761,-182.895 397.657,-180.754 385.5,-179 316.859,-169.098 133.873,-180.446 75.5,-143 50.9922,-127.278 49.3457,-115.04 41.5,-87 36.1787,-67.9821 37.0797,-45.2235 38.7461,-29.5991"/>
<polygon fill="midnightblue" stroke="midnightblue" points="42.2231,-30.0009 40.0167,-19.6384 35.2793,-29.1151 42.2231,-30.0009"/>
</g>
<!-- Node7 -->
<g id="node7" class="node"><title>Node7</title>
<polygon fill="none" stroke="#bfbfbf" points="279,-123.5 279,-142.5 404,-142.5 404,-123.5 279,-123.5"/>
<text text-anchor="middle" x="341.5" y="-130.5" font-family="Helvetica,sans-Serif" font-size="10.00">Framework/InitContext.h</text>
</g>
<!-- Node2&#45;&gt;Node7 -->
<g id="edge6" class="edge"><title>Node2&#45;&gt;Node7</title>
<path fill="none" stroke="midnightblue" d="M451.161,-184.975C429.679,-174.99 393.878,-158.348 369.052,-146.807"/>
<polygon fill="midnightblue" stroke="midnightblue" points="370.349,-143.551 359.805,-142.509 367.398,-149.898 370.349,-143.551"/>
</g>
<!-- Node8 -->
<g id="node8" class="node"><title>Node8</title>
<polygon fill="none" stroke="#bfbfbf" points="422.5,-123.5 422.5,-142.5 582.5,-142.5 582.5,-123.5 422.5,-123.5"/>
<text text-anchor="middle" x="502.5" y="-130.5" font-family="Helvetica,sans-Serif" font-size="10.00">Framework/ProcessingContext.h</text>
</g>
<!-- Node2&#45;&gt;Node8 -->
<g id="edge7" class="edge"><title>Node2&#45;&gt;Node8</title>
<path fill="none" stroke="midnightblue" d="M474.228,-184.975C479.08,-176.227 486.766,-162.369 492.9,-151.309"/>
<polygon fill="midnightblue" stroke="midnightblue" points="495.991,-152.952 497.781,-142.509 489.87,-149.557 495.991,-152.952"/>
</g>
<!-- Node9 -->
<g id="node9" class="node"><title>Node9</title>
<g id="a_node9"><a xlink:href="Activity_8h.html" target="_top" xlink:title="QualityControl/Activity.h">
<polygon fill="none" stroke="black" points="601,-123.5 601,-142.5 724,-142.5 724,-123.5 601,-123.5"/>
<text text-anchor="middle" x="662.5" y="-130.5" font-family="Helvetica,sans-Serif" font-size="10.00">QualityControl/Activity.h</text>
</a>
</g>
</g>
<!-- Node2&#45;&gt;Node9 -->
<g id="edge8" class="edge"><title>Node2&#45;&gt;Node9</title>
<path fill="none" stroke="midnightblue" d="M497.152,-184.975C530.688,-174.636 587.373,-157.161 624.868,-145.602"/>
<polygon fill="midnightblue" stroke="midnightblue" points="626.374,-148.8 634.899,-142.509 624.312,-142.111 626.374,-148.8"/>
</g>
<!-- Node10 -->
<g id="node10" class="node"><title>Node10</title>
<g id="a_node10"><a xlink:href="ObjectsManager_8h.html" target="_top" xlink:title="QualityControl/ObjectsManager.h">
<polygon fill="none" stroke="black" points="100,-123.5 100,-142.5 261,-142.5 261,-123.5 100,-123.5"/>
<text text-anchor="middle" x="180.5" y="-130.5" font-family="Helvetica,sans-Serif" font-size="10.00">QualityControl/ObjectsManager.h</text>
</a>
</g>
</g>
<!-- Node2&#45;&gt;Node10 -->
<g id="edge9" class="edge"><title>Node2&#45;&gt;Node10</title>
<path fill="none" stroke="midnightblue" d="M428.093,-184.975C376.374,-174.327 287.887,-156.109 231.891,-144.581"/>
<polygon fill="midnightblue" stroke="midnightblue" points="232.33,-141.098 221.83,-142.509 230.919,-147.954 232.33,-141.098"/>
</g>
<!-- Node10&#45;&gt;Node4 -->
<g id="edge23" class="edge"><title>Node10&#45;&gt;Node4</title>
<path fill="none" stroke="midnightblue" d="M165.599,-123.475C148.532,-113.711 120.339,-97.5807 100.238,-86.0808"/>
<polygon fill="midnightblue" stroke="midnightblue" points="101.791,-82.9371 91.373,-81.0091 98.3148,-89.013 101.791,-82.9371"/>
</g>
<!-- Node10&#45;&gt;Node5 -->
<g id="edge22" class="edge"><title>Node10&#45;&gt;Node5</title>
<path fill="none" stroke="midnightblue" d="M247.82,-123.462C317.328,-114.092 417.573,-98.8123 431.5,-87 448.319,-72.735 454.663,-47.2556 457.054,-29.7603"/>
<polygon fill="midnightblue" stroke="midnightblue" points="460.556,-29.9267 458.126,-19.6144 453.595,-29.1916 460.556,-29.9267"/>
</g>
<!-- Node11 -->
<g id="node11" class="node"><title>Node11</title>
<g id="a_node11"><a xlink:href="MonitorObject_8h.html" target="_top" xlink:title="QualityControl/MonitorObject.h">
<polygon fill="none" stroke="black" points="617,-62 617,-81 768,-81 768,-62 617,-62"/>
<text text-anchor="middle" x="692.5" y="-69" font-family="Helvetica,sans-Serif" font-size="10.00">QualityControl/MonitorObject.h</text>
</a>
</g>
</g>
<!-- Node10&#45;&gt;Node11 -->
<g id="edge10" class="edge"><title>Node10&#45;&gt;Node11</title>
<path fill="none" stroke="midnightblue" d="M253.857,-123.475C347.862,-112.551 510.425,-93.6592 609.054,-82.1974"/>
<polygon fill="midnightblue" stroke="midnightblue" points="609.75,-85.6401 619.279,-81.0091 608.942,-78.6869 609.75,-85.6401"/>
</g>
<!-- Node15 -->
<g id="node15" class="node"><title>Node15</title>
<g id="a_node15"><a xlink:href="MonitorObjectCollection_8h.html" target="_top" xlink:title="QualityControl/MonitorObject\lCollection.h">
<polygon fill="none" stroke="black" points="121,-56.5 121,-86.5 264,-86.5 264,-56.5 121,-56.5"/>
<text text-anchor="start" x="129" y="-74.5" font-family="Helvetica,sans-Serif" font-size="10.00">QualityControl/MonitorObject</text>
<text text-anchor="middle" x="192.5" y="-63.5" font-family="Helvetica,sans-Serif" font-size="10.00">Collection.h</text>
</a>
</g>
</g>
<!-- Node10&#45;&gt;Node15 -->
<g id="edge16" class="edge"><title>Node10&#45;&gt;Node15</title>
<path fill="none" stroke="midnightblue" d="M182.219,-123.475C183.647,-116.396 185.75,-105.97 187.682,-96.3896"/>
<polygon fill="midnightblue" stroke="midnightblue" points="191.126,-97.0176 189.672,-86.523 184.264,-95.6336 191.126,-97.0176"/>
</g>
<!-- Node18 -->
<g id="node18" class="node"><title>Node18</title>
<g id="a_node18"><a xlink:href="TaskConfig_8h.html" target="_top" xlink:title="QualityControl/TaskConfig.h">
<polygon fill="none" stroke="black" points="282.5,-62 282.5,-81 422.5,-81 422.5,-62 282.5,-62"/>
<text text-anchor="middle" x="352.5" y="-69" font-family="Helvetica,sans-Serif" font-size="10.00">QualityControl/TaskConfig.h</text>
</a>
</g>
</g>
<!-- Node10&#45;&gt;Node18 -->
<g id="edge19" class="edge"><title>Node10&#45;&gt;Node18</title>
<path fill="none" stroke="midnightblue" d="M205.143,-123.475C234.775,-113.225 284.685,-95.9593 318.102,-84.3994"/>
<polygon fill="midnightblue" stroke="midnightblue" points="319.596,-87.5861 327.902,-81.0091 317.308,-80.9707 319.596,-87.5861"/>
</g>
<!-- Node11&#45;&gt;Node3 -->
<g id="edge12" class="edge"><title>Node11&#45;&gt;Node3</title>
<path fill="none" stroke="midnightblue" d="M708.26,-61.9751C726.476,-52.1222 756.673,-35.7883 777.968,-24.2697"/>
<polygon fill="midnightblue" stroke="midnightblue" points="779.638,-27.3453 786.769,-19.5091 776.308,-21.1883 779.638,-27.3453"/>
</g>
<!-- Node11&#45;&gt;Node5 -->
<g id="edge11" class="edge"><title>Node11&#45;&gt;Node5</title>
<path fill="none" stroke="midnightblue" d="M656.455,-61.9793C615.785,-52.2617 547.711,-35.6841 489.5,-20 489.29,-19.9435 489.08,-19.8867 488.869,-19.8295"/>
<polygon fill="midnightblue" stroke="midnightblue" points="489.719,-16.433 479.146,-17.1147 487.836,-23.1751 489.719,-16.433"/>
</g>
<!-- Node12 -->
<g id="node12" class="node"><title>Node12</title>
<polygon fill="none" stroke="#bfbfbf" points="710.5,-0.5 710.5,-19.5 766.5,-19.5 766.5,-0.5 710.5,-0.5"/>
<text text-anchor="middle" x="738.5" y="-7.5" font-family="Helvetica,sans-Serif" font-size="10.00">Rtypes.h</text>
</g>
<!-- Node11&#45;&gt;Node12 -->
<g id="edge13" class="edge"><title>Node11&#45;&gt;Node12</title>
<path fill="none" stroke="midnightblue" d="M699.091,-61.9751C705.991,-53.0501 717.002,-38.8071 725.634,-27.6425"/>
<polygon fill="midnightblue" stroke="midnightblue" points="728.574,-29.5612 731.922,-19.5091 723.036,-25.2798 728.574,-29.5612"/>
</g>
<!-- Node13 -->
<g id="node13" class="node"><title>Node13</title>
<polygon fill="none" stroke="#bfbfbf" points="499,-0.5 499,-19.5 558,-19.5 558,-0.5 499,-0.5"/>
<text text-anchor="middle" x="528.5" y="-7.5" font-family="Helvetica,sans-Serif" font-size="10.00">TObject.h</text>
</g>
<!-- Node11&#45;&gt;Node13 -->
<g id="edge14" class="edge"><title>Node11&#45;&gt;Node13</title>
<path fill="none" stroke="midnightblue" d="M669.003,-61.9751C640.871,-51.7687 593.571,-34.608 561.711,-23.0492"/>
<polygon fill="midnightblue" stroke="midnightblue" points="562.548,-19.6295 551.954,-19.5091 560.16,-26.2098 562.548,-19.6295"/>
</g>
<!-- Node14 -->
<g id="node14" class="node"><title>Node14</title>
<polygon fill="none" stroke="#bfbfbf" points="576.5,-0.5 576.5,-19.5 692.5,-19.5 692.5,-0.5 576.5,-0.5"/>
<text text-anchor="middle" x="634.5" y="-7.5" font-family="Helvetica,sans-Serif" font-size="10.00">Common/Exceptions.h</text>
</g>
<!-- Node11&#45;&gt;Node14 -->
<g id="edge15" class="edge"><title>Node11&#45;&gt;Node14</title>
<path fill="none" stroke="midnightblue" d="M684.19,-61.9751C675.318,-52.8733 661.054,-38.241 650.08,-26.983"/>
<polygon fill="midnightblue" stroke="midnightblue" points="652.281,-24.2268 642.795,-19.5091 647.269,-29.113 652.281,-24.2268"/>
</g>
<!-- Node16 -->
<g id="node16" class="node"><title>Node16</title>
<polygon fill="none" stroke="#bfbfbf" points="120,-0.5 120,-19.5 189,-19.5 189,-0.5 120,-0.5"/>
<text text-anchor="middle" x="154.5" y="-7.5" font-family="Helvetica,sans-Serif" font-size="10.00">TObjArray.h</text>
</g>
<!-- Node15&#45;&gt;Node16 -->
<g id="edge17" class="edge"><title>Node15&#45;&gt;Node16</title>
<path fill="none" stroke="midnightblue" d="M183.495,-56.3993C178.087,-47.9315 171.168,-37.0991 165.446,-28.1393"/>
<polygon fill="midnightblue" stroke="midnightblue" points="168.362,-26.2018 160.029,-19.6578 162.462,-29.9695 168.362,-26.2018"/>
</g>
<!-- Node17 -->
<g id="node17" class="node"><title>Node17</title>
<polygon fill="none" stroke="#bfbfbf" points="207.5,-0.5 207.5,-19.5 335.5,-19.5 335.5,-0.5 207.5,-0.5"/>
<text text-anchor="middle" x="271.5" y="-7.5" font-family="Helvetica,sans-Serif" font-size="10.00">Mergers/MergeInterface.h</text>
</g>
<!-- Node15&#45;&gt;Node17 -->
<g id="edge18" class="edge"><title>Node15&#45;&gt;Node17</title>
<path fill="none" stroke="midnightblue" d="M211.222,-56.3993C223.412,-47.2185 239.292,-35.2579 251.693,-25.9182"/>
<polygon fill="midnightblue" stroke="midnightblue" points="254.123,-28.4697 260.005,-19.6578 249.911,-22.8782 254.123,-28.4697"/>
</g>
<!-- Node18&#45;&gt;Node5 -->
<g id="edge20" class="edge"><title>Node18&#45;&gt;Node5</title>
<path fill="none" stroke="midnightblue" d="M367.687,-61.9751C385.162,-52.1664 414.079,-35.9346 434.583,-24.425"/>
<polygon fill="midnightblue" stroke="midnightblue" points="436.334,-27.456 443.341,-19.5091 432.908,-21.3519 436.334,-27.456"/>
</g>
<!-- Node18&#45;&gt;Node6 -->
<g id="edge21" class="edge"><title>Node18&#45;&gt;Node6</title>
<path fill="none" stroke="midnightblue" d="M307.941,-61.9751C251.26,-51.1308 153.542,-32.4357 93.5108,-20.9506"/>
<polygon fill="midnightblue" stroke="midnightblue" points="93.9654,-17.4742 83.4858,-19.0326 92.6499,-24.3495 93.9654,-17.4742"/>
</g>
<!-- Node19&#45;&gt;Node2 -->
<g id="edge26" class="edge"><title>Node19&#45;&gt;Node2</title>
<path fill="none" stroke="midnightblue" d="M374.404,-246.475C392.785,-236.622 423.256,-220.288 444.745,-208.77"/>
<polygon fill="midnightblue" stroke="midnightblue" points="446.466,-211.818 453.626,-204.009 443.159,-205.649 446.466,-211.818"/>
</g>
<!-- Node20 -->
<g id="node20" class="node"><title>Node20</title>
<polygon fill="none" stroke="#bfbfbf" points="262,-179.5 262,-209.5 377,-209.5 377,-179.5 262,-179.5"/>
<text text-anchor="start" x="270" y="-197.5" font-family="Helvetica,sans-Serif" font-size="10.00">MCHMappingInterface</text>
<text text-anchor="middle" x="319.5" y="-186.5" font-family="Helvetica,sans-Serif" font-size="10.00">/Segmentation.h</text>
</g>
<!-- Node19&#45;&gt;Node20 -->
<g id="edge25" class="edge"><title>Node19&#45;&gt;Node20</title>
<path fill="none" stroke="midnightblue" d="M352.912,-246.475C348.075,-239.094 340.853,-228.077 334.36,-218.171"/>
<polygon fill="midnightblue" stroke="midnightblue" points="337.101,-215.968 328.692,-209.523 331.246,-219.805 337.101,-215.968"/>
</g>
<!-- Node21&#45;&gt;Node2 -->
<g id="edge28" class="edge"><title>Node21&#45;&gt;Node2</title>
<path fill="none" stroke="midnightblue" d="M493.712,-302.471C478.174,-295.316 458.793,-283.435 449.5,-266 440.468,-249.054 449.039,-227.583 457.595,-212.813"/>
<polygon fill="midnightblue" stroke="midnightblue" points="460.659,-214.517 463.031,-204.191 454.737,-210.784 460.659,-214.517"/>
</g>
<!-- Node21&#45;&gt;Node19 -->
<g id="edge30" class="edge"><title>Node21&#45;&gt;Node19</title>
<path fill="none" stroke="midnightblue" d="M491.464,-302.444C464.884,-293.359 422.691,-278.939 392.977,-268.783"/>
<polygon fill="midnightblue" stroke="midnightblue" points="394.013,-265.439 383.418,-265.516 391.749,-272.062 394.013,-265.439"/>
</g>
<!-- Node22 -->
<g id="node22" class="node"><title>Node22</title>
<g id="a_node22"><a xlink:href="sampa__header_8h_source.html" target="_top" xlink:title="MCH/sampa_header.h">
<polygon fill="none" stroke="black" points="459,-246.5 459,-265.5 574,-265.5 574,-246.5 459,-246.5"/>
<text text-anchor="middle" x="516.5" y="-253.5" font-family="Helvetica,sans-Serif" font-size="10.00">MCH/sampa_header.h</text>
</a>
</g>
</g>
<!-- Node21&#45;&gt;Node22 -->
<g id="edge29" class="edge"><title>Node21&#45;&gt;Node22</title>
<path fill="none" stroke="midnightblue" d="M516.5,-302.083C516.5,-295.006 516.5,-284.861 516.5,-275.986"/>
<polygon fill="midnightblue" stroke="midnightblue" points="520,-275.751 516.5,-265.751 513,-275.751 520,-275.751"/>
</g>
<!-- Node21&#45;&gt;Node23 -->
<g id="edge31" class="edge"><title>Node21&#45;&gt;Node23</title>
<path fill="none" stroke="midnightblue" d="M535.99,-302.444C556.142,-293.596 587.823,-279.687 610.831,-269.586"/>
<polygon fill="midnightblue" stroke="midnightblue" points="612.352,-272.741 620.101,-265.516 609.538,-266.332 612.352,-272.741"/>
</g>
<!-- Node24&#45;&gt;Node3 -->
<g id="edge34" class="edge"><title>Node24&#45;&gt;Node3</title>
<path fill="none" stroke="midnightblue" d="M808.422,-302.217C816.554,-283.18 834.5,-236.521 834.5,-195.5 834.5,-195.5 834.5,-195.5 834.5,-132 834.5,-94.3135 819.812,-52.1533 810.338,-28.879"/>
<polygon fill="midnightblue" stroke="midnightblue" points="813.535,-27.452 806.424,-19.5983 807.085,-30.1725 813.535,-27.452"/>
</g>
<!-- Node25 -->
<g id="node25" class="node"><title>Node25</title>
<polygon fill="none" stroke="#bfbfbf" points="762.5,-246.5 762.5,-265.5 806.5,-265.5 806.5,-246.5 762.5,-246.5"/>
<text text-anchor="middle" x="784.5" y="-253.5" font-family="Helvetica,sans-Serif" font-size="10.00">TH2.h</text>
</g>
<!-- Node24&#45;&gt;Node25 -->
<g id="edge35" class="edge"><title>Node24&#45;&gt;Node25</title>
<path fill="none" stroke="midnightblue" d="M801.197,-302.083C798.518,-294.849 794.651,-284.409 791.314,-275.397"/>
<polygon fill="midnightblue" stroke="midnightblue" points="794.496,-273.913 787.741,-265.751 787.932,-276.344 794.496,-273.913"/>
</g>
</g>
</svg>
        <g id="navigator" transform="translate(0 0)" fill="#404254">
                <rect fill="#f2f5e9" fill-opacity="0.5" stroke="#606060" stroke-width=".5" x="0" y="0" width="60" height="60"/>
                <use id="zoomplus" xlink:href="#zoomPlus" x="17" y="9" onmousedown="handleZoom(evt,'in')"/>
                <use id="zoomminus" xlink:href="#zoomMin" x="42" y="9" onmousedown="handleZoom(evt,'out')"/>
                <use id="reset" xlink:href="#resetDef" x="30" y="36" onmousedown="handleReset()"/>
                <g id="arrowUp" xlink:href="#dirArrow" transform="translate(30 24)" onmousedown="handlePan(0,-1)">
                  <use xlink:href="#rim" fill="#404040">
                        <set attributeName="fill" to="#808080" begin="arrowUp.mouseover" end="arrowUp.mouseout"/>
                  </use>
                  <path fill="none" stroke="white" stroke-width="1.5" d="M0,-3.0v7 M-2.5,-0.5L0,-3.0L2.5,-0.5"/>
                </g>
                <g id="arrowRight" xlink:href="#dirArrow" transform="rotate(90) translate(36 -43)" onmousedown="handlePan(1,0)">
                  <use xlink:href="#rim" fill="#404040">
                        <set attributeName="fill" to="#808080" begin="arrowRight.mouseover" end="arrowRight.mouseout"/>
                  </use>
                  <path fill="none" stroke="white" stroke-width="1.5" d="M0,-3.0v7 M-2.5,-0.5L0,-3.0L2.5,-0.5"/>
                </g>
                <g id="arrowDown" xlink:href="#dirArrow" transform="rotate(180) translate(-30 -48)" onmousedown="handlePan(0,1)">
                  <use xlink:href="#rim" fill="#404040">
                        <set attributeName="fill" to="#808080" begin="arrowDown.mouseover" end="arrowDown.mouseout"/>
                  </use>
                  <path fill="none" stroke="white" stroke-width="1.5" d="M0,-3.0v7 M-2.5,-0.5L0,-3.0L2.5,-0.5"/>
                </g>
                <g id="arrowLeft" xlink:href="#dirArrow" transform="rotate(270) translate(-36 17)" onmousedown="handlePan(-1,0)">
                  <use xlink:href="#rim" fill="#404040">
                        <set attributeName="fill" to="#808080" begin="arrowLeft.mouseover" end="arrowLeft.mouseout"/>
                  </use>
                  <path fill="none" stroke="white" stroke-width="1.5" d="M0,-3.0v7 M-2.5,-0.5L0,-3.0L2.5,-0.5"/>
                </g>
        </g>
        <svg viewBox="0 0 15 15" width="100%" height="30px" preserveAspectRatio="xMaxYMin meet">
         <g id="arrow_out" transform="scale(0.3 0.3)">
          <a xlink:href="PedestalsTask_8h__incl_org.svg" target="_base">
           <rect id="button" ry="5" rx="5" y="6" x="6" height="38" width="38"
                fill="#f2f5e9" fill-opacity="0.5" stroke="#606060" stroke-width="1.0"/>
           <path id="arrow"
             d="M 11.500037,31.436501 C 11.940474,20.09759 22.043105,11.32322 32.158766,21.979434 L 37.068811,17.246167 C 37.068811,17.246167 37.088388,32 37.088388,32 L 22.160133,31.978069 C 22.160133,31.978069 26.997745,27.140456 26.997745,27.140456 C 18.528582,18.264221 13.291696,25.230495 11.500037,31.436501 z"
             style="fill:#404040;"/>
          </a>
         </g>
        </svg>
</svg>
