<?xml version="1.0" encoding="UTF-8" standalone="no"?>
<!DOCTYPE svg PUBLIC "-//W3C//DTD SVG 1.1//EN"
 "http://www.w3.org/Graphics/SVG/1.1/DTD/svg11.dtd">
<!-- Generated by graphviz version 2.38.0 (20140413.2041)
 -->
<!-- Title: Modules/MUON/MCH/src/PedestalsTask.cxx Pages: 1 -->
<svg width="2037pt" height="464pt"
 viewBox="0.00 0.00 2036.50 464.00" xmlns="http://www.w3.org/2000/svg" xmlns:xlink="http://www.w3.org/1999/xlink">
<g id="graph0" class="graph" transform="scale(1 1) rotate(0) translate(4 460)">
<title>Modules/MUON/MCH/src/PedestalsTask.cxx</title>
<!-- Node1 -->
<g id="node1" class="node"><title>Node1</title>
<polygon fill="#bfbfbf" stroke="black" points="825.5,-425.5 825.5,-455.5 955.5,-455.5 955.5,-425.5 825.5,-425.5"/>
<text text-anchor="start" x="833.5" y="-443.5" font-family="Helvetica,sans-Serif" font-size="10.00">Modules/MUON/MCH/src</text>
<text text-anchor="middle" x="890.5" y="-432.5" font-family="Helvetica,sans-Serif" font-size="10.00">/PedestalsTask.cxx</text>
</g>
<!-- Node2 -->
<g id="node2" class="node"><title>Node2</title>
<polygon fill="none" stroke="#bfbfbf" points="0,-364 0,-383 65,-383 65,-364 0,-364"/>
<text text-anchor="middle" x="32.5" y="-371" font-family="Helvetica,sans-Serif" font-size="10.00">TCanvas.h</text>
</g>
<!-- Node1&#45;&gt;Node2 -->
<g id="edge1" class="edge"><title>Node1&#45;&gt;Node2</title>
<path fill="none" stroke="midnightblue" d="M825.378,-437.741C658.345,-432.866 217.778,-417.614 74.5,-389 70.8028,-388.262 66.9864,-387.277 63.2312,-386.166"/>
<polygon fill="midnightblue" stroke="midnightblue" points="64.1496,-382.784 53.5573,-383.017 61.9826,-389.441 64.1496,-382.784"/>
</g>
<!-- Node3 -->
<g id="node3" class="node"><title>Node3</title>
<polygon fill="none" stroke="#bfbfbf" points="83.5,-364 83.5,-383 127.5,-383 127.5,-364 83.5,-364"/>
<text text-anchor="middle" x="105.5" y="-371" font-family="Helvetica,sans-Serif" font-size="10.00">TH1.h</text>
</g>
<!-- Node1&#45;&gt;Node3 -->
<g id="edge2" class="edge"><title>Node1&#45;&gt;Node3</title>
<path fill="none" stroke="midnightblue" d="M825.228,-437.734C667.812,-433.052 270.765,-418.601 141.5,-389 138.668,-388.351 135.768,-387.51 132.904,-386.559"/>
<polygon fill="midnightblue" stroke="midnightblue" points="134.046,-383.249 123.454,-383.024 131.594,-389.806 134.046,-383.249"/>
</g>
<!-- Node4 -->
<g id="node4" class="node"><title>Node4</title>
<polygon fill="none" stroke="#bfbfbf" points="133.5,-246.5 133.5,-265.5 177.5,-265.5 177.5,-246.5 133.5,-246.5"/>
<text text-anchor="middle" x="155.5" y="-253.5" font-family="Helvetica,sans-Serif" font-size="10.00">TH2.h</text>
</g>
<!-- Node1&#45;&gt;Node4 -->
<g id="edge3" class="edge"><title>Node1&#45;&gt;Node4</title>
<path fill="none" stroke="midnightblue" d="M825.419,-437.684C727.329,-433.918 536.194,-422.569 377.5,-389 284.548,-369.338 240.516,-390.327 174.5,-322 162.639,-309.724 158.121,-290.465 156.431,-276.093"/>
<polygon fill="midnightblue" stroke="midnightblue" points="159.896,-275.524 155.596,-265.841 152.92,-276.092 159.896,-275.524"/>
</g>
<!-- Node5 -->
<g id="node5" class="node"><title>Node5</title>
<polygon fill="none" stroke="#bfbfbf" points="755,-364 755,-383 802,-383 802,-364 755,-364"/>
<text text-anchor="middle" x="778.5" y="-371" font-family="Helvetica,sans-Serif" font-size="10.00">TFile.h</text>
</g>
<!-- Node1&#45;&gt;Node5 -->
<g id="edge4" class="edge"><title>Node1&#45;&gt;Node5</title>
<path fill="none" stroke="midnightblue" d="M866.198,-425.396C847.155,-414.344 820.82,-399.061 801.989,-388.132"/>
<polygon fill="midnightblue" stroke="midnightblue" points="803.564,-384.999 793.158,-383.007 800.05,-391.054 803.564,-384.999"/>
</g>
<!-- Node6 -->
<g id="node6" class="node"><title>Node6</title>
<polygon fill="none" stroke="#bfbfbf" points="820,-364 820,-383 961,-383 961,-364 820,-364"/>
<text text-anchor="middle" x="890.5" y="-371" font-family="Helvetica,sans-Serif" font-size="10.00">Headers/RAWDataHeader.h</text>
</g>
<!-- Node1&#45;&gt;Node6 -->
<g id="edge5" class="edge"><title>Node1&#45;&gt;Node6</title>
<path fill="none" stroke="midnightblue" d="M890.5,-425.396C890.5,-416.064 890.5,-403.714 890.5,-393.517"/>
<polygon fill="midnightblue" stroke="midnightblue" points="894,-393.195 890.5,-383.195 887,-393.195 894,-393.195"/>
</g>
<!-- Node7 -->
<g id="node7" class="node"><title>Node7</title>
<polygon fill="none" stroke="#bfbfbf" points="979.5,-364 979.5,-383 1127.5,-383 1127.5,-364 979.5,-364"/>
<text text-anchor="middle" x="1053.5" y="-371" font-family="Helvetica,sans-Serif" font-size="10.00">Framework/CallbackService.h</text>
</g>
<!-- Node1&#45;&gt;Node7 -->
<g id="edge6" class="edge"><title>Node1&#45;&gt;Node7</title>
<path fill="none" stroke="midnightblue" d="M925.869,-425.396C954.722,-413.89 995.077,-397.797 1022.64,-386.807"/>
<polygon fill="midnightblue" stroke="midnightblue" points="1024.17,-389.962 1032.17,-383.007 1021.58,-383.46 1024.17,-389.962"/>
</g>
<!-- Node8 -->
<g id="node8" class="node"><title>Node8</title>
<polygon fill="none" stroke="#bfbfbf" points="1146,-364 1146,-383 1287,-383 1287,-364 1146,-364"/>
<text text-anchor="middle" x="1216.5" y="-371" font-family="Helvetica,sans-Serif" font-size="10.00">Framework/ControlService.h</text>
</g>
<!-- Node1&#45;&gt;Node8 -->
<g id="edge7" class="edge"><title>Node1&#45;&gt;Node8</title>
<path fill="none" stroke="midnightblue" d="M955.687,-426.503C1016.86,-414.305 1107.21,-396.292 1163.91,-384.986"/>
<polygon fill="midnightblue" stroke="midnightblue" points="1164.62,-388.412 1173.75,-383.024 1163.26,-381.548 1164.62,-388.412"/>
</g>
<!-- Node9 -->
<g id="node9" class="node"><title>Node9</title>
<polygon fill="none" stroke="#bfbfbf" points="1305.5,-364 1305.5,-383 1403.5,-383 1403.5,-364 1305.5,-364"/>
<text text-anchor="middle" x="1354.5" y="-371" font-family="Helvetica,sans-Serif" font-size="10.00">Framework/Task.h</text>
</g>
<!-- Node1&#45;&gt;Node9 -->
<g id="edge8" class="edge"><title>Node1&#45;&gt;Node9</title>
<path fill="none" stroke="midnightblue" d="M955.565,-433.859C1036.06,-426.318 1177.1,-411.266 1296.5,-389 1301.98,-387.977 1307.72,-386.745 1313.37,-385.436"/>
<polygon fill="midnightblue" stroke="midnightblue" points="1314.45,-388.775 1323.35,-383.025 1312.81,-381.971 1314.45,-388.775"/>
</g>
<!-- Node10 -->
<g id="node10" class="node"><title>Node10</title>
<polygon fill="none" stroke="#bfbfbf" points="1421.5,-364 1421.5,-383 1557.5,-383 1557.5,-364 1421.5,-364"/>
<text text-anchor="middle" x="1489.5" y="-371" font-family="Helvetica,sans-Serif" font-size="10.00">DPLUtils/DPLRawParser.h</text>
</g>
<!-- Node1&#45;&gt;Node10 -->
<g id="edge9" class="edge"><title>Node1&#45;&gt;Node10</title>
<path fill="none" stroke="midnightblue" d="M955.827,-435.071C1054.89,-427.928 1248.89,-412.27 1412.5,-389 1420.82,-387.816 1429.62,-386.358 1438.17,-384.828"/>
<polygon fill="midnightblue" stroke="midnightblue" points="1438.85,-388.262 1448.05,-383.011 1437.59,-381.377 1438.85,-388.262"/>
</g>
<!-- Node11 -->
<g id="node11" class="node"><title>Node11</title>
<g id="a_node11"><a xlink:href="QcInfoLogger_8h.html" target="_top" xlink:title="QualityControl/QcInfoLogger.h">
<polygon fill="none" stroke="black" points="1576,-364 1576,-383 1725,-383 1725,-364 1576,-364"/>
<text text-anchor="middle" x="1650.5" y="-371" font-family="Helvetica,sans-Serif" font-size="10.00">QualityControl/QcInfoLogger.h</text>
</a>
</g>
</g>
<!-- Node1&#45;&gt;Node11 -->
<g id="edge10" class="edge"><title>Node1&#45;&gt;Node11</title>
<path fill="none" stroke="midnightblue" d="M955.964,-436.709C1076.91,-431.088 1343.41,-416.523 1566.5,-389 1575.98,-387.83 1586.03,-386.328 1595.75,-384.735"/>
<polygon fill="midnightblue" stroke="midnightblue" points="1596.44,-388.168 1605.72,-383.053 1595.27,-381.265 1596.44,-388.168"/>
</g>
<!-- Node13 -->
<g id="node13" class="node"><title>Node13</title>
<g id="a_node13"><a xlink:href="PedestalsTask_8h.html" target="_top" xlink:title="MCH/PedestalsTask.h">
<polygon fill="none" stroke="black" points="386.5,-364 386.5,-383 502.5,-383 502.5,-364 386.5,-364"/>
<text text-anchor="middle" x="444.5" y="-371" font-family="Helvetica,sans-Serif" font-size="10.00">MCH/PedestalsTask.h</text>
</a>
</g>
</g>
<!-- Node1&#45;&gt;Node13 -->
<g id="edge12" class="edge"><title>Node1&#45;&gt;Node13</title>
<path fill="none" stroke="midnightblue" d="M825.17,-429.979C741.585,-417.797 597.494,-396.797 512.598,-384.425"/>
<polygon fill="midnightblue" stroke="midnightblue" points="512.946,-380.938 502.546,-382.96 511.937,-387.865 512.946,-380.938"/>
</g>
<!-- Node32 -->
<g id="node32" class="node"><title>Node32</title>
<polygon fill="none" stroke="#bfbfbf" points="639,-179.5 639,-209.5 754,-209.5 754,-179.5 639,-179.5"/>
<text text-anchor="start" x="647" y="-197.5" font-family="Helvetica,sans-Serif" font-size="10.00">MCHMappingInterface</text>
<text text-anchor="middle" x="696.5" y="-186.5" font-family="Helvetica,sans-Serif" font-size="10.00">/Segmentation.h</text>
</g>
<!-- Node1&#45;&gt;Node32 -->
<g id="edge49" class="edge"><title>Node1&#45;&gt;Node32</title>
<path fill="none" stroke="midnightblue" d="M825.483,-433.593C796.048,-427.304 763.81,-414.576 745.5,-389 708.503,-337.321 768.282,-304.94 744.5,-246 739.995,-234.835 731.738,-224.719 723.326,-216.523"/>
<polygon fill="midnightblue" stroke="midnightblue" points="725.417,-213.693 715.662,-209.561 720.711,-218.875 725.417,-213.693"/>
</g>
<!-- Node35 -->
<g id="node35" class="node"><title>Node35</title>
<polygon fill="none" stroke="#bfbfbf" points="641.5,-246.5 641.5,-265.5 735.5,-265.5 735.5,-246.5 641.5,-246.5"/>
<text text-anchor="middle" x="688.5" y="-253.5" font-family="Helvetica,sans-Serif" font-size="10.00">MCHBase/Digit.h</text>
</g>
<!-- Node1&#45;&gt;Node35 -->
<g id="edge48" class="edge"><title>Node1&#45;&gt;Node35</title>
<path fill="none" stroke="midnightblue" d="M825.295,-437.477C787.083,-432.746 740.892,-420.276 712.5,-389 684.017,-357.624 683.897,-304.176 686.212,-275.875"/>
<polygon fill="midnightblue" stroke="midnightblue" points="689.713,-276.035 687.239,-265.733 682.749,-275.329 689.713,-276.035"/>
</g>
<!-- Node37 -->
<g id="node37" class="node"><title>Node37</title>
<polygon fill="none" stroke="#bfbfbf" points="1743,-358.5 1743,-388.5 1868,-388.5 1868,-358.5 1743,-358.5"/>
<text text-anchor="start" x="1751" y="-376.5" font-family="Helvetica,sans-Serif" font-size="10.00">MCHMappingInterface</text>
<text text-anchor="middle" x="1805.5" y="-365.5" font-family="Helvetica,sans-Serif" font-size="10.00">/CathodeSegmentation.h</text>
</g>
<!-- Node1&#45;&gt;Node37 -->
<g id="edge50" class="edge"><title>Node1&#45;&gt;Node37</title>
<path fill="none" stroke="midnightblue" d="M955.655,-438.74C1096.13,-436.424 1437.99,-427.136 1732.83,-389.101"/>
<polygon fill="midnightblue" stroke="midnightblue" points="1733.4,-392.557 1742.86,-387.794 1732.49,-385.616 1733.4,-392.557"/>
</g>
<!-- Node38 -->
<g id="node38" class="node"><title>Node38</title>
<polygon fill="none" stroke="#bfbfbf" points="1886.5,-364 1886.5,-383 2028.5,-383 2028.5,-364 1886.5,-364"/>
<text text-anchor="middle" x="1957.5" y="-371" font-family="Helvetica,sans-Serif" font-size="10.00">MCHRawElecMap/Mapper.h</text>
</g>
<!-- Node1&#45;&gt;Node38 -->
<g id="edge51" class="edge"><title>Node1&#45;&gt;Node38</title>
<path fill="none" stroke="midnightblue" d="M955.7,-439.048C1114.13,-437.323 1531.72,-429.015 1877.5,-389 1886.77,-387.928 1896.58,-386.442 1906.04,-384.829"/>
<polygon fill="midnightblue" stroke="midnightblue" points="1906.89,-388.233 1916.13,-383.042 1905.67,-381.34 1906.89,-388.233"/>
</g>
<!-- Node12 -->
<g id="node12" class="node"><title>Node12</title>
<polygon fill="none" stroke="#bfbfbf" points="1585.5,-302.5 1585.5,-321.5 1715.5,-321.5 1715.5,-302.5 1585.5,-302.5"/>
<text text-anchor="middle" x="1650.5" y="-309.5" font-family="Helvetica,sans-Serif" font-size="10.00">InfoLogger/InfoLogger.hxx</text>
</g>
<!-- Node11&#45;&gt;Node12 -->
<g id="edge11" class="edge"><title>Node11&#45;&gt;Node12</title>
<path fill="none" stroke="midnightblue" d="M1650.5,-363.975C1650.5,-355.58 1650.5,-342.481 1650.5,-331.663"/>
<polygon fill="midnightblue" stroke="midnightblue" points="1654,-331.509 1650.5,-321.509 1647,-331.509 1654,-331.509"/>
</g>
<!-- Node14 -->
<g id="node14" class="node"><title>Node14</title>
<g id="a_node14"><a xlink:href="TaskInterface_8h.html" target="_top" xlink:title="QualityControl/TaskInterface.h">
<polygon fill="none" stroke="black" points="404.5,-185 404.5,-204 554.5,-204 554.5,-185 404.5,-185"/>
<text text-anchor="middle" x="479.5" y="-192" font-family="Helvetica,sans-Serif" font-size="10.00">QualityControl/TaskInterface.h</text>
</a>
</g>
</g>
<!-- Node13&#45;&gt;Node14 -->
<g id="edge13" class="edge"><title>Node13&#45;&gt;Node14</title>
<path fill="none" stroke="midnightblue" d="M429.627,-363.711C396.965,-343.282 324.205,-290.913 354.5,-246 367.782,-226.308 390.177,-214.293 412.373,-206.963"/>
<polygon fill="midnightblue" stroke="midnightblue" points="413.618,-210.243 422.183,-204.006 411.598,-203.54 413.618,-210.243"/>
</g>
<!-- Node31 -->
<g id="node31" class="node"><title>Node31</title>
<g id="a_node31"><a xlink:href="Mapping_8h_source.html" target="_top" xlink:title="MCH/Mapping.h">
<polygon fill="none" stroke="black" points="363.5,-246.5 363.5,-265.5 451.5,-265.5 451.5,-246.5 363.5,-246.5"/>
<text text-anchor="middle" x="407.5" y="-253.5" font-family="Helvetica,sans-Serif" font-size="10.00">MCH/Mapping.h</text>
</a>
</g>
</g>
<!-- Node13&#45;&gt;Node31 -->
<g id="edge36" class="edge"><title>Node13&#45;&gt;Node31</title>
<path fill="none" stroke="midnightblue" d="M441.29,-363.974C437.566,-353.975 431.321,-336.875 426.5,-322 421.46,-306.447 416.289,-288.611 412.616,-275.562"/>
<polygon fill="midnightblue" stroke="midnightblue" points="415.975,-274.575 409.92,-265.881 409.232,-276.454 415.975,-274.575"/>
</g>
<!-- Node33 -->
<g id="node33" class="node"><title>Node33</title>
<g id="a_node33"><a xlink:href="Decoding_8h.html" target="_top" xlink:title="MCH/Decoding.h">
<polygon fill="none" stroke="black" points="435.5,-302.5 435.5,-321.5 527.5,-321.5 527.5,-302.5 435.5,-302.5"/>
<text text-anchor="middle" x="481.5" y="-309.5" font-family="Helvetica,sans-Serif" font-size="10.00">MCH/Decoding.h</text>
</a>
</g>
</g>
<!-- Node13&#45;&gt;Node33 -->
<g id="edge39" class="edge"><title>Node13&#45;&gt;Node33</title>
<path fill="none" stroke="midnightblue" d="M449.801,-363.975C455.241,-355.227 463.859,-341.369 470.736,-330.309"/>
<polygon fill="midnightblue" stroke="midnightblue" points="473.9,-331.849 476.209,-321.509 467.956,-328.153 473.9,-331.849"/>
</g>
<!-- Node13&#45;&gt;Node35 -->
<g id="edge44" class="edge"><title>Node13&#45;&gt;Node35</title>
<path fill="none" stroke="midnightblue" d="M462.84,-363.819C505.336,-343.703 610.744,-293.807 661,-270.018"/>
<polygon fill="midnightblue" stroke="midnightblue" points="662.739,-273.066 670.28,-265.624 659.744,-266.74 662.739,-273.066"/>
</g>
<!-- Node36 -->
<g id="node36" class="node"><title>Node36</title>
<g id="a_node36"><a xlink:href="GlobalHistogram_8h_source.html" target="_top" xlink:title="MCH/GlobalHistogram.h">
<polygon fill="none" stroke="black" points="183.5,-302.5 183.5,-321.5 307.5,-321.5 307.5,-302.5 183.5,-302.5"/>
<text text-anchor="middle" x="245.5" y="-309.5" font-family="Helvetica,sans-Serif" font-size="10.00">MCH/GlobalHistogram.h</text>
</a>
</g>
</g>
<!-- Node13&#45;&gt;Node36 -->
<g id="edge45" class="edge"><title>Node13&#45;&gt;Node36</title>
<path fill="none" stroke="midnightblue" d="M415.988,-363.975C381.262,-353.592 322.463,-336.012 283.808,-324.454"/>
<polygon fill="midnightblue" stroke="midnightblue" points="284.543,-321.02 273.959,-321.509 282.537,-327.727 284.543,-321.02"/>
</g>
<!-- Node15 -->
<g id="node15" class="node"><title>Node15</title>
<polygon fill="none" stroke="#bfbfbf" points="198,-0.5 198,-19.5 233,-19.5 233,-0.5 198,-0.5"/>
<text text-anchor="middle" x="215.5" y="-7.5" font-family="Helvetica,sans-Serif" font-size="10.00">map</text>
</g>
<!-- Node14&#45;&gt;Node15 -->
<g id="edge14" class="edge"><title>Node14&#45;&gt;Node15</title>
<path fill="none" stroke="midnightblue" d="M445.671,-184.946C398.766,-171.487 313.956,-141.152 262.5,-87 245.863,-69.491 232.079,-45.1697 223.83,-28.7976"/>
<polygon fill="midnightblue" stroke="midnightblue" points="226.957,-27.2235 219.434,-19.7629 220.663,-30.2863 226.957,-27.2235"/>
</g>
<!-- Node16 -->
<g id="node16" class="node"><title>Node16</title>
<polygon fill="none" stroke="#bfbfbf" points="271.5,-62 271.5,-81 323.5,-81 323.5,-62 271.5,-62"/>
<text text-anchor="middle" x="297.5" y="-69" font-family="Helvetica,sans-Serif" font-size="10.00">memory</text>
</g>
<!-- Node14&#45;&gt;Node16 -->
<g id="edge15" class="edge"><title>Node14&#45;&gt;Node16</title>
<path fill="none" stroke="midnightblue" d="M455.577,-184.908C432.875,-176.171 398.334,-161.33 371.5,-143 348.505,-127.293 325.894,-104.349 311.837,-88.9439"/>
<polygon fill="midnightblue" stroke="midnightblue" points="314.235,-86.3753 304.96,-81.2551 309.018,-91.042 314.235,-86.3753"/>
</g>
<!-- Node17 -->
<g id="node17" class="node"><title>Node17</title>
<polygon fill="none" stroke="#bfbfbf" points="770,-0.5 770,-19.5 811,-19.5 811,-0.5 770,-0.5"/>
<text text-anchor="middle" x="790.5" y="-7.5" font-family="Helvetica,sans-Serif" font-size="10.00">string</text>
</g>
<!-- Node14&#45;&gt;Node17 -->
<g id="edge16" class="edge"><title>Node14&#45;&gt;Node17</title>
<path fill="none" stroke="midnightblue" d="M491.355,-184.958C515.236,-167.911 568.628,-130.649 589.5,-123 646.335,-102.173 819.627,-132.543 859.5,-87 868.576,-76.6338 866.062,-68.1145 859.5,-56 851.174,-40.6299 835.07,-29.6786 820.512,-22.4303"/>
<polygon fill="midnightblue" stroke="midnightblue" points="821.815,-19.1776 811.267,-18.1927 818.899,-25.5411 821.815,-19.1776"/>
</g>
<!-- Node18 -->
<g id="node18" class="node"><title>Node18</title>
<polygon fill="none" stroke="#bfbfbf" points="944,-0.5 944,-19.5 1027,-19.5 1027,-0.5 944,-0.5"/>
<text text-anchor="middle" x="985.5" y="-7.5" font-family="Helvetica,sans-Serif" font-size="10.00">unordered_map</text>
</g>
<!-- Node14&#45;&gt;Node18 -->
<g id="edge17" class="edge"><title>Node14&#45;&gt;Node18</title>
<path fill="none" stroke="midnightblue" d="M554.64,-186.066C578.562,-183.745 605.138,-181.214 629.5,-179 676.476,-174.731 1020.59,-177.74 1052.5,-143 1085.24,-107.361 1033.57,-52.7357 1003.95,-26.3357"/>
<polygon fill="midnightblue" stroke="midnightblue" points="1006.12,-23.5829 996.268,-19.6772 1001.53,-28.8721 1006.12,-23.5829"/>
</g>
<!-- Node19 -->
<g id="node19" class="node"><title>Node19</title>
<polygon fill="none" stroke="#bfbfbf" points="599,-123.5 599,-142.5 724,-142.5 724,-123.5 599,-123.5"/>
<text text-anchor="middle" x="661.5" y="-130.5" font-family="Helvetica,sans-Serif" font-size="10.00">Framework/InitContext.h</text>
</g>
<!-- Node14&#45;&gt;Node19 -->
<g id="edge18" class="edge"><title>Node14&#45;&gt;Node19</title>
<path fill="none" stroke="midnightblue" d="M505.576,-184.975C537.066,-174.68 590.198,-157.31 625.558,-145.75"/>
<polygon fill="midnightblue" stroke="midnightblue" points="627.055,-148.943 635.472,-142.509 624.88,-142.29 627.055,-148.943"/>
</g>
<!-- Node20 -->
<g id="node20" class="node"><title>Node20</title>
<polygon fill="none" stroke="#bfbfbf" points="742.5,-123.5 742.5,-142.5 902.5,-142.5 902.5,-123.5 742.5,-123.5"/>
<text text-anchor="middle" x="822.5" y="-130.5" font-family="Helvetica,sans-Serif" font-size="10.00">Framework/ProcessingContext.h</text>
</g>
<!-- Node14&#45;&gt;Node20 -->
<g id="edge19" class="edge"><title>Node14&#45;&gt;Node20</title>
<path fill="none" stroke="midnightblue" d="M528.644,-184.975C590.664,-174.216 697.231,-155.73 763.562,-144.224"/>
<polygon fill="midnightblue" stroke="midnightblue" points="764.193,-147.667 773.448,-142.509 762.997,-140.77 764.193,-147.667"/>
</g>
<!-- Node21 -->
<g id="node21" class="node"><title>Node21</title>
<g id="a_node21"><a xlink:href="Activity_8h.html" target="_top" xlink:title="QualityControl/Activity.h">
<polygon fill="none" stroke="black" points="921,-123.5 921,-142.5 1044,-142.5 1044,-123.5 921,-123.5"/>
<text text-anchor="middle" x="982.5" y="-130.5" font-family="Helvetica,sans-Serif" font-size="10.00">QualityControl/Activity.h</text>
</a>
</g>
</g>
<!-- Node14&#45;&gt;Node21 -->
<g id="edge20" class="edge"><title>Node14&#45;&gt;Node21</title>
<path fill="none" stroke="midnightblue" d="M554.447,-184.962C638.436,-175.344 778.962,-159.101 910.657,-143.092"/>
<polygon fill="midnightblue" stroke="midnightblue" points="911.427,-146.524 920.931,-141.842 910.581,-139.576 911.427,-146.524"/>
</g>
<!-- Node22 -->
<g id="node22" class="node"><title>Node22</title>
<g id="a_node22"><a xlink:href="ObjectsManager_8h.html" target="_top" xlink:title="QualityControl/ObjectsManager.h">
<polygon fill="none" stroke="black" points="381,-123.5 381,-142.5 542,-142.5 542,-123.5 381,-123.5"/>
<text text-anchor="middle" x="461.5" y="-130.5" font-family="Helvetica,sans-Serif" font-size="10.00">QualityControl/ObjectsManager.h</text>
</a>
</g>
</g>
<!-- Node14&#45;&gt;Node22 -->
<g id="edge21" class="edge"><title>Node14&#45;&gt;Node22</title>
<path fill="none" stroke="midnightblue" d="M476.921,-184.975C474.355,-176.492 470.335,-163.204 467.043,-152.322"/>
<polygon fill="midnightblue" stroke="midnightblue" points="470.32,-151.067 464.074,-142.509 463.62,-153.094 470.32,-151.067"/>
</g>
<!-- Node22&#45;&gt;Node16 -->
<g id="edge35" class="edge"><title>Node22&#45;&gt;Node16</title>
<path fill="none" stroke="midnightblue" d="M435.644,-123.465C409.487,-114.717 367.962,-100.518 332.5,-87 330.852,-86.3718 329.166,-85.7162 327.466,-85.0457"/>
<polygon fill="midnightblue" stroke="midnightblue" points="328.363,-81.633 317.78,-81.1316 325.74,-88.1232 328.363,-81.633"/>
</g>
<!-- Node22&#45;&gt;Node17 -->
<g id="edge34" class="edge"><title>Node22&#45;&gt;Node17</title>
<path fill="none" stroke="midnightblue" d="M536.23,-123.464C575.255,-117.009 622.978,-105.893 662.5,-87 682.477,-77.4502 682.857,-67.9461 701.5,-56 720.688,-43.7044 743.673,-32.1564 761.478,-23.8377"/>
<polygon fill="midnightblue" stroke="midnightblue" points="763.153,-26.9195 770.779,-19.5642 760.231,-20.5587 763.153,-26.9195"/>
</g>
<!-- Node23 -->
<g id="node23" class="node"><title>Node23</title>
<g id="a_node23"><a xlink:href="MonitorObject_8h.html" target="_top" xlink:title="QualityControl/MonitorObject.h">
<polygon fill="none" stroke="black" points="503,-62 503,-81 654,-81 654,-62 503,-62"/>
<text text-anchor="middle" x="578.5" y="-69" font-family="Helvetica,sans-Serif" font-size="10.00">QualityControl/MonitorObject.h</text>
</a>
</g>
</g>
<!-- Node22&#45;&gt;Node23 -->
<g id="edge22" class="edge"><title>Node22&#45;&gt;Node23</title>
<path fill="none" stroke="midnightblue" d="M478.263,-123.475C497.725,-113.578 530.045,-97.1416 552.711,-85.6151"/>
<polygon fill="midnightblue" stroke="midnightblue" points="554.441,-88.6619 561.768,-81.0091 551.268,-82.4224 554.441,-88.6619"/>
</g>
<!-- Node27 -->
<g id="node27" class="node"><title>Node27</title>
<g id="a_node27"><a xlink:href="MonitorObjectCollection_8h.html" target="_top" xlink:title="QualityControl/MonitorObject\lCollection.h">
<polygon fill="none" stroke="black" points="342,-56.5 342,-86.5 485,-86.5 485,-56.5 342,-56.5"/>
<text text-anchor="start" x="350" y="-74.5" font-family="Helvetica,sans-Serif" font-size="10.00">QualityControl/MonitorObject</text>
<text text-anchor="middle" x="413.5" y="-63.5" font-family="Helvetica,sans-Serif" font-size="10.00">Collection.h</text>
</a>
</g>
</g>
<!-- Node22&#45;&gt;Node27 -->
<g id="edge28" class="edge"><title>Node22&#45;&gt;Node27</title>
<path fill="none" stroke="midnightblue" d="M454.623,-123.475C448.547,-115.944 439.417,-104.626 431.301,-94.5663"/>
<polygon fill="midnightblue" stroke="midnightblue" points="433.816,-92.1085 424.813,-86.523 428.367,-96.5037 433.816,-92.1085"/>
</g>
<!-- Node30 -->
<g id="node30" class="node"><title>Node30</title>
<g id="a_node30"><a xlink:href="TaskConfig_8h.html" target="_top" xlink:title="QualityControl/TaskConfig.h">
<polygon fill="none" stroke="black" points="710.5,-62 710.5,-81 850.5,-81 850.5,-62 710.5,-62"/>
<text text-anchor="middle" x="780.5" y="-69" font-family="Helvetica,sans-Serif" font-size="10.00">QualityControl/TaskConfig.h</text>
</a>
</g>
</g>
<!-- Node22&#45;&gt;Node30 -->
<g id="edge31" class="edge"><title>Node22&#45;&gt;Node30</title>
<path fill="none" stroke="midnightblue" d="M507.205,-123.475C564.649,-112.761 663.183,-94.3821 724.924,-82.8661"/>
<polygon fill="midnightblue" stroke="midnightblue" points="725.691,-86.2834 734.88,-81.0091 724.408,-79.4021 725.691,-86.2834"/>
</g>
<!-- Node23&#45;&gt;Node15 -->
<g id="edge24" class="edge"><title>Node23&#45;&gt;Node15</title>
<path fill="none" stroke="midnightblue" d="M529.991,-61.9919C518.069,-59.9652 505.332,-57.854 493.5,-56 384.892,-38.9819 353.239,-46.1855 243.103,-20.027"/>
<polygon fill="midnightblue" stroke="midnightblue" points="243.811,-16.5975 233.269,-17.6533 242.168,-23.402 243.811,-16.5975"/>
</g>
<!-- Node23&#45;&gt;Node17 -->
<g id="edge23" class="edge"><title>Node23&#45;&gt;Node17</title>
<path fill="none" stroke="midnightblue" d="M610.12,-61.9405C644.551,-52.5732 701.48,-36.9484 760.064,-20.0812"/>
<polygon fill="midnightblue" stroke="midnightblue" points="761.223,-23.3896 769.86,-17.2535 759.281,-16.6642 761.223,-23.3896"/>
</g>
<!-- Node24 -->
<g id="node24" class="node"><title>Node24</title>
<polygon fill="none" stroke="#bfbfbf" points="618.5,-0.5 618.5,-19.5 674.5,-19.5 674.5,-0.5 618.5,-0.5"/>
<text text-anchor="middle" x="646.5" y="-7.5" font-family="Helvetica,sans-Serif" font-size="10.00">Rtypes.h</text>
</g>
<!-- Node23&#45;&gt;Node24 -->
<g id="edge25" class="edge"><title>Node23&#45;&gt;Node24</title>
<path fill="none" stroke="midnightblue" d="M588.243,-61.9751C598.847,-52.6966 616.019,-37.6706 628.979,-26.331"/>
<polygon fill="midnightblue" stroke="midnightblue" points="631.554,-28.7282 636.775,-19.5091 626.945,-23.4601 631.554,-28.7282"/>
</g>
<!-- Node25 -->
<g id="node25" class="node"><title>Node25</title>
<polygon fill="none" stroke="#bfbfbf" points="693,-0.5 693,-19.5 752,-19.5 752,-0.5 693,-0.5"/>
<text text-anchor="middle" x="722.5" y="-7.5" font-family="Helvetica,sans-Serif" font-size="10.00">TObject.h</text>
</g>
<!-- Node23&#45;&gt;Node25 -->
<g id="edge26" class="edge"><title>Node23&#45;&gt;Node25</title>
<path fill="none" stroke="midnightblue" d="M599.132,-61.9751C623.619,-51.8571 664.647,-34.9046 692.609,-23.3507"/>
<polygon fill="midnightblue" stroke="midnightblue" points="694.001,-26.5627 701.907,-19.5091 691.328,-20.0932 694.001,-26.5627"/>
</g>
<!-- Node26 -->
<g id="node26" class="node"><title>Node26</title>
<polygon fill="none" stroke="#bfbfbf" points="484.5,-0.5 484.5,-19.5 600.5,-19.5 600.5,-0.5 484.5,-0.5"/>
<text text-anchor="middle" x="542.5" y="-7.5" font-family="Helvetica,sans-Serif" font-size="10.00">Common/Exceptions.h</text>
</g>
<!-- Node23&#45;&gt;Node26 -->
<g id="edge27" class="edge"><title>Node23&#45;&gt;Node26</title>
<path fill="none" stroke="midnightblue" d="M573.342,-61.9751C568.049,-53.2268 559.665,-39.3691 552.973,-28.3093"/>
<polygon fill="midnightblue" stroke="midnightblue" points="555.82,-26.2531 547.648,-19.5091 549.83,-29.8768 555.82,-26.2531"/>
</g>
<!-- Node28 -->
<g id="node28" class="node"><title>Node28</title>
<polygon fill="none" stroke="#bfbfbf" points="251,-0.5 251,-19.5 320,-19.5 320,-0.5 251,-0.5"/>
<text text-anchor="middle" x="285.5" y="-7.5" font-family="Helvetica,sans-Serif" font-size="10.00">TObjArray.h</text>
</g>
<!-- Node27&#45;&gt;Node28 -->
<g id="edge29" class="edge"><title>Node27&#45;&gt;Node28</title>
<path fill="none" stroke="midnightblue" d="M383.166,-56.3993C361.977,-46.55 333.906,-33.5014 313.298,-23.9217"/>
<polygon fill="midnightblue" stroke="midnightblue" points="314.669,-20.6993 304.125,-19.6578 311.718,-27.047 314.669,-20.6993"/>
</g>
<!-- Node29 -->
<g id="node29" class="node"><title>Node29</title>
<polygon fill="none" stroke="#bfbfbf" points="338.5,-0.5 338.5,-19.5 466.5,-19.5 466.5,-0.5 338.5,-0.5"/>
<text text-anchor="middle" x="402.5" y="-7.5" font-family="Helvetica,sans-Serif" font-size="10.00">Mergers/MergeInterface.h</text>
</g>
<!-- Node27&#45;&gt;Node29 -->
<g id="edge30" class="edge"><title>Node27&#45;&gt;Node29</title>
<path fill="none" stroke="midnightblue" d="M410.893,-56.3993C409.41,-48.3772 407.535,-38.2328 405.933,-29.569"/>
<polygon fill="midnightblue" stroke="midnightblue" points="409.36,-28.8548 404.101,-19.6578 402.477,-30.1275 409.36,-28.8548"/>
</g>
<!-- Node30&#45;&gt;Node17 -->
<g id="edge32" class="edge"><title>Node30&#45;&gt;Node17</title>
<path fill="none" stroke="midnightblue" d="M781.933,-61.9751C783.344,-53.5803 785.545,-40.4806 787.363,-29.6631"/>
<polygon fill="midnightblue" stroke="midnightblue" points="790.864,-29.9509 789.07,-19.5091 783.961,-28.7906 790.864,-29.9509"/>
</g>
<!-- Node30&#45;&gt;Node18 -->
<g id="edge33" class="edge"><title>Node30&#45;&gt;Node18</title>
<path fill="none" stroke="midnightblue" d="M809.872,-61.9751C845.797,-51.5478 906.732,-33.8618 946.544,-22.3066"/>
<polygon fill="midnightblue" stroke="midnightblue" points="947.555,-25.6578 956.183,-19.5091 945.604,-18.9353 947.555,-25.6578"/>
</g>
<!-- Node31&#45;&gt;Node14 -->
<g id="edge38" class="edge"><title>Node31&#45;&gt;Node14</title>
<path fill="none" stroke="midnightblue" d="M417.816,-246.475C429.151,-237.108 447.573,-221.884 461.339,-210.508"/>
<polygon fill="midnightblue" stroke="midnightblue" points="463.724,-213.077 469.203,-204.009 459.265,-207.681 463.724,-213.077"/>
</g>
<!-- Node31&#45;&gt;Node32 -->
<g id="edge37" class="edge"><title>Node31&#45;&gt;Node32</title>
<path fill="none" stroke="midnightblue" d="M448.907,-246.475C495.949,-236.79 573.407,-220.843 629.169,-209.362"/>
<polygon fill="midnightblue" stroke="midnightblue" points="629.878,-212.79 638.967,-207.345 628.466,-205.934 629.878,-212.79"/>
</g>
<!-- Node33&#45;&gt;Node14 -->
<g id="edge40" class="edge"><title>Node33&#45;&gt;Node14</title>
<path fill="none" stroke="midnightblue" d="M481.35,-302.319C481.028,-283.757 480.268,-239.839 479.829,-214.473"/>
<polygon fill="midnightblue" stroke="midnightblue" points="483.325,-214.22 479.652,-204.282 476.326,-214.341 483.325,-214.22"/>
</g>
<!-- Node33&#45;&gt;Node31 -->
<g id="edge42" class="edge"><title>Node33&#45;&gt;Node31</title>
<path fill="none" stroke="midnightblue" d="M469.611,-302.324C458.35,-294.107 441.213,-281.602 427.791,-271.807"/>
<polygon fill="midnightblue" stroke="midnightblue" points="429.747,-268.901 419.606,-265.834 425.62,-274.556 429.747,-268.901"/>
</g>
<!-- Node34 -->
<g id="node34" class="node"><title>Node34</title>
<g id="a_node34"><a xlink:href="sampa__header_8h_source.html" target="_top" xlink:title="MCH/sampa_header.h">
<polygon fill="none" stroke="black" points="508,-246.5 508,-265.5 623,-265.5 623,-246.5 508,-246.5"/>
<text text-anchor="middle" x="565.5" y="-253.5" font-family="Helvetica,sans-Serif" font-size="10.00">MCH/sampa_header.h</text>
</a>
</g>
</g>
<!-- Node33&#45;&gt;Node34 -->
<g id="edge41" class="edge"><title>Node33&#45;&gt;Node34</title>
<path fill="none" stroke="midnightblue" d="M494.996,-302.324C508.1,-293.9 528.212,-280.971 543.607,-271.074"/>
<polygon fill="midnightblue" stroke="midnightblue" points="545.518,-274.006 552.037,-265.655 541.733,-268.118 545.518,-274.006"/>
</g>
<!-- Node33&#45;&gt;Node35 -->
<g id="edge43" class="edge"><title>Node33&#45;&gt;Node35</title>
<path fill="none" stroke="midnightblue" d="M514.3,-302.444C549.88,-293.162 606.814,-278.309 645.847,-268.127"/>
<polygon fill="midnightblue" stroke="midnightblue" points="647.061,-271.427 655.854,-265.516 645.294,-264.654 647.061,-271.427"/>
</g>
<!-- Node36&#45;&gt;Node4 -->
<g id="edge47" class="edge"><title>Node36&#45;&gt;Node4</title>
<path fill="none" stroke="midnightblue" d="M231.04,-302.324C217,-293.9 195.452,-280.971 178.957,-271.074"/>
<polygon fill="midnightblue" stroke="midnightblue" points="180.3,-267.798 169.924,-265.655 176.698,-273.801 180.3,-267.798"/>
</g>
<!-- Node36&#45;&gt;Node15 -->
<g id="edge46" class="edge"><title>Node36&#45;&gt;Node15</title>
<path fill="none" stroke="midnightblue" d="M240.271,-302.371C229.428,-283.632 205.5,-237.517 205.5,-195.5 205.5,-195.5 205.5,-195.5 205.5,-132 205.5,-95.7712 210.008,-53.6475 212.97,-29.8749"/>
<polygon fill="midnightblue" stroke="midnightblue" points="216.463,-30.1512 214.274,-19.7851 209.521,-29.2541 216.463,-30.1512"/>
</g>
</g>
</svg>
