<?xml version="1.0" encoding="UTF-8" standalone="no"?>
<!DOCTYPE svg PUBLIC "-//W3C//DTD SVG 1.1//EN"
 "http://www.w3.org/Graphics/SVG/1.1/DTD/svg11.dtd">
<!-- Generated by graphviz version 2.38.0 (20140413.2041)
 -->
<!-- Title: Modules/MUON/MCH/include/MCH/PedestalsCheck.h Pages: 1 -->
<svg width="547pt" height="207pt"
 viewBox="0.00 0.00 547.36 207.00" xmlns="http://www.w3.org/2000/svg" xmlns:xlink="http://www.w3.org/1999/xlink">
<g id="graph0" class="graph" transform="scale(1 1) rotate(0) translate(4 203)">
<title>Modules/MUON/MCH/include/MCH/PedestalsCheck.h</title>
<!-- Node1 -->
<g id="node1" class="node"><title>Node1</title>
<polygon fill="#bfbfbf" stroke="black" points="147.355,-168.5 147.355,-198.5 294.355,-198.5 294.355,-168.5 147.355,-168.5"/>
<text text-anchor="start" x="155.355" y="-186.5" font-family="Helvetica,sans-Serif" font-size="10.00">Modules/MUON/MCH/include</text>
<text text-anchor="middle" x="220.855" y="-175.5" font-family="Helvetica,sans-Serif" font-size="10.00">/MCH/PedestalsCheck.h</text>
</g>
<!-- Node2 -->
<g id="node2" class="node"><title>Node2</title>
<g id="a_node2"><a xlink:href="CheckInterface_8h.html" target="_top" xlink:title="QualityControl/CheckInterface.h">
<polygon fill="none" stroke="black" points="142.355,-112.5 142.355,-131.5 299.355,-131.5 299.355,-112.5 142.355,-112.5"/>
<text text-anchor="middle" x="220.855" y="-119.5" font-family="Helvetica,sans-Serif" font-size="10.00">QualityControl/CheckInterface.h</text>
</a>
</g>
</g>
<!-- Node1&#45;&gt;Node2 -->
<g id="edge1" class="edge"><title>Node1&#45;&gt;Node2</title>
<path fill="none" stroke="midnightblue" d="M220.855,-168.399C220.855,-160.466 220.855,-150.458 220.855,-141.858"/>
<polygon fill="midnightblue" stroke="midnightblue" points="224.355,-141.658 220.855,-131.658 217.355,-141.658 224.355,-141.658"/>
</g>
<!-- Node7 -->
<g id="node7" class="node"><title>Node7</title>
<g id="a_node7"><a xlink:href="MonitorObject_8h.html" target="_top" xlink:title="QualityControl/MonitorObject.h">
<polygon fill="none" stroke="black" points="331.355,-56.5 331.355,-75.5 482.355,-75.5 482.355,-56.5 331.355,-56.5"/>
<text text-anchor="middle" x="406.855" y="-63.5" font-family="Helvetica,sans-Serif" font-size="10.00">QualityControl/MonitorObject.h</text>
</a>
</g>
</g>
<!-- Node1&#45;&gt;Node7 -->
<g id="edge16" class="edge"><title>Node1&#45;&gt;Node7</title>
<path fill="none" stroke="midnightblue" d="M245.821,-168.493C263.329,-158.551 287.204,-144.76 307.855,-132 335.158,-115.13 365.972,-94.6669 385.865,-81.2642"/>
<polygon fill="midnightblue" stroke="midnightblue" points="387.859,-84.1408 394.184,-75.6413 383.939,-78.3412 387.859,-84.1408"/>
</g>
<!-- Node10 -->
<g id="node10" class="node"><title>Node10</title>
<g id="a_node10"><a xlink:href="Quality_8h.html" target="_top" xlink:title="QualityControl/Quality.h">
<polygon fill="none" stroke="black" points="14.3551,-56.5 14.3551,-75.5 135.355,-75.5 135.355,-56.5 14.3551,-56.5"/>
<text text-anchor="middle" x="74.8551" y="-63.5" font-family="Helvetica,sans-Serif" font-size="10.00">QualityControl/Quality.h</text>
</a>
</g>
</g>
<!-- Node1&#45;&gt;Node10 -->
<g id="edge17" class="edge"><title>Node1&#45;&gt;Node10</title>
<path fill="none" stroke="midnightblue" d="M190.81,-168.327C173.053,-159.225 150.638,-146.428 132.855,-132 115.321,-117.774 98.5115,-98.0334 87.5455,-84.0491"/>
<polygon fill="midnightblue" stroke="midnightblue" points="90.0925,-81.6184 81.2341,-75.8064 84.5347,-85.8741 90.0925,-81.6184"/>
</g>
<!-- Node3 -->
<g id="node3" class="node"><title>Node3</title>
<polygon fill="none" stroke="#bfbfbf" points="228.355,-0.5 228.355,-19.5 269.355,-19.5 269.355,-0.5 228.355,-0.5"/>
<text text-anchor="middle" x="248.855" y="-7.5" font-family="Helvetica,sans-Serif" font-size="10.00">string</text>
</g>
<!-- Node2&#45;&gt;Node3 -->
<g id="edge2" class="edge"><title>Node2&#45;&gt;Node3</title>
<path fill="none" stroke="midnightblue" d="M227.039,-112.183C232.797,-103.448 241.047,-89.4612 244.855,-76 249.14,-60.8543 249.947,-42.9584 249.792,-29.7828"/>
<polygon fill="midnightblue" stroke="midnightblue" points="253.285,-29.4919 249.472,-19.6072 246.289,-29.7125 253.285,-29.4919"/>
</g>
<!-- Node4 -->
<g id="node4" class="node"><title>Node4</title>
<polygon fill="none" stroke="#bfbfbf" points="287.355,-0.5 287.355,-19.5 322.355,-19.5 322.355,-0.5 287.355,-0.5"/>
<text text-anchor="middle" x="304.855" y="-7.5" font-family="Helvetica,sans-Serif" font-size="10.00">map</text>
</g>
<!-- Node2&#45;&gt;Node4 -->
<g id="edge3" class="edge"><title>Node2&#45;&gt;Node4</title>
<path fill="none" stroke="midnightblue" d="M229.181,-112.332C237.531,-103.481 250.59,-89.2034 260.855,-76 272.97,-60.4175 285.461,-41.6599 294.025,-28.3085"/>
<polygon fill="midnightblue" stroke="midnightblue" points="297.106,-29.9846 299.505,-19.6647 291.194,-26.2365 297.106,-29.9846"/>
</g>
<!-- Node5 -->
<g id="node5" class="node"><title>Node5</title>
<polygon fill="none" stroke="#bfbfbf" points="153.355,-56.5 153.355,-75.5 236.355,-75.5 236.355,-56.5 153.355,-56.5"/>
<text text-anchor="middle" x="194.855" y="-63.5" font-family="Helvetica,sans-Serif" font-size="10.00">unordered_map</text>
</g>
<!-- Node2&#45;&gt;Node5 -->
<g id="edge4" class="edge"><title>Node2&#45;&gt;Node5</title>
<path fill="none" stroke="midnightblue" d="M216.562,-112.083C213.003,-104.691 207.833,-93.9533 203.431,-84.8111"/>
<polygon fill="midnightblue" stroke="midnightblue" points="206.56,-83.2427 199.069,-75.7511 200.253,-86.2795 206.56,-83.2427"/>
</g>
<!-- Node6 -->
<g id="node6" class="node"><title>Node6</title>
<polygon fill="none" stroke="#bfbfbf" points="46.8551,-0.5 46.8551,-19.5 102.855,-19.5 102.855,-0.5 46.8551,-0.5"/>
<text text-anchor="middle" x="74.8551" y="-7.5" font-family="Helvetica,sans-Serif" font-size="10.00">Rtypes.h</text>
</g>
<!-- Node2&#45;&gt;Node6 -->
<g id="edge5" class="edge"><title>Node2&#45;&gt;Node6</title>
<path fill="none" stroke="midnightblue" d="M142.137,-114.89C87.7357,-108.841 22.1643,-97.2869 4.85511,-76 -11.4521,-55.9453 18.044,-36.2167 43.6155,-23.8509"/>
<polygon fill="midnightblue" stroke="midnightblue" points="45.1447,-27 52.7669,-19.6412 42.2193,-20.6406 45.1447,-27"/>
</g>
<!-- Node2&#45;&gt;Node7 -->
<g id="edge6" class="edge"><title>Node2&#45;&gt;Node7</title>
<path fill="none" stroke="midnightblue" d="M250.327,-112.444C282.026,-103.241 332.587,-88.5617 367.63,-78.3879"/>
<polygon fill="midnightblue" stroke="midnightblue" points="368.893,-81.6658 377.521,-75.5164 366.941,-74.9434 368.893,-81.6658"/>
</g>
<!-- Node2&#45;&gt;Node10 -->
<g id="edge12" class="edge"><title>Node2&#45;&gt;Node10</title>
<path fill="none" stroke="midnightblue" d="M197.721,-112.444C173.373,-103.438 134.848,-89.1891 107.432,-79.049"/>
<polygon fill="midnightblue" stroke="midnightblue" points="108.474,-75.7028 97.881,-75.5164 106.046,-82.2681 108.474,-75.7028"/>
</g>
<!-- Node7&#45;&gt;Node3 -->
<g id="edge7" class="edge"><title>Node7&#45;&gt;Node3</title>
<path fill="none" stroke="midnightblue" d="M381.82,-56.4435C353.988,-46.9316 309.041,-31.5697 279.223,-21.3787"/>
<polygon fill="midnightblue" stroke="midnightblue" points="280.331,-18.059 269.737,-18.1368 278.068,-24.6829 280.331,-18.059"/>
</g>
<!-- Node7&#45;&gt;Node4 -->
<g id="edge8" class="edge"><title>Node7&#45;&gt;Node4</title>
<path fill="none" stroke="midnightblue" d="M390.467,-56.324C374.184,-47.7034 348.988,-34.3643 330.139,-24.3855"/>
<polygon fill="midnightblue" stroke="midnightblue" points="331.678,-21.2402 321.203,-19.6545 328.403,-27.4267 331.678,-21.2402"/>
</g>
<!-- Node7&#45;&gt;Node6 -->
<g id="edge9" class="edge"><title>Node7&#45;&gt;Node6</title>
<path fill="none" stroke="midnightblue" d="M354.249,-56.4435C287.152,-45.5302 172.71,-26.9162 113.259,-17.2464"/>
<polygon fill="midnightblue" stroke="midnightblue" points="113.599,-13.7558 103.167,-15.6049 112.475,-20.665 113.599,-13.7558"/>
</g>
<!-- Node8 -->
<g id="node8" class="node"><title>Node8</title>
<polygon fill="none" stroke="#bfbfbf" points="480.355,-0.5 480.355,-19.5 539.355,-19.5 539.355,-0.5 480.355,-0.5"/>
<text text-anchor="middle" x="509.855" y="-7.5" font-family="Helvetica,sans-Serif" font-size="10.00">TObject.h</text>
</g>
<!-- Node7&#45;&gt;Node8 -->
<g id="edge10" class="edge"><title>Node7&#45;&gt;Node8</title>
<path fill="none" stroke="midnightblue" d="M423.404,-56.324C439.847,-47.7034 465.29,-34.3643 484.323,-24.3855"/>
<polygon fill="midnightblue" stroke="midnightblue" points="486.116,-27.3977 493.347,-19.6545 482.866,-21.198 486.116,-27.3977"/>
</g>
<!-- Node9 -->
<g id="node9" class="node"><title>Node9</title>
<polygon fill="none" stroke="#bfbfbf" points="345.855,-0.5 345.855,-19.5 461.855,-19.5 461.855,-0.5 345.855,-0.5"/>
<text text-anchor="middle" x="403.855" y="-7.5" font-family="Helvetica,sans-Serif" font-size="10.00">Common/Exceptions.h</text>
</g>
<!-- Node7&#45;&gt;Node9 -->
<g id="edge11" class="edge"><title>Node7&#45;&gt;Node9</title>
<path fill="none" stroke="midnightblue" d="M406.36,-56.083C405.967,-49.0059 405.403,-38.8611 404.91,-29.9865"/>
<polygon fill="midnightblue" stroke="midnightblue" points="408.391,-29.5415 404.341,-19.7511 401.401,-29.9299 408.391,-29.5415"/>
</g>
<!-- Node10&#45;&gt;Node3 -->
<g id="edge14" class="edge"><title>Node10&#45;&gt;Node3</title>
<path fill="none" stroke="midnightblue" d="M102.426,-56.4435C133.987,-46.6487 185.536,-30.6509 218.297,-20.4836"/>
<polygon fill="midnightblue" stroke="midnightblue" points="219.711,-23.7094 228.225,-17.4026 217.636,-17.0239 219.711,-23.7094"/>
</g>
<!-- Node10&#45;&gt;Node4 -->
<g id="edge15" class="edge"><title>Node10&#45;&gt;Node4</title>
<path fill="none" stroke="midnightblue" d="M119.534,-56.4814C158.705,-48.7037 217.34,-36.3152 277.21,-19.9421"/>
<polygon fill="midnightblue" stroke="midnightblue" points="278.514,-23.2127 287.217,-17.1706 276.646,-16.4666 278.514,-23.2127"/>
</g>
<!-- Node10&#45;&gt;Node6 -->
<g id="edge13" class="edge"><title>Node10&#45;&gt;Node6</title>
<path fill="none" stroke="midnightblue" d="M74.8551,-56.083C74.8551,-49.0059 74.8551,-38.8611 74.8551,-29.9865"/>
<polygon fill="midnightblue" stroke="midnightblue" points="78.3552,-29.751 74.8551,-19.7511 71.3552,-29.7511 78.3552,-29.751"/>
</g>
</g>
</svg>
