<?xml version="1.0" encoding="UTF-8" standalone="no"?>
<!DOCTYPE svg PUBLIC "-//W3C//DTD SVG 1.1//EN"
 "http://www.w3.org/Graphics/SVG/1.1/DTD/svg11.dtd">
<!-- Generated by graphviz version 2.38.0 (20140413.2041)
 -->
<!-- Title: Modules/TPC/src/PIDClusterCheck.cxx Pages: 1 -->
<!--zoomable 263 -->
<svg id="main" version="1.1" xmlns="http://www.w3.org/2000/svg" xmlns:xlink="http://www.w3.org/1999/xlink" xml:space="preserve" onload="init(evt)">
<style type="text/css"><![CDATA[
.edge:hover path { stroke: red; }
.edge:hover polygon { stroke: red; fill: red; }
]]></style>
<script type="text/javascript"><![CDATA[
var edges = document.getElementsByTagName('g');
if (edges && edges.length) {
  for (var i=0;i<edges.length;i++) {
    if (edges[i].id.substr(0,4)=='edge') {
      edges[i].setAttribute('class','edge');
    }
  }
}
]]></script>
        <defs>
                <circle id="rim" cx="0" cy="0" r="7"/>
                <circle id="rim2" cx="0" cy="0" r="3.5"/>
                <g id="zoomPlus">
                        <use xlink:href="#rim" fill="#404040">
                                <set attributeName="fill" to="#808080" begin="zoomplus.mouseover" end="zoomplus.mouseout"/>
                        </use>
                        <path d="M-4,0h8M0,-4v8" fill="none" stroke="white" stroke-width="1.5" pointer-events="none"/>
                </g>
                <g id="zoomMin">
                        <use xlink:href="#rim" fill="#404040">
                                <set attributeName="fill" to="#808080" begin="zoomminus.mouseover" end="zoomminus.mouseout"/>
                        </use>
                        <path d="M-4,0h8" fill="none" stroke="white" stroke-width="1.5" pointer-events="none"/>
                </g>
                <g id="dirArrow">
                        <path fill="none" stroke="white" stroke-width="1.5" d="M0,-3.0v7 M-2.5,-0.5L0,-3.0L2.5,-0.5"/>
                </g>
               <g id="resetDef">
                       <use xlink:href="#rim2" fill="#404040">
                               <set attributeName="fill" to="#808080" begin="reset.mouseover" end="reset.mouseout"/>
                       </use>
               </g>
        </defs>

<script type="text/javascript">
var viewWidth = 765;
var viewHeight = 263;
var sectionId = 'dynsection-0';
</script>
<script xlink:href="svgpan.js"/>
<svg id="graph" class="graph">
<g id="viewport">
<title>Modules/TPC/src/PIDClusterCheck.cxx</title>
<!-- Node1 -->
<g id="node1" class="node"><title>Node1</title>
<polygon fill="#bfbfbf" stroke="black" points="353,-224.5 353,-254.5 498,-254.5 498,-224.5 353,-224.5"/>
<text text-anchor="start" x="361" y="-242.5" font-family="Helvetica,sans-Serif" font-size="10.00">Modules/TPC/src/PIDCluster</text>
<text text-anchor="middle" x="425.5" y="-231.5" font-family="Helvetica,sans-Serif" font-size="10.00">Check.cxx</text>
</g>
<!-- Node2 -->
<g id="node2" class="node"><title>Node2</title>
<polygon fill="none" stroke="#bfbfbf" points="150.5,-168.5 150.5,-187.5 204.5,-187.5 204.5,-168.5 150.5,-168.5"/>
<text text-anchor="middle" x="177.5" y="-175.5" font-family="Helvetica,sans-Serif" font-size="10.00">iostream</text>
</g>
<!-- Node1&#45;&gt;Node2 -->
<g id="edge1" class="edge"><title>Node1&#45;&gt;Node2</title>
<path fill="none" stroke="midnightblue" d="M367.042,-224.475C319.88,-213.16 254.969,-197.586 214.654,-187.914"/>
<polygon fill="midnightblue" stroke="midnightblue" points="215.254,-184.459 204.714,-185.529 213.621,-191.266 215.254,-184.459"/>
</g>
<!-- Node3 -->
<g id="node3" class="node"><title>Node3</title>
<g id="a_node3"><a xlink:href="PIDClusterCheck_8h.html" target="_top" xlink:title="TPC/PIDClusterCheck.h">
<polygon fill="none" stroke="black" points="299,-168.5 299,-187.5 424,-187.5 424,-168.5 299,-168.5"/>
<text text-anchor="middle" x="361.5" y="-175.5" font-family="Helvetica,sans-Serif" font-size="10.00">TPC/PIDClusterCheck.h</text>
</a>
</g>
</g>
<!-- Node1&#45;&gt;Node3 -->
<g id="edge2" class="edge"><title>Node1&#45;&gt;Node3</title>
<path fill="none" stroke="midnightblue" d="M410.333,-224.399C400.745,-215.486 388.339,-203.952 378.431,-194.741"/>
<polygon fill="midnightblue" stroke="midnightblue" points="380.52,-191.903 370.813,-187.658 375.753,-197.03 380.52,-191.903"/>
</g>
<!-- Node9 -->
<g id="node9" class="node"><title>Node9</title>
<g id="a_node9"><a xlink:href="MonitorObject_8h.html" target="_top" xlink:title="QualityControl/MonitorObject.h">
<polygon fill="none" stroke="black" points="56,-56.5 56,-75.5 207,-75.5 207,-56.5 56,-56.5"/>
<text text-anchor="middle" x="131.5" y="-63.5" font-family="Helvetica,sans-Serif" font-size="10.00">QualityControl/MonitorObject.h</text>
</a>
</g>
</g>
<!-- Node1&#45;&gt;Node9 -->
<g id="edge18" class="edge"><title>Node1&#45;&gt;Node9</title>
<path fill="none" stroke="midnightblue" d="M368.229,-224.46C339.614,-216.13 305.088,-204.032 276.5,-188 223.601,-158.334 171.442,-108.363 146.573,-82.9208"/>
<polygon fill="midnightblue" stroke="midnightblue" points="148.953,-80.3466 139.491,-75.579 143.915,-85.2063 148.953,-80.3466"/>
</g>
<!-- Node12 -->
<g id="node12" class="node"><title>Node12</title>
<g id="a_node12"><a xlink:href="Quality_8h.html" target="_top" xlink:title="QualityControl/Quality.h">
<polygon fill="none" stroke="black" points="264,-56.5 264,-75.5 385,-75.5 385,-56.5 264,-56.5"/>
<text text-anchor="middle" x="324.5" y="-63.5" font-family="Helvetica,sans-Serif" font-size="10.00">QualityControl/Quality.h</text>
</a>
</g>
</g>
<!-- Node1&#45;&gt;Node12 -->
<g id="edge19" class="edge"><title>Node1&#45;&gt;Node12</title>
<path fill="none" stroke="midnightblue" d="M352.801,-228.219C328.956,-221.009 304.904,-208.767 290.5,-188 271.249,-160.245 279.762,-144.025 290.5,-112 294.104,-101.251 301.403,-91.0204 308.317,-83.0378"/>
<polygon fill="midnightblue" stroke="midnightblue" points="310.977,-85.3168 315.212,-75.6053 305.845,-80.5561 310.977,-85.3168"/>
</g>
<!-- Node13 -->
<g id="node13" class="node"><title>Node13</title>
<polygon fill="none" stroke="#bfbfbf" points="442,-168.5 442,-187.5 539,-187.5 539,-168.5 442,-168.5"/>
<text text-anchor="middle" x="490.5" y="-175.5" font-family="Helvetica,sans-Serif" font-size="10.00">fairlogger/Logger.h</text>
</g>
<!-- Node1&#45;&gt;Node13 -->
<g id="edge20" class="edge"><title>Node1&#45;&gt;Node13</title>
<path fill="none" stroke="midnightblue" d="M440.904,-224.399C450.739,-215.397 463.493,-203.721 473.605,-194.465"/>
<polygon fill="midnightblue" stroke="midnightblue" points="476.029,-196.992 481.042,-187.658 471.302,-191.828 476.029,-196.992"/>
</g>
<!-- Node14 -->
<g id="node14" class="node"><title>Node14</title>
<polygon fill="none" stroke="#bfbfbf" points="556.5,-168.5 556.5,-187.5 600.5,-187.5 600.5,-168.5 556.5,-168.5"/>
<text text-anchor="middle" x="578.5" y="-175.5" font-family="Helvetica,sans-Serif" font-size="10.00">TH1.h</text>
</g>
<!-- Node1&#45;&gt;Node14 -->
<g id="edge21" class="edge"><title>Node1&#45;&gt;Node14</title>
<path fill="none" stroke="midnightblue" d="M461.759,-224.399C487.544,-214.372 521.857,-201.028 546.601,-191.405"/>
<polygon fill="midnightblue" stroke="midnightblue" points="548.186,-194.544 556.237,-187.658 545.649,-188.02 548.186,-194.544"/>
</g>
<!-- Node15 -->
<g id="node15" class="node"><title>Node15</title>
<polygon fill="none" stroke="#bfbfbf" points="619,-168.5 619,-187.5 666,-187.5 666,-168.5 619,-168.5"/>
<text text-anchor="middle" x="642.5" y="-175.5" font-family="Helvetica,sans-Serif" font-size="10.00">TList.h</text>
</g>
<!-- Node1&#45;&gt;Node15 -->
<g id="edge22" class="edge"><title>Node1&#45;&gt;Node15</title>
<path fill="none" stroke="midnightblue" d="M476.651,-224.475C517.593,-213.249 573.824,-197.831 609.155,-188.143"/>
<polygon fill="midnightblue" stroke="midnightblue" points="610.254,-191.471 618.972,-185.451 608.403,-184.72 610.254,-191.471"/>
</g>
<!-- Node16 -->
<g id="node16" class="node"><title>Node16</title>
<polygon fill="none" stroke="#bfbfbf" points="684,-168.5 684,-187.5 757,-187.5 757,-168.5 684,-168.5"/>
<text text-anchor="middle" x="720.5" y="-175.5" font-family="Helvetica,sans-Serif" font-size="10.00">TPaveText.h</text>
</g>
<!-- Node1&#45;&gt;Node16 -->
<g id="edge23" class="edge"><title>Node1&#45;&gt;Node16</title>
<path fill="none" stroke="midnightblue" d="M495.037,-224.475C550.221,-213.344 625.835,-198.093 673.933,-188.392"/>
<polygon fill="midnightblue" stroke="midnightblue" points="674.651,-191.818 683.762,-186.41 673.267,-184.956 674.651,-191.818"/>
</g>
<!-- Node4 -->
<g id="node4" class="node"><title>Node4</title>
<g id="a_node4"><a xlink:href="CheckInterface_8h.html" target="_top" xlink:title="QualityControl/CheckInterface.h">
<polygon fill="none" stroke="black" points="299,-112.5 299,-131.5 456,-131.5 456,-112.5 299,-112.5"/>
<text text-anchor="middle" x="377.5" y="-119.5" font-family="Helvetica,sans-Serif" font-size="10.00">QualityControl/CheckInterface.h</text>
</a>
</g>
</g>
<!-- Node3&#45;&gt;Node4 -->
<g id="edge3" class="edge"><title>Node3&#45;&gt;Node4</title>
<path fill="none" stroke="midnightblue" d="M364.142,-168.083C366.286,-160.849 369.379,-150.409 372.049,-141.397"/>
<polygon fill="midnightblue" stroke="midnightblue" points="375.422,-142.333 374.907,-131.751 368.71,-140.345 375.422,-142.333"/>
</g>
<!-- Node5 -->
<g id="node5" class="node"><title>Node5</title>
<polygon fill="none" stroke="#bfbfbf" points="215,-0.5 215,-19.5 256,-19.5 256,-0.5 215,-0.5"/>
<text text-anchor="middle" x="235.5" y="-7.5" font-family="Helvetica,sans-Serif" font-size="10.00">string</text>
</g>
<!-- Node4&#45;&gt;Node5 -->
<g id="edge4" class="edge"><title>Node4&#45;&gt;Node5</title>
<path fill="none" stroke="midnightblue" d="M324.407,-112.491C300.47,-106.136 273.58,-95.1004 255.5,-76 243.716,-63.5508 238.865,-44.3154 236.874,-29.9955"/>
<polygon fill="midnightblue" stroke="midnightblue" points="240.328,-29.3728 235.812,-19.7886 233.366,-30.0971 240.328,-29.3728"/>
</g>
<!-- Node6 -->
<g id="node6" class="node"><title>Node6</title>
<polygon fill="none" stroke="#bfbfbf" points="290,-0.5 290,-19.5 325,-19.5 325,-0.5 290,-0.5"/>
<text text-anchor="middle" x="307.5" y="-7.5" font-family="Helvetica,sans-Serif" font-size="10.00">map</text>
</g>
<!-- Node4&#45;&gt;Node6 -->
<g id="edge5" class="edge"><title>Node4&#45;&gt;Node6</title>
<path fill="none" stroke="midnightblue" d="M425.897,-112.486C467.921,-102.955 518.677,-84.9321 495.5,-56 451.627,-1.23407 408.977,-36.2898 335.26,-19.7224"/>
<polygon fill="midnightblue" stroke="midnightblue" points="335.692,-16.2218 325.139,-17.1659 333.978,-23.0086 335.692,-16.2218"/>
</g>
<!-- Node7 -->
<g id="node7" class="node"><title>Node7</title>
<polygon fill="none" stroke="#bfbfbf" points="403,-56.5 403,-75.5 486,-75.5 486,-56.5 403,-56.5"/>
<text text-anchor="middle" x="444.5" y="-63.5" font-family="Helvetica,sans-Serif" font-size="10.00">unordered_map</text>
</g>
<!-- Node4&#45;&gt;Node7 -->
<g id="edge6" class="edge"><title>Node4&#45;&gt;Node7</title>
<path fill="none" stroke="midnightblue" d="M388.265,-112.324C398.266,-104.263 413.387,-92.0765 425.43,-82.3695"/>
<polygon fill="midnightblue" stroke="midnightblue" points="427.95,-84.8343 433.539,-75.8339 423.557,-79.3841 427.95,-84.8343"/>
</g>
<!-- Node8 -->
<g id="node8" class="node"><title>Node8</title>
<polygon fill="none" stroke="#bfbfbf" points="343.5,-0.5 343.5,-19.5 399.5,-19.5 399.5,-0.5 343.5,-0.5"/>
<text text-anchor="middle" x="371.5" y="-7.5" font-family="Helvetica,sans-Serif" font-size="10.00">Rtypes.h</text>
</g>
<!-- Node4&#45;&gt;Node8 -->
<g id="edge7" class="edge"><title>Node4&#45;&gt;Node8</title>
<path fill="none" stroke="midnightblue" d="M456.2,-112.89C504.453,-104.592 552.72,-88.1379 528.5,-56 514.223,-37.056 451.541,-23.6521 409.827,-16.6388"/>
<polygon fill="midnightblue" stroke="midnightblue" points="410.148,-13.1451 399.715,-14.994 409.024,-20.0543 410.148,-13.1451"/>
</g>
<!-- Node4&#45;&gt;Node9 -->
<g id="edge8" class="edge"><title>Node4&#45;&gt;Node9</title>
<path fill="none" stroke="midnightblue" d="M338.521,-112.444C295.606,-103.023 226.554,-87.8656 180.131,-77.6752"/>
<polygon fill="midnightblue" stroke="midnightblue" points="180.815,-74.242 170.297,-75.5164 179.314,-81.0792 180.815,-74.242"/>
</g>
<!-- Node4&#45;&gt;Node12 -->
<g id="edge14" class="edge"><title>Node4&#45;&gt;Node12</title>
<path fill="none" stroke="midnightblue" d="M368.748,-112.083C361.03,-104.22 349.595,-92.5688 340.283,-83.0813"/>
<polygon fill="midnightblue" stroke="midnightblue" points="342.592,-80.4363 333.089,-75.7511 337.596,-85.3396 342.592,-80.4363"/>
</g>
<!-- Node9&#45;&gt;Node5 -->
<g id="edge9" class="edge"><title>Node9&#45;&gt;Node5</title>
<path fill="none" stroke="midnightblue" d="M148.209,-56.324C164.812,-47.7034 190.502,-34.3643 209.72,-24.3855"/>
<polygon fill="midnightblue" stroke="midnightblue" points="211.57,-27.3689 218.832,-19.6545 208.344,-21.1565 211.57,-27.3689"/>
</g>
<!-- Node9&#45;&gt;Node6 -->
<g id="edge10" class="edge"><title>Node9&#45;&gt;Node6</title>
<path fill="none" stroke="midnightblue" d="M159.388,-56.4435C192.449,-46.2999 247.193,-29.5034 280.057,-19.4199"/>
<polygon fill="midnightblue" stroke="midnightblue" points="281.37,-22.6782 289.904,-16.3989 279.317,-15.9861 281.37,-22.6782"/>
</g>
<!-- Node9&#45;&gt;Node8 -->
<g id="edge11" class="edge"><title>Node9&#45;&gt;Node8</title>
<path fill="none" stroke="midnightblue" d="M171.23,-56.4444C210.114,-48.0152 271.282,-34.6069 333.279,-20.2505"/>
<polygon fill="midnightblue" stroke="midnightblue" points="334.283,-23.6104 343.232,-17.9389 332.7,-16.7918 334.283,-23.6104"/>
</g>
<!-- Node10 -->
<g id="node10" class="node"><title>Node10</title>
<polygon fill="none" stroke="#bfbfbf" points="0,-0.5 0,-19.5 59,-19.5 59,-0.5 0,-0.5"/>
<text text-anchor="middle" x="29.5" y="-7.5" font-family="Helvetica,sans-Serif" font-size="10.00">TObject.h</text>
</g>
<!-- Node9&#45;&gt;Node10 -->
<g id="edge12" class="edge"><title>Node9&#45;&gt;Node10</title>
<path fill="none" stroke="midnightblue" d="M115.112,-56.324C98.8287,-47.7034 73.6325,-34.3643 54.7837,-24.3855"/>
<polygon fill="midnightblue" stroke="midnightblue" points="56.3229,-21.2402 45.8474,-19.6545 53.0477,-27.4267 56.3229,-21.2402"/>
</g>
<!-- Node11 -->
<g id="node11" class="node"><title>Node11</title>
<polygon fill="none" stroke="#bfbfbf" points="77.5,-0.5 77.5,-19.5 193.5,-19.5 193.5,-0.5 77.5,-0.5"/>
<text text-anchor="middle" x="135.5" y="-7.5" font-family="Helvetica,sans-Serif" font-size="10.00">Common/Exceptions.h</text>
</g>
<!-- Node9&#45;&gt;Node11 -->
<g id="edge13" class="edge"><title>Node9&#45;&gt;Node11</title>
<path fill="none" stroke="midnightblue" d="M132.161,-56.083C132.685,-49.0059 133.436,-38.8611 134.094,-29.9865"/>
<polygon fill="midnightblue" stroke="midnightblue" points="137.603,-29.9823 134.852,-19.7511 130.623,-29.4652 137.603,-29.9823"/>
</g>
<!-- Node12&#45;&gt;Node5 -->
<g id="edge16" class="edge"><title>Node12&#45;&gt;Node5</title>
<path fill="none" stroke="midnightblue" d="M310.201,-56.324C296.317,-47.9002 275.008,-34.9709 258.696,-25.0741"/>
<polygon fill="midnightblue" stroke="midnightblue" points="260.129,-21.8495 249.764,-19.6545 256.498,-27.8341 260.129,-21.8495"/>
</g>
<!-- Node12&#45;&gt;Node6 -->
<g id="edge17" class="edge"><title>Node12&#45;&gt;Node6</title>
<path fill="none" stroke="midnightblue" d="M321.693,-56.083C319.415,-48.8486 316.129,-38.4087 313.292,-29.3968"/>
<polygon fill="midnightblue" stroke="midnightblue" points="316.596,-28.2385 310.255,-19.7511 309.919,-30.3406 316.596,-28.2385"/>
</g>
<!-- Node12&#45;&gt;Node8 -->
<g id="edge15" class="edge"><title>Node12&#45;&gt;Node8</title>
<path fill="none" stroke="midnightblue" d="M332.261,-56.083C339.037,-48.2982 349.043,-36.8015 357.255,-27.3665"/>
<polygon fill="midnightblue" stroke="midnightblue" points="359.958,-29.592 363.883,-19.7511 354.678,-24.9963 359.958,-29.592"/>
</g>
</g>
</svg>
        <g id="navigator" transform="translate(0 0)" fill="#404254">
                <rect fill="#f2f5e9" fill-opacity="0.5" stroke="#606060" stroke-width=".5" x="0" y="0" width="60" height="60"/>
                <use id="zoomplus" xlink:href="#zoomPlus" x="17" y="9" onmousedown="handleZoom(evt,'in')"/>
                <use id="zoomminus" xlink:href="#zoomMin" x="42" y="9" onmousedown="handleZoom(evt,'out')"/>
                <use id="reset" xlink:href="#resetDef" x="30" y="36" onmousedown="handleReset()"/>
                <g id="arrowUp" xlink:href="#dirArrow" transform="translate(30 24)" onmousedown="handlePan(0,-1)">
                  <use xlink:href="#rim" fill="#404040">
                        <set attributeName="fill" to="#808080" begin="arrowUp.mouseover" end="arrowUp.mouseout"/>
                  </use>
                  <path fill="none" stroke="white" stroke-width="1.5" d="M0,-3.0v7 M-2.5,-0.5L0,-3.0L2.5,-0.5"/>
                </g>
                <g id="arrowRight" xlink:href="#dirArrow" transform="rotate(90) translate(36 -43)" onmousedown="handlePan(1,0)">
                  <use xlink:href="#rim" fill="#404040">
                        <set attributeName="fill" to="#808080" begin="arrowRight.mouseover" end="arrowRight.mouseout"/>
                  </use>
                  <path fill="none" stroke="white" stroke-width="1.5" d="M0,-3.0v7 M-2.5,-0.5L0,-3.0L2.5,-0.5"/>
                </g>
                <g id="arrowDown" xlink:href="#dirArrow" transform="rotate(180) translate(-30 -48)" onmousedown="handlePan(0,1)">
                  <use xlink:href="#rim" fill="#404040">
                        <set attributeName="fill" to="#808080" begin="arrowDown.mouseover" end="arrowDown.mouseout"/>
                  </use>
                  <path fill="none" stroke="white" stroke-width="1.5" d="M0,-3.0v7 M-2.5,-0.5L0,-3.0L2.5,-0.5"/>
                </g>
                <g id="arrowLeft" xlink:href="#dirArrow" transform="rotate(270) translate(-36 17)" onmousedown="handlePan(-1,0)">
                  <use xlink:href="#rim" fill="#404040">
                        <set attributeName="fill" to="#808080" begin="arrowLeft.mouseover" end="arrowLeft.mouseout"/>
                  </use>
                  <path fill="none" stroke="white" stroke-width="1.5" d="M0,-3.0v7 M-2.5,-0.5L0,-3.0L2.5,-0.5"/>
                </g>
        </g>
        <svg viewBox="0 0 15 15" width="100%" height="30px" preserveAspectRatio="xMaxYMin meet">
         <g id="arrow_out" transform="scale(0.3 0.3)">
          <a xlink:href="PIDClusterCheck_8cxx__incl_org.svg" target="_base">
           <rect id="button" ry="5" rx="5" y="6" x="6" height="38" width="38"
                fill="#f2f5e9" fill-opacity="0.5" stroke="#606060" stroke-width="1.0"/>
           <path id="arrow"
             d="M 11.500037,31.436501 C 11.940474,20.09759 22.043105,11.32322 32.158766,21.979434 L 37.068811,17.246167 C 37.068811,17.246167 37.088388,32 37.088388,32 L 22.160133,31.978069 C 22.160133,31.978069 26.997745,27.140456 26.997745,27.140456 C 18.528582,18.264221 13.291696,25.230495 11.500037,31.436501 z"
             style="fill:#404040;"/>
          </a>
         </g>
        </svg>
</svg>
