<?xml version="1.0" encoding="UTF-8" standalone="no"?>
<!DOCTYPE svg PUBLIC "-//W3C//DTD SVG 1.1//EN"
 "http://www.w3.org/Graphics/SVG/1.1/DTD/svg11.dtd">
<!-- Generated by graphviz version 2.38.0 (20140413.2041)
 -->
<!-- Title: Framework/include/QualityControl/PostProcessingRunner.h Pages: 1 -->
<!--zoomable 285 -->
<svg id="main" version="1.1" xmlns="http://www.w3.org/2000/svg" xmlns:xlink="http://www.w3.org/1999/xlink" xml:space="preserve" onload="init(evt)">
<style type="text/css"><![CDATA[
.edge:hover path { stroke: red; }
.edge:hover polygon { stroke: red; fill: red; }
]]></style>
<script type="text/javascript"><![CDATA[
var edges = document.getElementsByTagName('g');
if (edges && edges.length) {
  for (var i=0;i<edges.length;i++) {
    if (edges[i].id.substr(0,4)=='edge') {
      edges[i].setAttribute('class','edge');
    }
  }
}
]]></script>
        <defs>
                <circle id="rim" cx="0" cy="0" r="7"/>
                <circle id="rim2" cx="0" cy="0" r="3.5"/>
                <g id="zoomPlus">
                        <use xlink:href="#rim" fill="#404040">
                                <set attributeName="fill" to="#808080" begin="zoomplus.mouseover" end="zoomplus.mouseout"/>
                        </use>
                        <path d="M-4,0h8M0,-4v8" fill="none" stroke="white" stroke-width="1.5" pointer-events="none"/>
                </g>
                <g id="zoomMin">
                        <use xlink:href="#rim" fill="#404040">
                                <set attributeName="fill" to="#808080" begin="zoomminus.mouseover" end="zoomminus.mouseout"/>
                        </use>
                        <path d="M-4,0h8" fill="none" stroke="white" stroke-width="1.5" pointer-events="none"/>
                </g>
                <g id="dirArrow">
                        <path fill="none" stroke="white" stroke-width="1.5" d="M0,-3.0v7 M-2.5,-0.5L0,-3.0L2.5,-0.5"/>
                </g>
               <g id="resetDef">
                       <use xlink:href="#rim2" fill="#404040">
                               <set attributeName="fill" to="#808080" begin="reset.mouseover" end="reset.mouseout"/>
                       </use>
               </g>
        </defs>

<script type="text/javascript">
var viewWidth = 1136;
var viewHeight = 285;
var sectionId = 'dynsection-0';
</script>
<script xlink:href="svgpan.js"/>
<svg id="graph" class="graph">
<g id="viewport">
<title>Framework/include/QualityControl/PostProcessingRunner.h</title>
<!-- Node1 -->
<g id="node1" class="node"><title>Node1</title>
<polygon fill="#bfbfbf" stroke="black" points="304,-246.5 304,-276.5 464,-276.5 464,-246.5 304,-246.5"/>
<text text-anchor="start" x="312" y="-264.5" font-family="Helvetica,sans-Serif" font-size="10.00">Framework/include/Quality</text>
<text text-anchor="middle" x="384" y="-253.5" font-family="Helvetica,sans-Serif" font-size="10.00">Control/PostProcessingRunner.h</text>
</g>
<!-- Node2 -->
<g id="node2" class="node"><title>Node2</title>
<polygon fill="none" stroke="#bfbfbf" points="566,-118 566,-137 618,-137 618,-118 566,-118"/>
<text text-anchor="middle" x="592" y="-125" font-family="Helvetica,sans-Serif" font-size="10.00">memory</text>
</g>
<!-- Node1&#45;&gt;Node2 -->
<g id="edge1" class="edge"><title>Node1&#45;&gt;Node2</title>
<path fill="none" stroke="midnightblue" d="M464.206,-257.218C501.631,-251.57 543.992,-238.625 572,-210 588.285,-193.356 592.031,-165.727 592.548,-147.317"/>
<polygon fill="midnightblue" stroke="midnightblue" points="596.048,-147.222 592.535,-137.227 589.048,-147.231 596.048,-147.222"/>
</g>
<!-- Node3 -->
<g id="node3" class="node"><title>Node3</title>
<polygon fill="none" stroke="#bfbfbf" points="0,-118 0,-137 146,-137 146,-118 0,-118"/>
<text text-anchor="middle" x="73" y="-125" font-family="Helvetica,sans-Serif" font-size="10.00">Framework/ServiceRegistry.h</text>
</g>
<!-- Node1&#45;&gt;Node3 -->
<g id="edge2" class="edge"><title>Node1&#45;&gt;Node3</title>
<path fill="none" stroke="midnightblue" d="M303.605,-247.14C266.667,-239.222 222.958,-227.277 186,-210 148.638,-192.535 110.917,-162.18 89.8894,-143.854"/>
<polygon fill="midnightblue" stroke="midnightblue" points="91.9975,-141.045 82.1933,-137.029 87.3531,-146.282 91.9975,-141.045"/>
</g>
<!-- Node4 -->
<g id="node4" class="node"><title>Node4</title>
<polygon fill="none" stroke="#bfbfbf" points="346.5,-112.5 346.5,-142.5 447.5,-142.5 447.5,-112.5 346.5,-112.5"/>
<text text-anchor="start" x="354.5" y="-130.5" font-family="Helvetica,sans-Serif" font-size="10.00">boost/property_tree</text>
<text text-anchor="middle" x="397" y="-119.5" font-family="Helvetica,sans-Serif" font-size="10.00">/ptree_fwd.hpp</text>
</g>
<!-- Node1&#45;&gt;Node4 -->
<g id="edge3" class="edge"><title>Node1&#45;&gt;Node4</title>
<path fill="none" stroke="midnightblue" d="M385.391,-246.374C387.6,-223.945 391.935,-179.924 394.638,-152.486"/>
<polygon fill="midnightblue" stroke="midnightblue" points="398.122,-152.82 395.619,-142.525 391.155,-152.134 398.122,-152.82"/>
</g>
<!-- Node5 -->
<g id="node5" class="node"><title>Node5</title>
<g id="a_node5"><a xlink:href="PostProcessingInterface_8h.html" target="_top" xlink:title="QualityControl/PostProcessing\lInterface.h">
<polygon fill="none" stroke="black" points="204.5,-179.5 204.5,-209.5 355.5,-209.5 355.5,-179.5 204.5,-179.5"/>
<text text-anchor="start" x="212.5" y="-197.5" font-family="Helvetica,sans-Serif" font-size="10.00">QualityControl/PostProcessing</text>
<text text-anchor="middle" x="280" y="-186.5" font-family="Helvetica,sans-Serif" font-size="10.00">Interface.h</text>
</a>
</g>
</g>
<!-- Node1&#45;&gt;Node5 -->
<g id="edge4" class="edge"><title>Node1&#45;&gt;Node5</title>
<path fill="none" stroke="midnightblue" d="M361.434,-246.396C346.715,-237.197 327.305,-225.066 311.127,-214.955"/>
<polygon fill="midnightblue" stroke="midnightblue" points="312.857,-211.909 302.522,-209.577 309.147,-217.845 312.857,-211.909"/>
</g>
<!-- Node7 -->
<g id="node7" class="node"><title>Node7</title>
<g id="a_node7"><a xlink:href="Triggers_8h.html" target="_top" xlink:title="QualityControl/Triggers.h">
<polygon fill="none" stroke="black" points="164.5,-118 164.5,-137 289.5,-137 289.5,-118 164.5,-118"/>
<text text-anchor="middle" x="227" y="-125" font-family="Helvetica,sans-Serif" font-size="10.00">QualityControl/Triggers.h</text>
</a>
</g>
</g>
<!-- Node1&#45;&gt;Node7 -->
<g id="edge15" class="edge"><title>Node1&#45;&gt;Node7</title>
<path fill="none" stroke="midnightblue" d="M303.793,-248.994C258.664,-240.699 208.678,-227.813 195,-210 179.804,-190.211 197.25,-162.293 211.727,-144.806"/>
<polygon fill="midnightblue" stroke="midnightblue" points="214.484,-146.97 218.439,-137.141 209.218,-142.358 214.484,-146.97"/>
</g>
<!-- Node9 -->
<g id="node9" class="node"><title>Node9</title>
<g id="a_node9"><a xlink:href="PostProcessingConfig_8h.html" target="_top" xlink:title="QualityControl/PostProcessing\lConfig.h">
<polygon fill="none" stroke="black" points="412.5,-179.5 412.5,-209.5 563.5,-209.5 563.5,-179.5 412.5,-179.5"/>
<text text-anchor="start" x="420.5" y="-197.5" font-family="Helvetica,sans-Serif" font-size="10.00">QualityControl/PostProcessing</text>
<text text-anchor="middle" x="488" y="-186.5" font-family="Helvetica,sans-Serif" font-size="10.00">Config.h</text>
</a>
</g>
</g>
<!-- Node1&#45;&gt;Node9 -->
<g id="edge11" class="edge"><title>Node1&#45;&gt;Node9</title>
<path fill="none" stroke="midnightblue" d="M406.566,-246.396C421.285,-237.197 440.695,-225.066 456.873,-214.955"/>
<polygon fill="midnightblue" stroke="midnightblue" points="458.853,-217.845 465.478,-209.577 455.143,-211.909 458.853,-217.845"/>
</g>
<!-- Node11 -->
<g id="node11" class="node"><title>Node11</title>
<g id="a_node11"><a xlink:href="DatabaseInterface_8h.html" target="_top" xlink:title="QualityControl/DatabaseInterface.h">
<polygon fill="none" stroke="black" points="620,-185 620,-204 790,-204 790,-185 620,-185"/>
<text text-anchor="middle" x="705" y="-192" font-family="Helvetica,sans-Serif" font-size="10.00">QualityControl/DatabaseInterface.h</text>
</a>
</g>
</g>
<!-- Node1&#45;&gt;Node11 -->
<g id="edge16" class="edge"><title>Node1&#45;&gt;Node11</title>
<path fill="none" stroke="midnightblue" d="M453.257,-246.476C513.166,-234.345 598.473,-217.071 652.782,-206.074"/>
<polygon fill="midnightblue" stroke="midnightblue" points="653.775,-209.444 662.882,-204.029 652.386,-202.583 653.775,-209.444"/>
</g>
<!-- Node5&#45;&gt;Node3 -->
<g id="edge6" class="edge"><title>Node5&#45;&gt;Node3</title>
<path fill="none" stroke="midnightblue" d="M235.339,-179.476C197.911,-167.723 145.11,-151.143 110.007,-140.12"/>
<polygon fill="midnightblue" stroke="midnightblue" points="110.75,-136.685 100.161,-137.029 108.653,-143.364 110.75,-136.685"/>
</g>
<!-- Node5&#45;&gt;Node4 -->
<g id="edge7" class="edge"><title>Node5&#45;&gt;Node4</title>
<path fill="none" stroke="midnightblue" d="M305.387,-179.396C322.176,-170.069 344.389,-157.728 362.738,-147.534"/>
<polygon fill="midnightblue" stroke="midnightblue" points="364.62,-150.493 371.662,-142.577 361.221,-144.373 364.62,-150.493"/>
</g>
<!-- Node6 -->
<g id="node6" class="node"><title>Node6</title>
<polygon fill="none" stroke="#bfbfbf" points="535.5,-0.5 535.5,-19.5 576.5,-19.5 576.5,-0.5 535.5,-0.5"/>
<text text-anchor="middle" x="556" y="-7.5" font-family="Helvetica,sans-Serif" font-size="10.00">string</text>
</g>
<!-- Node5&#45;&gt;Node6 -->
<g id="edge5" class="edge"><title>Node5&#45;&gt;Node6</title>
<path fill="none" stroke="midnightblue" d="M286.863,-179.396C296.109,-161.643 314.082,-131.159 337,-112 395.113,-63.4182 480.458,-33.0613 525.526,-19.4322"/>
<polygon fill="midnightblue" stroke="midnightblue" points="526.691,-22.7376 535.292,-16.5511 524.711,-16.0236 526.691,-22.7376"/>
</g>
<!-- Node5&#45;&gt;Node7 -->
<g id="edge8" class="edge"><title>Node5&#45;&gt;Node7</title>
<path fill="none" stroke="midnightblue" d="M268.5,-179.396C260.318,-169.361 249.291,-155.838 240.661,-145.253"/>
<polygon fill="midnightblue" stroke="midnightblue" points="243.121,-142.733 234.089,-137.195 237.696,-147.157 243.121,-142.733"/>
</g>
<!-- Node7&#45;&gt;Node6 -->
<g id="edge9" class="edge"><title>Node7&#45;&gt;Node6</title>
<path fill="none" stroke="midnightblue" d="M233.559,-117.901C245.667,-102.702 273.128,-71.2586 304,-56 377.494,-19.6761 475.915,-12.3351 525.182,-11.0687"/>
<polygon fill="midnightblue" stroke="midnightblue" points="525.271,-14.5677 535.203,-10.879 525.139,-7.56894 525.271,-14.5677"/>
</g>
<!-- Node8 -->
<g id="node8" class="node"><title>Node8</title>
<polygon fill="none" stroke="#bfbfbf" points="192.5,-56.5 192.5,-75.5 251.5,-75.5 251.5,-56.5 192.5,-56.5"/>
<text text-anchor="middle" x="222" y="-63.5" font-family="Helvetica,sans-Serif" font-size="10.00">functional</text>
</g>
<!-- Node7&#45;&gt;Node8 -->
<g id="edge10" class="edge"><title>Node7&#45;&gt;Node8</title>
<path fill="none" stroke="midnightblue" d="M226.284,-117.975C225.578,-109.58 224.477,-96.4806 223.568,-85.6631"/>
<polygon fill="midnightblue" stroke="midnightblue" points="227.04,-85.1808 222.715,-75.5091 220.065,-85.7671 227.04,-85.1808"/>
</g>
<!-- Node9&#45;&gt;Node4 -->
<g id="edge14" class="edge"><title>Node9&#45;&gt;Node4</title>
<path fill="none" stroke="midnightblue" d="M468.254,-179.396C455.614,-170.367 439.02,-158.514 425.026,-148.518"/>
<polygon fill="midnightblue" stroke="midnightblue" points="426.879,-145.541 416.707,-142.577 422.81,-151.237 426.879,-145.541"/>
</g>
<!-- Node9&#45;&gt;Node6 -->
<g id="edge13" class="edge"><title>Node9&#45;&gt;Node6</title>
<path fill="none" stroke="midnightblue" d="M487.296,-179.273C486.911,-162.697 487.62,-134.688 495,-112 505.558,-79.5439 528.212,-46.5529 542.744,-27.4711"/>
<polygon fill="midnightblue" stroke="midnightblue" points="545.565,-29.5459 548.957,-19.509 540.046,-25.2394 545.565,-29.5459"/>
</g>
<!-- Node10 -->
<g id="node10" class="node"><title>Node10</title>
<polygon fill="none" stroke="#bfbfbf" points="504,-118 504,-137 548,-137 548,-118 504,-118"/>
<text text-anchor="middle" x="526" y="-125" font-family="Helvetica,sans-Serif" font-size="10.00">vector</text>
</g>
<!-- Node9&#45;&gt;Node10 -->
<g id="edge12" class="edge"><title>Node9&#45;&gt;Node10</title>
<path fill="none" stroke="midnightblue" d="M496.245,-179.396C501.994,-169.562 509.702,-156.378 515.832,-145.892"/>
<polygon fill="midnightblue" stroke="midnightblue" points="518.892,-147.594 520.917,-137.195 512.848,-144.061 518.892,-147.594"/>
</g>
<!-- Node11&#45;&gt;Node2 -->
<g id="edge18" class="edge"><title>Node11&#45;&gt;Node2</title>
<path fill="none" stroke="midnightblue" d="M689.76,-184.734C670.784,-173.818 638.154,-155.049 615.853,-142.221"/>
<polygon fill="midnightblue" stroke="midnightblue" points="617.412,-139.08 606.998,-137.127 613.921,-145.147 617.412,-139.08"/>
</g>
<!-- Node11&#45;&gt;Node6 -->
<g id="edge17" class="edge"><title>Node11&#45;&gt;Node6</title>
<path fill="none" stroke="midnightblue" d="M697.813,-184.698C674.457,-156.09 600.426,-65.4145 569.637,-27.7033"/>
<polygon fill="midnightblue" stroke="midnightblue" points="572.15,-25.2467 563.114,-19.714 566.728,-29.6738 572.15,-25.2467"/>
</g>
<!-- Node11&#45;&gt;Node10 -->
<g id="edge19" class="edge"><title>Node11&#45;&gt;Node10</title>
<path fill="none" stroke="midnightblue" d="M677.121,-184.985C647.121,-175.592 598.17,-159.595 557,-143 555.622,-142.445 554.218,-141.86 552.806,-141.256"/>
<polygon fill="midnightblue" stroke="midnightblue" points="554.116,-138.008 543.559,-137.117 551.257,-144.397 554.116,-138.008"/>
</g>
<!-- Node12 -->
<g id="node12" class="node"><title>Node12</title>
<polygon fill="none" stroke="#bfbfbf" points="843.5,-118 843.5,-137 926.5,-137 926.5,-118 843.5,-118"/>
<text text-anchor="middle" x="885" y="-125" font-family="Helvetica,sans-Serif" font-size="10.00">unordered_map</text>
</g>
<!-- Node11&#45;&gt;Node12 -->
<g id="edge20" class="edge"><title>Node11&#45;&gt;Node12</title>
<path fill="none" stroke="midnightblue" d="M728.903,-184.869C760.459,-173.473 816.177,-153.353 851.806,-140.487"/>
<polygon fill="midnightblue" stroke="midnightblue" points="853.068,-143.752 861.285,-137.064 850.691,-137.168 853.068,-143.752"/>
</g>
<!-- Node13 -->
<g id="node13" class="node"><title>Node13</title>
<g id="a_node13"><a xlink:href="QualityObject_8h_source.html" target="_top" xlink:title="QualityControl/QualityObject.h">
<polygon fill="none" stroke="black" points="944.5,-118 944.5,-137 1093.5,-137 1093.5,-118 944.5,-118"/>
<text text-anchor="middle" x="1019" y="-125" font-family="Helvetica,sans-Serif" font-size="10.00">QualityControl/QualityObject.h</text>
</a>
</g>
</g>
<!-- Node11&#45;&gt;Node13 -->
<g id="edge21" class="edge"><title>Node11&#45;&gt;Node13</title>
<path fill="none" stroke="midnightblue" d="M746.373,-184.936C803.321,-173.147 905.813,-151.93 967.608,-139.138"/>
<polygon fill="midnightblue" stroke="midnightblue" points="968.453,-142.538 977.535,-137.083 967.034,-135.683 968.453,-142.538"/>
</g>
<!-- Node19 -->
<g id="node19" class="node"><title>Node19</title>
<g id="a_node19"><a xlink:href="MonitorObject_8h.html" target="_top" xlink:title="QualityControl/MonitorObject.h">
<polygon fill="none" stroke="black" points="674.5,-118 674.5,-137 825.5,-137 825.5,-118 674.5,-118"/>
<text text-anchor="middle" x="750" y="-125" font-family="Helvetica,sans-Serif" font-size="10.00">QualityControl/MonitorObject.h</text>
</a>
</g>
</g>
<!-- Node11&#45;&gt;Node19 -->
<g id="edge29" class="edge"><title>Node11&#45;&gt;Node19</title>
<path fill="none" stroke="midnightblue" d="M711.069,-184.734C718.019,-174.695 729.567,-158.014 738.285,-145.421"/>
<polygon fill="midnightblue" stroke="midnightblue" points="741.213,-147.341 744.027,-137.127 735.457,-143.357 741.213,-147.341"/>
</g>
<!-- Node14 -->
<g id="node14" class="node"><title>Node14</title>
<polygon fill="none" stroke="#bfbfbf" points="1037.5,-0.5 1037.5,-19.5 1072.5,-19.5 1072.5,-0.5 1037.5,-0.5"/>
<text text-anchor="middle" x="1055" y="-7.5" font-family="Helvetica,sans-Serif" font-size="10.00">map</text>
</g>
<!-- Node13&#45;&gt;Node14 -->
<g id="edge22" class="edge"><title>Node13&#45;&gt;Node14</title>
<path fill="none" stroke="midnightblue" d="M1060.36,-117.939C1083.35,-110.839 1110.06,-98.1766 1124,-76 1138.21,-53.3916 1106.69,-33.3285 1081.69,-21.6677"/>
<polygon fill="midnightblue" stroke="midnightblue" points="1083.1,-18.465 1072.54,-17.6222 1080.27,-24.8671 1083.1,-18.465"/>
</g>
<!-- Node15 -->
<g id="node15" class="node"><title>Node15</title>
<polygon fill="none" stroke="#bfbfbf" points="917.5,-56.5 917.5,-75.5 976.5,-75.5 976.5,-56.5 917.5,-56.5"/>
<text text-anchor="middle" x="947" y="-63.5" font-family="Helvetica,sans-Serif" font-size="10.00">TObject.h</text>
</g>
<!-- Node13&#45;&gt;Node15 -->
<g id="edge23" class="edge"><title>Node13&#45;&gt;Node15</title>
<path fill="none" stroke="midnightblue" d="M1008.68,-117.975C997.349,-108.608 978.927,-93.3839 965.161,-82.0081"/>
<polygon fill="midnightblue" stroke="midnightblue" points="967.235,-79.1813 957.297,-75.5091 962.776,-84.5773 967.235,-79.1813"/>
</g>
<!-- Node16 -->
<g id="node16" class="node"><title>Node16</title>
<polygon fill="none" stroke="#bfbfbf" points="783,-56.5 783,-75.5 899,-75.5 899,-56.5 783,-56.5"/>
<text text-anchor="middle" x="841" y="-63.5" font-family="Helvetica,sans-Serif" font-size="10.00">Common/Exceptions.h</text>
</g>
<!-- Node13&#45;&gt;Node16 -->
<g id="edge24" class="edge"><title>Node13&#45;&gt;Node16</title>
<path fill="none" stroke="midnightblue" d="M993.497,-117.975C962.699,-107.68 910.735,-90.3103 876.152,-78.7502"/>
<polygon fill="midnightblue" stroke="midnightblue" points="877.05,-75.36 866.456,-75.5091 874.83,-81.9989 877.05,-75.36"/>
</g>
<!-- Node17 -->
<g id="node17" class="node"><title>Node17</title>
<g id="a_node17"><a xlink:href="Quality_8h.html" target="_top" xlink:title="QualityControl/Quality.h">
<polygon fill="none" stroke="black" points="994.5,-56.5 994.5,-75.5 1115.5,-75.5 1115.5,-56.5 994.5,-56.5"/>
<text text-anchor="middle" x="1055" y="-63.5" font-family="Helvetica,sans-Serif" font-size="10.00">QualityControl/Quality.h</text>
</a>
</g>
</g>
<!-- Node13&#45;&gt;Node17 -->
<g id="edge25" class="edge"><title>Node13&#45;&gt;Node17</title>
<path fill="none" stroke="midnightblue" d="M1024.16,-117.975C1029.45,-109.227 1037.84,-95.3691 1044.53,-84.3093"/>
<polygon fill="midnightblue" stroke="midnightblue" points="1047.67,-85.8768 1049.85,-75.5091 1041.68,-82.2531 1047.67,-85.8768"/>
</g>
<!-- Node17&#45;&gt;Node6 -->
<g id="edge27" class="edge"><title>Node17&#45;&gt;Node6</title>
<path fill="none" stroke="midnightblue" d="M994.304,-57.1082C991.158,-56.7267 988.043,-56.3551 985,-56 836.022,-38.6117 657.566,-20.8872 586.946,-13.9958"/>
<polygon fill="midnightblue" stroke="midnightblue" points="586.85,-10.47 576.558,-12.9845 586.172,-17.4371 586.85,-10.47"/>
</g>
<!-- Node17&#45;&gt;Node14 -->
<g id="edge28" class="edge"><title>Node17&#45;&gt;Node14</title>
<path fill="none" stroke="midnightblue" d="M1055,-56.083C1055,-49.0059 1055,-38.8611 1055,-29.9865"/>
<polygon fill="midnightblue" stroke="midnightblue" points="1058.5,-29.751 1055,-19.7511 1051.5,-29.7511 1058.5,-29.751"/>
</g>
<!-- Node18 -->
<g id="node18" class="node"><title>Node18</title>
<polygon fill="none" stroke="#bfbfbf" points="826,-0.5 826,-19.5 882,-19.5 882,-0.5 826,-0.5"/>
<text text-anchor="middle" x="854" y="-7.5" font-family="Helvetica,sans-Serif" font-size="10.00">Rtypes.h</text>
</g>
<!-- Node17&#45;&gt;Node18 -->
<g id="edge26" class="edge"><title>Node17&#45;&gt;Node18</title>
<path fill="none" stroke="midnightblue" d="M1023.15,-56.4435C987.484,-46.8613 929.719,-31.3424 891.794,-21.1537"/>
<polygon fill="midnightblue" stroke="midnightblue" points="892.698,-17.7725 882.133,-18.558 890.882,-24.5328 892.698,-17.7725"/>
</g>
<!-- Node19&#45;&gt;Node6 -->
<g id="edge30" class="edge"><title>Node19&#45;&gt;Node6</title>
<path fill="none" stroke="midnightblue" d="M739.958,-117.92C723.148,-103.823 687.912,-75.3954 655,-56 632.775,-42.9023 606.071,-30.9663 586.001,-22.6834"/>
<polygon fill="midnightblue" stroke="midnightblue" points="587.312,-19.4384 576.73,-18.9216 584.68,-25.9247 587.312,-19.4384"/>
</g>
<!-- Node19&#45;&gt;Node14 -->
<g id="edge31" class="edge"><title>Node19&#45;&gt;Node14</title>
<path fill="none" stroke="midnightblue" d="M750.248,-117.537C751.186,-102.347 755.42,-71.6728 774,-56 812.02,-23.9285 964.067,-14.4691 1027.25,-11.8919"/>
<polygon fill="midnightblue" stroke="midnightblue" points="1027.42,-15.3879 1037.28,-11.5107 1027.16,-8.393 1027.42,-15.3879"/>
</g>
<!-- Node19&#45;&gt;Node15 -->
<g id="edge33" class="edge"><title>Node19&#45;&gt;Node15</title>
<path fill="none" stroke="midnightblue" d="M778.225,-117.975C812.603,-107.592 870.81,-90.0116 909.077,-78.4538"/>
<polygon fill="midnightblue" stroke="midnightblue" points="910.266,-81.751 918.827,-75.5091 908.242,-75.0499 910.266,-81.751"/>
</g>
<!-- Node19&#45;&gt;Node16 -->
<g id="edge34" class="edge"><title>Node19&#45;&gt;Node16</title>
<path fill="none" stroke="midnightblue" d="M763.038,-117.975C777.769,-108.343 801.973,-92.5175 819.509,-81.0517"/>
<polygon fill="midnightblue" stroke="midnightblue" points="821.532,-83.911 827.986,-75.5091 817.701,-78.0522 821.532,-83.911"/>
</g>
<!-- Node19&#45;&gt;Node18 -->
<g id="edge32" class="edge"><title>Node19&#45;&gt;Node18</title>
<path fill="none" stroke="midnightblue" d="M745.46,-117.83C738.707,-103.604 728.119,-74.9946 741,-56 757.688,-31.3912 790.205,-20.2396 816.089,-15.1864"/>
<polygon fill="midnightblue" stroke="midnightblue" points="816.734,-18.627 825.994,-13.4792 815.544,-11.7287 816.734,-18.627"/>
</g>
</g>
</svg>
        <g id="navigator" transform="translate(0 0)" fill="#404254">
                <rect fill="#f2f5e9" fill-opacity="0.5" stroke="#606060" stroke-width=".5" x="0" y="0" width="60" height="60"/>
                <use id="zoomplus" xlink:href="#zoomPlus" x="17" y="9" onmousedown="handleZoom(evt,'in')"/>
                <use id="zoomminus" xlink:href="#zoomMin" x="42" y="9" onmousedown="handleZoom(evt,'out')"/>
                <use id="reset" xlink:href="#resetDef" x="30" y="36" onmousedown="handleReset()"/>
                <g id="arrowUp" xlink:href="#dirArrow" transform="translate(30 24)" onmousedown="handlePan(0,-1)">
                  <use xlink:href="#rim" fill="#404040">
                        <set attributeName="fill" to="#808080" begin="arrowUp.mouseover" end="arrowUp.mouseout"/>
                  </use>
                  <path fill="none" stroke="white" stroke-width="1.5" d="M0,-3.0v7 M-2.5,-0.5L0,-3.0L2.5,-0.5"/>
                </g>
                <g id="arrowRight" xlink:href="#dirArrow" transform="rotate(90) translate(36 -43)" onmousedown="handlePan(1,0)">
                  <use xlink:href="#rim" fill="#404040">
                        <set attributeName="fill" to="#808080" begin="arrowRight.mouseover" end="arrowRight.mouseout"/>
                  </use>
                  <path fill="none" stroke="white" stroke-width="1.5" d="M0,-3.0v7 M-2.5,-0.5L0,-3.0L2.5,-0.5"/>
                </g>
                <g id="arrowDown" xlink:href="#dirArrow" transform="rotate(180) translate(-30 -48)" onmousedown="handlePan(0,1)">
                  <use xlink:href="#rim" fill="#404040">
                        <set attributeName="fill" to="#808080" begin="arrowDown.mouseover" end="arrowDown.mouseout"/>
                  </use>
                  <path fill="none" stroke="white" stroke-width="1.5" d="M0,-3.0v7 M-2.5,-0.5L0,-3.0L2.5,-0.5"/>
                </g>
                <g id="arrowLeft" xlink:href="#dirArrow" transform="rotate(270) translate(-36 17)" onmousedown="handlePan(-1,0)">
                  <use xlink:href="#rim" fill="#404040">
                        <set attributeName="fill" to="#808080" begin="arrowLeft.mouseover" end="arrowLeft.mouseout"/>
                  </use>
                  <path fill="none" stroke="white" stroke-width="1.5" d="M0,-3.0v7 M-2.5,-0.5L0,-3.0L2.5,-0.5"/>
                </g>
        </g>
        <svg viewBox="0 0 15 15" width="100%" height="30px" preserveAspectRatio="xMaxYMin meet">
         <g id="arrow_out" transform="scale(0.3 0.3)">
          <a xlink:href="PostProcessingRunner_8h__incl_org.svg" target="_base">
           <rect id="button" ry="5" rx="5" y="6" x="6" height="38" width="38"
                fill="#f2f5e9" fill-opacity="0.5" stroke="#606060" stroke-width="1.0"/>
           <path id="arrow"
             d="M 11.500037,31.436501 C 11.940474,20.09759 22.043105,11.32322 32.158766,21.979434 L 37.068811,17.246167 C 37.068811,17.246167 37.088388,32 37.088388,32 L 22.160133,31.978069 C 22.160133,31.978069 26.997745,27.140456 26.997745,27.140456 C 18.528582,18.264221 13.291696,25.230495 11.500037,31.436501 z"
             style="fill:#404040;"/>
          </a>
         </g>
        </svg>
</svg>
