<?xml version="1.0" encoding="UTF-8" standalone="no"?>
<!DOCTYPE svg PUBLIC "-//W3C//DTD SVG 1.1//EN"
 "http://www.w3.org/Graphics/SVG/1.1/DTD/svg11.dtd">
<!-- Generated by graphviz version 2.38.0 (20140413.2041)
 -->
<!-- Title: Framework/include/QualityControl/PostProcessingInterface.h Pages: 1 -->
<svg width="432pt" height="162pt"
 viewBox="0.00 0.00 431.81 162.00" xmlns="http://www.w3.org/2000/svg" xmlns:xlink="http://www.w3.org/1999/xlink">
<g id="graph0" class="graph" transform="scale(1 1) rotate(0) translate(4 158)">
<title>Framework/include/QualityControl/PostProcessingInterface.h</title>
<!-- Node1 -->
<g id="node1" class="node"><title>Node1</title>
<polygon fill="#bfbfbf" stroke="black" points="75.8139,-123.5 75.8139,-153.5 242.814,-153.5 242.814,-123.5 75.8139,-123.5"/>
<text text-anchor="start" x="83.8139" y="-141.5" font-family="Helvetica,sans-Serif" font-size="10.00">Framework/include/Quality</text>
<text text-anchor="middle" x="159.314" y="-130.5" font-family="Helvetica,sans-Serif" font-size="10.00">Control/PostProcessingInterface.h</text>
</g>
<!-- Node2 -->
<g id="node2" class="node"><title>Node2</title>
<polygon fill="none" stroke="#bfbfbf" points="119.814,-0.5 119.814,-19.5 160.814,-19.5 160.814,-0.5 119.814,-0.5"/>
<text text-anchor="middle" x="140.314" y="-7.5" font-family="Helvetica,sans-Serif" font-size="10.00">string</text>
</g>
<!-- Node1&#45;&gt;Node2 -->
<g id="edge1" class="edge"><title>Node1&#45;&gt;Node2</title>
<path fill="none" stroke="midnightblue" d="M75.568,-129.137C49.0962,-122.078 22.5389,-109.441 6.31387,-87 -22.9569,-46.5148 61.8308,-24.6477 109.812,-15.7834"/>
<polygon fill="midnightblue" stroke="midnightblue" points="110.478,-19.2201 119.72,-14.04 109.265,-12.3261 110.478,-19.2201"/>
</g>
<!-- Node3 -->
<g id="node3" class="node"><title>Node3</title>
<polygon fill="none" stroke="#bfbfbf" points="15.3139,-62 15.3139,-81 161.314,-81 161.314,-62 15.3139,-62"/>
<text text-anchor="middle" x="88.3139" y="-69" font-family="Helvetica,sans-Serif" font-size="10.00">Framework/ServiceRegistry.h</text>
</g>
<!-- Node1&#45;&gt;Node3 -->
<g id="edge2" class="edge"><title>Node1&#45;&gt;Node3</title>
<path fill="none" stroke="midnightblue" d="M143.908,-123.396C132.509,-112.96 116.988,-98.7507 105.242,-87.9978"/>
<polygon fill="midnightblue" stroke="midnightblue" points="107.55,-85.3655 97.811,-81.1945 102.823,-90.5287 107.55,-85.3655"/>
</g>
<!-- Node4 -->
<g id="node4" class="node"><title>Node4</title>
<polygon fill="none" stroke="#bfbfbf" points="179.814,-56.5 179.814,-86.5 280.814,-86.5 280.814,-56.5 179.814,-56.5"/>
<text text-anchor="start" x="187.814" y="-74.5" font-family="Helvetica,sans-Serif" font-size="10.00">boost/property_tree</text>
<text text-anchor="middle" x="230.314" y="-63.5" font-family="Helvetica,sans-Serif" font-size="10.00">/ptree_fwd.hpp</text>
</g>
<!-- Node1&#45;&gt;Node4 -->
<g id="edge3" class="edge"><title>Node1&#45;&gt;Node4</title>
<path fill="none" stroke="midnightblue" d="M174.72,-123.396C184.303,-114.623 196.799,-103.183 207.516,-93.3714"/>
<polygon fill="midnightblue" stroke="midnightblue" points="209.926,-95.9106 214.938,-86.5765 205.199,-90.7475 209.926,-95.9106"/>
</g>
<!-- Node5 -->
<g id="node5" class="node"><title>Node5</title>
<g id="a_node5"><a xlink:href="Triggers_8h.html" target="_top" xlink:title="QualityControl/Triggers.h">
<polygon fill="none" stroke="black" points="298.814,-62 298.814,-81 423.814,-81 423.814,-62 298.814,-62"/>
<text text-anchor="middle" x="361.314" y="-69" font-family="Helvetica,sans-Serif" font-size="10.00">QualityControl/Triggers.h</text>
</a>
</g>
</g>
<!-- Node1&#45;&gt;Node5 -->
<g id="edge4" class="edge"><title>Node1&#45;&gt;Node5</title>
<path fill="none" stroke="midnightblue" d="M203.145,-123.396C239.686,-111.638 291.113,-95.0894 325.291,-84.0916"/>
<polygon fill="midnightblue" stroke="midnightblue" points="326.43,-87.402 334.877,-81.007 324.285,-80.7385 326.43,-87.402"/>
</g>
<!-- Node5&#45;&gt;Node2 -->
<g id="edge5" class="edge"><title>Node5&#45;&gt;Node2</title>
<path fill="none" stroke="midnightblue" d="M329.65,-61.9751C287.289,-50.5703 212.675,-30.4819 170.88,-19.2294"/>
<polygon fill="midnightblue" stroke="midnightblue" points="171.567,-15.7898 161.001,-16.5696 169.747,-22.5491 171.567,-15.7898"/>
</g>
<!-- Node6 -->
<g id="node6" class="node"><title>Node6</title>
<polygon fill="none" stroke="#bfbfbf" points="331.814,-0.5 331.814,-19.5 390.814,-19.5 390.814,-0.5 331.814,-0.5"/>
<text text-anchor="middle" x="361.314" y="-7.5" font-family="Helvetica,sans-Serif" font-size="10.00">functional</text>
</g>
<!-- Node5&#45;&gt;Node6 -->
<g id="edge6" class="edge"><title>Node5&#45;&gt;Node6</title>
<path fill="none" stroke="midnightblue" d="M361.314,-61.9751C361.314,-53.5803 361.314,-40.4806 361.314,-29.6631"/>
<polygon fill="midnightblue" stroke="midnightblue" points="364.814,-29.5091 361.314,-19.5091 357.814,-29.5091 364.814,-29.5091"/>
</g>
</g>
</svg>
