<?xml version="1.0" encoding="UTF-8" standalone="no"?>
<!DOCTYPE svg PUBLIC "-//W3C//DTD SVG 1.1//EN"
 "http://www.w3.org/Graphics/SVG/1.1/DTD/svg11.dtd">
<!-- Generated by graphviz version 2.38.0 (20140413.2041)
 -->
<!-- Title: Framework/include/QualityControl/PostProcessingInterface.h Pages: 1 -->
<svg width="1606pt" height="173pt"
 viewBox="0.00 0.00 1606.00 173.00" xmlns="http://www.w3.org/2000/svg" xmlns:xlink="http://www.w3.org/1999/xlink">
<g id="graph0" class="graph" transform="scale(1 1) rotate(0) translate(4 169)">
<title>Framework/include/QualityControl/PostProcessingInterface.h</title>
<!-- Node1 -->
<g id="node1" class="node"><title>Node1</title>
<polygon fill="#bfbfbf" stroke="black" points="1002.5,-134.5 1002.5,-164.5 1169.5,-164.5 1169.5,-134.5 1002.5,-134.5"/>
<text text-anchor="start" x="1010.5" y="-152.5" font-family="Helvetica,sans-Serif" font-size="10.00">Framework/include/Quality</text>
<text text-anchor="middle" x="1086" y="-141.5" font-family="Helvetica,sans-Serif" font-size="10.00">Control/PostProcessingInterface.h</text>
</g>
<!-- Node2 -->
<g id="node2" class="node"><title>Node2</title>
<g id="a_node2"><a xlink:href="PostProcessingRunner_8h.html" target="_top" xlink:title="Framework/include/Quality\lControl/PostProcessingRunner.h">
<polygon fill="none" stroke="black" points="379,-67.5 379,-97.5 539,-97.5 539,-67.5 379,-67.5"/>
<text text-anchor="start" x="387" y="-85.5" font-family="Helvetica,sans-Serif" font-size="10.00">Framework/include/Quality</text>
<text text-anchor="middle" x="459" y="-74.5" font-family="Helvetica,sans-Serif" font-size="10.00">Control/PostProcessingRunner.h</text>
</a>
</g>
</g>
<!-- Node1&#45;&gt;Node2 -->
<g id="edge1" class="edge"><title>Node1&#45;&gt;Node2</title>
<path fill="none" stroke="midnightblue" d="M992.249,-138.781C869.103,-126.015 654.949,-103.814 539.038,-91.7974"/>
<polygon fill="midnightblue" stroke="midnightblue" points="992.108,-142.285 1002.42,-139.835 992.829,-135.322 992.108,-142.285"/>
</g>
<!-- Node7 -->
<g id="node7" class="node"><title>Node7</title>
<g id="a_node7"><a xlink:href="TrendingTask_8h.html" target="_top" xlink:title="Framework/include/Quality\lControl/TrendingTask.h">
<polygon fill="none" stroke="black" points="766.5,-67.5 766.5,-97.5 899.5,-97.5 899.5,-67.5 766.5,-67.5"/>
<text text-anchor="start" x="774.5" y="-85.5" font-family="Helvetica,sans-Serif" font-size="10.00">Framework/include/Quality</text>
<text text-anchor="middle" x="833" y="-74.5" font-family="Helvetica,sans-Serif" font-size="10.00">Control/TrendingTask.h</text>
</a>
</g>
</g>
<!-- Node1&#45;&gt;Node7 -->
<g id="edge6" class="edge"><title>Node1&#45;&gt;Node7</title>
<path fill="none" stroke="midnightblue" d="M1021.72,-131.984C980.392,-121.367 927.272,-107.72 887.924,-97.6109"/>
<polygon fill="midnightblue" stroke="midnightblue" points="1020.86,-135.377 1031.41,-134.476 1022.6,-128.598 1020.86,-135.377"/>
</g>
<!-- Node10 -->
<g id="node10" class="node"><title>Node10</title>
<g id="a_node10"><a xlink:href="PostProcessingInterface_8cxx.html" target="_top" xlink:title="Framework/src/PostProcessing\lInterface.cxx">
<polygon fill="none" stroke="black" points="918,-67.5 918,-97.5 1072,-97.5 1072,-67.5 918,-67.5"/>
<text text-anchor="start" x="926" y="-85.5" font-family="Helvetica,sans-Serif" font-size="10.00">Framework/src/PostProcessing</text>
<text text-anchor="middle" x="995" y="-74.5" font-family="Helvetica,sans-Serif" font-size="10.00">Interface.cxx</text>
</a>
</g>
</g>
<!-- Node1&#45;&gt;Node10 -->
<g id="edge9" class="edge"><title>Node1&#45;&gt;Node10</title>
<path fill="none" stroke="midnightblue" d="M1057.93,-128.451C1043.93,-118.452 1027.34,-106.6 1014.71,-97.5765"/>
<polygon fill="midnightblue" stroke="midnightblue" points="1056.08,-131.432 1066.25,-134.396 1060.15,-125.735 1056.08,-131.432"/>
</g>
<!-- Node11 -->
<g id="node11" class="node"><title>Node11</title>
<g id="a_node11"><a xlink:href="testPostProcessingInterface_8cxx.html" target="_top" xlink:title="Framework/test/testPostProcessing\lInterface.cxx">
<polygon fill="none" stroke="black" points="1090.5,-67.5 1090.5,-97.5 1263.5,-97.5 1263.5,-67.5 1090.5,-67.5"/>
<text text-anchor="start" x="1098.5" y="-85.5" font-family="Helvetica,sans-Serif" font-size="10.00">Framework/test/testPostProcessing</text>
<text text-anchor="middle" x="1177" y="-74.5" font-family="Helvetica,sans-Serif" font-size="10.00">Interface.cxx</text>
</a>
</g>
</g>
<!-- Node1&#45;&gt;Node11 -->
<g id="edge10" class="edge"><title>Node1&#45;&gt;Node11</title>
<path fill="none" stroke="midnightblue" d="M1114.07,-128.451C1128.07,-118.452 1144.66,-106.6 1157.29,-97.5765"/>
<polygon fill="midnightblue" stroke="midnightblue" points="1111.85,-125.735 1105.75,-134.396 1115.92,-131.432 1111.85,-125.735"/>
</g>
<!-- Node12 -->
<g id="node12" class="node"><title>Node12</title>
<g id="a_node12"><a xlink:href="TrendingTaskITS_8h.html" target="_top" xlink:title="Modules/ITS/include\l/ITS/TrendingTaskITS.h">
<polygon fill="none" stroke="black" points="1282,-67.5 1282,-97.5 1404,-97.5 1404,-67.5 1282,-67.5"/>
<text text-anchor="start" x="1290" y="-85.5" font-family="Helvetica,sans-Serif" font-size="10.00">Modules/ITS/include</text>
<text text-anchor="middle" x="1343" y="-74.5" font-family="Helvetica,sans-Serif" font-size="10.00">/ITS/TrendingTaskITS.h</text>
</a>
</g>
</g>
<!-- Node1&#45;&gt;Node12 -->
<g id="edge11" class="edge"><title>Node1&#45;&gt;Node12</title>
<path fill="none" stroke="midnightblue" d="M1151.3,-131.984C1193.28,-121.367 1247.24,-107.72 1287.21,-97.6109"/>
<polygon fill="midnightblue" stroke="midnightblue" points="1150.29,-128.631 1141.45,-134.476 1152,-135.417 1150.29,-128.631"/>
</g>
<!-- Node14 -->
<g id="node14" class="node"><title>Node14</title>
<g id="a_node14"><a xlink:href="SkeletonPostProcessing_8h.html" target="_top" xlink:title="Modules/Skeleton/include\l/Skeleton/SkeletonPostProcessing.h">
<polygon fill="none" stroke="black" points="1422,-67.5 1422,-97.5 1598,-97.5 1598,-67.5 1422,-67.5"/>
<text text-anchor="start" x="1430" y="-85.5" font-family="Helvetica,sans-Serif" font-size="10.00">Modules/Skeleton/include</text>
<text text-anchor="middle" x="1510" y="-74.5" font-family="Helvetica,sans-Serif" font-size="10.00">/Skeleton/SkeletonPostProcessing.h</text>
</a>
</g>
</g>
<!-- Node1&#45;&gt;Node14 -->
<g id="edge13" class="edge"><title>Node1&#45;&gt;Node14</title>
<path fill="none" stroke="midnightblue" d="M1179.53,-134.162C1251.78,-123.086 1351.08,-107.863 1421.92,-97.0027"/>
<polygon fill="midnightblue" stroke="midnightblue" points="1178.87,-130.722 1169.52,-135.697 1179.93,-137.641 1178.87,-130.722"/>
</g>
<!-- Node3 -->
<g id="node3" class="node"><title>Node3</title>
<polygon fill="none" stroke="#bfbfbf" points="0,-0.5 0,-30.5 154,-30.5 154,-0.5 0,-0.5"/>
<text text-anchor="start" x="8" y="-18.5" font-family="Helvetica,sans-Serif" font-size="10.00">Framework/src/PostProcessing</text>
<text text-anchor="middle" x="77" y="-7.5" font-family="Helvetica,sans-Serif" font-size="10.00">Runner.cxx</text>
</g>
<!-- Node2&#45;&gt;Node3 -->
<g id="edge2" class="edge"><title>Node2&#45;&gt;Node3</title>
<path fill="none" stroke="midnightblue" d="M369.038,-66.1923C303.688,-55.0726 216.18,-40.1825 154.04,-29.609"/>
<polygon fill="midnightblue" stroke="midnightblue" points="368.475,-69.6467 378.92,-67.8739 369.649,-62.7459 368.475,-69.6467"/>
</g>
<!-- Node4 -->
<g id="node4" class="node"><title>Node4</title>
<g id="a_node4"><a xlink:href="runPostProcessing_8cxx.html" target="_top" xlink:title="This is a standalone executable to run postprocessing. ">
<polygon fill="none" stroke="black" points="172,-6 172,-25 358,-25 358,-6 172,-6"/>
<text text-anchor="middle" x="265" y="-13" font-family="Helvetica,sans-Serif" font-size="10.00">Framework/src/runPostProcessing.cxx</text>
</a>
</g>
</g>
<!-- Node2&#45;&gt;Node4 -->
<g id="edge3" class="edge"><title>Node2&#45;&gt;Node4</title>
<path fill="none" stroke="midnightblue" d="M407.09,-64.1075C369.349,-51.4622 319.894,-34.8923 290.39,-25.007"/>
<polygon fill="midnightblue" stroke="midnightblue" points="406.311,-67.5376 416.905,-67.396 408.535,-60.9003 406.311,-67.5376"/>
</g>
<!-- Node5 -->
<g id="node5" class="node"><title>Node5</title>
<g id="a_node5"><a xlink:href="runPostProcessingOCC_8cxx.html" target="_top" xlink:title="This is an OCC executable to run postprocessing. ">
<polygon fill="none" stroke="black" points="375.5,-0.5 375.5,-30.5 542.5,-30.5 542.5,-0.5 375.5,-0.5"/>
<text text-anchor="start" x="383.5" y="-18.5" font-family="Helvetica,sans-Serif" font-size="10.00">Framework/src/runPostProcessing</text>
<text text-anchor="middle" x="459" y="-7.5" font-family="Helvetica,sans-Serif" font-size="10.00">OCC.cxx</text>
</a>
</g>
</g>
<!-- Node2&#45;&gt;Node5 -->
<g id="edge4" class="edge"><title>Node2&#45;&gt;Node5</title>
<path fill="none" stroke="midnightblue" d="M459,-57.1081C459,-48.1539 459,-38.3227 459,-30.5765"/>
<polygon fill="midnightblue" stroke="midnightblue" points="455.5,-57.3959 459,-67.396 462.5,-57.396 455.5,-57.3959"/>
</g>
<!-- Node6 -->
<g id="node6" class="node"><title>Node6</title>
<g id="a_node6"><a xlink:href="testPostProcessingRunner_8cxx.html" target="_top" xlink:title="Framework/test/testPostProcessing\lRunner.cxx">
<polygon fill="none" stroke="black" points="560.5,-0.5 560.5,-30.5 733.5,-30.5 733.5,-0.5 560.5,-0.5"/>
<text text-anchor="start" x="568.5" y="-18.5" font-family="Helvetica,sans-Serif" font-size="10.00">Framework/test/testPostProcessing</text>
<text text-anchor="middle" x="647" y="-7.5" font-family="Helvetica,sans-Serif" font-size="10.00">Runner.cxx</text>
</a>
</g>
</g>
<!-- Node2&#45;&gt;Node6 -->
<g id="edge5" class="edge"><title>Node2&#45;&gt;Node6</title>
<path fill="none" stroke="midnightblue" d="M509.35,-64.0917C539.699,-53.5988 577.85,-40.4082 606.286,-30.5765"/>
<polygon fill="midnightblue" stroke="midnightblue" points="508.101,-60.8204 499.793,-67.396 510.388,-67.4361 508.101,-60.8204"/>
</g>
<!-- Node8 -->
<g id="node8" class="node"><title>Node8</title>
<g id="a_node8"><a xlink:href="TrendingTask_8cxx.html" target="_top" xlink:title="Framework/src/TrendingTask.cxx">
<polygon fill="none" stroke="black" points="751.5,-6 751.5,-25 914.5,-25 914.5,-6 751.5,-6"/>
<text text-anchor="middle" x="833" y="-13" font-family="Helvetica,sans-Serif" font-size="10.00">Framework/src/TrendingTask.cxx</text>
</a>
</g>
</g>
<!-- Node7&#45;&gt;Node8 -->
<g id="edge7" class="edge"><title>Node7&#45;&gt;Node8</title>
<path fill="none" stroke="midnightblue" d="M833,-57.2495C833,-46.017 833,-33.3767 833,-25.1945"/>
<polygon fill="midnightblue" stroke="midnightblue" points="829.5,-57.3959 833,-67.396 836.5,-57.396 829.5,-57.3959"/>
</g>
<!-- Node9 -->
<g id="node9" class="node"><title>Node9</title>
<g id="a_node9"><a xlink:href="testTrendingTask_8cxx.html" target="_top" xlink:title="Framework/test/testTrending\lTask.cxx">
<polygon fill="none" stroke="black" points="933,-0.5 933,-30.5 1075,-30.5 1075,-0.5 933,-0.5"/>
<text text-anchor="start" x="941" y="-18.5" font-family="Helvetica,sans-Serif" font-size="10.00">Framework/test/testTrending</text>
<text text-anchor="middle" x="1004" y="-7.5" font-family="Helvetica,sans-Serif" font-size="10.00">Task.cxx</text>
</a>
</g>
</g>
<!-- Node7&#45;&gt;Node9 -->
<g id="edge8" class="edge"><title>Node7&#45;&gt;Node9</title>
<path fill="none" stroke="midnightblue" d="M879.516,-63.8185C907.002,-53.3707 941.327,-40.3231 966.968,-30.5765"/>
<polygon fill="midnightblue" stroke="midnightblue" points="878.208,-60.5712 870.104,-67.396 880.696,-67.1144 878.208,-60.5712"/>
</g>
<!-- Node13 -->
<g id="node13" class="node"><title>Node13</title>
<g id="a_node13"><a xlink:href="TrendingTaskITS_8cxx.html" target="_top" xlink:title="Modules/ITS/src/Trending\lTaskITS.cxx">
<polygon fill="none" stroke="black" points="1278.5,-0.5 1278.5,-30.5 1407.5,-30.5 1407.5,-0.5 1278.5,-0.5"/>
<text text-anchor="start" x="1286.5" y="-18.5" font-family="Helvetica,sans-Serif" font-size="10.00">Modules/ITS/src/Trending</text>
<text text-anchor="middle" x="1343" y="-7.5" font-family="Helvetica,sans-Serif" font-size="10.00">TaskITS.cxx</text>
</a>
</g>
</g>
<!-- Node12&#45;&gt;Node13 -->
<g id="edge12" class="edge"><title>Node12&#45;&gt;Node13</title>
<path fill="none" stroke="midnightblue" d="M1343,-57.1081C1343,-48.1539 1343,-38.3227 1343,-30.5765"/>
<polygon fill="midnightblue" stroke="midnightblue" points="1339.5,-57.3959 1343,-67.396 1346.5,-57.396 1339.5,-57.3959"/>
</g>
<!-- Node15 -->
<g id="node15" class="node"><title>Node15</title>
<polygon fill="none" stroke="#bfbfbf" points="1437,-0.5 1437,-30.5 1583,-30.5 1583,-0.5 1437,-0.5"/>
<text text-anchor="start" x="1445" y="-18.5" font-family="Helvetica,sans-Serif" font-size="10.00">Modules/Skeleton/src</text>
<text text-anchor="middle" x="1510" y="-7.5" font-family="Helvetica,sans-Serif" font-size="10.00">/SkeletonPostProcessing.cxx</text>
</g>
<!-- Node14&#45;&gt;Node15 -->
<g id="edge14" class="edge"><title>Node14&#45;&gt;Node15</title>
<path fill="none" stroke="midnightblue" d="M1510,-57.1081C1510,-48.1539 1510,-38.3227 1510,-30.5765"/>
<polygon fill="midnightblue" stroke="midnightblue" points="1506.5,-57.3959 1510,-67.396 1513.5,-57.396 1506.5,-57.3959"/>
</g>
</g>
</svg>
