<?xml version="1.0" encoding="UTF-8" standalone="no"?>
<!DOCTYPE svg PUBLIC "-//W3C//DTD SVG 1.1//EN"
 "http://www.w3.org/Graphics/SVG/1.1/DTD/svg11.dtd">
<!-- Generated by graphviz version 2.38.0 (20140413.2041)
 -->
<!-- Title: Framework/src/PostProcessingFactory.cxx Pages: 1 -->
<svg width="914pt" height="240pt"
 viewBox="0.00 0.00 913.50 240.00" xmlns="http://www.w3.org/2000/svg" xmlns:xlink="http://www.w3.org/1999/xlink">
<g id="graph0" class="graph" transform="scale(1 1) rotate(0) translate(4 236)">
<title>Framework/src/PostProcessingFactory.cxx</title>
<!-- Node1 -->
<g id="node1" class="node"><title>Node1</title>
<polygon fill="#bfbfbf" stroke="black" points="254,-201.5 254,-231.5 408,-231.5 408,-201.5 254,-201.5"/>
<text text-anchor="start" x="262" y="-219.5" font-family="Helvetica,sans-Serif" font-size="10.00">Framework/src/PostProcessing</text>
<text text-anchor="middle" x="331" y="-208.5" font-family="Helvetica,sans-Serif" font-size="10.00">Factory.cxx</text>
</g>
<!-- Node2 -->
<g id="node2" class="node"><title>Node2</title>
<g id="a_node2"><a xlink:href="PostProcessingFactory_8h.html" target="_top" xlink:title="QualityControl/PostProcessing\lFactory.h">
<polygon fill="none" stroke="black" points="145.5,-134.5 145.5,-164.5 296.5,-164.5 296.5,-134.5 145.5,-134.5"/>
<text text-anchor="start" x="153.5" y="-152.5" font-family="Helvetica,sans-Serif" font-size="10.00">QualityControl/PostProcessing</text>
<text text-anchor="middle" x="221" y="-141.5" font-family="Helvetica,sans-Serif" font-size="10.00">Factory.h</text>
</a>
</g>
</g>
<!-- Node1&#45;&gt;Node2 -->
<g id="edge1" class="edge"><title>Node1&#45;&gt;Node2</title>
<path fill="none" stroke="midnightblue" d="M307.132,-201.396C291.42,-192.112 270.654,-179.841 253.449,-169.674"/>
<polygon fill="midnightblue" stroke="midnightblue" points="255.212,-166.651 244.822,-164.577 251.65,-172.677 255.212,-166.651"/>
</g>
<!-- Node7 -->
<g id="node7" class="node"><title>Node7</title>
<g id="a_node7"><a xlink:href="RootClassFactory_8h.html" target="_top" xlink:title="RootClassFactory.h">
<polygon fill="none" stroke="black" points="389,-140 389,-159 493,-159 493,-140 389,-140"/>
<text text-anchor="middle" x="441" y="-147" font-family="Helvetica,sans-Serif" font-size="10.00">RootClassFactory.h</text>
</a>
</g>
</g>
<!-- Node1&#45;&gt;Node7 -->
<g id="edge6" class="edge"><title>Node1&#45;&gt;Node7</title>
<path fill="none" stroke="midnightblue" d="M354.868,-201.396C373.571,-190.344 399.436,-175.061 417.931,-164.132"/>
<polygon fill="midnightblue" stroke="midnightblue" points="419.775,-167.108 426.604,-159.007 416.214,-161.081 419.775,-167.108"/>
</g>
<!-- Node3 -->
<g id="node3" class="node"><title>Node3</title>
<g id="a_node3"><a xlink:href="PostProcessingConfig_8h.html" target="_top" xlink:title="QualityControl/PostProcessing\lConfig.h">
<polygon fill="none" stroke="black" points="33.5,-67.5 33.5,-97.5 184.5,-97.5 184.5,-67.5 33.5,-67.5"/>
<text text-anchor="start" x="41.5" y="-85.5" font-family="Helvetica,sans-Serif" font-size="10.00">QualityControl/PostProcessing</text>
<text text-anchor="middle" x="109" y="-74.5" font-family="Helvetica,sans-Serif" font-size="10.00">Config.h</text>
</a>
</g>
</g>
<!-- Node2&#45;&gt;Node3 -->
<g id="edge2" class="edge"><title>Node2&#45;&gt;Node3</title>
<path fill="none" stroke="midnightblue" d="M196.698,-134.396C180.7,-125.112 159.557,-112.841 142.039,-102.674"/>
<polygon fill="midnightblue" stroke="midnightblue" points="143.661,-99.5689 133.255,-97.5765 140.147,-105.623 143.661,-99.5689"/>
</g>
<!-- Node4 -->
<g id="node4" class="node"><title>Node4</title>
<polygon fill="none" stroke="#bfbfbf" points="0,-6 0,-25 44,-25 44,-6 0,-6"/>
<text text-anchor="middle" x="22" y="-13" font-family="Helvetica,sans-Serif" font-size="10.00">vector</text>
</g>
<!-- Node3&#45;&gt;Node4 -->
<g id="edge3" class="edge"><title>Node3&#45;&gt;Node4</title>
<path fill="none" stroke="midnightblue" d="M90.1223,-67.396C75.8856,-56.7593 56.4023,-42.2028 41.9181,-31.3813"/>
<polygon fill="midnightblue" stroke="midnightblue" points="43.7432,-28.376 33.6373,-25.1945 39.5535,-33.9837 43.7432,-28.376"/>
</g>
<!-- Node5 -->
<g id="node5" class="node"><title>Node5</title>
<polygon fill="none" stroke="#bfbfbf" points="188.5,-6 188.5,-25 229.5,-25 229.5,-6 188.5,-6"/>
<text text-anchor="middle" x="209" y="-13" font-family="Helvetica,sans-Serif" font-size="10.00">string</text>
</g>
<!-- Node3&#45;&gt;Node5 -->
<g id="edge4" class="edge"><title>Node3&#45;&gt;Node5</title>
<path fill="none" stroke="midnightblue" d="M130.699,-67.396C147.468,-56.4956 170.571,-41.4787 187.333,-30.5835"/>
<polygon fill="midnightblue" stroke="midnightblue" points="189.435,-33.3915 195.912,-25.007 185.62,-27.5224 189.435,-33.3915"/>
</g>
<!-- Node6 -->
<g id="node6" class="node"><title>Node6</title>
<polygon fill="none" stroke="#bfbfbf" points="62.5,-0.5 62.5,-30.5 163.5,-30.5 163.5,-0.5 62.5,-0.5"/>
<text text-anchor="start" x="70.5" y="-18.5" font-family="Helvetica,sans-Serif" font-size="10.00">boost/property_tree</text>
<text text-anchor="middle" x="113" y="-7.5" font-family="Helvetica,sans-Serif" font-size="10.00">/ptree_fwd.hpp</text>
</g>
<!-- Node3&#45;&gt;Node6 -->
<g id="edge5" class="edge"><title>Node3&#45;&gt;Node6</title>
<path fill="none" stroke="midnightblue" d="M109.868,-67.396C110.35,-59.5597 110.963,-49.5958 111.519,-40.5653"/>
<polygon fill="midnightblue" stroke="midnightblue" points="115.013,-40.7726 112.134,-30.5765 108.026,-40.3426 115.013,-40.7726"/>
</g>
<!-- Node7&#45;&gt;Node5 -->
<g id="edge7" class="edge"><title>Node7&#45;&gt;Node5</title>
<path fill="none" stroke="midnightblue" d="M388.959,-141.99C334.596,-134.164 254.186,-119.359 232,-98 214.984,-81.6185 210.267,-53.7002 209.114,-35.1769"/>
<polygon fill="midnightblue" stroke="midnightblue" points="212.607,-34.9234 208.778,-25.0448 205.611,-35.1552 212.607,-34.9234"/>
</g>
<!-- Node8 -->
<g id="node8" class="node"><title>Node8</title>
<polygon fill="none" stroke="#bfbfbf" points="241,-73 241,-92 357,-92 357,-73 241,-73"/>
<text text-anchor="middle" x="299" y="-80" font-family="Helvetica,sans-Serif" font-size="10.00">Common/Exceptions.h</text>
</g>
<!-- Node7&#45;&gt;Node8 -->
<g id="edge8" class="edge"><title>Node7&#45;&gt;Node8</title>
<path fill="none" stroke="midnightblue" d="M422.143,-139.869C397.849,-128.748 355.399,-109.317 327.244,-96.4286"/>
<polygon fill="midnightblue" stroke="midnightblue" points="328.484,-93.147 317.934,-92.1672 325.57,-99.5118 328.484,-93.147"/>
</g>
<!-- Node9 -->
<g id="node9" class="node"><title>Node9</title>
<polygon fill="none" stroke="#bfbfbf" points="375,-73 375,-92 431,-92 431,-73 375,-73"/>
<text text-anchor="middle" x="403" y="-80" font-family="Helvetica,sans-Serif" font-size="10.00">TClass.h</text>
</g>
<!-- Node7&#45;&gt;Node9 -->
<g id="edge9" class="edge"><title>Node7&#45;&gt;Node9</title>
<path fill="none" stroke="midnightblue" d="M435.875,-139.734C430.063,-129.793 420.444,-113.338 413.108,-100.789"/>
<polygon fill="midnightblue" stroke="midnightblue" points="416.112,-98.9938 408.044,-92.1273 410.069,-102.527 416.112,-98.9938"/>
</g>
<!-- Node10 -->
<g id="node10" class="node"><title>Node10</title>
<polygon fill="none" stroke="#bfbfbf" points="449.5,-73 449.5,-92 508.5,-92 508.5,-73 449.5,-73"/>
<text text-anchor="middle" x="479" y="-80" font-family="Helvetica,sans-Serif" font-size="10.00">TROOT.h</text>
</g>
<!-- Node7&#45;&gt;Node10 -->
<g id="edge10" class="edge"><title>Node7&#45;&gt;Node10</title>
<path fill="none" stroke="midnightblue" d="M446.125,-139.734C451.937,-129.793 461.556,-113.338 468.892,-100.789"/>
<polygon fill="midnightblue" stroke="midnightblue" points="471.931,-102.527 473.956,-92.1273 465.888,-98.9938 471.931,-102.527"/>
</g>
<!-- Node11 -->
<g id="node11" class="node"><title>Node11</title>
<polygon fill="none" stroke="#bfbfbf" points="526.5,-73 526.5,-92 591.5,-92 591.5,-73 526.5,-73"/>
<text text-anchor="middle" x="559" y="-80" font-family="Helvetica,sans-Serif" font-size="10.00">TSystem.h</text>
</g>
<!-- Node7&#45;&gt;Node11 -->
<g id="edge11" class="edge"><title>Node7&#45;&gt;Node11</title>
<path fill="none" stroke="midnightblue" d="M456.914,-139.734C476.819,-128.769 511.109,-109.881 534.403,-97.0495"/>
<polygon fill="midnightblue" stroke="midnightblue" points="536.268,-100.018 543.338,-92.1273 532.89,-93.8866 536.268,-100.018"/>
</g>
<!-- Node12 -->
<g id="node12" class="node"><title>Node12</title>
<polygon fill="none" stroke="#bfbfbf" points="609.5,-73 609.5,-92 738.5,-92 738.5,-73 609.5,-73"/>
<text text-anchor="middle" x="674" y="-80" font-family="Helvetica,sans-Serif" font-size="10.00">boost/filesystem/path.hpp</text>
</g>
<!-- Node7&#45;&gt;Node12 -->
<g id="edge12" class="edge"><title>Node7&#45;&gt;Node12</title>
<path fill="none" stroke="midnightblue" d="M471.941,-139.869C513.574,-128.254 587.698,-107.576 633.663,-94.7528"/>
<polygon fill="midnightblue" stroke="midnightblue" points="634.611,-98.1221 643.303,-92.0637 632.73,-91.3796 634.611,-98.1221"/>
</g>
<!-- Node13 -->
<g id="node13" class="node"><title>Node13</title>
<g id="a_node13"><a xlink:href="QcInfoLogger_8h.html" target="_top" xlink:title="QualityControl/QcInfoLogger.h">
<polygon fill="none" stroke="black" points="756.5,-73 756.5,-92 905.5,-92 905.5,-73 756.5,-73"/>
<text text-anchor="middle" x="831" y="-80" font-family="Helvetica,sans-Serif" font-size="10.00">QualityControl/QcInfoLogger.h</text>
</a>
</g>
</g>
<!-- Node7&#45;&gt;Node13 -->
<g id="edge13" class="edge"><title>Node7&#45;&gt;Node13</title>
<path fill="none" stroke="midnightblue" d="M493.269,-139.994C554.204,-130.05 657.938,-113.036 747,-98 754.988,-96.6514 763.401,-95.2165 771.692,-93.7939"/>
<polygon fill="midnightblue" stroke="midnightblue" points="772.445,-97.2159 781.707,-92.0714 771.259,-90.3171 772.445,-97.2159"/>
</g>
<!-- Node14 -->
<g id="node14" class="node"><title>Node14</title>
<polygon fill="none" stroke="#bfbfbf" points="766,-6 766,-25 896,-25 896,-6 766,-6"/>
<text text-anchor="middle" x="831" y="-13" font-family="Helvetica,sans-Serif" font-size="10.00">InfoLogger/InfoLogger.hxx</text>
</g>
<!-- Node13&#45;&gt;Node14 -->
<g id="edge14" class="edge"><title>Node13&#45;&gt;Node14</title>
<path fill="none" stroke="midnightblue" d="M831,-72.7338C831,-63.1826 831,-47.6183 831,-35.2829"/>
<polygon fill="midnightblue" stroke="midnightblue" points="834.5,-35.1273 831,-25.1273 827.5,-35.1273 834.5,-35.1273"/>
</g>
</g>
</svg>
