<?xml version="1.0" encoding="UTF-8" standalone="no"?>
<!DOCTYPE svg PUBLIC "-//W3C//DTD SVG 1.1//EN"
 "http://www.w3.org/Graphics/SVG/1.1/DTD/svg11.dtd">
<!-- Generated by graphviz version 2.38.0 (20140413.2041)
 -->
<!-- Title: Framework/include/QualityControl/Reductor.h Pages: 1 -->
<svg width="1641pt" height="173pt"
 viewBox="0.00 0.00 1641.00 173.00" xmlns="http://www.w3.org/2000/svg" xmlns:xlink="http://www.w3.org/1999/xlink">
<g id="graph0" class="graph" transform="scale(1 1) rotate(0) translate(4 169)">
<title>Framework/include/QualityControl/Reductor.h</title>
<!-- Node1 -->
<g id="node1" class="node"><title>Node1</title>
<polygon fill="#bfbfbf" stroke="black" points="712,-134.5 712,-164.5 845,-164.5 845,-134.5 712,-134.5"/>
<text text-anchor="start" x="720" y="-152.5" font-family="Helvetica,sans-Serif" font-size="10.00">Framework/include/Quality</text>
<text text-anchor="middle" x="778.5" y="-141.5" font-family="Helvetica,sans-Serif" font-size="10.00">Control/Reductor.h</text>
</g>
<!-- Node2 -->
<g id="node2" class="node"><title>Node2</title>
<g id="a_node2"><a xlink:href="TrendingTask_8h.html" target="_top" xlink:title="Framework/include/Quality\lControl/TrendingTask.h">
<polygon fill="none" stroke="black" points="110,-67.5 110,-97.5 243,-97.5 243,-67.5 110,-67.5"/>
<text text-anchor="start" x="118" y="-85.5" font-family="Helvetica,sans-Serif" font-size="10.00">Framework/include/Quality</text>
<text text-anchor="middle" x="176.5" y="-74.5" font-family="Helvetica,sans-Serif" font-size="10.00">Control/TrendingTask.h</text>
</a>
</g>
</g>
<!-- Node1&#45;&gt;Node2 -->
<g id="edge1" class="edge"><title>Node1&#45;&gt;Node2</title>
<path fill="none" stroke="midnightblue" d="M701.716,-143.45C598.869,-136.159 410.851,-120.985 251.5,-98 248.744,-97.6024 245.935,-97.1725 243.1,-96.7181"/>
<polygon fill="midnightblue" stroke="midnightblue" points="701.482,-146.942 711.703,-144.152 701.973,-139.959 701.482,-146.942"/>
</g>
<!-- Node3 -->
<g id="node3" class="node"><title>Node3</title>
<g id="a_node3"><a xlink:href="TrendingTask_8cxx.html" target="_top" xlink:title="Framework/src/TrendingTask.cxx">
<polygon fill="none" stroke="black" points="0,-6 0,-25 163,-25 163,-6 0,-6"/>
<text text-anchor="middle" x="81.5" y="-13" font-family="Helvetica,sans-Serif" font-size="10.00">Framework/src/TrendingTask.cxx</text>
</a>
</g>
</g>
<!-- Node1&#45;&gt;Node3 -->
<g id="edge4" class="edge"><title>Node1&#45;&gt;Node3</title>
<path fill="none" stroke="midnightblue" d="M701.897,-147.819C534.082,-145.619 145.34,-136.39 100.5,-98 78.9789,-79.5748 79.2198,-41.9317 80.5565,-25.0385"/>
<polygon fill="midnightblue" stroke="midnightblue" points="701.856,-151.319 711.9,-147.945 701.945,-144.319 701.856,-151.319"/>
</g>
<!-- Node5 -->
<g id="node5" class="node"><title>Node5</title>
<polygon fill="none" stroke="#bfbfbf" points="261,-73 261,-92 424,-92 424,-73 261,-73"/>
<text text-anchor="middle" x="342.5" y="-80" font-family="Helvetica,sans-Serif" font-size="10.00">Framework/test/testReductor.cxx</text>
</g>
<!-- Node1&#45;&gt;Node5 -->
<g id="edge5" class="edge"><title>Node1&#45;&gt;Node5</title>
<path fill="none" stroke="midnightblue" d="M701.724,-137.627C631.577,-127.613 525.005,-112.202 432.5,-98 420.298,-96.1267 407.177,-94.0489 394.829,-92.0651"/>
<polygon fill="midnightblue" stroke="midnightblue" points="701.409,-141.117 711.803,-139.064 702.397,-134.187 701.409,-141.117"/>
</g>
<!-- Node6 -->
<g id="node6" class="node"><title>Node6</title>
<g id="a_node6"><a xlink:href="QualityReductor_8h.html" target="_top" xlink:title="Modules/Common/include\l/Common/QualityReductor.h">
<polygon fill="none" stroke="black" points="442,-67.5 442,-97.5 583,-97.5 583,-67.5 442,-67.5"/>
<text text-anchor="start" x="450" y="-85.5" font-family="Helvetica,sans-Serif" font-size="10.00">Modules/Common/include</text>
<text text-anchor="middle" x="512.5" y="-74.5" font-family="Helvetica,sans-Serif" font-size="10.00">/Common/QualityReductor.h</text>
</a>
</g>
</g>
<!-- Node1&#45;&gt;Node6 -->
<g id="edge6" class="edge"><title>Node1&#45;&gt;Node6</title>
<path fill="none" stroke="midnightblue" d="M711.188,-132.052C667.701,-121.425 611.703,-107.741 570.246,-97.6109"/>
<polygon fill="midnightblue" stroke="midnightblue" points="710.564,-135.502 721.109,-134.476 712.226,-128.702 710.564,-135.502"/>
</g>
<!-- Node8 -->
<g id="node8" class="node"><title>Node8</title>
<g id="a_node8"><a xlink:href="testCommonReductors_8cxx.html" target="_top" xlink:title="Modules/Common/test\l/testCommonReductors.cxx">
<polygon fill="none" stroke="black" points="535.5,-0.5 535.5,-30.5 675.5,-30.5 675.5,-0.5 535.5,-0.5"/>
<text text-anchor="start" x="543.5" y="-18.5" font-family="Helvetica,sans-Serif" font-size="10.00">Modules/Common/test</text>
<text text-anchor="middle" x="605.5" y="-7.5" font-family="Helvetica,sans-Serif" font-size="10.00">/testCommonReductors.cxx</text>
</a>
</g>
</g>
<!-- Node1&#45;&gt;Node8 -->
<g id="edge17" class="edge"><title>Node1&#45;&gt;Node8</title>
<path fill="none" stroke="midnightblue" d="M702.148,-136.955C676.456,-129.618 649.517,-117.62 630.5,-98 612.577,-79.5088 607.469,-48.5031 606.035,-30.5373"/>
<polygon fill="midnightblue" stroke="midnightblue" points="701.352,-140.365 711.915,-139.545 703.146,-133.599 701.352,-140.365"/>
</g>
<!-- Node9 -->
<g id="node9" class="node"><title>Node9</title>
<g id="a_node9"><a xlink:href="TH1Reductor_8h.html" target="_top" xlink:title="Modules/Common/include\l/Common/TH1Reductor.h">
<polygon fill="none" stroke="black" points="639.5,-67.5 639.5,-97.5 769.5,-97.5 769.5,-67.5 639.5,-67.5"/>
<text text-anchor="start" x="647.5" y="-85.5" font-family="Helvetica,sans-Serif" font-size="10.00">Modules/Common/include</text>
<text text-anchor="middle" x="704.5" y="-74.5" font-family="Helvetica,sans-Serif" font-size="10.00">/Common/TH1Reductor.h</text>
</a>
</g>
</g>
<!-- Node1&#45;&gt;Node9 -->
<g id="edge9" class="edge"><title>Node1&#45;&gt;Node9</title>
<path fill="none" stroke="midnightblue" d="M754.704,-127.598C743.53,-117.783 730.507,-106.344 720.526,-97.5765"/>
<polygon fill="midnightblue" stroke="midnightblue" points="752.62,-130.426 762.443,-134.396 757.24,-125.167 752.62,-130.426"/>
</g>
<!-- Node11 -->
<g id="node11" class="node"><title>Node11</title>
<g id="a_node11"><a xlink:href="TH2Reductor_8h.html" target="_top" xlink:title="Modules/Common/include\l/Common/TH2Reductor.h">
<polygon fill="none" stroke="black" points="787.5,-67.5 787.5,-97.5 917.5,-97.5 917.5,-67.5 787.5,-67.5"/>
<text text-anchor="start" x="795.5" y="-85.5" font-family="Helvetica,sans-Serif" font-size="10.00">Modules/Common/include</text>
<text text-anchor="middle" x="852.5" y="-74.5" font-family="Helvetica,sans-Serif" font-size="10.00">/Common/TH2Reductor.h</text>
</a>
</g>
</g>
<!-- Node1&#45;&gt;Node11 -->
<g id="edge12" class="edge"><title>Node1&#45;&gt;Node11</title>
<path fill="none" stroke="midnightblue" d="M802.296,-127.598C813.47,-117.783 826.493,-106.344 836.474,-97.5765"/>
<polygon fill="midnightblue" stroke="midnightblue" points="799.76,-125.167 794.557,-134.396 804.38,-130.426 799.76,-125.167"/>
</g>
<!-- Node13 -->
<g id="node13" class="node"><title>Node13</title>
<g id="a_node13"><a xlink:href="THnSparseReductor_8h.html" target="_top" xlink:title="Modules/Common/include\l/Common/THnSparseReductor.h">
<polygon fill="none" stroke="black" points="935.5,-67.5 935.5,-97.5 1095.5,-97.5 1095.5,-67.5 935.5,-67.5"/>
<text text-anchor="start" x="943.5" y="-85.5" font-family="Helvetica,sans-Serif" font-size="10.00">Modules/Common/include</text>
<text text-anchor="middle" x="1015.5" y="-74.5" font-family="Helvetica,sans-Serif" font-size="10.00">/Common/THnSparseReductor.h</text>
</a>
</g>
</g>
<!-- Node1&#45;&gt;Node13 -->
<g id="edge15" class="edge"><title>Node1&#45;&gt;Node13</title>
<path fill="none" stroke="midnightblue" d="M839.701,-131.715C878.268,-121.137 927.501,-107.635 964.049,-97.6109"/>
<polygon fill="midnightblue" stroke="midnightblue" points="838.352,-128.456 829.634,-134.476 840.203,-135.206 838.352,-128.456"/>
</g>
<!-- Node15 -->
<g id="node15" class="node"><title>Node15</title>
<g id="a_node15"><a xlink:href="DigitOccupancyReductor_8h_source.html" target="_top" xlink:title="Modules/EMCAL/include\l/EMCAL/DigitOccupancyReductor.h">
<polygon fill="none" stroke="black" points="1114,-67.5 1114,-97.5 1289,-97.5 1289,-67.5 1114,-67.5"/>
<text text-anchor="start" x="1122" y="-85.5" font-family="Helvetica,sans-Serif" font-size="10.00">Modules/EMCAL/include</text>
<text text-anchor="middle" x="1201.5" y="-74.5" font-family="Helvetica,sans-Serif" font-size="10.00">/EMCAL/DigitOccupancyReductor.h</text>
</a>
</g>
</g>
<!-- Node1&#45;&gt;Node15 -->
<g id="edge18" class="edge"><title>Node1&#45;&gt;Node15</title>
<path fill="none" stroke="midnightblue" d="M855.084,-136.732C927.902,-125.542 1037.35,-108.724 1113.67,-96.9963"/>
<polygon fill="midnightblue" stroke="midnightblue" points="854.411,-133.294 845.059,-138.272 855.475,-140.213 854.411,-133.294"/>
</g>
<!-- Node17 -->
<g id="node17" class="node"><title>Node17</title>
<g id="a_node17"><a xlink:href="TrendingTaskITS_8h.html" target="_top" xlink:title="Modules/ITS/include\l/ITS/TrendingTaskITS.h">
<polygon fill="none" stroke="black" points="1345.5,-67.5 1345.5,-97.5 1467.5,-97.5 1467.5,-67.5 1345.5,-67.5"/>
<text text-anchor="start" x="1353.5" y="-85.5" font-family="Helvetica,sans-Serif" font-size="10.00">Modules/ITS/include</text>
<text text-anchor="middle" x="1406.5" y="-74.5" font-family="Helvetica,sans-Serif" font-size="10.00">/ITS/TrendingTaskITS.h</text>
</a>
</g>
</g>
<!-- Node1&#45;&gt;Node17 -->
<g id="edge20" class="edge"><title>Node1&#45;&gt;Node17</title>
<path fill="none" stroke="midnightblue" d="M855.208,-143.926C962.237,-136.991 1162.29,-122.022 1331.5,-98 1335.96,-97.3662 1340.57,-96.645 1345.19,-95.8708"/>
<polygon fill="midnightblue" stroke="midnightblue" points="854.9,-140.438 845.145,-144.572 855.349,-147.424 854.9,-140.438"/>
</g>
<!-- Node18 -->
<g id="node18" class="node"><title>Node18</title>
<g id="a_node18"><a xlink:href="TrendingTaskITS_8cxx.html" target="_top" xlink:title="Modules/ITS/src/Trending\lTaskITS.cxx">
<polygon fill="none" stroke="black" points="1309,-0.5 1309,-30.5 1438,-30.5 1438,-0.5 1309,-0.5"/>
<text text-anchor="start" x="1317" y="-18.5" font-family="Helvetica,sans-Serif" font-size="10.00">Modules/ITS/src/Trending</text>
<text text-anchor="middle" x="1373.5" y="-7.5" font-family="Helvetica,sans-Serif" font-size="10.00">TaskITS.cxx</text>
</a>
</g>
</g>
<!-- Node1&#45;&gt;Node18 -->
<g id="edge22" class="edge"><title>Node1&#45;&gt;Node18</title>
<path fill="none" stroke="midnightblue" d="M855.736,-147.619C980.931,-145.097 1221.8,-135.377 1297.5,-98 1313.37,-90.1625 1345.39,-51.8836 1362.36,-30.6899"/>
<polygon fill="midnightblue" stroke="midnightblue" points="855.39,-144.125 845.458,-147.815 855.523,-151.124 855.39,-144.125"/>
</g>
<!-- Node19 -->
<g id="node19" class="node"><title>Node19</title>
<g id="a_node19"><a xlink:href="ROCReductor_8h_source.html" target="_top" xlink:title="Modules/TPC/include\l/TPC/ROCReductor.h">
<polygon fill="none" stroke="black" points="1487,-67.5 1487,-97.5 1600,-97.5 1600,-67.5 1487,-67.5"/>
<text text-anchor="start" x="1495" y="-85.5" font-family="Helvetica,sans-Serif" font-size="10.00">Modules/TPC/include</text>
<text text-anchor="middle" x="1543.5" y="-74.5" font-family="Helvetica,sans-Serif" font-size="10.00">/TPC/ROCReductor.h</text>
</a>
</g>
</g>
<!-- Node1&#45;&gt;Node19 -->
<g id="edge23" class="edge"><title>Node1&#45;&gt;Node19</title>
<path fill="none" stroke="midnightblue" d="M855.412,-146.476C984.406,-142.29 1252.27,-130.212 1476.5,-98 1479.92,-97.5092 1483.42,-96.9436 1486.94,-96.3263"/>
<polygon fill="midnightblue" stroke="midnightblue" points="855.125,-142.983 845.241,-146.799 855.347,-149.979 855.125,-142.983"/>
</g>
<!-- Node2&#45;&gt;Node3 -->
<g id="edge2" class="edge"><title>Node2&#45;&gt;Node3</title>
<path fill="none" stroke="midnightblue" d="M147.475,-61.6409C129.547,-49.3742 107.459,-34.2613 93.9333,-25.007"/>
<polygon fill="midnightblue" stroke="midnightblue" points="145.657,-64.6377 155.886,-67.396 149.61,-58.8605 145.657,-64.6377"/>
</g>
<!-- Node4 -->
<g id="node4" class="node"><title>Node4</title>
<g id="a_node4"><a xlink:href="testTrendingTask_8cxx.html" target="_top" xlink:title="Framework/test/testTrending\lTask.cxx">
<polygon fill="none" stroke="black" points="181.5,-0.5 181.5,-30.5 323.5,-30.5 323.5,-0.5 181.5,-0.5"/>
<text text-anchor="start" x="189.5" y="-18.5" font-family="Helvetica,sans-Serif" font-size="10.00">Framework/test/testTrending</text>
<text text-anchor="middle" x="252.5" y="-7.5" font-family="Helvetica,sans-Serif" font-size="10.00">Task.cxx</text>
</a>
</g>
</g>
<!-- Node2&#45;&gt;Node4 -->
<g id="edge3" class="edge"><title>Node2&#45;&gt;Node4</title>
<path fill="none" stroke="midnightblue" d="M200.606,-60.8832C212.155,-51.0054 225.69,-39.4293 236.041,-30.5765"/>
<polygon fill="midnightblue" stroke="midnightblue" points="198.316,-58.2364 192.991,-67.396 202.865,-63.5561 198.316,-58.2364"/>
</g>
<!-- Node7 -->
<g id="node7" class="node"><title>Node7</title>
<g id="a_node7"><a xlink:href="QualityReductor_8cxx.html" target="_top" xlink:title="Modules/Common/src\l/QualityReductor.cxx">
<polygon fill="none" stroke="black" points="404,-0.5 404,-30.5 517,-30.5 517,-0.5 404,-0.5"/>
<text text-anchor="start" x="412" y="-18.5" font-family="Helvetica,sans-Serif" font-size="10.00">Modules/Common/src</text>
<text text-anchor="middle" x="460.5" y="-7.5" font-family="Helvetica,sans-Serif" font-size="10.00">/QualityReductor.cxx</text>
</a>
</g>
</g>
<!-- Node6&#45;&gt;Node7 -->
<g id="edge7" class="edge"><title>Node6&#45;&gt;Node7</title>
<path fill="none" stroke="midnightblue" d="M494.858,-59.4472C487.219,-49.8986 478.503,-39.0037 471.761,-30.5765"/>
<polygon fill="midnightblue" stroke="midnightblue" points="492.237,-61.7737 501.217,-67.396 497.703,-57.4008 492.237,-61.7737"/>
</g>
<!-- Node6&#45;&gt;Node8 -->
<g id="edge8" class="edge"><title>Node6&#45;&gt;Node8</title>
<path fill="none" stroke="midnightblue" d="M541.185,-61.4511C555.492,-51.4517 572.45,-39.5995 585.36,-30.5765"/>
<polygon fill="midnightblue" stroke="midnightblue" points="538.871,-58.7985 532.68,-67.396 542.881,-64.536 538.871,-58.7985"/>
</g>
<!-- Node9&#45;&gt;Node8 -->
<g id="edge11" class="edge"><title>Node9&#45;&gt;Node8</title>
<path fill="none" stroke="midnightblue" d="M674.394,-61.7337C659.075,-51.6755 640.812,-39.6847 626.94,-30.5765"/>
<polygon fill="midnightblue" stroke="midnightblue" points="672.738,-64.8333 683.018,-67.396 676.58,-58.9818 672.738,-64.8333"/>
</g>
<!-- Node10 -->
<g id="node10" class="node"><title>Node10</title>
<g id="a_node10"><a xlink:href="TH1Reductor_8cxx.html" target="_top" xlink:title="Modules/Common/src\l/TH1Reductor.cxx">
<polygon fill="none" stroke="black" points="694,-0.5 694,-30.5 807,-30.5 807,-0.5 694,-0.5"/>
<text text-anchor="start" x="702" y="-18.5" font-family="Helvetica,sans-Serif" font-size="10.00">Modules/Common/src</text>
<text text-anchor="middle" x="750.5" y="-7.5" font-family="Helvetica,sans-Serif" font-size="10.00">/TH1Reductor.cxx</text>
</a>
</g>
</g>
<!-- Node9&#45;&gt;Node10 -->
<g id="edge10" class="edge"><title>Node9&#45;&gt;Node10</title>
<path fill="none" stroke="midnightblue" d="M720.312,-59.1575C727.02,-49.6788 734.635,-38.9186 740.538,-30.5765"/>
<polygon fill="midnightblue" stroke="midnightblue" points="717.401,-57.2114 714.481,-67.396 723.115,-61.2551 717.401,-57.2114"/>
</g>
<!-- Node11&#45;&gt;Node8 -->
<g id="edge14" class="edge"><title>Node11&#45;&gt;Node8</title>
<path fill="none" stroke="midnightblue" d="M789.485,-64.9171C749.177,-54.3099 697.455,-40.6988 659.121,-30.6109"/>
<polygon fill="midnightblue" stroke="midnightblue" points="788.647,-68.3157 799.209,-67.476 790.429,-61.5462 788.647,-68.3157"/>
</g>
<!-- Node12 -->
<g id="node12" class="node"><title>Node12</title>
<g id="a_node12"><a xlink:href="TH2Reductor_8cxx.html" target="_top" xlink:title="Modules/Common/src\l/TH2Reductor.cxx">
<polygon fill="none" stroke="black" points="825,-0.5 825,-30.5 938,-30.5 938,-0.5 825,-0.5"/>
<text text-anchor="start" x="833" y="-18.5" font-family="Helvetica,sans-Serif" font-size="10.00">Modules/Common/src</text>
<text text-anchor="middle" x="881.5" y="-7.5" font-family="Helvetica,sans-Serif" font-size="10.00">/TH2Reductor.cxx</text>
</a>
</g>
</g>
<!-- Node11&#45;&gt;Node12 -->
<g id="edge13" class="edge"><title>Node11&#45;&gt;Node12</title>
<path fill="none" stroke="midnightblue" d="M862.989,-57.9907C867.087,-48.8044 871.65,-38.5781 875.22,-30.5765"/>
<polygon fill="midnightblue" stroke="midnightblue" points="859.671,-56.8376 858.793,-67.396 866.063,-59.6897 859.671,-56.8376"/>
</g>
<!-- Node14 -->
<g id="node14" class="node"><title>Node14</title>
<g id="a_node14"><a xlink:href="THnSparseReductor_8cxx.html" target="_top" xlink:title="Modules/Common/src\l/THnSparseReductor.cxx">
<polygon fill="none" stroke="black" points="956.5,-0.5 956.5,-30.5 1084.5,-30.5 1084.5,-0.5 956.5,-0.5"/>
<text text-anchor="start" x="964.5" y="-18.5" font-family="Helvetica,sans-Serif" font-size="10.00">Modules/Common/src</text>
<text text-anchor="middle" x="1020.5" y="-7.5" font-family="Helvetica,sans-Serif" font-size="10.00">/THnSparseReductor.cxx</text>
</a>
</g>
</g>
<!-- Node13&#45;&gt;Node14 -->
<g id="edge16" class="edge"><title>Node13&#45;&gt;Node14</title>
<path fill="none" stroke="midnightblue" d="M1017.35,-57.4029C1018.05,-48.3703 1018.81,-38.4078 1019.42,-30.5765"/>
<polygon fill="midnightblue" stroke="midnightblue" points="1013.86,-57.157 1016.58,-67.396 1020.84,-57.6939 1013.86,-57.157"/>
</g>
<!-- Node16 -->
<g id="node16" class="node"><title>Node16</title>
<polygon fill="none" stroke="#bfbfbf" points="1110.5,-0.5 1110.5,-30.5 1290.5,-30.5 1290.5,-0.5 1110.5,-0.5"/>
<text text-anchor="start" x="1118.5" y="-18.5" font-family="Helvetica,sans-Serif" font-size="10.00">Modules/EMCAL/src/DigitOccupancy</text>
<text text-anchor="middle" x="1200.5" y="-7.5" font-family="Helvetica,sans-Serif" font-size="10.00">Reductor.cxx</text>
</g>
<!-- Node15&#45;&gt;Node16 -->
<g id="edge19" class="edge"><title>Node15&#45;&gt;Node16</title>
<path fill="none" stroke="midnightblue" d="M1201.12,-57.1081C1200.99,-48.1539 1200.84,-38.3227 1200.72,-30.5765"/>
<polygon fill="midnightblue" stroke="midnightblue" points="1197.63,-57.451 1201.28,-67.396 1204.63,-57.3433 1197.63,-57.451"/>
</g>
<!-- Node17&#45;&gt;Node18 -->
<g id="edge21" class="edge"><title>Node17&#45;&gt;Node18</title>
<path fill="none" stroke="midnightblue" d="M1394.71,-58.2835C1390.01,-49.0223 1384.75,-38.6632 1380.65,-30.5765"/>
<polygon fill="midnightblue" stroke="midnightblue" points="1391.69,-60.0637 1399.34,-67.396 1397.93,-56.8948 1391.69,-60.0637"/>
</g>
<!-- Node20 -->
<g id="node20" class="node"><title>Node20</title>
<polygon fill="none" stroke="#bfbfbf" points="1456,-6 1456,-25 1633,-25 1633,-6 1456,-6"/>
<text text-anchor="middle" x="1544.5" y="-13" font-family="Helvetica,sans-Serif" font-size="10.00">Modules/TPC/src/ROCReductor.cxx</text>
</g>
<!-- Node19&#45;&gt;Node20 -->
<g id="edge24" class="edge"><title>Node19&#45;&gt;Node20</title>
<path fill="none" stroke="midnightblue" d="M1543.87,-57.2495C1544.05,-46.017 1544.24,-33.3767 1544.37,-25.1945"/>
<polygon fill="midnightblue" stroke="midnightblue" points="1540.37,-57.3433 1543.72,-67.396 1547.37,-57.451 1540.37,-57.3433"/>
</g>
</g>
</svg>
