<?xml version="1.0" encoding="UTF-8" standalone="no"?>
<!DOCTYPE svg PUBLIC "-//W3C//DTD SVG 1.1//EN"
 "http://www.w3.org/Graphics/SVG/1.1/DTD/svg11.dtd">
<!-- Generated by graphviz version 2.38.0 (20140413.2041)
 -->
<!-- Title: Framework/src/RepositoryBenchmark.cxx Pages: 1 -->
<!--zoomable 319 -->
<svg id="main" version="1.1" xmlns="http://www.w3.org/2000/svg" xmlns:xlink="http://www.w3.org/1999/xlink" xml:space="preserve" onload="init(evt)">
<style type="text/css"><![CDATA[
.edge:hover path { stroke: red; }
.edge:hover polygon { stroke: red; fill: red; }
]]></style>
<script type="text/javascript"><![CDATA[
var edges = document.getElementsByTagName('g');
if (edges && edges.length) {
  for (var i=0;i<edges.length;i++) {
    if (edges[i].id.substr(0,4)=='edge') {
      edges[i].setAttribute('class','edge');
    }
  }
}
]]></script>
        <defs>
                <circle id="rim" cx="0" cy="0" r="7"/>
                <circle id="rim2" cx="0" cy="0" r="3.5"/>
                <g id="zoomPlus">
                        <use xlink:href="#rim" fill="#404040">
                                <set attributeName="fill" to="#808080" begin="zoomplus.mouseover" end="zoomplus.mouseout"/>
                        </use>
                        <path d="M-4,0h8M0,-4v8" fill="none" stroke="white" stroke-width="1.5" pointer-events="none"/>
                </g>
                <g id="zoomMin">
                        <use xlink:href="#rim" fill="#404040">
                                <set attributeName="fill" to="#808080" begin="zoomminus.mouseover" end="zoomminus.mouseout"/>
                        </use>
                        <path d="M-4,0h8" fill="none" stroke="white" stroke-width="1.5" pointer-events="none"/>
                </g>
                <g id="dirArrow">
                        <path fill="none" stroke="white" stroke-width="1.5" d="M0,-3.0v7 M-2.5,-0.5L0,-3.0L2.5,-0.5"/>
                </g>
               <g id="resetDef">
                       <use xlink:href="#rim2" fill="#404040">
                               <set attributeName="fill" to="#808080" begin="reset.mouseover" end="reset.mouseout"/>
                       </use>
               </g>
        </defs>

<script type="text/javascript">
var viewWidth = 1181;
var viewHeight = 319;
var sectionId = 'dynsection-0';
</script>
<script xlink:href="svgpan.js"/>
<svg id="graph" class="graph">
<g id="viewport">
<title>Framework/src/RepositoryBenchmark.cxx</title>
<!-- Node1 -->
<g id="node1" class="node"><title>Node1</title>
<polygon fill="#bfbfbf" stroke="black" points="433,-280.5 433,-310.5 565,-310.5 565,-280.5 433,-280.5"/>
<text text-anchor="start" x="441" y="-298.5" font-family="Helvetica,sans-Serif" font-size="10.00">Framework/src/Repository</text>
<text text-anchor="middle" x="499" y="-287.5" font-family="Helvetica,sans-Serif" font-size="10.00">Benchmark.cxx</text>
</g>
<!-- Node2 -->
<g id="node2" class="node"><title>Node2</title>
<g id="a_node2"><a xlink:href="RepositoryBenchmark_8h.html" target="_top" xlink:title="RepositoryBenchmark.h">
<polygon fill="none" stroke="black" points="232,-224.5 232,-243.5 354,-243.5 354,-224.5 232,-224.5"/>
<text text-anchor="middle" x="293" y="-231.5" font-family="Helvetica,sans-Serif" font-size="10.00">RepositoryBenchmark.h</text>
</a>
</g>
</g>
<!-- Node1&#45;&gt;Node2 -->
<g id="edge1" class="edge"><title>Node1&#45;&gt;Node2</title>
<path fill="none" stroke="midnightblue" d="M450.442,-280.475C414.437,-270.075 365.977,-256.078 332.372,-246.372"/>
<polygon fill="midnightblue" stroke="midnightblue" points="333.029,-242.919 322.451,-243.506 331.087,-249.644 333.029,-242.919"/>
</g>
<!-- Node11 -->
<g id="node11" class="node"><title>Node11</title>
<polygon fill="none" stroke="#bfbfbf" points="0,-56.5 0,-75.5 116,-75.5 116,-56.5 0,-56.5"/>
<text text-anchor="middle" x="58" y="-63.5" font-family="Helvetica,sans-Serif" font-size="10.00">Common/Exceptions.h</text>
</g>
<!-- Node1&#45;&gt;Node11 -->
<g id="edge32" class="edge"><title>Node1&#45;&gt;Node11</title>
<path fill="none" stroke="midnightblue" d="M432.642,-289.757C314.646,-279.759 76.17,-251.95 28,-188 4.44514,-156.729 29.1569,-109.236 45.6852,-84.0599"/>
<polygon fill="midnightblue" stroke="midnightblue" points="48.7293,-85.8096 51.5014,-75.5839 42.9575,-81.849 48.7293,-85.8096"/>
</g>
<!-- Node19 -->
<g id="node19" class="node"><title>Node19</title>
<polygon fill="none" stroke="#bfbfbf" points="541,-168.5 541,-187.5 585,-187.5 585,-168.5 541,-168.5"/>
<text text-anchor="middle" x="563" y="-175.5" font-family="Helvetica,sans-Serif" font-size="10.00">thread</text>
</g>
<!-- Node1&#45;&gt;Node19 -->
<g id="edge28" class="edge"><title>Node1&#45;&gt;Node19</title>
<path fill="none" stroke="midnightblue" d="M450.69,-280.381C417.437,-268.133 382.356,-248.529 401,-224 403.012,-221.353 484.236,-199.675 530.889,-187.4"/>
<polygon fill="midnightblue" stroke="midnightblue" points="532.048,-190.714 540.831,-184.788 530.27,-183.943 532.048,-190.714"/>
</g>
<!-- Node20 -->
<g id="node20" class="node"><title>Node20</title>
<polygon fill="none" stroke="#bfbfbf" points="410,-224.5 410,-243.5 456,-243.5 456,-224.5 410,-224.5"/>
<text text-anchor="middle" x="433" y="-231.5" font-family="Helvetica,sans-Serif" font-size="10.00">chrono</text>
</g>
<!-- Node1&#45;&gt;Node20 -->
<g id="edge27" class="edge"><title>Node1&#45;&gt;Node20</title>
<path fill="none" stroke="midnightblue" d="M483.359,-280.399C473.373,-271.397 460.422,-259.721 450.155,-250.465"/>
<polygon fill="midnightblue" stroke="midnightblue" points="452.375,-247.754 442.604,-243.658 447.687,-252.953 452.375,-247.754"/>
</g>
<!-- Node21 -->
<g id="node21" class="node"><title>Node21</title>
<polygon fill="none" stroke="#bfbfbf" points="474,-224.5 474,-243.5 524,-243.5 524,-224.5 474,-224.5"/>
<text text-anchor="middle" x="499" y="-231.5" font-family="Helvetica,sans-Serif" font-size="10.00">TH2F.h</text>
</g>
<!-- Node1&#45;&gt;Node21 -->
<g id="edge29" class="edge"><title>Node1&#45;&gt;Node21</title>
<path fill="none" stroke="midnightblue" d="M499,-280.399C499,-272.466 499,-262.458 499,-253.858"/>
<polygon fill="midnightblue" stroke="midnightblue" points="502.5,-253.658 499,-243.658 495.5,-253.658 502.5,-253.658"/>
</g>
<!-- Node22 -->
<g id="node22" class="node"><title>Node22</title>
<polygon fill="none" stroke="#bfbfbf" points="542,-224.5 542,-243.5 658,-243.5 658,-224.5 542,-224.5"/>
<text text-anchor="middle" x="600" y="-231.5" font-family="Helvetica,sans-Serif" font-size="10.00">fairmq/FairMQLogger.h</text>
</g>
<!-- Node1&#45;&gt;Node22 -->
<g id="edge30" class="edge"><title>Node1&#45;&gt;Node22</title>
<path fill="none" stroke="midnightblue" d="M522.936,-280.399C539.125,-270.862 560.407,-258.325 576.503,-248.842"/>
<polygon fill="midnightblue" stroke="midnightblue" points="578.464,-251.749 585.304,-243.658 574.911,-245.718 578.464,-251.749"/>
</g>
<!-- Node23 -->
<g id="node23" class="node"><title>Node23</title>
<polygon fill="none" stroke="#bfbfbf" points="676,-224.5 676,-243.5 822,-243.5 822,-224.5 676,-224.5"/>
<text text-anchor="middle" x="749" y="-231.5" font-family="Helvetica,sans-Serif" font-size="10.00">options/FairMQProgOptions.h</text>
</g>
<!-- Node1&#45;&gt;Node23 -->
<g id="edge31" class="edge"><title>Node1&#45;&gt;Node23</title>
<path fill="none" stroke="midnightblue" d="M557.93,-280.475C602.378,-269.896 662.468,-255.595 703.311,-245.874"/>
<polygon fill="midnightblue" stroke="midnightblue" points="704.341,-249.227 713.259,-243.506 702.72,-242.417 704.341,-249.227"/>
</g>
<!-- Node24 -->
<g id="node24" class="node"><title>Node24</title>
<g id="a_node24"><a xlink:href="DatabaseFactory_8h.html" target="_top" xlink:title="QualityControl/DatabaseFactory.h">
<polygon fill="none" stroke="black" points="840.5,-224.5 840.5,-243.5 1005.5,-243.5 1005.5,-224.5 840.5,-224.5"/>
<text text-anchor="middle" x="923" y="-231.5" font-family="Helvetica,sans-Serif" font-size="10.00">QualityControl/DatabaseFactory.h</text>
</a>
</g>
</g>
<!-- Node1&#45;&gt;Node24 -->
<g id="edge33" class="edge"><title>Node1&#45;&gt;Node24</title>
<path fill="none" stroke="midnightblue" d="M565.25,-285.203C643.313,-274.248 772.478,-256.123 852.389,-244.909"/>
<polygon fill="midnightblue" stroke="midnightblue" points="852.947,-248.365 862.364,-243.509 851.974,-241.433 852.947,-248.365"/>
</g>
<!-- Node25 -->
<g id="node25" class="node"><title>Node25</title>
<g id="a_node25"><a xlink:href="QcInfoLogger_8h.html" target="_top" xlink:title="QualityControl/QcInfoLogger.h">
<polygon fill="none" stroke="black" points="1023.5,-224.5 1023.5,-243.5 1172.5,-243.5 1172.5,-224.5 1023.5,-224.5"/>
<text text-anchor="middle" x="1098" y="-231.5" font-family="Helvetica,sans-Serif" font-size="10.00">QualityControl/QcInfoLogger.h</text>
</a>
</g>
</g>
<!-- Node1&#45;&gt;Node25 -->
<g id="edge36" class="edge"><title>Node1&#45;&gt;Node25</title>
<path fill="none" stroke="midnightblue" d="M565.276,-288.193C661.437,-279 845.542,-261.238 1013.34,-244.059"/>
<polygon fill="midnightblue" stroke="midnightblue" points="1013.76,-247.535 1023.35,-243.034 1013.04,-240.572 1013.76,-247.535"/>
</g>
<!-- Node3 -->
<g id="node3" class="node"><title>Node3</title>
<g id="a_node3"><a xlink:href="DatabaseInterface_8h.html" target="_top" xlink:title="QualityControl/DatabaseInterface.h">
<polygon fill="none" stroke="black" points="603,-168.5 603,-187.5 773,-187.5 773,-168.5 603,-168.5"/>
<text text-anchor="middle" x="688" y="-175.5" font-family="Helvetica,sans-Serif" font-size="10.00">QualityControl/DatabaseInterface.h</text>
</a>
</g>
</g>
<!-- Node2&#45;&gt;Node3 -->
<g id="edge2" class="edge"><title>Node2&#45;&gt;Node3</title>
<path fill="none" stroke="midnightblue" d="M354.285,-224.622C424.756,-214.988 540.337,-199.187 615.294,-188.94"/>
<polygon fill="midnightblue" stroke="midnightblue" points="616.158,-192.354 625.592,-187.532 615.21,-185.419 616.158,-192.354"/>
</g>
<!-- Node4 -->
<g id="node4" class="node"><title>Node4</title>
<polygon fill="none" stroke="#bfbfbf" points="473.5,-0.5 473.5,-19.5 514.5,-19.5 514.5,-0.5 473.5,-0.5"/>
<text text-anchor="middle" x="494" y="-7.5" font-family="Helvetica,sans-Serif" font-size="10.00">string</text>
</g>
<!-- Node2&#45;&gt;Node4 -->
<g id="edge26" class="edge"><title>Node2&#45;&gt;Node4</title>
<path fill="none" stroke="midnightblue" d="M354.007,-227.519C406.262,-221.415 475.736,-209.455 493,-188 530.2,-141.769 511.849,-64.5739 500.585,-29.4318"/>
<polygon fill="midnightblue" stroke="midnightblue" points="503.777,-27.9434 497.257,-19.5922 497.146,-30.1865 503.777,-27.9434"/>
</g>
<!-- Node15 -->
<g id="node15" class="node"><title>Node15</title>
<polygon fill="none" stroke="#bfbfbf" points="135,-168.5 135,-187.5 253,-187.5 253,-168.5 135,-168.5"/>
<text text-anchor="middle" x="194" y="-175.5" font-family="Helvetica,sans-Serif" font-size="10.00">fairmq/FairMQDevice.h</text>
</g>
<!-- Node2&#45;&gt;Node15 -->
<g id="edge21" class="edge"><title>Node2&#45;&gt;Node15</title>
<path fill="none" stroke="midnightblue" d="M277.094,-224.324C261.362,-215.743 237.058,-202.486 218.791,-192.522"/>
<polygon fill="midnightblue" stroke="midnightblue" points="220.322,-189.37 209.867,-187.655 216.97,-195.516 220.322,-189.37"/>
</g>
<!-- Node16 -->
<g id="node16" class="node"><title>Node16</title>
<polygon fill="none" stroke="#bfbfbf" points="271,-168.5 271,-187.5 315,-187.5 315,-168.5 271,-168.5"/>
<text text-anchor="middle" x="293" y="-175.5" font-family="Helvetica,sans-Serif" font-size="10.00">TH1.h</text>
</g>
<!-- Node2&#45;&gt;Node16 -->
<g id="edge22" class="edge"><title>Node2&#45;&gt;Node16</title>
<path fill="none" stroke="midnightblue" d="M293,-224.083C293,-217.006 293,-206.861 293,-197.986"/>
<polygon fill="midnightblue" stroke="midnightblue" points="296.5,-197.751 293,-187.751 289.5,-197.751 296.5,-197.751"/>
</g>
<!-- Node17 -->
<g id="node17" class="node"><title>Node17</title>
<polygon fill="none" stroke="#bfbfbf" points="333.5,-168.5 333.5,-187.5 484.5,-187.5 484.5,-168.5 333.5,-168.5"/>
<text text-anchor="middle" x="409" y="-175.5" font-family="Helvetica,sans-Serif" font-size="10.00">Monitoring/MonitoringFactory.h</text>
</g>
<!-- Node2&#45;&gt;Node17 -->
<g id="edge23" class="edge"><title>Node2&#45;&gt;Node17</title>
<path fill="none" stroke="midnightblue" d="M311.381,-224.444C330.216,-215.675 359.731,-201.935 381.379,-191.858"/>
<polygon fill="midnightblue" stroke="midnightblue" points="383.117,-194.91 390.705,-187.516 380.162,-188.564 383.117,-194.91"/>
</g>
<!-- Node18 -->
<g id="node18" class="node"><title>Node18</title>
<polygon fill="none" stroke="#bfbfbf" points="37,-168.5 37,-187.5 117,-187.5 117,-168.5 37,-168.5"/>
<text text-anchor="middle" x="77" y="-175.5" font-family="Helvetica,sans-Serif" font-size="10.00">boost/asio.hpp</text>
</g>
<!-- Node2&#45;&gt;Node18 -->
<g id="edge24" class="edge"><title>Node2&#45;&gt;Node18</title>
<path fill="none" stroke="midnightblue" d="M258.774,-224.444C221.488,-215.122 161.731,-200.183 120.989,-189.997"/>
<polygon fill="midnightblue" stroke="midnightblue" points="121.616,-186.546 111.066,-187.516 119.918,-193.337 121.616,-186.546"/>
</g>
<!-- Node2&#45;&gt;Node19 -->
<g id="edge25" class="edge"><title>Node2&#45;&gt;Node19</title>
<path fill="none" stroke="midnightblue" d="M341.561,-224.466C388.999,-215.94 463.176,-202.104 527,-188 528.274,-187.719 529.571,-187.425 530.881,-187.124"/>
<polygon fill="midnightblue" stroke="midnightblue" points="532.049,-190.443 540.961,-184.714 530.421,-183.635 532.049,-190.443"/>
</g>
<!-- Node3&#45;&gt;Node4 -->
<g id="edge3" class="edge"><title>Node3&#45;&gt;Node4</title>
<path fill="none" stroke="midnightblue" d="M670.57,-168.373C654.604,-160.088 630.684,-146.69 612,-132 570.113,-99.0681 528.277,-51.9738 507.496,-27.3787"/>
<polygon fill="midnightblue" stroke="midnightblue" points="510.157,-25.1049 501.058,-19.6776 504.786,-29.5946 510.157,-25.1049"/>
</g>
<!-- Node5 -->
<g id="node5" class="node"><title>Node5</title>
<polygon fill="none" stroke="#bfbfbf" points="859,-112.5 859,-131.5 911,-131.5 911,-112.5 859,-112.5"/>
<text text-anchor="middle" x="885" y="-119.5" font-family="Helvetica,sans-Serif" font-size="10.00">memory</text>
</g>
<!-- Node3&#45;&gt;Node5 -->
<g id="edge4" class="edge"><title>Node3&#45;&gt;Node5</title>
<path fill="none" stroke="midnightblue" d="M719.215,-168.444C754.52,-158.766 811.914,-143.034 849.059,-132.852"/>
<polygon fill="midnightblue" stroke="midnightblue" points="850.245,-136.156 858.964,-130.137 848.394,-129.405 850.245,-136.156"/>
</g>
<!-- Node6 -->
<g id="node6" class="node"><title>Node6</title>
<polygon fill="none" stroke="#bfbfbf" points="621,-112.5 621,-131.5 665,-131.5 665,-112.5 621,-112.5"/>
<text text-anchor="middle" x="643" y="-119.5" font-family="Helvetica,sans-Serif" font-size="10.00">vector</text>
</g>
<!-- Node3&#45;&gt;Node6 -->
<g id="edge5" class="edge"><title>Node3&#45;&gt;Node6</title>
<path fill="none" stroke="midnightblue" d="M680.569,-168.083C674.147,-160.377 664.694,-149.033 656.878,-139.653"/>
<polygon fill="midnightblue" stroke="midnightblue" points="659.383,-137.193 650.293,-131.751 654.006,-141.674 659.383,-137.193"/>
</g>
<!-- Node7 -->
<g id="node7" class="node"><title>Node7</title>
<polygon fill="none" stroke="#bfbfbf" points="683.5,-112.5 683.5,-131.5 766.5,-131.5 766.5,-112.5 683.5,-112.5"/>
<text text-anchor="middle" x="725" y="-119.5" font-family="Helvetica,sans-Serif" font-size="10.00">unordered_map</text>
</g>
<!-- Node3&#45;&gt;Node7 -->
<g id="edge6" class="edge"><title>Node3&#45;&gt;Node7</title>
<path fill="none" stroke="midnightblue" d="M694.11,-168.083C699.282,-160.534 706.846,-149.495 713.194,-140.23"/>
<polygon fill="midnightblue" stroke="midnightblue" points="716.239,-141.979 719.004,-131.751 710.464,-138.022 716.239,-141.979"/>
</g>
<!-- Node8 -->
<g id="node8" class="node"><title>Node8</title>
<g id="a_node8"><a xlink:href="QualityObject_8h_source.html" target="_top" xlink:title="QualityControl/QualityObject.h">
<polygon fill="none" stroke="black" points="166.5,-112.5 166.5,-131.5 315.5,-131.5 315.5,-112.5 166.5,-112.5"/>
<text text-anchor="middle" x="241" y="-119.5" font-family="Helvetica,sans-Serif" font-size="10.00">QualityControl/QualityObject.h</text>
</a>
</g>
</g>
<!-- Node3&#45;&gt;Node8 -->
<g id="edge7" class="edge"><title>Node3&#45;&gt;Node8</title>
<path fill="none" stroke="midnightblue" d="M617.172,-168.444C536.741,-158.727 405.783,-142.907 321.533,-132.729"/>
<polygon fill="midnightblue" stroke="midnightblue" points="321.845,-129.241 311.497,-131.516 321.005,-136.191 321.845,-129.241"/>
</g>
<!-- Node14 -->
<g id="node14" class="node"><title>Node14</title>
<g id="a_node14"><a xlink:href="MonitorObject_8h.html" target="_top" xlink:title="QualityControl/MonitorObject.h">
<polygon fill="none" stroke="black" points="333.5,-112.5 333.5,-131.5 484.5,-131.5 484.5,-112.5 333.5,-112.5"/>
<text text-anchor="middle" x="409" y="-119.5" font-family="Helvetica,sans-Serif" font-size="10.00">QualityControl/MonitorObject.h</text>
</a>
</g>
</g>
<!-- Node3&#45;&gt;Node14 -->
<g id="edge15" class="edge"><title>Node3&#45;&gt;Node14</title>
<path fill="none" stroke="midnightblue" d="M643.792,-168.444C594.713,-158.944 515.49,-143.611 462.836,-133.42"/>
<polygon fill="midnightblue" stroke="midnightblue" points="463.484,-129.98 453.002,-131.516 462.154,-136.853 463.484,-129.98"/>
</g>
<!-- Node9 -->
<g id="node9" class="node"><title>Node9</title>
<polygon fill="none" stroke="#bfbfbf" points="164.5,-0.5 164.5,-19.5 199.5,-19.5 199.5,-0.5 164.5,-0.5"/>
<text text-anchor="middle" x="182" y="-7.5" font-family="Helvetica,sans-Serif" font-size="10.00">map</text>
</g>
<!-- Node8&#45;&gt;Node9 -->
<g id="edge8" class="edge"><title>Node8&#45;&gt;Node9</title>
<path fill="none" stroke="midnightblue" d="M214.789,-112.414C198.15,-105.445 177.943,-93.8092 168,-76 159.839,-61.3822 165.418,-42.4651 171.789,-28.8118"/>
<polygon fill="midnightblue" stroke="midnightblue" points="175.093,-30.0426 176.6,-19.5554 168.882,-26.8143 175.093,-30.0426"/>
</g>
<!-- Node10 -->
<g id="node10" class="node"><title>Node10</title>
<polygon fill="none" stroke="#bfbfbf" points="349.5,-56.5 349.5,-75.5 408.5,-75.5 408.5,-56.5 349.5,-56.5"/>
<text text-anchor="middle" x="379" y="-63.5" font-family="Helvetica,sans-Serif" font-size="10.00">TObject.h</text>
</g>
<!-- Node8&#45;&gt;Node10 -->
<g id="edge9" class="edge"><title>Node8&#45;&gt;Node10</title>
<path fill="none" stroke="midnightblue" d="M262.867,-112.444C285.779,-103.478 321.975,-89.314 347.866,-79.1827"/>
<polygon fill="midnightblue" stroke="midnightblue" points="349.199,-82.4198 357.236,-75.5164 346.648,-75.9011 349.199,-82.4198"/>
</g>
<!-- Node8&#45;&gt;Node11 -->
<g id="edge10" class="edge"><title>Node8&#45;&gt;Node11</title>
<path fill="none" stroke="midnightblue" d="M212.003,-112.444C180.815,-103.241 131.07,-88.5617 96.5925,-78.3879"/>
<polygon fill="midnightblue" stroke="midnightblue" points="97.443,-74.9898 86.8612,-75.5164 95.4618,-81.7036 97.443,-74.9898"/>
</g>
<!-- Node12 -->
<g id="node12" class="node"><title>Node12</title>
<g id="a_node12"><a xlink:href="Quality_8h.html" target="_top" xlink:title="QualityControl/Quality.h">
<polygon fill="none" stroke="black" points="210.5,-56.5 210.5,-75.5 331.5,-75.5 331.5,-56.5 210.5,-56.5"/>
<text text-anchor="middle" x="271" y="-63.5" font-family="Helvetica,sans-Serif" font-size="10.00">QualityControl/Quality.h</text>
</a>
</g>
</g>
<!-- Node8&#45;&gt;Node12 -->
<g id="edge11" class="edge"><title>Node8&#45;&gt;Node12</title>
<path fill="none" stroke="midnightblue" d="M245.954,-112.083C250.104,-104.613 256.153,-93.7244 261.267,-84.5199"/>
<polygon fill="midnightblue" stroke="midnightblue" points="264.341,-86.1924 266.138,-75.7511 258.222,-82.7929 264.341,-86.1924"/>
</g>
<!-- Node12&#45;&gt;Node4 -->
<g id="edge13" class="edge"><title>Node12&#45;&gt;Node4</title>
<path fill="none" stroke="midnightblue" d="M306.335,-56.4435C349.606,-45.9655 422.191,-28.3888 463.255,-18.445"/>
<polygon fill="midnightblue" stroke="midnightblue" points="464.326,-21.7868 473.222,-16.0315 462.679,-14.9834 464.326,-21.7868"/>
</g>
<!-- Node12&#45;&gt;Node9 -->
<g id="edge14" class="edge"><title>Node12&#45;&gt;Node9</title>
<path fill="none" stroke="midnightblue" d="M256.701,-56.324C242.817,-47.9002 221.508,-34.9709 205.196,-25.0741"/>
<polygon fill="midnightblue" stroke="midnightblue" points="206.629,-21.8495 196.264,-19.6545 202.998,-27.8341 206.629,-21.8495"/>
</g>
<!-- Node13 -->
<g id="node13" class="node"><title>Node13</title>
<polygon fill="none" stroke="#bfbfbf" points="321,-0.5 321,-19.5 377,-19.5 377,-0.5 321,-0.5"/>
<text text-anchor="middle" x="349" y="-7.5" font-family="Helvetica,sans-Serif" font-size="10.00">Rtypes.h</text>
</g>
<!-- Node12&#45;&gt;Node13 -->
<g id="edge12" class="edge"><title>Node12&#45;&gt;Node13</title>
<path fill="none" stroke="midnightblue" d="M283.532,-56.324C295.586,-47.979 314.027,-35.2122 328.269,-25.3524"/>
<polygon fill="midnightblue" stroke="midnightblue" points="330.269,-28.2243 336.499,-19.6545 326.285,-22.469 330.269,-28.2243"/>
</g>
<!-- Node14&#45;&gt;Node4 -->
<g id="edge16" class="edge"><title>Node14&#45;&gt;Node4</title>
<path fill="none" stroke="midnightblue" d="M415.67,-112.368C429.759,-94.135 462.762,-51.4257 481.115,-27.6752"/>
<polygon fill="midnightblue" stroke="midnightblue" points="484.016,-29.6444 487.361,-19.5914 478.477,-25.3642 484.016,-29.6444"/>
</g>
<!-- Node14&#45;&gt;Node9 -->
<g id="edge17" class="edge"><title>Node14&#45;&gt;Node9</title>
<path fill="none" stroke="midnightblue" d="M333.416,-112.811C282.096,-105.766 220.198,-93.8757 201,-76 188.372,-64.2415 183.978,-44.6014 182.528,-29.9815"/>
<polygon fill="midnightblue" stroke="midnightblue" points="185.996,-29.3484 181.895,-19.5795 179.009,-29.7736 185.996,-29.3484"/>
</g>
<!-- Node14&#45;&gt;Node10 -->
<g id="edge19" class="edge"><title>Node14&#45;&gt;Node10</title>
<path fill="none" stroke="midnightblue" d="M404.046,-112.083C399.896,-104.613 393.847,-93.7244 388.733,-84.5199"/>
<polygon fill="midnightblue" stroke="midnightblue" points="391.778,-82.7929 383.862,-75.7511 385.659,-86.1924 391.778,-82.7929"/>
</g>
<!-- Node14&#45;&gt;Node11 -->
<g id="edge20" class="edge"><title>Node14&#45;&gt;Node11</title>
<path fill="none" stroke="midnightblue" d="M353.383,-112.444C290.868,-102.826 189.479,-87.2275 123.266,-77.0409"/>
<polygon fill="midnightblue" stroke="midnightblue" points="123.773,-73.5778 113.357,-75.5164 122.708,-80.4964 123.773,-73.5778"/>
</g>
<!-- Node14&#45;&gt;Node13 -->
<g id="edge18" class="edge"><title>Node14&#45;&gt;Node13</title>
<path fill="none" stroke="midnightblue" d="M413.074,-112.416C418.619,-99.3912 426.795,-74.228 417,-56 409.378,-41.8153 395.103,-31.3516 381.594,-24.1027"/>
<polygon fill="midnightblue" stroke="midnightblue" points="382.97,-20.8791 372.454,-19.5916 379.872,-27.1562 382.97,-20.8791"/>
</g>
<!-- Node24&#45;&gt;Node3 -->
<g id="edge35" class="edge"><title>Node24&#45;&gt;Node3</title>
<path fill="none" stroke="midnightblue" d="M885.764,-224.444C844.94,-215.063 779.357,-199.993 735.016,-189.804"/>
<polygon fill="midnightblue" stroke="midnightblue" points="735.592,-186.345 725.062,-187.516 734.024,-193.167 735.592,-186.345"/>
</g>
<!-- Node24&#45;&gt;Node5 -->
<g id="edge34" class="edge"><title>Node24&#45;&gt;Node5</title>
<path fill="none" stroke="midnightblue" d="M920.018,-224.368C913.858,-206.537 899.611,-165.295 891.312,-141.272"/>
<polygon fill="midnightblue" stroke="midnightblue" points="894.541,-139.9 887.968,-131.591 887.925,-142.186 894.541,-139.9"/>
</g>
<!-- Node26 -->
<g id="node26" class="node"><title>Node26</title>
<polygon fill="none" stroke="#bfbfbf" points="1033,-168.5 1033,-187.5 1163,-187.5 1163,-168.5 1033,-168.5"/>
<text text-anchor="middle" x="1098" y="-175.5" font-family="Helvetica,sans-Serif" font-size="10.00">InfoLogger/InfoLogger.hxx</text>
</g>
<!-- Node25&#45;&gt;Node26 -->
<g id="edge37" class="edge"><title>Node25&#45;&gt;Node26</title>
<path fill="none" stroke="midnightblue" d="M1098,-224.083C1098,-217.006 1098,-206.861 1098,-197.986"/>
<polygon fill="midnightblue" stroke="midnightblue" points="1101.5,-197.751 1098,-187.751 1094.5,-197.751 1101.5,-197.751"/>
</g>
</g>
</svg>
        <g id="navigator" transform="translate(0 0)" fill="#404254">
                <rect fill="#f2f5e9" fill-opacity="0.5" stroke="#606060" stroke-width=".5" x="0" y="0" width="60" height="60"/>
                <use id="zoomplus" xlink:href="#zoomPlus" x="17" y="9" onmousedown="handleZoom(evt,'in')"/>
                <use id="zoomminus" xlink:href="#zoomMin" x="42" y="9" onmousedown="handleZoom(evt,'out')"/>
                <use id="reset" xlink:href="#resetDef" x="30" y="36" onmousedown="handleReset()"/>
                <g id="arrowUp" xlink:href="#dirArrow" transform="translate(30 24)" onmousedown="handlePan(0,-1)">
                  <use xlink:href="#rim" fill="#404040">
                        <set attributeName="fill" to="#808080" begin="arrowUp.mouseover" end="arrowUp.mouseout"/>
                  </use>
                  <path fill="none" stroke="white" stroke-width="1.5" d="M0,-3.0v7 M-2.5,-0.5L0,-3.0L2.5,-0.5"/>
                </g>
                <g id="arrowRight" xlink:href="#dirArrow" transform="rotate(90) translate(36 -43)" onmousedown="handlePan(1,0)">
                  <use xlink:href="#rim" fill="#404040">
                        <set attributeName="fill" to="#808080" begin="arrowRight.mouseover" end="arrowRight.mouseout"/>
                  </use>
                  <path fill="none" stroke="white" stroke-width="1.5" d="M0,-3.0v7 M-2.5,-0.5L0,-3.0L2.5,-0.5"/>
                </g>
                <g id="arrowDown" xlink:href="#dirArrow" transform="rotate(180) translate(-30 -48)" onmousedown="handlePan(0,1)">
                  <use xlink:href="#rim" fill="#404040">
                        <set attributeName="fill" to="#808080" begin="arrowDown.mouseover" end="arrowDown.mouseout"/>
                  </use>
                  <path fill="none" stroke="white" stroke-width="1.5" d="M0,-3.0v7 M-2.5,-0.5L0,-3.0L2.5,-0.5"/>
                </g>
                <g id="arrowLeft" xlink:href="#dirArrow" transform="rotate(270) translate(-36 17)" onmousedown="handlePan(-1,0)">
                  <use xlink:href="#rim" fill="#404040">
                        <set attributeName="fill" to="#808080" begin="arrowLeft.mouseover" end="arrowLeft.mouseout"/>
                  </use>
                  <path fill="none" stroke="white" stroke-width="1.5" d="M0,-3.0v7 M-2.5,-0.5L0,-3.0L2.5,-0.5"/>
                </g>
        </g>
        <svg viewBox="0 0 15 15" width="100%" height="30px" preserveAspectRatio="xMaxYMin meet">
         <g id="arrow_out" transform="scale(0.3 0.3)">
          <a xlink:href="RepositoryBenchmark_8cxx__incl_org.svg" target="_base">
           <rect id="button" ry="5" rx="5" y="6" x="6" height="38" width="38"
                fill="#f2f5e9" fill-opacity="0.5" stroke="#606060" stroke-width="1.0"/>
           <path id="arrow"
             d="M 11.500037,31.436501 C 11.940474,20.09759 22.043105,11.32322 32.158766,21.979434 L 37.068811,17.246167 C 37.068811,17.246167 37.088388,32 37.088388,32 L 22.160133,31.978069 C 22.160133,31.978069 26.997745,27.140456 26.997745,27.140456 C 18.528582,18.264221 13.291696,25.230495 11.500037,31.436501 z"
             style="fill:#404040;"/>
          </a>
         </g>
        </svg>
</svg>
