<?xml version="1.0" encoding="UTF-8" standalone="no"?>
<!DOCTYPE svg PUBLIC "-//W3C//DTD SVG 1.1//EN"
 "http://www.w3.org/Graphics/SVG/1.1/DTD/svg11.dtd">
<!-- Generated by graphviz version 2.38.0 (20140413.2041)
 -->
<!-- Title: Framework/include/QualityControl/RepoPathUtils.h Pages: 1 -->
<svg width="726pt" height="106pt"
 viewBox="0.00 0.00 726.00 106.00" xmlns="http://www.w3.org/2000/svg" xmlns:xlink="http://www.w3.org/1999/xlink">
<g id="graph0" class="graph" transform="scale(1 1) rotate(0) translate(4 102)">
<title>Framework/include/QualityControl/RepoPathUtils.h</title>
<!-- Node1 -->
<g id="node1" class="node"><title>Node1</title>
<polygon fill="#bfbfbf" stroke="black" points="294.5,-67.5 294.5,-97.5 427.5,-97.5 427.5,-67.5 294.5,-67.5"/>
<text text-anchor="start" x="302.5" y="-85.5" font-family="Helvetica,sans-Serif" font-size="10.00">Framework/include/Quality</text>
<text text-anchor="middle" x="361" y="-74.5" font-family="Helvetica,sans-Serif" font-size="10.00">Control/RepoPathUtils.h</text>
</g>
<!-- Node2 -->
<g id="node2" class="node"><title>Node2</title>
<g id="a_node2"><a xlink:href="MonitorObject_8cxx.html" target="_top" xlink:title="Framework/src/MonitorObject.cxx">
<polygon fill="none" stroke="black" points="0,-6 0,-25 164,-25 164,-6 0,-6"/>
<text text-anchor="middle" x="82" y="-13" font-family="Helvetica,sans-Serif" font-size="10.00">Framework/src/MonitorObject.cxx</text>
</a>
</g>
</g>
<!-- Node1&#45;&gt;Node2 -->
<g id="edge1" class="edge"><title>Node1&#45;&gt;Node2</title>
<path fill="none" stroke="midnightblue" d="M290.816,-65.1489C236.069,-52.3942 162.225,-35.1905 118.608,-25.0287"/>
<polygon fill="midnightblue" stroke="midnightblue" points="290.271,-68.6156 300.805,-67.476 291.86,-61.7982 290.271,-68.6156"/>
</g>
<!-- Node3 -->
<g id="node3" class="node"><title>Node3</title>
<polygon fill="none" stroke="#bfbfbf" points="182.5,-6 182.5,-25 345.5,-25 345.5,-6 182.5,-6"/>
<text text-anchor="middle" x="264" y="-13" font-family="Helvetica,sans-Serif" font-size="10.00">Framework/src/QualityObject.cxx</text>
</g>
<!-- Node1&#45;&gt;Node3 -->
<g id="edge2" class="edge"><title>Node1&#45;&gt;Node3</title>
<path fill="none" stroke="midnightblue" d="M331.364,-61.6409C313.058,-49.3742 290.505,-34.2613 276.695,-25.007"/>
<polygon fill="midnightblue" stroke="midnightblue" points="329.697,-64.7367 339.952,-67.396 333.594,-58.9216 329.697,-64.7367"/>
</g>
<!-- Node4 -->
<g id="node4" class="node"><title>Node4</title>
<g id="a_node4"><a xlink:href="testCcdbDatabase_8cxx.html" target="_top" xlink:title="Framework/test/testCcdbDatabase.cxx">
<polygon fill="none" stroke="black" points="364,-6 364,-25 552,-25 552,-6 364,-6"/>
<text text-anchor="middle" x="458" y="-13" font-family="Helvetica,sans-Serif" font-size="10.00">Framework/test/testCcdbDatabase.cxx</text>
</a>
</g>
</g>
<!-- Node1&#45;&gt;Node4 -->
<g id="edge3" class="edge"><title>Node1&#45;&gt;Node4</title>
<path fill="none" stroke="midnightblue" d="M390.636,-61.6409C408.942,-49.3742 431.495,-34.2613 445.305,-25.007"/>
<polygon fill="midnightblue" stroke="midnightblue" points="388.406,-58.9216 382.048,-67.396 392.303,-64.7367 388.406,-58.9216"/>
</g>
<!-- Node5 -->
<g id="node5" class="node"><title>Node5</title>
<g id="a_node5"><a xlink:href="testRepoPathUtils_8cxx.html" target="_top" xlink:title="Framework/test/testRepoPath\lUtils.cxx">
<polygon fill="none" stroke="black" points="570,-0.5 570,-30.5 718,-30.5 718,-0.5 570,-0.5"/>
<text text-anchor="start" x="578" y="-18.5" font-family="Helvetica,sans-Serif" font-size="10.00">Framework/test/testRepoPath</text>
<text text-anchor="middle" x="644" y="-7.5" font-family="Helvetica,sans-Serif" font-size="10.00">Utils.cxx</text>
</a>
</g>
</g>
<!-- Node1&#45;&gt;Node5 -->
<g id="edge4" class="edge"><title>Node1&#45;&gt;Node5</title>
<path fill="none" stroke="midnightblue" d="M432.03,-65.1856C478.378,-54.5403 538.271,-40.7841 582.563,-30.6109"/>
<polygon fill="midnightblue" stroke="midnightblue" points="431.021,-61.8262 422.058,-67.476 432.588,-68.6486 431.021,-61.8262"/>
</g>
</g>
</svg>
