<?xml version="1.0" encoding="UTF-8" standalone="no"?>
<!DOCTYPE svg PUBLIC "-//W3C//DTD SVG 1.1//EN"
 "http://www.w3.org/Graphics/SVG/1.1/DTD/svg11.dtd">
<!-- Generated by graphviz version 2.38.0 (20140413.2041)
 -->
<!-- Title: Framework/src/RootClassFactory.h Pages: 1 -->
<svg width="817pt" height="95pt"
 viewBox="0.00 0.00 816.50 95.00" xmlns="http://www.w3.org/2000/svg" xmlns:xlink="http://www.w3.org/1999/xlink">
<g id="graph0" class="graph" transform="scale(1 1) rotate(0) translate(4 91)">
<title>Framework/src/RootClassFactory.h</title>
<!-- Node1 -->
<g id="node1" class="node"><title>Node1</title>
<polygon fill="#bfbfbf" stroke="black" points="314.5,-67.5 314.5,-86.5 487.5,-86.5 487.5,-67.5 314.5,-67.5"/>
<text text-anchor="middle" x="401" y="-74.5" font-family="Helvetica,sans-Serif" font-size="10.00">Framework/src/RootClassFactory.h</text>
</g>
<!-- Node2 -->
<g id="node2" class="node"><title>Node2</title>
<polygon fill="none" stroke="#bfbfbf" points="0,-6 0,-25 132,-25 132,-6 0,-6"/>
<text text-anchor="middle" x="66" y="-13" font-family="Helvetica,sans-Serif" font-size="10.00">Framework/src/Check.cxx</text>
</g>
<!-- Node1&#45;&gt;Node2 -->
<g id="edge1" class="edge"><title>Node1&#45;&gt;Node2</title>
<path fill="none" stroke="midnightblue" d="M340.265,-65.8342C287.534,-56.9255 209.154,-43.485 141,-31 130.695,-29.1122 119.607,-27.0087 109.202,-25.0023"/>
<polygon fill="midnightblue" stroke="midnightblue" points="339.688,-69.2863 350.131,-67.4988 340.853,-62.3838 339.688,-69.2863"/>
</g>
<!-- Node3 -->
<g id="node3" class="node"><title>Node3</title>
<g id="a_node3"><a xlink:href="PostProcessingFactory_8cxx.html" target="_top" xlink:title="Framework/src/PostProcessing\lFactory.cxx">
<polygon fill="none" stroke="black" points="150,-0.5 150,-30.5 304,-30.5 304,-0.5 150,-0.5"/>
<text text-anchor="start" x="158" y="-18.5" font-family="Helvetica,sans-Serif" font-size="10.00">Framework/src/PostProcessing</text>
<text text-anchor="middle" x="227" y="-7.5" font-family="Helvetica,sans-Serif" font-size="10.00">Factory.cxx</text>
</a>
</g>
</g>
<!-- Node1&#45;&gt;Node3 -->
<g id="edge2" class="edge"><title>Node1&#45;&gt;Node3</title>
<path fill="none" stroke="midnightblue" d="M366.581,-64.2303C338.248,-54.5417 298.008,-40.7815 268.008,-30.523"/>
<polygon fill="midnightblue" stroke="midnightblue" points="365.475,-67.5512 376.07,-67.4751 367.74,-60.9277 365.475,-67.5512"/>
</g>
<!-- Node4 -->
<g id="node4" class="node"><title>Node4</title>
<g id="a_node4"><a xlink:href="TaskFactory_8cxx.html" target="_top" xlink:title="Framework/src/TaskFactory.cxx">
<polygon fill="none" stroke="black" points="322,-6 322,-25 480,-25 480,-6 322,-6"/>
<text text-anchor="middle" x="401" y="-13" font-family="Helvetica,sans-Serif" font-size="10.00">Framework/src/TaskFactory.cxx</text>
</a>
</g>
</g>
<!-- Node1&#45;&gt;Node4 -->
<g id="edge3" class="edge"><title>Node1&#45;&gt;Node4</title>
<path fill="none" stroke="midnightblue" d="M401,-57.3165C401,-46.4962 401,-33.398 401,-25.0091"/>
<polygon fill="midnightblue" stroke="midnightblue" points="397.5,-57.4751 401,-67.4751 404.5,-57.4751 397.5,-57.4751"/>
</g>
<!-- Node5 -->
<g id="node5" class="node"><title>Node5</title>
<g id="a_node5"><a xlink:href="TrendingTask_8cxx.html" target="_top" xlink:title="Framework/src/TrendingTask.cxx">
<polygon fill="none" stroke="black" points="498.5,-6 498.5,-25 661.5,-25 661.5,-6 498.5,-6"/>
<text text-anchor="middle" x="580" y="-13" font-family="Helvetica,sans-Serif" font-size="10.00">Framework/src/TrendingTask.cxx</text>
</a>
</g>
</g>
<!-- Node1&#45;&gt;Node5 -->
<g id="edge4" class="edge"><title>Node1&#45;&gt;Node5</title>
<path fill="none" stroke="midnightblue" d="M436.403,-64.232C471.198,-52.666 523.452,-35.2966 554.401,-25.0091"/>
<polygon fill="midnightblue" stroke="midnightblue" points="435.032,-60.9994 426.646,-67.4751 437.24,-67.642 435.032,-60.9994"/>
</g>
<!-- Node6 -->
<g id="node6" class="node"><title>Node6</title>
<g id="a_node6"><a xlink:href="TrendingTaskITS_8cxx.html" target="_top" xlink:title="Modules/ITS/src/Trending\lTaskITS.cxx">
<polygon fill="none" stroke="black" points="679.5,-0.5 679.5,-30.5 808.5,-30.5 808.5,-0.5 679.5,-0.5"/>
<text text-anchor="start" x="687.5" y="-18.5" font-family="Helvetica,sans-Serif" font-size="10.00">Modules/ITS/src/Trending</text>
<text text-anchor="middle" x="744" y="-7.5" font-family="Helvetica,sans-Serif" font-size="10.00">TaskITS.cxx</text>
</a>
</g>
</g>
<!-- Node1&#45;&gt;Node6 -->
<g id="edge5" class="edge"><title>Node1&#45;&gt;Node6</title>
<path fill="none" stroke="midnightblue" d="M465.045,-65.898C519.813,-57.1222 600.695,-43.8379 671,-31 673.669,-30.5126 676.392,-30.0075 679.141,-29.4911"/>
<polygon fill="midnightblue" stroke="midnightblue" points="464.452,-62.4481 455.13,-67.483 465.558,-69.3603 464.452,-62.4481"/>
</g>
</g>
</svg>
