<?xml version="1.0" encoding="UTF-8" standalone="no"?>
<!DOCTYPE svg PUBLIC "-//W3C//DTD SVG 1.1//EN"
 "http://www.w3.org/Graphics/SVG/1.1/DTD/svg11.dtd">
<!-- Generated by graphviz version 2.38.0 (20140413.2041)
 -->
<!-- Title: Modules/ITS/src/runITS.cxx Pages: 1 -->
<!--zoomable 274 -->
<svg id="main" version="1.1" xmlns="http://www.w3.org/2000/svg" xmlns:xlink="http://www.w3.org/1999/xlink" xml:space="preserve" onload="init(evt)">
<style type="text/css"><![CDATA[
.edge:hover path { stroke: red; }
.edge:hover polygon { stroke: red; fill: red; }
]]></style>
<script type="text/javascript"><![CDATA[
var edges = document.getElementsByTagName('g');
if (edges && edges.length) {
  for (var i=0;i<edges.length;i++) {
    if (edges[i].id.substr(0,4)=='edge') {
      edges[i].setAttribute('class','edge');
    }
  }
}
]]></script>
        <defs>
                <circle id="rim" cx="0" cy="0" r="7"/>
                <circle id="rim2" cx="0" cy="0" r="3.5"/>
                <g id="zoomPlus">
                        <use xlink:href="#rim" fill="#404040">
                                <set attributeName="fill" to="#808080" begin="zoomplus.mouseover" end="zoomplus.mouseout"/>
                        </use>
                        <path d="M-4,0h8M0,-4v8" fill="none" stroke="white" stroke-width="1.5" pointer-events="none"/>
                </g>
                <g id="zoomMin">
                        <use xlink:href="#rim" fill="#404040">
                                <set attributeName="fill" to="#808080" begin="zoomminus.mouseover" end="zoomminus.mouseout"/>
                        </use>
                        <path d="M-4,0h8" fill="none" stroke="white" stroke-width="1.5" pointer-events="none"/>
                </g>
                <g id="dirArrow">
                        <path fill="none" stroke="white" stroke-width="1.5" d="M0,-3.0v7 M-2.5,-0.5L0,-3.0L2.5,-0.5"/>
                </g>
               <g id="resetDef">
                       <use xlink:href="#rim2" fill="#404040">
                               <set attributeName="fill" to="#808080" begin="reset.mouseover" end="reset.mouseout"/>
                       </use>
               </g>
        </defs>

<script type="text/javascript">
var viewWidth = 2490;
var viewHeight = 274;
var sectionId = 'dynsection-0';
</script>
<script xlink:href="svgpan.js"/>
<svg id="graph" class="graph">
<g id="viewport">
<title>Modules/ITS/src/runITS.cxx</title>
<!-- Node1 -->
<g id="node1" class="node"><title>Node1</title>
<polygon fill="#bfbfbf" stroke="black" points="1697,-246.5 1697,-265.5 1837,-265.5 1837,-246.5 1697,-246.5"/>
<text text-anchor="middle" x="1767" y="-253.5" font-family="Helvetica,sans-Serif" font-size="10.00">Modules/ITS/src/runITS.cxx</text>
</g>
<!-- Node2 -->
<g id="node2" class="node"><title>Node2</title>
<polygon fill="none" stroke="#bfbfbf" points="113,-185 113,-204 251,-204 251,-185 113,-185"/>
<text text-anchor="middle" x="182" y="-192" font-family="Helvetica,sans-Serif" font-size="10.00">Framework/DataSampling.h</text>
</g>
<!-- Node1&#45;&gt;Node2 -->
<g id="edge1" class="edge"><title>Node1&#45;&gt;Node2</title>
<path fill="none" stroke="midnightblue" d="M1696.88,-254.34C1439.08,-251.689 544.005,-240.455 260,-210 250.747,-209.008 240.946,-207.529 231.529,-205.89"/>
<polygon fill="midnightblue" stroke="midnightblue" points="231.972,-202.414 221.507,-204.064 230.717,-209.3 231.972,-202.414"/>
</g>
<!-- Node3 -->
<g id="node3" class="node"><title>Node3</title>
<g id="a_node3"><a xlink:href="InfrastructureGenerator_8h.html" target="_top" xlink:title="QualityControl/Infrastructure\lGenerator.h">
<polygon fill="none" stroke="black" points="269,-179.5 269,-209.5 409,-209.5 409,-179.5 269,-179.5"/>
<text text-anchor="start" x="277" y="-197.5" font-family="Helvetica,sans-Serif" font-size="10.00">QualityControl/Infrastructure</text>
<text text-anchor="middle" x="339" y="-186.5" font-family="Helvetica,sans-Serif" font-size="10.00">Generator.h</text>
</a>
</g>
</g>
<!-- Node1&#45;&gt;Node3 -->
<g id="edge2" class="edge"><title>Node1&#45;&gt;Node3</title>
<path fill="none" stroke="midnightblue" d="M1696.67,-252.07C1457.06,-242.086 673.393,-209.433 419.31,-198.846"/>
<polygon fill="midnightblue" stroke="midnightblue" points="419.19,-195.338 409.053,-198.419 418.898,-202.332 419.19,-195.338"/>
</g>
<!-- Node8 -->
<g id="node8" class="node"><title>Node8</title>
<polygon fill="none" stroke="#bfbfbf" points="1814.5,-185 1814.5,-204 1885.5,-204 1885.5,-185 1814.5,-185"/>
<text text-anchor="middle" x="1850" y="-192" font-family="Helvetica,sans-Serif" font-size="10.00">FairLogger.h</text>
</g>
<!-- Node1&#45;&gt;Node8 -->
<g id="edge7" class="edge"><title>Node1&#45;&gt;Node8</title>
<path fill="none" stroke="midnightblue" d="M1778.89,-246.475C1792.2,-236.931 1814,-221.307 1829.96,-209.868"/>
<polygon fill="midnightblue" stroke="midnightblue" points="1832.04,-212.68 1838.13,-204.009 1827.96,-206.991 1832.04,-212.68"/>
</g>
<!-- Node9 -->
<g id="node9" class="node"><title>Node9</title>
<polygon fill="none" stroke="#bfbfbf" points="1845,-123.5 1845,-142.5 1895,-142.5 1895,-123.5 1845,-123.5"/>
<text text-anchor="middle" x="1870" y="-130.5" font-family="Helvetica,sans-Serif" font-size="10.00">TH1F.h</text>
</g>
<!-- Node1&#45;&gt;Node9 -->
<g id="edge8" class="edge"><title>Node1&#45;&gt;Node9</title>
<path fill="none" stroke="midnightblue" d="M1764.89,-246.096C1761.81,-230.865 1757.9,-199.475 1772,-179 1779.73,-167.769 1810.39,-154.75 1835.39,-145.613"/>
<polygon fill="midnightblue" stroke="midnightblue" points="1836.73,-148.85 1844.97,-142.194 1834.38,-142.257 1836.73,-148.85"/>
</g>
<!-- Node10 -->
<g id="node10" class="node"><title>Node10</title>
<polygon fill="none" stroke="#bfbfbf" points="1215,-123.5 1215,-142.5 1267,-142.5 1267,-123.5 1215,-123.5"/>
<text text-anchor="middle" x="1241" y="-130.5" font-family="Helvetica,sans-Serif" font-size="10.00">memory</text>
</g>
<!-- Node1&#45;&gt;Node10 -->
<g id="edge9" class="edge"><title>Node1&#45;&gt;Node10</title>
<path fill="none" stroke="midnightblue" d="M1696.9,-250.005C1630.07,-244.156 1527.02,-232.292 1440,-210 1376.86,-193.824 1306.33,-163.898 1268.52,-146.822"/>
<polygon fill="midnightblue" stroke="midnightblue" points="1269.75,-143.535 1259.2,-142.571 1266.84,-149.904 1269.75,-143.535"/>
</g>
<!-- Node11 -->
<g id="node11" class="node"><title>Node11</title>
<polygon fill="none" stroke="#bfbfbf" points="1903.5,-185 1903.5,-204 1952.5,-204 1952.5,-185 1903.5,-185"/>
<text text-anchor="middle" x="1928" y="-192" font-family="Helvetica,sans-Serif" font-size="10.00">random</text>
</g>
<!-- Node1&#45;&gt;Node11 -->
<g id="edge10" class="edge"><title>Node1&#45;&gt;Node11</title>
<path fill="none" stroke="midnightblue" d="M1793.2,-246.438C1819.22,-237.782 1860.16,-223.754 1895,-210 1896.6,-209.368 1898.24,-208.705 1899.89,-208.024"/>
<polygon fill="midnightblue" stroke="midnightblue" points="1901.43,-211.171 1909.26,-204.03 1898.68,-204.731 1901.43,-211.171"/>
</g>
<!-- Node12 -->
<g id="node12" class="node"><title>Node12</title>
<polygon fill="none" stroke="#bfbfbf" points="1971,-185 1971,-204 2131,-204 2131,-185 1971,-185"/>
<text text-anchor="middle" x="2051" y="-192" font-family="Helvetica,sans-Serif" font-size="10.00">Framework/runDataProcessing.h</text>
</g>
<!-- Node1&#45;&gt;Node12 -->
<g id="edge11" class="edge"><title>Node1&#45;&gt;Node12</title>
<path fill="none" stroke="midnightblue" d="M1807.69,-246.475C1858.52,-235.827 1945.47,-217.609 2000.5,-206.081"/>
<polygon fill="midnightblue" stroke="midnightblue" points="2001.32,-209.485 2010.39,-204.009 1999.88,-202.634 2001.32,-209.485"/>
</g>
<!-- Node13 -->
<g id="node13" class="node"><title>Node13</title>
<g id="a_node13"><a xlink:href="Check_8h_source.html" target="_top" xlink:title="QualityControl/Check.h">
<polygon fill="none" stroke="black" points="944.5,-185 944.5,-204 1063.5,-204 1063.5,-185 944.5,-185"/>
<text text-anchor="middle" x="1004" y="-192" font-family="Helvetica,sans-Serif" font-size="10.00">QualityControl/Check.h</text>
</a>
</g>
</g>
<!-- Node1&#45;&gt;Node13 -->
<g id="edge12" class="edge"><title>Node1&#45;&gt;Node13</title>
<path fill="none" stroke="midnightblue" d="M1696.93,-249.536C1551.58,-238.201 1218.79,-212.25 1073.73,-200.938"/>
<polygon fill="midnightblue" stroke="midnightblue" points="1073.86,-197.437 1063.62,-200.149 1073.32,-204.416 1073.86,-197.437"/>
</g>
<!-- Node27 -->
<g id="node27" class="node"><title>Node27</title>
<g id="a_node27"><a xlink:href="runnerUtils_8h.html" target="_top" xlink:title="QualityControl/runnerUtils.h">
<polygon fill="none" stroke="black" points="1515.5,-67.5 1515.5,-86.5 1652.5,-86.5 1652.5,-67.5 1515.5,-67.5"/>
<text text-anchor="middle" x="1584" y="-74.5" font-family="Helvetica,sans-Serif" font-size="10.00">QualityControl/runnerUtils.h</text>
</a>
</g>
</g>
<!-- Node1&#45;&gt;Node27 -->
<g id="edge46" class="edge"><title>Node1&#45;&gt;Node27</title>
<path fill="none" stroke="midnightblue" d="M1769.16,-246.42C1773.52,-230.838 1784.79,-197.77 1806,-179 1843.57,-145.758 1936.91,-160.861 1904,-123 1873.36,-87.7537 1747.24,-79.3189 1662.78,-77.7298"/>
<polygon fill="midnightblue" stroke="midnightblue" points="1662.75,-74.229 1652.7,-77.5686 1662.64,-81.2281 1662.75,-74.229"/>
</g>
<!-- Node29 -->
<g id="node29" class="node"><title>Node29</title>
<g id="a_node29"><a xlink:href="ExamplePrinterSpec_8h.html" target="_top" xlink:title="QualityControl/ExamplePrinter\lSpec.h">
<polygon fill="none" stroke="black" points="1449.5,-179.5 1449.5,-209.5 1598.5,-209.5 1598.5,-179.5 1449.5,-179.5"/>
<text text-anchor="start" x="1457.5" y="-197.5" font-family="Helvetica,sans-Serif" font-size="10.00">QualityControl/ExamplePrinter</text>
<text text-anchor="middle" x="1524" y="-186.5" font-family="Helvetica,sans-Serif" font-size="10.00">Spec.h</text>
</a>
</g>
</g>
<!-- Node1&#45;&gt;Node29 -->
<g id="edge50" class="edge"><title>Node1&#45;&gt;Node29</title>
<path fill="none" stroke="midnightblue" d="M1732.18,-246.475C1695.51,-237.494 1636.83,-223.128 1591.11,-211.933"/>
<polygon fill="midnightblue" stroke="midnightblue" points="1591.82,-208.502 1581.27,-209.523 1590.15,-215.301 1591.82,-208.502"/>
</g>
<!-- Node33 -->
<g id="node33" class="node"><title>Node33</title>
<polygon fill="none" stroke="#bfbfbf" points="2149.5,-179.5 2149.5,-209.5 2290.5,-209.5 2290.5,-179.5 2149.5,-179.5"/>
<text text-anchor="start" x="2157.5" y="-197.5" font-family="Helvetica,sans-Serif" font-size="10.00">ITSQCDataReaderWorkflow</text>
<text text-anchor="middle" x="2220" y="-186.5" font-family="Helvetica,sans-Serif" font-size="10.00">/TestDataReader.h</text>
</g>
<!-- Node1&#45;&gt;Node33 -->
<g id="edge59" class="edge"><title>Node1&#45;&gt;Node33</title>
<path fill="none" stroke="midnightblue" d="M1837.29,-247.776C1910.2,-239.998 2027.73,-226.665 2139.29,-210.05"/>
<polygon fill="midnightblue" stroke="midnightblue" points="2140,-213.482 2149.37,-208.536 2138.96,-206.56 2140,-213.482"/>
</g>
<!-- Node34 -->
<g id="node34" class="node"><title>Node34</title>
<polygon fill="none" stroke="#bfbfbf" points="2308.5,-185 2308.5,-204 2481.5,-204 2481.5,-185 2308.5,-185"/>
<text text-anchor="middle" x="2395" y="-192" font-family="Helvetica,sans-Serif" font-size="10.00">DetectorsBase/GeometryManager.h</text>
</g>
<!-- Node1&#45;&gt;Node34 -->
<g id="edge60" class="edge"><title>Node1&#45;&gt;Node34</title>
<path fill="none" stroke="midnightblue" d="M1837.42,-250.568C1939.57,-243.797 2134.7,-229.571 2300,-210 2310.78,-208.723 2322.22,-207.159 2333.29,-205.535"/>
<polygon fill="midnightblue" stroke="midnightblue" points="2333.94,-208.976 2343.32,-204.034 2332.91,-202.053 2333.94,-208.976"/>
</g>
<!-- Node4 -->
<g id="node4" class="node"><title>Node4</title>
<polygon fill="none" stroke="#bfbfbf" points="378,-123.5 378,-142.5 422,-142.5 422,-123.5 378,-123.5"/>
<text text-anchor="middle" x="400" y="-130.5" font-family="Helvetica,sans-Serif" font-size="10.00">vector</text>
</g>
<!-- Node3&#45;&gt;Node4 -->
<g id="edge3" class="edge"><title>Node3&#45;&gt;Node4</title>
<path fill="none" stroke="midnightblue" d="M353.456,-179.399C362.594,-170.486 374.419,-158.952 383.862,-149.741"/>
<polygon fill="midnightblue" stroke="midnightblue" points="386.409,-152.146 391.124,-142.658 381.522,-147.135 386.409,-152.146"/>
</g>
<!-- Node5 -->
<g id="node5" class="node"><title>Node5</title>
<polygon fill="none" stroke="#bfbfbf" points="905.5,-6 905.5,-25 946.5,-25 946.5,-6 905.5,-6"/>
<text text-anchor="middle" x="926" y="-13" font-family="Helvetica,sans-Serif" font-size="10.00">string</text>
</g>
<!-- Node3&#45;&gt;Node5 -->
<g id="edge4" class="edge"><title>Node3&#45;&gt;Node5</title>
<path fill="none" stroke="midnightblue" d="M272.467,-179.494C236.607,-170.451 197.576,-157.658 187,-143 181.799,-135.792 181.18,-129.719 187,-123 234.362,-68.3227 761.014,-28.0239 895.091,-18.6013"/>
<polygon fill="midnightblue" stroke="midnightblue" points="895.716,-22.0664 905.449,-17.8802 895.23,-15.0833 895.716,-22.0664"/>
</g>
<!-- Node6 -->
<g id="node6" class="node"><title>Node6</title>
<polygon fill="none" stroke="#bfbfbf" points="0,-123.5 0,-142.5 140,-142.5 140,-123.5 0,-123.5"/>
<text text-anchor="middle" x="70" y="-130.5" font-family="Helvetica,sans-Serif" font-size="10.00">Framework/WorkflowSpec.h</text>
</g>
<!-- Node3&#45;&gt;Node6 -->
<g id="edge5" class="edge"><title>Node3&#45;&gt;Node6</title>
<path fill="none" stroke="midnightblue" d="M275.591,-179.475C227.461,-168.829 162.286,-154.413 118.326,-144.689"/>
<polygon fill="midnightblue" stroke="midnightblue" points="118.977,-141.249 108.457,-142.506 117.465,-148.084 118.977,-141.249"/>
</g>
<!-- Node7 -->
<g id="node7" class="node"><title>Node7</title>
<polygon fill="none" stroke="#bfbfbf" points="196,-123.5 196,-142.5 360,-142.5 360,-123.5 196,-123.5"/>
<text text-anchor="middle" x="278" y="-130.5" font-family="Helvetica,sans-Serif" font-size="10.00">Framework/DataProcessorSpec.h</text>
</g>
<!-- Node3&#45;&gt;Node7 -->
<g id="edge6" class="edge"><title>Node3&#45;&gt;Node7</title>
<path fill="none" stroke="midnightblue" d="M324.544,-179.399C315.406,-170.486 303.581,-158.952 294.138,-149.741"/>
<polygon fill="midnightblue" stroke="midnightblue" points="296.478,-147.135 286.876,-142.658 291.591,-152.146 296.478,-147.135"/>
</g>
<!-- Node13&#45;&gt;Node4 -->
<g id="edge15" class="edge"><title>Node13&#45;&gt;Node4</title>
<path fill="none" stroke="midnightblue" d="M944.088,-192.05C841.032,-188.721 623.62,-178.043 432.187,-142.871"/>
<polygon fill="midnightblue" stroke="midnightblue" points="432.698,-139.406 422.226,-141.014 431.415,-146.288 432.698,-139.406"/>
</g>
<!-- Node13&#45;&gt;Node7 -->
<g id="edge18" class="edge"><title>Node13&#45;&gt;Node7</title>
<path fill="none" stroke="midnightblue" d="M944.437,-189.147C833.638,-180.965 588.075,-162.439 370.352,-143.106"/>
<polygon fill="midnightblue" stroke="midnightblue" points="370.604,-139.615 360.333,-142.214 369.983,-146.587 370.604,-139.615"/>
</g>
<!-- Node13&#45;&gt;Node10 -->
<g id="edge16" class="edge"><title>Node13&#45;&gt;Node10</title>
<path fill="none" stroke="midnightblue" d="M1037.96,-184.975C1082.34,-173.832 1159.74,-154.4 1205.08,-143.018"/>
<polygon fill="midnightblue" stroke="midnightblue" points="1205.94,-146.411 1214.79,-140.581 1204.24,-139.621 1205.94,-146.411"/>
</g>
<!-- Node14 -->
<g id="node14" class="node"><title>Node14</title>
<polygon fill="none" stroke="#bfbfbf" points="440.5,-123.5 440.5,-142.5 499.5,-142.5 499.5,-123.5 440.5,-123.5"/>
<text text-anchor="middle" x="470" y="-130.5" font-family="Helvetica,sans-Serif" font-size="10.00">functional</text>
</g>
<!-- Node13&#45;&gt;Node14 -->
<g id="edge13" class="edge"><title>Node13&#45;&gt;Node14</title>
<path fill="none" stroke="midnightblue" d="M944.492,-189.971C852.962,-183.988 672.023,-169.958 509.95,-143.148"/>
<polygon fill="midnightblue" stroke="midnightblue" points="510.236,-139.647 499.795,-141.447 509.08,-146.551 510.236,-139.647"/>
</g>
<!-- Node15 -->
<g id="node15" class="node"><title>Node15</title>
<polygon fill="none" stroke="#bfbfbf" points="1162.5,-6 1162.5,-25 1197.5,-25 1197.5,-6 1162.5,-6"/>
<text text-anchor="middle" x="1180" y="-13" font-family="Helvetica,sans-Serif" font-size="10.00">map</text>
</g>
<!-- Node13&#45;&gt;Node15 -->
<g id="edge14" class="edge"><title>Node13&#45;&gt;Node15</title>
<path fill="none" stroke="midnightblue" d="M1029.75,-184.961C1051.93,-176.708 1083.91,-162.576 1107,-143 1142.17,-113.181 1164.21,-61.8895 1174.03,-34.6816"/>
<polygon fill="midnightblue" stroke="midnightblue" points="1177.34,-35.821 1177.29,-25.2262 1170.72,-33.5363 1177.34,-35.821"/>
</g>
<!-- Node16 -->
<g id="node16" class="node"><title>Node16</title>
<polygon fill="none" stroke="#bfbfbf" points="628.5,-67.5 628.5,-86.5 711.5,-86.5 711.5,-67.5 628.5,-67.5"/>
<text text-anchor="middle" x="670" y="-74.5" font-family="Helvetica,sans-Serif" font-size="10.00">unordered_map</text>
</g>
<!-- Node13&#45;&gt;Node16 -->
<g id="edge17" class="edge"><title>Node13&#45;&gt;Node16</title>
<path fill="none" stroke="midnightblue" d="M944.243,-188.93C869.924,-182.279 748.278,-167.925 711,-143 694.238,-131.793 682.978,-111.165 676.566,-96.1457"/>
<polygon fill="midnightblue" stroke="midnightblue" points="679.816,-94.8476 672.893,-86.828 673.304,-97.4148 679.816,-94.8476"/>
</g>
<!-- Node17 -->
<g id="node17" class="node"><title>Node17</title>
<g id="a_node17"><a xlink:href="Quality_8h.html" target="_top" xlink:title="QualityControl/Quality.h">
<polygon fill="none" stroke="black" points="992.5,-67.5 992.5,-86.5 1113.5,-86.5 1113.5,-67.5 992.5,-67.5"/>
<text text-anchor="middle" x="1053" y="-74.5" font-family="Helvetica,sans-Serif" font-size="10.00">QualityControl/Quality.h</text>
</a>
</g>
</g>
<!-- Node13&#45;&gt;Node17 -->
<g id="edge19" class="edge"><title>Node13&#45;&gt;Node17</title>
<path fill="none" stroke="midnightblue" d="M1033.89,-184.842C1053.92,-177.305 1078.8,-164.189 1091,-143 1100.76,-126.05 1086.13,-106.707 1072.28,-93.5606"/>
<polygon fill="midnightblue" stroke="midnightblue" points="1074.22,-90.6037 1064.41,-86.6007 1069.59,-95.8473 1074.22,-90.6037"/>
</g>
<!-- Node19 -->
<g id="node19" class="node"><title>Node19</title>
<g id="a_node19"><a xlink:href="QualityObject_8h_source.html" target="_top" xlink:title="QualityControl/QualityObject.h">
<polygon fill="none" stroke="black" points="1322.5,-123.5 1322.5,-142.5 1471.5,-142.5 1471.5,-123.5 1322.5,-123.5"/>
<text text-anchor="middle" x="1397" y="-130.5" font-family="Helvetica,sans-Serif" font-size="10.00">QualityControl/QualityObject.h</text>
</a>
</g>
</g>
<!-- Node13&#45;&gt;Node19 -->
<g id="edge23" class="edge"><title>Node13&#45;&gt;Node19</title>
<path fill="none" stroke="midnightblue" d="M1060.31,-184.975C1131.81,-174.15 1254.98,-155.502 1330.87,-144.012"/>
<polygon fill="midnightblue" stroke="midnightblue" points="1331.43,-147.467 1340.8,-142.509 1330.39,-140.546 1331.43,-147.467"/>
</g>
<!-- Node22 -->
<g id="node22" class="node"><title>Node22</title>
<g id="a_node22"><a xlink:href="MonitorObject_8h.html" target="_top" xlink:title="QualityControl/MonitorObject.h">
<polygon fill="none" stroke="black" points="1208.5,-67.5 1208.5,-86.5 1359.5,-86.5 1359.5,-67.5 1208.5,-67.5"/>
<text text-anchor="middle" x="1284" y="-74.5" font-family="Helvetica,sans-Serif" font-size="10.00">QualityControl/MonitorObject.h</text>
</a>
</g>
</g>
<!-- Node13&#45;&gt;Node22 -->
<g id="edge28" class="edge"><title>Node13&#45;&gt;Node22</title>
<path fill="none" stroke="midnightblue" d="M1036.92,-184.972C1069.52,-176.079 1120.59,-160.944 1163,-143 1198.48,-127.989 1237.37,-106.038 1261.23,-91.8839"/>
<polygon fill="midnightblue" stroke="midnightblue" points="1263.12,-94.8346 1269.9,-86.6941 1259.52,-88.8291 1263.12,-94.8346"/>
</g>
<!-- Node23 -->
<g id="node23" class="node"><title>Node23</title>
<g id="a_node23"><a xlink:href="CheckInterface_8h.html" target="_top" xlink:title="QualityControl/CheckInterface.h">
<polygon fill="none" stroke="black" points="925.5,-123.5 925.5,-142.5 1082.5,-142.5 1082.5,-123.5 925.5,-123.5"/>
<text text-anchor="middle" x="1004" y="-130.5" font-family="Helvetica,sans-Serif" font-size="10.00">QualityControl/CheckInterface.h</text>
</a>
</g>
</g>
<!-- Node13&#45;&gt;Node23 -->
<g id="edge34" class="edge"><title>Node13&#45;&gt;Node23</title>
<path fill="none" stroke="midnightblue" d="M1004,-184.975C1004,-176.58 1004,-163.481 1004,-152.663"/>
<polygon fill="midnightblue" stroke="midnightblue" points="1007.5,-152.509 1004,-142.509 1000.5,-152.509 1007.5,-152.509"/>
</g>
<!-- Node24 -->
<g id="node24" class="node"><title>Node24</title>
<g id="a_node24"><a xlink:href="QcInfoLogger_8h.html" target="_top" xlink:title="QualityControl/QcInfoLogger.h">
<polygon fill="none" stroke="black" points="720.5,-123.5 720.5,-142.5 869.5,-142.5 869.5,-123.5 720.5,-123.5"/>
<text text-anchor="middle" x="795" y="-130.5" font-family="Helvetica,sans-Serif" font-size="10.00">QualityControl/QcInfoLogger.h</text>
</a>
</g>
</g>
<!-- Node13&#45;&gt;Node24 -->
<g id="edge41" class="edge"><title>Node13&#45;&gt;Node24</title>
<path fill="none" stroke="midnightblue" d="M974.055,-184.975C937.428,-174.548 875.305,-156.862 834.716,-145.307"/>
<polygon fill="midnightblue" stroke="midnightblue" points="835.465,-141.881 824.889,-142.509 833.549,-148.613 835.465,-141.881"/>
</g>
<!-- Node26 -->
<g id="node26" class="node"><title>Node26</title>
<g id="a_node26"><a xlink:href="CheckConfig_8h.html" target="_top" xlink:title="QualityControl/CheckConfig.h">
<polygon fill="none" stroke="black" points="517.5,-123.5 517.5,-142.5 664.5,-142.5 664.5,-123.5 517.5,-123.5"/>
<text text-anchor="middle" x="591" y="-130.5" font-family="Helvetica,sans-Serif" font-size="10.00">QualityControl/CheckConfig.h</text>
</a>
</g>
</g>
<!-- Node13&#45;&gt;Node26 -->
<g id="edge43" class="edge"><title>Node13&#45;&gt;Node26</title>
<path fill="none" stroke="midnightblue" d="M944.827,-184.975C869.536,-174.128 739.723,-155.426 660.008,-143.942"/>
<polygon fill="midnightblue" stroke="midnightblue" points="660.46,-140.471 650.063,-142.509 659.462,-147.399 660.46,-140.471"/>
</g>
<!-- Node17&#45;&gt;Node5 -->
<g id="edge21" class="edge"><title>Node17&#45;&gt;Node5</title>
<path fill="none" stroke="midnightblue" d="M1034.8,-67.4751C1013.49,-57.4897 977.969,-40.8476 953.337,-29.3075"/>
<polygon fill="midnightblue" stroke="midnightblue" points="954.703,-26.0822 944.162,-25.0091 951.733,-32.4211 954.703,-26.0822"/>
</g>
<!-- Node17&#45;&gt;Node15 -->
<g id="edge22" class="edge"><title>Node17&#45;&gt;Node15</title>
<path fill="none" stroke="midnightblue" d="M1071.2,-67.4751C1092.63,-57.4329 1128.44,-40.6583 1153.08,-29.1113"/>
<polygon fill="midnightblue" stroke="midnightblue" points="1154.68,-32.2292 1162.25,-24.8173 1151.71,-25.8904 1154.68,-32.2292"/>
</g>
<!-- Node18 -->
<g id="node18" class="node"><title>Node18</title>
<polygon fill="none" stroke="#bfbfbf" points="1025,-6 1025,-25 1081,-25 1081,-6 1025,-6"/>
<text text-anchor="middle" x="1053" y="-13" font-family="Helvetica,sans-Serif" font-size="10.00">Rtypes.h</text>
</g>
<!-- Node17&#45;&gt;Node18 -->
<g id="edge20" class="edge"><title>Node17&#45;&gt;Node18</title>
<path fill="none" stroke="midnightblue" d="M1053,-67.4751C1053,-59.0803 1053,-45.9806 1053,-35.1631"/>
<polygon fill="midnightblue" stroke="midnightblue" points="1056.5,-35.0091 1053,-25.0091 1049.5,-35.0091 1056.5,-35.0091"/>
</g>
<!-- Node19&#45;&gt;Node15 -->
<g id="edge24" class="edge"><title>Node19&#45;&gt;Node15</title>
<path fill="none" stroke="midnightblue" d="M1395.6,-123.426C1392.87,-109.475 1385.48,-81.9255 1368,-67 1343.86,-46.3847 1253.9,-28.8303 1207.73,-20.9465"/>
<polygon fill="midnightblue" stroke="midnightblue" points="1208.23,-17.4815 1197.79,-19.2833 1207.08,-24.3856 1208.23,-17.4815"/>
</g>
<!-- Node19&#45;&gt;Node17 -->
<g id="edge27" class="edge"><title>Node19&#45;&gt;Node17</title>
<path fill="none" stroke="midnightblue" d="M1342.49,-123.444C1281.35,-113.846 1182.26,-98.2916 1117.36,-88.1037"/>
<polygon fill="midnightblue" stroke="midnightblue" points="1117.67,-84.6096 1107.25,-86.5164 1116.59,-91.5249 1117.67,-84.6096"/>
</g>
<!-- Node20 -->
<g id="node20" class="node"><title>Node20</title>
<polygon fill="none" stroke="#bfbfbf" points="1285.5,-6 1285.5,-25 1344.5,-25 1344.5,-6 1285.5,-6"/>
<text text-anchor="middle" x="1315" y="-13" font-family="Helvetica,sans-Serif" font-size="10.00">TObject.h</text>
</g>
<!-- Node19&#45;&gt;Node20 -->
<g id="edge25" class="edge"><title>Node19&#45;&gt;Node20</title>
<path fill="none" stroke="midnightblue" d="M1400.59,-123.321C1405.42,-110.173 1412.28,-84.8511 1402,-67 1391.71,-49.1221 1372.39,-36.9907 1354.57,-29.1091"/>
<polygon fill="midnightblue" stroke="midnightblue" points="1355.47,-25.6965 1344.89,-25.1582 1352.82,-32.1775 1355.47,-25.6965"/>
</g>
<!-- Node21 -->
<g id="node21" class="node"><title>Node21</title>
<polygon fill="none" stroke="#bfbfbf" points="1394,-6 1394,-25 1510,-25 1510,-6 1394,-6"/>
<text text-anchor="middle" x="1452" y="-13" font-family="Helvetica,sans-Serif" font-size="10.00">Common/Exceptions.h</text>
</g>
<!-- Node19&#45;&gt;Node21 -->
<g id="edge26" class="edge"><title>Node19&#45;&gt;Node21</title>
<path fill="none" stroke="midnightblue" d="M1408.48,-123.343C1418.49,-115.133 1432.53,-101.869 1440,-87 1448.09,-70.8932 1450.87,-50.3799 1451.75,-35.639"/>
<polygon fill="midnightblue" stroke="midnightblue" points="1455.26,-35.3673 1452.12,-25.2491 1448.27,-35.1183 1455.26,-35.3673"/>
</g>
<!-- Node22&#45;&gt;Node5 -->
<g id="edge29" class="edge"><title>Node22&#45;&gt;Node5</title>
<path fill="none" stroke="midnightblue" d="M1232.71,-67.4751C1157.2,-54.9254 1018.43,-31.8612 956.839,-21.6255"/>
<polygon fill="midnightblue" stroke="midnightblue" points="957.049,-18.1125 946.611,-19.9256 955.902,-25.0178 957.049,-18.1125"/>
</g>
<!-- Node22&#45;&gt;Node15 -->
<g id="edge30" class="edge"><title>Node22&#45;&gt;Node15</title>
<path fill="none" stroke="midnightblue" d="M1269.1,-67.4751C1252.03,-57.7106 1223.84,-41.5807 1203.74,-30.0808"/>
<polygon fill="midnightblue" stroke="midnightblue" points="1205.29,-26.9371 1194.87,-25.0091 1201.81,-33.013 1205.29,-26.9371"/>
</g>
<!-- Node22&#45;&gt;Node18 -->
<g id="edge31" class="edge"><title>Node22&#45;&gt;Node18</title>
<path fill="none" stroke="midnightblue" d="M1250.9,-67.4751C1208.66,-56.594 1135.73,-37.8086 1091.18,-26.3338"/>
<polygon fill="midnightblue" stroke="midnightblue" points="1091.87,-22.8977 1081.31,-23.7926 1090.12,-29.6764 1091.87,-22.8977"/>
</g>
<!-- Node22&#45;&gt;Node20 -->
<g id="edge32" class="edge"><title>Node22&#45;&gt;Node20</title>
<path fill="none" stroke="midnightblue" d="M1288.44,-67.4751C1292.95,-58.8152 1300.07,-45.1486 1305.81,-34.1453"/>
<polygon fill="midnightblue" stroke="midnightblue" points="1309.05,-35.4948 1310.57,-25.0091 1302.84,-32.2604 1309.05,-35.4948"/>
</g>
<!-- Node22&#45;&gt;Node21 -->
<g id="edge33" class="edge"><title>Node22&#45;&gt;Node21</title>
<path fill="none" stroke="midnightblue" d="M1308.07,-67.4751C1337.01,-57.2246 1385.76,-39.9593 1418.4,-28.3994"/>
<polygon fill="midnightblue" stroke="midnightblue" points="1419.72,-31.6468 1427.97,-25.0091 1417.38,-25.0484 1419.72,-31.6468"/>
</g>
<!-- Node23&#45;&gt;Node5 -->
<g id="edge35" class="edge"><title>Node23&#45;&gt;Node5</title>
<path fill="none" stroke="midnightblue" d="M998.137,-123.319C985.32,-104.339 954.599,-58.848 937.675,-33.7882"/>
<polygon fill="midnightblue" stroke="midnightblue" points="940.428,-31.6105 931.931,-25.282 934.627,-35.5281 940.428,-31.6105"/>
</g>
<!-- Node23&#45;&gt;Node15 -->
<g id="edge36" class="edge"><title>Node23&#45;&gt;Node15</title>
<path fill="none" stroke="midnightblue" d="M1040.17,-123.466C1064.83,-116.444 1097.34,-104.727 1122,-87 1142.03,-72.5955 1159.15,-49.6368 1169.49,-33.8559"/>
<polygon fill="midnightblue" stroke="midnightblue" points="1172.64,-35.4231 1175.02,-25.0984 1166.72,-31.6872 1172.64,-35.4231"/>
</g>
<!-- Node23&#45;&gt;Node16 -->
<g id="edge37" class="edge"><title>Node23&#45;&gt;Node16</title>
<path fill="none" stroke="midnightblue" d="M948.643,-123.482C893.735,-114.969 806.918,-101.337 721.835,-87.1167"/>
<polygon fill="midnightblue" stroke="midnightblue" points="722.18,-83.6257 711.739,-85.4251 721.023,-90.5295 722.18,-83.6257"/>
</g>
<!-- Node23&#45;&gt;Node17 -->
<g id="edge40" class="edge"><title>Node23&#45;&gt;Node17</title>
<path fill="none" stroke="midnightblue" d="M1012.09,-123.083C1019.16,-115.298 1029.59,-103.801 1038.15,-94.3665"/>
<polygon fill="midnightblue" stroke="midnightblue" points="1040.93,-96.5087 1045.06,-86.7511 1035.75,-91.8047 1040.93,-96.5087"/>
</g>
<!-- Node23&#45;&gt;Node18 -->
<g id="edge38" class="edge"><title>Node23&#45;&gt;Node18</title>
<path fill="none" stroke="midnightblue" d="M996.976,-123.24C987.609,-110.418 973.277,-86.0034 983,-67 991.479,-50.4286 1008.21,-38.049 1023.19,-29.6948"/>
<polygon fill="midnightblue" stroke="midnightblue" points="1024.94,-32.7291 1032.2,-25.0119 1021.71,-26.5178 1024.94,-32.7291"/>
</g>
<!-- Node23&#45;&gt;Node22 -->
<g id="edge39" class="edge"><title>Node23&#45;&gt;Node22</title>
<path fill="none" stroke="midnightblue" d="M1048.37,-123.444C1097.62,-113.944 1177.13,-98.611 1229.97,-88.4198"/>
<polygon fill="midnightblue" stroke="midnightblue" points="1230.68,-91.8469 1239.84,-86.5164 1229.36,-84.9735 1230.68,-91.8469"/>
</g>
<!-- Node25 -->
<g id="node25" class="node"><title>Node25</title>
<polygon fill="none" stroke="#bfbfbf" points="730,-67.5 730,-86.5 860,-86.5 860,-67.5 730,-67.5"/>
<text text-anchor="middle" x="795" y="-74.5" font-family="Helvetica,sans-Serif" font-size="10.00">InfoLogger/InfoLogger.hxx</text>
</g>
<!-- Node24&#45;&gt;Node25 -->
<g id="edge42" class="edge"><title>Node24&#45;&gt;Node25</title>
<path fill="none" stroke="midnightblue" d="M795,-123.083C795,-116.006 795,-105.861 795,-96.9865"/>
<polygon fill="midnightblue" stroke="midnightblue" points="798.5,-96.751 795,-86.7511 791.5,-96.7511 798.5,-96.751"/>
</g>
<!-- Node26&#45;&gt;Node5 -->
<g id="edge44" class="edge"><title>Node26&#45;&gt;Node5</title>
<path fill="none" stroke="midnightblue" d="M592.097,-123.235C594.373,-109.011 600.995,-81.0762 619,-67 661.715,-33.6052 826.239,-21.5306 895.252,-17.8746"/>
<polygon fill="midnightblue" stroke="midnightblue" points="895.664,-21.3583 905.475,-17.3581 895.311,-14.3672 895.664,-21.3583"/>
</g>
<!-- Node26&#45;&gt;Node16 -->
<g id="edge45" class="edge"><title>Node26&#45;&gt;Node16</title>
<path fill="none" stroke="midnightblue" d="M603.693,-123.324C615.901,-114.979 634.578,-102.212 649.003,-92.3524"/>
<polygon fill="midnightblue" stroke="midnightblue" points="651.058,-95.1871 657.339,-86.6545 647.108,-89.4082 651.058,-95.1871"/>
</g>
<!-- Node27&#45;&gt;Node5 -->
<g id="edge47" class="edge"><title>Node27&#45;&gt;Node5</title>
<path fill="none" stroke="midnightblue" d="M1515.19,-72.3446C1408.17,-66.2551 1195.49,-52.5333 1016,-31 996.22,-28.627 974.133,-25.082 956.789,-22.0912"/>
<polygon fill="midnightblue" stroke="midnightblue" points="957.12,-18.596 946.666,-20.3161 955.911,-25.4908 957.12,-18.596"/>
</g>
<!-- Node27&#45;&gt;Node21 -->
<g id="edge49" class="edge"><title>Node27&#45;&gt;Node21</title>
<path fill="none" stroke="midnightblue" d="M1565.09,-67.4751C1542.84,-57.4455 1505.69,-40.7002 1480.07,-29.1546"/>
<polygon fill="midnightblue" stroke="midnightblue" points="1481.43,-25.9277 1470.88,-25.0091 1478.56,-32.3094 1481.43,-25.9277"/>
</g>
<!-- Node28 -->
<g id="node28" class="node"><title>Node28</title>
<polygon fill="none" stroke="#bfbfbf" points="1528.5,-0.5 1528.5,-30.5 1663.5,-30.5 1663.5,-0.5 1528.5,-0.5"/>
<text text-anchor="start" x="1536.5" y="-18.5" font-family="Helvetica,sans-Serif" font-size="10.00">Configuration/Configuration</text>
<text text-anchor="middle" x="1596" y="-7.5" font-family="Helvetica,sans-Serif" font-size="10.00">Factory.h</text>
</g>
<!-- Node27&#45;&gt;Node28 -->
<g id="edge48" class="edge"><title>Node27&#45;&gt;Node28</title>
<path fill="none" stroke="midnightblue" d="M1585.72,-67.4751C1587.15,-60.3957 1589.25,-49.9705 1591.18,-40.3896"/>
<polygon fill="midnightblue" stroke="midnightblue" points="1594.63,-41.0176 1593.17,-30.523 1587.76,-39.6336 1594.63,-41.0176"/>
</g>
<!-- Node29&#45;&gt;Node5 -->
<g id="edge51" class="edge"><title>Node29&#45;&gt;Node5</title>
<path fill="none" stroke="midnightblue" d="M1449.4,-192.83C1294.93,-190.667 951.461,-181.529 916,-143 888.748,-113.391 905.478,-61.6312 917.299,-34.4061"/>
<polygon fill="midnightblue" stroke="midnightblue" points="920.501,-35.8192 921.487,-25.2704 914.138,-32.9019 920.501,-35.8192"/>
</g>
<!-- Node29&#45;&gt;Node9 -->
<g id="edge53" class="edge"><title>Node29&#45;&gt;Node9</title>
<path fill="none" stroke="midnightblue" d="M1598.77,-183.505C1659.86,-174.855 1748.61,-161.188 1834.86,-143.075"/>
<polygon fill="midnightblue" stroke="midnightblue" points="1835.76,-146.462 1844.82,-140.962 1834.31,-139.614 1835.76,-146.462"/>
</g>
<!-- Node29&#45;&gt;Node10 -->
<g id="edge52" class="edge"><title>Node29&#45;&gt;Node10</title>
<path fill="none" stroke="midnightblue" d="M1455.07,-179.488C1406.39,-169.517 1339.64,-155.69 1281,-143 1279.75,-142.729 1278.47,-142.452 1277.19,-142.17"/>
<polygon fill="midnightblue" stroke="midnightblue" points="1277.76,-138.711 1267.24,-139.968 1276.24,-145.546 1277.76,-138.711"/>
</g>
<!-- Node29&#45;&gt;Node19 -->
<g id="edge58" class="edge"><title>Node29&#45;&gt;Node19</title>
<path fill="none" stroke="midnightblue" d="M1493.9,-179.399C1472.88,-169.55 1445.03,-156.501 1424.58,-146.922"/>
<polygon fill="midnightblue" stroke="midnightblue" points="1426.02,-143.731 1415.48,-142.658 1423.05,-150.07 1426.02,-143.731"/>
</g>
<!-- Node29&#45;&gt;Node22 -->
<g id="edge57" class="edge"><title>Node29&#45;&gt;Node22</title>
<path fill="none" stroke="midnightblue" d="M1449.36,-191.685C1405.32,-187.009 1350.96,-174.524 1313,-143 1298.91,-131.299 1291.41,-111.358 1287.6,-96.6412"/>
<polygon fill="midnightblue" stroke="midnightblue" points="1290.96,-95.6192 1285.35,-86.6284 1284.13,-97.1521 1290.96,-95.6192"/>
</g>
<!-- Node30 -->
<g id="node30" class="node"><title>Node30</title>
<polygon fill="none" stroke="#bfbfbf" points="1489.5,-123.5 1489.5,-142.5 1558.5,-142.5 1558.5,-123.5 1489.5,-123.5"/>
<text text-anchor="middle" x="1524" y="-130.5" font-family="Helvetica,sans-Serif" font-size="10.00">TObjArray.h</text>
</g>
<!-- Node29&#45;&gt;Node30 -->
<g id="edge54" class="edge"><title>Node29&#45;&gt;Node30</title>
<path fill="none" stroke="midnightblue" d="M1524,-179.399C1524,-171.466 1524,-161.458 1524,-152.858"/>
<polygon fill="midnightblue" stroke="midnightblue" points="1527.5,-152.658 1524,-142.658 1520.5,-152.658 1527.5,-152.658"/>
</g>
<!-- Node31 -->
<g id="node31" class="node"><title>Node31</title>
<polygon fill="none" stroke="#bfbfbf" points="1577,-123.5 1577,-142.5 1675,-142.5 1675,-123.5 1577,-123.5"/>
<text text-anchor="middle" x="1626" y="-130.5" font-family="Helvetica,sans-Serif" font-size="10.00">Framework/Task.h</text>
</g>
<!-- Node29&#45;&gt;Node31 -->
<g id="edge55" class="edge"><title>Node29&#45;&gt;Node31</title>
<path fill="none" stroke="midnightblue" d="M1548.17,-179.399C1564.52,-169.862 1586.01,-157.325 1602.27,-147.842"/>
<polygon fill="midnightblue" stroke="midnightblue" points="1604.28,-150.72 1611.16,-142.658 1600.76,-144.673 1604.28,-150.72"/>
</g>
<!-- Node32 -->
<g id="node32" class="node"><title>Node32</title>
<polygon fill="none" stroke="#bfbfbf" points="1693,-123.5 1693,-142.5 1827,-142.5 1827,-123.5 1693,-123.5"/>
<text text-anchor="middle" x="1760" y="-130.5" font-family="Helvetica,sans-Serif" font-size="10.00">Framework/DataRefUtils.h</text>
</g>
<!-- Node29&#45;&gt;Node32 -->
<g id="edge56" class="edge"><title>Node29&#45;&gt;Node32</title>
<path fill="none" stroke="midnightblue" d="M1579.63,-179.475C1621.41,-168.941 1677.83,-154.716 1716.38,-144.998"/>
<polygon fill="midnightblue" stroke="midnightblue" points="1717.42,-148.345 1726.26,-142.506 1715.71,-141.557 1717.42,-148.345"/>
</g>
</g>
</svg>
        <g id="navigator" transform="translate(0 0)" fill="#404254">
                <rect fill="#f2f5e9" fill-opacity="0.5" stroke="#606060" stroke-width=".5" x="0" y="0" width="60" height="60"/>
                <use id="zoomplus" xlink:href="#zoomPlus" x="17" y="9" onmousedown="handleZoom(evt,'in')"/>
                <use id="zoomminus" xlink:href="#zoomMin" x="42" y="9" onmousedown="handleZoom(evt,'out')"/>
                <use id="reset" xlink:href="#resetDef" x="30" y="36" onmousedown="handleReset()"/>
                <g id="arrowUp" xlink:href="#dirArrow" transform="translate(30 24)" onmousedown="handlePan(0,-1)">
                  <use xlink:href="#rim" fill="#404040">
                        <set attributeName="fill" to="#808080" begin="arrowUp.mouseover" end="arrowUp.mouseout"/>
                  </use>
                  <path fill="none" stroke="white" stroke-width="1.5" d="M0,-3.0v7 M-2.5,-0.5L0,-3.0L2.5,-0.5"/>
                </g>
                <g id="arrowRight" xlink:href="#dirArrow" transform="rotate(90) translate(36 -43)" onmousedown="handlePan(1,0)">
                  <use xlink:href="#rim" fill="#404040">
                        <set attributeName="fill" to="#808080" begin="arrowRight.mouseover" end="arrowRight.mouseout"/>
                  </use>
                  <path fill="none" stroke="white" stroke-width="1.5" d="M0,-3.0v7 M-2.5,-0.5L0,-3.0L2.5,-0.5"/>
                </g>
                <g id="arrowDown" xlink:href="#dirArrow" transform="rotate(180) translate(-30 -48)" onmousedown="handlePan(0,1)">
                  <use xlink:href="#rim" fill="#404040">
                        <set attributeName="fill" to="#808080" begin="arrowDown.mouseover" end="arrowDown.mouseout"/>
                  </use>
                  <path fill="none" stroke="white" stroke-width="1.5" d="M0,-3.0v7 M-2.5,-0.5L0,-3.0L2.5,-0.5"/>
                </g>
                <g id="arrowLeft" xlink:href="#dirArrow" transform="rotate(270) translate(-36 17)" onmousedown="handlePan(-1,0)">
                  <use xlink:href="#rim" fill="#404040">
                        <set attributeName="fill" to="#808080" begin="arrowLeft.mouseover" end="arrowLeft.mouseout"/>
                  </use>
                  <path fill="none" stroke="white" stroke-width="1.5" d="M0,-3.0v7 M-2.5,-0.5L0,-3.0L2.5,-0.5"/>
                </g>
        </g>
        <svg viewBox="0 0 15 15" width="100%" height="30px" preserveAspectRatio="xMaxYMin meet">
         <g id="arrow_out" transform="scale(0.3 0.3)">
          <a xlink:href="runITS_8cxx__incl_org.svg" target="_base">
           <rect id="button" ry="5" rx="5" y="6" x="6" height="38" width="38"
                fill="#f2f5e9" fill-opacity="0.5" stroke="#606060" stroke-width="1.0"/>
           <path id="arrow"
             d="M 11.500037,31.436501 C 11.940474,20.09759 22.043105,11.32322 32.158766,21.979434 L 37.068811,17.246167 C 37.068811,17.246167 37.088388,32 37.088388,32 L 22.160133,31.978069 C 22.160133,31.978069 26.997745,27.140456 26.997745,27.140456 C 18.528582,18.264221 13.291696,25.230495 11.500037,31.436501 z"
             style="fill:#404040;"/>
          </a>
         </g>
        </svg>
</svg>
