<?xml version="1.0" encoding="UTF-8" standalone="no"?>
<!DOCTYPE svg PUBLIC "-//W3C//DTD SVG 1.1//EN"
 "http://www.w3.org/Graphics/SVG/1.1/DTD/svg11.dtd">
<!-- Generated by graphviz version 2.38.0 (20140413.2041)
 -->
<!-- Title: Framework/src/runPostProcessingOCC.cxx Pages: 1 -->
<svg width="1491pt" height="352pt"
 viewBox="0.00 0.00 1490.50 352.00" xmlns="http://www.w3.org/2000/svg" xmlns:xlink="http://www.w3.org/1999/xlink">
<g id="graph0" class="graph" transform="scale(1 1) rotate(0) translate(4 348)">
<title>Framework/src/runPostProcessingOCC.cxx</title>
<!-- Node1 -->
<g id="node1" class="node"><title>Node1</title>
<polygon fill="#bfbfbf" stroke="black" points="950.5,-313.5 950.5,-343.5 1117.5,-343.5 1117.5,-313.5 950.5,-313.5"/>
<text text-anchor="start" x="958.5" y="-331.5" font-family="Helvetica,sans-Serif" font-size="10.00">Framework/src/runPostProcessing</text>
<text text-anchor="middle" x="1034" y="-320.5" font-family="Helvetica,sans-Serif" font-size="10.00">OCC.cxx</text>
</g>
<!-- Node2 -->
<g id="node2" class="node"><title>Node2</title>
<g id="a_node2"><a xlink:href="PostProcessingRunner_8h.html" target="_top" xlink:title="QualityControl/PostProcessing\lRunner.h">
<polygon fill="none" stroke="black" points="372.5,-246.5 372.5,-276.5 523.5,-276.5 523.5,-246.5 372.5,-246.5"/>
<text text-anchor="start" x="380.5" y="-264.5" font-family="Helvetica,sans-Serif" font-size="10.00">QualityControl/PostProcessing</text>
<text text-anchor="middle" x="448" y="-253.5" font-family="Helvetica,sans-Serif" font-size="10.00">Runner.h</text>
</a>
</g>
</g>
<!-- Node1&#45;&gt;Node2 -->
<g id="edge1" class="edge"><title>Node1&#45;&gt;Node2</title>
<path fill="none" stroke="midnightblue" d="M950.352,-318.222C839.649,-305.942 645.484,-284.405 533.741,-272.01"/>
<polygon fill="midnightblue" stroke="midnightblue" points="533.846,-268.501 523.521,-270.877 533.074,-275.458 533.846,-268.501"/>
</g>
<!-- Node21 -->
<g id="node21" class="node"><title>Node21</title>
<g id="a_node21"><a xlink:href="QcInfoLogger_8h.html" target="_top" xlink:title="QualityControl/QcInfoLogger.h">
<polygon fill="none" stroke="black" points="701.5,-252 701.5,-271 850.5,-271 850.5,-252 701.5,-252"/>
<text text-anchor="middle" x="776" y="-259" font-family="Helvetica,sans-Serif" font-size="10.00">QualityControl/QcInfoLogger.h</text>
</a>
</g>
</g>
<!-- Node1&#45;&gt;Node21 -->
<g id="edge36" class="edge"><title>Node1&#45;&gt;Node21</title>
<path fill="none" stroke="midnightblue" d="M978.335,-313.476C930.785,-301.496 863.327,-284.501 819.614,-273.488"/>
<polygon fill="midnightblue" stroke="midnightblue" points="820.404,-270.078 809.852,-271.029 818.694,-276.866 820.404,-270.078"/>
</g>
<!-- Node23 -->
<g id="node23" class="node"><title>Node23</title>
<polygon fill="none" stroke="#bfbfbf" points="869,-252 869,-271 949,-271 949,-252 869,-252"/>
<text text-anchor="middle" x="909" y="-259" font-family="Helvetica,sans-Serif" font-size="10.00">OccInstance.h</text>
</g>
<!-- Node1&#45;&gt;Node23 -->
<g id="edge38" class="edge"><title>Node1&#45;&gt;Node23</title>
<path fill="none" stroke="midnightblue" d="M1006.88,-313.396C985.332,-302.193 955.425,-286.641 934.356,-275.685"/>
<polygon fill="midnightblue" stroke="midnightblue" points="935.847,-272.515 925.36,-271.007 932.617,-278.726 935.847,-272.515"/>
</g>
<!-- Node24 -->
<g id="node24" class="node"><title>Node24</title>
<polygon fill="none" stroke="#bfbfbf" points="967,-252 967,-271 1101,-271 1101,-252 967,-252"/>
<text text-anchor="middle" x="1034" y="-259" font-family="Helvetica,sans-Serif" font-size="10.00">RuntimeControlledObject.h</text>
</g>
<!-- Node1&#45;&gt;Node24 -->
<g id="edge39" class="edge"><title>Node1&#45;&gt;Node24</title>
<path fill="none" stroke="midnightblue" d="M1034,-313.396C1034,-304.064 1034,-291.714 1034,-281.517"/>
<polygon fill="midnightblue" stroke="midnightblue" points="1037.5,-281.195 1034,-271.195 1030.5,-281.195 1037.5,-281.195"/>
</g>
<!-- Node25 -->
<g id="node25" class="node"><title>Node25</title>
<polygon fill="none" stroke="#bfbfbf" points="1119,-252 1119,-271 1253,-271 1253,-252 1119,-252"/>
<text text-anchor="middle" x="1186" y="-259" font-family="Helvetica,sans-Serif" font-size="10.00">boost/program_options.hpp</text>
</g>
<!-- Node1&#45;&gt;Node25 -->
<g id="edge40" class="edge"><title>Node1&#45;&gt;Node25</title>
<path fill="none" stroke="midnightblue" d="M1066.98,-313.396C1093.77,-301.941 1131.19,-285.938 1156.88,-274.952"/>
<polygon fill="midnightblue" stroke="midnightblue" points="1158.29,-278.157 1166.11,-271.007 1155.54,-271.721 1158.29,-278.157"/>
</g>
<!-- Node26 -->
<g id="node26" class="node"><title>Node26</title>
<polygon fill="none" stroke="#bfbfbf" points="1271,-252 1271,-271 1363,-271 1363,-252 1271,-252"/>
<text text-anchor="middle" x="1317" y="-259" font-family="Helvetica,sans-Serif" font-size="10.00">Common/Timer.h</text>
</g>
<!-- Node1&#45;&gt;Node26 -->
<g id="edge41" class="edge"><title>Node1&#45;&gt;Node26</title>
<path fill="none" stroke="midnightblue" d="M1100.51,-313.5C1146.07,-303.729 1207.82,-290.136 1262,-277 1266.38,-275.937 1270.95,-274.792 1275.5,-273.628"/>
<polygon fill="midnightblue" stroke="midnightblue" points="1276.55,-276.972 1285.35,-271.073 1274.79,-270.196 1276.55,-276.972"/>
</g>
<!-- Node27 -->
<g id="node27" class="node"><title>Node27</title>
<polygon fill="none" stroke="#bfbfbf" points="1381.5,-246.5 1381.5,-276.5 1482.5,-276.5 1482.5,-246.5 1381.5,-246.5"/>
<text text-anchor="start" x="1389.5" y="-264.5" font-family="Helvetica,sans-Serif" font-size="10.00">boost/property_tree</text>
<text text-anchor="middle" x="1432" y="-253.5" font-family="Helvetica,sans-Serif" font-size="10.00">/ptree.hpp</text>
</g>
<!-- Node1&#45;&gt;Node27 -->
<g id="edge42" class="edge"><title>Node1&#45;&gt;Node27</title>
<path fill="none" stroke="midnightblue" d="M1117.7,-317.1C1183.9,-308.386 1278.86,-294.814 1371.24,-277.04"/>
<polygon fill="midnightblue" stroke="midnightblue" points="1372.18,-280.423 1381.33,-275.08 1370.85,-273.551 1372.18,-280.423"/>
</g>
<!-- Node3 -->
<g id="node3" class="node"><title>Node3</title>
<polygon fill="none" stroke="#bfbfbf" points="1041,-118 1041,-137 1093,-137 1093,-118 1041,-118"/>
<text text-anchor="middle" x="1067" y="-125" font-family="Helvetica,sans-Serif" font-size="10.00">memory</text>
</g>
<!-- Node2&#45;&gt;Node3 -->
<g id="edge2" class="edge"><title>Node2&#45;&gt;Node3</title>
<path fill="none" stroke="midnightblue" d="M523.747,-259.87C591.713,-256.762 692.81,-245.736 773,-210 792.909,-201.128 791.127,-187.952 811,-179 901.336,-138.306 935.579,-169.671 1031,-143 1033.44,-142.318 1035.94,-141.523 1038.43,-140.663"/>
<polygon fill="midnightblue" stroke="midnightblue" points="1039.71,-143.921 1047.84,-137.127 1037.25,-137.369 1039.71,-143.921"/>
</g>
<!-- Node4 -->
<g id="node4" class="node"><title>Node4</title>
<polygon fill="none" stroke="#bfbfbf" points="0,-118 0,-137 146,-137 146,-118 0,-118"/>
<text text-anchor="middle" x="73" y="-125" font-family="Helvetica,sans-Serif" font-size="10.00">Framework/ServiceRegistry.h</text>
</g>
<!-- Node2&#45;&gt;Node4 -->
<g id="edge3" class="edge"><title>Node2&#45;&gt;Node4</title>
<path fill="none" stroke="midnightblue" d="M372.224,-257.426C314.19,-252.606 233.421,-240.444 169,-210 135.424,-194.132 104.139,-163.44 86.8877,-144.582"/>
<polygon fill="midnightblue" stroke="midnightblue" points="89.4581,-142.206 80.189,-137.074 84.2349,-146.866 89.4581,-142.206"/>
</g>
<!-- Node5 -->
<g id="node5" class="node"><title>Node5</title>
<polygon fill="none" stroke="#bfbfbf" points="345.5,-112.5 345.5,-142.5 446.5,-142.5 446.5,-112.5 345.5,-112.5"/>
<text text-anchor="start" x="353.5" y="-130.5" font-family="Helvetica,sans-Serif" font-size="10.00">boost/property_tree</text>
<text text-anchor="middle" x="396" y="-119.5" font-family="Helvetica,sans-Serif" font-size="10.00">/ptree_fwd.hpp</text>
</g>
<!-- Node2&#45;&gt;Node5 -->
<g id="edge4" class="edge"><title>Node2&#45;&gt;Node5</title>
<path fill="none" stroke="midnightblue" d="M436.735,-246.248C429.562,-236.531 420.598,-223.097 415,-210 407.084,-191.479 402.169,-169.117 399.327,-152.505"/>
<polygon fill="midnightblue" stroke="midnightblue" points="402.767,-151.848 397.748,-142.518 395.853,-152.942 402.767,-151.848"/>
</g>
<!-- Node6 -->
<g id="node6" class="node"><title>Node6</title>
<g id="a_node6"><a xlink:href="PostProcessingInterface_8h.html" target="_top" xlink:title="QualityControl/PostProcessing\lInterface.h">
<polygon fill="none" stroke="black" points="178.5,-179.5 178.5,-209.5 329.5,-209.5 329.5,-179.5 178.5,-179.5"/>
<text text-anchor="start" x="186.5" y="-197.5" font-family="Helvetica,sans-Serif" font-size="10.00">QualityControl/PostProcessing</text>
<text text-anchor="middle" x="254" y="-186.5" font-family="Helvetica,sans-Serif" font-size="10.00">Interface.h</text>
</a>
</g>
</g>
<!-- Node2&#45;&gt;Node6 -->
<g id="edge5" class="edge"><title>Node2&#45;&gt;Node6</title>
<path fill="none" stroke="midnightblue" d="M405.905,-246.396C376.542,-236.558 337.172,-223.367 305.87,-212.879"/>
<polygon fill="midnightblue" stroke="midnightblue" points="306.607,-209.435 296.013,-209.577 304.383,-216.072 306.607,-209.435"/>
</g>
<!-- Node8 -->
<g id="node8" class="node"><title>Node8</title>
<g id="a_node8"><a xlink:href="Triggers_8h.html" target="_top" xlink:title="QualityControl/Triggers.h">
<polygon fill="none" stroke="black" points="202.5,-118 202.5,-137 327.5,-137 327.5,-118 202.5,-118"/>
<text text-anchor="middle" x="265" y="-125" font-family="Helvetica,sans-Serif" font-size="10.00">QualityControl/Triggers.h</text>
</a>
</g>
</g>
<!-- Node2&#45;&gt;Node8 -->
<g id="edge16" class="edge"><title>Node2&#45;&gt;Node8</title>
<path fill="none" stroke="midnightblue" d="M429.451,-246.471C407.693,-230.081 370.465,-202.247 338,-179 320.672,-166.592 300.762,-152.852 286.116,-142.841"/>
<polygon fill="midnightblue" stroke="midnightblue" points="287.981,-139.877 277.747,-137.134 284.038,-145.66 287.981,-139.877"/>
</g>
<!-- Node10 -->
<g id="node10" class="node"><title>Node10</title>
<g id="a_node10"><a xlink:href="PostProcessingConfig_8h.html" target="_top" xlink:title="QualityControl/PostProcessing\lConfig.h">
<polygon fill="none" stroke="black" points="424.5,-179.5 424.5,-209.5 575.5,-209.5 575.5,-179.5 424.5,-179.5"/>
<text text-anchor="start" x="432.5" y="-197.5" font-family="Helvetica,sans-Serif" font-size="10.00">QualityControl/PostProcessing</text>
<text text-anchor="middle" x="500" y="-186.5" font-family="Helvetica,sans-Serif" font-size="10.00">Config.h</text>
</a>
</g>
</g>
<!-- Node2&#45;&gt;Node10 -->
<g id="edge12" class="edge"><title>Node2&#45;&gt;Node10</title>
<path fill="none" stroke="midnightblue" d="M459.283,-246.396C466.029,-237.963 474.746,-227.067 482.383,-217.522"/>
<polygon fill="midnightblue" stroke="midnightblue" points="485.225,-219.572 488.739,-209.577 479.759,-215.199 485.225,-219.572"/>
</g>
<!-- Node12 -->
<g id="node12" class="node"><title>Node12</title>
<g id="a_node12"><a xlink:href="DatabaseInterface_8h.html" target="_top" xlink:title="QualityControl/DatabaseInterface.h">
<polygon fill="none" stroke="black" points="594,-185 594,-204 764,-204 764,-185 594,-185"/>
<text text-anchor="middle" x="679" y="-192" font-family="Helvetica,sans-Serif" font-size="10.00">QualityControl/DatabaseInterface.h</text>
</a>
</g>
</g>
<!-- Node2&#45;&gt;Node12 -->
<g id="edge17" class="edge"><title>Node2&#45;&gt;Node12</title>
<path fill="none" stroke="midnightblue" d="M497.839,-246.476C540.055,-234.597 599.796,-217.787 638.957,-206.768"/>
<polygon fill="midnightblue" stroke="midnightblue" points="640.012,-210.107 648.69,-204.029 638.116,-203.368 640.012,-210.107"/>
</g>
<!-- Node6&#45;&gt;Node4 -->
<g id="edge7" class="edge"><title>Node6&#45;&gt;Node4</title>
<path fill="none" stroke="midnightblue" d="M214.726,-179.396C182.405,-167.789 137.087,-151.515 106.469,-140.519"/>
<polygon fill="midnightblue" stroke="midnightblue" points="107.283,-137.093 96.6887,-137.007 104.917,-143.681 107.283,-137.093"/>
</g>
<!-- Node6&#45;&gt;Node5 -->
<g id="edge8" class="edge"><title>Node6&#45;&gt;Node5</title>
<path fill="none" stroke="midnightblue" d="M284.812,-179.396C305.653,-169.856 333.382,-157.163 355.935,-146.84"/>
<polygon fill="midnightblue" stroke="midnightblue" points="357.612,-149.921 365.248,-142.577 354.699,-143.556 357.612,-149.921"/>
</g>
<!-- Node7 -->
<g id="node7" class="node"><title>Node7</title>
<polygon fill="none" stroke="#bfbfbf" points="493.5,-0.5 493.5,-19.5 534.5,-19.5 534.5,-0.5 493.5,-0.5"/>
<text text-anchor="middle" x="514" y="-7.5" font-family="Helvetica,sans-Serif" font-size="10.00">string</text>
</g>
<!-- Node6&#45;&gt;Node7 -->
<g id="edge6" class="edge"><title>Node6&#45;&gt;Node7</title>
<path fill="none" stroke="midnightblue" d="M227.858,-179.371C214.795,-170.757 200.256,-158.427 193,-143 175.399,-105.578 191.79,-79.236 226,-56 267.539,-27.7857 417.747,-16.2727 483.18,-12.5223"/>
<polygon fill="midnightblue" stroke="midnightblue" points="483.493,-16.0105 493.286,-11.9666 483.109,-9.02103 483.493,-16.0105"/>
</g>
<!-- Node6&#45;&gt;Node8 -->
<g id="edge9" class="edge"><title>Node6&#45;&gt;Node8</title>
<path fill="none" stroke="midnightblue" d="M256.387,-179.396C257.983,-169.963 260.101,-157.448 261.837,-147.189"/>
<polygon fill="midnightblue" stroke="midnightblue" points="265.311,-147.638 263.529,-137.195 258.409,-146.47 265.311,-147.638"/>
</g>
<!-- Node8&#45;&gt;Node7 -->
<g id="edge10" class="edge"><title>Node8&#45;&gt;Node7</title>
<path fill="none" stroke="midnightblue" d="M283.715,-117.819C327.173,-97.6607 435.099,-47.5988 486.256,-23.8693"/>
<polygon fill="midnightblue" stroke="midnightblue" points="487.808,-27.0075 495.407,-19.6245 484.863,-20.6574 487.808,-27.0075"/>
</g>
<!-- Node9 -->
<g id="node9" class="node"><title>Node9</title>
<polygon fill="none" stroke="#bfbfbf" points="235.5,-56.5 235.5,-75.5 294.5,-75.5 294.5,-56.5 235.5,-56.5"/>
<text text-anchor="middle" x="265" y="-63.5" font-family="Helvetica,sans-Serif" font-size="10.00">functional</text>
</g>
<!-- Node8&#45;&gt;Node9 -->
<g id="edge11" class="edge"><title>Node8&#45;&gt;Node9</title>
<path fill="none" stroke="midnightblue" d="M265,-117.975C265,-109.58 265,-96.4806 265,-85.6631"/>
<polygon fill="midnightblue" stroke="midnightblue" points="268.5,-85.5091 265,-75.5091 261.5,-85.5091 268.5,-85.5091"/>
</g>
<!-- Node10&#45;&gt;Node5 -->
<g id="edge15" class="edge"><title>Node10&#45;&gt;Node5</title>
<path fill="none" stroke="midnightblue" d="M477.434,-179.396C462.715,-170.197 443.305,-158.066 427.127,-147.955"/>
<polygon fill="midnightblue" stroke="midnightblue" points="428.857,-144.909 418.522,-142.577 425.147,-150.845 428.857,-144.909"/>
</g>
<!-- Node10&#45;&gt;Node7 -->
<g id="edge14" class="edge"><title>Node10&#45;&gt;Node7</title>
<path fill="none" stroke="midnightblue" d="M497.871,-179.391C496.456,-169.285 494.73,-155.339 494,-143 493.186,-129.246 492.655,-125.712 494,-112 496.87,-82.7301 504.312,-49.3643 509.264,-29.2578"/>
<polygon fill="midnightblue" stroke="midnightblue" points="512.657,-30.1146 511.714,-19.5619 505.871,-28.3998 512.657,-30.1146"/>
</g>
<!-- Node11 -->
<g id="node11" class="node"><title>Node11</title>
<polygon fill="none" stroke="#bfbfbf" points="503,-118 503,-137 547,-137 547,-118 503,-118"/>
<text text-anchor="middle" x="525" y="-125" font-family="Helvetica,sans-Serif" font-size="10.00">vector</text>
</g>
<!-- Node10&#45;&gt;Node11 -->
<g id="edge13" class="edge"><title>Node10&#45;&gt;Node11</title>
<path fill="none" stroke="midnightblue" d="M505.425,-179.396C509.13,-169.763 514.071,-156.914 518.063,-146.537"/>
<polygon fill="midnightblue" stroke="midnightblue" points="521.333,-147.784 521.656,-137.195 514.799,-145.272 521.333,-147.784"/>
</g>
<!-- Node12&#45;&gt;Node3 -->
<g id="edge19" class="edge"><title>Node12&#45;&gt;Node3</title>
<path fill="none" stroke="midnightblue" d="M736.84,-184.988C750.346,-183.012 764.676,-180.924 778,-179 890.412,-162.77 921.302,-172.431 1031,-143 1033.51,-142.328 1036.07,-141.53 1038.62,-140.659"/>
<polygon fill="midnightblue" stroke="midnightblue" points="1040.1,-143.842 1048.24,-137.053 1037.64,-137.288 1040.1,-143.842"/>
</g>
<!-- Node12&#45;&gt;Node7 -->
<g id="edge18" class="edge"><title>Node12&#45;&gt;Node7</title>
<path fill="none" stroke="midnightblue" d="M658.571,-184.867C640.07,-176.292 612.895,-161.73 594,-143 559.39,-108.692 533.581,-56.5142 521.535,-29.169"/>
<polygon fill="midnightblue" stroke="midnightblue" points="524.63,-27.5069 517.477,-19.6919 518.195,-30.2623 524.63,-27.5069"/>
</g>
<!-- Node12&#45;&gt;Node11 -->
<g id="edge20" class="edge"><title>Node12&#45;&gt;Node11</title>
<path fill="none" stroke="midnightblue" d="M658.55,-184.869C631.972,-173.65 585.36,-153.977 554.834,-141.092"/>
<polygon fill="midnightblue" stroke="midnightblue" points="556.109,-137.831 545.535,-137.167 553.387,-144.28 556.109,-137.831"/>
</g>
<!-- Node13 -->
<g id="node13" class="node"><title>Node13</title>
<polygon fill="none" stroke="#bfbfbf" points="939.5,-118 939.5,-137 1022.5,-137 1022.5,-118 939.5,-118"/>
<text text-anchor="middle" x="981" y="-125" font-family="Helvetica,sans-Serif" font-size="10.00">unordered_map</text>
</g>
<!-- Node12&#45;&gt;Node13 -->
<g id="edge21" class="edge"><title>Node12&#45;&gt;Node13</title>
<path fill="none" stroke="midnightblue" d="M727.366,-184.934C778.093,-175.678 860.018,-159.961 930,-143 934.126,-142 938.421,-140.89 942.69,-139.741"/>
<polygon fill="midnightblue" stroke="midnightblue" points="943.807,-143.064 952.513,-137.026 941.941,-136.317 943.807,-143.064"/>
</g>
<!-- Node14 -->
<g id="node14" class="node"><title>Node14</title>
<g id="a_node14"><a xlink:href="QualityObject_8h_source.html" target="_top" xlink:title="QualityControl/QualityObject.h">
<polygon fill="none" stroke="black" points="772.5,-118 772.5,-137 921.5,-137 921.5,-118 772.5,-118"/>
<text text-anchor="middle" x="847" y="-125" font-family="Helvetica,sans-Serif" font-size="10.00">QualityControl/QualityObject.h</text>
</a>
</g>
</g>
<!-- Node12&#45;&gt;Node14 -->
<g id="edge22" class="edge"><title>Node12&#45;&gt;Node14</title>
<path fill="none" stroke="midnightblue" d="M701.309,-184.869C730.51,-173.571 781.878,-153.696 815.162,-140.818"/>
<polygon fill="midnightblue" stroke="midnightblue" points="816.803,-143.936 824.866,-137.064 814.277,-137.408 816.803,-143.936"/>
</g>
<!-- Node20 -->
<g id="node20" class="node"><title>Node20</title>
<g id="a_node20"><a xlink:href="MonitorObject_8h.html" target="_top" xlink:title="QualityControl/MonitorObject.h">
<polygon fill="none" stroke="black" points="603.5,-118 603.5,-137 754.5,-137 754.5,-118 603.5,-118"/>
<text text-anchor="middle" x="679" y="-125" font-family="Helvetica,sans-Serif" font-size="10.00">QualityControl/MonitorObject.h</text>
</a>
</g>
</g>
<!-- Node12&#45;&gt;Node20 -->
<g id="edge30" class="edge"><title>Node12&#45;&gt;Node20</title>
<path fill="none" stroke="midnightblue" d="M679,-184.734C679,-175.183 679,-159.618 679,-147.283"/>
<polygon fill="midnightblue" stroke="midnightblue" points="682.5,-147.127 679,-137.127 675.5,-147.127 682.5,-147.127"/>
</g>
<!-- Node15 -->
<g id="node15" class="node"><title>Node15</title>
<polygon fill="none" stroke="#bfbfbf" points="949.5,-0.5 949.5,-19.5 984.5,-19.5 984.5,-0.5 949.5,-0.5"/>
<text text-anchor="middle" x="967" y="-7.5" font-family="Helvetica,sans-Serif" font-size="10.00">map</text>
</g>
<!-- Node14&#45;&gt;Node15 -->
<g id="edge23" class="edge"><title>Node14&#45;&gt;Node15</title>
<path fill="none" stroke="midnightblue" d="M889.526,-117.977C942.438,-106.947 1026.98,-87.7516 1036,-76 1052.35,-54.7032 1019.83,-34.1503 994.097,-22.0436"/>
<polygon fill="midnightblue" stroke="midnightblue" points="995.238,-18.72 984.68,-17.8332 992.381,-25.1103 995.238,-18.72"/>
</g>
<!-- Node16 -->
<g id="node16" class="node"><title>Node16</title>
<polygon fill="none" stroke="#bfbfbf" points="829.5,-56.5 829.5,-75.5 888.5,-75.5 888.5,-56.5 829.5,-56.5"/>
<text text-anchor="middle" x="859" y="-63.5" font-family="Helvetica,sans-Serif" font-size="10.00">TObject.h</text>
</g>
<!-- Node14&#45;&gt;Node16 -->
<g id="edge24" class="edge"><title>Node14&#45;&gt;Node16</title>
<path fill="none" stroke="midnightblue" d="M848.719,-117.975C850.43,-109.492 853.11,-96.2043 855.305,-85.3222"/>
<polygon fill="midnightblue" stroke="midnightblue" points="858.738,-86.0037 857.284,-75.5091 851.876,-84.6197 858.738,-86.0037"/>
</g>
<!-- Node17 -->
<g id="node17" class="node"><title>Node17</title>
<polygon fill="none" stroke="#bfbfbf" points="695,-56.5 695,-75.5 811,-75.5 811,-56.5 695,-56.5"/>
<text text-anchor="middle" x="753" y="-63.5" font-family="Helvetica,sans-Serif" font-size="10.00">Common/Exceptions.h</text>
</g>
<!-- Node14&#45;&gt;Node17 -->
<g id="edge25" class="edge"><title>Node14&#45;&gt;Node17</title>
<path fill="none" stroke="midnightblue" d="M833.532,-117.975C818.315,-108.343 793.313,-92.5175 775.199,-81.0517"/>
<polygon fill="midnightblue" stroke="midnightblue" points="776.764,-77.9002 766.443,-75.5091 773.021,-83.8149 776.764,-77.9002"/>
</g>
<!-- Node18 -->
<g id="node18" class="node"><title>Node18</title>
<g id="a_node18"><a xlink:href="Quality_8h.html" target="_top" xlink:title="QualityControl/Quality.h">
<polygon fill="none" stroke="black" points="906.5,-56.5 906.5,-75.5 1027.5,-75.5 1027.5,-56.5 906.5,-56.5"/>
<text text-anchor="middle" x="967" y="-63.5" font-family="Helvetica,sans-Serif" font-size="10.00">QualityControl/Quality.h</text>
</a>
</g>
</g>
<!-- Node14&#45;&gt;Node18 -->
<g id="edge26" class="edge"><title>Node14&#45;&gt;Node18</title>
<path fill="none" stroke="midnightblue" d="M864.193,-117.975C884.243,-108.034 917.599,-91.4947 940.86,-79.961"/>
<polygon fill="midnightblue" stroke="midnightblue" points="942.434,-83.0871 949.839,-75.5091 939.325,-76.8157 942.434,-83.0871"/>
</g>
<!-- Node18&#45;&gt;Node7 -->
<g id="edge28" class="edge"><title>Node18&#45;&gt;Node7</title>
<path fill="none" stroke="midnightblue" d="M906.299,-57.1544C903.154,-56.7609 900.04,-56.374 897,-56 766.074,-39.8923 609.807,-21.9228 544.763,-14.4991"/>
<polygon fill="midnightblue" stroke="midnightblue" points="545.1,-11.0149 534.768,-13.3594 544.307,-17.9699 545.1,-11.0149"/>
</g>
<!-- Node18&#45;&gt;Node15 -->
<g id="edge29" class="edge"><title>Node18&#45;&gt;Node15</title>
<path fill="none" stroke="midnightblue" d="M967,-56.083C967,-49.0059 967,-38.8611 967,-29.9865"/>
<polygon fill="midnightblue" stroke="midnightblue" points="970.5,-29.751 967,-19.7511 963.5,-29.7511 970.5,-29.751"/>
</g>
<!-- Node19 -->
<g id="node19" class="node"><title>Node19</title>
<polygon fill="none" stroke="#bfbfbf" points="738,-0.5 738,-19.5 794,-19.5 794,-0.5 738,-0.5"/>
<text text-anchor="middle" x="766" y="-7.5" font-family="Helvetica,sans-Serif" font-size="10.00">Rtypes.h</text>
</g>
<!-- Node18&#45;&gt;Node19 -->
<g id="edge27" class="edge"><title>Node18&#45;&gt;Node19</title>
<path fill="none" stroke="midnightblue" d="M935.151,-56.4435C899.484,-46.8613 841.719,-31.3424 803.794,-21.1537"/>
<polygon fill="midnightblue" stroke="midnightblue" points="804.698,-17.7725 794.133,-18.558 802.882,-24.5328 804.698,-17.7725"/>
</g>
<!-- Node20&#45;&gt;Node7 -->
<g id="edge31" class="edge"><title>Node20&#45;&gt;Node7</title>
<path fill="none" stroke="midnightblue" d="M666.598,-117.819C638.528,-98.1698 569.87,-50.1087 535.024,-25.7169"/>
<polygon fill="midnightblue" stroke="midnightblue" points="536.745,-22.6494 526.546,-19.782 532.731,-28.384 536.745,-22.6494"/>
</g>
<!-- Node20&#45;&gt;Node15 -->
<g id="edge32" class="edge"><title>Node20&#45;&gt;Node15</title>
<path fill="none" stroke="midnightblue" d="M676.863,-117.783C673.802,-102.963 670.146,-72.8326 686,-56 720.184,-19.7071 875.12,-12.67 939.166,-11.3169"/>
<polygon fill="midnightblue" stroke="midnightblue" points="939.392,-14.8135 949.327,-11.1345 939.266,-7.81459 939.392,-14.8135"/>
</g>
<!-- Node20&#45;&gt;Node16 -->
<g id="edge34" class="edge"><title>Node20&#45;&gt;Node16</title>
<path fill="none" stroke="midnightblue" d="M704.79,-117.975C735.933,-107.68 788.481,-90.3103 823.453,-78.7502"/>
<polygon fill="midnightblue" stroke="midnightblue" points="824.862,-81.9708 833.258,-75.5091 822.665,-75.3245 824.862,-81.9708"/>
</g>
<!-- Node20&#45;&gt;Node17 -->
<g id="edge35" class="edge"><title>Node20&#45;&gt;Node17</title>
<path fill="none" stroke="midnightblue" d="M689.602,-117.975C701.252,-108.608 720.186,-93.3839 734.335,-82.0081"/>
<polygon fill="midnightblue" stroke="midnightblue" points="736.817,-84.503 742.417,-75.5091 732.431,-79.0477 736.817,-84.503"/>
</g>
<!-- Node20&#45;&gt;Node19 -->
<g id="edge33" class="edge"><title>Node20&#45;&gt;Node19</title>
<path fill="none" stroke="midnightblue" d="M670.79,-117.621C658.854,-103.595 639.528,-75.8663 653,-56 669.688,-31.3912 702.205,-20.2396 728.089,-15.1864"/>
<polygon fill="midnightblue" stroke="midnightblue" points="728.734,-18.627 737.994,-13.4792 727.544,-11.7287 728.734,-18.627"/>
</g>
<!-- Node22 -->
<g id="node22" class="node"><title>Node22</title>
<polygon fill="none" stroke="#bfbfbf" points="820,-185 820,-204 950,-204 950,-185 820,-185"/>
<text text-anchor="middle" x="885" y="-192" font-family="Helvetica,sans-Serif" font-size="10.00">InfoLogger/InfoLogger.hxx</text>
</g>
<!-- Node21&#45;&gt;Node22 -->
<g id="edge37" class="edge"><title>Node21&#45;&gt;Node22</title>
<path fill="none" stroke="midnightblue" d="M790.7,-251.734C808.923,-240.867 840.199,-222.216 861.702,-209.393"/>
<polygon fill="midnightblue" stroke="midnightblue" points="863.736,-212.255 870.533,-204.127 860.151,-206.243 863.736,-212.255"/>
</g>
</g>
</svg>
