<?xml version="1.0" encoding="UTF-8" standalone="no"?>
<!DOCTYPE svg PUBLIC "-//W3C//DTD SVG 1.1//EN"
 "http://www.w3.org/Graphics/SVG/1.1/DTD/svg11.dtd">
<!-- Generated by graphviz version 2.38.0 (20140413.2041)
 -->
<!-- Title: Framework/src/runRepositoryBenchmark.cxx Pages: 1 -->
<!--zoomable 319 -->
<svg id="main" version="1.1" xmlns="http://www.w3.org/2000/svg" xmlns:xlink="http://www.w3.org/1999/xlink" xml:space="preserve" onload="init(evt)">
<style type="text/css"><![CDATA[
.edge:hover path { stroke: red; }
.edge:hover polygon { stroke: red; fill: red; }
]]></style>
<script type="text/javascript"><![CDATA[
var edges = document.getElementsByTagName('g');
if (edges && edges.length) {
  for (var i=0;i<edges.length;i++) {
    if (edges[i].id.substr(0,4)=='edge') {
      edges[i].setAttribute('class','edge');
    }
  }
}
]]></script>
        <defs>
                <circle id="rim" cx="0" cy="0" r="7"/>
                <circle id="rim2" cx="0" cy="0" r="3.5"/>
                <g id="zoomPlus">
                        <use xlink:href="#rim" fill="#404040">
                                <set attributeName="fill" to="#808080" begin="zoomplus.mouseover" end="zoomplus.mouseout"/>
                        </use>
                        <path d="M-4,0h8M0,-4v8" fill="none" stroke="white" stroke-width="1.5" pointer-events="none"/>
                </g>
                <g id="zoomMin">
                        <use xlink:href="#rim" fill="#404040">
                                <set attributeName="fill" to="#808080" begin="zoomminus.mouseover" end="zoomminus.mouseout"/>
                        </use>
                        <path d="M-4,0h8" fill="none" stroke="white" stroke-width="1.5" pointer-events="none"/>
                </g>
                <g id="dirArrow">
                        <path fill="none" stroke="white" stroke-width="1.5" d="M0,-3.0v7 M-2.5,-0.5L0,-3.0L2.5,-0.5"/>
                </g>
               <g id="resetDef">
                       <use xlink:href="#rim2" fill="#404040">
                               <set attributeName="fill" to="#808080" begin="reset.mouseover" end="reset.mouseout"/>
                       </use>
               </g>
        </defs>

<script type="text/javascript">
var viewWidth = 1200;
var viewHeight = 319;
var sectionId = 'dynsection-0';
</script>
<script xlink:href="svgpan.js"/>
<svg id="graph" class="graph">
<g id="viewport">
<title>Framework/src/runRepositoryBenchmark.cxx</title>
<!-- Node1 -->
<g id="node1" class="node"><title>Node1</title>
<polygon fill="#bfbfbf" stroke="black" points="838.738,-280.5 838.738,-310.5 984.738,-310.5 984.738,-280.5 838.738,-280.5"/>
<text text-anchor="start" x="846.738" y="-298.5" font-family="Helvetica,sans-Serif" font-size="10.00">Framework/src/runRepository</text>
<text text-anchor="middle" x="911.738" y="-287.5" font-family="Helvetica,sans-Serif" font-size="10.00">Benchmark.cxx</text>
</g>
<!-- Node2 -->
<g id="node2" class="node"><title>Node2</title>
<g id="a_node2"><a xlink:href="RepositoryBenchmark_8h.html" target="_top" xlink:title="RepositoryBenchmark.h">
<polygon fill="none" stroke="black" points="778.738,-224.5 778.738,-243.5 900.738,-243.5 900.738,-224.5 778.738,-224.5"/>
<text text-anchor="middle" x="839.738" y="-231.5" font-family="Helvetica,sans-Serif" font-size="10.00">RepositoryBenchmark.h</text>
</a>
</g>
</g>
<!-- Node1&#45;&gt;Node2 -->
<g id="edge1" class="edge"><title>Node1&#45;&gt;Node2</title>
<path fill="none" stroke="midnightblue" d="M894.675,-280.399C883.673,-271.308 869.373,-259.49 858.12,-250.191"/>
<polygon fill="midnightblue" stroke="midnightblue" points="860.153,-247.33 850.215,-243.658 855.694,-252.726 860.153,-247.33"/>
</g>
<!-- Node20 -->
<g id="node20" class="node"><title>Node20</title>
<polygon fill="none" stroke="#bfbfbf" points="919.238,-224.5 919.238,-243.5 1050.24,-243.5 1050.24,-224.5 919.238,-224.5"/>
<text text-anchor="middle" x="984.738" y="-231.5" font-family="Helvetica,sans-Serif" font-size="10.00">fairmq/runFairMQDevice.h</text>
</g>
<!-- Node1&#45;&gt;Node20 -->
<g id="edge27" class="edge"><title>Node1&#45;&gt;Node20</title>
<path fill="none" stroke="midnightblue" d="M929.038,-280.399C940.193,-271.308 954.692,-259.49 966.1,-250.191"/>
<polygon fill="midnightblue" stroke="midnightblue" points="968.576,-252.689 974.116,-243.658 964.153,-247.263 968.576,-252.689"/>
</g>
<!-- Node3 -->
<g id="node3" class="node"><title>Node3</title>
<g id="a_node3"><a xlink:href="DatabaseInterface_8h.html" target="_top" xlink:title="QualityControl/DatabaseInterface.h">
<polygon fill="none" stroke="black" points="398.738,-168.5 398.738,-187.5 568.738,-187.5 568.738,-168.5 398.738,-168.5"/>
<text text-anchor="middle" x="483.738" y="-175.5" font-family="Helvetica,sans-Serif" font-size="10.00">QualityControl/DatabaseInterface.h</text>
</a>
</g>
</g>
<!-- Node2&#45;&gt;Node3 -->
<g id="edge2" class="edge"><title>Node2&#45;&gt;Node3</title>
<path fill="none" stroke="midnightblue" d="M783.329,-224.444C719.924,-214.826 617.09,-199.228 549.934,-189.041"/>
<polygon fill="midnightblue" stroke="midnightblue" points="550.295,-185.556 539.883,-187.516 549.245,-192.477 550.295,-185.556"/>
</g>
<!-- Node4 -->
<g id="node4" class="node"><title>Node4</title>
<polygon fill="none" stroke="#bfbfbf" points="449.238,-0.5 449.238,-19.5 490.238,-19.5 490.238,-0.5 449.238,-0.5"/>
<text text-anchor="middle" x="469.738" y="-7.5" font-family="Helvetica,sans-Serif" font-size="10.00">string</text>
</g>
<!-- Node2&#45;&gt;Node4 -->
<g id="edge26" class="edge"><title>Node2&#45;&gt;Node4</title>
<path fill="none" stroke="midnightblue" d="M778.558,-228.741C744.248,-223.572 702.498,-212.322 672.738,-188 643.497,-164.102 660.274,-139.822 634.738,-112 596.022,-69.8182 535.702,-39.028 499.719,-23.1627"/>
<polygon fill="midnightblue" stroke="midnightblue" points="500.822,-19.8271 490.253,-19.0866 498.053,-26.2563 500.822,-19.8271"/>
</g>
<!-- Node15 -->
<g id="node15" class="node"><title>Node15</title>
<polygon fill="none" stroke="#bfbfbf" points="681.738,-168.5 681.738,-187.5 799.738,-187.5 799.738,-168.5 681.738,-168.5"/>
<text text-anchor="middle" x="740.738" y="-175.5" font-family="Helvetica,sans-Serif" font-size="10.00">fairmq/FairMQDevice.h</text>
</g>
<!-- Node2&#45;&gt;Node15 -->
<g id="edge21" class="edge"><title>Node2&#45;&gt;Node15</title>
<path fill="none" stroke="midnightblue" d="M823.832,-224.324C808.1,-215.743 783.796,-202.486 765.529,-192.522"/>
<polygon fill="midnightblue" stroke="midnightblue" points="767.06,-189.37 756.605,-187.655 763.708,-195.516 767.06,-189.37"/>
</g>
<!-- Node16 -->
<g id="node16" class="node"><title>Node16</title>
<polygon fill="none" stroke="#bfbfbf" points="817.738,-168.5 817.738,-187.5 861.738,-187.5 861.738,-168.5 817.738,-168.5"/>
<text text-anchor="middle" x="839.738" y="-175.5" font-family="Helvetica,sans-Serif" font-size="10.00">TH1.h</text>
</g>
<!-- Node2&#45;&gt;Node16 -->
<g id="edge22" class="edge"><title>Node2&#45;&gt;Node16</title>
<path fill="none" stroke="midnightblue" d="M839.738,-224.083C839.738,-217.006 839.738,-206.861 839.738,-197.986"/>
<polygon fill="midnightblue" stroke="midnightblue" points="843.238,-197.751 839.738,-187.751 836.238,-197.751 843.238,-197.751"/>
</g>
<!-- Node17 -->
<g id="node17" class="node"><title>Node17</title>
<polygon fill="none" stroke="#bfbfbf" points="880.238,-168.5 880.238,-187.5 1031.24,-187.5 1031.24,-168.5 880.238,-168.5"/>
<text text-anchor="middle" x="955.738" y="-175.5" font-family="Helvetica,sans-Serif" font-size="10.00">Monitoring/MonitoringFactory.h</text>
</g>
<!-- Node2&#45;&gt;Node17 -->
<g id="edge23" class="edge"><title>Node2&#45;&gt;Node17</title>
<path fill="none" stroke="midnightblue" d="M858.119,-224.444C876.955,-215.675 906.469,-201.935 928.117,-191.858"/>
<polygon fill="midnightblue" stroke="midnightblue" points="929.855,-194.91 937.444,-187.516 926.901,-188.564 929.855,-194.91"/>
</g>
<!-- Node18 -->
<g id="node18" class="node"><title>Node18</title>
<polygon fill="none" stroke="#bfbfbf" points="1049.74,-168.5 1049.74,-187.5 1129.74,-187.5 1129.74,-168.5 1049.74,-168.5"/>
<text text-anchor="middle" x="1089.74" y="-175.5" font-family="Helvetica,sans-Serif" font-size="10.00">boost/asio.hpp</text>
</g>
<!-- Node2&#45;&gt;Node18 -->
<g id="edge24" class="edge"><title>Node2&#45;&gt;Node18</title>
<path fill="none" stroke="midnightblue" d="M879.351,-224.444C922.963,-215.023 993.138,-199.866 1040.32,-189.675"/>
<polygon fill="midnightblue" stroke="midnightblue" points="1041.27,-193.049 1050.31,-187.516 1039.8,-186.207 1041.27,-193.049"/>
</g>
<!-- Node19 -->
<g id="node19" class="node"><title>Node19</title>
<polygon fill="none" stroke="#bfbfbf" points="1147.74,-168.5 1147.74,-187.5 1191.74,-187.5 1191.74,-168.5 1147.74,-168.5"/>
<text text-anchor="middle" x="1169.74" y="-175.5" font-family="Helvetica,sans-Serif" font-size="10.00">thread</text>
</g>
<!-- Node2&#45;&gt;Node19 -->
<g id="edge25" class="edge"><title>Node2&#45;&gt;Node19</title>
<path fill="none" stroke="midnightblue" d="M900.945,-224.769C970.497,-215.255 1080.76,-199.641 1137.52,-187.977"/>
<polygon fill="midnightblue" stroke="midnightblue" points="1138.43,-191.362 1147.48,-185.847 1136.97,-184.517 1138.43,-191.362"/>
</g>
<!-- Node3&#45;&gt;Node4 -->
<g id="edge3" class="edge"><title>Node3&#45;&gt;Node4</title>
<path fill="none" stroke="midnightblue" d="M482.985,-168.075C480.782,-141.945 474.31,-65.2106 471.305,-29.577"/>
<polygon fill="midnightblue" stroke="midnightblue" points="474.789,-29.2386 470.461,-19.5681 467.814,-29.8269 474.789,-29.2386"/>
</g>
<!-- Node5 -->
<g id="node5" class="node"><title>Node5</title>
<polygon fill="none" stroke="#bfbfbf" points="511.738,-112.5 511.738,-131.5 563.738,-131.5 563.738,-112.5 511.738,-112.5"/>
<text text-anchor="middle" x="537.738" y="-119.5" font-family="Helvetica,sans-Serif" font-size="10.00">memory</text>
</g>
<!-- Node3&#45;&gt;Node5 -->
<g id="edge4" class="edge"><title>Node3&#45;&gt;Node5</title>
<path fill="none" stroke="midnightblue" d="M492.655,-168.083C500.519,-160.22 512.169,-148.569 521.657,-139.081"/>
<polygon fill="midnightblue" stroke="midnightblue" points="524.391,-141.297 528.987,-131.751 519.441,-136.347 524.391,-141.297"/>
</g>
<!-- Node6 -->
<g id="node6" class="node"><title>Node6</title>
<polygon fill="none" stroke="#bfbfbf" points="581.738,-112.5 581.738,-131.5 625.738,-131.5 625.738,-112.5 581.738,-112.5"/>
<text text-anchor="middle" x="603.738" y="-119.5" font-family="Helvetica,sans-Serif" font-size="10.00">vector</text>
</g>
<!-- Node3&#45;&gt;Node6 -->
<g id="edge5" class="edge"><title>Node3&#45;&gt;Node6</title>
<path fill="none" stroke="midnightblue" d="M502.752,-168.444C522.326,-159.636 553.046,-145.812 575.467,-135.722"/>
<polygon fill="midnightblue" stroke="midnightblue" points="577.13,-138.812 584.813,-131.516 574.257,-132.428 577.13,-138.812"/>
</g>
<!-- Node7 -->
<g id="node7" class="node"><title>Node7</title>
<polygon fill="none" stroke="#bfbfbf" points="20.2381,-112.5 20.2381,-131.5 103.238,-131.5 103.238,-112.5 20.2381,-112.5"/>
<text text-anchor="middle" x="61.7381" y="-119.5" font-family="Helvetica,sans-Serif" font-size="10.00">unordered_map</text>
</g>
<!-- Node3&#45;&gt;Node7 -->
<g id="edge6" class="edge"><title>Node3&#45;&gt;Node7</title>
<path fill="none" stroke="midnightblue" d="M401.914,-168.475C328.778,-160.54 218.447,-147.795 113.58,-132.211"/>
<polygon fill="midnightblue" stroke="midnightblue" points="113.858,-128.714 103.45,-130.694 112.821,-135.636 113.858,-128.714"/>
</g>
<!-- Node8 -->
<g id="node8" class="node"><title>Node8</title>
<g id="a_node8"><a xlink:href="QualityObject_8h_source.html" target="_top" xlink:title="QualityControl/QualityObject.h">
<polygon fill="none" stroke="black" points="121.238,-112.5 121.238,-131.5 270.238,-131.5 270.238,-112.5 121.238,-112.5"/>
<text text-anchor="middle" x="195.738" y="-119.5" font-family="Helvetica,sans-Serif" font-size="10.00">QualityControl/QualityObject.h</text>
</a>
</g>
</g>
<!-- Node3&#45;&gt;Node8 -->
<g id="edge7" class="edge"><title>Node3&#45;&gt;Node8</title>
<path fill="none" stroke="midnightblue" d="M438.104,-168.444C387.441,-158.944 305.663,-143.611 251.311,-133.42"/>
<polygon fill="midnightblue" stroke="midnightblue" points="251.633,-129.919 241.159,-131.516 250.343,-136.799 251.633,-129.919"/>
</g>
<!-- Node14 -->
<g id="node14" class="node"><title>Node14</title>
<g id="a_node14"><a xlink:href="MonitorObject_8h.html" target="_top" xlink:title="QualityControl/MonitorObject.h">
<polygon fill="none" stroke="black" points="302.238,-112.5 302.238,-131.5 453.238,-131.5 453.238,-112.5 302.238,-112.5"/>
<text text-anchor="middle" x="377.738" y="-119.5" font-family="Helvetica,sans-Serif" font-size="10.00">QualityControl/MonitorObject.h</text>
</a>
</g>
</g>
<!-- Node3&#45;&gt;Node14 -->
<g id="edge15" class="edge"><title>Node3&#45;&gt;Node14</title>
<path fill="none" stroke="midnightblue" d="M466.707,-168.324C449.708,-159.664 423.362,-146.242 403.745,-136.249"/>
<polygon fill="midnightblue" stroke="midnightblue" points="405.226,-133.075 394.727,-131.655 402.048,-139.312 405.226,-133.075"/>
</g>
<!-- Node9 -->
<g id="node9" class="node"><title>Node9</title>
<polygon fill="none" stroke="#bfbfbf" points="57.2381,-0.5 57.2381,-19.5 92.2381,-19.5 92.2381,-0.5 57.2381,-0.5"/>
<text text-anchor="middle" x="74.7381" y="-7.5" font-family="Helvetica,sans-Serif" font-size="10.00">map</text>
</g>
<!-- Node8&#45;&gt;Node9 -->
<g id="edge8" class="edge"><title>Node8&#45;&gt;Node9</title>
<path fill="none" stroke="midnightblue" d="M121.218,-112.952C74.0868,-106.15 19.3828,-94.4961 4.73805,-76 -12.2241,-54.5771 21.6448,-33.8047 47.9399,-21.7198"/>
<polygon fill="midnightblue" stroke="midnightblue" points="49.4202,-24.8925 57.1767,-17.6754 46.6125,-18.4802 49.4202,-24.8925"/>
</g>
<!-- Node10 -->
<g id="node10" class="node"><title>Node10</title>
<polygon fill="none" stroke="#bfbfbf" points="153.238,-56.5 153.238,-75.5 212.238,-75.5 212.238,-56.5 153.238,-56.5"/>
<text text-anchor="middle" x="182.738" y="-63.5" font-family="Helvetica,sans-Serif" font-size="10.00">TObject.h</text>
</g>
<!-- Node8&#45;&gt;Node10 -->
<g id="edge9" class="edge"><title>Node8&#45;&gt;Node10</title>
<path fill="none" stroke="midnightblue" d="M193.591,-112.083C191.869,-104.927 189.391,-94.6353 187.238,-85.6911"/>
<polygon fill="midnightblue" stroke="midnightblue" points="190.588,-84.6541 184.845,-75.7511 183.783,-86.2925 190.588,-84.6541"/>
</g>
<!-- Node11 -->
<g id="node11" class="node"><title>Node11</title>
<polygon fill="none" stroke="#bfbfbf" points="230.738,-56.5 230.738,-75.5 346.738,-75.5 346.738,-56.5 230.738,-56.5"/>
<text text-anchor="middle" x="288.738" y="-63.5" font-family="Helvetica,sans-Serif" font-size="10.00">Common/Exceptions.h</text>
</g>
<!-- Node8&#45;&gt;Node11 -->
<g id="edge10" class="edge"><title>Node8&#45;&gt;Node11</title>
<path fill="none" stroke="midnightblue" d="M210.68,-112.324C225.323,-103.822 247.872,-90.7288 264.976,-80.7975"/>
<polygon fill="midnightblue" stroke="midnightblue" points="266.943,-83.7027 273.833,-75.6545 263.428,-77.6491 266.943,-83.7027"/>
</g>
<!-- Node12 -->
<g id="node12" class="node"><title>Node12</title>
<g id="a_node12"><a xlink:href="Quality_8h.html" target="_top" xlink:title="QualityControl/Quality.h">
<polygon fill="none" stroke="black" points="14.2381,-56.5 14.2381,-75.5 135.238,-75.5 135.238,-56.5 14.2381,-56.5"/>
<text text-anchor="middle" x="74.7381" y="-63.5" font-family="Helvetica,sans-Serif" font-size="10.00">QualityControl/Quality.h</text>
</a>
</g>
</g>
<!-- Node8&#45;&gt;Node12 -->
<g id="edge11" class="edge"><title>Node8&#45;&gt;Node12</title>
<path fill="none" stroke="midnightblue" d="M176.565,-112.444C156.829,-103.636 125.853,-89.8116 103.245,-79.722"/>
<polygon fill="midnightblue" stroke="midnightblue" points="104.379,-76.3957 93.8212,-75.5164 101.527,-82.788 104.379,-76.3957"/>
</g>
<!-- Node12&#45;&gt;Node4 -->
<g id="edge13" class="edge"><title>Node12&#45;&gt;Node4</title>
<path fill="none" stroke="midnightblue" d="M135.591,-56.6808C221.279,-44.9665 374.278,-24.0502 439.23,-15.1708"/>
<polygon fill="midnightblue" stroke="midnightblue" points="439.798,-18.6257 449.232,-13.8034 438.85,-11.6902 439.798,-18.6257"/>
</g>
<!-- Node12&#45;&gt;Node9 -->
<g id="edge14" class="edge"><title>Node12&#45;&gt;Node9</title>
<path fill="none" stroke="midnightblue" d="M74.7381,-56.083C74.7381,-49.0059 74.7381,-38.8611 74.7381,-29.9865"/>
<polygon fill="midnightblue" stroke="midnightblue" points="78.2381,-29.751 74.7381,-19.7511 71.2381,-29.7511 78.2381,-29.751"/>
</g>
<!-- Node13 -->
<g id="node13" class="node"><title>Node13</title>
<polygon fill="none" stroke="#bfbfbf" points="242.738,-0.5 242.738,-19.5 298.738,-19.5 298.738,-0.5 242.738,-0.5"/>
<text text-anchor="middle" x="270.738" y="-7.5" font-family="Helvetica,sans-Serif" font-size="10.00">Rtypes.h</text>
</g>
<!-- Node12&#45;&gt;Node13 -->
<g id="edge12" class="edge"><title>Node12&#45;&gt;Node13</title>
<path fill="none" stroke="midnightblue" d="M105.795,-56.4435C140.229,-46.9565 195.786,-31.65 232.777,-21.4588"/>
<polygon fill="midnightblue" stroke="midnightblue" points="233.973,-24.7595 242.685,-18.729 232.114,-18.011 233.973,-24.7595"/>
</g>
<!-- Node14&#45;&gt;Node4 -->
<g id="edge16" class="edge"><title>Node14&#45;&gt;Node4</title>
<path fill="none" stroke="midnightblue" d="M388.576,-112.37C399.006,-103.772 414.896,-89.8847 426.738,-76 439.456,-61.0889 451.548,-42.2429 459.651,-28.6882"/>
<polygon fill="midnightblue" stroke="midnightblue" points="462.772,-30.2846 464.798,-19.8853 456.729,-26.7513 462.772,-30.2846"/>
</g>
<!-- Node14&#45;&gt;Node9 -->
<g id="edge17" class="edge"><title>Node14&#45;&gt;Node9</title>
<path fill="none" stroke="midnightblue" d="M377.499,-112.286C376.608,-98.1349 372.663,-70.3027 355.738,-56 317.746,-23.8951 165.683,-14.4548 102.492,-11.8874"/>
<polygon fill="midnightblue" stroke="midnightblue" points="102.582,-8.38836 92.4571,-11.5077 102.318,-15.3834 102.582,-8.38836"/>
</g>
<!-- Node14&#45;&gt;Node10 -->
<g id="edge19" class="edge"><title>Node14&#45;&gt;Node10</title>
<path fill="none" stroke="midnightblue" d="M346.84,-112.444C313.17,-103.12 259.202,-88.1746 222.42,-77.9889"/>
<polygon fill="midnightblue" stroke="midnightblue" points="223.104,-74.5466 212.533,-75.2508 221.236,-81.2927 223.104,-74.5466"/>
</g>
<!-- Node14&#45;&gt;Node11 -->
<g id="edge20" class="edge"><title>Node14&#45;&gt;Node11</title>
<path fill="none" stroke="midnightblue" d="M363.439,-112.324C349.555,-103.9 328.246,-90.9709 311.934,-81.0741"/>
<polygon fill="midnightblue" stroke="midnightblue" points="313.367,-77.8495 303.002,-75.6545 309.736,-83.8341 313.367,-77.8495"/>
</g>
<!-- Node14&#45;&gt;Node13 -->
<g id="edge18" class="edge"><title>Node14&#45;&gt;Node13</title>
<path fill="none" stroke="midnightblue" d="M382.926,-112.146C390.01,-98.7701 400.555,-73.1538 388.738,-56 370.926,-30.1435 336.117,-19.1335 308.901,-14.4509"/>
<polygon fill="midnightblue" stroke="midnightblue" points="309.302,-10.972 298.893,-12.9483 308.262,-17.8944 309.302,-10.972"/>
</g>
</g>
</svg>
        <g id="navigator" transform="translate(0 0)" fill="#404254">
                <rect fill="#f2f5e9" fill-opacity="0.5" stroke="#606060" stroke-width=".5" x="0" y="0" width="60" height="60"/>
                <use id="zoomplus" xlink:href="#zoomPlus" x="17" y="9" onmousedown="handleZoom(evt,'in')"/>
                <use id="zoomminus" xlink:href="#zoomMin" x="42" y="9" onmousedown="handleZoom(evt,'out')"/>
                <use id="reset" xlink:href="#resetDef" x="30" y="36" onmousedown="handleReset()"/>
                <g id="arrowUp" xlink:href="#dirArrow" transform="translate(30 24)" onmousedown="handlePan(0,-1)">
                  <use xlink:href="#rim" fill="#404040">
                        <set attributeName="fill" to="#808080" begin="arrowUp.mouseover" end="arrowUp.mouseout"/>
                  </use>
                  <path fill="none" stroke="white" stroke-width="1.5" d="M0,-3.0v7 M-2.5,-0.5L0,-3.0L2.5,-0.5"/>
                </g>
                <g id="arrowRight" xlink:href="#dirArrow" transform="rotate(90) translate(36 -43)" onmousedown="handlePan(1,0)">
                  <use xlink:href="#rim" fill="#404040">
                        <set attributeName="fill" to="#808080" begin="arrowRight.mouseover" end="arrowRight.mouseout"/>
                  </use>
                  <path fill="none" stroke="white" stroke-width="1.5" d="M0,-3.0v7 M-2.5,-0.5L0,-3.0L2.5,-0.5"/>
                </g>
                <g id="arrowDown" xlink:href="#dirArrow" transform="rotate(180) translate(-30 -48)" onmousedown="handlePan(0,1)">
                  <use xlink:href="#rim" fill="#404040">
                        <set attributeName="fill" to="#808080" begin="arrowDown.mouseover" end="arrowDown.mouseout"/>
                  </use>
                  <path fill="none" stroke="white" stroke-width="1.5" d="M0,-3.0v7 M-2.5,-0.5L0,-3.0L2.5,-0.5"/>
                </g>
                <g id="arrowLeft" xlink:href="#dirArrow" transform="rotate(270) translate(-36 17)" onmousedown="handlePan(-1,0)">
                  <use xlink:href="#rim" fill="#404040">
                        <set attributeName="fill" to="#808080" begin="arrowLeft.mouseover" end="arrowLeft.mouseout"/>
                  </use>
                  <path fill="none" stroke="white" stroke-width="1.5" d="M0,-3.0v7 M-2.5,-0.5L0,-3.0L2.5,-0.5"/>
                </g>
        </g>
        <svg viewBox="0 0 15 15" width="100%" height="30px" preserveAspectRatio="xMaxYMin meet">
         <g id="arrow_out" transform="scale(0.3 0.3)">
          <a xlink:href="runRepositoryBenchmark_8cxx__incl_org.svg" target="_base">
           <rect id="button" ry="5" rx="5" y="6" x="6" height="38" width="38"
                fill="#f2f5e9" fill-opacity="0.5" stroke="#606060" stroke-width="1.0"/>
           <path id="arrow"
             d="M 11.500037,31.436501 C 11.940474,20.09759 22.043105,11.32322 32.158766,21.979434 L 37.068811,17.246167 C 37.068811,17.246167 37.088388,32 37.088388,32 L 22.160133,31.978069 C 22.160133,31.978069 26.997745,27.140456 26.997745,27.140456 C 18.528582,18.264221 13.291696,25.230495 11.500037,31.436501 z"
             style="fill:#404040;"/>
          </a>
         </g>
        </svg>
</svg>
