<?xml version="1.0" encoding="UTF-8" standalone="no"?>
<!DOCTYPE svg PUBLIC "-//W3C//DTD SVG 1.1//EN"
 "http://www.w3.org/Graphics/SVG/1.1/DTD/svg11.dtd">
<!-- Generated by graphviz version 2.38.0 (20140413.2041)
 -->
<!-- Title: o2::quality_control_modules::muonchambers::SampaHit Pages: 1 -->
<svg width="535pt" height="452pt"
 viewBox="0.00 0.00 534.50 452.00" xmlns="http://www.w3.org/2000/svg" xmlns:xlink="http://www.w3.org/1999/xlink">
<g id="graph0" class="graph" transform="scale(1 1) rotate(0) translate(4 448)">
<title>o2::quality_control_modules::muonchambers::SampaHit</title>
<!-- Node1 -->
<g id="node1" class="node"><title>Node1</title>
<polygon fill="#bfbfbf" stroke="black" points="233,-0.5 233,-79.5 364,-79.5 364,-0.5 233,-0.5"/>
<text text-anchor="start" x="241" y="-67.5" font-family="Helvetica,sans-Serif" font-size="10.00">o2::quality_control</text>
<text text-anchor="start" x="241" y="-56.5" font-family="Helvetica,sans-Serif" font-size="10.00">_modules::muonchambers</text>
<text text-anchor="middle" x="298.5" y="-45.5" font-family="Helvetica,sans-Serif" font-size="10.00">::SampaHit</text>
<polyline fill="none" stroke="black" points="233,-38.5 364,-38.5 "/>
<text text-anchor="middle" x="298.5" y="-26.5" font-family="Helvetica,sans-Serif" font-size="10.00"> </text>
<polyline fill="none" stroke="black" points="233,-19.5 364,-19.5 "/>
<text text-anchor="middle" x="298.5" y="-7.5" font-family="Helvetica,sans-Serif" font-size="10.00"> </text>
</g>
<!-- Node2 -->
<g id="node2" class="node"><title>Node2</title>
<polygon fill="none" stroke="#bfbfbf" points="0,-199 0,-256 51,-256 51,-199 0,-199"/>
<text text-anchor="middle" x="25.5" y="-244" font-family="Helvetica,sans-Serif" font-size="10.00">uint64_t</text>
<polyline fill="none" stroke="#bfbfbf" points="0,-237 51,-237 "/>
<text text-anchor="middle" x="25.5" y="-225" font-family="Helvetica,sans-Serif" font-size="10.00"> </text>
<polyline fill="none" stroke="#bfbfbf" points="0,-218 51,-218 "/>
<text text-anchor="middle" x="25.5" y="-206" font-family="Helvetica,sans-Serif" font-size="10.00"> </text>
</g>
<!-- Node2&#45;&gt;Node1 -->
<g id="edge1" class="edge"><title>Node2&#45;&gt;Node1</title>
<path fill="none" stroke="#404040" d="M35.1003,-198.734C46.6241,-169.459 68.726,-124.049 102.5,-98 136.376,-71.8722 181.889,-57.711 220.53,-50.0405"/>
<polygon fill="none" stroke="#404040" points="220.746,-50.0006 225.918,-44.9754 232.546,-47.8167 227.374,-52.8419 220.746,-50.0006"/>
<text text-anchor="middle" x="119.5" y="-128.5" font-family="Helvetica,sans-Serif" font-size="10.00"> +csum</text>
</g>
<!-- Node3 -->
<g id="node3" class="node"><title>Node3</title>
<polygon fill="none" stroke="#bfbfbf" points="69.5,-199 69.5,-256 115.5,-256 115.5,-199 69.5,-199"/>
<text text-anchor="middle" x="92.5" y="-244" font-family="Helvetica,sans-Serif" font-size="10.00">int64_t</text>
<polyline fill="none" stroke="#bfbfbf" points="69.5,-237 115.5,-237 "/>
<text text-anchor="middle" x="92.5" y="-225" font-family="Helvetica,sans-Serif" font-size="10.00"> </text>
<polyline fill="none" stroke="#bfbfbf" points="69.5,-218 115.5,-218 "/>
<text text-anchor="middle" x="92.5" y="-206" font-family="Helvetica,sans-Serif" font-size="10.00"> </text>
</g>
<!-- Node3&#45;&gt;Node1 -->
<g id="edge2" class="edge"><title>Node3&#45;&gt;Node1</title>
<path fill="none" stroke="#404040" d="M111.528,-198.733C115.659,-193.082 120.111,-187.261 124.5,-182 157.725,-142.177 165.066,-130.479 205.5,-98 210.891,-93.6696 216.637,-89.4148 222.525,-85.3022"/>
<polygon fill="none" stroke="#404040" points="222.597,-85.2539 225.323,-78.578 232.534,-78.527 229.808,-85.2029 222.597,-85.2539"/>
<text text-anchor="middle" x="218" y="-128.5" font-family="Helvetica,sans-Serif" font-size="10.00"> +bxc</text>
</g>
<!-- Node4 -->
<g id="node4" class="node"><title>Node4</title>
<g id="a_node4"><a xlink:href="classo2_1_1quality__control__modules_1_1muonchambers_1_1MapPad.html" target="_top" xlink:title="{o2::quality_control\l_modules::muonchambers\l::MapPad\n||+ MapPad()\l+ ~MapPad()\l}">
<polygon fill="none" stroke="black" points="134,-182.5 134,-272.5 265,-272.5 265,-182.5 134,-182.5"/>
<text text-anchor="start" x="142" y="-260.5" font-family="Helvetica,sans-Serif" font-size="10.00">o2::quality_control</text>
<text text-anchor="start" x="142" y="-249.5" font-family="Helvetica,sans-Serif" font-size="10.00">_modules::muonchambers</text>
<text text-anchor="middle" x="199.5" y="-238.5" font-family="Helvetica,sans-Serif" font-size="10.00">::MapPad</text>
<polyline fill="none" stroke="black" points="134,-231.5 265,-231.5 "/>
<text text-anchor="middle" x="199.5" y="-219.5" font-family="Helvetica,sans-Serif" font-size="10.00"> </text>
<polyline fill="none" stroke="black" points="134,-212.5 265,-212.5 "/>
<text text-anchor="start" x="142" y="-200.5" font-family="Helvetica,sans-Serif" font-size="10.00">+ MapPad()</text>
<text text-anchor="start" x="142" y="-189.5" font-family="Helvetica,sans-Serif" font-size="10.00">+ ~MapPad()</text>
</a>
</g>
</g>
<!-- Node4&#45;&gt;Node1 -->
<g id="edge3" class="edge"><title>Node4&#45;&gt;Node1</title>
<path fill="none" stroke="#404040" d="M223.213,-182.068C237.908,-154.533 256.811,-119.114 271.999,-90.6558"/>
<polygon fill="none" stroke="#404040" points="272.182,-90.3121 271.479,-83.1354 277.833,-79.7254 278.536,-86.9021 272.182,-90.3121"/>
<text text-anchor="middle" x="279" y="-128.5" font-family="Helvetica,sans-Serif" font-size="10.00"> +pad</text>
</g>
<!-- Node5 -->
<g id="node5" class="node"><title>Node5</title>
<polygon fill="none" stroke="#bfbfbf" points="153,-386.5 153,-443.5 188,-443.5 188,-386.5 153,-386.5"/>
<text text-anchor="middle" x="170.5" y="-431.5" font-family="Helvetica,sans-Serif" font-size="10.00">float</text>
<polyline fill="none" stroke="#bfbfbf" points="153,-424.5 188,-424.5 "/>
<text text-anchor="middle" x="170.5" y="-412.5" font-family="Helvetica,sans-Serif" font-size="10.00"> </text>
<polyline fill="none" stroke="#bfbfbf" points="153,-405.5 188,-405.5 "/>
<text text-anchor="middle" x="170.5" y="-393.5" font-family="Helvetica,sans-Serif" font-size="10.00"> </text>
</g>
<!-- Node5&#45;&gt;Node4 -->
<g id="edge4" class="edge"><title>Node5&#45;&gt;Node4</title>
<path fill="none" stroke="#404040" d="M167.513,-386.284C165.556,-361.116 164.495,-323.132 171.5,-291 171.973,-288.829 172.527,-286.642 173.146,-284.453"/>
<polygon fill="none" stroke="#404040" points="173.231,-284.195 171.321,-277.241 177.005,-272.803 178.916,-279.757 173.231,-284.195"/>
<text text-anchor="middle" x="189.5" y="-343.5" font-family="Helvetica,sans-Serif" font-size="10.00"> +fX</text>
<text text-anchor="middle" x="189.5" y="-332.5" font-family="Helvetica,sans-Serif" font-size="10.00">+fY</text>
<text text-anchor="middle" x="189.5" y="-321.5" font-family="Helvetica,sans-Serif" font-size="10.00">+fSizeX</text>
<text text-anchor="middle" x="189.5" y="-310.5" font-family="Helvetica,sans-Serif" font-size="10.00">+fSizeY</text>
</g>
<!-- Node6 -->
<g id="node6" class="node"><title>Node6</title>
<polygon fill="none" stroke="#bfbfbf" points="215,-386.5 215,-443.5 244,-443.5 244,-386.5 215,-386.5"/>
<text text-anchor="middle" x="229.5" y="-431.5" font-family="Helvetica,sans-Serif" font-size="10.00">int</text>
<polyline fill="none" stroke="#bfbfbf" points="215,-424.5 244,-424.5 "/>
<text text-anchor="middle" x="229.5" y="-412.5" font-family="Helvetica,sans-Serif" font-size="10.00"> </text>
<polyline fill="none" stroke="#bfbfbf" points="215,-405.5 244,-405.5 "/>
<text text-anchor="middle" x="229.5" y="-393.5" font-family="Helvetica,sans-Serif" font-size="10.00"> </text>
</g>
<!-- Node6&#45;&gt;Node4 -->
<g id="edge5" class="edge"><title>Node6&#45;&gt;Node4</title>
<path fill="none" stroke="#404040" d="M225.009,-386.229C220.685,-359.494 214.02,-318.284 208.588,-284.691"/>
<polygon fill="none" stroke="#404040" points="208.564,-284.547 203.658,-279.262 206.648,-272.701 211.555,-277.985 208.564,-284.547"/>
<text text-anchor="middle" x="246" y="-360" font-family="Helvetica,sans-Serif" font-size="10.00"> +fCathode</text>
<text text-anchor="middle" x="246" y="-349" font-family="Helvetica,sans-Serif" font-size="10.00">+fDE</text>
<text text-anchor="middle" x="246" y="-338" font-family="Helvetica,sans-Serif" font-size="10.00">+fBad</text>
<text text-anchor="middle" x="246" y="-327" font-family="Helvetica,sans-Serif" font-size="10.00">+fPadx</text>
<text text-anchor="middle" x="246" y="-316" font-family="Helvetica,sans-Serif" font-size="10.00">+fPady</text>
<text text-anchor="middle" x="246" y="-305" font-family="Helvetica,sans-Serif" font-size="10.00">+fAddress</text>
<text text-anchor="middle" x="246" y="-294" font-family="Helvetica,sans-Serif" font-size="10.00">+fDsID</text>
</g>
<!-- Node7 -->
<g id="node7" class="node"><title>Node7</title>
<polygon fill="none" stroke="#bfbfbf" points="283.5,-199 283.5,-256 379.5,-256 379.5,-199 283.5,-199"/>
<text text-anchor="middle" x="331.5" y="-244" font-family="Helvetica,sans-Serif" font-size="10.00">vector&lt; uint16_t &gt;</text>
<polyline fill="none" stroke="#bfbfbf" points="283.5,-237 379.5,-237 "/>
<text text-anchor="middle" x="331.5" y="-225" font-family="Helvetica,sans-Serif" font-size="10.00"> </text>
<polyline fill="none" stroke="#bfbfbf" points="283.5,-218 379.5,-218 "/>
<text text-anchor="middle" x="331.5" y="-206" font-family="Helvetica,sans-Serif" font-size="10.00"> </text>
</g>
<!-- Node7&#45;&gt;Node1 -->
<g id="edge6" class="edge"><title>Node7&#45;&gt;Node1</title>
<path fill="none" stroke="#404040" d="M326.56,-198.729C321.547,-170.554 313.675,-126.302 307.543,-91.8321"/>
<polygon fill="none" stroke="#404040" points="307.473,-91.4377 302.484,-86.2311 305.371,-79.6232 310.36,-84.8298 307.473,-91.4377"/>
<text text-anchor="middle" x="343.5" y="-128.5" font-family="Helvetica,sans-Serif" font-size="10.00"> +samples</text>
</g>
<!-- Node8 -->
<g id="node8" class="node"><title>Node8</title>
<polygon fill="none" stroke="#bfbfbf" points="398,-199 398,-256 449,-256 449,-199 398,-199"/>
<text text-anchor="middle" x="423.5" y="-244" font-family="Helvetica,sans-Serif" font-size="10.00">uint32_t</text>
<polyline fill="none" stroke="#bfbfbf" points="398,-237 449,-237 "/>
<text text-anchor="middle" x="423.5" y="-225" font-family="Helvetica,sans-Serif" font-size="10.00"> </text>
<polyline fill="none" stroke="#bfbfbf" points="398,-218 449,-218 "/>
<text text-anchor="middle" x="423.5" y="-206" font-family="Helvetica,sans-Serif" font-size="10.00"> </text>
</g>
<!-- Node8&#45;&gt;Node1 -->
<g id="edge7" class="edge"><title>Node8&#45;&gt;Node1</title>
<path fill="none" stroke="#404040" d="M416.539,-198.847C408.64,-171.316 393.749,-128.827 370.5,-98 367.976,-94.6527 365.21,-91.3917 362.28,-88.2345"/>
<polygon fill="none" stroke="#404040" points="362.144,-88.0999 355.071,-86.6955 353.647,-79.6264 360.72,-81.0307 362.144,-88.0999"/>
<text text-anchor="middle" x="418.5" y="-134" font-family="Helvetica,sans-Serif" font-size="10.00"> +time</text>
<text text-anchor="middle" x="418.5" y="-123" font-family="Helvetica,sans-Serif" font-size="10.00">+size</text>
</g>
<!-- Node9 -->
<g id="node9" class="node"><title>Node9</title>
<polygon fill="none" stroke="#bfbfbf" points="467.5,-199 467.5,-256 513.5,-256 513.5,-199 467.5,-199"/>
<text text-anchor="middle" x="490.5" y="-244" font-family="Helvetica,sans-Serif" font-size="10.00">uint8_t</text>
<polyline fill="none" stroke="#bfbfbf" points="467.5,-237 513.5,-237 "/>
<text text-anchor="middle" x="490.5" y="-225" font-family="Helvetica,sans-Serif" font-size="10.00"> </text>
<polyline fill="none" stroke="#bfbfbf" points="467.5,-218 513.5,-218 "/>
<text text-anchor="middle" x="490.5" y="-206" font-family="Helvetica,sans-Serif" font-size="10.00"> </text>
</g>
<!-- Node9&#45;&gt;Node1 -->
<g id="edge8" class="edge"><title>Node9&#45;&gt;Node1</title>
<path fill="none" stroke="#404040" d="M485.375,-198.955C478.719,-170.298 464.476,-125.806 436.5,-98 419.748,-81.3501 397.438,-69.3315 375.65,-60.7566"/>
<polygon fill="none" stroke="#404040" points="375.593,-60.7357 368.579,-62.4105 364.335,-56.5802 371.349,-54.9055 375.593,-60.7357"/>
<text text-anchor="middle" x="500.5" y="-156" font-family="Helvetica,sans-Serif" font-size="10.00"> +ds_addr</text>
<text text-anchor="middle" x="500.5" y="-145" font-family="Helvetica,sans-Serif" font-size="10.00">+fee_id</text>
<text text-anchor="middle" x="500.5" y="-134" font-family="Helvetica,sans-Serif" font-size="10.00">+cru_id</text>
<text text-anchor="middle" x="500.5" y="-123" font-family="Helvetica,sans-Serif" font-size="10.00">+chan_addr</text>
<text text-anchor="middle" x="500.5" y="-112" font-family="Helvetica,sans-Serif" font-size="10.00">+link_id</text>
<text text-anchor="middle" x="500.5" y="-101" font-family="Helvetica,sans-Serif" font-size="10.00">+data_path</text>
</g>
</g>
</svg>
