<?xml version="1.0" encoding="UTF-8" standalone="no"?>
<!DOCTYPE svg PUBLIC "-//W3C//DTD SVG 1.1//EN"
 "http://www.w3.org/Graphics/SVG/1.1/DTD/svg11.dtd">
<!-- Generated by graphviz version 2.38.0 (20140413.2041)
 -->
<!-- Title: o2::quality_control_modules::tof::ERDHCounter_t Pages: 1 -->
<svg width="162pt" height="182pt"
 viewBox="0.00 0.00 162.00 182.00" xmlns="http://www.w3.org/2000/svg" xmlns:xlink="http://www.w3.org/1999/xlink">
<g id="graph0" class="graph" transform="scale(1 1) rotate(0) translate(4 178)">
<title>o2::quality_control_modules::tof::ERDHCounter_t</title>
<!-- Node1 -->
<g id="node1" class="node"><title>Node1</title>
<polygon fill="#bfbfbf" stroke="black" points="0,-0.5 0,-68.5 154,-68.5 154,-0.5 0,-0.5"/>
<text text-anchor="start" x="8" y="-56.5" font-family="Helvetica,sans-Serif" font-size="10.00">o2::quality_control</text>
<text text-anchor="middle" x="77" y="-45.5" font-family="Helvetica,sans-Serif" font-size="10.00">_modules::tof::ERDHCounter_t</text>
<polyline fill="none" stroke="black" points="0,-38.5 154,-38.5 "/>
<text text-anchor="middle" x="77" y="-26.5" font-family="Helvetica,sans-Serif" font-size="10.00"> </text>
<polyline fill="none" stroke="black" points="0,-19.5 154,-19.5 "/>
<text text-anchor="middle" x="77" y="-7.5" font-family="Helvetica,sans-Serif" font-size="10.00"> </text>
</g>
<!-- Node2 -->
<g id="node2" class="node"><title>Node2</title>
<polygon fill="none" stroke="#bfbfbf" points="21,-116.5 21,-173.5 69,-173.5 69,-116.5 21,-116.5"/>
<text text-anchor="middle" x="45" y="-161.5" font-family="Helvetica,sans-Serif" font-size="10.00">TString</text>
<polyline fill="none" stroke="#bfbfbf" points="21,-154.5 69,-154.5 "/>
<text text-anchor="middle" x="45" y="-142.5" font-family="Helvetica,sans-Serif" font-size="10.00"> </text>
<polyline fill="none" stroke="#bfbfbf" points="21,-135.5 69,-135.5 "/>
<text text-anchor="middle" x="45" y="-123.5" font-family="Helvetica,sans-Serif" font-size="10.00"> </text>
</g>
<!-- Node2&#45;&gt;Node1 -->
<g id="edge1" class="edge"><title>Node2&#45;&gt;Node1</title>
<path fill="none" stroke="#404040" d="M43.9218,-116.321C44.2163,-106.865 45.2909,-96.3258 48,-87 48.7044,-84.5751 49.5414,-82.1404 50.479,-79.7204"/>
<polygon fill="none" stroke="#404040" points="50.5606,-79.5387 49.3715,-72.4263 55.4794,-68.5931 56.6685,-75.7055 50.5606,-79.5387"/>
<text text-anchor="middle" x="67.5" y="-90" font-family="Helvetica,sans-Serif" font-size="10.00"> +names</text>
</g>
<!-- Node3 -->
<g id="node3" class="node"><title>Node3</title>
<polygon fill="none" stroke="#bfbfbf" points="87,-116.5 87,-173.5 131,-173.5 131,-116.5 87,-116.5"/>
<text text-anchor="middle" x="109" y="-161.5" font-family="Helvetica,sans-Serif" font-size="10.00">UInt_t</text>
<polyline fill="none" stroke="#bfbfbf" points="87,-154.5 131,-154.5 "/>
<text text-anchor="middle" x="109" y="-142.5" font-family="Helvetica,sans-Serif" font-size="10.00"> </text>
<polyline fill="none" stroke="#bfbfbf" points="87,-135.5 131,-135.5 "/>
<text text-anchor="middle" x="109" y="-123.5" font-family="Helvetica,sans-Serif" font-size="10.00"> </text>
</g>
<!-- Node3&#45;&gt;Node1 -->
<g id="edge2" class="edge"><title>Node3&#45;&gt;Node1</title>
<path fill="none" stroke="#404040" d="M100.842,-116.34C97.6203,-105.416 93.8346,-92.5798 90.2405,-80.3935"/>
<polygon fill="none" stroke="#404040" points="90.1329,-80.0284 84.5989,-75.405 86.7382,-68.5186 92.2721,-73.1419 90.1329,-80.0284"/>
<text text-anchor="middle" x="108" y="-90" font-family="Helvetica,sans-Serif" font-size="10.00"> +size</text>
</g>
</g>
</svg>
