<?xml version="1.0" encoding="UTF-8" standalone="no"?>
<!DOCTYPE svg PUBLIC "-//W3C//DTD SVG 1.1//EN"
 "http://www.w3.org/Graphics/SVG/1.1/DTD/svg11.dtd">
<!-- Generated by graphviz version 2.38.0 (20140413.2041)
 -->
<!-- Title: o2::quality_control::postprocessing::TrendingTaskConfigITS Pages: 1 -->
<svg width="479pt" height="397pt"
 viewBox="0.00 0.00 478.50 397.00" xmlns="http://www.w3.org/2000/svg" xmlns:xlink="http://www.w3.org/1999/xlink">
<g id="graph0" class="graph" transform="scale(1 1) rotate(0) translate(4 393)">
<title>o2::quality_control::postprocessing::TrendingTaskConfigITS</title>
<!-- Node1 -->
<g id="node1" class="node"><title>Node1</title>
<polygon fill="#bfbfbf" stroke="black" points="193,-0.5 193,-101.5 334,-101.5 334,-0.5 193,-0.5"/>
<text text-anchor="start" x="201" y="-89.5" font-family="Helvetica,sans-Serif" font-size="10.00">o2::quality_control</text>
<text text-anchor="start" x="201" y="-78.5" font-family="Helvetica,sans-Serif" font-size="10.00">::postprocessing::Trending</text>
<text text-anchor="middle" x="263.5" y="-67.5" font-family="Helvetica,sans-Serif" font-size="10.00">TaskConfigITS</text>
<polyline fill="none" stroke="black" points="193,-60.5 334,-60.5 "/>
<text text-anchor="middle" x="263.5" y="-48.5" font-family="Helvetica,sans-Serif" font-size="10.00"> </text>
<polyline fill="none" stroke="black" points="193,-41.5 334,-41.5 "/>
<text text-anchor="start" x="201" y="-29.5" font-family="Helvetica,sans-Serif" font-size="10.00">+ TrendingTaskConfigITS()</text>
<text text-anchor="start" x="201" y="-18.5" font-family="Helvetica,sans-Serif" font-size="10.00">+ TrendingTaskConfigITS()</text>
<text text-anchor="start" x="201" y="-7.5" font-family="Helvetica,sans-Serif" font-size="10.00">+ ~TrendingTaskConfigITS()</text>
</g>
<!-- Node2 -->
<g id="node2" class="node"><title>Node2</title>
<g id="a_node2"><a xlink:href="structo2_1_1quality__control_1_1postprocessing_1_1PostProcessingConfig.html" target="_top" xlink:title="Post&#45;processing configuration structure. ">
<polygon fill="none" stroke="black" points="18.5,-149.5 18.5,-250.5 182.5,-250.5 182.5,-149.5 18.5,-149.5"/>
<text text-anchor="start" x="26.5" y="-238.5" font-family="Helvetica,sans-Serif" font-size="10.00">o2::quality_control</text>
<text text-anchor="start" x="26.5" y="-227.5" font-family="Helvetica,sans-Serif" font-size="10.00">::postprocessing::PostProcessing</text>
<text text-anchor="middle" x="100.5" y="-216.5" font-family="Helvetica,sans-Serif" font-size="10.00">Config</text>
<polyline fill="none" stroke="black" points="18.5,-209.5 182.5,-209.5 "/>
<text text-anchor="middle" x="100.5" y="-197.5" font-family="Helvetica,sans-Serif" font-size="10.00"> </text>
<polyline fill="none" stroke="black" points="18.5,-190.5 182.5,-190.5 "/>
<text text-anchor="start" x="26.5" y="-178.5" font-family="Helvetica,sans-Serif" font-size="10.00">+ PostProcessingConfig()</text>
<text text-anchor="start" x="26.5" y="-167.5" font-family="Helvetica,sans-Serif" font-size="10.00">+ PostProcessingConfig()</text>
<text text-anchor="start" x="26.5" y="-156.5" font-family="Helvetica,sans-Serif" font-size="10.00">+ ~PostProcessingConfig()</text>
</a>
</g>
</g>
<!-- Node2&#45;&gt;Node1 -->
<g id="edge1" class="edge"><title>Node2&#45;&gt;Node1</title>
<path fill="none" stroke="midnightblue" d="M163.354,-142.316C178.193,-128.933 193.904,-114.764 208.372,-101.716"/>
<polygon fill="none" stroke="midnightblue" points="160.767,-139.936 155.684,-149.233 165.455,-145.134 160.767,-139.936"/>
</g>
<!-- Node3 -->
<g id="node3" class="node"><title>Node3</title>
<polygon fill="none" stroke="#bfbfbf" points="0,-331.5 0,-388.5 105,-388.5 105,-331.5 0,-331.5"/>
<text text-anchor="middle" x="52.5" y="-376.5" font-family="Helvetica,sans-Serif" font-size="10.00">vector&lt; std::string &gt;</text>
<polyline fill="none" stroke="#bfbfbf" points="0,-369.5 105,-369.5 "/>
<text text-anchor="middle" x="52.5" y="-357.5" font-family="Helvetica,sans-Serif" font-size="10.00"> </text>
<polyline fill="none" stroke="#bfbfbf" points="0,-350.5 105,-350.5 "/>
<text text-anchor="middle" x="52.5" y="-338.5" font-family="Helvetica,sans-Serif" font-size="10.00"> </text>
</g>
<!-- Node3&#45;&gt;Node2 -->
<g id="edge2" class="edge"><title>Node3&#45;&gt;Node2</title>
<path fill="none" stroke="#404040" d="M48.6737,-331.161C47.1776,-313.032 47.1061,-289.103 53.5,-269 54.3129,-266.444 55.2575,-263.899 56.3104,-261.377"/>
<polygon fill="none" stroke="#404040" points="56.3405,-261.315 55.3395,-254.173 61.5465,-250.503 62.5475,-257.644 56.3405,-261.315"/>
<text text-anchor="middle" x="90.5" y="-299.5" font-family="Helvetica,sans-Serif" font-size="10.00"> +updateTriggers</text>
<text text-anchor="middle" x="90.5" y="-288.5" font-family="Helvetica,sans-Serif" font-size="10.00">+stopTriggers</text>
<text text-anchor="middle" x="90.5" y="-277.5" font-family="Helvetica,sans-Serif" font-size="10.00">+initTriggers</text>
</g>
<!-- Node4 -->
<g id="node4" class="node"><title>Node4</title>
<polygon fill="none" stroke="#bfbfbf" points="129,-331.5 129,-388.5 170,-388.5 170,-331.5 129,-331.5"/>
<text text-anchor="middle" x="149.5" y="-376.5" font-family="Helvetica,sans-Serif" font-size="10.00">string</text>
<polyline fill="none" stroke="#bfbfbf" points="129,-369.5 170,-369.5 "/>
<text text-anchor="middle" x="149.5" y="-357.5" font-family="Helvetica,sans-Serif" font-size="10.00"> </text>
<polyline fill="none" stroke="#bfbfbf" points="129,-350.5 170,-350.5 "/>
<text text-anchor="middle" x="149.5" y="-338.5" font-family="Helvetica,sans-Serif" font-size="10.00"> </text>
</g>
<!-- Node4&#45;&gt;Node2 -->
<g id="edge3" class="edge"><title>Node4&#45;&gt;Node2</title>
<path fill="none" stroke="#404040" d="M143.737,-331.152C139.772,-313.23 134.052,-289.534 127.5,-269 126.791,-266.776 126.044,-264.522 125.269,-262.252"/>
<polygon fill="none" stroke="#404040" points="125.233,-262.151 119.449,-257.845 121.2,-250.849 126.984,-255.156 125.233,-262.151"/>
<text text-anchor="middle" x="176" y="-305" font-family="Helvetica,sans-Serif" font-size="10.00"> +detectorName</text>
<text text-anchor="middle" x="176" y="-294" font-family="Helvetica,sans-Serif" font-size="10.00">+moduleName</text>
<text text-anchor="middle" x="176" y="-283" font-family="Helvetica,sans-Serif" font-size="10.00">+taskName</text>
<text text-anchor="middle" x="176" y="-272" font-family="Helvetica,sans-Serif" font-size="10.00">+className</text>
</g>
<!-- Node5 -->
<g id="node5" class="node"><title>Node5</title>
<polygon fill="none" stroke="#bfbfbf" points="200.5,-155 200.5,-245 326.5,-245 326.5,-155 200.5,-155"/>
<text text-anchor="start" x="208.5" y="-233" font-family="Helvetica,sans-Serif" font-size="10.00">vector&lt; o2::quality</text>
<text text-anchor="start" x="208.5" y="-222" font-family="Helvetica,sans-Serif" font-size="10.00">_control::postprocessing</text>
<text text-anchor="start" x="208.5" y="-211" font-family="Helvetica,sans-Serif" font-size="10.00">::TrendingTaskConfigITS</text>
<text text-anchor="middle" x="263.5" y="-200" font-family="Helvetica,sans-Serif" font-size="10.00">::Plot &gt;</text>
<polyline fill="none" stroke="#bfbfbf" points="200.5,-193 326.5,-193 "/>
<text text-anchor="middle" x="263.5" y="-181" font-family="Helvetica,sans-Serif" font-size="10.00"> </text>
<polyline fill="none" stroke="#bfbfbf" points="200.5,-174 326.5,-174 "/>
<text text-anchor="middle" x="263.5" y="-162" font-family="Helvetica,sans-Serif" font-size="10.00"> </text>
</g>
<!-- Node5&#45;&gt;Node1 -->
<g id="edge4" class="edge"><title>Node5&#45;&gt;Node1</title>
<path fill="none" stroke="#404040" d="M263.5,-154.895C263.5,-142.075 263.5,-127.826 263.5,-114.119"/>
<polygon fill="none" stroke="#404040" points="263.5,-113.739 259.5,-107.739 263.5,-101.739 267.5,-107.739 263.5,-113.739"/>
<text text-anchor="middle" x="279" y="-123" font-family="Helvetica,sans-Serif" font-size="10.00"> +plots</text>
</g>
<!-- Node6 -->
<g id="node6" class="node"><title>Node6</title>
<polygon fill="none" stroke="#bfbfbf" points="344.5,-155 344.5,-245 470.5,-245 470.5,-155 344.5,-155"/>
<text text-anchor="start" x="352.5" y="-233" font-family="Helvetica,sans-Serif" font-size="10.00">vector&lt; o2::quality</text>
<text text-anchor="start" x="352.5" y="-222" font-family="Helvetica,sans-Serif" font-size="10.00">_control::postprocessing</text>
<text text-anchor="start" x="352.5" y="-211" font-family="Helvetica,sans-Serif" font-size="10.00">::TrendingTaskConfigITS</text>
<text text-anchor="middle" x="407.5" y="-200" font-family="Helvetica,sans-Serif" font-size="10.00">::DataSource &gt;</text>
<polyline fill="none" stroke="#bfbfbf" points="344.5,-193 470.5,-193 "/>
<text text-anchor="middle" x="407.5" y="-181" font-family="Helvetica,sans-Serif" font-size="10.00"> </text>
<polyline fill="none" stroke="#bfbfbf" points="344.5,-174 470.5,-174 "/>
<text text-anchor="middle" x="407.5" y="-162" font-family="Helvetica,sans-Serif" font-size="10.00"> </text>
</g>
<!-- Node6&#45;&gt;Node1 -->
<g id="edge5" class="edge"><title>Node6&#45;&gt;Node1</title>
<path fill="none" stroke="#404040" d="M364.295,-154.895C350.583,-140.898 335.203,-125.197 320.666,-110.357"/>
<polygon fill="none" stroke="#404040" points="320.621,-110.311 313.565,-108.824 312.224,-101.739 319.28,-103.226 320.621,-110.311"/>
<text text-anchor="middle" x="371.5" y="-123" font-family="Helvetica,sans-Serif" font-size="10.00"> +dataSources</text>
</g>
</g>
</svg>
