<?xml version="1.0" encoding="UTF-8" standalone="no"?>
<!DOCTYPE svg PUBLIC "-//W3C//DTD SVG 1.1//EN"
 "http://www.w3.org/Graphics/SVG/1.1/DTD/svg11.dtd">
<!-- Generated by graphviz version 2.38.0 (20140413.2041)
 -->
<!-- Title: o2::quality_control_modules::tof::ETRMChainCounter_t Pages: 1 -->
<svg width="187pt" height="182pt"
 viewBox="0.00 0.00 187.00 182.00" xmlns="http://www.w3.org/2000/svg" xmlns:xlink="http://www.w3.org/1999/xlink">
<g id="graph0" class="graph" transform="scale(1 1) rotate(0) translate(4 178)">
<title>o2::quality_control_modules::tof::ETRMChainCounter_t</title>
<!-- Node1 -->
<g id="node1" class="node"><title>Node1</title>
<polygon fill="#bfbfbf" stroke="black" points="0,-0.5 0,-68.5 179,-68.5 179,-0.5 0,-0.5"/>
<text text-anchor="start" x="8" y="-56.5" font-family="Helvetica,sans-Serif" font-size="10.00">o2::quality_control</text>
<text text-anchor="middle" x="89.5" y="-45.5" font-family="Helvetica,sans-Serif" font-size="10.00">_modules::tof::ETRMChainCounter_t</text>
<polyline fill="none" stroke="black" points="0,-38.5 179,-38.5 "/>
<text text-anchor="middle" x="89.5" y="-26.5" font-family="Helvetica,sans-Serif" font-size="10.00"> </text>
<polyline fill="none" stroke="black" points="0,-19.5 179,-19.5 "/>
<text text-anchor="middle" x="89.5" y="-7.5" font-family="Helvetica,sans-Serif" font-size="10.00"> </text>
</g>
<!-- Node2 -->
<g id="node2" class="node"><title>Node2</title>
<polygon fill="none" stroke="#bfbfbf" points="33.5,-116.5 33.5,-173.5 81.5,-173.5 81.5,-116.5 33.5,-116.5"/>
<text text-anchor="middle" x="57.5" y="-161.5" font-family="Helvetica,sans-Serif" font-size="10.00">TString</text>
<polyline fill="none" stroke="#bfbfbf" points="33.5,-154.5 81.5,-154.5 "/>
<text text-anchor="middle" x="57.5" y="-142.5" font-family="Helvetica,sans-Serif" font-size="10.00"> </text>
<polyline fill="none" stroke="#bfbfbf" points="33.5,-135.5 81.5,-135.5 "/>
<text text-anchor="middle" x="57.5" y="-123.5" font-family="Helvetica,sans-Serif" font-size="10.00"> </text>
</g>
<!-- Node2&#45;&gt;Node1 -->
<g id="edge1" class="edge"><title>Node2&#45;&gt;Node1</title>
<path fill="none" stroke="#404040" d="M56.4218,-116.321C56.7163,-106.865 57.7909,-96.3258 60.5,-87 61.2044,-84.5751 62.0414,-82.1404 62.979,-79.7204"/>
<polygon fill="none" stroke="#404040" points="63.0606,-79.5387 61.8715,-72.4263 67.9794,-68.5931 69.1685,-75.7055 63.0606,-79.5387"/>
<text text-anchor="middle" x="80" y="-90" font-family="Helvetica,sans-Serif" font-size="10.00"> +names</text>
</g>
<!-- Node3 -->
<g id="node3" class="node"><title>Node3</title>
<polygon fill="none" stroke="#bfbfbf" points="99.5,-116.5 99.5,-173.5 143.5,-173.5 143.5,-116.5 99.5,-116.5"/>
<text text-anchor="middle" x="121.5" y="-161.5" font-family="Helvetica,sans-Serif" font-size="10.00">UInt_t</text>
<polyline fill="none" stroke="#bfbfbf" points="99.5,-154.5 143.5,-154.5 "/>
<text text-anchor="middle" x="121.5" y="-142.5" font-family="Helvetica,sans-Serif" font-size="10.00"> </text>
<polyline fill="none" stroke="#bfbfbf" points="99.5,-135.5 143.5,-135.5 "/>
<text text-anchor="middle" x="121.5" y="-123.5" font-family="Helvetica,sans-Serif" font-size="10.00"> </text>
</g>
<!-- Node3&#45;&gt;Node1 -->
<g id="edge2" class="edge"><title>Node3&#45;&gt;Node1</title>
<path fill="none" stroke="#404040" d="M113.342,-116.34C110.12,-105.416 106.335,-92.5798 102.74,-80.3935"/>
<polygon fill="none" stroke="#404040" points="102.633,-80.0284 97.0989,-75.405 99.2382,-68.5186 104.772,-73.1419 102.633,-80.0284"/>
<text text-anchor="middle" x="120.5" y="-90" font-family="Helvetica,sans-Serif" font-size="10.00"> +size</text>
</g>
</g>
</svg>
