<?xml version="1.0" encoding="UTF-8" standalone="no"?>
<!DOCTYPE svg PUBLIC "-//W3C//DTD SVG 1.1//EN"
 "http://www.w3.org/Graphics/SVG/1.1/DTD/svg11.dtd">
<!-- Generated by graphviz version 2.38.0 (20140413.2041)
 -->
<!-- Title: o2::quality_control_modules::tof::ELTMCounter_t Pages: 1 -->
<svg width="159pt" height="182pt"
 viewBox="0.00 0.00 159.00 182.00" xmlns="http://www.w3.org/2000/svg" xmlns:xlink="http://www.w3.org/1999/xlink">
<g id="graph0" class="graph" transform="scale(1 1) rotate(0) translate(4 178)">
<title>o2::quality_control_modules::tof::ELTMCounter_t</title>
<!-- Node1 -->
<g id="node1" class="node"><title>Node1</title>
<polygon fill="#bfbfbf" stroke="black" points="0,-0.5 0,-68.5 151,-68.5 151,-0.5 0,-0.5"/>
<text text-anchor="start" x="8" y="-56.5" font-family="Helvetica,sans-Serif" font-size="10.00">o2::quality_control</text>
<text text-anchor="middle" x="75.5" y="-45.5" font-family="Helvetica,sans-Serif" font-size="10.00">_modules::tof::ELTMCounter_t</text>
<polyline fill="none" stroke="black" points="0,-38.5 151,-38.5 "/>
<text text-anchor="middle" x="75.5" y="-26.5" font-family="Helvetica,sans-Serif" font-size="10.00"> </text>
<polyline fill="none" stroke="black" points="0,-19.5 151,-19.5 "/>
<text text-anchor="middle" x="75.5" y="-7.5" font-family="Helvetica,sans-Serif" font-size="10.00"> </text>
</g>
<!-- Node2 -->
<g id="node2" class="node"><title>Node2</title>
<polygon fill="none" stroke="#bfbfbf" points="19.5,-116.5 19.5,-173.5 67.5,-173.5 67.5,-116.5 19.5,-116.5"/>
<text text-anchor="middle" x="43.5" y="-161.5" font-family="Helvetica,sans-Serif" font-size="10.00">TString</text>
<polyline fill="none" stroke="#bfbfbf" points="19.5,-154.5 67.5,-154.5 "/>
<text text-anchor="middle" x="43.5" y="-142.5" font-family="Helvetica,sans-Serif" font-size="10.00"> </text>
<polyline fill="none" stroke="#bfbfbf" points="19.5,-135.5 67.5,-135.5 "/>
<text text-anchor="middle" x="43.5" y="-123.5" font-family="Helvetica,sans-Serif" font-size="10.00"> </text>
</g>
<!-- Node2&#45;&gt;Node1 -->
<g id="edge1" class="edge"><title>Node2&#45;&gt;Node1</title>
<path fill="none" stroke="#404040" d="M42.4218,-116.321C42.7163,-106.865 43.7909,-96.3258 46.5,-87 47.2044,-84.5751 48.0414,-82.1404 48.979,-79.7204"/>
<polygon fill="none" stroke="#404040" points="49.0606,-79.5387 47.8715,-72.4263 53.9794,-68.5931 55.1685,-75.7055 49.0606,-79.5387"/>
<text text-anchor="middle" x="66" y="-90" font-family="Helvetica,sans-Serif" font-size="10.00"> +names</text>
</g>
<!-- Node3 -->
<g id="node3" class="node"><title>Node3</title>
<polygon fill="none" stroke="#bfbfbf" points="85.5,-116.5 85.5,-173.5 129.5,-173.5 129.5,-116.5 85.5,-116.5"/>
<text text-anchor="middle" x="107.5" y="-161.5" font-family="Helvetica,sans-Serif" font-size="10.00">UInt_t</text>
<polyline fill="none" stroke="#bfbfbf" points="85.5,-154.5 129.5,-154.5 "/>
<text text-anchor="middle" x="107.5" y="-142.5" font-family="Helvetica,sans-Serif" font-size="10.00"> </text>
<polyline fill="none" stroke="#bfbfbf" points="85.5,-135.5 129.5,-135.5 "/>
<text text-anchor="middle" x="107.5" y="-123.5" font-family="Helvetica,sans-Serif" font-size="10.00"> </text>
</g>
<!-- Node3&#45;&gt;Node1 -->
<g id="edge2" class="edge"><title>Node3&#45;&gt;Node1</title>
<path fill="none" stroke="#404040" d="M99.3423,-116.34C96.1203,-105.416 92.3346,-92.5798 88.7405,-80.3935"/>
<polygon fill="none" stroke="#404040" points="88.6329,-80.0284 83.0989,-75.405 85.2382,-68.5186 90.7721,-73.1419 88.6329,-80.0284"/>
<text text-anchor="middle" x="106.5" y="-90" font-family="Helvetica,sans-Serif" font-size="10.00"> +size</text>
</g>
</g>
</svg>
