<?xml version="1.0" encoding="UTF-8" standalone="no"?>
<!DOCTYPE svg PUBLIC "-//W3C//DTD SVG 1.1//EN"
 "http://www.w3.org/Graphics/SVG/1.1/DTD/svg11.dtd">
<!-- Generated by graphviz version 2.38.0 (20140413.2041)
 -->
<!-- Title: Modules/TOF/src/TaskCompressedData.cxx Pages: 1 -->
<!--zoomable 341 -->
<svg id="main" version="1.1" xmlns="http://www.w3.org/2000/svg" xmlns:xlink="http://www.w3.org/1999/xlink" xml:space="preserve" onload="init(evt)">
<style type="text/css"><![CDATA[
.edge:hover path { stroke: red; }
.edge:hover polygon { stroke: red; fill: red; }
]]></style>
<script type="text/javascript"><![CDATA[
var edges = document.getElementsByTagName('g');
if (edges && edges.length) {
  for (var i=0;i<edges.length;i++) {
    if (edges[i].id.substr(0,4)=='edge') {
      edges[i].setAttribute('class','edge');
    }
  }
}
]]></script>
        <defs>
                <circle id="rim" cx="0" cy="0" r="7"/>
                <circle id="rim2" cx="0" cy="0" r="3.5"/>
                <g id="zoomPlus">
                        <use xlink:href="#rim" fill="#404040">
                                <set attributeName="fill" to="#808080" begin="zoomplus.mouseover" end="zoomplus.mouseout"/>
                        </use>
                        <path d="M-4,0h8M0,-4v8" fill="none" stroke="white" stroke-width="1.5" pointer-events="none"/>
                </g>
                <g id="zoomMin">
                        <use xlink:href="#rim" fill="#404040">
                                <set attributeName="fill" to="#808080" begin="zoomminus.mouseover" end="zoomminus.mouseout"/>
                        </use>
                        <path d="M-4,0h8" fill="none" stroke="white" stroke-width="1.5" pointer-events="none"/>
                </g>
                <g id="dirArrow">
                        <path fill="none" stroke="white" stroke-width="1.5" d="M0,-3.0v7 M-2.5,-0.5L0,-3.0L2.5,-0.5"/>
                </g>
               <g id="resetDef">
                       <use xlink:href="#rim2" fill="#404040">
                               <set attributeName="fill" to="#808080" begin="reset.mouseover" end="reset.mouseout"/>
                       </use>
               </g>
        </defs>

<script type="text/javascript">
var viewWidth = 1852;
var viewHeight = 341;
var sectionId = 'dynsection-0';
</script>
<script xlink:href="svgpan.js"/>
<svg id="graph" class="graph">
<g id="viewport">
<title>Modules/TOF/src/TaskCompressedData.cxx</title>
<!-- Node1 -->
<g id="node1" class="node"><title>Node1</title>
<polygon fill="#bfbfbf" stroke="black" points="345.5,-302.5 345.5,-332.5 518.5,-332.5 518.5,-302.5 345.5,-302.5"/>
<text text-anchor="start" x="353.5" y="-320.5" font-family="Helvetica,sans-Serif" font-size="10.00">Modules/TOF/src/TaskCompressed</text>
<text text-anchor="middle" x="432" y="-309.5" font-family="Helvetica,sans-Serif" font-size="10.00">Data.cxx</text>
</g>
<!-- Node2 -->
<g id="node2" class="node"><title>Node2</title>
<polygon fill="none" stroke="#bfbfbf" points="-3.55271e-15,-246.5 -3.55271e-15,-265.5 44,-265.5 44,-246.5 -3.55271e-15,-246.5"/>
<text text-anchor="middle" x="22" y="-253.5" font-family="Helvetica,sans-Serif" font-size="10.00">TH1.h</text>
</g>
<!-- Node1&#45;&gt;Node2 -->
<g id="edge1" class="edge"><title>Node1&#45;&gt;Node2</title>
<path fill="none" stroke="midnightblue" d="M345.197,-308.677C270.307,-301.068 159.193,-287.728 54.076,-265.957"/>
<polygon fill="midnightblue" stroke="midnightblue" points="54.7559,-262.523 44.25,-263.893 53.317,-269.374 54.7559,-262.523"/>
</g>
<!-- Node3 -->
<g id="node3" class="node"><title>Node3</title>
<polygon fill="none" stroke="#bfbfbf" points="62,-246.5 62,-265.5 112,-265.5 112,-246.5 62,-246.5"/>
<text text-anchor="middle" x="87" y="-253.5" font-family="Helvetica,sans-Serif" font-size="10.00">TH1F.h</text>
</g>
<!-- Node1&#45;&gt;Node3 -->
<g id="edge2" class="edge"><title>Node1&#45;&gt;Node3</title>
<path fill="none" stroke="midnightblue" d="M345.442,-304.763C285.258,-296.061 203.023,-283.101 122.052,-266.059"/>
<polygon fill="midnightblue" stroke="midnightblue" points="122.694,-262.617 112.185,-263.96 121.238,-269.464 122.694,-262.617"/>
</g>
<!-- Node4 -->
<g id="node4" class="node"><title>Node4</title>
<polygon fill="none" stroke="#bfbfbf" points="130,-246.5 130,-265.5 180,-265.5 180,-246.5 130,-246.5"/>
<text text-anchor="middle" x="155" y="-253.5" font-family="Helvetica,sans-Serif" font-size="10.00">TH2F.h</text>
</g>
<!-- Node1&#45;&gt;Node4 -->
<g id="edge3" class="edge"><title>Node1&#45;&gt;Node4</title>
<path fill="none" stroke="midnightblue" d="M359.471,-302.49C313.508,-293.364 252.594,-280.817 190.232,-266.199"/>
<polygon fill="midnightblue" stroke="midnightblue" points="190.749,-262.725 180.213,-263.836 189.142,-269.538 190.749,-262.725"/>
</g>
<!-- Node5 -->
<g id="node5" class="node"><title>Node5</title>
<polygon fill="none" stroke="#bfbfbf" points="744,-179.5 744,-209.5 896,-209.5 896,-179.5 744,-179.5"/>
<text text-anchor="start" x="752" y="-197.5" font-family="Helvetica,sans-Serif" font-size="10.00">DataFormatsTOF/Compressed</text>
<text text-anchor="middle" x="820" y="-186.5" font-family="Helvetica,sans-Serif" font-size="10.00">DataFormat.h</text>
</g>
<!-- Node1&#45;&gt;Node5 -->
<g id="edge4" class="edge"><title>Node1&#45;&gt;Node5</title>
<path fill="none" stroke="midnightblue" d="M518.64,-310.965C625.961,-303.229 797.167,-287.658 817,-266 828.118,-253.859 828.391,-235.038 826.14,-219.895"/>
<polygon fill="midnightblue" stroke="midnightblue" points="829.499,-218.827 824.174,-209.667 822.625,-220.148 829.499,-218.827"/>
</g>
<!-- Node6 -->
<g id="node6" class="node"><title>Node6</title>
<polygon fill="none" stroke="#bfbfbf" points="365,-246.5 365,-265.5 499,-265.5 499,-246.5 365,-246.5"/>
<text text-anchor="middle" x="432" y="-253.5" font-family="Helvetica,sans-Serif" font-size="10.00">Framework/DataRefUtils.h</text>
</g>
<!-- Node1&#45;&gt;Node6 -->
<g id="edge5" class="edge"><title>Node1&#45;&gt;Node6</title>
<path fill="none" stroke="midnightblue" d="M432,-302.399C432,-294.466 432,-284.458 432,-275.858"/>
<polygon fill="midnightblue" stroke="midnightblue" points="435.5,-275.658 432,-265.658 428.5,-275.658 435.5,-275.658"/>
</g>
<!-- Node7 -->
<g id="node7" class="node"><title>Node7</title>
<polygon fill="none" stroke="#bfbfbf" points="517.5,-246.5 517.5,-265.5 658.5,-265.5 658.5,-246.5 517.5,-246.5"/>
<text text-anchor="middle" x="588" y="-253.5" font-family="Helvetica,sans-Serif" font-size="10.00">Headers/RAWDataHeader.h</text>
</g>
<!-- Node1&#45;&gt;Node7 -->
<g id="edge6" class="edge"><title>Node1&#45;&gt;Node7</title>
<path fill="none" stroke="midnightblue" d="M468.97,-302.399C495.378,-292.327 530.557,-278.909 555.812,-269.277"/>
<polygon fill="midnightblue" stroke="midnightblue" points="557.204,-272.492 565.301,-265.658 554.71,-265.951 557.204,-272.492"/>
</g>
<!-- Node8 -->
<g id="node8" class="node"><title>Node8</title>
<polygon fill="none" stroke="#bfbfbf" points="676.5,-246.5 676.5,-265.5 807.5,-265.5 807.5,-246.5 676.5,-246.5"/>
<text text-anchor="middle" x="742" y="-253.5" font-family="Helvetica,sans-Serif" font-size="10.00">DetectorsRaw/HBFUtils.h</text>
</g>
<!-- Node1&#45;&gt;Node8 -->
<g id="edge7" class="edge"><title>Node1&#45;&gt;Node8</title>
<path fill="none" stroke="midnightblue" d="M505.073,-302.475C561.007,-291.739 636.915,-277.17 687.583,-267.445"/>
<polygon fill="midnightblue" stroke="midnightblue" points="688.52,-270.829 697.681,-265.506 687.201,-263.954 688.52,-270.829"/>
</g>
<!-- Node9 -->
<g id="node9" class="node"><title>Node9</title>
<g id="a_node9"><a xlink:href="QcInfoLogger_8h.html" target="_top" xlink:title="QualityControl/QcInfoLogger.h">
<polygon fill="none" stroke="black" points="197.5,-246.5 197.5,-265.5 346.5,-265.5 346.5,-246.5 197.5,-246.5"/>
<text text-anchor="middle" x="272" y="-253.5" font-family="Helvetica,sans-Serif" font-size="10.00">QualityControl/QcInfoLogger.h</text>
</a>
</g>
</g>
<!-- Node1&#45;&gt;Node9 -->
<g id="edge8" class="edge"><title>Node1&#45;&gt;Node9</title>
<path fill="none" stroke="midnightblue" d="M394.082,-302.399C366.877,-292.283 330.596,-278.791 304.67,-269.149"/>
<polygon fill="midnightblue" stroke="midnightblue" points="305.874,-265.863 295.281,-265.658 303.434,-272.424 305.874,-265.863"/>
</g>
<!-- Node11 -->
<g id="node11" class="node"><title>Node11</title>
<g id="a_node11"><a xlink:href="TaskCompressedData_8h.html" target="_top" xlink:title="Task To monitor data converted from TOF compressor, it implements a dedicated decoder from DecoderBas...">
<polygon fill="none" stroke="black" points="896,-246.5 896,-265.5 1042,-265.5 1042,-246.5 896,-246.5"/>
<text text-anchor="middle" x="969" y="-253.5" font-family="Helvetica,sans-Serif" font-size="10.00">TOF/TaskCompressedData.h</text>
</a>
</g>
</g>
<!-- Node1&#45;&gt;Node11 -->
<g id="edge10" class="edge"><title>Node1&#45;&gt;Node11</title>
<path fill="none" stroke="midnightblue" d="M518.577,-306.907C619.821,-295.689 786.219,-277.252 885.93,-266.204"/>
<polygon fill="midnightblue" stroke="midnightblue" points="886.408,-269.673 895.962,-265.093 885.637,-262.715 886.408,-269.673"/>
</g>
<!-- Node10 -->
<g id="node10" class="node"><title>Node10</title>
<polygon fill="none" stroke="#bfbfbf" points="207,-185 207,-204 337,-204 337,-185 207,-185"/>
<text text-anchor="middle" x="272" y="-192" font-family="Helvetica,sans-Serif" font-size="10.00">InfoLogger/InfoLogger.hxx</text>
</g>
<!-- Node9&#45;&gt;Node10 -->
<g id="edge9" class="edge"><title>Node9&#45;&gt;Node10</title>
<path fill="none" stroke="midnightblue" d="M272,-246.475C272,-238.08 272,-224.981 272,-214.163"/>
<polygon fill="midnightblue" stroke="midnightblue" points="275.5,-214.009 272,-204.009 268.5,-214.009 275.5,-214.009"/>
</g>
<!-- Node11&#45;&gt;Node5 -->
<g id="edge12" class="edge"><title>Node11&#45;&gt;Node5</title>
<path fill="none" stroke="midnightblue" d="M947.652,-246.475C926.057,-237.852 892.031,-224.264 864.538,-213.285"/>
<polygon fill="midnightblue" stroke="midnightblue" points="865.701,-209.981 855.116,-209.523 863.105,-216.482 865.701,-209.981"/>
</g>
<!-- Node12 -->
<g id="node12" class="node"><title>Node12</title>
<polygon fill="none" stroke="#bfbfbf" points="914,-179.5 914,-209.5 1056,-209.5 1056,-179.5 914,-179.5"/>
<text text-anchor="start" x="922" y="-197.5" font-family="Helvetica,sans-Serif" font-size="10.00">TOFReconstruction/Decoder</text>
<text text-anchor="middle" x="985" y="-186.5" font-family="Helvetica,sans-Serif" font-size="10.00">Base.h</text>
</g>
<!-- Node11&#45;&gt;Node12 -->
<g id="edge11" class="edge"><title>Node11&#45;&gt;Node12</title>
<path fill="none" stroke="midnightblue" d="M971.292,-246.475C973.196,-239.396 976,-228.97 978.576,-219.39"/>
<polygon fill="midnightblue" stroke="midnightblue" points="982.012,-220.089 981.229,-209.523 975.252,-218.271 982.012,-220.089"/>
</g>
<!-- Node13 -->
<g id="node13" class="node"><title>Node13</title>
<g id="a_node13"><a xlink:href="TaskInterface_8h.html" target="_top" xlink:title="QualityControl/TaskInterface.h">
<polygon fill="none" stroke="black" points="1074,-185 1074,-204 1224,-204 1224,-185 1074,-185"/>
<text text-anchor="middle" x="1149" y="-192" font-family="Helvetica,sans-Serif" font-size="10.00">QualityControl/TaskInterface.h</text>
</a>
</g>
</g>
<!-- Node11&#45;&gt;Node13 -->
<g id="edge13" class="edge"><title>Node11&#45;&gt;Node13</title>
<path fill="none" stroke="midnightblue" d="M994.79,-246.475C1025.93,-236.18 1078.48,-218.81 1113.45,-207.25"/>
<polygon fill="midnightblue" stroke="midnightblue" points="1114.86,-210.471 1123.26,-204.009 1112.66,-203.825 1114.86,-210.471"/>
</g>
<!-- Node14 -->
<g id="node14" class="node"><title>Node14</title>
<polygon fill="none" stroke="#bfbfbf" points="1174.5,-0.5 1174.5,-19.5 1209.5,-19.5 1209.5,-0.5 1174.5,-0.5"/>
<text text-anchor="middle" x="1192" y="-7.5" font-family="Helvetica,sans-Serif" font-size="10.00">map</text>
</g>
<!-- Node13&#45;&gt;Node14 -->
<g id="edge14" class="edge"><title>Node13&#45;&gt;Node14</title>
<path fill="none" stroke="midnightblue" d="M1112.9,-184.843C1091.16,-177.567 1065.2,-164.75 1052,-143 1031.94,-109.943 1029.22,-87.246 1052,-56 1077.54,-20.9681 1130.79,-12.611 1163.76,-10.9548"/>
<polygon fill="midnightblue" stroke="midnightblue" points="1164.21,-14.4422 1174.09,-10.6212 1163.98,-7.4458 1164.21,-14.4422"/>
</g>
<!-- Node15 -->
<g id="node15" class="node"><title>Node15</title>
<polygon fill="none" stroke="#bfbfbf" points="1131,-62 1131,-81 1183,-81 1183,-62 1131,-62"/>
<text text-anchor="middle" x="1157" y="-69" font-family="Helvetica,sans-Serif" font-size="10.00">memory</text>
</g>
<!-- Node13&#45;&gt;Node15 -->
<g id="edge15" class="edge"><title>Node13&#45;&gt;Node15</title>
<path fill="none" stroke="midnightblue" d="M1142.25,-184.912C1132.74,-171.729 1117.25,-145.652 1124,-123 1127.71,-110.525 1135.6,-98.2604 1142.73,-88.9422"/>
<polygon fill="midnightblue" stroke="midnightblue" points="1145.59,-90.9706 1149.18,-81.0003 1140.16,-86.5596 1145.59,-90.9706"/>
</g>
<!-- Node16 -->
<g id="node16" class="node"><title>Node16</title>
<polygon fill="none" stroke="#bfbfbf" points="1269.5,-0.5 1269.5,-19.5 1310.5,-19.5 1310.5,-0.5 1269.5,-0.5"/>
<text text-anchor="middle" x="1290" y="-7.5" font-family="Helvetica,sans-Serif" font-size="10.00">string</text>
</g>
<!-- Node13&#45;&gt;Node16 -->
<g id="edge16" class="edge"><title>Node13&#45;&gt;Node16</title>
<path fill="none" stroke="midnightblue" d="M1141.64,-184.912C1134.02,-175.395 1122.59,-159.236 1118,-143 1111.84,-121.179 1107.18,-74.1653 1122,-56 1139.24,-34.8726 1215.77,-21.1581 1259.36,-14.9126"/>
<polygon fill="midnightblue" stroke="midnightblue" points="1259.99,-18.3587 1269.41,-13.5201 1259.03,-11.4248 1259.99,-18.3587"/>
</g>
<!-- Node17 -->
<g id="node17" class="node"><title>Node17</title>
<polygon fill="none" stroke="#bfbfbf" points="990.5,-0.5 990.5,-19.5 1073.5,-19.5 1073.5,-0.5 990.5,-0.5"/>
<text text-anchor="middle" x="1032" y="-7.5" font-family="Helvetica,sans-Serif" font-size="10.00">unordered_map</text>
</g>
<!-- Node13&#45;&gt;Node17 -->
<g id="edge17" class="edge"><title>Node13&#45;&gt;Node17</title>
<path fill="none" stroke="midnightblue" d="M1105.81,-184.999C1081.85,-177.933 1053.79,-165.284 1038,-143 1013.99,-109.11 1020.94,-57.1314 1027.07,-29.6018"/>
<polygon fill="midnightblue" stroke="midnightblue" points="1030.51,-30.2705 1029.47,-19.7265 1023.71,-28.6154 1030.51,-30.2705"/>
</g>
<!-- Node18 -->
<g id="node18" class="node"><title>Node18</title>
<polygon fill="none" stroke="#bfbfbf" points="1132.5,-123.5 1132.5,-142.5 1257.5,-142.5 1257.5,-123.5 1132.5,-123.5"/>
<text text-anchor="middle" x="1195" y="-130.5" font-family="Helvetica,sans-Serif" font-size="10.00">Framework/InitContext.h</text>
</g>
<!-- Node13&#45;&gt;Node18 -->
<g id="edge18" class="edge"><title>Node13&#45;&gt;Node18</title>
<path fill="none" stroke="midnightblue" d="M1155.59,-184.975C1162.49,-176.05 1173.5,-161.807 1182.13,-150.643"/>
<polygon fill="midnightblue" stroke="midnightblue" points="1185.07,-152.561 1188.42,-142.509 1179.54,-148.28 1185.07,-152.561"/>
</g>
<!-- Node19 -->
<g id="node19" class="node"><title>Node19</title>
<polygon fill="none" stroke="#bfbfbf" points="1276,-123.5 1276,-142.5 1436,-142.5 1436,-123.5 1276,-123.5"/>
<text text-anchor="middle" x="1356" y="-130.5" font-family="Helvetica,sans-Serif" font-size="10.00">Framework/ProcessingContext.h</text>
</g>
<!-- Node13&#45;&gt;Node19 -->
<g id="edge19" class="edge"><title>Node13&#45;&gt;Node19</title>
<path fill="none" stroke="midnightblue" d="M1178.66,-184.975C1214.93,-174.548 1276.46,-156.862 1316.66,-145.307"/>
<polygon fill="midnightblue" stroke="midnightblue" points="1317.75,-148.635 1326.4,-142.509 1315.82,-141.908 1317.75,-148.635"/>
</g>
<!-- Node20 -->
<g id="node20" class="node"><title>Node20</title>
<g id="a_node20"><a xlink:href="Activity_8h.html" target="_top" xlink:title="QualityControl/Activity.h">
<polygon fill="none" stroke="black" points="1454.5,-123.5 1454.5,-142.5 1577.5,-142.5 1577.5,-123.5 1454.5,-123.5"/>
<text text-anchor="middle" x="1516" y="-130.5" font-family="Helvetica,sans-Serif" font-size="10.00">QualityControl/Activity.h</text>
</a>
</g>
</g>
<!-- Node13&#45;&gt;Node20 -->
<g id="edge20" class="edge"><title>Node13&#45;&gt;Node20</title>
<path fill="none" stroke="midnightblue" d="M1201.58,-184.975C1268.08,-174.194 1382.43,-155.654 1453.37,-144.153"/>
<polygon fill="midnightblue" stroke="midnightblue" points="1454.2,-147.564 1463.52,-142.509 1453.08,-140.655 1454.2,-147.564"/>
</g>
<!-- Node21 -->
<g id="node21" class="node"><title>Node21</title>
<g id="a_node21"><a xlink:href="ObjectsManager_8h.html" target="_top" xlink:title="QualityControl/ObjectsManager.h">
<polygon fill="none" stroke="black" points="1595.5,-123.5 1595.5,-142.5 1756.5,-142.5 1756.5,-123.5 1595.5,-123.5"/>
<text text-anchor="middle" x="1676" y="-130.5" font-family="Helvetica,sans-Serif" font-size="10.00">QualityControl/ObjectsManager.h</text>
</a>
</g>
</g>
<!-- Node13&#45;&gt;Node21 -->
<g id="edge21" class="edge"><title>Node13&#45;&gt;Node21</title>
<path fill="none" stroke="midnightblue" d="M1224.23,-185.007C1321.01,-174.08 1488.72,-155.144 1590.32,-143.674"/>
<polygon fill="midnightblue" stroke="midnightblue" points="1591,-147.119 1600.55,-142.519 1590.22,-140.163 1591,-147.119"/>
</g>
<!-- Node21&#45;&gt;Node15 -->
<g id="edge35" class="edge"><title>Node21&#45;&gt;Node15</title>
<path fill="none" stroke="midnightblue" d="M1595.47,-123.837C1592.61,-123.554 1589.78,-123.274 1587,-123 1419.93,-106.555 1376.2,-116.872 1211,-87 1205.13,-85.9377 1198.96,-84.549 1192.97,-83.052"/>
<polygon fill="midnightblue" stroke="midnightblue" points="1193.73,-79.6315 1183.17,-80.4689 1191.95,-86.4006 1193.73,-79.6315"/>
</g>
<!-- Node21&#45;&gt;Node16 -->
<g id="edge34" class="edge"><title>Node21&#45;&gt;Node16</title>
<path fill="none" stroke="midnightblue" d="M1599.69,-123.5C1532.9,-115.277 1441.46,-101.899 1408,-87 1387.77,-77.9919 1387.34,-68.4052 1369,-56 1351.89,-44.4292 1331.64,-32.9308 1315.92,-24.4535"/>
<polygon fill="midnightblue" stroke="midnightblue" points="1317.26,-21.2019 1306.79,-19.5919 1313.97,-27.3808 1317.26,-21.2019"/>
</g>
<!-- Node22 -->
<g id="node22" class="node"><title>Node22</title>
<g id="a_node22"><a xlink:href="MonitorObject_8h.html" target="_top" xlink:title="QualityControl/MonitorObject.h">
<polygon fill="none" stroke="black" points="1416.5,-62 1416.5,-81 1567.5,-81 1567.5,-62 1416.5,-62"/>
<text text-anchor="middle" x="1492" y="-69" font-family="Helvetica,sans-Serif" font-size="10.00">QualityControl/MonitorObject.h</text>
</a>
</g>
</g>
<!-- Node21&#45;&gt;Node22 -->
<g id="edge22" class="edge"><title>Node21&#45;&gt;Node22</title>
<path fill="none" stroke="midnightblue" d="M1649.64,-123.475C1617.66,-113.136 1563.62,-95.6611 1527.88,-84.1017"/>
<polygon fill="midnightblue" stroke="midnightblue" points="1528.91,-80.7558 1518.31,-81.0091 1526.75,-87.4162 1528.91,-80.7558"/>
</g>
<!-- Node26 -->
<g id="node26" class="node"><title>Node26</title>
<g id="a_node26"><a xlink:href="MonitorObjectCollection_8h.html" target="_top" xlink:title="QualityControl/MonitorObject\lCollection.h">
<polygon fill="none" stroke="black" points="1604.5,-56.5 1604.5,-86.5 1747.5,-86.5 1747.5,-56.5 1604.5,-56.5"/>
<text text-anchor="start" x="1612.5" y="-74.5" font-family="Helvetica,sans-Serif" font-size="10.00">QualityControl/MonitorObject</text>
<text text-anchor="middle" x="1676" y="-63.5" font-family="Helvetica,sans-Serif" font-size="10.00">Collection.h</text>
</a>
</g>
</g>
<!-- Node21&#45;&gt;Node26 -->
<g id="edge28" class="edge"><title>Node21&#45;&gt;Node26</title>
<path fill="none" stroke="midnightblue" d="M1676,-123.475C1676,-116.471 1676,-106.192 1676,-96.6956"/>
<polygon fill="midnightblue" stroke="midnightblue" points="1679.5,-96.5229 1676,-86.523 1672.5,-96.523 1679.5,-96.5229"/>
</g>
<!-- Node29 -->
<g id="node29" class="node"><title>Node29</title>
<g id="a_node29"><a xlink:href="TaskConfig_8h.html" target="_top" xlink:title="QualityControl/TaskConfig.h">
<polygon fill="none" stroke="black" points="1220,-62 1220,-81 1360,-81 1360,-62 1220,-62"/>
<text text-anchor="middle" x="1290" y="-69" font-family="Helvetica,sans-Serif" font-size="10.00">QualityControl/TaskConfig.h</text>
</a>
</g>
</g>
<!-- Node21&#45;&gt;Node29 -->
<g id="edge31" class="edge"><title>Node21&#45;&gt;Node29</title>
<path fill="none" stroke="midnightblue" d="M1616.06,-123.483C1555.08,-114.721 1457.87,-100.486 1374,-87 1365.7,-85.666 1356.95,-84.2104 1348.36,-82.7528"/>
<polygon fill="midnightblue" stroke="midnightblue" points="1348.83,-79.2823 1338.39,-81.048 1347.65,-86.1823 1348.83,-79.2823"/>
</g>
<!-- Node22&#45;&gt;Node14 -->
<g id="edge24" class="edge"><title>Node22&#45;&gt;Node14</title>
<path fill="none" stroke="midnightblue" d="M1449.02,-61.9751C1386.42,-49.5594 1271.93,-26.8526 1219.52,-16.4577"/>
<polygon fill="midnightblue" stroke="midnightblue" points="1220.1,-13.0044 1209.61,-14.492 1218.73,-19.8706 1220.1,-13.0044"/>
</g>
<!-- Node22&#45;&gt;Node16 -->
<g id="edge23" class="edge"><title>Node22&#45;&gt;Node16</title>
<path fill="none" stroke="midnightblue" d="M1463.06,-61.9751C1425.1,-50.7956 1358.82,-31.2722 1320.24,-19.9065"/>
<polygon fill="midnightblue" stroke="midnightblue" points="1321.18,-16.5349 1310.6,-17.0667 1319.2,-23.2497 1321.18,-16.5349"/>
</g>
<!-- Node23 -->
<g id="node23" class="node"><title>Node23</title>
<polygon fill="none" stroke="#bfbfbf" points="1464,-0.5 1464,-19.5 1520,-19.5 1520,-0.5 1464,-0.5"/>
<text text-anchor="middle" x="1492" y="-7.5" font-family="Helvetica,sans-Serif" font-size="10.00">Rtypes.h</text>
</g>
<!-- Node22&#45;&gt;Node23 -->
<g id="edge25" class="edge"><title>Node22&#45;&gt;Node23</title>
<path fill="none" stroke="midnightblue" d="M1492,-61.9751C1492,-53.5803 1492,-40.4806 1492,-29.6631"/>
<polygon fill="midnightblue" stroke="midnightblue" points="1495.5,-29.5091 1492,-19.5091 1488.5,-29.5091 1495.5,-29.5091"/>
</g>
<!-- Node24 -->
<g id="node24" class="node"><title>Node24</title>
<polygon fill="none" stroke="#bfbfbf" points="1538.5,-0.5 1538.5,-19.5 1597.5,-19.5 1597.5,-0.5 1538.5,-0.5"/>
<text text-anchor="middle" x="1568" y="-7.5" font-family="Helvetica,sans-Serif" font-size="10.00">TObject.h</text>
</g>
<!-- Node22&#45;&gt;Node24 -->
<g id="edge26" class="edge"><title>Node22&#45;&gt;Node24</title>
<path fill="none" stroke="midnightblue" d="M1502.89,-61.9751C1514.97,-52.5199 1534.67,-37.0961 1549.24,-25.6871"/>
<polygon fill="midnightblue" stroke="midnightblue" points="1551.41,-28.4295 1557.13,-19.5091 1547.1,-22.9177 1551.41,-28.4295"/>
</g>
<!-- Node25 -->
<g id="node25" class="node"><title>Node25</title>
<polygon fill="none" stroke="#bfbfbf" points="1330,-0.5 1330,-19.5 1446,-19.5 1446,-0.5 1330,-0.5"/>
<text text-anchor="middle" x="1388" y="-7.5" font-family="Helvetica,sans-Serif" font-size="10.00">Common/Exceptions.h</text>
</g>
<!-- Node22&#45;&gt;Node25 -->
<g id="edge27" class="edge"><title>Node22&#45;&gt;Node25</title>
<path fill="none" stroke="midnightblue" d="M1477.1,-61.9751C1460.03,-52.2106 1431.84,-36.0807 1411.74,-24.5808"/>
<polygon fill="midnightblue" stroke="midnightblue" points="1413.29,-21.4371 1402.87,-19.5091 1409.81,-27.513 1413.29,-21.4371"/>
</g>
<!-- Node27 -->
<g id="node27" class="node"><title>Node27</title>
<polygon fill="none" stroke="#bfbfbf" points="1628.5,-0.5 1628.5,-19.5 1697.5,-19.5 1697.5,-0.5 1628.5,-0.5"/>
<text text-anchor="middle" x="1663" y="-7.5" font-family="Helvetica,sans-Serif" font-size="10.00">TObjArray.h</text>
</g>
<!-- Node26&#45;&gt;Node27 -->
<g id="edge29" class="edge"><title>Node26&#45;&gt;Node27</title>
<path fill="none" stroke="midnightblue" d="M1672.92,-56.3993C1671.17,-48.3772 1668.95,-38.2328 1667.06,-29.569"/>
<polygon fill="midnightblue" stroke="midnightblue" points="1670.45,-28.6802 1664.89,-19.6578 1663.61,-30.1744 1670.45,-28.6802"/>
</g>
<!-- Node28 -->
<g id="node28" class="node"><title>Node28</title>
<polygon fill="none" stroke="#bfbfbf" points="1716,-0.5 1716,-19.5 1844,-19.5 1844,-0.5 1716,-0.5"/>
<text text-anchor="middle" x="1780" y="-7.5" font-family="Helvetica,sans-Serif" font-size="10.00">Mergers/MergeInterface.h</text>
</g>
<!-- Node26&#45;&gt;Node28 -->
<g id="edge30" class="edge"><title>Node26&#45;&gt;Node28</title>
<path fill="none" stroke="midnightblue" d="M1700.65,-56.3993C1717.32,-46.8619 1739.23,-34.3248 1755.81,-24.8422"/>
<polygon fill="midnightblue" stroke="midnightblue" points="1757.93,-27.6617 1764.87,-19.6578 1754.45,-21.5858 1757.93,-27.6617"/>
</g>
<!-- Node29&#45;&gt;Node16 -->
<g id="edge32" class="edge"><title>Node29&#45;&gt;Node16</title>
<path fill="none" stroke="midnightblue" d="M1290,-61.9751C1290,-53.5803 1290,-40.4806 1290,-29.6631"/>
<polygon fill="midnightblue" stroke="midnightblue" points="1293.5,-29.5091 1290,-19.5091 1286.5,-29.5091 1293.5,-29.5091"/>
</g>
<!-- Node29&#45;&gt;Node17 -->
<g id="edge33" class="edge"><title>Node29&#45;&gt;Node17</title>
<path fill="none" stroke="midnightblue" d="M1253.03,-61.9751C1207.15,-51.3932 1128.85,-33.3356 1078.82,-21.7966"/>
<polygon fill="midnightblue" stroke="midnightblue" points="1079.43,-18.3459 1068.9,-19.5091 1077.85,-25.1669 1079.43,-18.3459"/>
</g>
</g>
</svg>
        <g id="navigator" transform="translate(0 0)" fill="#404254">
                <rect fill="#f2f5e9" fill-opacity="0.5" stroke="#606060" stroke-width=".5" x="0" y="0" width="60" height="60"/>
                <use id="zoomplus" xlink:href="#zoomPlus" x="17" y="9" onmousedown="handleZoom(evt,'in')"/>
                <use id="zoomminus" xlink:href="#zoomMin" x="42" y="9" onmousedown="handleZoom(evt,'out')"/>
                <use id="reset" xlink:href="#resetDef" x="30" y="36" onmousedown="handleReset()"/>
                <g id="arrowUp" xlink:href="#dirArrow" transform="translate(30 24)" onmousedown="handlePan(0,-1)">
                  <use xlink:href="#rim" fill="#404040">
                        <set attributeName="fill" to="#808080" begin="arrowUp.mouseover" end="arrowUp.mouseout"/>
                  </use>
                  <path fill="none" stroke="white" stroke-width="1.5" d="M0,-3.0v7 M-2.5,-0.5L0,-3.0L2.5,-0.5"/>
                </g>
                <g id="arrowRight" xlink:href="#dirArrow" transform="rotate(90) translate(36 -43)" onmousedown="handlePan(1,0)">
                  <use xlink:href="#rim" fill="#404040">
                        <set attributeName="fill" to="#808080" begin="arrowRight.mouseover" end="arrowRight.mouseout"/>
                  </use>
                  <path fill="none" stroke="white" stroke-width="1.5" d="M0,-3.0v7 M-2.5,-0.5L0,-3.0L2.5,-0.5"/>
                </g>
                <g id="arrowDown" xlink:href="#dirArrow" transform="rotate(180) translate(-30 -48)" onmousedown="handlePan(0,1)">
                  <use xlink:href="#rim" fill="#404040">
                        <set attributeName="fill" to="#808080" begin="arrowDown.mouseover" end="arrowDown.mouseout"/>
                  </use>
                  <path fill="none" stroke="white" stroke-width="1.5" d="M0,-3.0v7 M-2.5,-0.5L0,-3.0L2.5,-0.5"/>
                </g>
                <g id="arrowLeft" xlink:href="#dirArrow" transform="rotate(270) translate(-36 17)" onmousedown="handlePan(-1,0)">
                  <use xlink:href="#rim" fill="#404040">
                        <set attributeName="fill" to="#808080" begin="arrowLeft.mouseover" end="arrowLeft.mouseout"/>
                  </use>
                  <path fill="none" stroke="white" stroke-width="1.5" d="M0,-3.0v7 M-2.5,-0.5L0,-3.0L2.5,-0.5"/>
                </g>
        </g>
        <svg viewBox="0 0 15 15" width="100%" height="30px" preserveAspectRatio="xMaxYMin meet">
         <g id="arrow_out" transform="scale(0.3 0.3)">
          <a xlink:href="TaskCompressedData_8cxx__incl_org.svg" target="_base">
           <rect id="button" ry="5" rx="5" y="6" x="6" height="38" width="38"
                fill="#f2f5e9" fill-opacity="0.5" stroke="#606060" stroke-width="1.0"/>
           <path id="arrow"
             d="M 11.500037,31.436501 C 11.940474,20.09759 22.043105,11.32322 32.158766,21.979434 L 37.068811,17.246167 C 37.068811,17.246167 37.088388,32 37.088388,32 L 22.160133,31.978069 C 22.160133,31.978069 26.997745,27.140456 26.997745,27.140456 C 18.528582,18.264221 13.291696,25.230495 11.500037,31.436501 z"
             style="fill:#404040;"/>
          </a>
         </g>
        </svg>
</svg>
