<?xml version="1.0" encoding="UTF-8" standalone="no"?>
<!DOCTYPE svg PUBLIC "-//W3C//DTD SVG 1.1//EN"
 "http://www.w3.org/Graphics/SVG/1.1/DTD/svg11.dtd">
<!-- Generated by graphviz version 2.38.0 (20140413.2041)
 -->
<!-- Title: Modules/TOF/src/TaskDiagnostics.cxx Pages: 1 -->
<!--zoomable 330 -->
<svg id="main" version="1.1" xmlns="http://www.w3.org/2000/svg" xmlns:xlink="http://www.w3.org/1999/xlink" xml:space="preserve" onload="init(evt)">
<style type="text/css"><![CDATA[
.edge:hover path { stroke: red; }
.edge:hover polygon { stroke: red; fill: red; }
]]></style>
<script type="text/javascript"><![CDATA[
var edges = document.getElementsByTagName('g');
if (edges && edges.length) {
  for (var i=0;i<edges.length;i++) {
    if (edges[i].id.substr(0,4)=='edge') {
      edges[i].setAttribute('class','edge');
    }
  }
}
]]></script>
        <defs>
                <circle id="rim" cx="0" cy="0" r="7"/>
                <circle id="rim2" cx="0" cy="0" r="3.5"/>
                <g id="zoomPlus">
                        <use xlink:href="#rim" fill="#404040">
                                <set attributeName="fill" to="#808080" begin="zoomplus.mouseover" end="zoomplus.mouseout"/>
                        </use>
                        <path d="M-4,0h8M0,-4v8" fill="none" stroke="white" stroke-width="1.5" pointer-events="none"/>
                </g>
                <g id="zoomMin">
                        <use xlink:href="#rim" fill="#404040">
                                <set attributeName="fill" to="#808080" begin="zoomminus.mouseover" end="zoomminus.mouseout"/>
                        </use>
                        <path d="M-4,0h8" fill="none" stroke="white" stroke-width="1.5" pointer-events="none"/>
                </g>
                <g id="dirArrow">
                        <path fill="none" stroke="white" stroke-width="1.5" d="M0,-3.0v7 M-2.5,-0.5L0,-3.0L2.5,-0.5"/>
                </g>
               <g id="resetDef">
                       <use xlink:href="#rim2" fill="#404040">
                               <set attributeName="fill" to="#808080" begin="reset.mouseover" end="reset.mouseout"/>
                       </use>
               </g>
        </defs>

<script type="text/javascript">
var viewWidth = 1731;
var viewHeight = 330;
var sectionId = 'dynsection-0';
</script>
<script xlink:href="svgpan.js"/>
<svg id="graph" class="graph">
<g id="viewport">
<title>Modules/TOF/src/TaskDiagnostics.cxx</title>
<!-- Node1 -->
<g id="node1" class="node"><title>Node1</title>
<polygon fill="#bfbfbf" stroke="black" points="225,-302.5 225,-321.5 413,-321.5 413,-302.5 225,-302.5"/>
<text text-anchor="middle" x="319" y="-309.5" font-family="Helvetica,sans-Serif" font-size="10.00">Modules/TOF/src/TaskDiagnostics.cxx</text>
</g>
<!-- Node2 -->
<g id="node2" class="node"><title>Node2</title>
<polygon fill="none" stroke="#bfbfbf" points="0,-246.5 0,-265.5 50,-265.5 50,-246.5 0,-246.5"/>
<text text-anchor="middle" x="25" y="-253.5" font-family="Helvetica,sans-Serif" font-size="10.00">TH1F.h</text>
</g>
<!-- Node1&#45;&gt;Node2 -->
<g id="edge1" class="edge"><title>Node1&#45;&gt;Node2</title>
<path fill="none" stroke="midnightblue" d="M261.147,-302.471C210.542,-294.675 134.879,-282.21 60.2367,-266.12"/>
<polygon fill="midnightblue" stroke="midnightblue" points="60.7074,-262.64 50.1914,-263.931 59.2169,-269.48 60.7074,-262.64"/>
</g>
<!-- Node3 -->
<g id="node3" class="node"><title>Node3</title>
<polygon fill="none" stroke="#bfbfbf" points="68,-246.5 68,-265.5 118,-265.5 118,-246.5 68,-246.5"/>
<text text-anchor="middle" x="93" y="-253.5" font-family="Helvetica,sans-Serif" font-size="10.00">TH2F.h</text>
</g>
<!-- Node1&#45;&gt;Node3 -->
<g id="edge2" class="edge"><title>Node1&#45;&gt;Node3</title>
<path fill="none" stroke="midnightblue" d="M283.19,-302.444C240.646,-292.278 170.139,-275.431 127.968,-265.355"/>
<polygon fill="midnightblue" stroke="midnightblue" points="128.686,-261.928 118.146,-263.008 127.059,-268.737 128.686,-261.928"/>
</g>
<!-- Node4 -->
<g id="node4" class="node"><title>Node4</title>
<polygon fill="none" stroke="#bfbfbf" points="427,-179.5 427,-209.5 579,-209.5 579,-179.5 427,-179.5"/>
<text text-anchor="start" x="435" y="-197.5" font-family="Helvetica,sans-Serif" font-size="10.00">DataFormatsTOF/Compressed</text>
<text text-anchor="middle" x="503" y="-186.5" font-family="Helvetica,sans-Serif" font-size="10.00">DataFormat.h</text>
</g>
<!-- Node1&#45;&gt;Node4 -->
<g id="edge3" class="edge"><title>Node1&#45;&gt;Node4</title>
<path fill="none" stroke="midnightblue" d="M413.069,-310.222C492.95,-307.326 598.836,-297.436 626,-266 646.829,-241.895 615.153,-224.143 578.741,-212.482"/>
<polygon fill="midnightblue" stroke="midnightblue" points="579.485,-209.05 568.9,-209.501 577.456,-215.75 579.485,-209.05"/>
</g>
<!-- Node5 -->
<g id="node5" class="node"><title>Node5</title>
<polygon fill="none" stroke="#bfbfbf" points="174,-246.5 174,-265.5 308,-265.5 308,-246.5 174,-246.5"/>
<text text-anchor="middle" x="241" y="-253.5" font-family="Helvetica,sans-Serif" font-size="10.00">Framework/DataRefUtils.h</text>
</g>
<!-- Node1&#45;&gt;Node5 -->
<g id="edge4" class="edge"><title>Node1&#45;&gt;Node5</title>
<path fill="none" stroke="midnightblue" d="M306.468,-302.324C294.414,-293.979 275.973,-281.212 261.731,-271.352"/>
<polygon fill="midnightblue" stroke="midnightblue" points="263.715,-268.469 253.501,-265.655 259.731,-274.224 263.715,-268.469"/>
</g>
<!-- Node6 -->
<g id="node6" class="node"><title>Node6</title>
<polygon fill="none" stroke="#bfbfbf" points="326.5,-246.5 326.5,-265.5 467.5,-265.5 467.5,-246.5 326.5,-246.5"/>
<text text-anchor="middle" x="397" y="-253.5" font-family="Helvetica,sans-Serif" font-size="10.00">Headers/RAWDataHeader.h</text>
</g>
<!-- Node1&#45;&gt;Node6 -->
<g id="edge5" class="edge"><title>Node1&#45;&gt;Node6</title>
<path fill="none" stroke="midnightblue" d="M331.532,-302.324C343.586,-293.979 362.027,-281.212 376.269,-271.352"/>
<polygon fill="midnightblue" stroke="midnightblue" points="378.269,-274.224 384.499,-265.655 374.285,-268.469 378.269,-274.224"/>
</g>
<!-- Node7 -->
<g id="node7" class="node"><title>Node7</title>
<polygon fill="none" stroke="#bfbfbf" points="485.5,-246.5 485.5,-265.5 616.5,-265.5 616.5,-246.5 485.5,-246.5"/>
<text text-anchor="middle" x="551" y="-253.5" font-family="Helvetica,sans-Serif" font-size="10.00">DetectorsRaw/HBFUtils.h</text>
</g>
<!-- Node1&#45;&gt;Node7 -->
<g id="edge6" class="edge"><title>Node1&#45;&gt;Node7</title>
<path fill="none" stroke="midnightblue" d="M355.761,-302.444C396.063,-293.063 460.809,-277.993 504.585,-267.804"/>
<polygon fill="midnightblue" stroke="midnightblue" points="505.465,-271.192 514.411,-265.516 503.878,-264.375 505.465,-271.192"/>
</g>
<!-- Node8 -->
<g id="node8" class="node"><title>Node8</title>
<g id="a_node8"><a xlink:href="QcInfoLogger_8h.html" target="_top" xlink:title="QualityControl/QcInfoLogger.h">
<polygon fill="none" stroke="black" points="246.5,-123.5 246.5,-142.5 395.5,-142.5 395.5,-123.5 246.5,-123.5"/>
<text text-anchor="middle" x="321" y="-130.5" font-family="Helvetica,sans-Serif" font-size="10.00">QualityControl/QcInfoLogger.h</text>
</a>
</g>
</g>
<!-- Node1&#45;&gt;Node8 -->
<g id="edge7" class="edge"><title>Node1&#45;&gt;Node8</title>
<path fill="none" stroke="midnightblue" d="M266.099,-302.46C226.568,-294.872 177.321,-282.437 165,-266 125.17,-212.866 226.975,-166.866 284.597,-145.972"/>
<polygon fill="midnightblue" stroke="midnightblue" points="285.859,-149.238 294.117,-142.601 283.523,-142.639 285.859,-149.238"/>
</g>
<!-- Node10 -->
<g id="node10" class="node"><title>Node10</title>
<g id="a_node10"><a xlink:href="TaskDiagnostics_8h.html" target="_top" xlink:title="Task to check the diagnostic words of TOF crates received trough the TOF compressor. Here are defined the counters to check the diagnostics words of the TOF crates obtained from the compressor. This is why the DiagnosticCounter class derives from DecoderBase: it reads data from the decoder. ">
<polygon fill="none" stroke="black" points="673.5,-246.5 673.5,-265.5 794.5,-265.5 794.5,-246.5 673.5,-246.5"/>
<text text-anchor="middle" x="734" y="-253.5" font-family="Helvetica,sans-Serif" font-size="10.00">TOF/TaskDiagnostics.h</text>
</a>
</g>
</g>
<!-- Node1&#45;&gt;Node10 -->
<g id="edge9" class="edge"><title>Node1&#45;&gt;Node10</title>
<path fill="none" stroke="midnightblue" d="M384.758,-302.444C460.658,-292.567 585.024,-276.385 663.054,-266.232"/>
<polygon fill="midnightblue" stroke="midnightblue" points="663.811,-269.663 673.275,-264.902 662.907,-262.721 663.811,-269.663"/>
</g>
<!-- Node9 -->
<g id="node9" class="node"><title>Node9</title>
<polygon fill="none" stroke="#bfbfbf" points="256,-62 256,-81 386,-81 386,-62 256,-62"/>
<text text-anchor="middle" x="321" y="-69" font-family="Helvetica,sans-Serif" font-size="10.00">InfoLogger/InfoLogger.hxx</text>
</g>
<!-- Node8&#45;&gt;Node9 -->
<g id="edge8" class="edge"><title>Node8&#45;&gt;Node9</title>
<path fill="none" stroke="midnightblue" d="M321,-123.475C321,-115.08 321,-101.981 321,-91.1631"/>
<polygon fill="midnightblue" stroke="midnightblue" points="324.5,-91.0091 321,-81.0091 317.5,-91.0091 324.5,-91.0091"/>
</g>
<!-- Node10&#45;&gt;Node4 -->
<g id="edge11" class="edge"><title>Node10&#45;&gt;Node4</title>
<path fill="none" stroke="midnightblue" d="M700.903,-246.475C666.182,-237.532 610.73,-223.249 567.345,-212.074"/>
<polygon fill="midnightblue" stroke="midnightblue" points="567.999,-208.628 557.442,-209.523 566.253,-215.407 567.999,-208.628"/>
</g>
<!-- Node11 -->
<g id="node11" class="node"><title>Node11</title>
<polygon fill="none" stroke="#bfbfbf" points="597,-179.5 597,-209.5 739,-209.5 739,-179.5 597,-179.5"/>
<text text-anchor="start" x="605" y="-197.5" font-family="Helvetica,sans-Serif" font-size="10.00">TOFReconstruction/Decoder</text>
<text text-anchor="middle" x="668" y="-186.5" font-family="Helvetica,sans-Serif" font-size="10.00">Base.h</text>
</g>
<!-- Node10&#45;&gt;Node11 -->
<g id="edge10" class="edge"><title>Node10&#45;&gt;Node11</title>
<path fill="none" stroke="midnightblue" d="M724.544,-246.475C715.856,-238.643 702.624,-226.714 691.145,-216.366"/>
<polygon fill="midnightblue" stroke="midnightblue" points="693.326,-213.619 683.555,-209.523 688.639,-218.818 693.326,-213.619"/>
</g>
<!-- Node12 -->
<g id="node12" class="node"><title>Node12</title>
<g id="a_node12"><a xlink:href="TaskInterface_8h.html" target="_top" xlink:title="QualityControl/TaskInterface.h">
<polygon fill="none" stroke="black" points="1051,-185 1051,-204 1201,-204 1201,-185 1051,-185"/>
<text text-anchor="middle" x="1126" y="-192" font-family="Helvetica,sans-Serif" font-size="10.00">QualityControl/TaskInterface.h</text>
</a>
</g>
</g>
<!-- Node10&#45;&gt;Node12 -->
<g id="edge12" class="edge"><title>Node10&#45;&gt;Node12</title>
<path fill="none" stroke="midnightblue" d="M790.164,-246.475C861.481,-235.65 984.338,-217.002 1060.04,-205.512"/>
<polygon fill="midnightblue" stroke="midnightblue" points="1060.58,-208.97 1069.94,-204.009 1059.53,-202.049 1060.58,-208.97"/>
</g>
<!-- Node29 -->
<g id="node29" class="node"><title>Node29</title>
<g id="a_node29"><a xlink:href="Counter_8h.html" target="_top" xlink:title="Utilities to count events and fill histograms at the end of the main processing loops. ">
<polygon fill="none" stroke="black" points="757.5,-185 757.5,-204 842.5,-204 842.5,-185 757.5,-185"/>
<text text-anchor="middle" x="800" y="-192" font-family="Helvetica,sans-Serif" font-size="10.00">Base/Counter.h</text>
</a>
</g>
</g>
<!-- Node10&#45;&gt;Node29 -->
<g id="edge35" class="edge"><title>Node10&#45;&gt;Node29</title>
<path fill="none" stroke="midnightblue" d="M743.456,-246.475C753.748,-237.197 770.416,-222.171 782.994,-210.831"/>
<polygon fill="midnightblue" stroke="midnightblue" points="785.478,-213.305 790.561,-204.009 780.79,-208.105 785.478,-213.305"/>
</g>
<!-- Node13 -->
<g id="node13" class="node"><title>Node13</title>
<polygon fill="none" stroke="#bfbfbf" points="1380.5,-0.5 1380.5,-19.5 1415.5,-19.5 1415.5,-0.5 1380.5,-0.5"/>
<text text-anchor="middle" x="1398" y="-7.5" font-family="Helvetica,sans-Serif" font-size="10.00">map</text>
</g>
<!-- Node12&#45;&gt;Node13 -->
<g id="edge13" class="edge"><title>Node12&#45;&gt;Node13</title>
<path fill="none" stroke="midnightblue" d="M1144.28,-184.947C1179.01,-168.33 1256.3,-129.554 1315,-87 1340.32,-68.6411 1366.43,-43.522 1382.44,-27.2777"/>
<polygon fill="midnightblue" stroke="midnightblue" points="1385.37,-29.284 1389.84,-19.6748 1380.36,-24.4039 1385.37,-29.284"/>
</g>
<!-- Node14 -->
<g id="node14" class="node"><title>Node14</title>
<polygon fill="none" stroke="#bfbfbf" points="688,-62 688,-81 740,-81 740,-62 688,-62"/>
<text text-anchor="middle" x="714" y="-69" font-family="Helvetica,sans-Serif" font-size="10.00">memory</text>
</g>
<!-- Node12&#45;&gt;Node14 -->
<g id="edge14" class="edge"><title>Node12&#45;&gt;Node14</title>
<path fill="none" stroke="midnightblue" d="M1085.06,-184.96C1042.14,-175.725 972.882,-160.024 914,-143 840.009,-121.608 822.192,-113.842 750,-87 748.153,-86.3132 746.258,-85.594 744.35,-84.8588"/>
<polygon fill="midnightblue" stroke="midnightblue" points="745.453,-81.5317 734.866,-81.1255 742.889,-88.0452 745.453,-81.5317"/>
</g>
<!-- Node15 -->
<g id="node15" class="node"><title>Node15</title>
<polygon fill="none" stroke="#bfbfbf" points="1035.5,-0.5 1035.5,-19.5 1076.5,-19.5 1076.5,-0.5 1035.5,-0.5"/>
<text text-anchor="middle" x="1056" y="-7.5" font-family="Helvetica,sans-Serif" font-size="10.00">string</text>
</g>
<!-- Node12&#45;&gt;Node15 -->
<g id="edge15" class="edge"><title>Node12&#45;&gt;Node15</title>
<path fill="none" stroke="midnightblue" d="M1124.31,-184.827C1119.79,-162.657 1106.34,-102.393 1085,-56 1080.48,-46.1841 1074.09,-36.0036 1068.45,-27.8138"/>
<polygon fill="midnightblue" stroke="midnightblue" points="1071.21,-25.649 1062.55,-19.5387 1065.51,-29.7129 1071.21,-25.649"/>
</g>
<!-- Node16 -->
<g id="node16" class="node"><title>Node16</title>
<polygon fill="none" stroke="#bfbfbf" points="921.5,-0.5 921.5,-19.5 1004.5,-19.5 1004.5,-0.5 921.5,-0.5"/>
<text text-anchor="middle" x="963" y="-7.5" font-family="Helvetica,sans-Serif" font-size="10.00">unordered_map</text>
</g>
<!-- Node12&#45;&gt;Node16 -->
<g id="edge16" class="edge"><title>Node12&#45;&gt;Node16</title>
<path fill="none" stroke="midnightblue" d="M1050.93,-187.198C935.185,-175.688 721.977,-146.741 679,-87 670.954,-75.8157 670.052,-66.477 679,-56 686.485,-47.2354 831.014,-27.6923 910.932,-17.4869"/>
<polygon fill="midnightblue" stroke="midnightblue" points="911.809,-20.9037 921.288,-16.1706 910.926,-13.9596 911.809,-20.9037"/>
</g>
<!-- Node17 -->
<g id="node17" class="node"><title>Node17</title>
<polygon fill="none" stroke="#bfbfbf" points="1277.5,-123.5 1277.5,-142.5 1402.5,-142.5 1402.5,-123.5 1277.5,-123.5"/>
<text text-anchor="middle" x="1340" y="-130.5" font-family="Helvetica,sans-Serif" font-size="10.00">Framework/InitContext.h</text>
</g>
<!-- Node12&#45;&gt;Node17 -->
<g id="edge17" class="edge"><title>Node12&#45;&gt;Node17</title>
<path fill="none" stroke="midnightblue" d="M1156.66,-184.975C1194.24,-174.526 1258.04,-156.787 1299.6,-145.233"/>
<polygon fill="midnightblue" stroke="midnightblue" points="1300.7,-148.56 1309.4,-142.509 1298.82,-141.816 1300.7,-148.56"/>
</g>
<!-- Node18 -->
<g id="node18" class="node"><title>Node18</title>
<polygon fill="none" stroke="#bfbfbf" points="1421,-123.5 1421,-142.5 1581,-142.5 1581,-123.5 1421,-123.5"/>
<text text-anchor="middle" x="1501" y="-130.5" font-family="Helvetica,sans-Serif" font-size="10.00">Framework/ProcessingContext.h</text>
</g>
<!-- Node12&#45;&gt;Node18 -->
<g id="edge18" class="edge"><title>Node12&#45;&gt;Node18</title>
<path fill="none" stroke="midnightblue" d="M1179.73,-184.975C1247.81,-174.172 1365,-155.578 1437.45,-144.083"/>
<polygon fill="midnightblue" stroke="midnightblue" points="1438.04,-147.533 1447.37,-142.509 1436.95,-140.619 1438.04,-147.533"/>
</g>
<!-- Node19 -->
<g id="node19" class="node"><title>Node19</title>
<g id="a_node19"><a xlink:href="Activity_8h.html" target="_top" xlink:title="QualityControl/Activity.h">
<polygon fill="none" stroke="black" points="1599.5,-123.5 1599.5,-142.5 1722.5,-142.5 1722.5,-123.5 1599.5,-123.5"/>
<text text-anchor="middle" x="1661" y="-130.5" font-family="Helvetica,sans-Serif" font-size="10.00">QualityControl/Activity.h</text>
</a>
</g>
</g>
<!-- Node12&#45;&gt;Node19 -->
<g id="edge19" class="edge"><title>Node12&#45;&gt;Node19</title>
<path fill="none" stroke="midnightblue" d="M1201.19,-185.73C1290.85,-176.371 1445.53,-159.931 1589.12,-143.085"/>
<polygon fill="midnightblue" stroke="midnightblue" points="1589.91,-146.516 1599.43,-141.872 1589.09,-139.564 1589.91,-146.516"/>
</g>
<!-- Node20 -->
<g id="node20" class="node"><title>Node20</title>
<g id="a_node20"><a xlink:href="ObjectsManager_8h.html" target="_top" xlink:title="QualityControl/ObjectsManager.h">
<polygon fill="none" stroke="black" points="922.5,-123.5 922.5,-142.5 1083.5,-142.5 1083.5,-123.5 922.5,-123.5"/>
<text text-anchor="middle" x="1003" y="-130.5" font-family="Helvetica,sans-Serif" font-size="10.00">QualityControl/ObjectsManager.h</text>
</a>
</g>
</g>
<!-- Node12&#45;&gt;Node20 -->
<g id="edge20" class="edge"><title>Node12&#45;&gt;Node20</title>
<path fill="none" stroke="midnightblue" d="M1108.38,-184.975C1087.83,-175.034 1053.64,-158.495 1029.79,-146.961"/>
<polygon fill="midnightblue" stroke="midnightblue" points="1031.12,-143.713 1020.59,-142.509 1028.07,-150.015 1031.12,-143.713"/>
</g>
<!-- Node20&#45;&gt;Node14 -->
<g id="edge34" class="edge"><title>Node20&#45;&gt;Node14</title>
<path fill="none" stroke="midnightblue" d="M932.854,-123.497C881.574,-116.325 810.678,-104.413 750,-87 747.563,-86.3007 745.065,-85.4938 742.576,-84.6259"/>
<polygon fill="midnightblue" stroke="midnightblue" points="743.765,-81.3335 733.173,-81.0757 741.292,-87.8823 743.765,-81.3335"/>
</g>
<!-- Node20&#45;&gt;Node15 -->
<g id="edge33" class="edge"><title>Node20&#45;&gt;Node15</title>
<path fill="none" stroke="midnightblue" d="M1025.46,-123.382C1040.77,-116.184 1059.86,-104.288 1069,-87 1078.65,-68.7484 1071.95,-44.906 1065.11,-28.8325"/>
<polygon fill="midnightblue" stroke="midnightblue" points="1068.16,-27.1039 1060.75,-19.5286 1061.82,-30.0697 1068.16,-27.1039"/>
</g>
<!-- Node21 -->
<g id="node21" class="node"><title>Node21</title>
<g id="a_node21"><a xlink:href="MonitorObject_8h.html" target="_top" xlink:title="QualityControl/MonitorObject.h">
<polygon fill="none" stroke="black" points="1154.5,-62 1154.5,-81 1305.5,-81 1305.5,-62 1154.5,-62"/>
<text text-anchor="middle" x="1230" y="-69" font-family="Helvetica,sans-Serif" font-size="10.00">QualityControl/MonitorObject.h</text>
</a>
</g>
</g>
<!-- Node20&#45;&gt;Node21 -->
<g id="edge21" class="edge"><title>Node20&#45;&gt;Node21</title>
<path fill="none" stroke="midnightblue" d="M1035.52,-123.475C1075.56,-112.982 1143.64,-95.1367 1187.7,-83.587"/>
<polygon fill="midnightblue" stroke="midnightblue" points="1188.75,-86.9303 1197.54,-81.0091 1186.98,-80.159 1188.75,-86.9303"/>
</g>
<!-- Node25 -->
<g id="node25" class="node"><title>Node25</title>
<g id="a_node25"><a xlink:href="MonitorObjectCollection_8h.html" target="_top" xlink:title="QualityControl/MonitorObject\lCollection.h">
<polygon fill="none" stroke="black" points="758.5,-56.5 758.5,-86.5 901.5,-86.5 901.5,-56.5 758.5,-56.5"/>
<text text-anchor="start" x="766.5" y="-74.5" font-family="Helvetica,sans-Serif" font-size="10.00">QualityControl/MonitorObject</text>
<text text-anchor="middle" x="830" y="-63.5" font-family="Helvetica,sans-Serif" font-size="10.00">Collection.h</text>
</a>
</g>
</g>
<!-- Node20&#45;&gt;Node25 -->
<g id="edge27" class="edge"><title>Node20&#45;&gt;Node25</title>
<path fill="none" stroke="midnightblue" d="M978.213,-123.475C952.812,-114.739 912.596,-100.907 880.461,-89.855"/>
<polygon fill="midnightblue" stroke="midnightblue" points="881.367,-86.4656 870.773,-86.523 879.091,-93.0851 881.367,-86.4656"/>
</g>
<!-- Node28 -->
<g id="node28" class="node"><title>Node28</title>
<g id="a_node28"><a xlink:href="TaskConfig_8h.html" target="_top" xlink:title="QualityControl/TaskConfig.h">
<polygon fill="none" stroke="black" points="920,-62 920,-81 1060,-81 1060,-62 920,-62"/>
<text text-anchor="middle" x="990" y="-69" font-family="Helvetica,sans-Serif" font-size="10.00">QualityControl/TaskConfig.h</text>
</a>
</g>
</g>
<!-- Node20&#45;&gt;Node28 -->
<g id="edge30" class="edge"><title>Node20&#45;&gt;Node28</title>
<path fill="none" stroke="midnightblue" d="M1001.14,-123.475C999.284,-114.992 996.381,-101.704 994.003,-90.8222"/>
<polygon fill="midnightblue" stroke="midnightblue" points="997.413,-90.0315 991.859,-81.0091 990.574,-91.5257 997.413,-90.0315"/>
</g>
<!-- Node21&#45;&gt;Node13 -->
<g id="edge23" class="edge"><title>Node21&#45;&gt;Node13</title>
<path fill="none" stroke="midnightblue" d="M1254.07,-61.9751C1284.85,-51.0729 1338.04,-32.2355 1370.42,-20.767"/>
<polygon fill="midnightblue" stroke="midnightblue" points="1371.89,-23.9595 1380.15,-17.3218 1369.56,-17.3611 1371.89,-23.9595"/>
</g>
<!-- Node21&#45;&gt;Node15 -->
<g id="edge22" class="edge"><title>Node21&#45;&gt;Node15</title>
<path fill="none" stroke="midnightblue" d="M1205.07,-61.9751C1173.73,-51.2586 1119.97,-32.8752 1086.3,-21.3596"/>
<polygon fill="midnightblue" stroke="midnightblue" points="1087.13,-17.9463 1076.54,-18.0224 1084.87,-24.5698 1087.13,-17.9463"/>
</g>
<!-- Node22 -->
<g id="node22" class="node"><title>Node22</title>
<polygon fill="none" stroke="#bfbfbf" points="1306,-0.5 1306,-19.5 1362,-19.5 1362,-0.5 1306,-0.5"/>
<text text-anchor="middle" x="1334" y="-7.5" font-family="Helvetica,sans-Serif" font-size="10.00">Rtypes.h</text>
</g>
<!-- Node21&#45;&gt;Node22 -->
<g id="edge24" class="edge"><title>Node21&#45;&gt;Node22</title>
<path fill="none" stroke="midnightblue" d="M1244.9,-61.9751C1261.97,-52.2106 1290.16,-36.0807 1310.26,-24.5808"/>
<polygon fill="midnightblue" stroke="midnightblue" points="1312.19,-27.513 1319.13,-19.5091 1308.71,-21.4371 1312.19,-27.513"/>
</g>
<!-- Node23 -->
<g id="node23" class="node"><title>Node23</title>
<polygon fill="none" stroke="#bfbfbf" points="1094.5,-0.5 1094.5,-19.5 1153.5,-19.5 1153.5,-0.5 1094.5,-0.5"/>
<text text-anchor="middle" x="1124" y="-7.5" font-family="Helvetica,sans-Serif" font-size="10.00">TObject.h</text>
</g>
<!-- Node21&#45;&gt;Node23 -->
<g id="edge25" class="edge"><title>Node21&#45;&gt;Node23</title>
<path fill="none" stroke="midnightblue" d="M1214.81,-61.9751C1197.34,-52.1664 1168.42,-35.9346 1147.92,-24.425"/>
<polygon fill="midnightblue" stroke="midnightblue" points="1149.59,-21.3519 1139.16,-19.5091 1146.17,-27.456 1149.59,-21.3519"/>
</g>
<!-- Node24 -->
<g id="node24" class="node"><title>Node24</title>
<polygon fill="none" stroke="#bfbfbf" points="1172,-0.5 1172,-19.5 1288,-19.5 1288,-0.5 1172,-0.5"/>
<text text-anchor="middle" x="1230" y="-7.5" font-family="Helvetica,sans-Serif" font-size="10.00">Common/Exceptions.h</text>
</g>
<!-- Node21&#45;&gt;Node24 -->
<g id="edge26" class="edge"><title>Node21&#45;&gt;Node24</title>
<path fill="none" stroke="midnightblue" d="M1230,-61.9751C1230,-53.5803 1230,-40.4806 1230,-29.6631"/>
<polygon fill="midnightblue" stroke="midnightblue" points="1233.5,-29.5091 1230,-19.5091 1226.5,-29.5091 1233.5,-29.5091"/>
</g>
<!-- Node26 -->
<g id="node26" class="node"><title>Node26</title>
<polygon fill="none" stroke="#bfbfbf" points="808.5,-0.5 808.5,-19.5 877.5,-19.5 877.5,-0.5 808.5,-0.5"/>
<text text-anchor="middle" x="843" y="-7.5" font-family="Helvetica,sans-Serif" font-size="10.00">TObjArray.h</text>
</g>
<!-- Node25&#45;&gt;Node26 -->
<g id="edge28" class="edge"><title>Node25&#45;&gt;Node26</title>
<path fill="none" stroke="midnightblue" d="M833.081,-56.3993C834.834,-48.3772 837.05,-38.2328 838.943,-29.569"/>
<polygon fill="midnightblue" stroke="midnightblue" points="842.393,-30.1744 841.108,-19.6578 835.554,-28.6802 842.393,-30.1744"/>
</g>
<!-- Node27 -->
<g id="node27" class="node"><title>Node27</title>
<polygon fill="none" stroke="#bfbfbf" points="662,-0.5 662,-19.5 790,-19.5 790,-0.5 662,-0.5"/>
<text text-anchor="middle" x="726" y="-7.5" font-family="Helvetica,sans-Serif" font-size="10.00">Mergers/MergeInterface.h</text>
</g>
<!-- Node25&#45;&gt;Node27 -->
<g id="edge29" class="edge"><title>Node25&#45;&gt;Node27</title>
<path fill="none" stroke="midnightblue" d="M805.353,-56.3993C788.683,-46.8619 766.769,-34.3248 750.195,-24.8422"/>
<polygon fill="midnightblue" stroke="midnightblue" points="751.551,-21.5858 741.133,-19.6578 748.075,-27.6617 751.551,-21.5858"/>
</g>
<!-- Node28&#45;&gt;Node15 -->
<g id="edge31" class="edge"><title>Node28&#45;&gt;Node15</title>
<path fill="none" stroke="midnightblue" d="M999.456,-61.9751C1009.75,-52.6966 1026.42,-37.6706 1038.99,-26.331"/>
<polygon fill="midnightblue" stroke="midnightblue" points="1041.48,-28.8046 1046.56,-19.5091 1036.79,-23.6054 1041.48,-28.8046"/>
</g>
<!-- Node28&#45;&gt;Node16 -->
<g id="edge32" class="edge"><title>Node28&#45;&gt;Node16</title>
<path fill="none" stroke="midnightblue" d="M986.132,-61.9751C982.202,-53.3152 976,-39.6486 971.007,-28.6453"/>
<polygon fill="midnightblue" stroke="midnightblue" points="974.181,-27.1691 966.861,-19.5091 967.806,-30.0617 974.181,-27.1691"/>
</g>
<!-- Node29&#45;&gt;Node8 -->
<g id="edge37" class="edge"><title>Node29&#45;&gt;Node8</title>
<path fill="none" stroke="midnightblue" d="M772.676,-184.959C764.778,-182.741 756.101,-180.545 748,-179 630.376,-156.565 492.236,-144.567 405.643,-138.741"/>
<polygon fill="midnightblue" stroke="midnightblue" points="405.814,-135.245 395.605,-138.078 405.352,-142.23 405.814,-135.245"/>
</g>
<!-- Node30 -->
<g id="node30" class="node"><title>Node30</title>
<polygon fill="none" stroke="#bfbfbf" points="588,-123.5 588,-142.5 632,-142.5 632,-123.5 588,-123.5"/>
<text text-anchor="middle" x="610" y="-130.5" font-family="Helvetica,sans-Serif" font-size="10.00">TH1.h</text>
</g>
<!-- Node29&#45;&gt;Node30 -->
<g id="edge36" class="edge"><title>Node29&#45;&gt;Node30</title>
<path fill="none" stroke="midnightblue" d="M772.778,-184.975C738.168,-174.137 678.516,-155.456 641.836,-143.97"/>
<polygon fill="midnightblue" stroke="midnightblue" points="642.729,-140.582 632.14,-140.933 640.637,-147.262 642.729,-140.582"/>
</g>
</g>
</svg>
        <g id="navigator" transform="translate(0 0)" fill="#404254">
                <rect fill="#f2f5e9" fill-opacity="0.5" stroke="#606060" stroke-width=".5" x="0" y="0" width="60" height="60"/>
                <use id="zoomplus" xlink:href="#zoomPlus" x="17" y="9" onmousedown="handleZoom(evt,'in')"/>
                <use id="zoomminus" xlink:href="#zoomMin" x="42" y="9" onmousedown="handleZoom(evt,'out')"/>
                <use id="reset" xlink:href="#resetDef" x="30" y="36" onmousedown="handleReset()"/>
                <g id="arrowUp" xlink:href="#dirArrow" transform="translate(30 24)" onmousedown="handlePan(0,-1)">
                  <use xlink:href="#rim" fill="#404040">
                        <set attributeName="fill" to="#808080" begin="arrowUp.mouseover" end="arrowUp.mouseout"/>
                  </use>
                  <path fill="none" stroke="white" stroke-width="1.5" d="M0,-3.0v7 M-2.5,-0.5L0,-3.0L2.5,-0.5"/>
                </g>
                <g id="arrowRight" xlink:href="#dirArrow" transform="rotate(90) translate(36 -43)" onmousedown="handlePan(1,0)">
                  <use xlink:href="#rim" fill="#404040">
                        <set attributeName="fill" to="#808080" begin="arrowRight.mouseover" end="arrowRight.mouseout"/>
                  </use>
                  <path fill="none" stroke="white" stroke-width="1.5" d="M0,-3.0v7 M-2.5,-0.5L0,-3.0L2.5,-0.5"/>
                </g>
                <g id="arrowDown" xlink:href="#dirArrow" transform="rotate(180) translate(-30 -48)" onmousedown="handlePan(0,1)">
                  <use xlink:href="#rim" fill="#404040">
                        <set attributeName="fill" to="#808080" begin="arrowDown.mouseover" end="arrowDown.mouseout"/>
                  </use>
                  <path fill="none" stroke="white" stroke-width="1.5" d="M0,-3.0v7 M-2.5,-0.5L0,-3.0L2.5,-0.5"/>
                </g>
                <g id="arrowLeft" xlink:href="#dirArrow" transform="rotate(270) translate(-36 17)" onmousedown="handlePan(-1,0)">
                  <use xlink:href="#rim" fill="#404040">
                        <set attributeName="fill" to="#808080" begin="arrowLeft.mouseover" end="arrowLeft.mouseout"/>
                  </use>
                  <path fill="none" stroke="white" stroke-width="1.5" d="M0,-3.0v7 M-2.5,-0.5L0,-3.0L2.5,-0.5"/>
                </g>
        </g>
        <svg viewBox="0 0 15 15" width="100%" height="30px" preserveAspectRatio="xMaxYMin meet">
         <g id="arrow_out" transform="scale(0.3 0.3)">
          <a xlink:href="TaskDiagnostics_8cxx__incl_org.svg" target="_base">
           <rect id="button" ry="5" rx="5" y="6" x="6" height="38" width="38"
                fill="#f2f5e9" fill-opacity="0.5" stroke="#606060" stroke-width="1.0"/>
           <path id="arrow"
             d="M 11.500037,31.436501 C 11.940474,20.09759 22.043105,11.32322 32.158766,21.979434 L 37.068811,17.246167 C 37.068811,17.246167 37.088388,32 37.088388,32 L 22.160133,31.978069 C 22.160133,31.978069 26.997745,27.140456 26.997745,27.140456 C 18.528582,18.264221 13.291696,25.230495 11.500037,31.436501 z"
             style="fill:#404040;"/>
          </a>
         </g>
        </svg>
</svg>
