<?xml version="1.0" encoding="UTF-8" standalone="no"?>
<!DOCTYPE svg PUBLIC "-//W3C//DTD SVG 1.1//EN"
 "http://www.w3.org/Graphics/SVG/1.1/DTD/svg11.dtd">
<!-- Generated by graphviz version 2.38.0 (20140413.2041)
 -->
<!-- Title: Modules/TOF/include/TOF/TaskDiagnostics.h Pages: 1 -->
<!--zoomable 285 -->
<svg id="main" version="1.1" xmlns="http://www.w3.org/2000/svg" xmlns:xlink="http://www.w3.org/1999/xlink" xml:space="preserve" onload="init(evt)">
<style type="text/css"><![CDATA[
.edge:hover path { stroke: red; }
.edge:hover polygon { stroke: red; fill: red; }
]]></style>
<script type="text/javascript"><![CDATA[
var edges = document.getElementsByTagName('g');
if (edges && edges.length) {
  for (var i=0;i<edges.length;i++) {
    if (edges[i].id.substr(0,4)=='edge') {
      edges[i].setAttribute('class','edge');
    }
  }
}
]]></script>
        <defs>
                <circle id="rim" cx="0" cy="0" r="7"/>
                <circle id="rim2" cx="0" cy="0" r="3.5"/>
                <g id="zoomPlus">
                        <use xlink:href="#rim" fill="#404040">
                                <set attributeName="fill" to="#808080" begin="zoomplus.mouseover" end="zoomplus.mouseout"/>
                        </use>
                        <path d="M-4,0h8M0,-4v8" fill="none" stroke="white" stroke-width="1.5" pointer-events="none"/>
                </g>
                <g id="zoomMin">
                        <use xlink:href="#rim" fill="#404040">
                                <set attributeName="fill" to="#808080" begin="zoomminus.mouseover" end="zoomminus.mouseout"/>
                        </use>
                        <path d="M-4,0h8" fill="none" stroke="white" stroke-width="1.5" pointer-events="none"/>
                </g>
                <g id="dirArrow">
                        <path fill="none" stroke="white" stroke-width="1.5" d="M0,-3.0v7 M-2.5,-0.5L0,-3.0L2.5,-0.5"/>
                </g>
               <g id="resetDef">
                       <use xlink:href="#rim2" fill="#404040">
                               <set attributeName="fill" to="#808080" begin="reset.mouseover" end="reset.mouseout"/>
                       </use>
               </g>
        </defs>

<script type="text/javascript">
var viewWidth = 1227;
var viewHeight = 285;
var sectionId = 'dynsection-0';
</script>
<script xlink:href="svgpan.js"/>
<svg id="graph" class="graph">
<g id="viewport">
<title>Modules/TOF/include/TOF/TaskDiagnostics.h</title>
<!-- Node1 -->
<g id="node1" class="node"><title>Node1</title>
<polygon fill="#bfbfbf" stroke="black" points="545.5,-246.5 545.5,-276.5 669.5,-276.5 669.5,-246.5 545.5,-246.5"/>
<text text-anchor="start" x="553.5" y="-264.5" font-family="Helvetica,sans-Serif" font-size="10.00">Modules/TOF/include</text>
<text text-anchor="middle" x="607.5" y="-253.5" font-family="Helvetica,sans-Serif" font-size="10.00">/TOF/TaskDiagnostics.h</text>
</g>
<!-- Node2 -->
<g id="node2" class="node"><title>Node2</title>
<polygon fill="none" stroke="#bfbfbf" points="287.5,-179.5 287.5,-209.5 429.5,-209.5 429.5,-179.5 287.5,-179.5"/>
<text text-anchor="start" x="295.5" y="-197.5" font-family="Helvetica,sans-Serif" font-size="10.00">TOFReconstruction/Decoder</text>
<text text-anchor="middle" x="358.5" y="-186.5" font-family="Helvetica,sans-Serif" font-size="10.00">Base.h</text>
</g>
<!-- Node1&#45;&gt;Node2 -->
<g id="edge1" class="edge"><title>Node1&#45;&gt;Node2</title>
<path fill="none" stroke="midnightblue" d="M553.777,-246.476C515.211,-236.408 463.076,-222.799 422.376,-212.174"/>
<polygon fill="midnightblue" stroke="midnightblue" points="423.115,-208.75 412.556,-209.611 421.347,-215.523 423.115,-208.75"/>
</g>
<!-- Node3 -->
<g id="node3" class="node"><title>Node3</title>
<polygon fill="none" stroke="#bfbfbf" points="447.5,-179.5 447.5,-209.5 599.5,-209.5 599.5,-179.5 447.5,-179.5"/>
<text text-anchor="start" x="455.5" y="-197.5" font-family="Helvetica,sans-Serif" font-size="10.00">DataFormatsTOF/Compressed</text>
<text text-anchor="middle" x="523.5" y="-186.5" font-family="Helvetica,sans-Serif" font-size="10.00">DataFormat.h</text>
</g>
<!-- Node1&#45;&gt;Node3 -->
<g id="edge2" class="edge"><title>Node1&#45;&gt;Node3</title>
<path fill="none" stroke="midnightblue" d="M589.273,-246.396C577.715,-237.452 562.576,-225.737 549.736,-215.802"/>
<polygon fill="midnightblue" stroke="midnightblue" points="551.742,-212.928 541.691,-209.577 547.458,-218.464 551.742,-212.928"/>
</g>
<!-- Node4 -->
<g id="node4" class="node"><title>Node4</title>
<g id="a_node4"><a xlink:href="TaskInterface_8h.html" target="_top" xlink:title="QualityControl/TaskInterface.h">
<polygon fill="none" stroke="black" points="617.5,-185 617.5,-204 767.5,-204 767.5,-185 617.5,-185"/>
<text text-anchor="middle" x="692.5" y="-192" font-family="Helvetica,sans-Serif" font-size="10.00">QualityControl/TaskInterface.h</text>
</a>
</g>
</g>
<!-- Node1&#45;&gt;Node4 -->
<g id="edge3" class="edge"><title>Node1&#45;&gt;Node4</title>
<path fill="none" stroke="midnightblue" d="M625.944,-246.396C639.853,-235.759 658.889,-221.203 673.04,-210.381"/>
<polygon fill="midnightblue" stroke="midnightblue" points="675.313,-213.049 681.13,-204.195 671.061,-207.489 675.313,-213.049"/>
</g>
<!-- Node21 -->
<g id="node21" class="node"><title>Node21</title>
<g id="a_node21"><a xlink:href="Counter_8h.html" target="_top" xlink:title="Utilities to count events and fill histograms at the end of the main processing loops. ">
<polygon fill="none" stroke="black" points="988,-185 988,-204 1073,-204 1073,-185 988,-185"/>
<text text-anchor="middle" x="1030.5" y="-192" font-family="Helvetica,sans-Serif" font-size="10.00">Base/Counter.h</text>
</a>
</g>
</g>
<!-- Node1&#45;&gt;Node21 -->
<g id="edge26" class="edge"><title>Node1&#45;&gt;Node21</title>
<path fill="none" stroke="midnightblue" d="M669.915,-250.909C753.272,-238.1 899.491,-215.631 977.671,-203.618"/>
<polygon fill="midnightblue" stroke="midnightblue" points="978.426,-207.043 987.778,-202.065 977.363,-200.124 978.426,-207.043"/>
</g>
<!-- Node5 -->
<g id="node5" class="node"><title>Node5</title>
<polygon fill="none" stroke="#bfbfbf" points="0,-0.5 0,-19.5 35,-19.5 35,-0.5 0,-0.5"/>
<text text-anchor="middle" x="17.5" y="-7.5" font-family="Helvetica,sans-Serif" font-size="10.00">map</text>
</g>
<!-- Node4&#45;&gt;Node5 -->
<g id="edge4" class="edge"><title>Node4&#45;&gt;Node5</title>
<path fill="none" stroke="midnightblue" d="M646.371,-184.976C634.089,-182.86 620.813,-180.711 608.5,-179 369.094,-145.736 270.336,-225.862 72.5,-87 51.1038,-71.9819 34.9176,-45.9218 25.8187,-28.5684"/>
<polygon fill="midnightblue" stroke="midnightblue" points="28.8928,-26.8901 21.2946,-19.5065 22.6299,-30.0168 28.8928,-26.8901"/>
</g>
<!-- Node6 -->
<g id="node6" class="node"><title>Node6</title>
<polygon fill="none" stroke="#bfbfbf" points="806.5,-62 806.5,-81 858.5,-81 858.5,-62 806.5,-62"/>
<text text-anchor="middle" x="832.5" y="-69" font-family="Helvetica,sans-Serif" font-size="10.00">memory</text>
</g>
<!-- Node4&#45;&gt;Node6 -->
<g id="edge5" class="edge"><title>Node4&#45;&gt;Node6</title>
<path fill="none" stroke="midnightblue" d="M767.693,-187.133C827.443,-180.331 904.097,-167.103 923.5,-143 943.86,-117.708 901.729,-96.1245 868.223,-83.7284"/>
<polygon fill="midnightblue" stroke="midnightblue" points="869.216,-80.3672 858.621,-80.3313 866.881,-86.9663 869.216,-80.3672"/>
</g>
<!-- Node7 -->
<g id="node7" class="node"><title>Node7</title>
<polygon fill="none" stroke="#bfbfbf" points="340,-0.5 340,-19.5 381,-19.5 381,-0.5 340,-0.5"/>
<text text-anchor="middle" x="360.5" y="-7.5" font-family="Helvetica,sans-Serif" font-size="10.00">string</text>
</g>
<!-- Node4&#45;&gt;Node7 -->
<g id="edge6" class="edge"><title>Node4&#45;&gt;Node7</title>
<path fill="none" stroke="midnightblue" d="M645.928,-184.935C633.769,-182.843 620.663,-180.716 608.5,-179 535.892,-168.759 329.44,-197.605 280.5,-143 246.844,-105.448 305.897,-51.7766 339.547,-25.9761"/>
<polygon fill="midnightblue" stroke="midnightblue" points="341.955,-28.5456 347.875,-19.7585 337.768,-22.9364 341.955,-28.5456"/>
</g>
<!-- Node8 -->
<g id="node8" class="node"><title>Node8</title>
<polygon fill="none" stroke="#bfbfbf" points="786,-0.5 786,-19.5 869,-19.5 869,-0.5 786,-0.5"/>
<text text-anchor="middle" x="827.5" y="-7.5" font-family="Helvetica,sans-Serif" font-size="10.00">unordered_map</text>
</g>
<!-- Node4&#45;&gt;Node8 -->
<g id="edge7" class="edge"><title>Node4&#45;&gt;Node8</title>
<path fill="none" stroke="midnightblue" d="M767.8,-188.362C832.304,-182.206 918.085,-169.236 939.5,-143 975.442,-98.9666 897.152,-47.9521 853.795,-24.3033"/>
<polygon fill="midnightblue" stroke="midnightblue" points="855.346,-21.1638 844.875,-19.5531 852.056,-27.3425 855.346,-21.1638"/>
</g>
<!-- Node9 -->
<g id="node9" class="node"><title>Node9</title>
<polygon fill="none" stroke="#bfbfbf" points="469,-123.5 469,-142.5 594,-142.5 594,-123.5 469,-123.5"/>
<text text-anchor="middle" x="531.5" y="-130.5" font-family="Helvetica,sans-Serif" font-size="10.00">Framework/InitContext.h</text>
</g>
<!-- Node4&#45;&gt;Node9 -->
<g id="edge8" class="edge"><title>Node4&#45;&gt;Node9</title>
<path fill="none" stroke="midnightblue" d="M669.433,-184.975C641.815,-174.769 595.38,-157.608 564.104,-146.049"/>
<polygon fill="midnightblue" stroke="midnightblue" points="565.118,-142.693 554.525,-142.509 562.691,-149.259 565.118,-142.693"/>
</g>
<!-- Node10 -->
<g id="node10" class="node"><title>Node10</title>
<polygon fill="none" stroke="#bfbfbf" points="612.5,-123.5 612.5,-142.5 772.5,-142.5 772.5,-123.5 612.5,-123.5"/>
<text text-anchor="middle" x="692.5" y="-130.5" font-family="Helvetica,sans-Serif" font-size="10.00">Framework/ProcessingContext.h</text>
</g>
<!-- Node4&#45;&gt;Node10 -->
<g id="edge9" class="edge"><title>Node4&#45;&gt;Node10</title>
<path fill="none" stroke="midnightblue" d="M692.5,-184.975C692.5,-176.58 692.5,-163.481 692.5,-152.663"/>
<polygon fill="midnightblue" stroke="midnightblue" points="696,-152.509 692.5,-142.509 689,-152.509 696,-152.509"/>
</g>
<!-- Node11 -->
<g id="node11" class="node"><title>Node11</title>
<g id="a_node11"><a xlink:href="Activity_8h.html" target="_top" xlink:title="QualityControl/Activity.h">
<polygon fill="none" stroke="black" points="791,-123.5 791,-142.5 914,-142.5 914,-123.5 791,-123.5"/>
<text text-anchor="middle" x="852.5" y="-130.5" font-family="Helvetica,sans-Serif" font-size="10.00">QualityControl/Activity.h</text>
</a>
</g>
</g>
<!-- Node4&#45;&gt;Node11 -->
<g id="edge10" class="edge"><title>Node4&#45;&gt;Node11</title>
<path fill="none" stroke="midnightblue" d="M715.424,-184.975C742.87,-174.769 789.016,-157.608 820.099,-146.049"/>
<polygon fill="midnightblue" stroke="midnightblue" points="821.465,-149.275 829.618,-142.509 819.026,-142.714 821.465,-149.275"/>
</g>
<!-- Node12 -->
<g id="node12" class="node"><title>Node12</title>
<g id="a_node12"><a xlink:href="ObjectsManager_8h.html" target="_top" xlink:title="QualityControl/ObjectsManager.h">
<polygon fill="none" stroke="black" points="290,-123.5 290,-142.5 451,-142.5 451,-123.5 290,-123.5"/>
<text text-anchor="middle" x="370.5" y="-130.5" font-family="Helvetica,sans-Serif" font-size="10.00">QualityControl/ObjectsManager.h</text>
</a>
</g>
</g>
<!-- Node4&#45;&gt;Node12 -->
<g id="edge11" class="edge"><title>Node4&#45;&gt;Node12</title>
<path fill="none" stroke="midnightblue" d="M646.365,-184.975C588.381,-174.261 488.921,-155.882 426.599,-144.366"/>
<polygon fill="midnightblue" stroke="midnightblue" points="427.019,-140.884 416.549,-142.509 425.747,-147.768 427.019,-140.884"/>
</g>
<!-- Node12&#45;&gt;Node6 -->
<g id="edge25" class="edge"><title>Node12&#45;&gt;Node6</title>
<path fill="none" stroke="midnightblue" d="M436.693,-123.475C535.587,-110.739 718.568,-87.1731 796.18,-77.1775"/>
<polygon fill="midnightblue" stroke="midnightblue" points="796.942,-80.6084 806.413,-75.8597 796.048,-73.6658 796.942,-80.6084"/>
</g>
<!-- Node12&#45;&gt;Node7 -->
<g id="edge24" class="edge"><title>Node12&#45;&gt;Node7</title>
<path fill="none" stroke="midnightblue" d="M369.781,-123.298C368.174,-103.85 364.26,-56.49 362.062,-29.9036"/>
<polygon fill="midnightblue" stroke="midnightblue" points="365.524,-29.3009 361.213,-19.6232 358.548,-29.8775 365.524,-29.3009"/>
</g>
<!-- Node13 -->
<g id="node13" class="node"><title>Node13</title>
<g id="a_node13"><a xlink:href="MonitorObject_8h.html" target="_top" xlink:title="QualityControl/MonitorObject.h">
<polygon fill="none" stroke="black" points="82,-62 82,-81 233,-81 233,-62 82,-62"/>
<text text-anchor="middle" x="157.5" y="-69" font-family="Helvetica,sans-Serif" font-size="10.00">QualityControl/MonitorObject.h</text>
</a>
</g>
</g>
<!-- Node12&#45;&gt;Node13 -->
<g id="edge12" class="edge"><title>Node12&#45;&gt;Node13</title>
<path fill="none" stroke="midnightblue" d="M339.982,-123.475C302.575,-113.026 239.073,-95.2868 197.713,-83.7332"/>
<polygon fill="midnightblue" stroke="midnightblue" points="198.534,-80.3286 187.961,-81.0091 196.651,-87.0705 198.534,-80.3286"/>
</g>
<!-- Node17 -->
<g id="node17" class="node"><title>Node17</title>
<g id="a_node17"><a xlink:href="MonitorObjectCollection_8h.html" target="_top" xlink:title="QualityControl/MonitorObject\lCollection.h">
<polygon fill="none" stroke="black" points="391,-56.5 391,-86.5 534,-86.5 534,-56.5 391,-56.5"/>
<text text-anchor="start" x="399" y="-74.5" font-family="Helvetica,sans-Serif" font-size="10.00">QualityControl/MonitorObject</text>
<text text-anchor="middle" x="462.5" y="-63.5" font-family="Helvetica,sans-Serif" font-size="10.00">Collection.h</text>
</a>
</g>
</g>
<!-- Node12&#45;&gt;Node17 -->
<g id="edge18" class="edge"><title>Node12&#45;&gt;Node17</title>
<path fill="none" stroke="midnightblue" d="M383.681,-123.475C396.258,-115.341 415.664,-102.791 432.072,-92.1788"/>
<polygon fill="midnightblue" stroke="midnightblue" points="434.321,-94.8926 440.817,-86.523 430.52,-89.0147 434.321,-94.8926"/>
</g>
<!-- Node20 -->
<g id="node20" class="node"><title>Node20</title>
<g id="a_node20"><a xlink:href="TaskConfig_8h.html" target="_top" xlink:title="QualityControl/TaskConfig.h">
<polygon fill="none" stroke="black" points="552.5,-62 552.5,-81 692.5,-81 692.5,-62 552.5,-62"/>
<text text-anchor="middle" x="622.5" y="-69" font-family="Helvetica,sans-Serif" font-size="10.00">QualityControl/TaskConfig.h</text>
</a>
</g>
</g>
<!-- Node12&#45;&gt;Node20 -->
<g id="edge21" class="edge"><title>Node12&#45;&gt;Node20</title>
<path fill="none" stroke="midnightblue" d="M406.605,-123.475C451.329,-112.915 527.583,-94.911 576.467,-83.3689"/>
<polygon fill="midnightblue" stroke="midnightblue" points="577.533,-86.7134 586.462,-81.0091 575.925,-79.9007 577.533,-86.7134"/>
</g>
<!-- Node13&#45;&gt;Node5 -->
<g id="edge14" class="edge"><title>Node13&#45;&gt;Node5</title>
<path fill="none" stroke="midnightblue" d="M137.441,-61.9751C113.065,-51.6151 71.8288,-34.0897 44.6319,-22.531"/>
<polygon fill="midnightblue" stroke="midnightblue" points="45.8767,-19.2572 35.3044,-18.5669 43.1387,-25.6995 45.8767,-19.2572"/>
</g>
<!-- Node13&#45;&gt;Node7 -->
<g id="edge13" class="edge"><title>Node13&#45;&gt;Node7</title>
<path fill="none" stroke="midnightblue" d="M186.905,-61.9885C219.46,-52.5499 273.743,-36.7644 330.059,-20.1145"/>
<polygon fill="midnightblue" stroke="midnightblue" points="331.254,-23.4111 339.849,-17.2172 329.267,-16.6988 331.254,-23.4111"/>
</g>
<!-- Node14 -->
<g id="node14" class="node"><title>Node14</title>
<polygon fill="none" stroke="#bfbfbf" points="53.5,-0.5 53.5,-19.5 109.5,-19.5 109.5,-0.5 53.5,-0.5"/>
<text text-anchor="middle" x="81.5" y="-7.5" font-family="Helvetica,sans-Serif" font-size="10.00">Rtypes.h</text>
</g>
<!-- Node13&#45;&gt;Node14 -->
<g id="edge15" class="edge"><title>Node13&#45;&gt;Node14</title>
<path fill="none" stroke="midnightblue" d="M146.611,-61.9751C134.534,-52.5199 114.833,-37.0961 100.26,-25.6871"/>
<polygon fill="midnightblue" stroke="midnightblue" points="102.4,-22.9177 92.3687,-19.5091 98.0851,-28.4295 102.4,-22.9177"/>
</g>
<!-- Node15 -->
<g id="node15" class="node"><title>Node15</title>
<polygon fill="none" stroke="#bfbfbf" points="128,-0.5 128,-19.5 187,-19.5 187,-0.5 128,-0.5"/>
<text text-anchor="middle" x="157.5" y="-7.5" font-family="Helvetica,sans-Serif" font-size="10.00">TObject.h</text>
</g>
<!-- Node13&#45;&gt;Node15 -->
<g id="edge16" class="edge"><title>Node13&#45;&gt;Node15</title>
<path fill="none" stroke="midnightblue" d="M157.5,-61.9751C157.5,-53.5803 157.5,-40.4806 157.5,-29.6631"/>
<polygon fill="midnightblue" stroke="midnightblue" points="161,-29.5091 157.5,-19.5091 154,-29.5091 161,-29.5091"/>
</g>
<!-- Node16 -->
<g id="node16" class="node"><title>Node16</title>
<polygon fill="none" stroke="#bfbfbf" points="205.5,-0.5 205.5,-19.5 321.5,-19.5 321.5,-0.5 205.5,-0.5"/>
<text text-anchor="middle" x="263.5" y="-7.5" font-family="Helvetica,sans-Serif" font-size="10.00">Common/Exceptions.h</text>
</g>
<!-- Node13&#45;&gt;Node16 -->
<g id="edge17" class="edge"><title>Node13&#45;&gt;Node16</title>
<path fill="none" stroke="midnightblue" d="M172.687,-61.9751C190.162,-52.1664 219.079,-35.9346 239.583,-24.425"/>
<polygon fill="midnightblue" stroke="midnightblue" points="241.334,-27.456 248.341,-19.5091 237.908,-21.3519 241.334,-27.456"/>
</g>
<!-- Node18 -->
<g id="node18" class="node"><title>Node18</title>
<polygon fill="none" stroke="#bfbfbf" points="546,-0.5 546,-19.5 615,-19.5 615,-0.5 546,-0.5"/>
<text text-anchor="middle" x="580.5" y="-7.5" font-family="Helvetica,sans-Serif" font-size="10.00">TObjArray.h</text>
</g>
<!-- Node17&#45;&gt;Node18 -->
<g id="edge19" class="edge"><title>Node17&#45;&gt;Node18</title>
<path fill="none" stroke="midnightblue" d="M490.464,-56.3993C509.821,-46.6391 535.408,-33.7373 554.356,-24.1826"/>
<polygon fill="midnightblue" stroke="midnightblue" points="555.977,-27.2854 563.33,-19.6578 552.825,-21.035 555.977,-27.2854"/>
</g>
<!-- Node19 -->
<g id="node19" class="node"><title>Node19</title>
<polygon fill="none" stroke="#bfbfbf" points="399.5,-0.5 399.5,-19.5 527.5,-19.5 527.5,-0.5 399.5,-0.5"/>
<text text-anchor="middle" x="463.5" y="-7.5" font-family="Helvetica,sans-Serif" font-size="10.00">Mergers/MergeInterface.h</text>
</g>
<!-- Node17&#45;&gt;Node19 -->
<g id="edge20" class="edge"><title>Node17&#45;&gt;Node19</title>
<path fill="none" stroke="midnightblue" d="M462.737,-56.3993C462.87,-48.4664 463.039,-38.458 463.183,-29.8583"/>
<polygon fill="midnightblue" stroke="midnightblue" points="466.686,-29.7152 463.354,-19.6578 459.687,-29.5975 466.686,-29.7152"/>
</g>
<!-- Node20&#45;&gt;Node7 -->
<g id="edge22" class="edge"><title>Node20&#45;&gt;Node7</title>
<path fill="none" stroke="midnightblue" d="M578.216,-61.9184C533.458,-53.0094 462.123,-38.169 391.113,-19.9937"/>
<polygon fill="midnightblue" stroke="midnightblue" points="391.656,-16.5191 381.098,-17.4073 389.905,-23.2967 391.656,-16.5191"/>
</g>
<!-- Node20&#45;&gt;Node8 -->
<g id="edge23" class="edge"><title>Node20&#45;&gt;Node8</title>
<path fill="none" stroke="midnightblue" d="M651.872,-61.9751C687.797,-51.5478 748.732,-33.8618 788.544,-22.3066"/>
<polygon fill="midnightblue" stroke="midnightblue" points="789.555,-25.6578 798.183,-19.5091 787.604,-18.9353 789.555,-25.6578"/>
</g>
<!-- Node22 -->
<g id="node22" class="node"><title>Node22</title>
<polygon fill="none" stroke="#bfbfbf" points="1008.5,-123.5 1008.5,-142.5 1052.5,-142.5 1052.5,-123.5 1008.5,-123.5"/>
<text text-anchor="middle" x="1030.5" y="-130.5" font-family="Helvetica,sans-Serif" font-size="10.00">TH1.h</text>
</g>
<!-- Node21&#45;&gt;Node22 -->
<g id="edge27" class="edge"><title>Node21&#45;&gt;Node22</title>
<path fill="none" stroke="midnightblue" d="M1030.5,-184.975C1030.5,-176.58 1030.5,-163.481 1030.5,-152.663"/>
<polygon fill="midnightblue" stroke="midnightblue" points="1034,-152.509 1030.5,-142.509 1027,-152.509 1034,-152.509"/>
</g>
<!-- Node23 -->
<g id="node23" class="node"><title>Node23</title>
<g id="a_node23"><a xlink:href="QcInfoLogger_8h.html" target="_top" xlink:title="QualityControl/QcInfoLogger.h">
<polygon fill="none" stroke="black" points="1070,-123.5 1070,-142.5 1219,-142.5 1219,-123.5 1070,-123.5"/>
<text text-anchor="middle" x="1144.5" y="-130.5" font-family="Helvetica,sans-Serif" font-size="10.00">QualityControl/QcInfoLogger.h</text>
</a>
</g>
</g>
<!-- Node21&#45;&gt;Node23 -->
<g id="edge28" class="edge"><title>Node21&#45;&gt;Node23</title>
<path fill="none" stroke="midnightblue" d="M1046.83,-184.975C1065.71,-175.122 1097.01,-158.788 1119.08,-147.27"/>
<polygon fill="midnightblue" stroke="midnightblue" points="1120.95,-150.239 1128.2,-142.509 1117.71,-144.033 1120.95,-150.239"/>
</g>
<!-- Node24 -->
<g id="node24" class="node"><title>Node24</title>
<polygon fill="none" stroke="#bfbfbf" points="1079.5,-62 1079.5,-81 1209.5,-81 1209.5,-62 1079.5,-62"/>
<text text-anchor="middle" x="1144.5" y="-69" font-family="Helvetica,sans-Serif" font-size="10.00">InfoLogger/InfoLogger.hxx</text>
</g>
<!-- Node23&#45;&gt;Node24 -->
<g id="edge29" class="edge"><title>Node23&#45;&gt;Node24</title>
<path fill="none" stroke="midnightblue" d="M1144.5,-123.475C1144.5,-115.08 1144.5,-101.981 1144.5,-91.1631"/>
<polygon fill="midnightblue" stroke="midnightblue" points="1148,-91.0091 1144.5,-81.0091 1141,-91.0091 1148,-91.0091"/>
</g>
</g>
</svg>
        <g id="navigator" transform="translate(0 0)" fill="#404254">
                <rect fill="#f2f5e9" fill-opacity="0.5" stroke="#606060" stroke-width=".5" x="0" y="0" width="60" height="60"/>
                <use id="zoomplus" xlink:href="#zoomPlus" x="17" y="9" onmousedown="handleZoom(evt,'in')"/>
                <use id="zoomminus" xlink:href="#zoomMin" x="42" y="9" onmousedown="handleZoom(evt,'out')"/>
                <use id="reset" xlink:href="#resetDef" x="30" y="36" onmousedown="handleReset()"/>
                <g id="arrowUp" xlink:href="#dirArrow" transform="translate(30 24)" onmousedown="handlePan(0,-1)">
                  <use xlink:href="#rim" fill="#404040">
                        <set attributeName="fill" to="#808080" begin="arrowUp.mouseover" end="arrowUp.mouseout"/>
                  </use>
                  <path fill="none" stroke="white" stroke-width="1.5" d="M0,-3.0v7 M-2.5,-0.5L0,-3.0L2.5,-0.5"/>
                </g>
                <g id="arrowRight" xlink:href="#dirArrow" transform="rotate(90) translate(36 -43)" onmousedown="handlePan(1,0)">
                  <use xlink:href="#rim" fill="#404040">
                        <set attributeName="fill" to="#808080" begin="arrowRight.mouseover" end="arrowRight.mouseout"/>
                  </use>
                  <path fill="none" stroke="white" stroke-width="1.5" d="M0,-3.0v7 M-2.5,-0.5L0,-3.0L2.5,-0.5"/>
                </g>
                <g id="arrowDown" xlink:href="#dirArrow" transform="rotate(180) translate(-30 -48)" onmousedown="handlePan(0,1)">
                  <use xlink:href="#rim" fill="#404040">
                        <set attributeName="fill" to="#808080" begin="arrowDown.mouseover" end="arrowDown.mouseout"/>
                  </use>
                  <path fill="none" stroke="white" stroke-width="1.5" d="M0,-3.0v7 M-2.5,-0.5L0,-3.0L2.5,-0.5"/>
                </g>
                <g id="arrowLeft" xlink:href="#dirArrow" transform="rotate(270) translate(-36 17)" onmousedown="handlePan(-1,0)">
                  <use xlink:href="#rim" fill="#404040">
                        <set attributeName="fill" to="#808080" begin="arrowLeft.mouseover" end="arrowLeft.mouseout"/>
                  </use>
                  <path fill="none" stroke="white" stroke-width="1.5" d="M0,-3.0v7 M-2.5,-0.5L0,-3.0L2.5,-0.5"/>
                </g>
        </g>
        <svg viewBox="0 0 15 15" width="100%" height="30px" preserveAspectRatio="xMaxYMin meet">
         <g id="arrow_out" transform="scale(0.3 0.3)">
          <a xlink:href="TaskDiagnostics_8h__incl_org.svg" target="_base">
           <rect id="button" ry="5" rx="5" y="6" x="6" height="38" width="38"
                fill="#f2f5e9" fill-opacity="0.5" stroke="#606060" stroke-width="1.0"/>
           <path id="arrow"
             d="M 11.500037,31.436501 C 11.940474,20.09759 22.043105,11.32322 32.158766,21.979434 L 37.068811,17.246167 C 37.068811,17.246167 37.088388,32 37.088388,32 L 22.160133,31.978069 C 22.160133,31.978069 26.997745,27.140456 26.997745,27.140456 C 18.528582,18.264221 13.291696,25.230495 11.500037,31.436501 z"
             style="fill:#404040;"/>
          </a>
         </g>
        </svg>
</svg>
