<?xml version="1.0" encoding="UTF-8" standalone="no"?>
<!DOCTYPE svg PUBLIC "-//W3C//DTD SVG 1.1//EN"
 "http://www.w3.org/Graphics/SVG/1.1/DTD/svg11.dtd">
<!-- Generated by graphviz version 2.38.0 (20140413.2041)
 -->
<!-- Title: Modules/TOF/include/TOF/TaskCompressedData.h Pages: 1 -->
<svg width="1117pt" height="285pt"
 viewBox="0.00 0.00 1117.00 285.00" xmlns="http://www.w3.org/2000/svg" xmlns:xlink="http://www.w3.org/1999/xlink">
<g id="graph0" class="graph" transform="scale(1 1) rotate(0) translate(4 281)">
<title>Modules/TOF/include/TOF/TaskCompressedData.h</title>
<!-- Node1 -->
<g id="node1" class="node"><title>Node1</title>
<polygon fill="#bfbfbf" stroke="black" points="161.5,-246.5 161.5,-276.5 310.5,-276.5 310.5,-246.5 161.5,-246.5"/>
<text text-anchor="start" x="169.5" y="-264.5" font-family="Helvetica,sans-Serif" font-size="10.00">Modules/TOF/include</text>
<text text-anchor="middle" x="236" y="-253.5" font-family="Helvetica,sans-Serif" font-size="10.00">/TOF/TaskCompressedData.h</text>
</g>
<!-- Node2 -->
<g id="node2" class="node"><title>Node2</title>
<polygon fill="none" stroke="#bfbfbf" points="0,-179.5 0,-209.5 142,-209.5 142,-179.5 0,-179.5"/>
<text text-anchor="start" x="8" y="-197.5" font-family="Helvetica,sans-Serif" font-size="10.00">TOFReconstruction/Decoder</text>
<text text-anchor="middle" x="71" y="-186.5" font-family="Helvetica,sans-Serif" font-size="10.00">Base.h</text>
</g>
<!-- Node1&#45;&gt;Node2 -->
<g id="edge1" class="edge"><title>Node1&#45;&gt;Node2</title>
<path fill="none" stroke="midnightblue" d="M200.197,-246.396C175.548,-236.686 142.607,-223.709 116.157,-213.289"/>
<polygon fill="midnightblue" stroke="midnightblue" points="117.32,-209.985 106.733,-209.577 114.754,-216.498 117.32,-209.985"/>
</g>
<!-- Node3 -->
<g id="node3" class="node"><title>Node3</title>
<polygon fill="none" stroke="#bfbfbf" points="160,-179.5 160,-209.5 312,-209.5 312,-179.5 160,-179.5"/>
<text text-anchor="start" x="168" y="-197.5" font-family="Helvetica,sans-Serif" font-size="10.00">DataFormatsTOF/Compressed</text>
<text text-anchor="middle" x="236" y="-186.5" font-family="Helvetica,sans-Serif" font-size="10.00">DataFormat.h</text>
</g>
<!-- Node1&#45;&gt;Node3 -->
<g id="edge2" class="edge"><title>Node1&#45;&gt;Node3</title>
<path fill="none" stroke="midnightblue" d="M236,-246.396C236,-238.645 236,-228.812 236,-219.86"/>
<polygon fill="midnightblue" stroke="midnightblue" points="239.5,-219.576 236,-209.577 232.5,-219.577 239.5,-219.576"/>
</g>
<!-- Node4 -->
<g id="node4" class="node"><title>Node4</title>
<g id="a_node4"><a xlink:href="TaskInterface_8h.html" target="_top" xlink:title="QualityControl/TaskInterface.h">
<polygon fill="none" stroke="black" points="330,-185 330,-204 480,-204 480,-185 330,-185"/>
<text text-anchor="middle" x="405" y="-192" font-family="Helvetica,sans-Serif" font-size="10.00">QualityControl/TaskInterface.h</text>
</a>
</g>
</g>
<!-- Node1&#45;&gt;Node4 -->
<g id="edge3" class="edge"><title>Node1&#45;&gt;Node4</title>
<path fill="none" stroke="midnightblue" d="M272.67,-246.396C302.717,-234.84 344.794,-218.656 373.376,-207.663"/>
<polygon fill="midnightblue" stroke="midnightblue" points="374.805,-210.864 382.882,-204.007 372.292,-204.33 374.805,-210.864"/>
</g>
<!-- Node5 -->
<g id="node5" class="node"><title>Node5</title>
<polygon fill="none" stroke="#bfbfbf" points="429.5,-0.5 429.5,-19.5 464.5,-19.5 464.5,-0.5 429.5,-0.5"/>
<text text-anchor="middle" x="447" y="-7.5" font-family="Helvetica,sans-Serif" font-size="10.00">map</text>
</g>
<!-- Node4&#45;&gt;Node5 -->
<g id="edge4" class="edge"><title>Node4&#45;&gt;Node5</title>
<path fill="none" stroke="midnightblue" d="M368.539,-184.945C346.576,-177.709 320.351,-164.899 307,-143 286.872,-109.985 284.223,-87.246 307,-56 332.537,-20.9681 385.792,-12.611 418.759,-10.9548"/>
<polygon fill="midnightblue" stroke="midnightblue" points="419.21,-14.4422 429.092,-10.6212 418.984,-7.4458 419.21,-14.4422"/>
</g>
<!-- Node6 -->
<g id="node6" class="node"><title>Node6</title>
<polygon fill="none" stroke="#bfbfbf" points="360,-62 360,-81 412,-81 412,-62 360,-62"/>
<text text-anchor="middle" x="386" y="-69" font-family="Helvetica,sans-Serif" font-size="10.00">memory</text>
</g>
<!-- Node4&#45;&gt;Node6 -->
<g id="edge5" class="edge"><title>Node4&#45;&gt;Node6</title>
<path fill="none" stroke="midnightblue" d="M398.58,-184.749C391.929,-175.093 381.963,-158.816 378,-143 373.658,-125.67 376.804,-105.349 380.346,-90.9876"/>
<polygon fill="midnightblue" stroke="midnightblue" points="383.729,-91.8862 383.015,-81.3154 376.981,-90.024 383.729,-91.8862"/>
</g>
<!-- Node7 -->
<g id="node7" class="node"><title>Node7</title>
<polygon fill="none" stroke="#bfbfbf" points="514.5,-0.5 514.5,-19.5 555.5,-19.5 555.5,-0.5 514.5,-0.5"/>
<text text-anchor="middle" x="535" y="-7.5" font-family="Helvetica,sans-Serif" font-size="10.00">string</text>
</g>
<!-- Node4&#45;&gt;Node7 -->
<g id="edge6" class="edge"><title>Node4&#45;&gt;Node7</title>
<path fill="none" stroke="midnightblue" d="M396.22,-184.906C373.759,-161.887 318.222,-97.7606 351,-56 360.502,-43.8943 454.483,-25.4328 504.322,-16.3824"/>
<polygon fill="midnightblue" stroke="midnightblue" points="505.017,-19.8136 514.24,-14.5997 503.779,-12.924 505.017,-19.8136"/>
</g>
<!-- Node8 -->
<g id="node8" class="node"><title>Node8</title>
<polygon fill="none" stroke="#bfbfbf" points="264.5,-0.5 264.5,-19.5 347.5,-19.5 347.5,-0.5 264.5,-0.5"/>
<text text-anchor="middle" x="306" y="-7.5" font-family="Helvetica,sans-Serif" font-size="10.00">unordered_map</text>
</g>
<!-- Node4&#45;&gt;Node8 -->
<g id="edge7" class="edge"><title>Node4&#45;&gt;Node8</title>
<path fill="none" stroke="midnightblue" d="M360.435,-184.96C336.405,-177.916 308.563,-165.302 293,-143 269.035,-108.657 285.68,-56.4938 297.33,-29.1601"/>
<polygon fill="midnightblue" stroke="midnightblue" points="300.682,-30.2423 301.599,-19.6873 294.3,-27.3662 300.682,-30.2423"/>
</g>
<!-- Node9 -->
<g id="node9" class="node"><title>Node9</title>
<polygon fill="none" stroke="#bfbfbf" points="387.5,-123.5 387.5,-142.5 512.5,-142.5 512.5,-123.5 387.5,-123.5"/>
<text text-anchor="middle" x="450" y="-130.5" font-family="Helvetica,sans-Serif" font-size="10.00">Framework/InitContext.h</text>
</g>
<!-- Node4&#45;&gt;Node9 -->
<g id="edge8" class="edge"><title>Node4&#45;&gt;Node9</title>
<path fill="none" stroke="midnightblue" d="M411.447,-184.975C418.197,-176.05 428.969,-161.807 437.413,-150.643"/>
<polygon fill="midnightblue" stroke="midnightblue" points="440.324,-152.596 443.565,-142.509 434.741,-148.374 440.324,-152.596"/>
</g>
<!-- Node10 -->
<g id="node10" class="node"><title>Node10</title>
<polygon fill="none" stroke="#bfbfbf" points="531,-123.5 531,-142.5 691,-142.5 691,-123.5 531,-123.5"/>
<text text-anchor="middle" x="611" y="-130.5" font-family="Helvetica,sans-Serif" font-size="10.00">Framework/ProcessingContext.h</text>
</g>
<!-- Node4&#45;&gt;Node10 -->
<g id="edge9" class="edge"><title>Node4&#45;&gt;Node10</title>
<path fill="none" stroke="midnightblue" d="M434.515,-184.975C470.616,-174.548 531.848,-156.862 571.854,-145.307"/>
<polygon fill="midnightblue" stroke="midnightblue" points="572.904,-148.647 581.54,-142.509 570.961,-141.922 572.904,-148.647"/>
</g>
<!-- Node11 -->
<g id="node11" class="node"><title>Node11</title>
<g id="a_node11"><a xlink:href="Activity_8h.html" target="_top" xlink:title="QualityControl/Activity.h">
<polygon fill="none" stroke="black" points="709.5,-123.5 709.5,-142.5 832.5,-142.5 832.5,-123.5 709.5,-123.5"/>
<text text-anchor="middle" x="771" y="-130.5" font-family="Helvetica,sans-Serif" font-size="10.00">QualityControl/Activity.h</text>
</a>
</g>
</g>
<!-- Node4&#45;&gt;Node11 -->
<g id="edge10" class="edge"><title>Node4&#45;&gt;Node11</title>
<path fill="none" stroke="midnightblue" d="M457.439,-184.975C523.754,-174.194 637.798,-155.654 708.545,-144.153"/>
<polygon fill="midnightblue" stroke="midnightblue" points="709.35,-147.568 718.658,-142.509 708.226,-140.659 709.35,-147.568"/>
</g>
<!-- Node12 -->
<g id="node12" class="node"><title>Node12</title>
<g id="a_node12"><a xlink:href="ObjectsManager_8h.html" target="_top" xlink:title="QualityControl/ObjectsManager.h">
<polygon fill="none" stroke="black" points="850.5,-123.5 850.5,-142.5 1011.5,-142.5 1011.5,-123.5 850.5,-123.5"/>
<text text-anchor="middle" x="931" y="-130.5" font-family="Helvetica,sans-Serif" font-size="10.00">QualityControl/ObjectsManager.h</text>
</a>
</g>
</g>
<!-- Node4&#45;&gt;Node12 -->
<g id="edge11" class="edge"><title>Node4&#45;&gt;Node12</title>
<path fill="none" stroke="midnightblue" d="M480.083,-185.007C576.682,-174.08 744.078,-155.144 845.481,-143.674"/>
<polygon fill="midnightblue" stroke="midnightblue" points="846.146,-147.121 855.689,-142.519 845.359,-140.165 846.146,-147.121"/>
</g>
<!-- Node12&#45;&gt;Node6 -->
<g id="edge25" class="edge"><title>Node12&#45;&gt;Node6</title>
<path fill="none" stroke="midnightblue" d="M850.475,-123.805C847.615,-123.531 844.783,-123.261 842,-123 657.674,-105.686 607.944,-126.178 427,-87 423.576,-86.2586 420.045,-85.3094 416.56,-84.2523"/>
<polygon fill="midnightblue" stroke="midnightblue" points="417.577,-80.902 406.983,-81.0698 415.369,-87.5448 417.577,-80.902"/>
</g>
<!-- Node12&#45;&gt;Node7 -->
<g id="edge24" class="edge"><title>Node12&#45;&gt;Node7</title>
<path fill="none" stroke="midnightblue" d="M858.137,-123.471C774.144,-113.301 644.908,-96.4916 624,-87 615.725,-83.2434 575.549,-47.6194 552.101,-26.5039"/>
<polygon fill="midnightblue" stroke="midnightblue" points="554.353,-23.8209 544.585,-19.7162 549.661,-29.016 554.353,-23.8209"/>
</g>
<!-- Node13 -->
<g id="node13" class="node"><title>Node13</title>
<g id="a_node13"><a xlink:href="MonitorObject_8h.html" target="_top" xlink:title="QualityControl/MonitorObject.h">
<polygon fill="none" stroke="black" points="632.5,-62 632.5,-81 783.5,-81 783.5,-62 632.5,-62"/>
<text text-anchor="middle" x="708" y="-69" font-family="Helvetica,sans-Serif" font-size="10.00">QualityControl/MonitorObject.h</text>
</a>
</g>
</g>
<!-- Node12&#45;&gt;Node13 -->
<g id="edge12" class="edge"><title>Node12&#45;&gt;Node13</title>
<path fill="none" stroke="midnightblue" d="M899.05,-123.475C859.804,-113.004 793.122,-95.2118 749.827,-83.6601"/>
<polygon fill="midnightblue" stroke="midnightblue" points="750.456,-80.2054 739.891,-81.0091 748.651,-86.9688 750.456,-80.2054"/>
</g>
<!-- Node17 -->
<g id="node17" class="node"><title>Node17</title>
<g id="a_node17"><a xlink:href="MonitorObjectCollection_8h.html" target="_top" xlink:title="QualityControl/MonitorObject\lCollection.h">
<polygon fill="none" stroke="black" points="859.5,-56.5 859.5,-86.5 1002.5,-86.5 1002.5,-56.5 859.5,-56.5"/>
<text text-anchor="start" x="867.5" y="-74.5" font-family="Helvetica,sans-Serif" font-size="10.00">QualityControl/MonitorObject</text>
<text text-anchor="middle" x="931" y="-63.5" font-family="Helvetica,sans-Serif" font-size="10.00">Collection.h</text>
</a>
</g>
</g>
<!-- Node12&#45;&gt;Node17 -->
<g id="edge18" class="edge"><title>Node12&#45;&gt;Node17</title>
<path fill="none" stroke="midnightblue" d="M931,-123.475C931,-116.471 931,-106.192 931,-96.6956"/>
<polygon fill="midnightblue" stroke="midnightblue" points="934.5,-96.5229 931,-86.523 927.5,-96.523 934.5,-96.5229"/>
</g>
<!-- Node20 -->
<g id="node20" class="node"><title>Node20</title>
<g id="a_node20"><a xlink:href="TaskConfig_8h.html" target="_top" xlink:title="QualityControl/TaskConfig.h">
<polygon fill="none" stroke="black" points="436,-62 436,-81 576,-81 576,-62 436,-62"/>
<text text-anchor="middle" x="506" y="-69" font-family="Helvetica,sans-Serif" font-size="10.00">QualityControl/TaskConfig.h</text>
</a>
</g>
</g>
<!-- Node12&#45;&gt;Node20 -->
<g id="edge21" class="edge"><title>Node12&#45;&gt;Node20</title>
<path fill="none" stroke="midnightblue" d="M860.023,-123.467C790.965,-114.969 683.127,-101.177 590,-87 581.39,-85.6893 572.299,-84.2149 563.404,-82.7213"/>
<polygon fill="midnightblue" stroke="midnightblue" points="563.925,-79.2598 553.48,-81.0346 562.752,-86.1608 563.925,-79.2598"/>
</g>
<!-- Node13&#45;&gt;Node5 -->
<g id="edge14" class="edge"><title>Node13&#45;&gt;Node5</title>
<path fill="none" stroke="midnightblue" d="M670.605,-61.9751C617.532,-49.8761 521.591,-28.0045 474.534,-17.277"/>
<polygon fill="midnightblue" stroke="midnightblue" points="475.264,-13.8536 464.736,-15.0433 473.708,-20.6785 475.264,-13.8536"/>
</g>
<!-- Node13&#45;&gt;Node7 -->
<g id="edge13" class="edge"><title>Node13&#45;&gt;Node7</title>
<path fill="none" stroke="midnightblue" d="M683.213,-61.9751C652.139,-51.2877 598.894,-32.975 565.395,-21.4536"/>
<polygon fill="midnightblue" stroke="midnightblue" points="566.273,-18.0547 555.679,-18.112 563.997,-24.6741 566.273,-18.0547"/>
</g>
<!-- Node14 -->
<g id="node14" class="node"><title>Node14</title>
<polygon fill="none" stroke="#bfbfbf" points="604,-0.5 604,-19.5 660,-19.5 660,-0.5 604,-0.5"/>
<text text-anchor="middle" x="632" y="-7.5" font-family="Helvetica,sans-Serif" font-size="10.00">Rtypes.h</text>
</g>
<!-- Node13&#45;&gt;Node14 -->
<g id="edge15" class="edge"><title>Node13&#45;&gt;Node14</title>
<path fill="none" stroke="midnightblue" d="M697.111,-61.9751C685.034,-52.5199 665.333,-37.0961 650.76,-25.6871"/>
<polygon fill="midnightblue" stroke="midnightblue" points="652.9,-22.9177 642.869,-19.5091 648.585,-28.4295 652.9,-22.9177"/>
</g>
<!-- Node15 -->
<g id="node15" class="node"><title>Node15</title>
<polygon fill="none" stroke="#bfbfbf" points="678.5,-0.5 678.5,-19.5 737.5,-19.5 737.5,-0.5 678.5,-0.5"/>
<text text-anchor="middle" x="708" y="-7.5" font-family="Helvetica,sans-Serif" font-size="10.00">TObject.h</text>
</g>
<!-- Node13&#45;&gt;Node15 -->
<g id="edge16" class="edge"><title>Node13&#45;&gt;Node15</title>
<path fill="none" stroke="midnightblue" d="M708,-61.9751C708,-53.5803 708,-40.4806 708,-29.6631"/>
<polygon fill="midnightblue" stroke="midnightblue" points="711.5,-29.5091 708,-19.5091 704.5,-29.5091 711.5,-29.5091"/>
</g>
<!-- Node16 -->
<g id="node16" class="node"><title>Node16</title>
<polygon fill="none" stroke="#bfbfbf" points="756,-0.5 756,-19.5 872,-19.5 872,-0.5 756,-0.5"/>
<text text-anchor="middle" x="814" y="-7.5" font-family="Helvetica,sans-Serif" font-size="10.00">Common/Exceptions.h</text>
</g>
<!-- Node13&#45;&gt;Node16 -->
<g id="edge17" class="edge"><title>Node13&#45;&gt;Node16</title>
<path fill="none" stroke="midnightblue" d="M723.187,-61.9751C740.662,-52.1664 769.579,-35.9346 790.083,-24.425"/>
<polygon fill="midnightblue" stroke="midnightblue" points="791.834,-27.456 798.841,-19.5091 788.408,-21.3519 791.834,-27.456"/>
</g>
<!-- Node18 -->
<g id="node18" class="node"><title>Node18</title>
<polygon fill="none" stroke="#bfbfbf" points="893.5,-0.5 893.5,-19.5 962.5,-19.5 962.5,-0.5 893.5,-0.5"/>
<text text-anchor="middle" x="928" y="-7.5" font-family="Helvetica,sans-Serif" font-size="10.00">TObjArray.h</text>
</g>
<!-- Node17&#45;&gt;Node18 -->
<g id="edge19" class="edge"><title>Node17&#45;&gt;Node18</title>
<path fill="none" stroke="midnightblue" d="M930.289,-56.3993C929.889,-48.4664 929.384,-38.458 928.951,-29.8583"/>
<polygon fill="midnightblue" stroke="midnightblue" points="932.436,-29.4688 928.437,-19.6578 925.445,-29.8214 932.436,-29.4688"/>
</g>
<!-- Node19 -->
<g id="node19" class="node"><title>Node19</title>
<polygon fill="none" stroke="#bfbfbf" points="981,-0.5 981,-19.5 1109,-19.5 1109,-0.5 981,-0.5"/>
<text text-anchor="middle" x="1045" y="-7.5" font-family="Helvetica,sans-Serif" font-size="10.00">Mergers/MergeInterface.h</text>
</g>
<!-- Node17&#45;&gt;Node19 -->
<g id="edge20" class="edge"><title>Node17&#45;&gt;Node19</title>
<path fill="none" stroke="midnightblue" d="M958.016,-56.3993C976.631,-46.6837 1001.21,-33.8551 1019.49,-24.3137"/>
<polygon fill="midnightblue" stroke="midnightblue" points="1021.17,-27.3876 1028.41,-19.6578 1017.93,-21.182 1021.17,-27.3876"/>
</g>
<!-- Node20&#45;&gt;Node7 -->
<g id="edge22" class="edge"><title>Node20&#45;&gt;Node7</title>
<path fill="none" stroke="midnightblue" d="M510.155,-61.9751C514.376,-53.3152 521.037,-39.6486 526.4,-28.6453"/>
<polygon fill="midnightblue" stroke="midnightblue" points="529.618,-30.0317 530.853,-19.5091 523.325,-26.9648 529.618,-30.0317"/>
</g>
<!-- Node20&#45;&gt;Node8 -->
<g id="edge23" class="edge"><title>Node20&#45;&gt;Node8</title>
<path fill="none" stroke="midnightblue" d="M477.345,-61.9751C442.444,-51.592 383.35,-34.0116 344.5,-22.4538"/>
<polygon fill="midnightblue" stroke="midnightblue" points="345.185,-19.0059 334.602,-19.5091 343.189,-25.7153 345.185,-19.0059"/>
</g>
</g>
</svg>
