<?xml version="1.0" encoding="UTF-8" standalone="no"?>
<!DOCTYPE svg PUBLIC "-//W3C//DTD SVG 1.1//EN"
 "http://www.w3.org/Graphics/SVG/1.1/DTD/svg11.dtd">
<!-- Generated by graphviz version 2.38.0 (20140413.2041)
 -->
<!-- Title: Modules/TOF/src/TaskDigits.cxx Pages: 1 -->
<svg width="1566pt" height="319pt"
 viewBox="0.00 0.00 1565.50 319.00" xmlns="http://www.w3.org/2000/svg" xmlns:xlink="http://www.w3.org/1999/xlink">
<g id="graph0" class="graph" transform="scale(1 1) rotate(0) translate(4 315)">
<title>Modules/TOF/src/TaskDigits.cxx</title>
<!-- Node1 -->
<g id="node1" class="node"><title>Node1</title>
<polygon fill="#bfbfbf" stroke="black" points="257,-291.5 257,-310.5 418,-310.5 418,-291.5 257,-291.5"/>
<text text-anchor="middle" x="337.5" y="-298.5" font-family="Helvetica,sans-Serif" font-size="10.00">Modules/TOF/src/TaskDigits.cxx</text>
</g>
<!-- Node2 -->
<g id="node2" class="node"><title>Node2</title>
<polygon fill="none" stroke="#bfbfbf" points="0,-235.5 0,-254.5 65,-254.5 65,-235.5 0,-235.5"/>
<text text-anchor="middle" x="32.5" y="-242.5" font-family="Helvetica,sans-Serif" font-size="10.00">TCanvas.h</text>
</g>
<!-- Node1&#45;&gt;Node2 -->
<g id="edge1" class="edge"><title>Node1&#45;&gt;Node2</title>
<path fill="none" stroke="midnightblue" d="M283.737,-291.473C232.682,-283.224 153.533,-270.045 75.0908,-255.045"/>
<polygon fill="midnightblue" stroke="midnightblue" points="75.5131,-251.562 65.0321,-253.111 74.1912,-258.436 75.5131,-251.562"/>
</g>
<!-- Node3 -->
<g id="node3" class="node"><title>Node3</title>
<polygon fill="none" stroke="#bfbfbf" points="83.5,-235.5 83.5,-254.5 127.5,-254.5 127.5,-235.5 83.5,-235.5"/>
<text text-anchor="middle" x="105.5" y="-242.5" font-family="Helvetica,sans-Serif" font-size="10.00">TH1.h</text>
</g>
<!-- Node1&#45;&gt;Node3 -->
<g id="edge2" class="edge"><title>Node1&#45;&gt;Node3</title>
<path fill="none" stroke="midnightblue" d="M295.744,-291.444C257.114,-283.353 197.883,-270.501 137.838,-255.229"/>
<polygon fill="midnightblue" stroke="midnightblue" points="138.361,-251.75 127.805,-252.656 136.623,-258.53 138.361,-251.75"/>
</g>
<!-- Node4 -->
<g id="node4" class="node"><title>Node4</title>
<polygon fill="none" stroke="#bfbfbf" points="145.5,-235.5 145.5,-254.5 195.5,-254.5 195.5,-235.5 145.5,-235.5"/>
<text text-anchor="middle" x="170.5" y="-242.5" font-family="Helvetica,sans-Serif" font-size="10.00">TH1F.h</text>
</g>
<!-- Node1&#45;&gt;Node4 -->
<g id="edge3" class="edge"><title>Node1&#45;&gt;Node4</title>
<path fill="none" stroke="midnightblue" d="M311.038,-291.444C282.49,-282.212 236.902,-267.471 205.428,-257.294"/>
<polygon fill="midnightblue" stroke="midnightblue" points="206.336,-253.909 195.745,-254.163 204.183,-260.57 206.336,-253.909"/>
</g>
<!-- Node5 -->
<g id="node5" class="node"><title>Node5</title>
<polygon fill="none" stroke="#bfbfbf" points="213.5,-235.5 213.5,-254.5 263.5,-254.5 263.5,-235.5 213.5,-235.5"/>
<text text-anchor="middle" x="238.5" y="-242.5" font-family="Helvetica,sans-Serif" font-size="10.00">TH2F.h</text>
</g>
<!-- Node1&#45;&gt;Node5 -->
<g id="edge4" class="edge"><title>Node1&#45;&gt;Node5</title>
<path fill="none" stroke="midnightblue" d="M321.594,-291.324C305.862,-282.743 281.558,-269.486 263.291,-259.522"/>
<polygon fill="midnightblue" stroke="midnightblue" points="264.822,-256.37 254.367,-254.655 261.47,-262.516 264.822,-256.37"/>
</g>
<!-- Node6 -->
<g id="node6" class="node"><title>Node6</title>
<polygon fill="none" stroke="#bfbfbf" points="282,-235.5 282,-254.5 329,-254.5 329,-235.5 282,-235.5"/>
<text text-anchor="middle" x="305.5" y="-242.5" font-family="Helvetica,sans-Serif" font-size="10.00">TH1I.h</text>
</g>
<!-- Node1&#45;&gt;Node6 -->
<g id="edge5" class="edge"><title>Node1&#45;&gt;Node6</title>
<path fill="none" stroke="midnightblue" d="M332.216,-291.083C327.789,-283.613 321.337,-272.724 315.882,-263.52"/>
<polygon fill="midnightblue" stroke="midnightblue" points="318.795,-261.57 310.686,-254.751 312.773,-265.138 318.795,-261.57"/>
</g>
<!-- Node7 -->
<g id="node7" class="node"><title>Node7</title>
<polygon fill="none" stroke="#bfbfbf" points="347,-235.5 347,-254.5 394,-254.5 394,-235.5 347,-235.5"/>
<text text-anchor="middle" x="370.5" y="-242.5" font-family="Helvetica,sans-Serif" font-size="10.00">TH2I.h</text>
</g>
<!-- Node1&#45;&gt;Node7 -->
<g id="edge6" class="edge"><title>Node1&#45;&gt;Node7</title>
<path fill="none" stroke="midnightblue" d="M342.949,-291.083C347.514,-283.613 354.168,-272.724 359.793,-263.52"/>
<polygon fill="midnightblue" stroke="midnightblue" points="362.924,-265.109 365.152,-254.751 356.951,-261.459 362.924,-265.109"/>
</g>
<!-- Node8 -->
<g id="node8" class="node"><title>Node8</title>
<polygon fill="none" stroke="#bfbfbf" points="412.5,-235.5 412.5,-254.5 502.5,-254.5 502.5,-235.5 412.5,-235.5"/>
<text text-anchor="middle" x="457.5" y="-242.5" font-family="Helvetica,sans-Serif" font-size="10.00">TOFBase/Digit.h</text>
</g>
<!-- Node1&#45;&gt;Node8 -->
<g id="edge7" class="edge"><title>Node1&#45;&gt;Node8</title>
<path fill="none" stroke="midnightblue" d="M356.514,-291.444C376.088,-282.636 406.808,-268.812 429.229,-258.722"/>
<polygon fill="midnightblue" stroke="midnightblue" points="430.892,-261.812 438.575,-254.516 428.019,-255.428 430.892,-261.812"/>
</g>
<!-- Node9 -->
<g id="node9" class="node"><title>Node9</title>
<polygon fill="none" stroke="#bfbfbf" points="520.5,-235.5 520.5,-254.5 608.5,-254.5 608.5,-235.5 520.5,-235.5"/>
<text text-anchor="middle" x="564.5" y="-242.5" font-family="Helvetica,sans-Serif" font-size="10.00">TOFBase/Geo.h</text>
</g>
<!-- Node1&#45;&gt;Node9 -->
<g id="edge8" class="edge"><title>Node1&#45;&gt;Node9</title>
<path fill="none" stroke="midnightblue" d="M373.469,-291.444C412.819,-282.083 475.987,-267.056 518.814,-256.868"/>
<polygon fill="midnightblue" stroke="midnightblue" points="519.781,-260.236 528.699,-254.516 518.161,-253.426 519.781,-260.236"/>
</g>
<!-- Node10 -->
<g id="node10" class="node"><title>Node10</title>
<g id="a_node10"><a xlink:href="QcInfoLogger_8h.html" target="_top" xlink:title="QualityControl/QcInfoLogger.h">
<polygon fill="none" stroke="black" points="626,-235.5 626,-254.5 775,-254.5 775,-235.5 626,-235.5"/>
<text text-anchor="middle" x="700.5" y="-242.5" font-family="Helvetica,sans-Serif" font-size="10.00">QualityControl/QcInfoLogger.h</text>
</a>
</g>
</g>
<!-- Node1&#45;&gt;Node10 -->
<g id="edge9" class="edge"><title>Node1&#45;&gt;Node10</title>
<path fill="none" stroke="midnightblue" d="M395.018,-291.444C459.67,-281.826 564.526,-266.228 633.003,-256.041"/>
<polygon fill="midnightblue" stroke="midnightblue" points="633.875,-259.45 643.251,-254.516 632.844,-252.526 633.875,-259.45"/>
</g>
<!-- Node12 -->
<g id="node12" class="node"><title>Node12</title>
<g id="a_node12"><a xlink:href="TaskDigits_8h.html" target="_top" xlink:title="Task to monitor quantities in TOF digits in both data and MC. ">
<polygon fill="none" stroke="black" points="797,-235.5 797,-254.5 892,-254.5 892,-235.5 797,-235.5"/>
<text text-anchor="middle" x="844.5" y="-242.5" font-family="Helvetica,sans-Serif" font-size="10.00">TOF/TaskDigits.h</text>
</a>
</g>
</g>
<!-- Node1&#45;&gt;Node12 -->
<g id="edge11" class="edge"><title>Node1&#45;&gt;Node12</title>
<path fill="none" stroke="midnightblue" d="M418.385,-293.048C508.023,-285.066 656.804,-270.995 784.5,-255 785.245,-254.907 785.994,-254.812 786.748,-254.715"/>
<polygon fill="midnightblue" stroke="midnightblue" points="787.266,-258.177 796.714,-253.382 786.338,-251.239 787.266,-258.177"/>
</g>
<!-- Node11 -->
<g id="node11" class="node"><title>Node11</title>
<polygon fill="none" stroke="#bfbfbf" points="630.5,-179.5 630.5,-198.5 760.5,-198.5 760.5,-179.5 630.5,-179.5"/>
<text text-anchor="middle" x="695.5" y="-186.5" font-family="Helvetica,sans-Serif" font-size="10.00">InfoLogger/InfoLogger.hxx</text>
</g>
<!-- Node10&#45;&gt;Node11 -->
<g id="edge10" class="edge"><title>Node10&#45;&gt;Node11</title>
<path fill="none" stroke="midnightblue" d="M699.674,-235.083C699.019,-228.006 698.08,-217.861 697.258,-208.986"/>
<polygon fill="midnightblue" stroke="midnightblue" points="700.717,-208.386 696.31,-198.751 693.747,-209.031 700.717,-208.386"/>
</g>
<!-- Node13 -->
<g id="node13" class="node"><title>Node13</title>
<g id="a_node13"><a xlink:href="TaskInterface_8h.html" target="_top" xlink:title="QualityControl/TaskInterface.h">
<polygon fill="none" stroke="black" points="778.5,-179.5 778.5,-198.5 928.5,-198.5 928.5,-179.5 778.5,-179.5"/>
<text text-anchor="middle" x="853.5" y="-186.5" font-family="Helvetica,sans-Serif" font-size="10.00">QualityControl/TaskInterface.h</text>
</a>
</g>
</g>
<!-- Node12&#45;&gt;Node13 -->
<g id="edge12" class="edge"><title>Node12&#45;&gt;Node13</title>
<path fill="none" stroke="midnightblue" d="M845.986,-235.083C847.179,-227.927 848.894,-217.635 850.385,-208.691"/>
<polygon fill="midnightblue" stroke="midnightblue" points="853.85,-209.19 852.041,-198.751 846.945,-208.04 853.85,-209.19"/>
</g>
<!-- Node14 -->
<g id="node14" class="node"><title>Node14</title>
<polygon fill="none" stroke="#bfbfbf" points="878,-0.5 878,-19.5 913,-19.5 913,-0.5 878,-0.5"/>
<text text-anchor="middle" x="895.5" y="-7.5" font-family="Helvetica,sans-Serif" font-size="10.00">map</text>
</g>
<!-- Node13&#45;&gt;Node14 -->
<g id="edge13" class="edge"><title>Node13&#45;&gt;Node14</title>
<path fill="none" stroke="midnightblue" d="M810.433,-179.486C790.104,-173.074 767.677,-161.991 755.5,-143 734.629,-110.45 732.723,-87.246 755.5,-56 781.037,-20.9681 834.292,-12.611 867.259,-10.9548"/>
<polygon fill="midnightblue" stroke="midnightblue" points="867.71,-14.4422 877.592,-10.6212 867.484,-7.4458 867.71,-14.4422"/>
</g>
<!-- Node15 -->
<g id="node15" class="node"><title>Node15</title>
<polygon fill="none" stroke="#bfbfbf" points="808.5,-62 808.5,-81 860.5,-81 860.5,-62 808.5,-62"/>
<text text-anchor="middle" x="834.5" y="-69" font-family="Helvetica,sans-Serif" font-size="10.00">memory</text>
</g>
<!-- Node13&#45;&gt;Node15 -->
<g id="edge14" class="edge"><title>Node13&#45;&gt;Node15</title>
<path fill="none" stroke="midnightblue" d="M846.61,-179.319C840.231,-170.684 831.192,-156.77 827.5,-143 822.88,-125.77 825.742,-105.435 829.09,-91.0438"/>
<polygon fill="midnightblue" stroke="midnightblue" points="832.482,-91.9073 831.63,-81.3467 825.711,-90.1336 832.482,-91.9073"/>
</g>
<!-- Node16 -->
<g id="node16" class="node"><title>Node16</title>
<polygon fill="none" stroke="#bfbfbf" points="963,-0.5 963,-19.5 1004,-19.5 1004,-0.5 963,-0.5"/>
<text text-anchor="middle" x="983.5" y="-7.5" font-family="Helvetica,sans-Serif" font-size="10.00">string</text>
</g>
<!-- Node13&#45;&gt;Node16 -->
<g id="edge15" class="edge"><title>Node13&#45;&gt;Node16</title>
<path fill="none" stroke="midnightblue" d="M844.521,-179.452C822.164,-157.146 768.008,-96.1226 799.5,-56 809.002,-43.8943 902.983,-25.4328 952.822,-16.3824"/>
<polygon fill="midnightblue" stroke="midnightblue" points="953.517,-19.8136 962.74,-14.5997 952.279,-12.924 953.517,-19.8136"/>
</g>
<!-- Node17 -->
<g id="node17" class="node"><title>Node17</title>
<polygon fill="none" stroke="#bfbfbf" points="713,-0.5 713,-19.5 796,-19.5 796,-0.5 713,-0.5"/>
<text text-anchor="middle" x="754.5" y="-7.5" font-family="Helvetica,sans-Serif" font-size="10.00">unordered_map</text>
</g>
<!-- Node13&#45;&gt;Node17 -->
<g id="edge16" class="edge"><title>Node13&#45;&gt;Node17</title>
<path fill="none" stroke="midnightblue" d="M799.716,-179.422C777.838,-173.088 754.463,-162.088 740.5,-143 715.647,-109.025 733.388,-56.3295 745.593,-28.9266"/>
<polygon fill="midnightblue" stroke="midnightblue" points="748.817,-30.2939 749.899,-19.7543 742.481,-27.3191 748.817,-30.2939"/>
</g>
<!-- Node18 -->
<g id="node18" class="node"><title>Node18</title>
<polygon fill="none" stroke="#bfbfbf" points="836,-123.5 836,-142.5 961,-142.5 961,-123.5 836,-123.5"/>
<text text-anchor="middle" x="898.5" y="-130.5" font-family="Helvetica,sans-Serif" font-size="10.00">Framework/InitContext.h</text>
</g>
<!-- Node13&#45;&gt;Node18 -->
<g id="edge17" class="edge"><title>Node13&#45;&gt;Node18</title>
<path fill="none" stroke="midnightblue" d="M860.931,-179.083C867.353,-171.377 876.806,-160.033 884.622,-150.653"/>
<polygon fill="midnightblue" stroke="midnightblue" points="887.494,-152.674 891.207,-142.751 882.117,-148.193 887.494,-152.674"/>
</g>
<!-- Node19 -->
<g id="node19" class="node"><title>Node19</title>
<polygon fill="none" stroke="#bfbfbf" points="979.5,-123.5 979.5,-142.5 1139.5,-142.5 1139.5,-123.5 979.5,-123.5"/>
<text text-anchor="middle" x="1059.5" y="-130.5" font-family="Helvetica,sans-Serif" font-size="10.00">Framework/ProcessingContext.h</text>
</g>
<!-- Node13&#45;&gt;Node19 -->
<g id="edge18" class="edge"><title>Node13&#45;&gt;Node19</title>
<path fill="none" stroke="midnightblue" d="M886.141,-179.444C921.55,-170.162 978.209,-155.309 1017.05,-145.127"/>
<polygon fill="midnightblue" stroke="midnightblue" points="1018.23,-148.438 1027.01,-142.516 1016.45,-141.667 1018.23,-148.438"/>
</g>
<!-- Node20 -->
<g id="node20" class="node"><title>Node20</title>
<g id="a_node20"><a xlink:href="Activity_8h.html" target="_top" xlink:title="QualityControl/Activity.h">
<polygon fill="none" stroke="black" points="1158,-123.5 1158,-142.5 1281,-142.5 1281,-123.5 1158,-123.5"/>
<text text-anchor="middle" x="1219.5" y="-130.5" font-family="Helvetica,sans-Serif" font-size="10.00">QualityControl/Activity.h</text>
</a>
</g>
</g>
<!-- Node13&#45;&gt;Node20 -->
<g id="edge19" class="edge"><title>Node13&#45;&gt;Node20</title>
<path fill="none" stroke="midnightblue" d="M911.494,-179.444C976.814,-169.806 1082.84,-154.163 1151.87,-143.978"/>
<polygon fill="midnightblue" stroke="midnightblue" points="1152.4,-147.439 1161.78,-142.516 1151.37,-140.514 1152.4,-147.439"/>
</g>
<!-- Node21 -->
<g id="node21" class="node"><title>Node21</title>
<g id="a_node21"><a xlink:href="ObjectsManager_8h.html" target="_top" xlink:title="QualityControl/ObjectsManager.h">
<polygon fill="none" stroke="black" points="1299,-123.5 1299,-142.5 1460,-142.5 1460,-123.5 1299,-123.5"/>
<text text-anchor="middle" x="1379.5" y="-130.5" font-family="Helvetica,sans-Serif" font-size="10.00">QualityControl/ObjectsManager.h</text>
</a>
</g>
</g>
<!-- Node13&#45;&gt;Node21 -->
<g id="edge20" class="edge"><title>Node13&#45;&gt;Node21</title>
<path fill="none" stroke="midnightblue" d="M928.583,-180.292C1023.49,-170.548 1186.75,-153.788 1288.61,-143.331"/>
<polygon fill="midnightblue" stroke="midnightblue" points="1288.98,-146.811 1298.57,-142.308 1288.27,-139.848 1288.98,-146.811"/>
</g>
<!-- Node21&#45;&gt;Node15 -->
<g id="edge34" class="edge"><title>Node21&#45;&gt;Node15</title>
<path fill="none" stroke="midnightblue" d="M1298.97,-123.805C1296.11,-123.531 1293.28,-123.261 1290.5,-123 1106.17,-105.686 1056.44,-126.178 875.5,-87 872.076,-86.2586 868.545,-85.3094 865.06,-84.2523"/>
<polygon fill="midnightblue" stroke="midnightblue" points="866.077,-80.902 855.483,-81.0698 863.869,-87.5448 866.077,-80.902"/>
</g>
<!-- Node21&#45;&gt;Node16 -->
<g id="edge33" class="edge"><title>Node21&#45;&gt;Node16</title>
<path fill="none" stroke="midnightblue" d="M1306.64,-123.471C1222.64,-113.301 1093.41,-96.4916 1072.5,-87 1064.23,-83.2434 1024.05,-47.6194 1000.6,-26.5039"/>
<polygon fill="midnightblue" stroke="midnightblue" points="1002.85,-23.8209 993.085,-19.7162 998.161,-29.016 1002.85,-23.8209"/>
</g>
<!-- Node22 -->
<g id="node22" class="node"><title>Node22</title>
<g id="a_node22"><a xlink:href="MonitorObject_8h.html" target="_top" xlink:title="QualityControl/MonitorObject.h">
<polygon fill="none" stroke="black" points="1081,-62 1081,-81 1232,-81 1232,-62 1081,-62"/>
<text text-anchor="middle" x="1156.5" y="-69" font-family="Helvetica,sans-Serif" font-size="10.00">QualityControl/MonitorObject.h</text>
</a>
</g>
</g>
<!-- Node21&#45;&gt;Node22 -->
<g id="edge21" class="edge"><title>Node21&#45;&gt;Node22</title>
<path fill="none" stroke="midnightblue" d="M1347.55,-123.475C1308.3,-113.004 1241.62,-95.2118 1198.33,-83.6601"/>
<polygon fill="midnightblue" stroke="midnightblue" points="1198.96,-80.2054 1188.39,-81.0091 1197.15,-86.9688 1198.96,-80.2054"/>
</g>
<!-- Node26 -->
<g id="node26" class="node"><title>Node26</title>
<g id="a_node26"><a xlink:href="MonitorObjectCollection_8h.html" target="_top" xlink:title="QualityControl/MonitorObject\lCollection.h">
<polygon fill="none" stroke="black" points="1308,-56.5 1308,-86.5 1451,-86.5 1451,-56.5 1308,-56.5"/>
<text text-anchor="start" x="1316" y="-74.5" font-family="Helvetica,sans-Serif" font-size="10.00">QualityControl/MonitorObject</text>
<text text-anchor="middle" x="1379.5" y="-63.5" font-family="Helvetica,sans-Serif" font-size="10.00">Collection.h</text>
</a>
</g>
</g>
<!-- Node21&#45;&gt;Node26 -->
<g id="edge27" class="edge"><title>Node21&#45;&gt;Node26</title>
<path fill="none" stroke="midnightblue" d="M1379.5,-123.475C1379.5,-116.471 1379.5,-106.192 1379.5,-96.6956"/>
<polygon fill="midnightblue" stroke="midnightblue" points="1383,-96.5229 1379.5,-86.523 1376,-96.523 1383,-96.5229"/>
</g>
<!-- Node29 -->
<g id="node29" class="node"><title>Node29</title>
<g id="a_node29"><a xlink:href="TaskConfig_8h.html" target="_top" xlink:title="QualityControl/TaskConfig.h">
<polygon fill="none" stroke="black" points="884.5,-62 884.5,-81 1024.5,-81 1024.5,-62 884.5,-62"/>
<text text-anchor="middle" x="954.5" y="-69" font-family="Helvetica,sans-Serif" font-size="10.00">QualityControl/TaskConfig.h</text>
</a>
</g>
</g>
<!-- Node21&#45;&gt;Node29 -->
<g id="edge30" class="edge"><title>Node21&#45;&gt;Node29</title>
<path fill="none" stroke="midnightblue" d="M1308.52,-123.467C1239.47,-114.969 1131.63,-101.177 1038.5,-87 1029.89,-85.6893 1020.8,-84.2149 1011.9,-82.7213"/>
<polygon fill="midnightblue" stroke="midnightblue" points="1012.42,-79.2598 1001.98,-81.0346 1011.25,-86.1608 1012.42,-79.2598"/>
</g>
<!-- Node22&#45;&gt;Node14 -->
<g id="edge23" class="edge"><title>Node22&#45;&gt;Node14</title>
<path fill="none" stroke="midnightblue" d="M1119.11,-61.9751C1066.03,-49.8761 970.091,-28.0045 923.034,-17.277"/>
<polygon fill="midnightblue" stroke="midnightblue" points="923.764,-13.8536 913.236,-15.0433 922.208,-20.6785 923.764,-13.8536"/>
</g>
<!-- Node22&#45;&gt;Node16 -->
<g id="edge22" class="edge"><title>Node22&#45;&gt;Node16</title>
<path fill="none" stroke="midnightblue" d="M1131.71,-61.9751C1100.64,-51.2877 1047.39,-32.975 1013.89,-21.4536"/>
<polygon fill="midnightblue" stroke="midnightblue" points="1014.77,-18.0547 1004.18,-18.112 1012.5,-24.6741 1014.77,-18.0547"/>
</g>
<!-- Node23 -->
<g id="node23" class="node"><title>Node23</title>
<polygon fill="none" stroke="#bfbfbf" points="1052.5,-0.5 1052.5,-19.5 1108.5,-19.5 1108.5,-0.5 1052.5,-0.5"/>
<text text-anchor="middle" x="1080.5" y="-7.5" font-family="Helvetica,sans-Serif" font-size="10.00">Rtypes.h</text>
</g>
<!-- Node22&#45;&gt;Node23 -->
<g id="edge24" class="edge"><title>Node22&#45;&gt;Node23</title>
<path fill="none" stroke="midnightblue" d="M1145.61,-61.9751C1133.53,-52.5199 1113.83,-37.0961 1099.26,-25.6871"/>
<polygon fill="midnightblue" stroke="midnightblue" points="1101.4,-22.9177 1091.37,-19.5091 1097.09,-28.4295 1101.4,-22.9177"/>
</g>
<!-- Node24 -->
<g id="node24" class="node"><title>Node24</title>
<polygon fill="none" stroke="#bfbfbf" points="1127,-0.5 1127,-19.5 1186,-19.5 1186,-0.5 1127,-0.5"/>
<text text-anchor="middle" x="1156.5" y="-7.5" font-family="Helvetica,sans-Serif" font-size="10.00">TObject.h</text>
</g>
<!-- Node22&#45;&gt;Node24 -->
<g id="edge25" class="edge"><title>Node22&#45;&gt;Node24</title>
<path fill="none" stroke="midnightblue" d="M1156.5,-61.9751C1156.5,-53.5803 1156.5,-40.4806 1156.5,-29.6631"/>
<polygon fill="midnightblue" stroke="midnightblue" points="1160,-29.5091 1156.5,-19.5091 1153,-29.5091 1160,-29.5091"/>
</g>
<!-- Node25 -->
<g id="node25" class="node"><title>Node25</title>
<polygon fill="none" stroke="#bfbfbf" points="1204.5,-0.5 1204.5,-19.5 1320.5,-19.5 1320.5,-0.5 1204.5,-0.5"/>
<text text-anchor="middle" x="1262.5" y="-7.5" font-family="Helvetica,sans-Serif" font-size="10.00">Common/Exceptions.h</text>
</g>
<!-- Node22&#45;&gt;Node25 -->
<g id="edge26" class="edge"><title>Node22&#45;&gt;Node25</title>
<path fill="none" stroke="midnightblue" d="M1171.69,-61.9751C1189.16,-52.1664 1218.08,-35.9346 1238.58,-24.425"/>
<polygon fill="midnightblue" stroke="midnightblue" points="1240.33,-27.456 1247.34,-19.5091 1236.91,-21.3519 1240.33,-27.456"/>
</g>
<!-- Node27 -->
<g id="node27" class="node"><title>Node27</title>
<polygon fill="none" stroke="#bfbfbf" points="1342,-0.5 1342,-19.5 1411,-19.5 1411,-0.5 1342,-0.5"/>
<text text-anchor="middle" x="1376.5" y="-7.5" font-family="Helvetica,sans-Serif" font-size="10.00">TObjArray.h</text>
</g>
<!-- Node26&#45;&gt;Node27 -->
<g id="edge28" class="edge"><title>Node26&#45;&gt;Node27</title>
<path fill="none" stroke="midnightblue" d="M1378.79,-56.3993C1378.39,-48.4664 1377.88,-38.458 1377.45,-29.8583"/>
<polygon fill="midnightblue" stroke="midnightblue" points="1380.94,-29.4688 1376.94,-19.6578 1373.94,-29.8214 1380.94,-29.4688"/>
</g>
<!-- Node28 -->
<g id="node28" class="node"><title>Node28</title>
<polygon fill="none" stroke="#bfbfbf" points="1429.5,-0.5 1429.5,-19.5 1557.5,-19.5 1557.5,-0.5 1429.5,-0.5"/>
<text text-anchor="middle" x="1493.5" y="-7.5" font-family="Helvetica,sans-Serif" font-size="10.00">Mergers/MergeInterface.h</text>
</g>
<!-- Node26&#45;&gt;Node28 -->
<g id="edge29" class="edge"><title>Node26&#45;&gt;Node28</title>
<path fill="none" stroke="midnightblue" d="M1406.52,-56.3993C1425.13,-46.6837 1449.71,-33.8551 1467.99,-24.3137"/>
<polygon fill="midnightblue" stroke="midnightblue" points="1469.67,-27.3876 1476.91,-19.6578 1466.43,-21.182 1469.67,-27.3876"/>
</g>
<!-- Node29&#45;&gt;Node16 -->
<g id="edge31" class="edge"><title>Node29&#45;&gt;Node16</title>
<path fill="none" stroke="midnightblue" d="M958.655,-61.9751C962.876,-53.3152 969.537,-39.6486 974.9,-28.6453"/>
<polygon fill="midnightblue" stroke="midnightblue" points="978.118,-30.0317 979.353,-19.5091 971.825,-26.9648 978.118,-30.0317"/>
</g>
<!-- Node29&#45;&gt;Node17 -->
<g id="edge32" class="edge"><title>Node29&#45;&gt;Node17</title>
<path fill="none" stroke="midnightblue" d="M925.845,-61.9751C890.944,-51.592 831.85,-34.0116 793,-22.4538"/>
<polygon fill="midnightblue" stroke="midnightblue" points="793.685,-19.0059 783.102,-19.5091 791.689,-25.7153 793.685,-19.0059"/>
</g>
</g>
</svg>
