<?xml version="1.0" encoding="UTF-8" standalone="no"?>
<!DOCTYPE svg PUBLIC "-//W3C//DTD SVG 1.1//EN"
 "http://www.w3.org/Graphics/SVG/1.1/DTD/svg11.dtd">
<!-- Generated by graphviz version 2.38.0 (20140413.2041)
 -->
<!-- Title: Framework/test/testQualityObject.cxx Pages: 1 -->
<svg width="702pt" height="207pt"
 viewBox="0.00 0.00 701.71 207.00" xmlns="http://www.w3.org/2000/svg" xmlns:xlink="http://www.w3.org/1999/xlink">
<g id="graph0" class="graph" transform="scale(1 1) rotate(0) translate(4 203)">
<title>Framework/test/testQualityObject.cxx</title>
<!-- Node1 -->
<g id="node1" class="node"><title>Node1</title>
<polygon fill="#bfbfbf" stroke="black" points="336.712,-168.5 336.712,-198.5 471.712,-198.5 471.712,-168.5 336.712,-168.5"/>
<text text-anchor="start" x="344.712" y="-186.5" font-family="Helvetica,sans-Serif" font-size="10.00">Framework/test/testQuality</text>
<text text-anchor="middle" x="404.212" y="-175.5" font-family="Helvetica,sans-Serif" font-size="10.00">Object.cxx</text>
</g>
<!-- Node2 -->
<g id="node2" class="node"><title>Node2</title>
<g id="a_node2"><a xlink:href="QualityObject_8h_source.html" target="_top" xlink:title="QualityControl/QualityObject.h">
<polygon fill="none" stroke="black" points="76.7123,-112.5 76.7123,-131.5 225.712,-131.5 225.712,-112.5 76.7123,-112.5"/>
<text text-anchor="middle" x="151.212" y="-119.5" font-family="Helvetica,sans-Serif" font-size="10.00">QualityControl/QualityObject.h</text>
</a>
</g>
</g>
<!-- Node1&#45;&gt;Node2 -->
<g id="edge1" class="edge"><title>Node1&#45;&gt;Node2</title>
<path fill="none" stroke="midnightblue" d="M344.575,-168.475C299.498,-157.874 238.525,-143.534 197.187,-133.812"/>
<polygon fill="midnightblue" stroke="midnightblue" points="197.918,-130.389 187.382,-131.506 196.315,-137.203 197.918,-130.389"/>
</g>
<!-- Node9 -->
<g id="node9" class="node"><title>Node9</title>
<g id="a_node9"><a xlink:href="QcInfoLogger_8h.html" target="_top" xlink:title="QualityControl/QcInfoLogger.h">
<polygon fill="none" stroke="black" points="407.712,-112.5 407.712,-131.5 556.712,-131.5 556.712,-112.5 407.712,-112.5"/>
<text text-anchor="middle" x="482.212" y="-119.5" font-family="Helvetica,sans-Serif" font-size="10.00">QualityControl/QcInfoLogger.h</text>
</a>
</g>
</g>
<!-- Node1&#45;&gt;Node9 -->
<g id="edge9" class="edge"><title>Node1&#45;&gt;Node9</title>
<path fill="none" stroke="midnightblue" d="M422.697,-168.399C434.733,-159.218 450.412,-147.258 462.656,-137.918"/>
<polygon fill="midnightblue" stroke="midnightblue" points="465.035,-140.506 470.863,-131.658 460.789,-134.94 465.035,-140.506"/>
</g>
<!-- Node11 -->
<g id="node11" class="node"><title>Node11</title>
<g id="a_node11"><a xlink:href="testUtils_8h.html" target="_top" xlink:title="QualityControl/testUtils.h">
<polygon fill="none" stroke="black" points="262.712,-112.5 262.712,-131.5 389.712,-131.5 389.712,-112.5 262.712,-112.5"/>
<text text-anchor="middle" x="326.212" y="-119.5" font-family="Helvetica,sans-Serif" font-size="10.00">QualityControl/testUtils.h</text>
</a>
</g>
</g>
<!-- Node1&#45;&gt;Node11 -->
<g id="edge11" class="edge"><title>Node1&#45;&gt;Node11</title>
<path fill="none" stroke="midnightblue" d="M385.727,-168.399C373.692,-159.218 358.013,-147.258 345.769,-137.918"/>
<polygon fill="midnightblue" stroke="midnightblue" points="347.636,-134.94 337.562,-131.658 343.39,-140.506 347.636,-134.94"/>
</g>
<!-- Node13 -->
<g id="node13" class="node"><title>Node13</title>
<polygon fill="none" stroke="#bfbfbf" points="574.712,-112.5 574.712,-131.5 693.712,-131.5 693.712,-112.5 574.712,-112.5"/>
<text text-anchor="middle" x="634.212" y="-119.5" font-family="Helvetica,sans-Serif" font-size="10.00">boost/test/unit_test.hpp</text>
</g>
<!-- Node1&#45;&gt;Node13 -->
<g id="edge14" class="edge"><title>Node1&#45;&gt;Node13</title>
<path fill="none" stroke="midnightblue" d="M458.428,-168.475C498.974,-157.986 553.667,-143.837 591.219,-134.122"/>
<polygon fill="midnightblue" stroke="midnightblue" points="592.526,-137.399 601.331,-131.506 590.773,-130.622 592.526,-137.399"/>
</g>
<!-- Node3 -->
<g id="node3" class="node"><title>Node3</title>
<polygon fill="none" stroke="#bfbfbf" points="22.7123,-0.5 22.7123,-19.5 57.7123,-19.5 57.7123,-0.5 22.7123,-0.5"/>
<text text-anchor="middle" x="40.2123" y="-7.5" font-family="Helvetica,sans-Serif" font-size="10.00">map</text>
</g>
<!-- Node2&#45;&gt;Node3 -->
<g id="edge2" class="edge"><title>Node2&#45;&gt;Node3</title>
<path fill="none" stroke="midnightblue" d="M76.6622,-116.265C49.3963,-110.479 21.1159,-98.8524 4.2123,-76 -7.50321,-60.1615 7.57094,-40.0879 21.6409,-26.4688"/>
<polygon fill="midnightblue" stroke="midnightblue" points="24.1209,-28.9447 29.1778,-19.6345 19.4188,-23.7591 24.1209,-28.9447"/>
</g>
<!-- Node4 -->
<g id="node4" class="node"><title>Node4</title>
<polygon fill="none" stroke="#bfbfbf" points="13.7123,-56.5 13.7123,-75.5 72.7123,-75.5 72.7123,-56.5 13.7123,-56.5"/>
<text text-anchor="middle" x="43.2123" y="-63.5" font-family="Helvetica,sans-Serif" font-size="10.00">TObject.h</text>
</g>
<!-- Node2&#45;&gt;Node4 -->
<g id="edge3" class="edge"><title>Node2&#45;&gt;Node4</title>
<path fill="none" stroke="midnightblue" d="M133.86,-112.324C116.54,-103.664 89.697,-90.2424 69.7104,-80.249"/>
<polygon fill="midnightblue" stroke="midnightblue" points="71.0309,-76.9962 60.5213,-75.6545 67.9003,-83.2572 71.0309,-76.9962"/>
</g>
<!-- Node5 -->
<g id="node5" class="node"><title>Node5</title>
<polygon fill="none" stroke="#bfbfbf" points="230.212,-56.5 230.212,-75.5 346.212,-75.5 346.212,-56.5 230.212,-56.5"/>
<text text-anchor="middle" x="288.212" y="-63.5" font-family="Helvetica,sans-Serif" font-size="10.00">Common/Exceptions.h</text>
</g>
<!-- Node2&#45;&gt;Node5 -->
<g id="edge4" class="edge"><title>Node2&#45;&gt;Node5</title>
<path fill="none" stroke="midnightblue" d="M172.92,-112.444C195.567,-103.517 231.284,-89.4387 256.964,-79.3168"/>
<polygon fill="midnightblue" stroke="midnightblue" points="258.586,-82.4397 266.606,-75.5164 256.019,-75.9273 258.586,-82.4397"/>
</g>
<!-- Node6 -->
<g id="node6" class="node"><title>Node6</title>
<g id="a_node6"><a xlink:href="Quality_8h.html" target="_top" xlink:title="QualityControl/Quality.h">
<polygon fill="none" stroke="black" points="90.7123,-56.5 90.7123,-75.5 211.712,-75.5 211.712,-56.5 90.7123,-56.5"/>
<text text-anchor="middle" x="151.212" y="-63.5" font-family="Helvetica,sans-Serif" font-size="10.00">QualityControl/Quality.h</text>
</a>
</g>
</g>
<!-- Node2&#45;&gt;Node6 -->
<g id="edge5" class="edge"><title>Node2&#45;&gt;Node6</title>
<path fill="none" stroke="midnightblue" d="M151.212,-112.083C151.212,-105.006 151.212,-94.8611 151.212,-85.9865"/>
<polygon fill="midnightblue" stroke="midnightblue" points="154.712,-85.751 151.212,-75.7511 147.712,-85.7511 154.712,-85.751"/>
</g>
<!-- Node6&#45;&gt;Node3 -->
<g id="edge8" class="edge"><title>Node6&#45;&gt;Node3</title>
<path fill="none" stroke="midnightblue" d="M133.378,-56.324C115.496,-47.6247 87.7372,-34.1202 67.1667,-24.113"/>
<polygon fill="midnightblue" stroke="midnightblue" points="68.5256,-20.8819 58.0021,-19.6545 65.4633,-27.1765 68.5256,-20.8819"/>
</g>
<!-- Node7 -->
<g id="node7" class="node"><title>Node7</title>
<polygon fill="none" stroke="#bfbfbf" points="156.212,-0.5 156.212,-19.5 212.212,-19.5 212.212,-0.5 156.212,-0.5"/>
<text text-anchor="middle" x="184.212" y="-7.5" font-family="Helvetica,sans-Serif" font-size="10.00">Rtypes.h</text>
</g>
<!-- Node6&#45;&gt;Node7 -->
<g id="edge6" class="edge"><title>Node6&#45;&gt;Node7</title>
<path fill="none" stroke="midnightblue" d="M156.662,-56.083C161.227,-48.6127 167.881,-37.7244 173.506,-28.5199"/>
<polygon fill="midnightblue" stroke="midnightblue" points="176.636,-30.109 178.864,-19.7511 170.663,-26.4588 176.636,-30.109"/>
</g>
<!-- Node8 -->
<g id="node8" class="node"><title>Node8</title>
<polygon fill="none" stroke="#bfbfbf" points="96.7123,-0.5 96.7123,-19.5 137.712,-19.5 137.712,-0.5 96.7123,-0.5"/>
<text text-anchor="middle" x="117.212" y="-7.5" font-family="Helvetica,sans-Serif" font-size="10.00">string</text>
</g>
<!-- Node6&#45;&gt;Node8 -->
<g id="edge7" class="edge"><title>Node6&#45;&gt;Node8</title>
<path fill="none" stroke="midnightblue" d="M145.598,-56.083C140.845,-48.5341 133.894,-37.4948 128.061,-28.2298"/>
<polygon fill="midnightblue" stroke="midnightblue" points="131.012,-26.3486 122.722,-19.7511 125.089,-30.0783 131.012,-26.3486"/>
</g>
<!-- Node10 -->
<g id="node10" class="node"><title>Node10</title>
<polygon fill="none" stroke="#bfbfbf" points="436.212,-56.5 436.212,-75.5 566.212,-75.5 566.212,-56.5 436.212,-56.5"/>
<text text-anchor="middle" x="501.212" y="-63.5" font-family="Helvetica,sans-Serif" font-size="10.00">InfoLogger/InfoLogger.hxx</text>
</g>
<!-- Node9&#45;&gt;Node10 -->
<g id="edge10" class="edge"><title>Node9&#45;&gt;Node10</title>
<path fill="none" stroke="midnightblue" d="M485.35,-112.083C487.895,-104.849 491.568,-94.4087 494.739,-85.3968"/>
<polygon fill="midnightblue" stroke="midnightblue" points="498.116,-86.3459 498.133,-75.7511 491.512,-84.0225 498.116,-86.3459"/>
</g>
<!-- Node11&#45;&gt;Node5 -->
<g id="edge13" class="edge"><title>Node11&#45;&gt;Node5</title>
<path fill="none" stroke="midnightblue" d="M319.937,-112.083C314.57,-104.455 306.695,-93.2645 300.134,-83.9408"/>
<polygon fill="midnightblue" stroke="midnightblue" points="302.988,-81.9149 294.37,-75.7511 297.263,-85.9434 302.988,-81.9149"/>
</g>
<!-- Node12 -->
<g id="node12" class="node"><title>Node12</title>
<polygon fill="none" stroke="#bfbfbf" points="364.212,-56.5 364.212,-75.5 418.212,-75.5 418.212,-56.5 364.212,-56.5"/>
<text text-anchor="middle" x="391.212" y="-63.5" font-family="Helvetica,sans-Serif" font-size="10.00">iostream</text>
</g>
<!-- Node11&#45;&gt;Node12 -->
<g id="edge12" class="edge"><title>Node11&#45;&gt;Node12</title>
<path fill="none" stroke="midnightblue" d="M336.656,-112.324C346.359,-104.263 361.028,-92.0765 372.712,-82.3695"/>
<polygon fill="midnightblue" stroke="midnightblue" points="375.124,-84.9163 380.579,-75.8339 370.65,-79.532 375.124,-84.9163"/>
</g>
</g>
</svg>
