<?xml version="1.0" encoding="UTF-8" standalone="no"?>
<!DOCTYPE svg PUBLIC "-//W3C//DTD SVG 1.1//EN"
 "http://www.w3.org/Graphics/SVG/1.1/DTD/svg11.dtd">
<!-- Generated by graphviz version 2.38.0 (20140413.2041)
 -->
<!-- Title: Framework/test/testCheckWorkflow.cxx Pages: 1 -->
<!--zoomable 352 -->
<svg id="main" version="1.1" xmlns="http://www.w3.org/2000/svg" xmlns:xlink="http://www.w3.org/1999/xlink" xml:space="preserve" onload="init(evt)">
<style type="text/css"><![CDATA[
.edge:hover path { stroke: red; }
.edge:hover polygon { stroke: red; fill: red; }
]]></style>
<script type="text/javascript"><![CDATA[
var edges = document.getElementsByTagName('g');
if (edges && edges.length) {
  for (var i=0;i<edges.length;i++) {
    if (edges[i].id.substr(0,4)=='edge') {
      edges[i].setAttribute('class','edge');
    }
  }
}
]]></script>
        <defs>
                <circle id="rim" cx="0" cy="0" r="7"/>
                <circle id="rim2" cx="0" cy="0" r="3.5"/>
                <g id="zoomPlus">
                        <use xlink:href="#rim" fill="#404040">
                                <set attributeName="fill" to="#808080" begin="zoomplus.mouseover" end="zoomplus.mouseout"/>
                        </use>
                        <path d="M-4,0h8M0,-4v8" fill="none" stroke="white" stroke-width="1.5" pointer-events="none"/>
                </g>
                <g id="zoomMin">
                        <use xlink:href="#rim" fill="#404040">
                                <set attributeName="fill" to="#808080" begin="zoomminus.mouseover" end="zoomminus.mouseout"/>
                        </use>
                        <path d="M-4,0h8" fill="none" stroke="white" stroke-width="1.5" pointer-events="none"/>
                </g>
                <g id="dirArrow">
                        <path fill="none" stroke="white" stroke-width="1.5" d="M0,-3.0v7 M-2.5,-0.5L0,-3.0L2.5,-0.5"/>
                </g>
               <g id="resetDef">
                       <use xlink:href="#rim2" fill="#404040">
                               <set attributeName="fill" to="#808080" begin="reset.mouseover" end="reset.mouseout"/>
                       </use>
               </g>
        </defs>

<script type="text/javascript">
var viewWidth = 2288;
var viewHeight = 352;
var sectionId = 'dynsection-0';
</script>
<script xlink:href="svgpan.js"/>
<svg id="graph" class="graph">
<g id="viewport">
<title>Framework/test/testCheckWorkflow.cxx</title>
<!-- Node1 -->
<g id="node1" class="node"><title>Node1</title>
<polygon fill="#bfbfbf" stroke="black" points="923.5,-313.5 923.5,-343.5 1056.5,-343.5 1056.5,-313.5 923.5,-313.5"/>
<text text-anchor="start" x="931.5" y="-331.5" font-family="Helvetica,sans-Serif" font-size="10.00">Framework/test/testCheck</text>
<text text-anchor="middle" x="990" y="-320.5" font-family="Helvetica,sans-Serif" font-size="10.00">Workflow.cxx</text>
</g>
<!-- Node2 -->
<g id="node2" class="node"><title>Node2</title>
<polygon fill="none" stroke="#bfbfbf" points="0,-252 0,-271 138,-271 138,-252 0,-252"/>
<text text-anchor="middle" x="69" y="-259" font-family="Helvetica,sans-Serif" font-size="10.00">Framework/DataSampling.h</text>
</g>
<!-- Node1&#45;&gt;Node2 -->
<g id="edge1" class="edge"><title>Node1&#45;&gt;Node2</title>
<path fill="none" stroke="midnightblue" d="M923.354,-326.312C780.542,-323.152 434.604,-312.209 147,-277 138.159,-275.918 128.808,-274.457 119.769,-272.878"/>
<polygon fill="midnightblue" stroke="midnightblue" points="120.203,-269.4 109.739,-271.059 118.954,-276.288 120.203,-269.4"/>
</g>
<!-- Node3 -->
<g id="node3" class="node"><title>Node3</title>
<polygon fill="none" stroke="#bfbfbf" points="156.5,-246.5 156.5,-276.5 301.5,-276.5 301.5,-246.5 156.5,-246.5"/>
<text text-anchor="start" x="164.5" y="-264.5" font-family="Helvetica,sans-Serif" font-size="10.00">Framework/CompletionPolicy</text>
<text text-anchor="middle" x="229" y="-253.5" font-family="Helvetica,sans-Serif" font-size="10.00">Helpers.h</text>
</g>
<!-- Node1&#45;&gt;Node3 -->
<g id="edge2" class="edge"><title>Node1&#45;&gt;Node3</title>
<path fill="none" stroke="midnightblue" d="M923.277,-324.771C803.117,-319.368 542.227,-305.409 312.064,-277.044"/>
<polygon fill="midnightblue" stroke="midnightblue" points="312.175,-273.531 301.82,-275.769 311.311,-280.477 312.175,-273.531"/>
</g>
<!-- Node4 -->
<g id="node4" class="node"><title>Node4</title>
<polygon fill="none" stroke="#bfbfbf" points="320,-252 320,-271 450,-271 450,-252 320,-252"/>
<text text-anchor="middle" x="385" y="-259" font-family="Helvetica,sans-Serif" font-size="10.00">Framework/DeviceSpec.h</text>
</g>
<!-- Node1&#45;&gt;Node4 -->
<g id="edge3" class="edge"><title>Node1&#45;&gt;Node4</title>
<path fill="none" stroke="midnightblue" d="M923.358,-322.944C823.304,-315.688 628.455,-299.944 464,-277 455.563,-275.823 446.653,-274.382 437.977,-272.87"/>
<polygon fill="midnightblue" stroke="midnightblue" points="438.403,-269.39 427.942,-271.074 437.169,-276.281 438.403,-269.39"/>
</g>
<!-- Node5 -->
<g id="node5" class="node"><title>Node5</title>
<g id="a_node5"><a xlink:href="InfrastructureGenerator_8h.html" target="_top" xlink:title="QualityControl/Infrastructure\lGenerator.h">
<polygon fill="none" stroke="black" points="461,-179.5 461,-209.5 601,-209.5 601,-179.5 461,-179.5"/>
<text text-anchor="start" x="469" y="-197.5" font-family="Helvetica,sans-Serif" font-size="10.00">QualityControl/Infrastructure</text>
<text text-anchor="middle" x="531" y="-186.5" font-family="Helvetica,sans-Serif" font-size="10.00">Generator.h</text>
</a>
</g>
</g>
<!-- Node1&#45;&gt;Node5 -->
<g id="edge4" class="edge"><title>Node1&#45;&gt;Node5</title>
<path fill="none" stroke="midnightblue" d="M923.373,-323.54C830.609,-317.18 667.962,-302.719 615,-277 586.945,-263.376 562.334,-236.79 547.124,-217.684"/>
<polygon fill="midnightblue" stroke="midnightblue" points="549.696,-215.288 540.818,-209.505 544.152,-219.562 549.696,-215.288"/>
</g>
<!-- Node6 -->
<g id="node6" class="node"><title>Node6</title>
<polygon fill="none" stroke="#bfbfbf" points="717,-123.5 717,-142.5 761,-142.5 761,-123.5 717,-123.5"/>
<text text-anchor="middle" x="739" y="-130.5" font-family="Helvetica,sans-Serif" font-size="10.00">vector</text>
</g>
<!-- Node1&#45;&gt;Node6 -->
<g id="edge75" class="edge"><title>Node1&#45;&gt;Node6</title>
<path fill="none" stroke="midnightblue" d="M923.492,-323.735C849.275,-315.559 732.363,-289.919 677,-210 669.154,-198.674 670.742,-191.275 677,-179 684,-165.27 697.366,-154.75 709.9,-147.346"/>
<polygon fill="midnightblue" stroke="midnightblue" points="711.674,-150.366 718.777,-142.505 708.322,-144.22 711.674,-150.366"/>
</g>
<!-- Node10 -->
<g id="node10" class="node"><title>Node10</title>
<polygon fill="none" stroke="#bfbfbf" points="1483.5,-252 1483.5,-271 1602.5,-271 1602.5,-252 1483.5,-252"/>
<text text-anchor="middle" x="1543" y="-259" font-family="Helvetica,sans-Serif" font-size="10.00">getTestDataDirectory.h</text>
</g>
<!-- Node1&#45;&gt;Node10 -->
<g id="edge9" class="edge"><title>Node1&#45;&gt;Node10</title>
<path fill="none" stroke="midnightblue" d="M1056.88,-322.329C1149.68,-314.726 1322.64,-299.011 1469,-277 1476.74,-275.836 1484.9,-274.426 1492.86,-272.947"/>
<polygon fill="midnightblue" stroke="midnightblue" points="1493.62,-276.364 1502.79,-271.051 1492.31,-269.489 1493.62,-276.364"/>
</g>
<!-- Node11 -->
<g id="node11" class="node"><title>Node11</title>
<g id="a_node11"><a xlink:href="CheckRunner_8h.html" target="_top" xlink:title="QualityControl/CheckRunner.h">
<polygon fill="none" stroke="black" points="1277,-252 1277,-271 1427,-271 1427,-252 1277,-252"/>
<text text-anchor="middle" x="1352" y="-259" font-family="Helvetica,sans-Serif" font-size="10.00">QualityControl/CheckRunner.h</text>
</a>
</g>
</g>
<!-- Node1&#45;&gt;Node11 -->
<g id="edge10" class="edge"><title>Node1&#45;&gt;Node11</title>
<path fill="none" stroke="midnightblue" d="M1056.82,-315.502C1125.08,-303.246 1229.96,-284.414 1294.59,-272.809"/>
<polygon fill="midnightblue" stroke="midnightblue" points="1295.38,-276.222 1304.61,-271.01 1294.14,-269.333 1295.38,-276.222"/>
</g>
<!-- Node29 -->
<g id="node29" class="node"><title>Node29</title>
<g id="a_node29"><a xlink:href="QualityObject_8h_source.html" target="_top" xlink:title="QualityControl/QualityObject.h">
<polygon fill="none" stroke="black" points="1835.5,-123.5 1835.5,-142.5 1984.5,-142.5 1984.5,-123.5 1835.5,-123.5"/>
<text text-anchor="middle" x="1910" y="-130.5" font-family="Helvetica,sans-Serif" font-size="10.00">QualityControl/QualityObject.h</text>
</a>
</g>
</g>
<!-- Node1&#45;&gt;Node29 -->
<g id="edge67" class="edge"><title>Node1&#45;&gt;Node29</title>
<path fill="none" stroke="midnightblue" d="M1056.82,-324.546C1164.03,-319.038 1369.21,-305.123 1436,-277 1456.09,-268.542 1453.71,-253.954 1474,-246 1533.29,-222.76 2002.41,-256.422 2046,-210 2075.53,-178.549 2015.46,-156.785 1965.98,-144.847"/>
<polygon fill="midnightblue" stroke="midnightblue" points="1966.47,-141.368 1955.94,-142.52 1964.89,-148.187 1966.47,-141.368"/>
</g>
<!-- Node35 -->
<g id="node35" class="node"><title>Node35</title>
<g id="a_node35"><a xlink:href="runnerUtils_8h.html" target="_top" xlink:title="QualityControl/runnerUtils.h">
<polygon fill="none" stroke="black" points="365.5,-67.5 365.5,-86.5 502.5,-86.5 502.5,-67.5 365.5,-67.5"/>
<text text-anchor="middle" x="434" y="-74.5" font-family="Helvetica,sans-Serif" font-size="10.00">QualityControl/runnerUtils.h</text>
</a>
</g>
</g>
<!-- Node1&#45;&gt;Node35 -->
<g id="edge68" class="edge"><title>Node1&#45;&gt;Node35</title>
<path fill="none" stroke="midnightblue" d="M923.139,-327.523C838.766,-325.745 690.16,-316.558 570,-277 512.716,-258.142 485.802,-259.946 452,-210 428.634,-175.474 429.248,-124.127 431.658,-96.7636"/>
<polygon fill="midnightblue" stroke="midnightblue" points="435.159,-96.9376 432.736,-86.6236 428.198,-96.1976 435.159,-96.9376"/>
</g>
<!-- Node37 -->
<g id="node37" class="node"><title>Node37</title>
<polygon fill="none" stroke="#bfbfbf" points="1621,-252 1621,-271 1781,-271 1781,-252 1621,-252"/>
<text text-anchor="middle" x="1701" y="-259" font-family="Helvetica,sans-Serif" font-size="10.00">Framework/runDataProcessing.h</text>
</g>
<!-- Node1&#45;&gt;Node37 -->
<g id="edge72" class="edge"><title>Node1&#45;&gt;Node37</title>
<path fill="none" stroke="midnightblue" d="M1056.8,-323.795C1170.76,-317.089 1409.92,-301.336 1611,-277 1621.24,-275.761 1632.1,-274.213 1642.6,-272.593"/>
<polygon fill="midnightblue" stroke="midnightblue" points="1643.19,-276.043 1652.52,-271.027 1642.1,-269.129 1643.19,-276.043"/>
</g>
<!-- Node38 -->
<g id="node38" class="node"><title>Node38</title>
<polygon fill="none" stroke="#bfbfbf" points="1799.5,-252 1799.5,-271 1940.5,-271 1940.5,-252 1799.5,-252"/>
<text text-anchor="middle" x="1870" y="-259" font-family="Helvetica,sans-Serif" font-size="10.00">Framework/ControlService.h</text>
</g>
<!-- Node1&#45;&gt;Node38 -->
<g id="edge73" class="edge"><title>Node1&#45;&gt;Node38</title>
<path fill="none" stroke="midnightblue" d="M1056.62,-325.912C1194.13,-322.057 1519.24,-309.971 1790,-277 1799.16,-275.885 1808.85,-274.394 1818.22,-272.792"/>
<polygon fill="midnightblue" stroke="midnightblue" points="1818.97,-276.213 1828.2,-271.022 1817.75,-269.321 1818.97,-276.213"/>
</g>
<!-- Node39 -->
<g id="node39" class="node"><title>Node39</title>
<polygon fill="none" stroke="#bfbfbf" points="1959,-252 1959,-271 1989,-271 1989,-252 1959,-252"/>
<text text-anchor="middle" x="1974" y="-259" font-family="Helvetica,sans-Serif" font-size="10.00">set</text>
</g>
<!-- Node1&#45;&gt;Node39 -->
<g id="edge74" class="edge"><title>Node1&#45;&gt;Node39</title>
<path fill="none" stroke="midnightblue" d="M1056.63,-328.185C1245.73,-329.47 1782.78,-328.364 1950,-277 1951.07,-276.671 1952.14,-276.285 1953.21,-275.853"/>
<polygon fill="midnightblue" stroke="midnightblue" points="1955.08,-278.824 1962.34,-271.109 1951.85,-272.611 1955.08,-278.824"/>
</g>
<!-- Node5&#45;&gt;Node6 -->
<g id="edge5" class="edge"><title>Node5&#45;&gt;Node6</title>
<path fill="none" stroke="midnightblue" d="M580.609,-179.412C613.884,-169.948 658.947,-157.102 707.28,-143.198"/>
<polygon fill="midnightblue" stroke="midnightblue" points="708.346,-146.534 716.988,-140.404 706.41,-139.807 708.346,-146.534"/>
</g>
<!-- Node7 -->
<g id="node7" class="node"><title>Node7</title>
<polygon fill="none" stroke="#bfbfbf" points="1131.5,-6 1131.5,-25 1172.5,-25 1172.5,-6 1131.5,-6"/>
<text text-anchor="middle" x="1152" y="-13" font-family="Helvetica,sans-Serif" font-size="10.00">string</text>
</g>
<!-- Node5&#45;&gt;Node7 -->
<g id="edge6" class="edge"><title>Node5&#45;&gt;Node7</title>
<path fill="none" stroke="midnightblue" d="M530.624,-179.333C531.018,-163.248 534.292,-137.381 550,-123 635.137,-45.0559 1010.18,-22.6796 1121.04,-17.7128"/>
<polygon fill="midnightblue" stroke="midnightblue" points="1121.37,-21.2016 1131.21,-17.2731 1121.07,-14.2081 1121.37,-21.2016"/>
</g>
<!-- Node8 -->
<g id="node8" class="node"><title>Node8</title>
<polygon fill="none" stroke="#bfbfbf" points="559,-123.5 559,-142.5 699,-142.5 699,-123.5 559,-123.5"/>
<text text-anchor="middle" x="629" y="-130.5" font-family="Helvetica,sans-Serif" font-size="10.00">Framework/WorkflowSpec.h</text>
</g>
<!-- Node5&#45;&gt;Node8 -->
<g id="edge7" class="edge"><title>Node5&#45;&gt;Node8</title>
<path fill="none" stroke="midnightblue" d="M554.225,-179.399C569.786,-169.951 590.197,-157.559 605.762,-148.109"/>
<polygon fill="midnightblue" stroke="midnightblue" points="608.009,-150.839 614.74,-142.658 604.376,-144.856 608.009,-150.839"/>
</g>
<!-- Node9 -->
<g id="node9" class="node"><title>Node9</title>
<polygon fill="none" stroke="#bfbfbf" points="860,-123.5 860,-142.5 1024,-142.5 1024,-123.5 860,-123.5"/>
<text text-anchor="middle" x="942" y="-130.5" font-family="Helvetica,sans-Serif" font-size="10.00">Framework/DataProcessorSpec.h</text>
</g>
<!-- Node5&#45;&gt;Node9 -->
<g id="edge8" class="edge"><title>Node5&#45;&gt;Node9</title>
<path fill="none" stroke="midnightblue" d="M601.186,-183.339C677.06,-172.355 797.235,-154.957 872.744,-144.026"/>
<polygon fill="midnightblue" stroke="midnightblue" points="873.697,-147.425 883.093,-142.528 872.694,-140.497 873.697,-147.425"/>
</g>
<!-- Node11&#45;&gt;Node6 -->
<g id="edge15" class="edge"><title>Node11&#45;&gt;Node6</title>
<path fill="none" stroke="midnightblue" d="M1276.93,-260.417C1111.18,-259.45 725.491,-252.598 686,-210 667.85,-190.421 695.51,-164.285 717.211,-148.323"/>
<polygon fill="midnightblue" stroke="midnightblue" points="719.256,-151.164 725.416,-142.544 715.225,-145.441 719.256,-151.164"/>
</g>
<!-- Node11&#45;&gt;Node7 -->
<g id="edge13" class="edge"><title>Node11&#45;&gt;Node7</title>
<path fill="none" stroke="midnightblue" d="M1318.98,-251.946C1290.28,-243.684 1248.2,-229.546 1215,-210 1196.8,-199.289 1196.89,-190.217 1179,-179 1144.93,-157.639 1118.06,-176.617 1096,-143 1088.44,-131.484 1087.21,-96.3138 1101,-67 1107.68,-52.8037 1120.12,-40.3562 1131.05,-31.3711"/>
<polygon fill="midnightblue" stroke="midnightblue" points="1133.24,-34.1032 1138.98,-25.2035 1128.94,-28.5758 1133.24,-34.1032"/>
</g>
<!-- Node11&#45;&gt;Node9 -->
<g id="edge22" class="edge"><title>Node11&#45;&gt;Node9</title>
<path fill="none" stroke="midnightblue" d="M1311.66,-251.942C1277.4,-243.797 1227.49,-229.829 1187,-210 1165.52,-199.479 1164.87,-188.689 1143,-179 1104.43,-161.915 1058.73,-151.021 1020.66,-144.239"/>
<polygon fill="midnightblue" stroke="midnightblue" points="1021.1,-140.763 1010.65,-142.518 1019.91,-147.662 1021.1,-140.763"/>
</g>
<!-- Node12 -->
<g id="node12" class="node"><title>Node12</title>
<polygon fill="none" stroke="#bfbfbf" points="1631,-185 1631,-204 1677,-204 1677,-185 1631,-185"/>
<text text-anchor="middle" x="1654" y="-192" font-family="Helvetica,sans-Serif" font-size="10.00">chrono</text>
</g>
<!-- Node11&#45;&gt;Node12 -->
<g id="edge11" class="edge"><title>Node11&#45;&gt;Node12</title>
<path fill="none" stroke="midnightblue" d="M1400.67,-251.985C1472.4,-239.341 1600.29,-216.402 1621,-210 1622.93,-209.404 1624.89,-208.728 1626.86,-208.002"/>
<polygon fill="midnightblue" stroke="midnightblue" points="1628.53,-211.1 1636.47,-204.088 1625.89,-204.617 1628.53,-211.1"/>
</g>
<!-- Node13 -->
<g id="node13" class="node"><title>Node13</title>
<polygon fill="none" stroke="#bfbfbf" points="1118,-123.5 1118,-142.5 1170,-142.5 1170,-123.5 1118,-123.5"/>
<text text-anchor="middle" x="1144" y="-130.5" font-family="Helvetica,sans-Serif" font-size="10.00">memory</text>
</g>
<!-- Node11&#45;&gt;Node13 -->
<g id="edge12" class="edge"><title>Node11&#45;&gt;Node13</title>
<path fill="none" stroke="midnightblue" d="M1334.29,-251.862C1315.09,-242.303 1283.76,-226.108 1258,-210 1238.02,-197.509 1234.51,-192.201 1215,-179 1199.04,-168.2 1180.65,-156.567 1166.58,-147.834"/>
<polygon fill="midnightblue" stroke="midnightblue" points="1168.38,-144.832 1158.04,-142.553 1164.7,-150.787 1168.38,-144.832"/>
</g>
<!-- Node14 -->
<g id="node14" class="node"><title>Node14</title>
<polygon fill="none" stroke="#bfbfbf" points="1929.5,-6 1929.5,-25 1964.5,-25 1964.5,-6 1929.5,-6"/>
<text text-anchor="middle" x="1947" y="-13" font-family="Helvetica,sans-Serif" font-size="10.00">map</text>
</g>
<!-- Node11&#45;&gt;Node14 -->
<g id="edge14" class="edge"><title>Node11&#45;&gt;Node14</title>
<path fill="none" stroke="midnightblue" d="M1418.1,-251.967C1436.2,-249.815 1455.84,-247.65 1474,-246 1537.42,-240.24 2002.41,-256.422 2046,-210 2075.03,-179.087 2061.52,-146.167 2007,-67 1997.12,-52.6534 1982.13,-40.0331 1969.6,-30.9971"/>
<polygon fill="midnightblue" stroke="midnightblue" points="1971.24,-27.8775 1961.03,-25.0775 1967.27,-33.6385 1971.24,-27.8775"/>
</g>
<!-- Node15 -->
<g id="node15" class="node"><title>Node15</title>
<polygon fill="none" stroke="#bfbfbf" points="1733,-185 1733,-204 1811,-204 1811,-185 1733,-185"/>
<text text-anchor="middle" x="1772" y="-192" font-family="Helvetica,sans-Serif" font-size="10.00">unordered_set</text>
</g>
<!-- Node11&#45;&gt;Node15 -->
<g id="edge16" class="edge"><title>Node11&#45;&gt;Node15</title>
<path fill="none" stroke="midnightblue" d="M1402.79,-251.932C1415.27,-249.907 1428.61,-247.811 1441,-246 1564.28,-227.981 1596.84,-234.497 1719,-210 1723.78,-209.042 1728.76,-207.89 1733.67,-206.658"/>
<polygon fill="midnightblue" stroke="midnightblue" points="1734.78,-209.983 1743.57,-204.056 1733.01,-203.213 1734.78,-209.983"/>
</g>
<!-- Node16 -->
<g id="node16" class="node"><title>Node16</title>
<polygon fill="none" stroke="#bfbfbf" points="1829,-185 1829,-204 1921,-204 1921,-185 1829,-185"/>
<text text-anchor="middle" x="1875" y="-192" font-family="Helvetica,sans-Serif" font-size="10.00">Common/Timer.h</text>
</g>
<!-- Node11&#45;&gt;Node16 -->
<g id="edge17" class="edge"><title>Node11&#45;&gt;Node16</title>
<path fill="none" stroke="midnightblue" d="M1400.88,-251.934C1413.89,-249.819 1427.96,-247.68 1441,-246 1608.82,-224.384 1653.42,-239.666 1820,-210 1825.21,-209.072 1830.66,-207.896 1836,-206.617"/>
<polygon fill="midnightblue" stroke="midnightblue" points="1837.25,-209.913 1846.08,-204.069 1835.53,-203.127 1837.25,-209.913"/>
</g>
<!-- Node17 -->
<g id="node17" class="node"><title>Node17</title>
<polygon fill="none" stroke="#bfbfbf" points="1939,-185 1939,-204 2037,-204 2037,-185 1939,-185"/>
<text text-anchor="middle" x="1988" y="-192" font-family="Helvetica,sans-Serif" font-size="10.00">Framework/Task.h</text>
</g>
<!-- Node11&#45;&gt;Node17 -->
<g id="edge18" class="edge"><title>Node11&#45;&gt;Node17</title>
<path fill="none" stroke="midnightblue" d="M1399.47,-251.973C1412.86,-249.783 1427.47,-247.597 1441,-246 1657.42,-220.454 1714.84,-244.554 1930,-210 1935.91,-209.051 1942.1,-207.794 1948.14,-206.416"/>
<polygon fill="midnightblue" stroke="midnightblue" points="1949.2,-209.762 1958.1,-204.015 1947.56,-202.956 1949.2,-209.762"/>
</g>
<!-- Node18 -->
<g id="node18" class="node"><title>Node18</title>
<polygon fill="none" stroke="#bfbfbf" points="695.5,-185 695.5,-204 812.5,-204 812.5,-185 695.5,-185"/>
<text text-anchor="middle" x="754" y="-192" font-family="Helvetica,sans-Serif" font-size="10.00">Headers/DataHeader.h</text>
</g>
<!-- Node11&#45;&gt;Node18 -->
<g id="edge19" class="edge"><title>Node11&#45;&gt;Node18</title>
<path fill="none" stroke="midnightblue" d="M1276.91,-256.167C1173.72,-249.574 982.511,-235.067 821,-210 814.126,-208.933 806.897,-207.597 799.835,-206.171"/>
<polygon fill="midnightblue" stroke="midnightblue" points="800.174,-202.666 789.668,-204.038 798.736,-209.517 800.174,-202.666"/>
</g>
<!-- Node19 -->
<g id="node19" class="node"><title>Node19</title>
<polygon fill="none" stroke="#bfbfbf" points="830.5,-185 830.5,-204 981.5,-204 981.5,-185 830.5,-185"/>
<text text-anchor="middle" x="906" y="-192" font-family="Helvetica,sans-Serif" font-size="10.00">Monitoring/MonitoringFactory.h</text>
</g>
<!-- Node11&#45;&gt;Node19 -->
<g id="edge20" class="edge"><title>Node11&#45;&gt;Node19</title>
<path fill="none" stroke="midnightblue" d="M1286.18,-251.968C1213.56,-242.404 1093.29,-226.116 990,-210 981.592,-208.688 972.724,-207.234 964.026,-205.768"/>
<polygon fill="midnightblue" stroke="midnightblue" points="964.376,-202.277 953.931,-204.049 963.201,-209.178 964.376,-202.277"/>
</g>
<!-- Node20 -->
<g id="node20" class="node"><title>Node20</title>
<polygon fill="none" stroke="#bfbfbf" points="999.5,-179.5 999.5,-209.5 1134.5,-209.5 1134.5,-179.5 999.5,-179.5"/>
<text text-anchor="start" x="1007.5" y="-197.5" font-family="Helvetica,sans-Serif" font-size="10.00">Configuration/Configuration</text>
<text text-anchor="middle" x="1067" y="-186.5" font-family="Helvetica,sans-Serif" font-size="10.00">Interface.h</text>
</g>
<!-- Node11&#45;&gt;Node20 -->
<g id="edge21" class="edge"><title>Node11&#45;&gt;Node20</title>
<path fill="none" stroke="midnightblue" d="M1314.45,-251.936C1269.82,-241.757 1194.37,-224.548 1138.49,-211.804"/>
<polygon fill="midnightblue" stroke="midnightblue" points="1139.17,-208.37 1128.64,-209.559 1137.62,-215.195 1139.17,-208.37"/>
</g>
<!-- Node21 -->
<g id="node21" class="node"><title>Node21</title>
<g id="a_node21"><a xlink:href="CheckInterface_8h.html" target="_top" xlink:title="QualityControl/CheckInterface.h">
<polygon fill="none" stroke="black" points="1430.5,-123.5 1430.5,-142.5 1587.5,-142.5 1587.5,-123.5 1430.5,-123.5"/>
<text text-anchor="middle" x="1509" y="-130.5" font-family="Helvetica,sans-Serif" font-size="10.00">QualityControl/CheckInterface.h</text>
</a>
</g>
</g>
<!-- Node11&#45;&gt;Node21 -->
<g id="edge23" class="edge"><title>Node11&#45;&gt;Node21</title>
<path fill="none" stroke="midnightblue" d="M1373.2,-251.948C1393.24,-243.24 1423.49,-228.42 1446,-210 1466.84,-192.943 1485.84,-168.186 1497.4,-151.612"/>
<polygon fill="midnightblue" stroke="midnightblue" points="1500.58,-153.158 1503.3,-142.919 1494.79,-149.224 1500.58,-153.158"/>
</g>
<!-- Node24 -->
<g id="node24" class="node"><title>Node24</title>
<g id="a_node24"><a xlink:href="MonitorObject_8h.html" target="_top" xlink:title="QualityControl/MonitorObject.h">
<polygon fill="none" stroke="black" points="1676.5,-67.5 1676.5,-86.5 1827.5,-86.5 1827.5,-67.5 1676.5,-67.5"/>
<text text-anchor="middle" x="1752" y="-74.5" font-family="Helvetica,sans-Serif" font-size="10.00">QualityControl/MonitorObject.h</text>
</a>
</g>
</g>
<!-- Node11&#45;&gt;Node24 -->
<g id="edge49" class="edge"><title>Node11&#45;&gt;Node24</title>
<path fill="none" stroke="midnightblue" d="M1403.75,-251.929C1415.96,-249.946 1428.93,-247.869 1441,-246 1549.76,-229.151 1585.31,-254.423 1686,-210 1686.17,-209.926 1767.92,-143.166 1768,-143 1775.14,-127.938 1769.26,-109.349 1762.7,-95.9133"/>
<polygon fill="midnightblue" stroke="midnightblue" points="1765.6,-93.9157 1757.76,-86.7874 1759.45,-97.2478 1765.6,-93.9157"/>
</g>
<!-- Node28 -->
<g id="node28" class="node"><title>Node28</title>
<g id="a_node28"><a xlink:href="DatabaseInterface_8h.html" target="_top" xlink:title="QualityControl/DatabaseInterface.h">
<polygon fill="none" stroke="black" points="1267,-185 1267,-204 1437,-204 1437,-185 1267,-185"/>
<text text-anchor="middle" x="1352" y="-192" font-family="Helvetica,sans-Serif" font-size="10.00">QualityControl/DatabaseInterface.h</text>
</a>
</g>
</g>
<!-- Node11&#45;&gt;Node28 -->
<g id="edge38" class="edge"><title>Node11&#45;&gt;Node28</title>
<path fill="none" stroke="midnightblue" d="M1352,-251.734C1352,-242.183 1352,-226.618 1352,-214.283"/>
<polygon fill="midnightblue" stroke="midnightblue" points="1355.5,-214.127 1352,-204.127 1348.5,-214.127 1355.5,-214.127"/>
</g>
<!-- Node30 -->
<g id="node30" class="node"><title>Node30</title>
<g id="a_node30"><a xlink:href="QcInfoLogger_8h.html" target="_top" xlink:title="QualityControl/QcInfoLogger.h">
<polygon fill="none" stroke="black" points="2130.5,-123.5 2130.5,-142.5 2279.5,-142.5 2279.5,-123.5 2130.5,-123.5"/>
<text text-anchor="middle" x="2205" y="-130.5" font-family="Helvetica,sans-Serif" font-size="10.00">QualityControl/QcInfoLogger.h</text>
</a>
</g>
</g>
<!-- Node11&#45;&gt;Node30 -->
<g id="edge50" class="edge"><title>Node11&#45;&gt;Node30</title>
<path fill="none" stroke="midnightblue" d="M1417.14,-251.997C1435.5,-249.806 1455.51,-247.614 1474,-246 1616.57,-233.549 1984.32,-263.634 2117,-210 2148.2,-197.387 2176.09,-168.969 2191.74,-150.682"/>
<polygon fill="midnightblue" stroke="midnightblue" points="2194.72,-152.567 2198.4,-142.631 2189.33,-148.103 2194.72,-152.567"/>
</g>
<!-- Node32 -->
<g id="node32" class="node"><title>Node32</title>
<g id="a_node32"><a xlink:href="Check_8h_source.html" target="_top" xlink:title="QualityControl/Check.h">
<polygon fill="none" stroke="black" points="1493.5,-185 1493.5,-204 1612.5,-204 1612.5,-185 1493.5,-185"/>
<text text-anchor="middle" x="1553" y="-192" font-family="Helvetica,sans-Serif" font-size="10.00">QualityControl/Check.h</text>
</a>
</g>
</g>
<!-- Node11&#45;&gt;Node32 -->
<g id="edge52" class="edge"><title>Node11&#45;&gt;Node32</title>
<path fill="none" stroke="midnightblue" d="M1378.69,-251.869C1414.23,-240.376 1477.21,-220.008 1516.95,-207.159"/>
<polygon fill="midnightblue" stroke="midnightblue" points="1518.08,-210.471 1526.52,-204.064 1515.93,-203.81 1518.08,-210.471"/>
</g>
<!-- Node21&#45;&gt;Node7 -->
<g id="edge24" class="edge"><title>Node21&#45;&gt;Node7</title>
<path fill="none" stroke="midnightblue" d="M1496.74,-123.459C1476.22,-109.555 1433.21,-82.0719 1393,-67 1320.21,-39.7147 1229.24,-25.7124 1182.63,-19.8894"/>
<polygon fill="midnightblue" stroke="midnightblue" points="1182.93,-16.3996 1172.58,-18.6751 1182.09,-23.349 1182.93,-16.3996"/>
</g>
<!-- Node21&#45;&gt;Node14 -->
<g id="edge25" class="edge"><title>Node21&#45;&gt;Node14</title>
<path fill="none" stroke="midnightblue" d="M1587.75,-125.13C1669.86,-117.269 1792.64,-103.351 1837,-87 1872.38,-73.9577 1908.2,-48.1225 1928.97,-31.6107"/>
<polygon fill="midnightblue" stroke="midnightblue" points="1931.34,-34.1901 1936.9,-25.1695 1926.93,-28.7559 1931.34,-34.1901"/>
</g>
<!-- Node22 -->
<g id="node22" class="node"><title>Node22</title>
<polygon fill="none" stroke="#bfbfbf" points="1301.5,-67.5 1301.5,-86.5 1384.5,-86.5 1384.5,-67.5 1301.5,-67.5"/>
<text text-anchor="middle" x="1343" y="-74.5" font-family="Helvetica,sans-Serif" font-size="10.00">unordered_map</text>
</g>
<!-- Node21&#45;&gt;Node22 -->
<g id="edge26" class="edge"><title>Node21&#45;&gt;Node22</title>
<path fill="none" stroke="midnightblue" d="M1482.7,-123.444C1454.65,-114.32 1410.06,-99.8133 1378.82,-89.6509"/>
<polygon fill="midnightblue" stroke="midnightblue" points="1379.77,-86.2816 1369.18,-86.5164 1377.61,-92.9383 1379.77,-86.2816"/>
</g>
<!-- Node23 -->
<g id="node23" class="node"><title>Node23</title>
<polygon fill="none" stroke="#bfbfbf" points="1570,-6 1570,-25 1626,-25 1626,-6 1570,-6"/>
<text text-anchor="middle" x="1598" y="-13" font-family="Helvetica,sans-Serif" font-size="10.00">Rtypes.h</text>
</g>
<!-- Node21&#45;&gt;Node23 -->
<g id="edge27" class="edge"><title>Node21&#45;&gt;Node23</title>
<path fill="none" stroke="midnightblue" d="M1509.75,-123.227C1511.26,-109.956 1515.65,-84.4757 1528,-67 1539.1,-51.2906 1556.67,-38.6387 1571.43,-29.9277"/>
<polygon fill="midnightblue" stroke="midnightblue" points="1573.16,-32.9672 1580.17,-25.021 1569.74,-26.8627 1573.16,-32.9672"/>
</g>
<!-- Node21&#45;&gt;Node24 -->
<g id="edge28" class="edge"><title>Node21&#45;&gt;Node24</title>
<path fill="none" stroke="midnightblue" d="M1547.5,-123.444C1589.81,-114.043 1657.82,-98.9291 1703.67,-88.7393"/>
<polygon fill="midnightblue" stroke="midnightblue" points="1704.67,-92.1025 1713.68,-86.5164 1703.15,-85.2692 1704.67,-92.1025"/>
</g>
<!-- Node27 -->
<g id="node27" class="node"><title>Node27</title>
<g id="a_node27"><a xlink:href="Quality_8h.html" target="_top" xlink:title="QualityControl/Quality.h">
<polygon fill="none" stroke="black" points="1537.5,-67.5 1537.5,-86.5 1658.5,-86.5 1658.5,-67.5 1537.5,-67.5"/>
<text text-anchor="middle" x="1598" y="-74.5" font-family="Helvetica,sans-Serif" font-size="10.00">QualityControl/Quality.h</text>
</a>
</g>
</g>
<!-- Node21&#45;&gt;Node27 -->
<g id="edge34" class="edge"><title>Node21&#45;&gt;Node27</title>
<path fill="none" stroke="midnightblue" d="M1523.3,-123.324C1537.18,-114.9 1558.49,-101.971 1574.8,-92.0741"/>
<polygon fill="midnightblue" stroke="midnightblue" points="1577,-94.8341 1583.74,-86.6545 1573.37,-88.8495 1577,-94.8341"/>
</g>
<!-- Node24&#45;&gt;Node7 -->
<g id="edge29" class="edge"><title>Node24&#45;&gt;Node7</title>
<path fill="none" stroke="midnightblue" d="M1676.46,-67.9709C1673.26,-67.6409 1670.1,-67.3161 1667,-67 1483.48,-48.2862 1263.02,-27.1025 1182.96,-19.4514"/>
<polygon fill="midnightblue" stroke="midnightblue" points="1182.9,-15.9299 1172.61,-18.4633 1182.23,-22.8982 1182.9,-15.9299"/>
</g>
<!-- Node24&#45;&gt;Node14 -->
<g id="edge30" class="edge"><title>Node24&#45;&gt;Node14</title>
<path fill="none" stroke="midnightblue" d="M1791.31,-67.433C1825.15,-59.5518 1875.01,-46.7203 1917,-31 1918.42,-30.4676 1919.87,-29.8919 1921.32,-29.2874"/>
<polygon fill="midnightblue" stroke="midnightblue" points="1923.06,-32.3405 1930.73,-25.0337 1920.18,-25.9613 1923.06,-32.3405"/>
</g>
<!-- Node24&#45;&gt;Node23 -->
<g id="edge31" class="edge"><title>Node24&#45;&gt;Node23</title>
<path fill="none" stroke="midnightblue" d="M1729.94,-67.4751C1703.63,-57.3129 1659.49,-40.2564 1629.58,-28.6996"/>
<polygon fill="midnightblue" stroke="midnightblue" points="1630.61,-25.3483 1620.02,-25.0091 1628.09,-31.8779 1630.61,-25.3483"/>
</g>
<!-- Node25 -->
<g id="node25" class="node"><title>Node25</title>
<polygon fill="none" stroke="#bfbfbf" points="1848.5,-6 1848.5,-25 1907.5,-25 1907.5,-6 1848.5,-6"/>
<text text-anchor="middle" x="1878" y="-13" font-family="Helvetica,sans-Serif" font-size="10.00">TObject.h</text>
</g>
<!-- Node24&#45;&gt;Node25 -->
<g id="edge32" class="edge"><title>Node24&#45;&gt;Node25</title>
<path fill="none" stroke="midnightblue" d="M1770.05,-67.4751C1791.2,-57.4897 1826.44,-40.8476 1850.88,-29.3075"/>
<polygon fill="midnightblue" stroke="midnightblue" points="1852.43,-32.4441 1859.98,-25.0091 1849.44,-26.1143 1852.43,-32.4441"/>
</g>
<!-- Node26 -->
<g id="node26" class="node"><title>Node26</title>
<polygon fill="none" stroke="#bfbfbf" points="1694,-6 1694,-25 1810,-25 1810,-6 1694,-6"/>
<text text-anchor="middle" x="1752" y="-13" font-family="Helvetica,sans-Serif" font-size="10.00">Common/Exceptions.h</text>
</g>
<!-- Node24&#45;&gt;Node26 -->
<g id="edge33" class="edge"><title>Node24&#45;&gt;Node26</title>
<path fill="none" stroke="midnightblue" d="M1752,-67.4751C1752,-59.0803 1752,-45.9806 1752,-35.1631"/>
<polygon fill="midnightblue" stroke="midnightblue" points="1755.5,-35.0091 1752,-25.0091 1748.5,-35.0091 1755.5,-35.0091"/>
</g>
<!-- Node27&#45;&gt;Node7 -->
<g id="edge36" class="edge"><title>Node27&#45;&gt;Node7</title>
<path fill="none" stroke="midnightblue" d="M1537.39,-67.9136C1440.91,-55.0426 1255.86,-30.3557 1182.78,-20.6061"/>
<polygon fill="midnightblue" stroke="midnightblue" points="1183.21,-17.1324 1172.83,-19.2792 1182.28,-24.071 1183.21,-17.1324"/>
</g>
<!-- Node27&#45;&gt;Node14 -->
<g id="edge37" class="edge"><title>Node27&#45;&gt;Node14</title>
<path fill="none" stroke="midnightblue" d="M1658.77,-67.9196C1747.87,-56.001 1904.79,-34.7118 1917,-31 1918.67,-30.4909 1920.37,-29.8997 1922.06,-29.2528"/>
<polygon fill="midnightblue" stroke="midnightblue" points="1923.73,-32.3421 1931.49,-25.1244 1920.93,-25.9301 1923.73,-32.3421"/>
</g>
<!-- Node27&#45;&gt;Node23 -->
<g id="edge35" class="edge"><title>Node27&#45;&gt;Node23</title>
<path fill="none" stroke="midnightblue" d="M1598,-67.4751C1598,-59.0803 1598,-45.9806 1598,-35.1631"/>
<polygon fill="midnightblue" stroke="midnightblue" points="1601.5,-35.0091 1598,-25.0091 1594.5,-35.0091 1601.5,-35.0091"/>
</g>
<!-- Node28&#45;&gt;Node6 -->
<g id="edge41" class="edge"><title>Node28&#45;&gt;Node6</title>
<path fill="none" stroke="midnightblue" d="M1266.76,-185.227C1128.95,-171.85 863.349,-146.07 771.326,-137.138"/>
<polygon fill="midnightblue" stroke="midnightblue" points="771.522,-133.64 761.23,-136.158 770.845,-140.608 771.522,-133.64"/>
</g>
<!-- Node28&#45;&gt;Node7 -->
<g id="edge39" class="edge"><title>Node28&#45;&gt;Node7</title>
<path fill="none" stroke="midnightblue" d="M1291.77,-184.996C1223.62,-174.762 1120.54,-157.185 1109,-143 1082.04,-109.86 1116.13,-58.9273 1137.38,-32.9577"/>
<polygon fill="midnightblue" stroke="midnightblue" points="1140.19,-35.0591 1143.99,-25.1694 1134.85,-30.5305 1140.19,-35.0591"/>
</g>
<!-- Node28&#45;&gt;Node13 -->
<g id="edge40" class="edge"><title>Node28&#45;&gt;Node13</title>
<path fill="none" stroke="midnightblue" d="M1322.2,-184.975C1284.61,-174.222 1220.03,-155.749 1179.8,-144.242"/>
<polygon fill="midnightblue" stroke="midnightblue" points="1180.71,-140.86 1170.13,-141.475 1178.78,-147.59 1180.71,-140.86"/>
</g>
<!-- Node28&#45;&gt;Node22 -->
<g id="edge42" class="edge"><title>Node28&#45;&gt;Node22</title>
<path fill="none" stroke="midnightblue" d="M1285.31,-184.934C1259.57,-178.009 1232.62,-165.515 1217,-143 1194.94,-111.195 1247.52,-93.9379 1291.37,-85.3564"/>
<polygon fill="midnightblue" stroke="midnightblue" points="1292.22,-88.7593 1301.42,-83.5062 1290.95,-81.875 1292.22,-88.7593"/>
</g>
<!-- Node28&#45;&gt;Node24 -->
<g id="edge48" class="edge"><title>Node28&#45;&gt;Node24</title>
<path fill="none" stroke="midnightblue" d="M1408.49,-184.954C1458.44,-176.656 1532.97,-162.46 1596,-143 1642.8,-128.552 1694.9,-105.308 1725.48,-90.8825"/>
<polygon fill="midnightblue" stroke="midnightblue" points="1727.1,-93.9896 1734.63,-86.5312 1724.09,-87.6691 1727.1,-93.9896"/>
</g>
<!-- Node28&#45;&gt;Node29 -->
<g id="edge43" class="edge"><title>Node28&#45;&gt;Node29</title>
<path fill="none" stroke="midnightblue" d="M1429.12,-184.974C1447.13,-182.998 1466.24,-180.914 1484,-179 1602.42,-166.241 1739.41,-151.833 1825.38,-142.834"/>
<polygon fill="midnightblue" stroke="midnightblue" points="1825.76,-146.313 1835.34,-141.791 1825.03,-139.351 1825.76,-146.313"/>
</g>
<!-- Node29&#45;&gt;Node14 -->
<g id="edge44" class="edge"><title>Node29&#45;&gt;Node14</title>
<path fill="none" stroke="midnightblue" d="M1919.78,-123.49C1928.51,-115.187 1940.73,-101.691 1946,-87 1952,-70.2719 1951.52,-49.842 1949.97,-35.2898"/>
<polygon fill="midnightblue" stroke="midnightblue" points="1953.4,-34.5129 1948.61,-25.0622 1946.46,-35.4367 1953.4,-34.5129"/>
</g>
<!-- Node29&#45;&gt;Node25 -->
<g id="edge45" class="edge"><title>Node29&#45;&gt;Node25</title>
<path fill="none" stroke="midnightblue" d="M1907.59,-123.319C1902.43,-104.673 1890.17,-60.443 1883.16,-35.1317"/>
<polygon fill="midnightblue" stroke="midnightblue" points="1886.48,-33.9845 1880.43,-25.282 1879.73,-35.8535 1886.48,-33.9845"/>
</g>
<!-- Node29&#45;&gt;Node26 -->
<g id="edge46" class="edge"><title>Node29&#45;&gt;Node26</title>
<path fill="none" stroke="midnightblue" d="M1901.47,-123.419C1888.31,-110.398 1861.92,-85.2401 1837,-67 1817.95,-53.0579 1794.84,-39.5209 1777.52,-29.9776"/>
<polygon fill="midnightblue" stroke="midnightblue" points="1779.02,-26.8087 1768.56,-25.1095 1775.68,-32.9594 1779.02,-26.8087"/>
</g>
<!-- Node29&#45;&gt;Node27 -->
<g id="edge47" class="edge"><title>Node29&#45;&gt;Node27</title>
<path fill="none" stroke="midnightblue" d="M1860.56,-123.444C1805.34,-113.885 1715.98,-98.4195 1657.11,-88.2298"/>
<polygon fill="midnightblue" stroke="midnightblue" points="1657.66,-84.7732 1647.21,-86.5164 1656.46,-91.6707 1657.66,-84.7732"/>
</g>
<!-- Node31 -->
<g id="node31" class="node"><title>Node31</title>
<polygon fill="none" stroke="#bfbfbf" points="2140,-67.5 2140,-86.5 2270,-86.5 2270,-67.5 2140,-67.5"/>
<text text-anchor="middle" x="2205" y="-74.5" font-family="Helvetica,sans-Serif" font-size="10.00">InfoLogger/InfoLogger.hxx</text>
</g>
<!-- Node30&#45;&gt;Node31 -->
<g id="edge51" class="edge"><title>Node30&#45;&gt;Node31</title>
<path fill="none" stroke="midnightblue" d="M2205,-123.083C2205,-116.006 2205,-105.861 2205,-96.9865"/>
<polygon fill="midnightblue" stroke="midnightblue" points="2208.5,-96.751 2205,-86.7511 2201.5,-96.7511 2208.5,-96.751"/>
</g>
<!-- Node32&#45;&gt;Node6 -->
<g id="edge55" class="edge"><title>Node32&#45;&gt;Node6</title>
<path fill="none" stroke="midnightblue" d="M1495.9,-184.963C1479.79,-182.772 1462.23,-180.589 1446,-179 1182.33,-153.194 1115.27,-161.611 851,-143 824.122,-141.107 793.644,-138.637 771.274,-136.763"/>
<polygon fill="midnightblue" stroke="midnightblue" points="771.561,-133.275 761.303,-135.923 770.973,-140.25 771.561,-133.275"/>
</g>
<!-- Node32&#45;&gt;Node9 -->
<g id="edge58" class="edge"><title>Node32&#45;&gt;Node9</title>
<path fill="none" stroke="midnightblue" d="M1493.63,-184.964C1478.15,-182.872 1461.46,-180.737 1446,-179 1302.52,-162.881 1135.53,-148.911 1034.36,-140.975"/>
<polygon fill="midnightblue" stroke="midnightblue" points="1034.42,-137.469 1024.17,-140.179 1033.87,-144.447 1034.42,-137.469"/>
</g>
<!-- Node32&#45;&gt;Node13 -->
<g id="edge56" class="edge"><title>Node32&#45;&gt;Node13</title>
<path fill="none" stroke="midnightblue" d="M1494.4,-184.975C1408.68,-172.505 1251.6,-149.653 1180.58,-139.321"/>
<polygon fill="midnightblue" stroke="midnightblue" points="1180.74,-135.809 1170.34,-137.832 1179.74,-142.736 1180.74,-135.809"/>
</g>
<!-- Node32&#45;&gt;Node14 -->
<g id="edge54" class="edge"><title>Node32&#45;&gt;Node14</title>
<path fill="none" stroke="midnightblue" d="M1589.75,-184.991C1600.13,-182.801 1611.47,-180.61 1622,-179 1663.05,-172.72 1966.09,-173.745 1994,-143 2023.27,-110.757 1985.26,-58.643 1962.23,-32.5145"/>
<polygon fill="midnightblue" stroke="midnightblue" points="1964.71,-30.0379 1955.39,-25.0025 1959.54,-34.752 1964.71,-30.0379"/>
</g>
<!-- Node32&#45;&gt;Node21 -->
<g id="edge62" class="edge"><title>Node32&#45;&gt;Node21</title>
<path fill="none" stroke="midnightblue" d="M1546.7,-184.975C1540.1,-176.05 1529.56,-161.807 1521.31,-150.643"/>
<polygon fill="midnightblue" stroke="midnightblue" points="1524.05,-148.468 1515.29,-142.509 1518.42,-152.631 1524.05,-148.468"/>
</g>
<!-- Node32&#45;&gt;Node22 -->
<g id="edge57" class="edge"><title>Node32&#45;&gt;Node22</title>
<path fill="none" stroke="midnightblue" d="M1522.36,-184.936C1494.75,-176.499 1453.6,-162.104 1421,-143 1397.39,-129.164 1373.73,-108.204 1358.76,-93.8493"/>
<polygon fill="midnightblue" stroke="midnightblue" points="1360.99,-91.1347 1351.4,-86.6412 1356.1,-96.1373 1360.99,-91.1347"/>
</g>
<!-- Node32&#45;&gt;Node24 -->
<g id="edge61" class="edge"><title>Node32&#45;&gt;Node24</title>
<path fill="none" stroke="midnightblue" d="M1591.35,-184.973C1647.49,-172.312 1745.99,-149.352 1751,-143 1761.15,-130.138 1760.11,-110.958 1757.31,-96.7637"/>
<polygon fill="midnightblue" stroke="midnightblue" points="1760.62,-95.5595 1754.86,-86.6646 1753.81,-97.2076 1760.62,-95.5595"/>
</g>
<!-- Node32&#45;&gt;Node27 -->
<g id="edge59" class="edge"><title>Node32&#45;&gt;Node27</title>
<path fill="none" stroke="midnightblue" d="M1563.81,-184.774C1574.23,-175.619 1589.37,-160.19 1596,-143 1601.66,-128.335 1601.75,-110.397 1600.66,-97.0828"/>
<polygon fill="midnightblue" stroke="midnightblue" points="1604.1,-96.3207 1599.51,-86.7714 1597.14,-97.0984 1604.1,-96.3207"/>
</g>
<!-- Node32&#45;&gt;Node29 -->
<g id="edge60" class="edge"><title>Node32&#45;&gt;Node29</title>
<path fill="none" stroke="midnightblue" d="M1591.98,-184.939C1601.76,-182.893 1612.25,-180.785 1622,-179 1695.84,-165.481 1780.81,-152.52 1839.22,-144.009"/>
<polygon fill="midnightblue" stroke="midnightblue" points="1840.05,-147.425 1849.44,-142.525 1839.04,-140.498 1840.05,-147.425"/>
</g>
<!-- Node32&#45;&gt;Node30 -->
<g id="edge63" class="edge"><title>Node32&#45;&gt;Node30</title>
<path fill="none" stroke="midnightblue" d="M1589.37,-184.933C1599.85,-182.715 1611.34,-180.525 1622,-179 1715.75,-165.589 1982.53,-147.823 2120.32,-139.174"/>
<polygon fill="midnightblue" stroke="midnightblue" points="2120.66,-142.66 2130.42,-138.542 2120.22,-135.674 2120.66,-142.66"/>
</g>
<!-- Node33 -->
<g id="node33" class="node"><title>Node33</title>
<polygon fill="none" stroke="#bfbfbf" points="1682.5,-123.5 1682.5,-142.5 1741.5,-142.5 1741.5,-123.5 1682.5,-123.5"/>
<text text-anchor="middle" x="1712" y="-130.5" font-family="Helvetica,sans-Serif" font-size="10.00">functional</text>
</g>
<!-- Node32&#45;&gt;Node33 -->
<g id="edge53" class="edge"><title>Node32&#45;&gt;Node33</title>
<path fill="none" stroke="midnightblue" d="M1575.78,-184.975C1603.05,-174.769 1648.91,-157.608 1679.8,-146.049"/>
<polygon fill="midnightblue" stroke="midnightblue" points="1681.12,-149.292 1689.26,-142.509 1678.67,-142.736 1681.12,-149.292"/>
</g>
<!-- Node34 -->
<g id="node34" class="node"><title>Node34</title>
<g id="a_node34"><a xlink:href="CheckConfig_8h.html" target="_top" xlink:title="QualityControl/CheckConfig.h">
<polygon fill="none" stroke="black" points="1226.5,-123.5 1226.5,-142.5 1373.5,-142.5 1373.5,-123.5 1226.5,-123.5"/>
<text text-anchor="middle" x="1300" y="-130.5" font-family="Helvetica,sans-Serif" font-size="10.00">QualityControl/CheckConfig.h</text>
</a>
</g>
</g>
<!-- Node32&#45;&gt;Node34 -->
<g id="edge64" class="edge"><title>Node32&#45;&gt;Node34</title>
<path fill="none" stroke="midnightblue" d="M1516.75,-184.975C1471.85,-174.415 1395.29,-156.411 1346.22,-144.869"/>
<polygon fill="midnightblue" stroke="midnightblue" points="1346.72,-141.391 1336.18,-142.509 1345.11,-148.206 1346.72,-141.391"/>
</g>
<!-- Node34&#45;&gt;Node7 -->
<g id="edge65" class="edge"><title>Node34&#45;&gt;Node7</title>
<path fill="none" stroke="midnightblue" d="M1288.88,-123.319C1263.81,-103.753 1202.64,-56.0172 1171.26,-31.5295"/>
<polygon fill="midnightblue" stroke="midnightblue" points="1173.29,-28.6751 1163.25,-25.282 1168.98,-34.1936 1173.29,-28.6751"/>
</g>
<!-- Node34&#45;&gt;Node22 -->
<g id="edge66" class="edge"><title>Node34&#45;&gt;Node22</title>
<path fill="none" stroke="midnightblue" d="M1307.1,-123.083C1313.24,-115.377 1322.27,-104.033 1329.74,-94.6531"/>
<polygon fill="midnightblue" stroke="midnightblue" points="1332.54,-96.7542 1336.03,-86.7511 1327.06,-92.3936 1332.54,-96.7542"/>
</g>
<!-- Node35&#45;&gt;Node7 -->
<g id="edge69" class="edge"><title>Node35&#45;&gt;Node7</title>
<path fill="none" stroke="midnightblue" d="M502.827,-68.3833C507.622,-67.8999 512.382,-67.4339 517,-67 749.213,-45.1809 1029.79,-25.0383 1121.44,-18.6183"/>
<polygon fill="midnightblue" stroke="midnightblue" points="1121.69,-22.1093 1131.42,-17.921 1121.2,-15.1263 1121.69,-22.1093"/>
</g>
<!-- Node35&#45;&gt;Node26 -->
<g id="edge71" class="edge"><title>Node35&#45;&gt;Node26</title>
<path fill="none" stroke="midnightblue" d="M502.504,-75.4901C686.205,-73.678 1205,-65.6366 1635,-31 1650.73,-29.7328 1667.6,-27.9134 1683.5,-25.9895"/>
<polygon fill="midnightblue" stroke="midnightblue" points="1684.29,-29.4186 1693.78,-24.7149 1683.42,-22.4718 1684.29,-29.4186"/>
</g>
<!-- Node36 -->
<g id="node36" class="node"><title>Node36</title>
<polygon fill="none" stroke="#bfbfbf" points="366.5,-0.5 366.5,-30.5 501.5,-30.5 501.5,-0.5 366.5,-0.5"/>
<text text-anchor="start" x="374.5" y="-18.5" font-family="Helvetica,sans-Serif" font-size="10.00">Configuration/Configuration</text>
<text text-anchor="middle" x="434" y="-7.5" font-family="Helvetica,sans-Serif" font-size="10.00">Factory.h</text>
</g>
<!-- Node35&#45;&gt;Node36 -->
<g id="edge70" class="edge"><title>Node35&#45;&gt;Node36</title>
<path fill="none" stroke="midnightblue" d="M434,-67.4751C434,-60.471 434,-50.1919 434,-40.6956"/>
<polygon fill="midnightblue" stroke="midnightblue" points="437.5,-40.5229 434,-30.523 430.5,-40.523 437.5,-40.5229"/>
</g>
</g>
</svg>
        <g id="navigator" transform="translate(0 0)" fill="#404254">
                <rect fill="#f2f5e9" fill-opacity="0.5" stroke="#606060" stroke-width=".5" x="0" y="0" width="60" height="60"/>
                <use id="zoomplus" xlink:href="#zoomPlus" x="17" y="9" onmousedown="handleZoom(evt,'in')"/>
                <use id="zoomminus" xlink:href="#zoomMin" x="42" y="9" onmousedown="handleZoom(evt,'out')"/>
                <use id="reset" xlink:href="#resetDef" x="30" y="36" onmousedown="handleReset()"/>
                <g id="arrowUp" xlink:href="#dirArrow" transform="translate(30 24)" onmousedown="handlePan(0,-1)">
                  <use xlink:href="#rim" fill="#404040">
                        <set attributeName="fill" to="#808080" begin="arrowUp.mouseover" end="arrowUp.mouseout"/>
                  </use>
                  <path fill="none" stroke="white" stroke-width="1.5" d="M0,-3.0v7 M-2.5,-0.5L0,-3.0L2.5,-0.5"/>
                </g>
                <g id="arrowRight" xlink:href="#dirArrow" transform="rotate(90) translate(36 -43)" onmousedown="handlePan(1,0)">
                  <use xlink:href="#rim" fill="#404040">
                        <set attributeName="fill" to="#808080" begin="arrowRight.mouseover" end="arrowRight.mouseout"/>
                  </use>
                  <path fill="none" stroke="white" stroke-width="1.5" d="M0,-3.0v7 M-2.5,-0.5L0,-3.0L2.5,-0.5"/>
                </g>
                <g id="arrowDown" xlink:href="#dirArrow" transform="rotate(180) translate(-30 -48)" onmousedown="handlePan(0,1)">
                  <use xlink:href="#rim" fill="#404040">
                        <set attributeName="fill" to="#808080" begin="arrowDown.mouseover" end="arrowDown.mouseout"/>
                  </use>
                  <path fill="none" stroke="white" stroke-width="1.5" d="M0,-3.0v7 M-2.5,-0.5L0,-3.0L2.5,-0.5"/>
                </g>
                <g id="arrowLeft" xlink:href="#dirArrow" transform="rotate(270) translate(-36 17)" onmousedown="handlePan(-1,0)">
                  <use xlink:href="#rim" fill="#404040">
                        <set attributeName="fill" to="#808080" begin="arrowLeft.mouseover" end="arrowLeft.mouseout"/>
                  </use>
                  <path fill="none" stroke="white" stroke-width="1.5" d="M0,-3.0v7 M-2.5,-0.5L0,-3.0L2.5,-0.5"/>
                </g>
        </g>
        <svg viewBox="0 0 15 15" width="100%" height="30px" preserveAspectRatio="xMaxYMin meet">
         <g id="arrow_out" transform="scale(0.3 0.3)">
          <a xlink:href="testCheckWorkflow_8cxx__incl_org.svg" target="_base">
           <rect id="button" ry="5" rx="5" y="6" x="6" height="38" width="38"
                fill="#f2f5e9" fill-opacity="0.5" stroke="#606060" stroke-width="1.0"/>
           <path id="arrow"
             d="M 11.500037,31.436501 C 11.940474,20.09759 22.043105,11.32322 32.158766,21.979434 L 37.068811,17.246167 C 37.068811,17.246167 37.088388,32 37.088388,32 L 22.160133,31.978069 C 22.160133,31.978069 26.997745,27.140456 26.997745,27.140456 C 18.528582,18.264221 13.291696,25.230495 11.500037,31.436501 z"
             style="fill:#404040;"/>
          </a>
         </g>
        </svg>
</svg>
