<?xml version="1.0" encoding="UTF-8" standalone="no"?>
<!DOCTYPE svg PUBLIC "-//W3C//DTD SVG 1.1//EN"
 "http://www.w3.org/Graphics/SVG/1.1/DTD/svg11.dtd">
<!-- Generated by graphviz version 2.38.0 (20140413.2041)
 -->
<!-- Title: Framework/test/testCheckInterface.cxx Pages: 1 -->
<svg width="488pt" height="207pt"
 viewBox="0.00 0.00 488.48 207.00" xmlns="http://www.w3.org/2000/svg" xmlns:xlink="http://www.w3.org/1999/xlink">
<g id="graph0" class="graph" transform="scale(1 1) rotate(0) translate(4 203)">
<title>Framework/test/testCheckInterface.cxx</title>
<!-- Node1 -->
<g id="node1" class="node"><title>Node1</title>
<polygon fill="#bfbfbf" stroke="black" points="181.483,-168.5 181.483,-198.5 314.483,-198.5 314.483,-168.5 181.483,-168.5"/>
<text text-anchor="start" x="189.483" y="-186.5" font-family="Helvetica,sans-Serif" font-size="10.00">Framework/test/testCheck</text>
<text text-anchor="middle" x="247.983" y="-175.5" font-family="Helvetica,sans-Serif" font-size="10.00">Interface.cxx</text>
</g>
<!-- Node2 -->
<g id="node2" class="node"><title>Node2</title>
<g id="a_node2"><a xlink:href="CheckInterface_8h.html" target="_top" xlink:title="QualityControl/CheckInterface.h">
<polygon fill="none" stroke="black" points="91.4827,-112.5 91.4827,-131.5 248.483,-131.5 248.483,-112.5 91.4827,-112.5"/>
<text text-anchor="middle" x="169.983" y="-119.5" font-family="Helvetica,sans-Serif" font-size="10.00">QualityControl/CheckInterface.h</text>
</a>
</g>
</g>
<!-- Node1&#45;&gt;Node2 -->
<g id="edge1" class="edge"><title>Node1&#45;&gt;Node2</title>
<path fill="none" stroke="midnightblue" d="M229.498,-168.399C217.462,-159.218 201.783,-147.258 189.539,-137.918"/>
<polygon fill="midnightblue" stroke="midnightblue" points="191.406,-134.94 181.332,-131.658 187.16,-140.506 191.406,-134.94"/>
</g>
<!-- Node3 -->
<g id="node3" class="node"><title>Node3</title>
<polygon fill="none" stroke="#bfbfbf" points="15.4827,-0.5 15.4827,-19.5 56.4827,-19.5 56.4827,-0.5 15.4827,-0.5"/>
<text text-anchor="middle" x="35.9827" y="-7.5" font-family="Helvetica,sans-Serif" font-size="10.00">string</text>
</g>
<!-- Node1&#45;&gt;Node3 -->
<g id="edge18" class="edge"><title>Node1&#45;&gt;Node3</title>
<path fill="none" stroke="midnightblue" d="M181.402,-176.058C120.991,-166.086 36.4185,-140.686 2.98272,-76 -5.58349,-59.4276 6.65646,-40.3893 18.5821,-27.2194"/>
<polygon fill="midnightblue" stroke="midnightblue" points="21.2944,-29.4516 25.7781,-19.8522 16.2868,-24.5604 21.2944,-29.4516"/>
</g>
<!-- Node11 -->
<g id="node11" class="node"><title>Node11</title>
<polygon fill="none" stroke="#bfbfbf" points="266.483,-112.5 266.483,-131.5 385.483,-131.5 385.483,-112.5 266.483,-112.5"/>
<text text-anchor="middle" x="325.983" y="-119.5" font-family="Helvetica,sans-Serif" font-size="10.00">boost/test/unit_test.hpp</text>
</g>
<!-- Node1&#45;&gt;Node11 -->
<g id="edge16" class="edge"><title>Node1&#45;&gt;Node11</title>
<path fill="none" stroke="midnightblue" d="M266.468,-168.399C278.503,-159.218 294.182,-147.258 306.426,-137.918"/>
<polygon fill="midnightblue" stroke="midnightblue" points="308.805,-140.506 314.633,-131.658 304.559,-134.94 308.805,-140.506"/>
</g>
<!-- Node12 -->
<g id="node12" class="node"><title>Node12</title>
<polygon fill="none" stroke="#bfbfbf" points="403.483,-112.5 403.483,-131.5 474.483,-131.5 474.483,-112.5 403.483,-112.5"/>
<text text-anchor="middle" x="438.983" y="-119.5" font-family="Helvetica,sans-Serif" font-size="10.00">TObjString.h</text>
</g>
<!-- Node1&#45;&gt;Node12 -->
<g id="edge17" class="edge"><title>Node1&#45;&gt;Node12</title>
<path fill="none" stroke="midnightblue" d="M293.247,-168.399C326.395,-158.073 370.83,-144.231 401.887,-134.556"/>
<polygon fill="midnightblue" stroke="midnightblue" points="402.963,-137.887 411.469,-131.571 400.881,-131.204 402.963,-137.887"/>
</g>
<!-- Node2&#45;&gt;Node3 -->
<g id="edge2" class="edge"><title>Node2&#45;&gt;Node3</title>
<path fill="none" stroke="midnightblue" d="M114.139,-112.467C73.5544,-104.991 23.6151,-92.7037 10.9827,-76 -0.00911166,-61.4655 10.6074,-41.5149 21.1986,-27.5635"/>
<polygon fill="midnightblue" stroke="midnightblue" points="23.9665,-29.7078 27.5964,-19.7542 18.5516,-25.2716 23.9665,-29.7078"/>
</g>
<!-- Node4 -->
<g id="node4" class="node"><title>Node4</title>
<polygon fill="none" stroke="#bfbfbf" points="152.483,-0.5 152.483,-19.5 187.483,-19.5 187.483,-0.5 152.483,-0.5"/>
<text text-anchor="middle" x="169.983" y="-7.5" font-family="Helvetica,sans-Serif" font-size="10.00">map</text>
</g>
<!-- Node2&#45;&gt;Node4 -->
<g id="edge3" class="edge"><title>Node2&#45;&gt;Node4</title>
<path fill="none" stroke="midnightblue" d="M169.983,-112.368C169.983,-94.617 169.983,-53.6664 169.983,-29.5974"/>
<polygon fill="midnightblue" stroke="midnightblue" points="173.483,-29.5914 169.983,-19.5914 166.483,-29.5915 173.483,-29.5914"/>
</g>
<!-- Node5 -->
<g id="node5" class="node"><title>Node5</title>
<polygon fill="none" stroke="#bfbfbf" points="198.483,-56.5 198.483,-75.5 281.483,-75.5 281.483,-56.5 198.483,-56.5"/>
<text text-anchor="middle" x="239.983" y="-63.5" font-family="Helvetica,sans-Serif" font-size="10.00">unordered_map</text>
</g>
<!-- Node2&#45;&gt;Node5 -->
<g id="edge4" class="edge"><title>Node2&#45;&gt;Node5</title>
<path fill="none" stroke="midnightblue" d="M181.229,-112.324C191.78,-104.185 207.783,-91.8395 220.425,-82.0874"/>
<polygon fill="midnightblue" stroke="midnightblue" points="222.751,-84.7132 228.531,-75.8339 218.476,-79.1707 222.751,-84.7132"/>
</g>
<!-- Node6 -->
<g id="node6" class="node"><title>Node6</title>
<polygon fill="none" stroke="#bfbfbf" points="346.983,-0.5 346.983,-19.5 402.983,-19.5 402.983,-0.5 346.983,-0.5"/>
<text text-anchor="middle" x="374.983" y="-7.5" font-family="Helvetica,sans-Serif" font-size="10.00">Rtypes.h</text>
</g>
<!-- Node2&#45;&gt;Node6 -->
<g id="edge5" class="edge"><title>Node2&#45;&gt;Node6</title>
<path fill="none" stroke="midnightblue" d="M239.77,-112.469C323.272,-101.925 452.824,-84.3547 459.983,-76 478.742,-54.1051 443.513,-34.8673 412.863,-23.1123"/>
<polygon fill="midnightblue" stroke="midnightblue" points="413.741,-19.7068 403.147,-19.5648 411.34,-26.2823 413.741,-19.7068"/>
</g>
<!-- Node7 -->
<g id="node7" class="node"><title>Node7</title>
<g id="a_node7"><a xlink:href="MonitorObject_8h.html" target="_top" xlink:title="QualityControl/MonitorObject.h">
<polygon fill="none" stroke="black" points="299.483,-56.5 299.483,-75.5 450.483,-75.5 450.483,-56.5 299.483,-56.5"/>
<text text-anchor="middle" x="374.983" y="-63.5" font-family="Helvetica,sans-Serif" font-size="10.00">QualityControl/MonitorObject.h</text>
</a>
</g>
</g>
<!-- Node2&#45;&gt;Node7 -->
<g id="edge6" class="edge"><title>Node2&#45;&gt;Node7</title>
<path fill="none" stroke="midnightblue" d="M202.466,-112.444C237.703,-103.162 294.086,-88.3093 332.741,-78.127"/>
<polygon fill="midnightblue" stroke="midnightblue" points="333.873,-81.4483 342.652,-75.5164 332.09,-74.6792 333.873,-81.4483"/>
</g>
<!-- Node10 -->
<g id="node10" class="node"><title>Node10</title>
<g id="a_node10"><a xlink:href="Quality_8h.html" target="_top" xlink:title="QualityControl/Quality.h">
<polygon fill="none" stroke="black" points="20.4827,-56.5 20.4827,-75.5 141.483,-75.5 141.483,-56.5 20.4827,-56.5"/>
<text text-anchor="middle" x="80.9827" y="-63.5" font-family="Helvetica,sans-Serif" font-size="10.00">QualityControl/Quality.h</text>
</a>
</g>
</g>
<!-- Node2&#45;&gt;Node10 -->
<g id="edge12" class="edge"><title>Node2&#45;&gt;Node10</title>
<path fill="none" stroke="midnightblue" d="M155.683,-112.324C141.8,-103.9 120.49,-90.9709 104.179,-81.0741"/>
<polygon fill="midnightblue" stroke="midnightblue" points="105.612,-77.8495 95.2466,-75.6545 101.98,-83.8341 105.612,-77.8495"/>
</g>
<!-- Node7&#45;&gt;Node3 -->
<g id="edge7" class="edge"><title>Node7&#45;&gt;Node3</title>
<path fill="none" stroke="midnightblue" d="M321.267,-56.4435C249.382,-44.9929 124.277,-25.0645 66.65,-15.8851"/>
<polygon fill="midnightblue" stroke="midnightblue" points="67.1293,-12.4174 56.7032,-14.3006 66.0281,-19.3302 67.1293,-12.4174"/>
</g>
<!-- Node7&#45;&gt;Node4 -->
<g id="edge8" class="edge"><title>Node7&#45;&gt;Node4</title>
<path fill="none" stroke="midnightblue" d="M342.515,-56.4709C308.116,-47.4308 252.216,-32.7302 203.983,-20 201.824,-19.4303 199.589,-18.8397 197.342,-18.2459"/>
<polygon fill="midnightblue" stroke="midnightblue" points="198.191,-14.85 187.628,-15.676 196.4,-21.6172 198.191,-14.85"/>
</g>
<!-- Node7&#45;&gt;Node6 -->
<g id="edge9" class="edge"><title>Node7&#45;&gt;Node6</title>
<path fill="none" stroke="midnightblue" d="M374.983,-56.083C374.983,-49.0059 374.983,-38.8611 374.983,-29.9865"/>
<polygon fill="midnightblue" stroke="midnightblue" points="378.483,-29.751 374.983,-19.7511 371.483,-29.7511 378.483,-29.751"/>
</g>
<!-- Node8 -->
<g id="node8" class="node"><title>Node8</title>
<polygon fill="none" stroke="#bfbfbf" points="421.483,-0.5 421.483,-19.5 480.483,-19.5 480.483,-0.5 421.483,-0.5"/>
<text text-anchor="middle" x="450.983" y="-7.5" font-family="Helvetica,sans-Serif" font-size="10.00">TObject.h</text>
</g>
<!-- Node7&#45;&gt;Node8 -->
<g id="edge10" class="edge"><title>Node7&#45;&gt;Node8</title>
<path fill="none" stroke="midnightblue" d="M387.193,-56.324C398.759,-48.1066 416.358,-35.6017 430.143,-25.8069"/>
<polygon fill="midnightblue" stroke="midnightblue" points="432.425,-28.4791 438.55,-19.8339 428.371,-22.7729 432.425,-28.4791"/>
</g>
<!-- Node9 -->
<g id="node9" class="node"><title>Node9</title>
<polygon fill="none" stroke="#bfbfbf" points="212.983,-0.5 212.983,-19.5 328.983,-19.5 328.983,-0.5 212.983,-0.5"/>
<text text-anchor="middle" x="270.983" y="-7.5" font-family="Helvetica,sans-Serif" font-size="10.00">Common/Exceptions.h</text>
</g>
<!-- Node7&#45;&gt;Node9 -->
<g id="edge11" class="edge"><title>Node7&#45;&gt;Node9</title>
<path fill="none" stroke="midnightblue" d="M358.273,-56.324C341.671,-47.7034 315.981,-34.3643 296.762,-24.3855"/>
<polygon fill="midnightblue" stroke="midnightblue" points="298.138,-21.1565 287.651,-19.6545 294.913,-27.3689 298.138,-21.1565"/>
</g>
<!-- Node10&#45;&gt;Node3 -->
<g id="edge14" class="edge"><title>Node10&#45;&gt;Node3</title>
<path fill="none" stroke="midnightblue" d="M73.5519,-56.083C67.1301,-48.3768 57.6772,-37.0333 49.8603,-27.6531"/>
<polygon fill="midnightblue" stroke="midnightblue" points="52.3659,-25.1927 43.2753,-19.7511 46.9884,-29.674 52.3659,-25.1927"/>
</g>
<!-- Node10&#45;&gt;Node4 -->
<g id="edge15" class="edge"><title>Node10&#45;&gt;Node4</title>
<path fill="none" stroke="midnightblue" d="M95.2821,-56.324C109.166,-47.9002 130.475,-34.9709 146.786,-25.0741"/>
<polygon fill="midnightblue" stroke="midnightblue" points="148.985,-27.8341 155.719,-19.6545 145.354,-21.8495 148.985,-27.8341"/>
</g>
<!-- Node10&#45;&gt;Node6 -->
<g id="edge13" class="edge"><title>Node10&#45;&gt;Node6</title>
<path fill="none" stroke="midnightblue" d="M135.827,-56.4611C185.754,-48.4476 261.718,-35.6566 336.659,-20.1717"/>
<polygon fill="midnightblue" stroke="midnightblue" points="337.668,-23.5365 346.744,-18.0698 336.24,-16.6837 337.668,-23.5365"/>
</g>
</g>
</svg>
