<?xml version="1.0" encoding="UTF-8" standalone="no"?>
<!DOCTYPE svg PUBLIC "-//W3C//DTD SVG 1.1//EN"
 "http://www.w3.org/Graphics/SVG/1.1/DTD/svg11.dtd">
<!-- Generated by graphviz version 2.38.0 (20140413.2041)
 -->
<!-- Title: Framework/test/testDbFactory.cxx Pages: 1 -->
<!--zoomable 308 -->
<svg id="main" version="1.1" xmlns="http://www.w3.org/2000/svg" xmlns:xlink="http://www.w3.org/1999/xlink" xml:space="preserve" onload="init(evt)">
<style type="text/css"><![CDATA[
.edge:hover path { stroke: red; }
.edge:hover polygon { stroke: red; fill: red; }
]]></style>
<script type="text/javascript"><![CDATA[
var edges = document.getElementsByTagName('g');
if (edges && edges.length) {
  for (var i=0;i<edges.length;i++) {
    if (edges[i].id.substr(0,4)=='edge') {
      edges[i].setAttribute('class','edge');
    }
  }
}
]]></script>
        <defs>
                <circle id="rim" cx="0" cy="0" r="7"/>
                <circle id="rim2" cx="0" cy="0" r="3.5"/>
                <g id="zoomPlus">
                        <use xlink:href="#rim" fill="#404040">
                                <set attributeName="fill" to="#808080" begin="zoomplus.mouseover" end="zoomplus.mouseout"/>
                        </use>
                        <path d="M-4,0h8M0,-4v8" fill="none" stroke="white" stroke-width="1.5" pointer-events="none"/>
                </g>
                <g id="zoomMin">
                        <use xlink:href="#rim" fill="#404040">
                                <set attributeName="fill" to="#808080" begin="zoomminus.mouseover" end="zoomminus.mouseout"/>
                        </use>
                        <path d="M-4,0h8" fill="none" stroke="white" stroke-width="1.5" pointer-events="none"/>
                </g>
                <g id="dirArrow">
                        <path fill="none" stroke="white" stroke-width="1.5" d="M0,-3.0v7 M-2.5,-0.5L0,-3.0L2.5,-0.5"/>
                </g>
               <g id="resetDef">
                       <use xlink:href="#rim2" fill="#404040">
                               <set attributeName="fill" to="#808080" begin="reset.mouseover" end="reset.mouseout"/>
                       </use>
               </g>
        </defs>

<script type="text/javascript">
var viewWidth = 1088;
var viewHeight = 308;
var sectionId = 'dynsection-0';
</script>
<script xlink:href="svgpan.js"/>
<svg id="graph" class="graph">
<g id="viewport">
<title>Framework/test/testDbFactory.cxx</title>
<!-- Node1 -->
<g id="node1" class="node"><title>Node1</title>
<polygon fill="#bfbfbf" stroke="black" points="513,-280.5 513,-299.5 682,-299.5 682,-280.5 513,-280.5"/>
<text text-anchor="middle" x="597.5" y="-287.5" font-family="Helvetica,sans-Serif" font-size="10.00">Framework/test/testDbFactory.cxx</text>
</g>
<!-- Node2 -->
<g id="node2" class="node"><title>Node2</title>
<g id="a_node2"><a xlink:href="DatabaseFactory_8h.html" target="_top" xlink:title="QualityControl/DatabaseFactory.h">
<polygon fill="none" stroke="black" points="0,-224.5 0,-243.5 165,-243.5 165,-224.5 0,-224.5"/>
<text text-anchor="middle" x="82.5" y="-231.5" font-family="Helvetica,sans-Serif" font-size="10.00">QualityControl/DatabaseFactory.h</text>
</a>
</g>
</g>
<!-- Node1&#45;&gt;Node2 -->
<g id="edge1" class="edge"><title>Node1&#45;&gt;Node2</title>
<path fill="none" stroke="midnightblue" d="M516.181,-280.473C423.104,-270.714 271.025,-254.768 173.915,-244.585"/>
<polygon fill="midnightblue" stroke="midnightblue" points="174.127,-241.088 163.817,-243.526 173.397,-248.05 174.127,-241.088"/>
</g>
<!-- Node14 -->
<g id="node14" class="node"><title>Node14</title>
<g id="a_node14"><a xlink:href="MonitorObject_8h.html" target="_top" xlink:title="QualityControl/MonitorObject.h">
<polygon fill="none" stroke="black" points="350,-112.5 350,-131.5 501,-131.5 501,-112.5 350,-112.5"/>
<text text-anchor="middle" x="425.5" y="-119.5" font-family="Helvetica,sans-Serif" font-size="10.00">QualityControl/MonitorObject.h</text>
</a>
</g>
</g>
<!-- Node1&#45;&gt;Node14 -->
<g id="edge30" class="edge"><title>Node1&#45;&gt;Node14</title>
<path fill="none" stroke="midnightblue" d="M592.134,-280.19C578.85,-258.902 542.52,-203.785 501.5,-168 486.86,-155.228 468.094,-144.075 452.874,-136.068"/>
<polygon fill="midnightblue" stroke="midnightblue" points="454.421,-132.928 443.923,-131.502 451.241,-139.164 454.421,-132.928"/>
</g>
<!-- Node15 -->
<g id="node15" class="node"><title>Node15</title>
<g id="a_node15"><a xlink:href="QcInfoLogger_8h.html" target="_top" xlink:title="QualityControl/QcInfoLogger.h">
<polygon fill="none" stroke="black" points="725,-224.5 725,-243.5 874,-243.5 874,-224.5 725,-224.5"/>
<text text-anchor="middle" x="799.5" y="-231.5" font-family="Helvetica,sans-Serif" font-size="10.00">QualityControl/QcInfoLogger.h</text>
</a>
</g>
</g>
<!-- Node1&#45;&gt;Node15 -->
<g id="edge22" class="edge"><title>Node1&#45;&gt;Node15</title>
<path fill="none" stroke="midnightblue" d="M629.508,-280.444C664.229,-271.162 719.788,-256.309 757.877,-246.127"/>
<polygon fill="midnightblue" stroke="midnightblue" points="758.885,-249.48 767.642,-243.516 757.078,-242.718 758.885,-249.48"/>
</g>
<!-- Node17 -->
<g id="node17" class="node"><title>Node17</title>
<polygon fill="none" stroke="#bfbfbf" points="892,-224.5 892,-243.5 1011,-243.5 1011,-224.5 892,-224.5"/>
<text text-anchor="middle" x="951.5" y="-231.5" font-family="Helvetica,sans-Serif" font-size="10.00">boost/test/unit_test.hpp</text>
</g>
<!-- Node1&#45;&gt;Node17 -->
<g id="edge24" class="edge"><title>Node1&#45;&gt;Node17</title>
<path fill="none" stroke="midnightblue" d="M653.592,-280.444C716.641,-270.826 818.897,-255.228 885.676,-245.041"/>
<polygon fill="midnightblue" stroke="midnightblue" points="886.312,-248.484 895.67,-243.516 885.257,-241.565 886.312,-248.484"/>
</g>
<!-- Node18 -->
<g id="node18" class="node"><title>Node18</title>
<g id="a_node18"><a xlink:href="DummyDatabase_8h.html" target="_top" xlink:title="QualityControl/DummyDatabase.h">
<polygon fill="none" stroke="black" points="183,-224.5 183,-243.5 350,-243.5 350,-224.5 183,-224.5"/>
<text text-anchor="middle" x="266.5" y="-231.5" font-family="Helvetica,sans-Serif" font-size="10.00">QualityControl/DummyDatabase.h</text>
</a>
</g>
</g>
<!-- Node1&#45;&gt;Node18 -->
<g id="edge25" class="edge"><title>Node1&#45;&gt;Node18</title>
<path fill="none" stroke="midnightblue" d="M545.052,-280.444C486.342,-270.865 391.272,-255.356 328.818,-245.167"/>
<polygon fill="midnightblue" stroke="midnightblue" points="329.136,-241.672 318.703,-243.516 328.009,-248.581 329.136,-241.672"/>
</g>
<!-- Node19 -->
<g id="node19" class="node"><title>Node19</title>
<g id="a_node19"><a xlink:href="CcdbDatabase_8h.html" target="_top" xlink:title="QualityControl/CcdbDatabase.h">
<polygon fill="none" stroke="black" points="368,-224.5 368,-243.5 523,-243.5 523,-224.5 368,-224.5"/>
<text text-anchor="middle" x="445.5" y="-231.5" font-family="Helvetica,sans-Serif" font-size="10.00">QualityControl/CcdbDatabase.h</text>
</a>
</g>
</g>
<!-- Node1&#45;&gt;Node19 -->
<g id="edge27" class="edge"><title>Node1&#45;&gt;Node19</title>
<path fill="none" stroke="midnightblue" d="M573.415,-280.444C547.955,-271.399 507.606,-257.064 479.041,-246.916"/>
<polygon fill="midnightblue" stroke="midnightblue" points="480.067,-243.566 469.472,-243.516 477.723,-250.162 480.067,-243.566"/>
</g>
<!-- Node21 -->
<g id="node21" class="node"><title>Node21</title>
<g id="a_node21"><a xlink:href="testUtils_8h.html" target="_top" xlink:title="QualityControl/testUtils.h">
<polygon fill="none" stroke="black" points="580,-224.5 580,-243.5 707,-243.5 707,-224.5 580,-224.5"/>
<text text-anchor="middle" x="643.5" y="-231.5" font-family="Helvetica,sans-Serif" font-size="10.00">QualityControl/testUtils.h</text>
</a>
</g>
</g>
<!-- Node1&#45;&gt;Node21 -->
<g id="edge31" class="edge"><title>Node1&#45;&gt;Node21</title>
<path fill="none" stroke="midnightblue" d="M605.096,-280.083C611.727,-272.298 621.521,-260.801 629.558,-251.367"/>
<polygon fill="midnightblue" stroke="midnightblue" points="632.225,-253.633 636.045,-243.751 626.896,-249.094 632.225,-253.633"/>
</g>
<!-- Node23 -->
<g id="node23" class="node"><title>Node23</title>
<polygon fill="none" stroke="#bfbfbf" points="1029.5,-224.5 1029.5,-243.5 1079.5,-243.5 1079.5,-224.5 1029.5,-224.5"/>
<text text-anchor="middle" x="1054.5" y="-231.5" font-family="Helvetica,sans-Serif" font-size="10.00">TH1F.h</text>
</g>
<!-- Node1&#45;&gt;Node23 -->
<g id="edge34" class="edge"><title>Node1&#45;&gt;Node23</title>
<path fill="none" stroke="midnightblue" d="M682.317,-283.803C765.851,-277.814 897.15,-266.071 1019.43,-243.938"/>
<polygon fill="midnightblue" stroke="midnightblue" points="1020.14,-247.366 1029.35,-242.117 1018.88,-240.481 1020.14,-247.366"/>
</g>
<!-- Node3 -->
<g id="node3" class="node"><title>Node3</title>
<polygon fill="none" stroke="#bfbfbf" points="74.5,-112.5 74.5,-131.5 126.5,-131.5 126.5,-112.5 74.5,-112.5"/>
<text text-anchor="middle" x="100.5" y="-119.5" font-family="Helvetica,sans-Serif" font-size="10.00">memory</text>
</g>
<!-- Node2&#45;&gt;Node3 -->
<g id="edge2" class="edge"><title>Node2&#45;&gt;Node3</title>
<path fill="none" stroke="midnightblue" d="M83.9124,-224.368C86.8172,-206.617 93.5182,-165.666 97.4568,-141.597"/>
<polygon fill="midnightblue" stroke="midnightblue" points="100.933,-142.025 99.0941,-131.591 94.0251,-140.895 100.933,-142.025"/>
</g>
<!-- Node4 -->
<g id="node4" class="node"><title>Node4</title>
<g id="a_node4"><a xlink:href="DatabaseInterface_8h.html" target="_top" xlink:title="QualityControl/DatabaseInterface.h">
<polygon fill="none" stroke="black" points="181.5,-168.5 181.5,-187.5 351.5,-187.5 351.5,-168.5 181.5,-168.5"/>
<text text-anchor="middle" x="266.5" y="-175.5" font-family="Helvetica,sans-Serif" font-size="10.00">QualityControl/DatabaseInterface.h</text>
</a>
</g>
</g>
<!-- Node2&#45;&gt;Node4 -->
<g id="edge3" class="edge"><title>Node2&#45;&gt;Node4</title>
<path fill="none" stroke="midnightblue" d="M111.655,-224.444C143.013,-215.241 193.031,-200.562 227.697,-190.388"/>
<polygon fill="midnightblue" stroke="midnightblue" points="228.871,-193.691 237.481,-187.516 226.9,-186.974 228.871,-193.691"/>
</g>
<!-- Node4&#45;&gt;Node3 -->
<g id="edge5" class="edge"><title>Node4&#45;&gt;Node3</title>
<path fill="none" stroke="midnightblue" d="M240.197,-168.444C212.149,-159.32 167.556,-144.813 136.316,-134.651"/>
<polygon fill="midnightblue" stroke="midnightblue" points="137.272,-131.282 126.68,-131.516 135.107,-137.938 137.272,-131.282"/>
</g>
<!-- Node5 -->
<g id="node5" class="node"><title>Node5</title>
<polygon fill="none" stroke="#bfbfbf" points="297,-0.5 297,-19.5 338,-19.5 338,-0.5 297,-0.5"/>
<text text-anchor="middle" x="317.5" y="-7.5" font-family="Helvetica,sans-Serif" font-size="10.00">string</text>
</g>
<!-- Node4&#45;&gt;Node5 -->
<g id="edge4" class="edge"><title>Node4&#45;&gt;Node5</title>
<path fill="none" stroke="midnightblue" d="M233.525,-168.47C202.308,-158.54 162.187,-139.858 176.5,-112 199.67,-66.9026 253.358,-37.4355 287.396,-22.5472"/>
<polygon fill="midnightblue" stroke="midnightblue" points="288.996,-25.6711 296.853,-18.5634 286.279,-19.2201 288.996,-25.6711"/>
</g>
<!-- Node6 -->
<g id="node6" class="node"><title>Node6</title>
<polygon fill="none" stroke="#bfbfbf" points="287.5,-112.5 287.5,-131.5 331.5,-131.5 331.5,-112.5 287.5,-112.5"/>
<text text-anchor="middle" x="309.5" y="-119.5" font-family="Helvetica,sans-Serif" font-size="10.00">vector</text>
</g>
<!-- Node4&#45;&gt;Node6 -->
<g id="edge6" class="edge"><title>Node4&#45;&gt;Node6</title>
<path fill="none" stroke="midnightblue" d="M273.601,-168.083C279.737,-160.377 288.77,-149.033 296.239,-139.653"/>
<polygon fill="midnightblue" stroke="midnightblue" points="299.04,-141.754 302.532,-131.751 293.564,-137.394 299.04,-141.754"/>
</g>
<!-- Node7 -->
<g id="node7" class="node"><title>Node7</title>
<polygon fill="none" stroke="#bfbfbf" points="186,-112.5 186,-131.5 269,-131.5 269,-112.5 186,-112.5"/>
<text text-anchor="middle" x="227.5" y="-119.5" font-family="Helvetica,sans-Serif" font-size="10.00">unordered_map</text>
</g>
<!-- Node4&#45;&gt;Node7 -->
<g id="edge7" class="edge"><title>Node4&#45;&gt;Node7</title>
<path fill="none" stroke="midnightblue" d="M260.06,-168.083C254.551,-160.455 246.469,-149.264 239.735,-139.941"/>
<polygon fill="midnightblue" stroke="midnightblue" points="242.513,-137.809 233.82,-131.751 236.838,-141.907 242.513,-137.809"/>
</g>
<!-- Node8 -->
<g id="node8" class="node"><title>Node8</title>
<g id="a_node8"><a xlink:href="QualityObject_8h_source.html" target="_top" xlink:title="QualityControl/QualityObject.h">
<polygon fill="none" stroke="black" points="519,-112.5 519,-131.5 668,-131.5 668,-112.5 519,-112.5"/>
<text text-anchor="middle" x="593.5" y="-119.5" font-family="Helvetica,sans-Serif" font-size="10.00">QualityControl/QualityObject.h</text>
</a>
</g>
</g>
<!-- Node4&#45;&gt;Node8 -->
<g id="edge8" class="edge"><title>Node4&#45;&gt;Node8</title>
<path fill="none" stroke="midnightblue" d="M318.314,-168.444C376.315,-158.865 470.236,-143.356 531.935,-133.167"/>
<polygon fill="midnightblue" stroke="midnightblue" points="532.632,-136.599 541.928,-131.516 531.492,-129.693 532.632,-136.599"/>
</g>
<!-- Node4&#45;&gt;Node14 -->
<g id="edge16" class="edge"><title>Node4&#45;&gt;Node14</title>
<path fill="none" stroke="midnightblue" d="M291.694,-168.444C318.443,-159.359 360.903,-144.939 390.805,-134.783"/>
<polygon fill="midnightblue" stroke="midnightblue" points="392.081,-138.046 400.424,-131.516 389.829,-131.418 392.081,-138.046"/>
</g>
<!-- Node9 -->
<g id="node9" class="node"><title>Node9</title>
<polygon fill="none" stroke="#bfbfbf" points="593,-0.5 593,-19.5 628,-19.5 628,-0.5 593,-0.5"/>
<text text-anchor="middle" x="610.5" y="-7.5" font-family="Helvetica,sans-Serif" font-size="10.00">map</text>
</g>
<!-- Node8&#45;&gt;Node9 -->
<g id="edge9" class="edge"><title>Node8&#45;&gt;Node9</title>
<path fill="none" stroke="midnightblue" d="M656.294,-112.472C699.06,-105.228 750.232,-93.2377 763.5,-76 797.838,-31.39 691.019,-17.0242 638.218,-12.7126"/>
<polygon fill="midnightblue" stroke="midnightblue" points="638.372,-9.21443 628.138,-11.9581 637.849,-16.1949 638.372,-9.21443"/>
</g>
<!-- Node10 -->
<g id="node10" class="node"><title>Node10</title>
<polygon fill="none" stroke="#bfbfbf" points="384,-56.5 384,-75.5 443,-75.5 443,-56.5 384,-56.5"/>
<text text-anchor="middle" x="413.5" y="-63.5" font-family="Helvetica,sans-Serif" font-size="10.00">TObject.h</text>
</g>
<!-- Node8&#45;&gt;Node10 -->
<g id="edge10" class="edge"><title>Node8&#45;&gt;Node10</title>
<path fill="none" stroke="midnightblue" d="M564.978,-112.444C534.434,-103.28 485.792,-88.6876 451.897,-78.5192"/>
<polygon fill="midnightblue" stroke="midnightblue" points="452.472,-75.0376 441.888,-75.5164 450.461,-81.7424 452.472,-75.0376"/>
</g>
<!-- Node11 -->
<g id="node11" class="node"><title>Node11</title>
<polygon fill="none" stroke="#bfbfbf" points="638.5,-56.5 638.5,-75.5 754.5,-75.5 754.5,-56.5 638.5,-56.5"/>
<text text-anchor="middle" x="696.5" y="-63.5" font-family="Helvetica,sans-Serif" font-size="10.00">Common/Exceptions.h</text>
</g>
<!-- Node8&#45;&gt;Node11 -->
<g id="edge11" class="edge"><title>Node8&#45;&gt;Node11</title>
<path fill="none" stroke="midnightblue" d="M610.049,-112.324C626.492,-103.703 651.935,-90.3643 670.968,-80.3855"/>
<polygon fill="midnightblue" stroke="midnightblue" points="672.761,-83.3977 679.992,-75.6545 669.511,-77.198 672.761,-83.3977"/>
</g>
<!-- Node12 -->
<g id="node12" class="node"><title>Node12</title>
<g id="a_node12"><a xlink:href="Quality_8h.html" target="_top" xlink:title="QualityControl/Quality.h">
<polygon fill="none" stroke="black" points="461,-56.5 461,-75.5 582,-75.5 582,-56.5 461,-56.5"/>
<text text-anchor="middle" x="521.5" y="-63.5" font-family="Helvetica,sans-Serif" font-size="10.00">QualityControl/Quality.h</text>
</a>
</g>
</g>
<!-- Node8&#45;&gt;Node12 -->
<g id="edge12" class="edge"><title>Node8&#45;&gt;Node12</title>
<path fill="none" stroke="midnightblue" d="M581.932,-112.324C571.08,-104.185 554.619,-91.8395 541.617,-82.0874"/>
<polygon fill="midnightblue" stroke="midnightblue" points="543.379,-79.0339 533.279,-75.8339 539.179,-84.6339 543.379,-79.0339"/>
</g>
<!-- Node12&#45;&gt;Node5 -->
<g id="edge14" class="edge"><title>Node12&#45;&gt;Node5</title>
<path fill="none" stroke="midnightblue" d="M489.176,-56.4435C450.46,-46.1953 386.091,-29.1565 348.139,-19.1103"/>
<polygon fill="midnightblue" stroke="midnightblue" points="348.741,-15.6491 338.178,-16.4736 346.949,-22.4161 348.741,-15.6491"/>
</g>
<!-- Node12&#45;&gt;Node9 -->
<g id="edge15" class="edge"><title>Node12&#45;&gt;Node9</title>
<path fill="none" stroke="midnightblue" d="M535.799,-56.324C549.683,-47.9002 570.992,-34.9709 587.304,-25.0741"/>
<polygon fill="midnightblue" stroke="midnightblue" points="589.502,-27.8341 596.236,-19.6545 585.871,-21.8495 589.502,-27.8341"/>
</g>
<!-- Node13 -->
<g id="node13" class="node"><title>Node13</title>
<polygon fill="none" stroke="#bfbfbf" points="425.5,-0.5 425.5,-19.5 481.5,-19.5 481.5,-0.5 425.5,-0.5"/>
<text text-anchor="middle" x="453.5" y="-7.5" font-family="Helvetica,sans-Serif" font-size="10.00">Rtypes.h</text>
</g>
<!-- Node12&#45;&gt;Node13 -->
<g id="edge13" class="edge"><title>Node12&#45;&gt;Node13</title>
<path fill="none" stroke="midnightblue" d="M510.575,-56.324C500.325,-48.1849 484.779,-35.8395 472.499,-26.0874"/>
<polygon fill="midnightblue" stroke="midnightblue" points="474.632,-23.3119 464.624,-19.8339 470.279,-28.7937 474.632,-23.3119"/>
</g>
<!-- Node14&#45;&gt;Node5 -->
<g id="edge17" class="edge"><title>Node14&#45;&gt;Node5</title>
<path fill="none" stroke="midnightblue" d="M412.286,-112.214C399.998,-103.716 381.529,-90.0877 367.5,-76 352.644,-61.0823 338.268,-41.7104 328.774,-28.0077"/>
<polygon fill="midnightblue" stroke="midnightblue" points="331.546,-25.8605 323.035,-19.5513 325.754,-29.7913 331.546,-25.8605"/>
</g>
<!-- Node14&#45;&gt;Node9 -->
<g id="edge18" class="edge"><title>Node14&#45;&gt;Node9</title>
<path fill="none" stroke="midnightblue" d="M477.458,-112.448C519.521,-104.533 574.342,-91.6456 590.5,-76 602.815,-64.0757 607.594,-44.7699 609.424,-30.2906"/>
<polygon fill="midnightblue" stroke="midnightblue" points="612.945,-30.2181 610.347,-19.9465 605.972,-29.5958 612.945,-30.2181"/>
</g>
<!-- Node14&#45;&gt;Node10 -->
<g id="edge20" class="edge"><title>Node14&#45;&gt;Node10</title>
<path fill="none" stroke="midnightblue" d="M423.518,-112.083C421.928,-104.927 419.641,-94.6353 417.654,-85.6911"/>
<polygon fill="midnightblue" stroke="midnightblue" points="421.031,-84.7537 415.445,-75.7511 414.197,-86.2722 421.031,-84.7537"/>
</g>
<!-- Node14&#45;&gt;Node11 -->
<g id="edge21" class="edge"><title>Node14&#45;&gt;Node11</title>
<path fill="none" stroke="midnightblue" d="M468.441,-112.444C516.013,-102.964 592.744,-87.6747 643.889,-77.4835"/>
<polygon fill="midnightblue" stroke="midnightblue" points="644.637,-80.9032 653.76,-75.5164 643.269,-74.0382 644.637,-80.9032"/>
</g>
<!-- Node14&#45;&gt;Node13 -->
<g id="edge19" class="edge"><title>Node14&#45;&gt;Node13</title>
<path fill="none" stroke="midnightblue" d="M409.955,-112.319C390.677,-100.364 361.814,-77.8259 374.5,-56 383.499,-40.5175 400.038,-29.9197 415.666,-22.9179"/>
<polygon fill="midnightblue" stroke="midnightblue" points="417.276,-26.0407 425.203,-19.0115 414.623,-19.563 417.276,-26.0407"/>
</g>
<!-- Node16 -->
<g id="node16" class="node"><title>Node16</title>
<polygon fill="none" stroke="#bfbfbf" points="734.5,-168.5 734.5,-187.5 864.5,-187.5 864.5,-168.5 734.5,-168.5"/>
<text text-anchor="middle" x="799.5" y="-175.5" font-family="Helvetica,sans-Serif" font-size="10.00">InfoLogger/InfoLogger.hxx</text>
</g>
<!-- Node15&#45;&gt;Node16 -->
<g id="edge23" class="edge"><title>Node15&#45;&gt;Node16</title>
<path fill="none" stroke="midnightblue" d="M799.5,-224.083C799.5,-217.006 799.5,-206.861 799.5,-197.986"/>
<polygon fill="midnightblue" stroke="midnightblue" points="803,-197.751 799.5,-187.751 796,-197.751 803,-197.751"/>
</g>
<!-- Node18&#45;&gt;Node4 -->
<g id="edge26" class="edge"><title>Node18&#45;&gt;Node4</title>
<path fill="none" stroke="midnightblue" d="M266.5,-224.083C266.5,-217.006 266.5,-206.861 266.5,-197.986"/>
<polygon fill="midnightblue" stroke="midnightblue" points="270,-197.751 266.5,-187.751 263,-197.751 270,-197.751"/>
</g>
<!-- Node19&#45;&gt;Node4 -->
<g id="edge29" class="edge"><title>Node19&#45;&gt;Node4</title>
<path fill="none" stroke="midnightblue" d="M417.137,-224.444C386.762,-215.28 338.39,-200.688 304.684,-190.519"/>
<polygon fill="midnightblue" stroke="midnightblue" points="305.315,-187.054 294.73,-187.516 303.293,-193.756 305.315,-187.054"/>
</g>
<!-- Node20 -->
<g id="node20" class="node"><title>Node20</title>
<polygon fill="none" stroke="#bfbfbf" points="398,-168.5 398,-187.5 493,-187.5 493,-168.5 398,-168.5"/>
<text text-anchor="middle" x="445.5" y="-175.5" font-family="Helvetica,sans-Serif" font-size="10.00">CCDB/CcdbApi.h</text>
</g>
<!-- Node19&#45;&gt;Node20 -->
<g id="edge28" class="edge"><title>Node19&#45;&gt;Node20</title>
<path fill="none" stroke="midnightblue" d="M445.5,-224.083C445.5,-217.006 445.5,-206.861 445.5,-197.986"/>
<polygon fill="midnightblue" stroke="midnightblue" points="449,-197.751 445.5,-187.751 442,-197.751 449,-197.751"/>
</g>
<!-- Node21&#45;&gt;Node11 -->
<g id="edge33" class="edge"><title>Node21&#45;&gt;Node11</title>
<path fill="none" stroke="midnightblue" d="M652.279,-224.202C660.212,-215.695 671.532,-202.061 677.5,-188 691.988,-153.866 695.554,-110.09 696.356,-85.6461"/>
<polygon fill="midnightblue" stroke="midnightblue" points="699.856,-85.6717 696.561,-75.6023 692.857,-85.5287 699.856,-85.6717"/>
</g>
<!-- Node22 -->
<g id="node22" class="node"><title>Node22</title>
<polygon fill="none" stroke="#bfbfbf" points="614.5,-168.5 614.5,-187.5 668.5,-187.5 668.5,-168.5 614.5,-168.5"/>
<text text-anchor="middle" x="641.5" y="-175.5" font-family="Helvetica,sans-Serif" font-size="10.00">iostream</text>
</g>
<!-- Node21&#45;&gt;Node22 -->
<g id="edge32" class="edge"><title>Node21&#45;&gt;Node22</title>
<path fill="none" stroke="midnightblue" d="M643.17,-224.083C642.908,-217.006 642.532,-206.861 642.203,-197.986"/>
<polygon fill="midnightblue" stroke="midnightblue" points="645.692,-197.615 641.824,-187.751 638.697,-197.874 645.692,-197.615"/>
</g>
</g>
</svg>
        <g id="navigator" transform="translate(0 0)" fill="#404254">
                <rect fill="#f2f5e9" fill-opacity="0.5" stroke="#606060" stroke-width=".5" x="0" y="0" width="60" height="60"/>
                <use id="zoomplus" xlink:href="#zoomPlus" x="17" y="9" onmousedown="handleZoom(evt,'in')"/>
                <use id="zoomminus" xlink:href="#zoomMin" x="42" y="9" onmousedown="handleZoom(evt,'out')"/>
                <use id="reset" xlink:href="#resetDef" x="30" y="36" onmousedown="handleReset()"/>
                <g id="arrowUp" xlink:href="#dirArrow" transform="translate(30 24)" onmousedown="handlePan(0,-1)">
                  <use xlink:href="#rim" fill="#404040">
                        <set attributeName="fill" to="#808080" begin="arrowUp.mouseover" end="arrowUp.mouseout"/>
                  </use>
                  <path fill="none" stroke="white" stroke-width="1.5" d="M0,-3.0v7 M-2.5,-0.5L0,-3.0L2.5,-0.5"/>
                </g>
                <g id="arrowRight" xlink:href="#dirArrow" transform="rotate(90) translate(36 -43)" onmousedown="handlePan(1,0)">
                  <use xlink:href="#rim" fill="#404040">
                        <set attributeName="fill" to="#808080" begin="arrowRight.mouseover" end="arrowRight.mouseout"/>
                  </use>
                  <path fill="none" stroke="white" stroke-width="1.5" d="M0,-3.0v7 M-2.5,-0.5L0,-3.0L2.5,-0.5"/>
                </g>
                <g id="arrowDown" xlink:href="#dirArrow" transform="rotate(180) translate(-30 -48)" onmousedown="handlePan(0,1)">
                  <use xlink:href="#rim" fill="#404040">
                        <set attributeName="fill" to="#808080" begin="arrowDown.mouseover" end="arrowDown.mouseout"/>
                  </use>
                  <path fill="none" stroke="white" stroke-width="1.5" d="M0,-3.0v7 M-2.5,-0.5L0,-3.0L2.5,-0.5"/>
                </g>
                <g id="arrowLeft" xlink:href="#dirArrow" transform="rotate(270) translate(-36 17)" onmousedown="handlePan(-1,0)">
                  <use xlink:href="#rim" fill="#404040">
                        <set attributeName="fill" to="#808080" begin="arrowLeft.mouseover" end="arrowLeft.mouseout"/>
                  </use>
                  <path fill="none" stroke="white" stroke-width="1.5" d="M0,-3.0v7 M-2.5,-0.5L0,-3.0L2.5,-0.5"/>
                </g>
        </g>
        <svg viewBox="0 0 15 15" width="100%" height="30px" preserveAspectRatio="xMaxYMin meet">
         <g id="arrow_out" transform="scale(0.3 0.3)">
          <a xlink:href="testDbFactory_8cxx__incl_org.svg" target="_base">
           <rect id="button" ry="5" rx="5" y="6" x="6" height="38" width="38"
                fill="#f2f5e9" fill-opacity="0.5" stroke="#606060" stroke-width="1.0"/>
           <path id="arrow"
             d="M 11.500037,31.436501 C 11.940474,20.09759 22.043105,11.32322 32.158766,21.979434 L 37.068811,17.246167 C 37.068811,17.246167 37.088388,32 37.088388,32 L 22.160133,31.978069 C 22.160133,31.978069 26.997745,27.140456 26.997745,27.140456 C 18.528582,18.264221 13.291696,25.230495 11.500037,31.436501 z"
             style="fill:#404040;"/>
          </a>
         </g>
        </svg>
</svg>
