<?xml version="1.0" encoding="UTF-8" standalone="no"?>
<!DOCTYPE svg PUBLIC "-//W3C//DTD SVG 1.1//EN"
 "http://www.w3.org/Graphics/SVG/1.1/DTD/svg11.dtd">
<!-- Generated by graphviz version 2.38.0 (20140413.2041)
 -->
<!-- Title: Framework/test/testWorkflow.cxx Pages: 1 -->
<svg width="1822pt" height="330pt"
 viewBox="0.00 0.00 1821.79 330.00" xmlns="http://www.w3.org/2000/svg" xmlns:xlink="http://www.w3.org/1999/xlink">
<g id="graph0" class="graph" transform="scale(1 1) rotate(0) translate(4 326)">
<title>Framework/test/testWorkflow.cxx</title>
<!-- Node1 -->
<g id="node1" class="node"><title>Node1</title>
<polygon fill="#bfbfbf" stroke="black" points="1064.5,-302.5 1064.5,-321.5 1228.5,-321.5 1228.5,-302.5 1064.5,-302.5"/>
<text text-anchor="middle" x="1146.5" y="-309.5" font-family="Helvetica,sans-Serif" font-size="10.00">Framework/test/testWorkflow.cxx</text>
</g>
<!-- Node2 -->
<g id="node2" class="node"><title>Node2</title>
<g id="a_node2"><a xlink:href="InfrastructureGenerator_8h.html" target="_top" xlink:title="QualityControl/Infrastructure\lGenerator.h">
<polygon fill="none" stroke="black" points="107.5,-179.5 107.5,-209.5 247.5,-209.5 247.5,-179.5 107.5,-179.5"/>
<text text-anchor="start" x="115.5" y="-197.5" font-family="Helvetica,sans-Serif" font-size="10.00">QualityControl/Infrastructure</text>
<text text-anchor="middle" x="177.5" y="-186.5" font-family="Helvetica,sans-Serif" font-size="10.00">Generator.h</text>
</a>
</g>
</g>
<!-- Node1&#45;&gt;Node2 -->
<g id="edge1" class="edge"><title>Node1&#45;&gt;Node2</title>
<path fill="none" stroke="midnightblue" d="M1064.25,-303.202C907.64,-288.004 555.989,-252.186 261.5,-210 260.223,-209.817 258.935,-209.63 257.639,-209.439"/>
<polygon fill="midnightblue" stroke="midnightblue" points="257.992,-205.952 247.579,-207.906 256.938,-212.872 257.992,-205.952"/>
</g>
<!-- Node7 -->
<g id="node7" class="node"><title>Node7</title>
<polygon fill="none" stroke="#bfbfbf" points="1004.5,-246.5 1004.5,-265.5 1142.5,-265.5 1142.5,-246.5 1004.5,-246.5"/>
<text text-anchor="middle" x="1073.5" y="-253.5" font-family="Helvetica,sans-Serif" font-size="10.00">Framework/DataSampling.h</text>
</g>
<!-- Node1&#45;&gt;Node7 -->
<g id="edge6" class="edge"><title>Node1&#45;&gt;Node7</title>
<path fill="none" stroke="midnightblue" d="M1134.77,-302.324C1123.66,-294.107 1106.76,-281.602 1093.52,-271.807"/>
<polygon fill="midnightblue" stroke="midnightblue" points="1095.56,-268.967 1085.44,-265.834 1091.4,-274.595 1095.56,-268.967"/>
</g>
<!-- Node8 -->
<g id="node8" class="node"><title>Node8</title>
<polygon fill="none" stroke="#bfbfbf" points="1161,-246.5 1161,-265.5 1280,-265.5 1280,-246.5 1161,-246.5"/>
<text text-anchor="middle" x="1220.5" y="-253.5" font-family="Helvetica,sans-Serif" font-size="10.00">getTestDataDirectory.h</text>
</g>
<!-- Node1&#45;&gt;Node8 -->
<g id="edge7" class="edge"><title>Node1&#45;&gt;Node8</title>
<path fill="none" stroke="midnightblue" d="M1158.39,-302.324C1169.65,-294.107 1186.79,-281.602 1200.21,-271.807"/>
<polygon fill="midnightblue" stroke="midnightblue" points="1202.38,-274.556 1208.39,-265.834 1198.25,-268.901 1202.38,-274.556"/>
</g>
<!-- Node9 -->
<g id="node9" class="node"><title>Node9</title>
<g id="a_node9"><a xlink:href="CheckRunner_8h.html" target="_top" xlink:title="QualityControl/CheckRunner.h">
<polygon fill="none" stroke="black" points="836.5,-246.5 836.5,-265.5 986.5,-265.5 986.5,-246.5 836.5,-246.5"/>
<text text-anchor="middle" x="911.5" y="-253.5" font-family="Helvetica,sans-Serif" font-size="10.00">QualityControl/CheckRunner.h</text>
</a>
</g>
</g>
<!-- Node1&#45;&gt;Node9 -->
<g id="edge8" class="edge"><title>Node1&#45;&gt;Node9</title>
<path fill="none" stroke="midnightblue" d="M1109.26,-302.444C1068.44,-293.063 1002.86,-277.993 958.516,-267.804"/>
<polygon fill="midnightblue" stroke="midnightblue" points="959.092,-264.345 948.562,-265.516 957.524,-271.167 959.092,-264.345"/>
</g>
<!-- Node33 -->
<g id="node33" class="node"><title>Node33</title>
<g id="a_node33"><a xlink:href="runnerUtils_8h.html" target="_top" xlink:title="QualityControl/runnerUtils.h">
<polygon fill="none" stroke="black" points="11,-67.5 11,-86.5 148,-86.5 148,-67.5 11,-67.5"/>
<text text-anchor="middle" x="79.5" y="-74.5" font-family="Helvetica,sans-Serif" font-size="10.00">QualityControl/runnerUtils.h</text>
</a>
</g>
</g>
<!-- Node1&#45;&gt;Node33 -->
<g id="edge65" class="edge"><title>Node1&#45;&gt;Node33</title>
<path fill="none" stroke="midnightblue" d="M1064.46,-307.536C831.606,-297.088 178.235,-263.295 98.5,-210 63.4205,-186.553 52.1273,-164.355 60.5,-123 62.3931,-113.649 66.2916,-103.827 70.0674,-95.7526"/>
<polygon fill="midnightblue" stroke="midnightblue" points="73.2876,-97.1381 74.6241,-86.6279 67.0251,-94.0106 73.2876,-97.1381"/>
</g>
<!-- Node35 -->
<g id="node35" class="node"><title>Node35</title>
<polygon fill="none" stroke="#bfbfbf" points="1298.5,-246.5 1298.5,-265.5 1458.5,-265.5 1458.5,-246.5 1298.5,-246.5"/>
<text text-anchor="middle" x="1378.5" y="-253.5" font-family="Helvetica,sans-Serif" font-size="10.00">Framework/runDataProcessing.h</text>
</g>
<!-- Node1&#45;&gt;Node35 -->
<g id="edge69" class="edge"><title>Node1&#45;&gt;Node35</title>
<path fill="none" stroke="midnightblue" d="M1183.26,-302.444C1223.56,-293.063 1288.31,-277.993 1332.08,-267.804"/>
<polygon fill="midnightblue" stroke="midnightblue" points="1332.96,-271.192 1341.91,-265.516 1331.38,-264.375 1332.96,-271.192"/>
</g>
<!-- Node36 -->
<g id="node36" class="node"><title>Node36</title>
<polygon fill="none" stroke="#bfbfbf" points="1477,-246.5 1477,-265.5 1618,-265.5 1618,-246.5 1477,-246.5"/>
<text text-anchor="middle" x="1547.5" y="-253.5" font-family="Helvetica,sans-Serif" font-size="10.00">Framework/ControlService.h</text>
</g>
<!-- Node1&#45;&gt;Node36 -->
<g id="edge70" class="edge"><title>Node1&#45;&gt;Node36</title>
<path fill="none" stroke="midnightblue" d="M1210.04,-302.444C1281.9,-292.767 1398.72,-277.035 1474.33,-266.853"/>
<polygon fill="midnightblue" stroke="midnightblue" points="1474.81,-270.32 1484.26,-265.516 1473.88,-263.382 1474.81,-270.32"/>
</g>
<!-- Node37 -->
<g id="node37" class="node"><title>Node37</title>
<polygon fill="none" stroke="#bfbfbf" points="1636.5,-246.5 1636.5,-265.5 1686.5,-265.5 1686.5,-246.5 1636.5,-246.5"/>
<text text-anchor="middle" x="1661.5" y="-253.5" font-family="Helvetica,sans-Serif" font-size="10.00">TH1F.h</text>
</g>
<!-- Node1&#45;&gt;Node37 -->
<g id="edge71" class="edge"><title>Node1&#45;&gt;Node37</title>
<path fill="none" stroke="midnightblue" d="M1228.56,-307.264C1324.55,-301.981 1487.98,-290.147 1626.5,-266 1626.6,-265.982 1626.7,-265.965 1626.8,-265.947"/>
<polygon fill="midnightblue" stroke="midnightblue" points="1627.28,-269.421 1636.37,-263.97 1625.87,-262.566 1627.28,-269.421"/>
</g>
<!-- Node3 -->
<g id="node3" class="node"><title>Node3</title>
<polygon fill="none" stroke="#bfbfbf" points="523.5,-123.5 523.5,-142.5 567.5,-142.5 567.5,-123.5 523.5,-123.5"/>
<text text-anchor="middle" x="545.5" y="-130.5" font-family="Helvetica,sans-Serif" font-size="10.00">vector</text>
</g>
<!-- Node2&#45;&gt;Node3 -->
<g id="edge2" class="edge"><title>Node2&#45;&gt;Node3</title>
<path fill="none" stroke="midnightblue" d="M247.704,-185.758C313.947,-177.823 416.131,-163.961 513.254,-143.03"/>
<polygon fill="midnightblue" stroke="midnightblue" points="514.218,-146.402 523.241,-140.849 512.724,-139.564 514.218,-146.402"/>
</g>
<!-- Node4 -->
<g id="node4" class="node"><title>Node4</title>
<polygon fill="none" stroke="#bfbfbf" points="694,-6 694,-25 735,-25 735,-6 694,-6"/>
<text text-anchor="middle" x="714.5" y="-13" font-family="Helvetica,sans-Serif" font-size="10.00">string</text>
</g>
<!-- Node2&#45;&gt;Node4 -->
<g id="edge3" class="edge"><title>Node2&#45;&gt;Node4</title>
<path fill="none" stroke="midnightblue" d="M190.007,-179.41C198.493,-169.545 209.721,-155.876 218.5,-143 240.363,-110.934 229.111,-88.3809 261.5,-67 331.149,-21.0224 593.549,-16.527 683.792,-16.3693"/>
<polygon fill="midnightblue" stroke="midnightblue" points="683.92,-19.8694 693.92,-16.3691 683.92,-12.8694 683.92,-19.8694"/>
</g>
<!-- Node5 -->
<g id="node5" class="node"><title>Node5</title>
<polygon fill="none" stroke="#bfbfbf" points="69.5,-123.5 69.5,-142.5 209.5,-142.5 209.5,-123.5 69.5,-123.5"/>
<text text-anchor="middle" x="139.5" y="-130.5" font-family="Helvetica,sans-Serif" font-size="10.00">Framework/WorkflowSpec.h</text>
</g>
<!-- Node2&#45;&gt;Node5 -->
<g id="edge4" class="edge"><title>Node2&#45;&gt;Node5</title>
<path fill="none" stroke="midnightblue" d="M168.495,-179.399C163.087,-170.932 156.168,-160.099 150.446,-151.139"/>
<polygon fill="midnightblue" stroke="midnightblue" points="153.362,-149.202 145.029,-142.658 147.462,-152.97 153.362,-149.202"/>
</g>
<!-- Node6 -->
<g id="node6" class="node"><title>Node6</title>
<polygon fill="none" stroke="#bfbfbf" points="341.5,-123.5 341.5,-142.5 505.5,-142.5 505.5,-123.5 341.5,-123.5"/>
<text text-anchor="middle" x="423.5" y="-130.5" font-family="Helvetica,sans-Serif" font-size="10.00">Framework/DataProcessorSpec.h</text>
</g>
<!-- Node2&#45;&gt;Node6 -->
<g id="edge5" class="edge"><title>Node2&#45;&gt;Node6</title>
<path fill="none" stroke="midnightblue" d="M235.487,-179.475C279.224,-168.896 338.352,-154.595 378.542,-144.874"/>
<polygon fill="midnightblue" stroke="midnightblue" points="379.434,-148.259 388.331,-142.506 377.788,-141.455 379.434,-148.259"/>
</g>
<!-- Node9&#45;&gt;Node3 -->
<g id="edge13" class="edge"><title>Node9&#45;&gt;Node3</title>
<path fill="none" stroke="midnightblue" d="M836.45,-251.457C730.745,-245.687 548.578,-232.575 528.5,-210 514.229,-193.954 524.21,-168.564 533.843,-151.602"/>
<polygon fill="midnightblue" stroke="midnightblue" points="537.044,-153.077 539.289,-142.722 531.077,-149.417 537.044,-153.077"/>
</g>
<!-- Node9&#45;&gt;Node4 -->
<g id="edge11" class="edge"><title>Node9&#45;&gt;Node4</title>
<path fill="none" stroke="midnightblue" d="M836.465,-252.07C698.485,-246.19 414.922,-231.637 375.5,-210 342.693,-191.994 336.461,-178.46 324.5,-143 321.659,-134.577 319.106,-130.065 324.5,-123 368.921,-64.8217 599.854,-30.7477 683.884,-20.1203"/>
<polygon fill="midnightblue" stroke="midnightblue" points="684.341,-23.5906 693.834,-18.8854 683.479,-16.6439 684.341,-23.5906"/>
</g>
<!-- Node9&#45;&gt;Node6 -->
<g id="edge20" class="edge"><title>Node9&#45;&gt;Node6</title>
<path fill="none" stroke="midnightblue" d="M836.489,-251.423C738.65,-245.904 573.378,-233.415 517.5,-210 485.273,-196.496 455.204,-168.409 438.117,-150.421"/>
<polygon fill="midnightblue" stroke="midnightblue" points="440.577,-147.925 431.22,-142.955 435.435,-152.675 440.577,-147.925"/>
</g>
<!-- Node10 -->
<g id="node10" class="node"><title>Node10</title>
<polygon fill="none" stroke="#bfbfbf" points="939.5,-185 939.5,-204 985.5,-204 985.5,-185 939.5,-185"/>
<text text-anchor="middle" x="962.5" y="-192" font-family="Helvetica,sans-Serif" font-size="10.00">chrono</text>
</g>
<!-- Node9&#45;&gt;Node10 -->
<g id="edge9" class="edge"><title>Node9&#45;&gt;Node10</title>
<path fill="none" stroke="midnightblue" d="M918.807,-246.475C926.533,-237.462 938.908,-223.025 948.518,-211.812"/>
<polygon fill="midnightblue" stroke="midnightblue" points="951.356,-213.879 955.206,-204.009 946.041,-209.324 951.356,-213.879"/>
</g>
<!-- Node11 -->
<g id="node11" class="node"><title>Node11</title>
<polygon fill="none" stroke="#bfbfbf" points="699.5,-123.5 699.5,-142.5 751.5,-142.5 751.5,-123.5 699.5,-123.5"/>
<text text-anchor="middle" x="725.5" y="-130.5" font-family="Helvetica,sans-Serif" font-size="10.00">memory</text>
</g>
<!-- Node9&#45;&gt;Node11 -->
<g id="edge10" class="edge"><title>Node9&#45;&gt;Node11</title>
<path fill="none" stroke="midnightblue" d="M836.167,-247.778C807.653,-241.64 776.745,-230.422 754.5,-210 738.2,-195.036 730.99,-169.921 727.848,-152.685"/>
<polygon fill="midnightblue" stroke="midnightblue" points="731.29,-152.038 726.316,-142.683 724.37,-153.097 731.29,-152.038"/>
</g>
<!-- Node12 -->
<g id="node12" class="node"><title>Node12</title>
<polygon fill="none" stroke="#bfbfbf" points="1323,-6 1323,-25 1358,-25 1358,-6 1323,-6"/>
<text text-anchor="middle" x="1340.5" y="-13" font-family="Helvetica,sans-Serif" font-size="10.00">map</text>
</g>
<!-- Node9&#45;&gt;Node12 -->
<g id="edge12" class="edge"><title>Node9&#45;&gt;Node12</title>
<path fill="none" stroke="midnightblue" d="M986.585,-246.724C989.595,-246.465 992.575,-246.223 995.5,-246 1039.64,-242.64 1760.91,-242.001 1791.5,-210 1832.4,-167.204 1818.07,-125.879 1734.5,-67 1675.27,-25.2726 1447.85,-18.0224 1368.23,-16.7639"/>
<polygon fill="midnightblue" stroke="midnightblue" points="1368.05,-13.2613 1358,-16.6231 1367.95,-20.2606 1368.05,-13.2613"/>
</g>
<!-- Node13 -->
<g id="node13" class="node"><title>Node13</title>
<polygon fill="none" stroke="#bfbfbf" points="1003.5,-185 1003.5,-204 1081.5,-204 1081.5,-185 1003.5,-185"/>
<text text-anchor="middle" x="1042.5" y="-192" font-family="Helvetica,sans-Serif" font-size="10.00">unordered_set</text>
</g>
<!-- Node9&#45;&gt;Node13 -->
<g id="edge14" class="edge"><title>Node9&#45;&gt;Node13</title>
<path fill="none" stroke="midnightblue" d="M930.269,-246.475C952.351,-236.445 989.219,-219.7 1014.64,-208.155"/>
<polygon fill="midnightblue" stroke="midnightblue" points="1016.11,-211.331 1023.77,-204.009 1013.21,-204.958 1016.11,-211.331"/>
</g>
<!-- Node14 -->
<g id="node14" class="node"><title>Node14</title>
<polygon fill="none" stroke="#bfbfbf" points="1099.5,-185 1099.5,-204 1191.5,-204 1191.5,-185 1099.5,-185"/>
<text text-anchor="middle" x="1145.5" y="-192" font-family="Helvetica,sans-Serif" font-size="10.00">Common/Timer.h</text>
</g>
<!-- Node9&#45;&gt;Node14 -->
<g id="edge15" class="edge"><title>Node9&#45;&gt;Node14</title>
<path fill="none" stroke="midnightblue" d="M945.845,-246.49C981.902,-237.527 1040.23,-222.945 1090.5,-210 1094.64,-208.933 1098.96,-207.813 1103.27,-206.687"/>
<polygon fill="midnightblue" stroke="midnightblue" points="1104.45,-209.995 1113.23,-204.073 1102.67,-203.224 1104.45,-209.995"/>
</g>
<!-- Node15 -->
<g id="node15" class="node"><title>Node15</title>
<polygon fill="none" stroke="#bfbfbf" points="1209.5,-185 1209.5,-204 1307.5,-204 1307.5,-185 1209.5,-185"/>
<text text-anchor="middle" x="1258.5" y="-192" font-family="Helvetica,sans-Serif" font-size="10.00">Framework/Task.h</text>
</g>
<!-- Node9&#45;&gt;Node15 -->
<g id="edge16" class="edge"><title>Node9&#45;&gt;Node15</title>
<path fill="none" stroke="midnightblue" d="M977.225,-246.494C1036,-238.477 1124.35,-225.414 1200.5,-210 1205.65,-208.958 1211.02,-207.762 1216.34,-206.514"/>
<polygon fill="midnightblue" stroke="midnightblue" points="1217.51,-209.831 1226.41,-204.074 1215.86,-203.027 1217.51,-209.831"/>
</g>
<!-- Node16 -->
<g id="node16" class="node"><title>Node16</title>
<polygon fill="none" stroke="#bfbfbf" points="1326,-185 1326,-204 1443,-204 1443,-185 1326,-185"/>
<text text-anchor="middle" x="1384.5" y="-192" font-family="Helvetica,sans-Serif" font-size="10.00">Headers/DataHeader.h</text>
</g>
<!-- Node9&#45;&gt;Node16 -->
<g id="edge17" class="edge"><title>Node9&#45;&gt;Node16</title>
<path fill="none" stroke="midnightblue" d="M986.695,-246.84C1099.34,-234.589 1300.48,-212.591 1316.5,-210 1323.31,-208.899 1330.46,-207.568 1337.47,-206.164"/>
<polygon fill="midnightblue" stroke="midnightblue" points="1338.49,-209.527 1347.57,-204.073 1337.07,-202.672 1338.49,-209.527"/>
</g>
<!-- Node17 -->
<g id="node17" class="node"><title>Node17</title>
<polygon fill="none" stroke="#bfbfbf" points="1461,-185 1461,-204 1612,-204 1612,-185 1461,-185"/>
<text text-anchor="middle" x="1536.5" y="-192" font-family="Helvetica,sans-Serif" font-size="10.00">Monitoring/MonitoringFactory.h</text>
</g>
<!-- Node9&#45;&gt;Node17 -->
<g id="edge18" class="edge"><title>Node9&#45;&gt;Node17</title>
<path fill="none" stroke="midnightblue" d="M986.595,-246.849C989.602,-246.556 992.579,-246.272 995.5,-246 1197.92,-227.169 1249.76,-235.119 1451.5,-210 1461.09,-208.806 1471.25,-207.291 1481.09,-205.694"/>
<polygon fill="midnightblue" stroke="midnightblue" points="1481.89,-209.109 1491.18,-204.01 1480.74,-202.204 1481.89,-209.109"/>
</g>
<!-- Node18 -->
<g id="node18" class="node"><title>Node18</title>
<polygon fill="none" stroke="#bfbfbf" points="1630,-179.5 1630,-209.5 1765,-209.5 1765,-179.5 1630,-179.5"/>
<text text-anchor="start" x="1638" y="-197.5" font-family="Helvetica,sans-Serif" font-size="10.00">Configuration/Configuration</text>
<text text-anchor="middle" x="1697.5" y="-186.5" font-family="Helvetica,sans-Serif" font-size="10.00">Interface.h</text>
</g>
<!-- Node9&#45;&gt;Node18 -->
<g id="edge19" class="edge"><title>Node9&#45;&gt;Node18</title>
<path fill="none" stroke="midnightblue" d="M986.588,-246.77C989.597,-246.499 992.577,-246.241 995.5,-246 1269.55,-223.44 1342.62,-243.337 1620.02,-209.936"/>
<polygon fill="midnightblue" stroke="midnightblue" points="1620.47,-213.407 1629.97,-208.725 1619.62,-206.458 1620.47,-213.407"/>
</g>
<!-- Node19 -->
<g id="node19" class="node"><title>Node19</title>
<g id="a_node19"><a xlink:href="CheckInterface_8h.html" target="_top" xlink:title="QualityControl/CheckInterface.h">
<polygon fill="none" stroke="black" points="1294,-123.5 1294,-142.5 1451,-142.5 1451,-123.5 1294,-123.5"/>
<text text-anchor="middle" x="1372.5" y="-130.5" font-family="Helvetica,sans-Serif" font-size="10.00">QualityControl/CheckInterface.h</text>
</a>
</g>
</g>
<!-- Node9&#45;&gt;Node19 -->
<g id="edge21" class="edge"><title>Node9&#45;&gt;Node19</title>
<path fill="none" stroke="midnightblue" d="M910.767,-246.33C909.942,-230.297 910.759,-196.093 930.5,-179 937.118,-173.27 1156.72,-153.028 1283.84,-141.744"/>
<polygon fill="midnightblue" stroke="midnightblue" points="1284.31,-145.217 1293.96,-140.848 1283.69,-138.244 1284.31,-145.217"/>
</g>
<!-- Node22 -->
<g id="node22" class="node"><title>Node22</title>
<g id="a_node22"><a xlink:href="MonitorObject_8h.html" target="_top" xlink:title="QualityControl/MonitorObject.h">
<polygon fill="none" stroke="black" points="702,-67.5 702,-86.5 853,-86.5 853,-67.5 702,-67.5"/>
<text text-anchor="middle" x="777.5" y="-74.5" font-family="Helvetica,sans-Serif" font-size="10.00">QualityControl/MonitorObject.h</text>
</a>
</g>
</g>
<!-- Node9&#45;&gt;Node22 -->
<g id="edge47" class="edge"><title>Node9&#45;&gt;Node22</title>
<path fill="none" stroke="midnightblue" d="M836.372,-253.379C691.875,-248.346 384.846,-227.698 332.5,-143 327.827,-135.439 326.539,-129.594 332.5,-123 356.083,-96.9118 569.128,-85.2117 691.682,-80.6003"/>
<polygon fill="midnightblue" stroke="midnightblue" points="691.933,-84.0936 701.797,-80.2281 691.675,-77.0983 691.933,-84.0936"/>
</g>
<!-- Node26 -->
<g id="node26" class="node"><title>Node26</title>
<g id="a_node26"><a xlink:href="DatabaseInterface_8h.html" target="_top" xlink:title="QualityControl/DatabaseInterface.h">
<polygon fill="none" stroke="black" points="537.5,-185 537.5,-204 707.5,-204 707.5,-185 537.5,-185"/>
<text text-anchor="middle" x="622.5" y="-192" font-family="Helvetica,sans-Serif" font-size="10.00">QualityControl/DatabaseInterface.h</text>
</a>
</g>
</g>
<!-- Node9&#45;&gt;Node26 -->
<g id="edge36" class="edge"><title>Node9&#45;&gt;Node26</title>
<path fill="none" stroke="midnightblue" d="M870.093,-246.475C818.374,-235.827 729.887,-217.609 673.891,-206.081"/>
<polygon fill="midnightblue" stroke="midnightblue" points="674.33,-202.598 663.83,-204.009 672.919,-209.454 674.33,-202.598"/>
</g>
<!-- Node28 -->
<g id="node28" class="node"><title>Node28</title>
<g id="a_node28"><a xlink:href="QcInfoLogger_8h.html" target="_top" xlink:title="QualityControl/QcInfoLogger.h">
<polygon fill="none" stroke="black" points="1586,-123.5 1586,-142.5 1735,-142.5 1735,-123.5 1586,-123.5"/>
<text text-anchor="middle" x="1660.5" y="-130.5" font-family="Helvetica,sans-Serif" font-size="10.00">QualityControl/QcInfoLogger.h</text>
</a>
</g>
</g>
<!-- Node9&#45;&gt;Node28 -->
<g id="edge48" class="edge"><title>Node9&#45;&gt;Node28</title>
<path fill="none" stroke="midnightblue" d="M986.585,-246.728C989.595,-246.468 992.575,-246.224 995.5,-246 1038.64,-242.694 1743.62,-241.295 1773.5,-210 1783.01,-200.035 1781.23,-190.403 1773.5,-179 1762.45,-162.704 1744.46,-152.309 1726.04,-145.678"/>
<polygon fill="midnightblue" stroke="midnightblue" points="1727.01,-142.31 1716.41,-142.542 1724.84,-148.966 1727.01,-142.31"/>
</g>
<!-- Node30 -->
<g id="node30" class="node"><title>Node30</title>
<g id="a_node30"><a xlink:href="Check_8h_source.html" target="_top" xlink:title="QualityControl/Check.h">
<polygon fill="none" stroke="black" points="764,-185 764,-204 883,-204 883,-185 764,-185"/>
<text text-anchor="middle" x="823.5" y="-192" font-family="Helvetica,sans-Serif" font-size="10.00">QualityControl/Check.h</text>
</a>
</g>
</g>
<!-- Node9&#45;&gt;Node30 -->
<g id="edge50" class="edge"><title>Node9&#45;&gt;Node30</title>
<path fill="none" stroke="midnightblue" d="M898.892,-246.475C884.777,-236.931 861.669,-221.307 844.751,-209.868"/>
<polygon fill="midnightblue" stroke="midnightblue" points="846.329,-206.711 836.085,-204.009 842.409,-212.51 846.329,-206.711"/>
</g>
<!-- Node19&#45;&gt;Node4 -->
<g id="edge22" class="edge"><title>Node19&#45;&gt;Node4</title>
<path fill="none" stroke="midnightblue" d="M1327.43,-123.499C1260.06,-110.848 1129.07,-86.4667 1017.5,-67 921.192,-50.1957 896.923,-47.1269 800.5,-31 782.124,-27.9266 761.545,-24.4578 745.126,-21.6838"/>
<polygon fill="midnightblue" stroke="midnightblue" points="745.445,-18.1882 735.002,-19.9722 744.278,-25.0902 745.445,-18.1882"/>
</g>
<!-- Node19&#45;&gt;Node12 -->
<g id="edge23" class="edge"><title>Node19&#45;&gt;Node12</title>
<path fill="none" stroke="midnightblue" d="M1370.09,-123.319C1364.93,-104.673 1352.67,-60.443 1345.66,-35.1317"/>
<polygon fill="midnightblue" stroke="midnightblue" points="1348.98,-33.9845 1342.93,-25.282 1342.23,-35.8535 1348.98,-33.9845"/>
</g>
<!-- Node20 -->
<g id="node20" class="node"><title>Node20</title>
<polygon fill="none" stroke="#bfbfbf" points="926,-67.5 926,-86.5 1009,-86.5 1009,-67.5 926,-67.5"/>
<text text-anchor="middle" x="967.5" y="-74.5" font-family="Helvetica,sans-Serif" font-size="10.00">unordered_map</text>
</g>
<!-- Node19&#45;&gt;Node20 -->
<g id="edge24" class="edge"><title>Node19&#45;&gt;Node20</title>
<path fill="none" stroke="midnightblue" d="M1308.33,-123.444C1228.23,-112.764 1092.82,-94.7098 1019.1,-84.8796"/>
<polygon fill="midnightblue" stroke="midnightblue" points="1019.49,-81.4012 1009.12,-83.5488 1018.57,-88.3398 1019.49,-81.4012"/>
</g>
<!-- Node21 -->
<g id="node21" class="node"><title>Node21</title>
<polygon fill="none" stroke="#bfbfbf" points="1217.5,-6 1217.5,-25 1273.5,-25 1273.5,-6 1217.5,-6"/>
<text text-anchor="middle" x="1245.5" y="-13" font-family="Helvetica,sans-Serif" font-size="10.00">Rtypes.h</text>
</g>
<!-- Node19&#45;&gt;Node21 -->
<g id="edge25" class="edge"><title>Node19&#45;&gt;Node21</title>
<path fill="none" stroke="midnightblue" d="M1365.87,-123.484C1355.6,-110.548 1334.88,-85.4998 1314.5,-67 1299.71,-53.5778 1281.41,-40.3164 1267.37,-30.7535"/>
<polygon fill="midnightblue" stroke="midnightblue" points="1269.1,-27.6974 1258.84,-25.0389 1265.2,-33.5128 1269.1,-27.6974"/>
</g>
<!-- Node19&#45;&gt;Node22 -->
<g id="edge26" class="edge"><title>Node19&#45;&gt;Node22</title>
<path fill="none" stroke="midnightblue" d="M1293.8,-124.857C1182.2,-114.729 978.743,-96.2641 863.363,-85.7926"/>
<polygon fill="midnightblue" stroke="midnightblue" points="863.437,-82.285 853.161,-84.8668 862.804,-89.2564 863.437,-82.285"/>
</g>
<!-- Node25 -->
<g id="node25" class="node"><title>Node25</title>
<g id="a_node25"><a xlink:href="Quality_8h.html" target="_top" xlink:title="QualityControl/Quality.h">
<polygon fill="none" stroke="black" points="1185,-67.5 1185,-86.5 1306,-86.5 1306,-67.5 1185,-67.5"/>
<text text-anchor="middle" x="1245.5" y="-74.5" font-family="Helvetica,sans-Serif" font-size="10.00">QualityControl/Quality.h</text>
</a>
</g>
</g>
<!-- Node19&#45;&gt;Node25 -->
<g id="edge32" class="edge"><title>Node19&#45;&gt;Node25</title>
<path fill="none" stroke="midnightblue" d="M1352.38,-123.444C1331.48,-114.557 1298.57,-100.563 1274.78,-90.4514"/>
<polygon fill="midnightblue" stroke="midnightblue" points="1276.1,-87.2085 1265.53,-86.5164 1273.36,-93.6504 1276.1,-87.2085"/>
</g>
<!-- Node22&#45;&gt;Node4 -->
<g id="edge27" class="edge"><title>Node22&#45;&gt;Node4</title>
<path fill="none" stroke="midnightblue" d="M768.474,-67.4751C758.743,-58.285 743.042,-43.4563 731.077,-32.156"/>
<polygon fill="midnightblue" stroke="midnightblue" points="733.183,-29.3308 723.51,-25.0091 728.377,-34.4199 733.183,-29.3308"/>
</g>
<!-- Node22&#45;&gt;Node12 -->
<g id="edge28" class="edge"><title>Node22&#45;&gt;Node12</title>
<path fill="none" stroke="midnightblue" d="M853.473,-70.6926C973.622,-62.0515 1202.1,-44.5463 1282.5,-31 1292.57,-29.3029 1303.47,-26.768 1313.07,-24.2901"/>
<polygon fill="midnightblue" stroke="midnightblue" points="1314.13,-27.6314 1322.88,-21.6661 1312.32,-20.8692 1314.13,-27.6314"/>
</g>
<!-- Node22&#45;&gt;Node21 -->
<g id="edge29" class="edge"><title>Node22&#45;&gt;Node21</title>
<path fill="none" stroke="midnightblue" d="M844.553,-67.4751C944.089,-54.8204 1127.72,-31.4746 1207.18,-21.3713"/>
<polygon fill="midnightblue" stroke="midnightblue" points="1207.76,-24.826 1217.24,-20.0927 1206.88,-17.8819 1207.76,-24.826"/>
</g>
<!-- Node23 -->
<g id="node23" class="node"><title>Node23</title>
<polygon fill="none" stroke="#bfbfbf" points="810,-6 810,-25 869,-25 869,-6 810,-6"/>
<text text-anchor="middle" x="839.5" y="-13" font-family="Helvetica,sans-Serif" font-size="10.00">TObject.h</text>
</g>
<!-- Node22&#45;&gt;Node23 -->
<g id="edge30" class="edge"><title>Node22&#45;&gt;Node23</title>
<path fill="none" stroke="midnightblue" d="M786.383,-67.4751C795.959,-58.285 811.411,-43.4563 823.186,-32.156"/>
<polygon fill="midnightblue" stroke="midnightblue" points="825.842,-34.4585 830.633,-25.0091 820.995,-29.408 825.842,-34.4585"/>
</g>
<!-- Node24 -->
<g id="node24" class="node"><title>Node24</title>
<polygon fill="none" stroke="#bfbfbf" points="153.5,-6 153.5,-25 269.5,-25 269.5,-6 153.5,-6"/>
<text text-anchor="middle" x="211.5" y="-13" font-family="Helvetica,sans-Serif" font-size="10.00">Common/Exceptions.h</text>
</g>
<!-- Node22&#45;&gt;Node24 -->
<g id="edge31" class="edge"><title>Node22&#45;&gt;Node24</title>
<path fill="none" stroke="midnightblue" d="M701.754,-68.0373C590.864,-56.3801 385.994,-34.8435 279.612,-23.6601"/>
<polygon fill="midnightblue" stroke="midnightblue" points="279.942,-20.1756 269.63,-22.6109 279.21,-27.1373 279.942,-20.1756"/>
</g>
<!-- Node25&#45;&gt;Node4 -->
<g id="edge34" class="edge"><title>Node25&#45;&gt;Node4</title>
<path fill="none" stroke="midnightblue" d="M1184.89,-71.1523C1099.11,-64.0006 937.481,-49.4532 800.5,-31 782.159,-28.5292 761.728,-25.1124 745.383,-22.2162"/>
<polygon fill="midnightblue" stroke="midnightblue" points="745.756,-18.7273 735.295,-20.4033 744.518,-25.617 745.756,-18.7273"/>
</g>
<!-- Node25&#45;&gt;Node12 -->
<g id="edge35" class="edge"><title>Node25&#45;&gt;Node12</title>
<path fill="none" stroke="midnightblue" d="M1259.11,-67.4751C1274.56,-57.7989 1299.99,-41.8721 1318.32,-30.3941"/>
<polygon fill="midnightblue" stroke="midnightblue" points="1320.3,-33.2834 1326.91,-25.0091 1316.58,-27.3509 1320.3,-33.2834"/>
</g>
<!-- Node25&#45;&gt;Node21 -->
<g id="edge33" class="edge"><title>Node25&#45;&gt;Node21</title>
<path fill="none" stroke="midnightblue" d="M1245.5,-67.4751C1245.5,-59.0803 1245.5,-45.9806 1245.5,-35.1631"/>
<polygon fill="midnightblue" stroke="midnightblue" points="1249,-35.0091 1245.5,-25.0091 1242,-35.0091 1249,-35.0091"/>
</g>
<!-- Node26&#45;&gt;Node3 -->
<g id="edge39" class="edge"><title>Node26&#45;&gt;Node3</title>
<path fill="none" stroke="midnightblue" d="M611.468,-184.975C599.232,-175.52 579.271,-160.096 564.507,-148.687"/>
<polygon fill="midnightblue" stroke="midnightblue" points="566.565,-145.854 556.512,-142.509 562.285,-151.393 566.565,-145.854"/>
</g>
<!-- Node26&#45;&gt;Node4 -->
<g id="edge37" class="edge"><title>Node26&#45;&gt;Node4</title>
<path fill="none" stroke="midnightblue" d="M623.343,-184.907C624.92,-171.274 629.052,-144.072 638.5,-123 654.275,-87.8163 682.545,-52.466 699.804,-32.6397"/>
<polygon fill="midnightblue" stroke="midnightblue" points="702.44,-34.9424 706.458,-25.1389 697.204,-30.297 702.44,-34.9424"/>
</g>
<!-- Node26&#45;&gt;Node11 -->
<g id="edge38" class="edge"><title>Node26&#45;&gt;Node11</title>
<path fill="none" stroke="midnightblue" d="M637.257,-184.975C654.161,-175.211 682.083,-159.081 701.99,-147.581"/>
<polygon fill="midnightblue" stroke="midnightblue" points="703.862,-150.542 710.77,-142.509 700.36,-144.481 703.862,-150.542"/>
</g>
<!-- Node26&#45;&gt;Node20 -->
<g id="edge40" class="edge"><title>Node26&#45;&gt;Node20</title>
<path fill="none" stroke="midnightblue" d="M628.021,-184.846C638.283,-169.561 661.875,-137.984 690.5,-123 728.734,-102.986 846.702,-89.1219 915.74,-82.4808"/>
<polygon fill="midnightblue" stroke="midnightblue" points="916.341,-85.9397 925.968,-81.5152 915.683,-78.9706 916.341,-85.9397"/>
</g>
<!-- Node26&#45;&gt;Node22 -->
<g id="edge46" class="edge"><title>Node26&#45;&gt;Node22</title>
<path fill="none" stroke="midnightblue" d="M624.56,-184.864C628.494,-170.167 638.432,-140.216 657.5,-123 675.555,-106.7 700.073,-96.1148 722.241,-89.3365"/>
<polygon fill="midnightblue" stroke="midnightblue" points="723.25,-92.6885 731.9,-86.5712 721.323,-85.9588 723.25,-92.6885"/>
</g>
<!-- Node27 -->
<g id="node27" class="node"><title>Node27</title>
<g id="a_node27"><a xlink:href="QualityObject_8h_source.html" target="_top" xlink:title="QualityControl/QualityObject.h">
<polygon fill="none" stroke="black" points="1011,-123.5 1011,-142.5 1160,-142.5 1160,-123.5 1011,-123.5"/>
<text text-anchor="middle" x="1085.5" y="-130.5" font-family="Helvetica,sans-Serif" font-size="10.00">QualityControl/QualityObject.h</text>
</a>
</g>
</g>
<!-- Node26&#45;&gt;Node27 -->
<g id="edge41" class="edge"><title>Node26&#45;&gt;Node27</title>
<path fill="none" stroke="midnightblue" d="M688.837,-184.975C773.587,-174.084 919.958,-155.274 1009.23,-143.802"/>
<polygon fill="midnightblue" stroke="midnightblue" points="1009.81,-147.255 1019.29,-142.509 1008.92,-140.312 1009.81,-147.255"/>
</g>
<!-- Node27&#45;&gt;Node12 -->
<g id="edge42" class="edge"><title>Node27&#45;&gt;Node12</title>
<path fill="none" stroke="midnightblue" d="M1095.32,-123.213C1111.14,-109.457 1143.74,-82.7838 1175.5,-67 1199.87,-54.888 1272.76,-34.532 1313.02,-23.7342"/>
<polygon fill="midnightblue" stroke="midnightblue" points="1313.98,-27.101 1322.74,-21.1434 1312.18,-20.3372 1313.98,-27.101"/>
</g>
<!-- Node27&#45;&gt;Node23 -->
<g id="edge43" class="edge"><title>Node27&#45;&gt;Node23</title>
<path fill="none" stroke="midnightblue" d="M1078.94,-123.461C1067.82,-109.562 1043.87,-82.0841 1017.5,-67 973.792,-41.9948 916.868,-28.6774 879.303,-22.1099"/>
<polygon fill="midnightblue" stroke="midnightblue" points="879.688,-18.6259 869.248,-20.4325 878.536,-25.5304 879.688,-18.6259"/>
</g>
<!-- Node27&#45;&gt;Node24 -->
<g id="edge44" class="edge"><title>Node27&#45;&gt;Node24</title>
<path fill="none" stroke="midnightblue" d="M1010.8,-124.156C931.683,-115.681 803.159,-101.441 692.5,-87 543.067,-67.4984 368.089,-40.9037 275.897,-26.5978"/>
<polygon fill="midnightblue" stroke="midnightblue" points="276.303,-23.1189 265.884,-25.0418 275.228,-30.0359 276.303,-23.1189"/>
</g>
<!-- Node27&#45;&gt;Node25 -->
<g id="edge45" class="edge"><title>Node27&#45;&gt;Node25</title>
<path fill="none" stroke="midnightblue" d="M1110.85,-123.444C1137.77,-114.359 1180.5,-99.9388 1210.59,-89.7831"/>
<polygon fill="midnightblue" stroke="midnightblue" points="1211.91,-93.0305 1220.27,-86.5164 1209.67,-86.3981 1211.91,-93.0305"/>
</g>
<!-- Node29 -->
<g id="node29" class="node"><title>Node29</title>
<polygon fill="none" stroke="#bfbfbf" points="1595.5,-67.5 1595.5,-86.5 1725.5,-86.5 1725.5,-67.5 1595.5,-67.5"/>
<text text-anchor="middle" x="1660.5" y="-74.5" font-family="Helvetica,sans-Serif" font-size="10.00">InfoLogger/InfoLogger.hxx</text>
</g>
<!-- Node28&#45;&gt;Node29 -->
<g id="edge49" class="edge"><title>Node28&#45;&gt;Node29</title>
<path fill="none" stroke="midnightblue" d="M1660.5,-123.083C1660.5,-116.006 1660.5,-105.861 1660.5,-96.9865"/>
<polygon fill="midnightblue" stroke="midnightblue" points="1664,-96.751 1660.5,-86.7511 1657,-96.7511 1664,-96.751"/>
</g>
<!-- Node30&#45;&gt;Node3 -->
<g id="edge53" class="edge"><title>Node30&#45;&gt;Node3</title>
<path fill="none" stroke="midnightblue" d="M783.669,-184.975C728.188,-173.101 628.724,-151.812 577.669,-140.885"/>
<polygon fill="midnightblue" stroke="midnightblue" points="578.348,-137.451 567.837,-138.781 576.883,-144.296 578.348,-137.451"/>
</g>
<!-- Node30&#45;&gt;Node6 -->
<g id="edge56" class="edge"><title>Node30&#45;&gt;Node6</title>
<path fill="none" stroke="midnightblue" d="M766.19,-184.975C693.417,-174.15 568.053,-155.502 490.808,-144.012"/>
<polygon fill="midnightblue" stroke="midnightblue" points="491.11,-140.519 480.704,-142.509 490.08,-147.442 491.11,-140.519"/>
</g>
<!-- Node30&#45;&gt;Node11 -->
<g id="edge54" class="edge"><title>Node30&#45;&gt;Node11</title>
<path fill="none" stroke="midnightblue" d="M809.459,-184.975C793.449,-175.255 767.05,-159.227 748.126,-147.737"/>
<polygon fill="midnightblue" stroke="midnightblue" points="749.879,-144.707 739.515,-142.509 746.246,-150.691 749.879,-144.707"/>
</g>
<!-- Node30&#45;&gt;Node12 -->
<g id="edge52" class="edge"><title>Node30&#45;&gt;Node12</title>
<path fill="none" stroke="midnightblue" d="M881.168,-184.967C897.123,-182.802 914.461,-180.631 930.5,-179 989.112,-173.041 1419.28,-186.049 1459.5,-143 1498.8,-100.935 1413.29,-51.2548 1367.28,-28.7138"/>
<polygon fill="midnightblue" stroke="midnightblue" points="1368.65,-25.4897 1358.12,-24.3283 1365.63,-31.8034 1368.65,-25.4897"/>
</g>
<!-- Node30&#45;&gt;Node19 -->
<g id="edge60" class="edge"><title>Node30&#45;&gt;Node19</title>
<path fill="none" stroke="midnightblue" d="M863.316,-184.943C874.35,-182.778 886.357,-180.613 897.5,-179 1066.27,-154.574 1109.74,-159.213 1279.5,-143 1280.82,-142.874 1282.14,-142.747 1283.48,-142.619"/>
<polygon fill="midnightblue" stroke="midnightblue" points="1284.24,-146.063 1293.86,-141.625 1283.57,-139.095 1284.24,-146.063"/>
</g>
<!-- Node30&#45;&gt;Node20 -->
<g id="edge55" class="edge"><title>Node30&#45;&gt;Node20</title>
<path fill="none" stroke="midnightblue" d="M860.847,-184.935C897.895,-175.62 950.912,-159.801 963.5,-143 973.343,-129.863 973.308,-110.72 971.433,-96.6092"/>
<polygon fill="midnightblue" stroke="midnightblue" points="974.851,-95.8341 969.689,-86.5819 967.955,-97.0338 974.851,-95.8341"/>
</g>
<!-- Node30&#45;&gt;Node22 -->
<g id="edge59" class="edge"><title>Node30&#45;&gt;Node22</title>
<path fill="none" stroke="midnightblue" d="M818.67,-184.742C813.312,-174.812 804.615,-158.044 798.5,-143 792.22,-127.551 786.503,-109.461 782.625,-96.2933"/>
<polygon fill="midnightblue" stroke="midnightblue" points="785.953,-95.2014 779.828,-86.5562 779.225,-97.1339 785.953,-95.2014"/>
</g>
<!-- Node30&#45;&gt;Node25 -->
<g id="edge57" class="edge"><title>Node30&#45;&gt;Node25</title>
<path fill="none" stroke="midnightblue" d="M863.712,-184.935C874.639,-182.795 886.494,-180.644 897.5,-179 974.393,-167.513 1193.43,-200.734 1245.5,-143 1256.58,-130.713 1254.97,-111.178 1251.57,-96.7279"/>
<polygon fill="midnightblue" stroke="midnightblue" points="1254.87,-95.5542 1248.8,-86.8736 1248.14,-97.4476 1254.87,-95.5542"/>
</g>
<!-- Node30&#45;&gt;Node27 -->
<g id="edge58" class="edge"><title>Node30&#45;&gt;Node27</title>
<path fill="none" stroke="midnightblue" d="M861.038,-184.975C907.731,-174.371 987.48,-156.26 1038.28,-144.724"/>
<polygon fill="midnightblue" stroke="midnightblue" points="1039.05,-148.137 1048.03,-142.509 1037.5,-141.311 1039.05,-148.137"/>
</g>
<!-- Node30&#45;&gt;Node28 -->
<g id="edge61" class="edge"><title>Node30&#45;&gt;Node28</title>
<path fill="none" stroke="midnightblue" d="M880.606,-184.975C896.713,-182.784 914.269,-180.598 930.5,-179 993.177,-172.83 1397.16,-149.196 1575.78,-138.872"/>
<polygon fill="midnightblue" stroke="midnightblue" points="1576.14,-142.357 1585.92,-138.286 1575.74,-135.369 1576.14,-142.357"/>
</g>
<!-- Node31 -->
<g id="node31" class="node"><title>Node31</title>
<polygon fill="none" stroke="#bfbfbf" points="1178,-123.5 1178,-142.5 1237,-142.5 1237,-123.5 1178,-123.5"/>
<text text-anchor="middle" x="1207.5" y="-130.5" font-family="Helvetica,sans-Serif" font-size="10.00">functional</text>
</g>
<!-- Node30&#45;&gt;Node31 -->
<g id="edge51" class="edge"><title>Node30&#45;&gt;Node31</title>
<path fill="none" stroke="midnightblue" d="M864.518,-184.997C875.229,-182.904 886.778,-180.761 897.5,-179 1014.23,-159.828 1047.22,-164.419 1167.76,-142.972"/>
<polygon fill="midnightblue" stroke="midnightblue" points="1168.53,-146.39 1177.75,-141.171 1167.29,-139.501 1168.53,-146.39"/>
</g>
<!-- Node32 -->
<g id="node32" class="node"><title>Node32</title>
<g id="a_node32"><a xlink:href="CheckConfig_8h.html" target="_top" xlink:title="QualityControl/CheckConfig.h">
<polygon fill="none" stroke="black" points="808,-123.5 808,-142.5 955,-142.5 955,-123.5 808,-123.5"/>
<text text-anchor="middle" x="881.5" y="-130.5" font-family="Helvetica,sans-Serif" font-size="10.00">QualityControl/CheckConfig.h</text>
</a>
</g>
</g>
<!-- Node30&#45;&gt;Node32 -->
<g id="edge62" class="edge"><title>Node30&#45;&gt;Node32</title>
<path fill="none" stroke="midnightblue" d="M831.81,-184.975C840.682,-175.873 854.946,-161.241 865.92,-149.983"/>
<polygon fill="midnightblue" stroke="midnightblue" points="868.731,-152.113 873.205,-142.509 863.719,-147.227 868.731,-152.113"/>
</g>
<!-- Node32&#45;&gt;Node4 -->
<g id="edge63" class="edge"><title>Node32&#45;&gt;Node4</title>
<path fill="none" stroke="midnightblue" d="M881.23,-123.171C880.332,-109.359 876.611,-82.6085 861.5,-67 830.506,-34.9851 778.334,-23.2601 745.201,-18.9701"/>
<polygon fill="midnightblue" stroke="midnightblue" points="745.496,-15.4812 735.164,-17.8222 744.701,-22.4358 745.496,-15.4812"/>
</g>
<!-- Node32&#45;&gt;Node20 -->
<g id="edge64" class="edge"><title>Node32&#45;&gt;Node20</title>
<path fill="none" stroke="midnightblue" d="M895.317,-123.324C908.733,-114.9 929.324,-101.971 945.086,-92.0741"/>
<polygon fill="midnightblue" stroke="midnightblue" points="947.109,-94.9364 953.717,-86.6545 943.387,-89.0081 947.109,-94.9364"/>
</g>
<!-- Node33&#45;&gt;Node4 -->
<g id="edge66" class="edge"><title>Node33&#45;&gt;Node4</title>
<path fill="none" stroke="midnightblue" d="M148.059,-69.5759C284.84,-56.7594 586.811,-28.4645 683.838,-19.3731"/>
<polygon fill="midnightblue" stroke="midnightblue" points="684.236,-22.8511 693.866,-18.4334 683.583,-15.8817 684.236,-22.8511"/>
</g>
<!-- Node33&#45;&gt;Node24 -->
<g id="edge68" class="edge"><title>Node33&#45;&gt;Node24</title>
<path fill="none" stroke="midnightblue" d="M98.4124,-67.4751C120.663,-57.4455 157.812,-40.7002 183.426,-29.1546"/>
<polygon fill="midnightblue" stroke="midnightblue" points="184.944,-32.3094 192.623,-25.0091 182.068,-25.9277 184.944,-32.3094"/>
</g>
<!-- Node34 -->
<g id="node34" class="node"><title>Node34</title>
<polygon fill="none" stroke="#bfbfbf" points="0,-0.5 0,-30.5 135,-30.5 135,-0.5 0,-0.5"/>
<text text-anchor="start" x="8" y="-18.5" font-family="Helvetica,sans-Serif" font-size="10.00">Configuration/Configuration</text>
<text text-anchor="middle" x="67.5" y="-7.5" font-family="Helvetica,sans-Serif" font-size="10.00">Factory.h</text>
</g>
<!-- Node33&#45;&gt;Node34 -->
<g id="edge67" class="edge"><title>Node33&#45;&gt;Node34</title>
<path fill="none" stroke="midnightblue" d="M77.7807,-67.4751C76.3529,-60.3957 74.2503,-49.9705 72.3181,-40.3896"/>
<polygon fill="midnightblue" stroke="midnightblue" points="75.7362,-39.6336 70.3282,-30.523 68.8743,-41.0176 75.7362,-39.6336"/>
</g>
</g>
</svg>
