<?xml version="1.0" encoding="UTF-8" standalone="no"?>
<!DOCTYPE svg PUBLIC "-//W3C//DTD SVG 1.1//EN"
 "http://www.w3.org/Graphics/SVG/1.1/DTD/svg11.dtd">
<!-- Generated by graphviz version 2.38.0 (20140413.2041)
 -->
<!-- Title: Framework/test/testTrendingTask.cxx Pages: 1 -->
<!--zoomable 363 -->
<svg id="main" version="1.1" xmlns="http://www.w3.org/2000/svg" xmlns:xlink="http://www.w3.org/1999/xlink" xml:space="preserve" onload="init(evt)">
<style type="text/css"><![CDATA[
.edge:hover path { stroke: red; }
.edge:hover polygon { stroke: red; fill: red; }
]]></style>
<script type="text/javascript"><![CDATA[
var edges = document.getElementsByTagName('g');
if (edges && edges.length) {
  for (var i=0;i<edges.length;i++) {
    if (edges[i].id.substr(0,4)=='edge') {
      edges[i].setAttribute('class','edge');
    }
  }
}
]]></script>
        <defs>
                <circle id="rim" cx="0" cy="0" r="7"/>
                <circle id="rim2" cx="0" cy="0" r="3.5"/>
                <g id="zoomPlus">
                        <use xlink:href="#rim" fill="#404040">
                                <set attributeName="fill" to="#808080" begin="zoomplus.mouseover" end="zoomplus.mouseout"/>
                        </use>
                        <path d="M-4,0h8M0,-4v8" fill="none" stroke="white" stroke-width="1.5" pointer-events="none"/>
                </g>
                <g id="zoomMin">
                        <use xlink:href="#rim" fill="#404040">
                                <set attributeName="fill" to="#808080" begin="zoomminus.mouseover" end="zoomminus.mouseout"/>
                        </use>
                        <path d="M-4,0h8" fill="none" stroke="white" stroke-width="1.5" pointer-events="none"/>
                </g>
                <g id="dirArrow">
                        <path fill="none" stroke="white" stroke-width="1.5" d="M0,-3.0v7 M-2.5,-0.5L0,-3.0L2.5,-0.5"/>
                </g>
               <g id="resetDef">
                       <use xlink:href="#rim2" fill="#404040">
                               <set attributeName="fill" to="#808080" begin="reset.mouseover" end="reset.mouseout"/>
                       </use>
               </g>
        </defs>

<script type="text/javascript">
var viewWidth = 1436;
var viewHeight = 363;
var sectionId = 'dynsection-0';
</script>
<script xlink:href="svgpan.js"/>
<svg id="graph" class="graph">
<g id="viewport">
<title>Framework/test/testTrendingTask.cxx</title>
<!-- Node1 -->
<g id="node1" class="node"><title>Node1</title>
<polygon fill="#bfbfbf" stroke="black" points="757.5,-324.5 757.5,-354.5 899.5,-354.5 899.5,-324.5 757.5,-324.5"/>
<text text-anchor="start" x="765.5" y="-342.5" font-family="Helvetica,sans-Serif" font-size="10.00">Framework/test/testTrending</text>
<text text-anchor="middle" x="828.5" y="-331.5" font-family="Helvetica,sans-Serif" font-size="10.00">Task.cxx</text>
</g>
<!-- Node2 -->
<g id="node2" class="node"><title>Node2</title>
<polygon fill="none" stroke="#bfbfbf" points="0,-263 0,-282 119,-282 119,-263 0,-263"/>
<text text-anchor="middle" x="59.5" y="-270" font-family="Helvetica,sans-Serif" font-size="10.00">getTestDataDirectory.h</text>
</g>
<!-- Node1&#45;&gt;Node2 -->
<g id="edge1" class="edge"><title>Node1&#45;&gt;Node2</title>
<path fill="none" stroke="midnightblue" d="M757.173,-336.165C630.942,-331.398 360.128,-318.324 133.5,-288 125.382,-286.914 116.812,-285.492 108.496,-283.965"/>
<polygon fill="midnightblue" stroke="midnightblue" points="109.005,-280.499 98.5262,-282.064 107.694,-287.375 109.005,-280.499"/>
</g>
<!-- Node3 -->
<g id="node3" class="node"><title>Node3</title>
<g id="a_node3"><a xlink:href="TrendingTask_8h.html" target="_top" xlink:title="QualityControl/TrendingTask.h">
<polygon fill="none" stroke="black" points="602,-201.5 602,-220.5 751,-220.5 751,-201.5 602,-201.5"/>
<text text-anchor="middle" x="676.5" y="-208.5" font-family="Helvetica,sans-Serif" font-size="10.00">QualityControl/TrendingTask.h</text>
</a>
</g>
</g>
<!-- Node1&#45;&gt;Node3 -->
<g id="edge2" class="edge"><title>Node1&#45;&gt;Node3</title>
<path fill="none" stroke="midnightblue" d="M796.261,-324.432C777.931,-315.534 755.181,-302.909 737.5,-288 717.173,-270.86 698.814,-246.123 687.668,-229.575"/>
<polygon fill="midnightblue" stroke="midnightblue" points="690.389,-227.341 681.978,-220.898 684.535,-231.18 690.389,-227.341"/>
</g>
<!-- Node6 -->
<g id="node6" class="node"><title>Node6</title>
<polygon fill="none" stroke="#bfbfbf" points="74.5,-73 74.5,-92 220.5,-92 220.5,-73 74.5,-73"/>
<text text-anchor="middle" x="147.5" y="-80" font-family="Helvetica,sans-Serif" font-size="10.00">Framework/ServiceRegistry.h</text>
</g>
<!-- Node1&#45;&gt;Node6 -->
<g id="edge45" class="edge"><title>Node1&#45;&gt;Node6</title>
<path fill="none" stroke="midnightblue" d="M757.19,-337.058C669.587,-333.746 517.135,-322.953 391.5,-288 322.328,-268.755 302.098,-263.867 244.5,-221 200.877,-188.534 169.408,-130.586 155.482,-101.377"/>
<polygon fill="midnightblue" stroke="midnightblue" points="158.528,-99.6245 151.155,-92.016 152.174,-102.562 158.528,-99.6245"/>
</g>
<!-- Node8 -->
<g id="node8" class="node"><title>Node8</title>
<g id="a_node8"><a xlink:href="Triggers_8h.html" target="_top" xlink:title="QualityControl/Triggers.h">
<polygon fill="none" stroke="black" points="239,-73 239,-92 364,-92 364,-73 239,-73"/>
<text text-anchor="middle" x="301.5" y="-80" font-family="Helvetica,sans-Serif" font-size="10.00">QualityControl/Triggers.h</text>
</a>
</g>
</g>
<!-- Node1&#45;&gt;Node8 -->
<g id="edge44" class="edge"><title>Node1&#45;&gt;Node8</title>
<path fill="none" stroke="midnightblue" d="M757.294,-329.467C608.299,-308.95 271.851,-253.632 204.5,-165 196.164,-154.03 197.353,-145.779 204.5,-134 215.79,-115.393 236.419,-103.325 255.759,-95.6692"/>
<polygon fill="midnightblue" stroke="midnightblue" points="257.202,-98.8686 265.4,-92.1568 254.806,-92.2915 257.202,-98.8686"/>
</g>
<!-- Node18 -->
<g id="node18" class="node"><title>Node18</title>
<g id="a_node18"><a xlink:href="DatabaseFactory_8h.html" target="_top" xlink:title="QualityControl/DatabaseFactory.h">
<polygon fill="none" stroke="black" points="746,-263 746,-282 911,-282 911,-263 746,-263"/>
<text text-anchor="middle" x="828.5" y="-270" font-family="Helvetica,sans-Serif" font-size="10.00">QualityControl/DatabaseFactory.h</text>
</a>
</g>
</g>
<!-- Node1&#45;&gt;Node18 -->
<g id="edge22" class="edge"><title>Node1&#45;&gt;Node18</title>
<path fill="none" stroke="midnightblue" d="M828.5,-324.396C828.5,-315.064 828.5,-302.714 828.5,-292.517"/>
<polygon fill="midnightblue" stroke="midnightblue" points="832,-292.195 828.5,-282.195 825,-292.195 832,-292.195"/>
</g>
<!-- Node25 -->
<g id="node25" class="node"><title>Node25</title>
<g id="a_node25"><a xlink:href="MonitorObject_8h.html" target="_top" xlink:title="QualityControl/MonitorObject.h">
<polygon fill="none" stroke="black" points="1221,-140 1221,-159 1372,-159 1372,-140 1221,-140"/>
<text text-anchor="middle" x="1296.5" y="-147" font-family="Helvetica,sans-Serif" font-size="10.00">QualityControl/MonitorObject.h</text>
</a>
</g>
</g>
<!-- Node1&#45;&gt;Node25 -->
<g id="edge43" class="edge"><title>Node1&#45;&gt;Node25</title>
<path fill="none" stroke="midnightblue" d="M859.228,-324.452C895.938,-307.804 959.325,-279.489 1014.5,-257 1103.51,-220.721 1209.95,-181.681 1263,-162.515"/>
<polygon fill="midnightblue" stroke="midnightblue" points="1264.35,-165.747 1272.57,-159.063 1261.97,-159.163 1264.35,-165.747"/>
</g>
<!-- Node26 -->
<g id="node26" class="node"><title>Node26</title>
<polygon fill="none" stroke="#bfbfbf" points="1023,-257.5 1023,-287.5 1158,-287.5 1158,-257.5 1023,-257.5"/>
<text text-anchor="start" x="1031" y="-275.5" font-family="Helvetica,sans-Serif" font-size="10.00">Configuration/Configuration</text>
<text text-anchor="middle" x="1090.5" y="-264.5" font-family="Helvetica,sans-Serif" font-size="10.00">Factory.h</text>
</g>
<!-- Node1&#45;&gt;Node26 -->
<g id="edge46" class="edge"><title>Node1&#45;&gt;Node26</title>
<path fill="none" stroke="midnightblue" d="M885.028,-324.476C925.779,-314.366 980.929,-300.684 1023.83,-290.04"/>
<polygon fill="midnightblue" stroke="midnightblue" points="1024.76,-293.416 1033.62,-287.611 1023.07,-286.622 1024.76,-293.416"/>
</g>
<!-- Node27 -->
<g id="node27" class="node"><title>Node27</title>
<polygon fill="none" stroke="#bfbfbf" points="1176,-263 1176,-282 1223,-282 1223,-263 1176,-263"/>
<text text-anchor="middle" x="1199.5" y="-270" font-family="Helvetica,sans-Serif" font-size="10.00">TH1I.h</text>
</g>
<!-- Node1&#45;&gt;Node27 -->
<g id="edge47" class="edge"><title>Node1&#45;&gt;Node27</title>
<path fill="none" stroke="midnightblue" d="M899.526,-333.68C968.983,-327.631 1077.18,-314.625 1167.5,-288 1169.43,-287.431 1171.4,-286.768 1173.35,-286.044"/>
<polygon fill="midnightblue" stroke="midnightblue" points="1175.01,-289.147 1182.9,-282.077 1172.32,-282.684 1175.01,-289.147"/>
</g>
<!-- Node28 -->
<g id="node28" class="node"><title>Node28</title>
<polygon fill="none" stroke="#bfbfbf" points="1241,-263 1241,-282 1360,-282 1360,-263 1241,-263"/>
<text text-anchor="middle" x="1300.5" y="-270" font-family="Helvetica,sans-Serif" font-size="10.00">boost/test/unit_test.hpp</text>
</g>
<!-- Node1&#45;&gt;Node28 -->
<g id="edge48" class="edge"><title>Node1&#45;&gt;Node28</title>
<path fill="none" stroke="midnightblue" d="M899.559,-331.481C980.462,-323.059 1116.45,-307.589 1232.5,-288 1239.22,-286.866 1246.28,-285.527 1253.2,-284.129"/>
<polygon fill="midnightblue" stroke="midnightblue" points="1254.12,-287.514 1263.2,-282.056 1252.7,-280.66 1254.12,-287.514"/>
</g>
<!-- Node4 -->
<g id="node4" class="node"><title>Node4</title>
<g id="a_node4"><a xlink:href="PostProcessingInterface_8h.html" target="_top" xlink:title="QualityControl/PostProcessing\lInterface.h">
<polygon fill="none" stroke="black" points="214,-134.5 214,-164.5 365,-164.5 365,-134.5 214,-134.5"/>
<text text-anchor="start" x="222" y="-152.5" font-family="Helvetica,sans-Serif" font-size="10.00">QualityControl/PostProcessing</text>
<text text-anchor="middle" x="289.5" y="-141.5" font-family="Helvetica,sans-Serif" font-size="10.00">Interface.h</text>
</a>
</g>
</g>
<!-- Node3&#45;&gt;Node4 -->
<g id="edge3" class="edge"><title>Node3&#45;&gt;Node4</title>
<path fill="none" stroke="midnightblue" d="M616.849,-201.49C558.092,-193.021 465.504,-179.449 375.177,-165.088"/>
<polygon fill="midnightblue" stroke="midnightblue" points="375.457,-161.588 365.03,-163.469 374.354,-168.501 375.457,-161.588"/>
</g>
<!-- Node10 -->
<g id="node10" class="node"><title>Node10</title>
<g id="a_node10"><a xlink:href="TrendingTaskConfig_8h.html" target="_top" xlink:title="QualityControl/TrendingTask\lConfig.h">
<polygon fill="none" stroke="black" points="452,-134.5 452,-164.5 593,-164.5 593,-134.5 452,-134.5"/>
<text text-anchor="start" x="460" y="-152.5" font-family="Helvetica,sans-Serif" font-size="10.00">QualityControl/TrendingTask</text>
<text text-anchor="middle" x="522.5" y="-141.5" font-family="Helvetica,sans-Serif" font-size="10.00">Config.h</text>
</a>
</g>
</g>
<!-- Node3&#45;&gt;Node10 -->
<g id="edge10" class="edge"><title>Node3&#45;&gt;Node10</title>
<path fill="none" stroke="midnightblue" d="M654.436,-201.475C632.019,-192.814 596.641,-179.145 568.16,-168.141"/>
<polygon fill="midnightblue" stroke="midnightblue" points="569.384,-164.862 558.795,-164.523 566.861,-171.392 569.384,-164.862"/>
</g>
<!-- Node13 -->
<g id="node13" class="node"><title>Node13</title>
<g id="a_node13"><a xlink:href="Reductor_8h.html" target="_top" xlink:title="QualityControl/Reductor.h">
<polygon fill="none" stroke="black" points="611.5,-140 611.5,-159 741.5,-159 741.5,-140 611.5,-140"/>
<text text-anchor="middle" x="676.5" y="-147" font-family="Helvetica,sans-Serif" font-size="10.00">QualityControl/Reductor.h</text>
</a>
</g>
</g>
<!-- Node3&#45;&gt;Node13 -->
<g id="edge17" class="edge"><title>Node3&#45;&gt;Node13</title>
<path fill="none" stroke="midnightblue" d="M676.5,-201.475C676.5,-193.08 676.5,-179.981 676.5,-169.163"/>
<polygon fill="midnightblue" stroke="midnightblue" points="680,-169.009 676.5,-159.009 673,-169.009 680,-169.009"/>
</g>
<!-- Node15 -->
<g id="node15" class="node"><title>Node15</title>
<polygon fill="none" stroke="#bfbfbf" points="861.5,-140 861.5,-159 913.5,-159 913.5,-140 861.5,-140"/>
<text text-anchor="middle" x="887.5" y="-147" font-family="Helvetica,sans-Serif" font-size="10.00">memory</text>
</g>
<!-- Node3&#45;&gt;Node15 -->
<g id="edge19" class="edge"><title>Node3&#45;&gt;Node15</title>
<path fill="none" stroke="midnightblue" d="M716.461,-201.493C752.442,-193.43 806.569,-180.299 852.5,-165 854.419,-164.361 856.382,-163.666 858.35,-162.938"/>
<polygon fill="midnightblue" stroke="midnightblue" points="860.033,-166.038 868.064,-159.128 857.477,-159.521 860.033,-166.038"/>
</g>
<!-- Node16 -->
<g id="node16" class="node"><title>Node16</title>
<polygon fill="none" stroke="#bfbfbf" points="760,-140 760,-159 843,-159 843,-140 760,-140"/>
<text text-anchor="middle" x="801.5" y="-147" font-family="Helvetica,sans-Serif" font-size="10.00">unordered_map</text>
</g>
<!-- Node3&#45;&gt;Node16 -->
<g id="edge20" class="edge"><title>Node3&#45;&gt;Node16</title>
<path fill="none" stroke="midnightblue" d="M694.409,-201.475C715.387,-191.49 750.35,-174.848 774.593,-163.307"/>
<polygon fill="midnightblue" stroke="midnightblue" points="776.099,-166.467 783.624,-159.009 773.09,-160.147 776.099,-166.467"/>
</g>
<!-- Node17 -->
<g id="node17" class="node"><title>Node17</title>
<polygon fill="none" stroke="#bfbfbf" points="383.5,-140 383.5,-159 433.5,-159 433.5,-140 383.5,-140"/>
<text text-anchor="middle" x="408.5" y="-147" font-family="Helvetica,sans-Serif" font-size="10.00">TTree.h</text>
</g>
<!-- Node3&#45;&gt;Node17 -->
<g id="edge21" class="edge"><title>Node3&#45;&gt;Node17</title>
<path fill="none" stroke="midnightblue" d="M614.357,-201.496C566.939,-194.17 500.319,-182.065 443.5,-165 441.215,-164.314 438.874,-163.53 436.54,-162.692"/>
<polygon fill="midnightblue" stroke="midnightblue" points="437.726,-159.398 427.137,-159.038 435.19,-165.923 437.726,-159.398"/>
</g>
<!-- Node5 -->
<g id="node5" class="node"><title>Node5</title>
<polygon fill="none" stroke="#bfbfbf" points="681,-6 681,-25 722,-25 722,-6 681,-6"/>
<text text-anchor="middle" x="701.5" y="-13" font-family="Helvetica,sans-Serif" font-size="10.00">string</text>
</g>
<!-- Node4&#45;&gt;Node5 -->
<g id="edge4" class="edge"><title>Node4&#45;&gt;Node5</title>
<path fill="none" stroke="midnightblue" d="M365.039,-135.587C368.235,-135.049 371.399,-134.518 374.5,-134 472.223,-117.669 505.641,-141.824 594.5,-98 612.548,-89.0993 611.809,-79.5984 627.5,-67 644.072,-53.6944 664.035,-40.2056 679.049,-30.5198"/>
<polygon fill="midnightblue" stroke="midnightblue" points="681.131,-33.3429 687.682,-25.0161 677.368,-27.4402 681.131,-33.3429"/>
</g>
<!-- Node4&#45;&gt;Node6 -->
<g id="edge5" class="edge"><title>Node4&#45;&gt;Node6</title>
<path fill="none" stroke="midnightblue" d="M258.688,-134.396C233.883,-123.041 199.319,-107.22 175.34,-96.2437"/>
<polygon fill="midnightblue" stroke="midnightblue" points="176.634,-92.9868 166.085,-92.007 173.72,-99.3516 176.634,-92.9868"/>
</g>
<!-- Node7 -->
<g id="node7" class="node"><title>Node7</title>
<polygon fill="none" stroke="#bfbfbf" points="404,-0.5 404,-30.5 505,-30.5 505,-0.5 404,-0.5"/>
<text text-anchor="start" x="412" y="-18.5" font-family="Helvetica,sans-Serif" font-size="10.00">boost/property_tree</text>
<text text-anchor="middle" x="454.5" y="-7.5" font-family="Helvetica,sans-Serif" font-size="10.00">/ptree_fwd.hpp</text>
</g>
<!-- Node4&#45;&gt;Node7 -->
<g id="edge6" class="edge"><title>Node4&#45;&gt;Node7</title>
<path fill="none" stroke="midnightblue" d="M316.706,-134.399C333.713,-125.048 355.69,-111.963 373.5,-98 396.571,-79.9133 419.846,-55.7358 435.488,-38.42"/>
<polygon fill="midnightblue" stroke="midnightblue" points="438.481,-40.3224 442.519,-30.5275 433.254,-35.6659 438.481,-40.3224"/>
</g>
<!-- Node4&#45;&gt;Node8 -->
<g id="edge7" class="edge"><title>Node4&#45;&gt;Node8</title>
<path fill="none" stroke="midnightblue" d="M292.104,-134.396C293.845,-124.963 296.156,-112.448 298.05,-102.189"/>
<polygon fill="midnightblue" stroke="midnightblue" points="301.521,-102.664 299.895,-92.1945 294.637,-101.393 301.521,-102.664"/>
</g>
<!-- Node8&#45;&gt;Node5 -->
<g id="edge8" class="edge"><title>Node8&#45;&gt;Node5</title>
<path fill="none" stroke="midnightblue" d="M364.073,-74.0472C461.863,-62.2364 642.754,-39.6702 671.5,-31 673.175,-30.4947 674.874,-29.9063 676.566,-29.2616"/>
<polygon fill="midnightblue" stroke="midnightblue" points="678.235,-32.3521 685.994,-25.1386 675.43,-25.9385 678.235,-32.3521"/>
</g>
<!-- Node9 -->
<g id="node9" class="node"><title>Node9</title>
<polygon fill="none" stroke="#bfbfbf" points="272,-6 272,-25 331,-25 331,-6 272,-6"/>
<text text-anchor="middle" x="301.5" y="-13" font-family="Helvetica,sans-Serif" font-size="10.00">functional</text>
</g>
<!-- Node8&#45;&gt;Node9 -->
<g id="edge9" class="edge"><title>Node8&#45;&gt;Node9</title>
<path fill="none" stroke="midnightblue" d="M301.5,-72.7338C301.5,-63.1826 301.5,-47.6183 301.5,-35.2829"/>
<polygon fill="midnightblue" stroke="midnightblue" points="305,-35.1273 301.5,-25.1273 298,-35.1273 305,-35.1273"/>
</g>
<!-- Node10&#45;&gt;Node5 -->
<g id="edge12" class="edge"><title>Node10&#45;&gt;Node5</title>
<path fill="none" stroke="midnightblue" d="M555.002,-134.328C574.275,-125.226 598.722,-112.429 618.5,-98 645.28,-78.4635 671.84,-50.4746 687.453,-32.9038"/>
<polygon fill="midnightblue" stroke="midnightblue" points="690.244,-35.0295 694.191,-25.1976 684.974,-30.4218 690.244,-35.0295"/>
</g>
<!-- Node11 -->
<g id="node11" class="node"><title>Node11</title>
<polygon fill="none" stroke="#bfbfbf" points="618.5,-6 618.5,-25 662.5,-25 662.5,-6 618.5,-6"/>
<text text-anchor="middle" x="640.5" y="-13" font-family="Helvetica,sans-Serif" font-size="10.00">vector</text>
</g>
<!-- Node10&#45;&gt;Node11 -->
<g id="edge11" class="edge"><title>Node10&#45;&gt;Node11</title>
<path fill="none" stroke="midnightblue" d="M548.31,-134.319C563.091,-125.3 581.27,-112.591 594.5,-98 611.762,-78.9615 625.253,-52.3366 633.044,-34.7679"/>
<polygon fill="midnightblue" stroke="midnightblue" points="636.443,-35.7198 637.141,-25.148 630.002,-32.9771 636.443,-35.7198"/>
</g>
<!-- Node12 -->
<g id="node12" class="node"><title>Node12</title>
<g id="a_node12"><a xlink:href="PostProcessingConfig_8h.html" target="_top" xlink:title="QualityControl/PostProcessing\lConfig.h">
<polygon fill="none" stroke="black" points="434,-67.5 434,-97.5 585,-97.5 585,-67.5 434,-67.5"/>
<text text-anchor="start" x="442" y="-85.5" font-family="Helvetica,sans-Serif" font-size="10.00">QualityControl/PostProcessing</text>
<text text-anchor="middle" x="509.5" y="-74.5" font-family="Helvetica,sans-Serif" font-size="10.00">Config.h</text>
</a>
</g>
</g>
<!-- Node10&#45;&gt;Node12 -->
<g id="edge13" class="edge"><title>Node10&#45;&gt;Node12</title>
<path fill="none" stroke="midnightblue" d="M519.679,-134.396C518.112,-126.56 516.119,-116.596 514.313,-107.565"/>
<polygon fill="midnightblue" stroke="midnightblue" points="517.709,-106.696 512.315,-97.5765 510.845,-108.069 517.709,-106.696"/>
</g>
<!-- Node12&#45;&gt;Node5 -->
<g id="edge15" class="edge"><title>Node12&#45;&gt;Node5</title>
<path fill="none" stroke="midnightblue" d="M561.248,-67.4891C593.392,-58.2667 635.333,-45.2868 671.5,-31 672.879,-30.4554 674.282,-29.8745 675.691,-29.2701"/>
<polygon fill="midnightblue" stroke="midnightblue" points="677.235,-32.413 684.877,-25.0747 674.326,-26.0457 677.235,-32.413"/>
</g>
<!-- Node12&#45;&gt;Node7 -->
<g id="edge16" class="edge"><title>Node12&#45;&gt;Node7</title>
<path fill="none" stroke="midnightblue" d="M497.566,-67.396C490.359,-58.8783 481.024,-47.8469 472.889,-38.2328"/>
<polygon fill="midnightblue" stroke="midnightblue" points="475.542,-35.9496 466.411,-30.5765 470.198,-40.4712 475.542,-35.9496"/>
</g>
<!-- Node12&#45;&gt;Node11 -->
<g id="edge14" class="edge"><title>Node12&#45;&gt;Node11</title>
<path fill="none" stroke="midnightblue" d="M537.925,-67.396C560.605,-56.1424 592.129,-40.501 614.224,-29.5375"/>
<polygon fill="midnightblue" stroke="midnightblue" points="615.953,-32.5871 623.355,-25.007 612.842,-26.3165 615.953,-32.5871"/>
</g>
<!-- Node14 -->
<g id="node14" class="node"><title>Node14</title>
<polygon fill="none" stroke="#bfbfbf" points="1111,-73 1111,-92 1170,-92 1170,-73 1111,-73"/>
<text text-anchor="middle" x="1140.5" y="-80" font-family="Helvetica,sans-Serif" font-size="10.00">TObject.h</text>
</g>
<!-- Node13&#45;&gt;Node14 -->
<g id="edge18" class="edge"><title>Node13&#45;&gt;Node14</title>
<path fill="none" stroke="midnightblue" d="M717.258,-139.938C728.334,-137.798 740.348,-135.647 751.5,-134 906.636,-111.094 949.932,-134.265 1102.5,-98 1105.49,-97.2881 1108.57,-96.3983 1111.62,-95.4116"/>
<polygon fill="midnightblue" stroke="midnightblue" points="1112.85,-98.6888 1121.09,-92.0298 1110.49,-92.0964 1112.85,-98.6888"/>
</g>
<!-- Node18&#45;&gt;Node15 -->
<g id="edge23" class="edge"><title>Node18&#45;&gt;Node15</title>
<path fill="none" stroke="midnightblue" d="M820.451,-262.874C808.709,-249.193 789.519,-221.929 801.5,-201 807.973,-189.693 836.558,-174.227 859.019,-163.4"/>
<polygon fill="midnightblue" stroke="midnightblue" points="860.641,-166.505 868.188,-159.069 857.651,-160.175 860.641,-166.505"/>
</g>
<!-- Node19 -->
<g id="node19" class="node"><title>Node19</title>
<g id="a_node19"><a xlink:href="DatabaseInterface_8h.html" target="_top" xlink:title="QualityControl/DatabaseInterface.h">
<polygon fill="none" stroke="black" points="810.5,-201.5 810.5,-220.5 980.5,-220.5 980.5,-201.5 810.5,-201.5"/>
<text text-anchor="middle" x="895.5" y="-208.5" font-family="Helvetica,sans-Serif" font-size="10.00">QualityControl/DatabaseInterface.h</text>
</a>
</g>
</g>
<!-- Node18&#45;&gt;Node19 -->
<g id="edge24" class="edge"><title>Node18&#45;&gt;Node19</title>
<path fill="none" stroke="midnightblue" d="M838.099,-262.975C848.548,-253.697 865.468,-238.671 878.236,-227.331"/>
<polygon fill="midnightblue" stroke="midnightblue" points="880.765,-229.766 885.918,-220.509 876.117,-224.532 880.765,-229.766"/>
</g>
<!-- Node19&#45;&gt;Node5 -->
<g id="edge25" class="edge"><title>Node19&#45;&gt;Node5</title>
<path fill="none" stroke="midnightblue" d="M914.796,-201.48C928.929,-194.081 947.057,-181.887 955.5,-165 976.251,-123.497 956.364,-95.1808 919.5,-67 863.639,-24.2966 777.8,-16.7334 732.293,-15.9674"/>
<polygon fill="midnightblue" stroke="midnightblue" points="732.185,-12.4667 722.162,-15.8996 732.138,-19.4665 732.185,-12.4667"/>
</g>
<!-- Node19&#45;&gt;Node11 -->
<g id="edge27" class="edge"><title>Node19&#45;&gt;Node11</title>
<path fill="none" stroke="midnightblue" d="M903.303,-201.392C915.719,-186.608 937.146,-155.874 922.5,-134 855.642,-34.1439 782.802,-78.6953 672.5,-31 671.135,-30.4099 669.741,-29.8008 668.334,-29.1815"/>
<polygon fill="midnightblue" stroke="midnightblue" points="669.623,-25.9242 659.065,-25.0434 666.769,-32.3161 669.623,-25.9242"/>
</g>
<!-- Node19&#45;&gt;Node15 -->
<g id="edge26" class="edge"><title>Node19&#45;&gt;Node15</title>
<path fill="none" stroke="midnightblue" d="M894.354,-201.475C893.225,-193.08 891.464,-179.981 890.009,-169.163"/>
<polygon fill="midnightblue" stroke="midnightblue" points="893.445,-168.453 888.644,-159.009 886.508,-169.386 893.445,-168.453"/>
</g>
<!-- Node19&#45;&gt;Node16 -->
<g id="edge28" class="edge"><title>Node19&#45;&gt;Node16</title>
<path fill="none" stroke="midnightblue" d="M882.032,-201.475C866.815,-191.843 841.813,-176.017 823.699,-164.552"/>
<polygon fill="midnightblue" stroke="midnightblue" points="825.264,-161.4 814.943,-159.009 821.521,-167.315 825.264,-161.4"/>
</g>
<!-- Node20 -->
<g id="node20" class="node"><title>Node20</title>
<g id="a_node20"><a xlink:href="QualityObject_8h_source.html" target="_top" xlink:title="QualityControl/QualityObject.h">
<polygon fill="none" stroke="black" points="1054,-140 1054,-159 1203,-159 1203,-140 1054,-140"/>
<text text-anchor="middle" x="1128.5" y="-147" font-family="Helvetica,sans-Serif" font-size="10.00">QualityControl/QualityObject.h</text>
</a>
</g>
</g>
<!-- Node19&#45;&gt;Node20 -->
<g id="edge29" class="edge"><title>Node19&#45;&gt;Node20</title>
<path fill="none" stroke="midnightblue" d="M928.883,-201.475C970.062,-190.959 1040.15,-173.062 1085.37,-161.514"/>
<polygon fill="midnightblue" stroke="midnightblue" points="1086.36,-164.875 1095.18,-159.009 1084.62,-158.092 1086.36,-164.875"/>
</g>
<!-- Node19&#45;&gt;Node25 -->
<g id="edge37" class="edge"><title>Node19&#45;&gt;Node25</title>
<path fill="none" stroke="midnightblue" d="M959.638,-201.468C1023.73,-192.808 1125.05,-178.751 1212.5,-165 1220.91,-163.678 1229.77,-162.219 1238.47,-160.75"/>
<polygon fill="midnightblue" stroke="midnightblue" points="1239.3,-164.16 1248.57,-159.029 1238.12,-157.259 1239.3,-164.16"/>
</g>
<!-- Node20&#45;&gt;Node14 -->
<g id="edge31" class="edge"><title>Node20&#45;&gt;Node14</title>
<path fill="none" stroke="midnightblue" d="M1130.12,-139.734C1131.88,-130.183 1134.76,-114.618 1137.03,-102.283"/>
<polygon fill="midnightblue" stroke="midnightblue" points="1140.53,-102.597 1138.91,-92.1273 1133.65,-101.326 1140.53,-102.597"/>
</g>
<!-- Node21 -->
<g id="node21" class="node"><title>Node21</title>
<polygon fill="none" stroke="#bfbfbf" points="1181,-6 1181,-25 1216,-25 1216,-6 1181,-6"/>
<text text-anchor="middle" x="1198.5" y="-13" font-family="Helvetica,sans-Serif" font-size="10.00">map</text>
</g>
<!-- Node20&#45;&gt;Node21 -->
<g id="edge30" class="edge"><title>Node20&#45;&gt;Node21</title>
<path fill="none" stroke="midnightblue" d="M1140.53,-139.863C1152.28,-130.779 1169.77,-115.403 1179.5,-98 1190.44,-78.422 1195.1,-52.8193 1197.07,-35.5774"/>
<polygon fill="midnightblue" stroke="midnightblue" points="1200.6,-35.437 1198.05,-25.1533 1193.63,-34.7817 1200.6,-35.437"/>
</g>
<!-- Node22 -->
<g id="node22" class="node"><title>Node22</title>
<polygon fill="none" stroke="#bfbfbf" points="1226.5,-73 1226.5,-92 1342.5,-92 1342.5,-73 1226.5,-73"/>
<text text-anchor="middle" x="1284.5" y="-80" font-family="Helvetica,sans-Serif" font-size="10.00">Common/Exceptions.h</text>
</g>
<!-- Node20&#45;&gt;Node22 -->
<g id="edge32" class="edge"><title>Node20&#45;&gt;Node22</title>
<path fill="none" stroke="midnightblue" d="M1149.22,-139.869C1176.14,-128.65 1223.36,-108.977 1254.28,-96.0925"/>
<polygon fill="midnightblue" stroke="midnightblue" points="1255.81,-99.2442 1263.7,-92.1672 1253.12,-92.7826 1255.81,-99.2442"/>
</g>
<!-- Node23 -->
<g id="node23" class="node"><title>Node23</title>
<g id="a_node23"><a xlink:href="Quality_8h.html" target="_top" xlink:title="QualityControl/Quality.h">
<polygon fill="none" stroke="black" points="972,-73 972,-92 1093,-92 1093,-73 972,-73"/>
<text text-anchor="middle" x="1032.5" y="-80" font-family="Helvetica,sans-Serif" font-size="10.00">QualityControl/Quality.h</text>
</a>
</g>
</g>
<!-- Node20&#45;&gt;Node23 -->
<g id="edge33" class="edge"><title>Node20&#45;&gt;Node23</title>
<path fill="none" stroke="midnightblue" d="M1115.55,-139.734C1099.65,-128.964 1072.45,-110.55 1053.53,-97.7395"/>
<polygon fill="midnightblue" stroke="midnightblue" points="1055.48,-94.8357 1045.24,-92.1273 1051.56,-100.632 1055.48,-94.8357"/>
</g>
<!-- Node23&#45;&gt;Node5 -->
<g id="edge35" class="edge"><title>Node23&#45;&gt;Node5</title>
<path fill="none" stroke="midnightblue" d="M988.887,-72.9355C920.823,-59.5695 791.041,-34.0837 732.047,-22.4986"/>
<polygon fill="midnightblue" stroke="midnightblue" points="732.702,-19.0605 722.215,-20.5679 731.353,-25.9293 732.702,-19.0605"/>
</g>
<!-- Node23&#45;&gt;Node21 -->
<g id="edge36" class="edge"><title>Node23&#45;&gt;Node21</title>
<path fill="none" stroke="midnightblue" d="M1054.54,-72.8685C1084.76,-61.0385 1138.98,-39.8052 1171.56,-27.0472"/>
<polygon fill="midnightblue" stroke="midnightblue" points="1172.89,-30.285 1180.93,-23.3797 1170.34,-23.7668 1172.89,-30.285"/>
</g>
<!-- Node24 -->
<g id="node24" class="node"><title>Node24</title>
<polygon fill="none" stroke="#bfbfbf" points="1326.5,-6 1326.5,-25 1382.5,-25 1382.5,-6 1326.5,-6"/>
<text text-anchor="middle" x="1354.5" y="-13" font-family="Helvetica,sans-Serif" font-size="10.00">Rtypes.h</text>
</g>
<!-- Node23&#45;&gt;Node24 -->
<g id="edge34" class="edge"><title>Node23&#45;&gt;Node24</title>
<path fill="none" stroke="midnightblue" d="M1073.58,-72.9449C1083.07,-70.9801 1093.14,-68.9081 1102.5,-67 1178.22,-51.5712 1266.82,-33.9065 1316.22,-24.0918"/>
<polygon fill="midnightblue" stroke="midnightblue" points="1317.02,-27.5012 1326.14,-22.1203 1315.65,-20.6353 1317.02,-27.5012"/>
</g>
<!-- Node25&#45;&gt;Node5 -->
<g id="edge38" class="edge"><title>Node25&#45;&gt;Node5</title>
<path fill="none" stroke="midnightblue" d="M1309.97,-139.789C1332.56,-124.168 1373.53,-90.805 1351.5,-67 1309.06,-21.134 856.148,-16.8202 732.522,-16.5005"/>
<polygon fill="midnightblue" stroke="midnightblue" points="732.255,-13.0001 722.249,-16.4815 732.242,-20.0001 732.255,-13.0001"/>
</g>
<!-- Node25&#45;&gt;Node14 -->
<g id="edge41" class="edge"><title>Node25&#45;&gt;Node14</title>
<path fill="none" stroke="midnightblue" d="M1275.78,-139.869C1248.86,-128.65 1201.64,-108.977 1170.72,-96.0925"/>
<polygon fill="midnightblue" stroke="midnightblue" points="1171.88,-92.7826 1161.3,-92.1672 1169.19,-99.2442 1171.88,-92.7826"/>
</g>
<!-- Node25&#45;&gt;Node21 -->
<g id="edge39" class="edge"><title>Node25&#45;&gt;Node21</title>
<path fill="none" stroke="midnightblue" d="M1326.72,-139.935C1346.98,-132.443 1372.14,-119.341 1384.5,-98 1391.4,-86.0771 1392.87,-77.9445 1384.5,-67 1365.31,-41.9094 1273.27,-26.3607 1226.26,-19.9262"/>
<polygon fill="midnightblue" stroke="midnightblue" points="1226.52,-16.4306 1216.15,-18.5882 1225.6,-23.3701 1226.52,-16.4306"/>
</g>
<!-- Node25&#45;&gt;Node22 -->
<g id="edge42" class="edge"><title>Node25&#45;&gt;Node22</title>
<path fill="none" stroke="midnightblue" d="M1294.88,-139.734C1293.12,-130.183 1290.24,-114.618 1287.97,-102.283"/>
<polygon fill="midnightblue" stroke="midnightblue" points="1291.35,-101.326 1286.09,-92.1273 1284.47,-102.597 1291.35,-101.326"/>
</g>
<!-- Node25&#45;&gt;Node24 -->
<g id="edge40" class="edge"><title>Node25&#45;&gt;Node24</title>
<path fill="none" stroke="midnightblue" d="M1354.92,-139.935C1380.11,-133.026 1407.25,-120.545 1422.5,-98 1430.22,-86.5884 1428.69,-79.3086 1422.5,-67 1414.32,-50.7276 1398.13,-38.3793 1383.61,-29.9673"/>
<polygon fill="midnightblue" stroke="midnightblue" points="1384.86,-26.6693 1374.4,-25.0062 1381.54,-32.8314 1384.86,-26.6693"/>
</g>
</g>
</svg>
        <g id="navigator" transform="translate(0 0)" fill="#404254">
                <rect fill="#f2f5e9" fill-opacity="0.5" stroke="#606060" stroke-width=".5" x="0" y="0" width="60" height="60"/>
                <use id="zoomplus" xlink:href="#zoomPlus" x="17" y="9" onmousedown="handleZoom(evt,'in')"/>
                <use id="zoomminus" xlink:href="#zoomMin" x="42" y="9" onmousedown="handleZoom(evt,'out')"/>
                <use id="reset" xlink:href="#resetDef" x="30" y="36" onmousedown="handleReset()"/>
                <g id="arrowUp" xlink:href="#dirArrow" transform="translate(30 24)" onmousedown="handlePan(0,-1)">
                  <use xlink:href="#rim" fill="#404040">
                        <set attributeName="fill" to="#808080" begin="arrowUp.mouseover" end="arrowUp.mouseout"/>
                  </use>
                  <path fill="none" stroke="white" stroke-width="1.5" d="M0,-3.0v7 M-2.5,-0.5L0,-3.0L2.5,-0.5"/>
                </g>
                <g id="arrowRight" xlink:href="#dirArrow" transform="rotate(90) translate(36 -43)" onmousedown="handlePan(1,0)">
                  <use xlink:href="#rim" fill="#404040">
                        <set attributeName="fill" to="#808080" begin="arrowRight.mouseover" end="arrowRight.mouseout"/>
                  </use>
                  <path fill="none" stroke="white" stroke-width="1.5" d="M0,-3.0v7 M-2.5,-0.5L0,-3.0L2.5,-0.5"/>
                </g>
                <g id="arrowDown" xlink:href="#dirArrow" transform="rotate(180) translate(-30 -48)" onmousedown="handlePan(0,1)">
                  <use xlink:href="#rim" fill="#404040">
                        <set attributeName="fill" to="#808080" begin="arrowDown.mouseover" end="arrowDown.mouseout"/>
                  </use>
                  <path fill="none" stroke="white" stroke-width="1.5" d="M0,-3.0v7 M-2.5,-0.5L0,-3.0L2.5,-0.5"/>
                </g>
                <g id="arrowLeft" xlink:href="#dirArrow" transform="rotate(270) translate(-36 17)" onmousedown="handlePan(-1,0)">
                  <use xlink:href="#rim" fill="#404040">
                        <set attributeName="fill" to="#808080" begin="arrowLeft.mouseover" end="arrowLeft.mouseout"/>
                  </use>
                  <path fill="none" stroke="white" stroke-width="1.5" d="M0,-3.0v7 M-2.5,-0.5L0,-3.0L2.5,-0.5"/>
                </g>
        </g>
        <svg viewBox="0 0 15 15" width="100%" height="30px" preserveAspectRatio="xMaxYMin meet">
         <g id="arrow_out" transform="scale(0.3 0.3)">
          <a xlink:href="testTrendingTask_8cxx__incl_org.svg" target="_base">
           <rect id="button" ry="5" rx="5" y="6" x="6" height="38" width="38"
                fill="#f2f5e9" fill-opacity="0.5" stroke="#606060" stroke-width="1.0"/>
           <path id="arrow"
             d="M 11.500037,31.436501 C 11.940474,20.09759 22.043105,11.32322 32.158766,21.979434 L 37.068811,17.246167 C 37.068811,17.246167 37.088388,32 37.088388,32 L 22.160133,31.978069 C 22.160133,31.978069 26.997745,27.140456 26.997745,27.140456 C 18.528582,18.264221 13.291696,25.230495 11.500037,31.436501 z"
             style="fill:#404040;"/>
          </a>
         </g>
        </svg>
</svg>
