<?xml version="1.0" encoding="UTF-8" standalone="no"?>
<!DOCTYPE svg PUBLIC "-//W3C//DTD SVG 1.1//EN"
 "http://www.w3.org/Graphics/SVG/1.1/DTD/svg11.dtd">
<!-- Generated by graphviz version 2.38.0 (20140413.2041)
 -->
<!-- Title: Framework/test/testCcdbDatabase.cxx Pages: 1 -->
<svg width="1338pt" height="308pt"
 viewBox="0.00 0.00 1337.50 308.00" xmlns="http://www.w3.org/2000/svg" xmlns:xlink="http://www.w3.org/1999/xlink">
<g id="graph0" class="graph" transform="scale(1 1) rotate(0) translate(4 304)">
<title>Framework/test/testCcdbDatabase.cxx</title>
<!-- Node1 -->
<g id="node1" class="node"><title>Node1</title>
<polygon fill="#bfbfbf" stroke="black" points="686.5,-280.5 686.5,-299.5 874.5,-299.5 874.5,-280.5 686.5,-280.5"/>
<text text-anchor="middle" x="780.5" y="-287.5" font-family="Helvetica,sans-Serif" font-size="10.00">Framework/test/testCcdbDatabase.cxx</text>
</g>
<!-- Node2 -->
<g id="node2" class="node"><title>Node2</title>
<polygon fill="none" stroke="#bfbfbf" points="0,-112.5 0,-131.5 83,-131.5 83,-112.5 0,-112.5"/>
<text text-anchor="middle" x="41.5" y="-119.5" font-family="Helvetica,sans-Serif" font-size="10.00">unordered_map</text>
</g>
<!-- Node1&#45;&gt;Node2 -->
<g id="edge1" class="edge"><title>Node1&#45;&gt;Node2</title>
<path fill="none" stroke="midnightblue" d="M686.216,-285.805C545.208,-280.337 286.348,-267.438 196.5,-244 139.161,-229.042 118.405,-228.874 75.5,-188 61.9799,-175.12 52.7936,-155.671 47.4119,-141.403"/>
<polygon fill="midnightblue" stroke="midnightblue" points="50.6253,-139.988 44.0293,-131.697 44.0152,-142.292 50.6253,-139.988"/>
</g>
<!-- Node3 -->
<g id="node3" class="node"><title>Node3</title>
<g id="a_node3"><a xlink:href="CcdbDatabase_8h.html" target="_top" xlink:title="QualityControl/CcdbDatabase.h">
<polygon fill="none" stroke="black" points="206,-224.5 206,-243.5 361,-243.5 361,-224.5 206,-224.5"/>
<text text-anchor="middle" x="283.5" y="-231.5" font-family="Helvetica,sans-Serif" font-size="10.00">QualityControl/CcdbDatabase.h</text>
</a>
</g>
</g>
<!-- Node1&#45;&gt;Node3 -->
<g id="edge2" class="edge"><title>Node1&#45;&gt;Node3</title>
<path fill="none" stroke="midnightblue" d="M702.023,-280.473C612.026,-270.695 464.87,-254.706 371.179,-244.526"/>
<polygon fill="midnightblue" stroke="midnightblue" points="371.475,-241.038 361.156,-243.437 370.719,-247.997 371.475,-241.038"/>
</g>
<!-- Node16 -->
<g id="node16" class="node"><title>Node16</title>
<g id="a_node16"><a xlink:href="QcInfoLogger_8h.html" target="_top" xlink:title="QualityControl/QcInfoLogger.h">
<polygon fill="none" stroke="black" points="706,-224.5 706,-243.5 855,-243.5 855,-224.5 706,-224.5"/>
<text text-anchor="middle" x="780.5" y="-231.5" font-family="Helvetica,sans-Serif" font-size="10.00">QualityControl/QcInfoLogger.h</text>
</a>
</g>
</g>
<!-- Node1&#45;&gt;Node16 -->
<g id="edge23" class="edge"><title>Node1&#45;&gt;Node16</title>
<path fill="none" stroke="midnightblue" d="M780.5,-280.083C780.5,-273.006 780.5,-262.861 780.5,-253.986"/>
<polygon fill="midnightblue" stroke="midnightblue" points="784,-253.751 780.5,-243.751 777,-253.751 784,-253.751"/>
</g>
<!-- Node18 -->
<g id="node18" class="node"><title>Node18</title>
<polygon fill="none" stroke="#bfbfbf" points="873,-224.5 873,-243.5 996,-243.5 996,-224.5 873,-224.5"/>
<text text-anchor="middle" x="934.5" y="-231.5" font-family="Helvetica,sans-Serif" font-size="10.00">QualityControl/Version.h</text>
</g>
<!-- Node1&#45;&gt;Node18 -->
<g id="edge25" class="edge"><title>Node1&#45;&gt;Node18</title>
<path fill="none" stroke="midnightblue" d="M804.902,-280.444C830.697,-271.399 871.577,-257.064 900.518,-246.916"/>
<polygon fill="midnightblue" stroke="midnightblue" points="901.934,-250.128 910.212,-243.516 899.618,-243.523 901.934,-250.128"/>
</g>
<!-- Node19 -->
<g id="node19" class="node"><title>Node19</title>
<polygon fill="none" stroke="#bfbfbf" points="1014,-224.5 1014,-243.5 1133,-243.5 1133,-224.5 1014,-224.5"/>
<text text-anchor="middle" x="1073.5" y="-231.5" font-family="Helvetica,sans-Serif" font-size="10.00">boost/test/unit_test.hpp</text>
</g>
<!-- Node1&#45;&gt;Node19 -->
<g id="edge26" class="edge"><title>Node1&#45;&gt;Node19</title>
<path fill="none" stroke="midnightblue" d="M826.927,-280.444C878.576,-270.925 962.012,-255.547 1017.31,-245.356"/>
<polygon fill="midnightblue" stroke="midnightblue" points="1018.09,-248.771 1027.29,-243.516 1016.82,-241.887 1018.09,-248.771"/>
</g>
<!-- Node20 -->
<g id="node20" class="node"><title>Node20</title>
<polygon fill="none" stroke="#bfbfbf" points="1151.5,-224.5 1151.5,-243.5 1201.5,-243.5 1201.5,-224.5 1151.5,-224.5"/>
<text text-anchor="middle" x="1176.5" y="-231.5" font-family="Helvetica,sans-Serif" font-size="10.00">TH1F.h</text>
</g>
<!-- Node1&#45;&gt;Node20 -->
<g id="edge27" class="edge"><title>Node1&#45;&gt;Node20</title>
<path fill="none" stroke="midnightblue" d="M874.804,-280.8C945.746,-273.812 1045.46,-262.253 1141.46,-243.973"/>
<polygon fill="midnightblue" stroke="midnightblue" points="1142.18,-247.399 1151.34,-242.066 1140.85,-240.526 1142.18,-247.399"/>
</g>
<!-- Node21 -->
<g id="node21" class="node"><title>Node21</title>
<polygon fill="none" stroke="#bfbfbf" points="1219.5,-224.5 1219.5,-243.5 1329.5,-243.5 1329.5,-224.5 1219.5,-224.5"/>
<text text-anchor="middle" x="1274.5" y="-231.5" font-family="Helvetica,sans-Serif" font-size="10.00">rapidjson/document.h</text>
</g>
<!-- Node1&#45;&gt;Node21 -->
<g id="edge28" class="edge"><title>Node1&#45;&gt;Node21</title>
<path fill="none" stroke="midnightblue" d="M870.789,-280.49C955.576,-272.282 1086.23,-259.082 1209.37,-244.102"/>
<polygon fill="midnightblue" stroke="midnightblue" points="1209.86,-247.568 1219.36,-242.881 1209.01,-240.62 1209.86,-247.568"/>
</g>
<!-- Node22 -->
<g id="node22" class="node"><title>Node22</title>
<g id="a_node22"><a xlink:href="RepoPathUtils_8h.html" target="_top" xlink:title="QualityControl/RepoPathUtils.h">
<polygon fill="none" stroke="black" points="439.5,-168.5 439.5,-187.5 593.5,-187.5 593.5,-168.5 439.5,-168.5"/>
<text text-anchor="middle" x="516.5" y="-175.5" font-family="Helvetica,sans-Serif" font-size="10.00">QualityControl/RepoPathUtils.h</text>
</a>
</g>
</g>
<!-- Node1&#45;&gt;Node22 -->
<g id="edge29" class="edge"><title>Node1&#45;&gt;Node22</title>
<path fill="none" stroke="midnightblue" d="M699.663,-280.488C643.537,-273.221 574.815,-261.195 551.5,-244 536.061,-232.614 526.712,-212.324 521.608,-197.432"/>
<polygon fill="midnightblue" stroke="midnightblue" points="524.912,-196.269 518.616,-187.748 518.224,-198.336 524.912,-196.269"/>
</g>
<!-- Node23 -->
<g id="node23" class="node"><title>Node23</title>
<g id="a_node23"><a xlink:href="testUtils_8h.html" target="_top" xlink:title="QualityControl/testUtils.h">
<polygon fill="none" stroke="black" points="561,-224.5 561,-243.5 688,-243.5 688,-224.5 561,-224.5"/>
<text text-anchor="middle" x="624.5" y="-231.5" font-family="Helvetica,sans-Serif" font-size="10.00">QualityControl/testUtils.h</text>
</a>
</g>
</g>
<!-- Node1&#45;&gt;Node23 -->
<g id="edge35" class="edge"><title>Node1&#45;&gt;Node23</title>
<path fill="none" stroke="midnightblue" d="M755.781,-280.444C729.652,-271.399 688.241,-257.064 658.924,-246.916"/>
<polygon fill="midnightblue" stroke="midnightblue" points="659.698,-243.48 649.103,-243.516 657.408,-250.095 659.698,-243.48"/>
</g>
<!-- Node4 -->
<g id="node4" class="node"><title>Node4</title>
<polygon fill="none" stroke="#bfbfbf" points="85,-168.5 85,-187.5 180,-187.5 180,-168.5 85,-168.5"/>
<text text-anchor="middle" x="132.5" y="-175.5" font-family="Helvetica,sans-Serif" font-size="10.00">CCDB/CcdbApi.h</text>
</g>
<!-- Node3&#45;&gt;Node4 -->
<g id="edge3" class="edge"><title>Node3&#45;&gt;Node4</title>
<path fill="none" stroke="midnightblue" d="M259.574,-224.444C234.281,-215.399 194.198,-201.064 165.82,-190.916"/>
<polygon fill="midnightblue" stroke="midnightblue" points="166.909,-187.588 156.314,-187.516 164.552,-194.179 166.909,-187.588"/>
</g>
<!-- Node5 -->
<g id="node5" class="node"><title>Node5</title>
<g id="a_node5"><a xlink:href="DatabaseInterface_8h.html" target="_top" xlink:title="QualityControl/DatabaseInterface.h">
<polygon fill="none" stroke="black" points="198.5,-168.5 198.5,-187.5 368.5,-187.5 368.5,-168.5 198.5,-168.5"/>
<text text-anchor="middle" x="283.5" y="-175.5" font-family="Helvetica,sans-Serif" font-size="10.00">QualityControl/DatabaseInterface.h</text>
</a>
</g>
</g>
<!-- Node3&#45;&gt;Node5 -->
<g id="edge4" class="edge"><title>Node3&#45;&gt;Node5</title>
<path fill="none" stroke="midnightblue" d="M283.5,-224.083C283.5,-217.006 283.5,-206.861 283.5,-197.986"/>
<polygon fill="midnightblue" stroke="midnightblue" points="287,-197.751 283.5,-187.751 280,-197.751 287,-197.751"/>
</g>
<!-- Node5&#45;&gt;Node2 -->
<g id="edge8" class="edge"><title>Node5&#45;&gt;Node2</title>
<path fill="none" stroke="midnightblue" d="M245.154,-168.444C203.027,-159.043 135.294,-143.929 89.628,-133.739"/>
<polygon fill="midnightblue" stroke="midnightblue" points="90.1885,-130.278 79.6662,-131.516 88.6639,-137.11 90.1885,-130.278"/>
</g>
<!-- Node6 -->
<g id="node6" class="node"><title>Node6</title>
<polygon fill="none" stroke="#bfbfbf" points="401,-0.5 401,-19.5 442,-19.5 442,-0.5 401,-0.5"/>
<text text-anchor="middle" x="421.5" y="-7.5" font-family="Helvetica,sans-Serif" font-size="10.00">string</text>
</g>
<!-- Node5&#45;&gt;Node6 -->
<g id="edge5" class="edge"><title>Node5&#45;&gt;Node6</title>
<path fill="none" stroke="midnightblue" d="M253.949,-168.418C224.273,-158.107 184.884,-138.79 199.5,-112 205.006,-101.908 276.133,-60.9676 286.5,-56 320.875,-39.5289 362.852,-26.5661 390.781,-18.8657"/>
<polygon fill="midnightblue" stroke="midnightblue" points="392.009,-22.1596 400.753,-16.1758 390.186,-15.4012 392.009,-22.1596"/>
</g>
<!-- Node7 -->
<g id="node7" class="node"><title>Node7</title>
<polygon fill="none" stroke="#bfbfbf" points="101.5,-112.5 101.5,-131.5 153.5,-131.5 153.5,-112.5 101.5,-112.5"/>
<text text-anchor="middle" x="127.5" y="-119.5" font-family="Helvetica,sans-Serif" font-size="10.00">memory</text>
</g>
<!-- Node5&#45;&gt;Node7 -->
<g id="edge6" class="edge"><title>Node5&#45;&gt;Node7</title>
<path fill="none" stroke="midnightblue" d="M258.781,-168.444C232.652,-159.399 191.241,-145.064 161.924,-134.916"/>
<polygon fill="midnightblue" stroke="midnightblue" points="162.698,-131.48 152.103,-131.516 160.408,-138.095 162.698,-131.48"/>
</g>
<!-- Node8 -->
<g id="node8" class="node"><title>Node8</title>
<polygon fill="none" stroke="#bfbfbf" points="545.5,-112.5 545.5,-131.5 589.5,-131.5 589.5,-112.5 545.5,-112.5"/>
<text text-anchor="middle" x="567.5" y="-119.5" font-family="Helvetica,sans-Serif" font-size="10.00">vector</text>
</g>
<!-- Node5&#45;&gt;Node8 -->
<g id="edge7" class="edge"><title>Node5&#45;&gt;Node8</title>
<path fill="none" stroke="midnightblue" d="M340.367,-168.469C389.449,-160.737 462.408,-148.369 535.367,-131.827"/>
<polygon fill="midnightblue" stroke="midnightblue" points="536.227,-135.221 545.192,-129.574 534.662,-128.398 536.227,-135.221"/>
</g>
<!-- Node9 -->
<g id="node9" class="node"><title>Node9</title>
<g id="a_node9"><a xlink:href="QualityObject_8h_source.html" target="_top" xlink:title="QualityControl/QualityObject.h">
<polygon fill="none" stroke="black" points="209,-112.5 209,-131.5 358,-131.5 358,-112.5 209,-112.5"/>
<text text-anchor="middle" x="283.5" y="-119.5" font-family="Helvetica,sans-Serif" font-size="10.00">QualityControl/QualityObject.h</text>
</a>
</g>
</g>
<!-- Node5&#45;&gt;Node9 -->
<g id="edge9" class="edge"><title>Node5&#45;&gt;Node9</title>
<path fill="none" stroke="midnightblue" d="M283.5,-168.083C283.5,-161.006 283.5,-150.861 283.5,-141.986"/>
<polygon fill="midnightblue" stroke="midnightblue" points="287,-141.751 283.5,-131.751 280,-141.751 287,-141.751"/>
</g>
<!-- Node15 -->
<g id="node15" class="node"><title>Node15</title>
<g id="a_node15"><a xlink:href="MonitorObject_8h.html" target="_top" xlink:title="QualityControl/MonitorObject.h">
<polygon fill="none" stroke="black" points="376,-112.5 376,-131.5 527,-131.5 527,-112.5 376,-112.5"/>
<text text-anchor="middle" x="451.5" y="-119.5" font-family="Helvetica,sans-Serif" font-size="10.00">QualityControl/MonitorObject.h</text>
</a>
</g>
</g>
<!-- Node5&#45;&gt;Node15 -->
<g id="edge17" class="edge"><title>Node5&#45;&gt;Node15</title>
<path fill="none" stroke="midnightblue" d="M310.12,-168.444C338.506,-159.32 383.637,-144.813 415.253,-134.651"/>
<polygon fill="midnightblue" stroke="midnightblue" points="416.555,-137.909 425.004,-131.516 414.413,-131.244 416.555,-137.909"/>
</g>
<!-- Node10 -->
<g id="node10" class="node"><title>Node10</title>
<polygon fill="none" stroke="#bfbfbf" points="161,-0.5 161,-19.5 196,-19.5 196,-0.5 161,-0.5"/>
<text text-anchor="middle" x="178.5" y="-7.5" font-family="Helvetica,sans-Serif" font-size="10.00">map</text>
</g>
<!-- Node9&#45;&gt;Node10 -->
<g id="edge10" class="edge"><title>Node9&#45;&gt;Node10</title>
<path fill="none" stroke="midnightblue" d="M217.488,-112.497C173.764,-105.354 122.052,-93.4776 108.5,-76 91.7562,-54.406 125.562,-33.6828 151.785,-21.6546"/>
<polygon fill="midnightblue" stroke="midnightblue" points="153.233,-24.8417 160.995,-17.631 150.43,-18.427 153.233,-24.8417"/>
</g>
<!-- Node11 -->
<g id="node11" class="node"><title>Node11</title>
<polygon fill="none" stroke="#bfbfbf" points="296,-56.5 296,-75.5 355,-75.5 355,-56.5 296,-56.5"/>
<text text-anchor="middle" x="325.5" y="-63.5" font-family="Helvetica,sans-Serif" font-size="10.00">TObject.h</text>
</g>
<!-- Node9&#45;&gt;Node11 -->
<g id="edge11" class="edge"><title>Node9&#45;&gt;Node11</title>
<path fill="none" stroke="midnightblue" d="M290.435,-112.083C296.429,-104.377 305.252,-93.0333 312.548,-83.6531"/>
<polygon fill="midnightblue" stroke="midnightblue" points="315.317,-85.7934 318.694,-75.7511 309.791,-81.4958 315.317,-85.7934"/>
</g>
<!-- Node12 -->
<g id="node12" class="node"><title>Node12</title>
<polygon fill="none" stroke="#bfbfbf" points="503.5,-56.5 503.5,-75.5 619.5,-75.5 619.5,-56.5 503.5,-56.5"/>
<text text-anchor="middle" x="561.5" y="-63.5" font-family="Helvetica,sans-Serif" font-size="10.00">Common/Exceptions.h</text>
</g>
<!-- Node9&#45;&gt;Node12 -->
<g id="edge12" class="edge"><title>Node9&#45;&gt;Node12</title>
<path fill="none" stroke="midnightblue" d="M327.55,-112.444C376.351,-102.964 455.063,-87.6747 507.53,-77.4835"/>
<polygon fill="midnightblue" stroke="midnightblue" points="508.507,-80.8591 517.656,-75.5164 507.172,-73.9875 508.507,-80.8591"/>
</g>
<!-- Node13 -->
<g id="node13" class="node"><title>Node13</title>
<g id="a_node13"><a xlink:href="Quality_8h.html" target="_top" xlink:title="QualityControl/Quality.h">
<polygon fill="none" stroke="black" points="118,-56.5 118,-75.5 239,-75.5 239,-56.5 118,-56.5"/>
<text text-anchor="middle" x="178.5" y="-63.5" font-family="Helvetica,sans-Serif" font-size="10.00">QualityControl/Quality.h</text>
</a>
</g>
</g>
<!-- Node9&#45;&gt;Node13 -->
<g id="edge13" class="edge"><title>Node9&#45;&gt;Node13</title>
<path fill="none" stroke="midnightblue" d="M266.63,-112.324C249.791,-103.664 223.693,-90.2424 204.262,-80.249"/>
<polygon fill="midnightblue" stroke="midnightblue" points="205.822,-77.1155 195.328,-75.6545 202.62,-83.3405 205.822,-77.1155"/>
</g>
<!-- Node13&#45;&gt;Node6 -->
<g id="edge15" class="edge"><title>Node13&#45;&gt;Node6</title>
<path fill="none" stroke="midnightblue" d="M217.004,-56.4435C265.199,-45.7335 346.768,-27.6072 390.917,-17.7961"/>
<polygon fill="midnightblue" stroke="midnightblue" points="391.775,-21.191 400.778,-15.6049 390.257,-14.3576 391.775,-21.191"/>
</g>
<!-- Node13&#45;&gt;Node10 -->
<g id="edge16" class="edge"><title>Node13&#45;&gt;Node10</title>
<path fill="none" stroke="midnightblue" d="M178.5,-56.083C178.5,-49.0059 178.5,-38.8611 178.5,-29.9865"/>
<polygon fill="midnightblue" stroke="midnightblue" points="182,-29.751 178.5,-19.7511 175,-29.7511 182,-29.751"/>
</g>
<!-- Node14 -->
<g id="node14" class="node"><title>Node14</title>
<polygon fill="none" stroke="#bfbfbf" points="289.5,-0.5 289.5,-19.5 345.5,-19.5 345.5,-0.5 289.5,-0.5"/>
<text text-anchor="middle" x="317.5" y="-7.5" font-family="Helvetica,sans-Serif" font-size="10.00">Rtypes.h</text>
</g>
<!-- Node13&#45;&gt;Node14 -->
<g id="edge14" class="edge"><title>Node13&#45;&gt;Node14</title>
<path fill="none" stroke="midnightblue" d="M200.525,-56.4435C223.604,-47.4776 260.062,-33.314 286.141,-23.1827"/>
<polygon fill="midnightblue" stroke="midnightblue" points="287.524,-26.4002 295.578,-19.5164 284.989,-19.8753 287.524,-26.4002"/>
</g>
<!-- Node15&#45;&gt;Node6 -->
<g id="edge18" class="edge"><title>Node15&#45;&gt;Node6</title>
<path fill="none" stroke="midnightblue" d="M449.494,-112.125C446.616,-99.5689 441.047,-75.9287 435.5,-56 433.029,-47.1215 430.022,-37.344 427.429,-29.1775"/>
<polygon fill="midnightblue" stroke="midnightblue" points="430.735,-28.0271 424.339,-19.5811 424.072,-30.1726 430.735,-28.0271"/>
</g>
<!-- Node15&#45;&gt;Node10 -->
<g id="edge19" class="edge"><title>Node15&#45;&gt;Node10</title>
<path fill="none" stroke="midnightblue" d="M442.538,-112.435C427.456,-98.4967 395.502,-70.9644 363.5,-56 310.903,-31.4051 243.383,-19.3754 206.184,-14.2472"/>
<polygon fill="midnightblue" stroke="midnightblue" points="206.468,-10.7546 196.098,-12.9249 205.558,-17.6952 206.468,-10.7546"/>
</g>
<!-- Node15&#45;&gt;Node11 -->
<g id="edge21" class="edge"><title>Node15&#45;&gt;Node11</title>
<path fill="none" stroke="midnightblue" d="M431.535,-112.444C410.891,-103.596 378.437,-89.6875 354.868,-79.5865"/>
<polygon fill="midnightblue" stroke="midnightblue" points="355.942,-76.2387 345.372,-75.5164 353.184,-82.6727 355.942,-76.2387"/>
</g>
<!-- Node15&#45;&gt;Node12 -->
<g id="edge22" class="edge"><title>Node15&#45;&gt;Node12</title>
<path fill="none" stroke="midnightblue" d="M469.173,-112.324C486.894,-103.625 514.403,-90.1202 534.788,-80.113"/>
<polygon fill="midnightblue" stroke="midnightblue" points="536.436,-83.2031 543.87,-75.6545 533.351,-76.9195 536.436,-83.2031"/>
</g>
<!-- Node15&#45;&gt;Node14 -->
<g id="edge20" class="edge"><title>Node15&#45;&gt;Node14</title>
<path fill="none" stroke="midnightblue" d="M445.713,-112.132C436.65,-98.7382 418.008,-73.0986 397.5,-56 382.094,-43.155 362.496,-32.0622 346.554,-24.104"/>
<polygon fill="midnightblue" stroke="midnightblue" points="347.697,-20.7689 337.171,-19.5663 344.65,-27.0707 347.697,-20.7689"/>
</g>
<!-- Node17 -->
<g id="node17" class="node"><title>Node17</title>
<polygon fill="none" stroke="#bfbfbf" points="721.5,-168.5 721.5,-187.5 851.5,-187.5 851.5,-168.5 721.5,-168.5"/>
<text text-anchor="middle" x="786.5" y="-175.5" font-family="Helvetica,sans-Serif" font-size="10.00">InfoLogger/InfoLogger.hxx</text>
</g>
<!-- Node16&#45;&gt;Node17 -->
<g id="edge24" class="edge"><title>Node16&#45;&gt;Node17</title>
<path fill="none" stroke="midnightblue" d="M781.491,-224.083C782.286,-216.927 783.429,-206.635 784.423,-197.691"/>
<polygon fill="midnightblue" stroke="midnightblue" points="787.902,-198.076 785.528,-187.751 780.945,-197.303 787.902,-198.076"/>
</g>
<!-- Node22&#45;&gt;Node6 -->
<g id="edge30" class="edge"><title>Node22&#45;&gt;Node6</title>
<path fill="none" stroke="midnightblue" d="M553.539,-168.486C574.314,-161.867 599.077,-150.586 614.5,-132 636.433,-105.569 650.053,-82.7418 628.5,-56 606.693,-28.9433 504.278,-17.3108 452.149,-13.0745"/>
<polygon fill="midnightblue" stroke="midnightblue" points="452.374,-9.58149 442.134,-12.3016 451.835,-16.5607 452.374,-9.58149"/>
</g>
<!-- Node22&#45;&gt;Node8 -->
<g id="edge31" class="edge"><title>Node22&#45;&gt;Node8</title>
<path fill="none" stroke="midnightblue" d="M524.922,-168.083C532.348,-160.22 543.352,-148.569 552.312,-139.081"/>
<polygon fill="midnightblue" stroke="midnightblue" points="554.913,-141.424 559.235,-131.751 549.824,-136.618 554.913,-141.424"/>
</g>
<!-- Node22&#45;&gt;Node9 -->
<g id="edge34" class="edge"><title>Node22&#45;&gt;Node9</title>
<path fill="none" stroke="midnightblue" d="M479.58,-168.444C439.105,-159.063 374.079,-143.993 330.116,-133.804"/>
<polygon fill="midnightblue" stroke="midnightblue" points="330.779,-130.365 320.247,-131.516 329.198,-137.184 330.779,-130.365"/>
</g>
<!-- Node22&#45;&gt;Node12 -->
<g id="edge32" class="edge"><title>Node22&#45;&gt;Node12</title>
<path fill="none" stroke="midnightblue" d="M548.309,-168.385C566.446,-161.661 587.664,-150.306 598.5,-132 608.341,-115.373 594.242,-96.1152 580.708,-82.9019"/>
<polygon fill="midnightblue" stroke="midnightblue" points="582.744,-80.0226 572.99,-75.8862 578.036,-85.2025 582.744,-80.0226"/>
</g>
<!-- Node22&#45;&gt;Node15 -->
<g id="edge33" class="edge"><title>Node22&#45;&gt;Node15</title>
<path fill="none" stroke="midnightblue" d="M506.057,-168.324C496.354,-160.263 481.685,-148.077 470,-138.369"/>
<polygon fill="midnightblue" stroke="midnightblue" points="472.062,-135.532 462.133,-131.834 467.589,-140.916 472.062,-135.532"/>
</g>
<!-- Node23&#45;&gt;Node12 -->
<g id="edge37" class="edge"><title>Node23&#45;&gt;Node12</title>
<path fill="none" stroke="midnightblue" d="M639.332,-224.459C657.419,-212.835 684.43,-190.851 674.5,-168 657.07,-127.89 614.639,-97.2879 587.019,-80.7558"/>
<polygon fill="midnightblue" stroke="midnightblue" points="588.686,-77.6764 578.278,-75.6952 585.178,-83.7344 588.686,-77.6764"/>
</g>
<!-- Node24 -->
<g id="node24" class="node"><title>Node24</title>
<polygon fill="none" stroke="#bfbfbf" points="611.5,-168.5 611.5,-187.5 665.5,-187.5 665.5,-168.5 611.5,-168.5"/>
<text text-anchor="middle" x="638.5" y="-175.5" font-family="Helvetica,sans-Serif" font-size="10.00">iostream</text>
</g>
<!-- Node23&#45;&gt;Node24 -->
<g id="edge36" class="edge"><title>Node23&#45;&gt;Node24</title>
<path fill="none" stroke="midnightblue" d="M626.812,-224.083C628.667,-216.927 631.335,-206.635 633.654,-197.691"/>
<polygon fill="midnightblue" stroke="midnightblue" points="637.109,-198.309 636.231,-187.751 630.334,-196.553 637.109,-198.309"/>
</g>
</g>
</svg>
