<?xml version="1.0" encoding="UTF-8" standalone="no"?>
<!DOCTYPE svg PUBLIC "-//W3C//DTD SVG 1.1//EN"
 "http://www.w3.org/Graphics/SVG/1.1/DTD/svg11.dtd">
<!-- Generated by graphviz version 2.38.0 (20140413.2041)
 -->
<!-- Title: Framework/test/testQuality.cxx Pages: 1 -->
<svg width="471pt" height="140pt"
 viewBox="0.00 0.00 470.50 140.00" xmlns="http://www.w3.org/2000/svg" xmlns:xlink="http://www.w3.org/1999/xlink">
<g id="graph0" class="graph" transform="scale(1 1) rotate(0) translate(4 136)">
<title>Framework/test/testQuality.cxx</title>
<!-- Node1 -->
<g id="node1" class="node"><title>Node1</title>
<polygon fill="#bfbfbf" stroke="black" points="174,-112.5 174,-131.5 328,-131.5 328,-112.5 174,-112.5"/>
<text text-anchor="middle" x="251" y="-119.5" font-family="Helvetica,sans-Serif" font-size="10.00">Framework/test/testQuality.cxx</text>
</g>
<!-- Node2 -->
<g id="node2" class="node"><title>Node2</title>
<g id="a_node2"><a xlink:href="Quality_8h.html" target="_top" xlink:title="QualityControl/Quality.h">
<polygon fill="none" stroke="black" points="35.5,-56.5 35.5,-75.5 156.5,-75.5 156.5,-56.5 35.5,-56.5"/>
<text text-anchor="middle" x="96" y="-63.5" font-family="Helvetica,sans-Serif" font-size="10.00">QualityControl/Quality.h</text>
</a>
</g>
</g>
<!-- Node1&#45;&gt;Node2 -->
<g id="edge1" class="edge"><title>Node1&#45;&gt;Node2</title>
<path fill="none" stroke="midnightblue" d="M226.44,-112.444C200.477,-103.399 159.332,-89.064 130.203,-78.9158"/>
<polygon fill="midnightblue" stroke="midnightblue" points="131.04,-75.5013 120.445,-75.5164 128.737,-82.1116 131.04,-75.5013"/>
</g>
<!-- Node6 -->
<g id="node6" class="node"><title>Node6</title>
<g id="a_node6"><a xlink:href="QcInfoLogger_8h.html" target="_top" xlink:title="QualityControl/QcInfoLogger.h">
<polygon fill="none" stroke="black" points="176.5,-56.5 176.5,-75.5 325.5,-75.5 325.5,-56.5 176.5,-56.5"/>
<text text-anchor="middle" x="251" y="-63.5" font-family="Helvetica,sans-Serif" font-size="10.00">QualityControl/QcInfoLogger.h</text>
</a>
</g>
</g>
<!-- Node1&#45;&gt;Node6 -->
<g id="edge5" class="edge"><title>Node1&#45;&gt;Node6</title>
<path fill="none" stroke="midnightblue" d="M251,-112.083C251,-105.006 251,-94.8611 251,-85.9865"/>
<polygon fill="midnightblue" stroke="midnightblue" points="254.5,-85.751 251,-75.7511 247.5,-85.7511 254.5,-85.751"/>
</g>
<!-- Node8 -->
<g id="node8" class="node"><title>Node8</title>
<polygon fill="none" stroke="#bfbfbf" points="343.5,-56.5 343.5,-75.5 462.5,-75.5 462.5,-56.5 343.5,-56.5"/>
<text text-anchor="middle" x="403" y="-63.5" font-family="Helvetica,sans-Serif" font-size="10.00">boost/test/unit_test.hpp</text>
</g>
<!-- Node1&#45;&gt;Node8 -->
<g id="edge7" class="edge"><title>Node1&#45;&gt;Node8</title>
<path fill="none" stroke="midnightblue" d="M275.085,-112.444C300.545,-103.399 340.894,-89.064 369.459,-78.9158"/>
<polygon fill="midnightblue" stroke="midnightblue" points="370.777,-82.1622 379.028,-75.5164 368.433,-75.5661 370.777,-82.1622"/>
</g>
<!-- Node3 -->
<g id="node3" class="node"><title>Node3</title>
<polygon fill="none" stroke="#bfbfbf" points="0,-0.5 0,-19.5 56,-19.5 56,-0.5 0,-0.5"/>
<text text-anchor="middle" x="28" y="-7.5" font-family="Helvetica,sans-Serif" font-size="10.00">Rtypes.h</text>
</g>
<!-- Node2&#45;&gt;Node3 -->
<g id="edge2" class="edge"><title>Node2&#45;&gt;Node3</title>
<path fill="none" stroke="midnightblue" d="M85.0746,-56.324C74.8254,-48.1849 59.2794,-35.8395 46.999,-26.0874"/>
<polygon fill="midnightblue" stroke="midnightblue" points="49.1319,-23.3119 39.1242,-19.8339 44.7787,-28.7937 49.1319,-23.3119"/>
</g>
<!-- Node4 -->
<g id="node4" class="node"><title>Node4</title>
<polygon fill="none" stroke="#bfbfbf" points="74.5,-0.5 74.5,-19.5 115.5,-19.5 115.5,-0.5 74.5,-0.5"/>
<text text-anchor="middle" x="95" y="-7.5" font-family="Helvetica,sans-Serif" font-size="10.00">string</text>
</g>
<!-- Node2&#45;&gt;Node4 -->
<g id="edge3" class="edge"><title>Node2&#45;&gt;Node4</title>
<path fill="none" stroke="midnightblue" d="M95.8349,-56.083C95.7038,-49.0059 95.5159,-38.8611 95.3516,-29.9865"/>
<polygon fill="midnightblue" stroke="midnightblue" points="98.8467,-29.6845 95.1621,-19.7511 91.8479,-29.8142 98.8467,-29.6845"/>
</g>
<!-- Node5 -->
<g id="node5" class="node"><title>Node5</title>
<polygon fill="none" stroke="#bfbfbf" points="133.5,-0.5 133.5,-19.5 168.5,-19.5 168.5,-0.5 133.5,-0.5"/>
<text text-anchor="middle" x="151" y="-7.5" font-family="Helvetica,sans-Serif" font-size="10.00">map</text>
</g>
<!-- Node2&#45;&gt;Node5 -->
<g id="edge4" class="edge"><title>Node2&#45;&gt;Node5</title>
<path fill="none" stroke="midnightblue" d="M105.082,-56.083C113.171,-48.1409 125.195,-36.3354 134.91,-26.7973"/>
<polygon fill="midnightblue" stroke="midnightblue" points="137.403,-29.2545 142.087,-19.7511 132.499,-24.2595 137.403,-29.2545"/>
</g>
<!-- Node7 -->
<g id="node7" class="node"><title>Node7</title>
<polygon fill="none" stroke="#bfbfbf" points="187,-0.5 187,-19.5 317,-19.5 317,-0.5 187,-0.5"/>
<text text-anchor="middle" x="252" y="-7.5" font-family="Helvetica,sans-Serif" font-size="10.00">InfoLogger/InfoLogger.hxx</text>
</g>
<!-- Node6&#45;&gt;Node7 -->
<g id="edge6" class="edge"><title>Node6&#45;&gt;Node7</title>
<path fill="none" stroke="midnightblue" d="M251.165,-56.083C251.296,-49.0059 251.484,-38.8611 251.648,-29.9865"/>
<polygon fill="midnightblue" stroke="midnightblue" points="255.152,-29.8142 251.838,-19.7511 248.153,-29.6845 255.152,-29.8142"/>
</g>
</g>
</svg>
