<?xml version="1.0" encoding="UTF-8" standalone="no"?>
<!DOCTYPE svg PUBLIC "-//W3C//DTD SVG 1.1//EN"
 "http://www.w3.org/Graphics/SVG/1.1/DTD/svg11.dtd">
<!-- Generated by graphviz version 2.38.0 (20140413.2041)
 -->
<!-- Title: Framework/test/testCheckRunner.cxx Pages: 1 -->
<!--zoomable 341 -->
<svg id="main" version="1.1" xmlns="http://www.w3.org/2000/svg" xmlns:xlink="http://www.w3.org/1999/xlink" xml:space="preserve" onload="init(evt)">
<style type="text/css"><![CDATA[
.edge:hover path { stroke: red; }
.edge:hover polygon { stroke: red; fill: red; }
]]></style>
<script type="text/javascript"><![CDATA[
var edges = document.getElementsByTagName('g');
if (edges && edges.length) {
  for (var i=0;i<edges.length;i++) {
    if (edges[i].id.substr(0,4)=='edge') {
      edges[i].setAttribute('class','edge');
    }
  }
}
]]></script>
        <defs>
                <circle id="rim" cx="0" cy="0" r="7"/>
                <circle id="rim2" cx="0" cy="0" r="3.5"/>
                <g id="zoomPlus">
                        <use xlink:href="#rim" fill="#404040">
                                <set attributeName="fill" to="#808080" begin="zoomplus.mouseover" end="zoomplus.mouseout"/>
                        </use>
                        <path d="M-4,0h8M0,-4v8" fill="none" stroke="white" stroke-width="1.5" pointer-events="none"/>
                </g>
                <g id="zoomMin">
                        <use xlink:href="#rim" fill="#404040">
                                <set attributeName="fill" to="#808080" begin="zoomminus.mouseover" end="zoomminus.mouseout"/>
                        </use>
                        <path d="M-4,0h8" fill="none" stroke="white" stroke-width="1.5" pointer-events="none"/>
                </g>
                <g id="dirArrow">
                        <path fill="none" stroke="white" stroke-width="1.5" d="M0,-3.0v7 M-2.5,-0.5L0,-3.0L2.5,-0.5"/>
                </g>
               <g id="resetDef">
                       <use xlink:href="#rim2" fill="#404040">
                               <set attributeName="fill" to="#808080" begin="reset.mouseover" end="reset.mouseout"/>
                       </use>
               </g>
        </defs>

<script type="text/javascript">
var viewWidth = 1898;
var viewHeight = 341;
var sectionId = 'dynsection-0';
</script>
<script xlink:href="svgpan.js"/>
<svg id="graph" class="graph">
<g id="viewport">
<title>Framework/test/testCheckRunner.cxx</title>
<!-- Node1 -->
<g id="node1" class="node"><title>Node1</title>
<polygon fill="#bfbfbf" stroke="black" points="1130,-302.5 1130,-332.5 1263,-332.5 1263,-302.5 1130,-302.5"/>
<text text-anchor="start" x="1138" y="-320.5" font-family="Helvetica,sans-Serif" font-size="10.00">Framework/test/testCheck</text>
<text text-anchor="middle" x="1196.5" y="-309.5" font-family="Helvetica,sans-Serif" font-size="10.00">Runner.cxx</text>
</g>
<!-- Node2 -->
<g id="node2" class="node"><title>Node2</title>
<g id="a_node2"><a xlink:href="CheckRunnerFactory_8h.html" target="_top" xlink:title="QualityControl/CheckRunner\lFactory.h">
<polygon fill="none" stroke="black" points="220.5,-235.5 220.5,-265.5 362.5,-265.5 362.5,-235.5 220.5,-235.5"/>
<text text-anchor="start" x="228.5" y="-253.5" font-family="Helvetica,sans-Serif" font-size="10.00">QualityControl/CheckRunner</text>
<text text-anchor="middle" x="291.5" y="-242.5" font-family="Helvetica,sans-Serif" font-size="10.00">Factory.h</text>
</a>
</g>
</g>
<!-- Node1&#45;&gt;Node2 -->
<g id="edge1" class="edge"><title>Node1&#45;&gt;Node2</title>
<path fill="none" stroke="midnightblue" d="M1129.95,-311.72C967.28,-300.037 549.884,-270.058 372.842,-257.342"/>
<polygon fill="midnightblue" stroke="midnightblue" points="373.032,-253.847 362.807,-256.621 372.53,-260.829 373.032,-253.847"/>
</g>
<!-- Node22 -->
<g id="node22" class="node"><title>Node22</title>
<g id="a_node22"><a xlink:href="CheckRunner_8h.html" target="_top" xlink:title="QualityControl/CheckRunner.h">
<polygon fill="none" stroke="black" points="959.5,-241 959.5,-260 1109.5,-260 1109.5,-241 959.5,-241"/>
<text text-anchor="middle" x="1034.5" y="-248" font-family="Helvetica,sans-Serif" font-size="10.00">QualityControl/CheckRunner.h</text>
</a>
</g>
</g>
<!-- Node1&#45;&gt;Node22 -->
<g id="edge39" class="edge"><title>Node1&#45;&gt;Node22</title>
<path fill="none" stroke="midnightblue" d="M1161.35,-302.396C1132.67,-290.89 1092.56,-274.797 1065.17,-263.807"/>
<polygon fill="midnightblue" stroke="midnightblue" points="1066.29,-260.483 1055.7,-260.007 1063.68,-266.979 1066.29,-260.483"/>
</g>
<!-- Node31 -->
<g id="node31" class="node"><title>Node31</title>
<polygon fill="none" stroke="#bfbfbf" points="1127.5,-241 1127.5,-260 1265.5,-260 1265.5,-241 1127.5,-241"/>
<text text-anchor="middle" x="1196.5" y="-248" font-family="Helvetica,sans-Serif" font-size="10.00">Framework/DataSampling.h</text>
</g>
<!-- Node1&#45;&gt;Node31 -->
<g id="edge63" class="edge"><title>Node1&#45;&gt;Node31</title>
<path fill="none" stroke="midnightblue" d="M1196.5,-302.396C1196.5,-293.064 1196.5,-280.714 1196.5,-270.517"/>
<polygon fill="midnightblue" stroke="midnightblue" points="1200,-270.195 1196.5,-260.195 1193,-270.195 1200,-270.195"/>
</g>
<!-- Node32 -->
<g id="node32" class="node"><title>Node32</title>
<polygon fill="none" stroke="#bfbfbf" points="1284,-241 1284,-260 1403,-260 1403,-241 1284,-241"/>
<text text-anchor="middle" x="1343.5" y="-248" font-family="Helvetica,sans-Serif" font-size="10.00">getTestDataDirectory.h</text>
</g>
<!-- Node1&#45;&gt;Node32 -->
<g id="edge64" class="edge"><title>Node1&#45;&gt;Node32</title>
<path fill="none" stroke="midnightblue" d="M1228.4,-302.396C1254.19,-290.991 1290.17,-275.079 1315.01,-264.098"/>
<polygon fill="midnightblue" stroke="midnightblue" points="1316.53,-267.252 1324.26,-260.007 1313.7,-260.85 1316.53,-267.252"/>
</g>
<!-- Node33 -->
<g id="node33" class="node"><title>Node33</title>
<polygon fill="none" stroke="#bfbfbf" points="1421,-241 1421,-260 1540,-260 1540,-241 1421,-241"/>
<text text-anchor="middle" x="1480.5" y="-248" font-family="Helvetica,sans-Serif" font-size="10.00">boost/test/unit_test.hpp</text>
</g>
<!-- Node1&#45;&gt;Node33 -->
<g id="edge65" class="edge"><title>Node1&#45;&gt;Node33</title>
<path fill="none" stroke="midnightblue" d="M1257.77,-302.476C1310.45,-290.421 1385.31,-273.286 1433.4,-262.28"/>
<polygon fill="midnightblue" stroke="midnightblue" points="1434.27,-265.672 1443.24,-260.029 1432.71,-258.848 1434.27,-265.672"/>
</g>
<!-- Node3 -->
<g id="node3" class="node"><title>Node3</title>
<polygon fill="none" stroke="#bfbfbf" points="1007,-0.5 1007,-19.5 1048,-19.5 1048,-0.5 1007,-0.5"/>
<text text-anchor="middle" x="1027.5" y="-7.5" font-family="Helvetica,sans-Serif" font-size="10.00">string</text>
</g>
<!-- Node2&#45;&gt;Node3 -->
<g id="edge2" class="edge"><title>Node2&#45;&gt;Node3</title>
<path fill="none" stroke="midnightblue" d="M269.966,-235.471C233.8,-210.176 167.866,-155.511 200.5,-112 253.833,-40.8889 305.004,-71.675 392.5,-56 621.933,-14.8968 904.308,-10.9764 996.681,-10.8707"/>
<polygon fill="midnightblue" stroke="midnightblue" points="996.744,-14.3706 1006.75,-10.874 996.746,-7.37065 996.744,-14.3706"/>
</g>
<!-- Node4 -->
<g id="node4" class="node"><title>Node4</title>
<polygon fill="none" stroke="#bfbfbf" points="209.5,-112.5 209.5,-131.5 373.5,-131.5 373.5,-112.5 209.5,-112.5"/>
<text text-anchor="middle" x="291.5" y="-119.5" font-family="Helvetica,sans-Serif" font-size="10.00">Framework/DataProcessorSpec.h</text>
</g>
<!-- Node2&#45;&gt;Node4 -->
<g id="edge3" class="edge"><title>Node2&#45;&gt;Node4</title>
<path fill="none" stroke="midnightblue" d="M291.5,-235.479C291.5,-212.719 291.5,-167.702 291.5,-142.058"/>
<polygon fill="midnightblue" stroke="midnightblue" points="295,-141.789 291.5,-131.789 288,-141.789 295,-141.789"/>
</g>
<!-- Node5 -->
<g id="node5" class="node"><title>Node5</title>
<polygon fill="none" stroke="#bfbfbf" points="0,-174 0,-193 153,-193 153,-174 0,-174"/>
<text text-anchor="middle" x="76.5" y="-181" font-family="Helvetica,sans-Serif" font-size="10.00">Framework/CompletionPolicy.h</text>
</g>
<!-- Node2&#45;&gt;Node5 -->
<g id="edge4" class="edge"><title>Node2&#45;&gt;Node5</title>
<path fill="none" stroke="midnightblue" d="M245.113,-235.476C206.071,-223.673 150.926,-207.001 114.469,-195.979"/>
<polygon fill="midnightblue" stroke="midnightblue" points="115.295,-192.572 104.71,-193.029 113.269,-199.273 115.295,-192.572"/>
</g>
<!-- Node6 -->
<g id="node6" class="node"><title>Node6</title>
<g id="a_node6"><a xlink:href="Check_8h_source.html" target="_top" xlink:title="QualityControl/Check.h">
<polygon fill="none" stroke="black" points="635,-174 635,-193 754,-193 754,-174 635,-174"/>
<text text-anchor="middle" x="694.5" y="-181" font-family="Helvetica,sans-Serif" font-size="10.00">QualityControl/Check.h</text>
</a>
</g>
</g>
<!-- Node2&#45;&gt;Node6 -->
<g id="edge5" class="edge"><title>Node2&#45;&gt;Node6</title>
<path fill="none" stroke="midnightblue" d="M362.621,-238.029C438.91,-225.724 558.897,-206.371 631.779,-194.616"/>
<polygon fill="midnightblue" stroke="midnightblue" points="632.426,-198.057 641.741,-193.009 631.311,-191.147 632.426,-198.057"/>
</g>
<!-- Node6&#45;&gt;Node4 -->
<g id="edge11" class="edge"><title>Node6&#45;&gt;Node4</title>
<path fill="none" stroke="midnightblue" d="M636.76,-173.975C563.442,-163.15 437.138,-144.502 359.313,-133.012"/>
<polygon fill="midnightblue" stroke="midnightblue" points="359.537,-129.507 349.133,-131.509 358.514,-136.432 359.537,-129.507"/>
</g>
<!-- Node7 -->
<g id="node7" class="node"><title>Node7</title>
<polygon fill="none" stroke="#bfbfbf" points="800,-112.5 800,-131.5 859,-131.5 859,-112.5 800,-112.5"/>
<text text-anchor="middle" x="829.5" y="-119.5" font-family="Helvetica,sans-Serif" font-size="10.00">functional</text>
</g>
<!-- Node6&#45;&gt;Node7 -->
<g id="edge6" class="edge"><title>Node6&#45;&gt;Node7</title>
<path fill="none" stroke="midnightblue" d="M713.842,-173.975C736.599,-163.945 774.592,-147.2 800.788,-135.655"/>
<polygon fill="midnightblue" stroke="midnightblue" points="802.455,-138.745 810.194,-131.509 799.631,-132.339 802.455,-138.745"/>
</g>
<!-- Node8 -->
<g id="node8" class="node"><title>Node8</title>
<polygon fill="none" stroke="#bfbfbf" points="1131,-0.5 1131,-19.5 1166,-19.5 1166,-0.5 1131,-0.5"/>
<text text-anchor="middle" x="1148.5" y="-7.5" font-family="Helvetica,sans-Serif" font-size="10.00">map</text>
</g>
<!-- Node6&#45;&gt;Node8 -->
<g id="edge7" class="edge"><title>Node6&#45;&gt;Node8</title>
<path fill="none" stroke="midnightblue" d="M729.108,-173.962C776.425,-162.053 856.705,-140.916 867.5,-132 896.772,-107.823 876.054,-78.6809 906.5,-56 923.559,-43.2921 1060.47,-23.1305 1120.48,-14.7968"/>
<polygon fill="midnightblue" stroke="midnightblue" points="1121.32,-18.2148 1130.75,-13.3828 1120.36,-11.2803 1121.32,-18.2148"/>
</g>
<!-- Node9 -->
<g id="node9" class="node"><title>Node9</title>
<polygon fill="none" stroke="#bfbfbf" points="1640.5,-112.5 1640.5,-131.5 1684.5,-131.5 1684.5,-112.5 1640.5,-112.5"/>
<text text-anchor="middle" x="1662.5" y="-119.5" font-family="Helvetica,sans-Serif" font-size="10.00">vector</text>
</g>
<!-- Node6&#45;&gt;Node9 -->
<g id="edge8" class="edge"><title>Node6&#45;&gt;Node9</title>
<path fill="none" stroke="midnightblue" d="M729.772,-173.955C740.538,-171.654 752.451,-169.413 763.5,-168 1099.36,-125.046 1186.43,-151.019 1524.5,-132 1560.63,-129.967 1602.06,-127.208 1630.02,-125.282"/>
<polygon fill="midnightblue" stroke="midnightblue" points="1630.3,-128.771 1640.04,-124.588 1629.82,-121.788 1630.3,-128.771"/>
</g>
<!-- Node10 -->
<g id="node10" class="node"><title>Node10</title>
<polygon fill="none" stroke="#bfbfbf" points="1740.5,-112.5 1740.5,-131.5 1792.5,-131.5 1792.5,-112.5 1740.5,-112.5"/>
<text text-anchor="middle" x="1766.5" y="-119.5" font-family="Helvetica,sans-Serif" font-size="10.00">memory</text>
</g>
<!-- Node6&#45;&gt;Node10 -->
<g id="edge9" class="edge"><title>Node6&#45;&gt;Node10</title>
<path fill="none" stroke="midnightblue" d="M729.41,-173.972C740.269,-171.642 752.323,-169.381 763.5,-168 1174.02,-117.287 1281.2,-165.336 1693.5,-132 1705.39,-131.039 1718.32,-129.581 1729.95,-128.117"/>
<polygon fill="midnightblue" stroke="midnightblue" points="1730.73,-131.544 1740.2,-126.784 1729.83,-124.603 1730.73,-131.544"/>
</g>
<!-- Node11 -->
<g id="node11" class="node"><title>Node11</title>
<polygon fill="none" stroke="#bfbfbf" points="916,-56.5 916,-75.5 999,-75.5 999,-56.5 916,-56.5"/>
<text text-anchor="middle" x="957.5" y="-63.5" font-family="Helvetica,sans-Serif" font-size="10.00">unordered_map</text>
</g>
<!-- Node6&#45;&gt;Node11 -->
<g id="edge10" class="edge"><title>Node6&#45;&gt;Node11</title>
<path fill="none" stroke="midnightblue" d="M735.114,-173.989C791.269,-162.009 887.344,-140.669 901.5,-132 920.882,-120.131 937.053,-99.3207 946.955,-84.443"/>
<polygon fill="midnightblue" stroke="midnightblue" points="950.117,-85.9935 952.528,-75.6767 944.21,-82.238 950.117,-85.9935"/>
</g>
<!-- Node12 -->
<g id="node12" class="node"><title>Node12</title>
<g id="a_node12"><a xlink:href="Quality_8h.html" target="_top" xlink:title="QualityControl/Quality.h">
<polygon fill="none" stroke="black" points="1132,-56.5 1132,-75.5 1253,-75.5 1253,-56.5 1132,-56.5"/>
<text text-anchor="middle" x="1192.5" y="-63.5" font-family="Helvetica,sans-Serif" font-size="10.00">QualityControl/Quality.h</text>
</a>
</g>
</g>
<!-- Node6&#45;&gt;Node12 -->
<g id="edge12" class="edge"><title>Node6&#45;&gt;Node12</title>
<path fill="none" stroke="midnightblue" d="M734.788,-173.906C791.315,-161.824 891.305,-140.36 927.5,-132 1005.6,-113.961 1096.24,-91.3689 1148.72,-78.1252"/>
<polygon fill="midnightblue" stroke="midnightblue" points="1149.85,-81.4488 1158.69,-75.6052 1148.13,-74.6622 1149.85,-81.4488"/>
</g>
<!-- Node14 -->
<g id="node14" class="node"><title>Node14</title>
<g id="a_node14"><a xlink:href="QualityObject_8h_source.html" target="_top" xlink:title="QualityControl/QualityObject.h">
<polygon fill="none" stroke="black" points="1367,-112.5 1367,-131.5 1516,-131.5 1516,-112.5 1367,-112.5"/>
<text text-anchor="middle" x="1441.5" y="-119.5" font-family="Helvetica,sans-Serif" font-size="10.00">QualityControl/QualityObject.h</text>
</a>
</g>
</g>
<!-- Node6&#45;&gt;Node14 -->
<g id="edge16" class="edge"><title>Node6&#45;&gt;Node14</title>
<path fill="none" stroke="midnightblue" d="M730.143,-173.997C740.816,-171.726 752.585,-169.491 763.5,-168 1009.73,-134.36 1073.59,-149.293 1321.5,-132 1332.86,-131.207 1344.83,-130.344 1356.63,-129.476"/>
<polygon fill="midnightblue" stroke="midnightblue" points="1357.22,-132.942 1366.93,-128.714 1356.7,-125.961 1357.22,-132.942"/>
</g>
<!-- Node17 -->
<g id="node17" class="node"><title>Node17</title>
<g id="a_node17"><a xlink:href="MonitorObject_8h.html" target="_top" xlink:title="QualityControl/MonitorObject.h">
<polygon fill="none" stroke="black" points="1348,-56.5 1348,-75.5 1499,-75.5 1499,-56.5 1348,-56.5"/>
<text text-anchor="middle" x="1423.5" y="-63.5" font-family="Helvetica,sans-Serif" font-size="10.00">QualityControl/MonitorObject.h</text>
</a>
</g>
</g>
<!-- Node6&#45;&gt;Node17 -->
<g id="edge21" class="edge"><title>Node6&#45;&gt;Node17</title>
<path fill="none" stroke="midnightblue" d="M730.507,-173.98C741.086,-171.736 752.712,-169.52 763.5,-168 981.045,-137.341 1042.2,-180.38 1256.5,-132 1308.21,-120.327 1365.06,-95.4012 1397.3,-80.033"/>
<polygon fill="midnightblue" stroke="midnightblue" points="1399.01,-83.0975 1406.49,-75.5957 1395.96,-76.7945 1399.01,-83.0975"/>
</g>
<!-- Node18 -->
<g id="node18" class="node"><title>Node18</title>
<g id="a_node18"><a xlink:href="CheckInterface_8h.html" target="_top" xlink:title="QualityControl/CheckInterface.h">
<polygon fill="none" stroke="black" points="1091,-112.5 1091,-131.5 1248,-131.5 1248,-112.5 1091,-112.5"/>
<text text-anchor="middle" x="1169.5" y="-119.5" font-family="Helvetica,sans-Serif" font-size="10.00">QualityControl/CheckInterface.h</text>
</a>
</g>
</g>
<!-- Node6&#45;&gt;Node18 -->
<g id="edge27" class="edge"><title>Node6&#45;&gt;Node18</title>
<path fill="none" stroke="midnightblue" d="M731.979,-173.936C742.168,-171.796 753.226,-169.645 763.5,-168 872.232,-150.591 998.426,-137.746 1080.9,-130.332"/>
<polygon fill="midnightblue" stroke="midnightblue" points="1081.34,-133.807 1090.99,-129.433 1080.71,-126.835 1081.34,-133.807"/>
</g>
<!-- Node19 -->
<g id="node19" class="node"><title>Node19</title>
<g id="a_node19"><a xlink:href="QcInfoLogger_8h.html" target="_top" xlink:title="QualityControl/QcInfoLogger.h">
<polygon fill="none" stroke="black" points="392,-112.5 392,-131.5 541,-131.5 541,-112.5 392,-112.5"/>
<text text-anchor="middle" x="466.5" y="-119.5" font-family="Helvetica,sans-Serif" font-size="10.00">QualityControl/QcInfoLogger.h</text>
</a>
</g>
</g>
<!-- Node6&#45;&gt;Node19 -->
<g id="edge34" class="edge"><title>Node6&#45;&gt;Node19</title>
<path fill="none" stroke="midnightblue" d="M661.833,-173.975C621.623,-163.482 553.242,-145.637 508.985,-134.087"/>
<polygon fill="midnightblue" stroke="midnightblue" points="509.666,-130.648 499.106,-131.509 507.898,-137.421 509.666,-130.648"/>
</g>
<!-- Node21 -->
<g id="node21" class="node"><title>Node21</title>
<g id="a_node21"><a xlink:href="CheckConfig_8h.html" target="_top" xlink:title="QualityControl/CheckConfig.h">
<polygon fill="none" stroke="black" points="635,-112.5 635,-131.5 782,-131.5 782,-112.5 635,-112.5"/>
<text text-anchor="middle" x="708.5" y="-119.5" font-family="Helvetica,sans-Serif" font-size="10.00">QualityControl/CheckConfig.h</text>
</a>
</g>
</g>
<!-- Node6&#45;&gt;Node21 -->
<g id="edge36" class="edge"><title>Node6&#45;&gt;Node21</title>
<path fill="none" stroke="midnightblue" d="M696.506,-173.975C698.502,-165.492 701.628,-152.204 704.189,-141.322"/>
<polygon fill="midnightblue" stroke="midnightblue" points="707.614,-142.045 706.498,-131.509 700.8,-140.442 707.614,-142.045"/>
</g>
<!-- Node12&#45;&gt;Node3 -->
<g id="edge14" class="edge"><title>Node12&#45;&gt;Node3</title>
<path fill="none" stroke="midnightblue" d="M1166.36,-56.4435C1136.96,-46.8247 1089.29,-31.2238 1058.17,-21.0372"/>
<polygon fill="midnightblue" stroke="midnightblue" points="1058.89,-17.5907 1048.3,-17.8067 1056.71,-24.2435 1058.89,-17.5907"/>
</g>
<!-- Node12&#45;&gt;Node8 -->
<g id="edge15" class="edge"><title>Node12&#45;&gt;Node8</title>
<path fill="none" stroke="midnightblue" d="M1185.23,-56.083C1178.96,-48.3768 1169.71,-37.0333 1162.07,-27.6531"/>
<polygon fill="midnightblue" stroke="midnightblue" points="1164.66,-25.2926 1155.63,-19.7511 1159.23,-29.7143 1164.66,-25.2926"/>
</g>
<!-- Node13 -->
<g id="node13" class="node"><title>Node13</title>
<polygon fill="none" stroke="#bfbfbf" points="1253.5,-0.5 1253.5,-19.5 1309.5,-19.5 1309.5,-0.5 1253.5,-0.5"/>
<text text-anchor="middle" x="1281.5" y="-7.5" font-family="Helvetica,sans-Serif" font-size="10.00">Rtypes.h</text>
</g>
<!-- Node12&#45;&gt;Node13 -->
<g id="edge13" class="edge"><title>Node12&#45;&gt;Node13</title>
<path fill="none" stroke="midnightblue" d="M1206.8,-56.324C1220.68,-47.9002 1241.99,-34.9709 1258.3,-25.0741"/>
<polygon fill="midnightblue" stroke="midnightblue" points="1260.5,-27.8341 1267.24,-19.6545 1256.87,-21.8495 1260.5,-27.8341"/>
</g>
<!-- Node14&#45;&gt;Node8 -->
<g id="edge17" class="edge"><title>Node14&#45;&gt;Node8</title>
<path fill="none" stroke="midnightblue" d="M1418.51,-112.368C1365.06,-92.3014 1232.64,-42.5883 1175.48,-21.1293"/>
<polygon fill="midnightblue" stroke="midnightblue" points="1176.62,-17.8203 1166.03,-17.5822 1174.16,-24.3737 1176.62,-17.8203"/>
</g>
<!-- Node14&#45;&gt;Node12 -->
<g id="edge20" class="edge"><title>Node14&#45;&gt;Node12</title>
<path fill="none" stroke="midnightblue" d="M1402.05,-112.444C1358.61,-103.023 1288.71,-87.8656 1241.72,-77.6752"/>
<polygon fill="midnightblue" stroke="midnightblue" points="1242.28,-74.2154 1231.77,-75.5164 1240.8,-81.0564 1242.28,-74.2154"/>
</g>
<!-- Node15 -->
<g id="node15" class="node"><title>Node15</title>
<polygon fill="none" stroke="#bfbfbf" points="1403,-0.5 1403,-19.5 1462,-19.5 1462,-0.5 1403,-0.5"/>
<text text-anchor="middle" x="1432.5" y="-7.5" font-family="Helvetica,sans-Serif" font-size="10.00">TObject.h</text>
</g>
<!-- Node14&#45;&gt;Node15 -->
<g id="edge18" class="edge"><title>Node14&#45;&gt;Node15</title>
<path fill="none" stroke="midnightblue" d="M1462.56,-112.373C1486.65,-101.139 1521.13,-80.071 1507.5,-56 1499.15,-41.2584 1483.84,-30.8192 1469.21,-23.7321"/>
<polygon fill="midnightblue" stroke="midnightblue" points="1470.34,-20.4041 1459.78,-19.5474 1467.5,-26.8025 1470.34,-20.4041"/>
</g>
<!-- Node16 -->
<g id="node16" class="node"><title>Node16</title>
<polygon fill="none" stroke="#bfbfbf" points="1498.5,-0.5 1498.5,-19.5 1614.5,-19.5 1614.5,-0.5 1498.5,-0.5"/>
<text text-anchor="middle" x="1556.5" y="-7.5" font-family="Helvetica,sans-Serif" font-size="10.00">Common/Exceptions.h</text>
</g>
<!-- Node14&#45;&gt;Node16 -->
<g id="edge19" class="edge"><title>Node14&#45;&gt;Node16</title>
<path fill="none" stroke="midnightblue" d="M1465.14,-112.496C1482.99,-105.105 1507.12,-92.9151 1523.5,-76 1536.41,-62.6695 1545.36,-43.2861 1550.65,-29.1565"/>
<polygon fill="midnightblue" stroke="midnightblue" points="1554,-30.1577 1553.98,-19.5629 1547.39,-27.8584 1554,-30.1577"/>
</g>
<!-- Node17&#45;&gt;Node3 -->
<g id="edge22" class="edge"><title>Node17&#45;&gt;Node3</title>
<path fill="none" stroke="midnightblue" d="M1360.75,-56.4435C1274.61,-44.6962 1123.03,-24.0263 1058.25,-15.1936"/>
<polygon fill="midnightblue" stroke="midnightblue" points="1058.65,-11.7154 1048.27,-13.8321 1057.7,-18.6512 1058.65,-11.7154"/>
</g>
<!-- Node17&#45;&gt;Node8 -->
<g id="edge23" class="edge"><title>Node17&#45;&gt;Node8</title>
<path fill="none" stroke="midnightblue" d="M1379.93,-56.4435C1322.76,-45.2183 1224.1,-25.8461 1176.2,-16.4397"/>
<polygon fill="midnightblue" stroke="midnightblue" points="1176.73,-12.9768 1166.24,-14.4843 1175.38,-19.8457 1176.73,-12.9768"/>
</g>
<!-- Node17&#45;&gt;Node13 -->
<g id="edge24" class="edge"><title>Node17&#45;&gt;Node13</title>
<path fill="none" stroke="midnightblue" d="M1401,-56.4435C1377.42,-47.4776 1340.18,-33.314 1313.54,-23.1827"/>
<polygon fill="midnightblue" stroke="midnightblue" points="1314.49,-19.7995 1303.9,-19.5164 1312,-26.3424 1314.49,-19.7995"/>
</g>
<!-- Node17&#45;&gt;Node15 -->
<g id="edge25" class="edge"><title>Node17&#45;&gt;Node15</title>
<path fill="none" stroke="midnightblue" d="M1424.99,-56.083C1426.18,-48.9272 1427.89,-38.6353 1429.38,-29.6911"/>
<polygon fill="midnightblue" stroke="midnightblue" points="1432.85,-30.1904 1431.04,-19.7511 1425.95,-29.0396 1432.85,-30.1904"/>
</g>
<!-- Node17&#45;&gt;Node16 -->
<g id="edge26" class="edge"><title>Node17&#45;&gt;Node16</title>
<path fill="none" stroke="midnightblue" d="M1444.57,-56.4435C1466.56,-47.5171 1501.23,-33.4387 1526.16,-23.3168"/>
<polygon fill="midnightblue" stroke="midnightblue" points="1527.58,-26.5213 1535.52,-19.5164 1524.94,-20.0355 1527.58,-26.5213"/>
</g>
<!-- Node18&#45;&gt;Node3 -->
<g id="edge28" class="edge"><title>Node18&#45;&gt;Node3</title>
<path fill="none" stroke="midnightblue" d="M1158.36,-112.368C1134.2,-93.6531 1076.75,-49.1509 1046.65,-25.8324"/>
<polygon fill="midnightblue" stroke="midnightblue" points="1048.64,-22.9485 1038.59,-19.5914 1044.35,-28.4824 1048.64,-22.9485"/>
</g>
<!-- Node18&#45;&gt;Node8 -->
<g id="edge29" class="edge"><title>Node18&#45;&gt;Node8</title>
<path fill="none" stroke="midnightblue" d="M1155.42,-112.259C1144.15,-104.355 1129.15,-91.5838 1122.5,-76 1115.6,-59.8343 1124.79,-41.1887 1134.1,-28.0245"/>
<polygon fill="midnightblue" stroke="midnightblue" points="1137.04,-29.9439 1140.36,-19.8844 1131.49,-25.6745 1137.04,-29.9439"/>
</g>
<!-- Node18&#45;&gt;Node11 -->
<g id="edge30" class="edge"><title>Node18&#45;&gt;Node11</title>
<path fill="none" stroke="midnightblue" d="M1135.91,-112.444C1099.31,-103.122 1040.66,-88.1828 1000.67,-77.9972"/>
<polygon fill="midnightblue" stroke="midnightblue" points="1001.49,-74.5932 990.935,-75.5164 999.761,-81.3766 1001.49,-74.5932"/>
</g>
<!-- Node18&#45;&gt;Node12 -->
<g id="edge33" class="edge"><title>Node18&#45;&gt;Node12</title>
<path fill="none" stroke="midnightblue" d="M1173.3,-112.083C1176.41,-104.77 1180.92,-94.1814 1184.79,-85.1034"/>
<polygon fill="midnightblue" stroke="midnightblue" points="1188.07,-86.3229 1188.77,-75.7511 1181.63,-83.5798 1188.07,-86.3229"/>
</g>
<!-- Node18&#45;&gt;Node13 -->
<g id="edge31" class="edge"><title>Node18&#45;&gt;Node13</title>
<path fill="none" stroke="midnightblue" d="M1201.72,-112.421C1221.54,-105.593 1246.02,-94.1122 1261.5,-76 1272.64,-62.9688 1277.57,-43.8116 1279.76,-29.6684"/>
<polygon fill="midnightblue" stroke="midnightblue" points="1283.25,-29.9648 1280.99,-19.6136 1276.3,-29.1142 1283.25,-29.9648"/>
</g>
<!-- Node18&#45;&gt;Node17 -->
<g id="edge32" class="edge"><title>Node18&#45;&gt;Node17</title>
<path fill="none" stroke="midnightblue" d="M1209.75,-112.444C1254.15,-103.004 1325.65,-87.802 1373.59,-77.6111"/>
<polygon fill="midnightblue" stroke="midnightblue" points="1374.39,-81.0195 1383.44,-75.5164 1372.93,-74.1725 1374.39,-81.0195"/>
</g>
<!-- Node20 -->
<g id="node20" class="node"><title>Node20</title>
<polygon fill="none" stroke="#bfbfbf" points="401.5,-56.5 401.5,-75.5 531.5,-75.5 531.5,-56.5 401.5,-56.5"/>
<text text-anchor="middle" x="466.5" y="-63.5" font-family="Helvetica,sans-Serif" font-size="10.00">InfoLogger/InfoLogger.hxx</text>
</g>
<!-- Node19&#45;&gt;Node20 -->
<g id="edge35" class="edge"><title>Node19&#45;&gt;Node20</title>
<path fill="none" stroke="midnightblue" d="M466.5,-112.083C466.5,-105.006 466.5,-94.8611 466.5,-85.9865"/>
<polygon fill="midnightblue" stroke="midnightblue" points="470,-85.751 466.5,-75.7511 463,-85.7511 470,-85.751"/>
</g>
<!-- Node21&#45;&gt;Node3 -->
<g id="edge37" class="edge"><title>Node21&#45;&gt;Node3</title>
<path fill="none" stroke="midnightblue" d="M728.601,-112.395C759.454,-99.3438 820.485,-74.1462 873.5,-56 915.881,-41.4937 965.789,-27.4544 997.042,-19.0201"/>
<polygon fill="midnightblue" stroke="midnightblue" points="998.134,-22.351 1006.89,-16.3821 996.322,-15.5895 998.134,-22.351"/>
</g>
<!-- Node21&#45;&gt;Node11 -->
<g id="edge38" class="edge"><title>Node21&#45;&gt;Node11</title>
<path fill="none" stroke="midnightblue" d="M747.955,-112.444C791.392,-103.023 861.286,-87.8656 908.276,-77.6752"/>
<polygon fill="midnightblue" stroke="midnightblue" points="909.199,-81.0564 918.23,-75.5164 907.715,-74.2154 909.199,-81.0564"/>
</g>
<!-- Node22&#45;&gt;Node3 -->
<g id="edge42" class="edge"><title>Node22&#45;&gt;Node3</title>
<path fill="none" stroke="midnightblue" d="M959.276,-246.272C839.503,-240.353 616.443,-225.834 592.5,-199 550.187,-151.577 549.934,-103.196 592.5,-56 619.552,-26.0056 902.202,-14.783 996.828,-11.8495"/>
<polygon fill="midnightblue" stroke="midnightblue" points="997.015,-15.3455 1006.91,-11.5466 996.805,-8.34868 997.015,-15.3455"/>
</g>
<!-- Node22&#45;&gt;Node4 -->
<g id="edge51" class="edge"><title>Node22&#45;&gt;Node4</title>
<path fill="none" stroke="midnightblue" d="M959.28,-248.064C856.049,-244.795 665.198,-234.083 506.5,-199 437.576,-183.763 360.367,-152.884 319.848,-135.543"/>
<polygon fill="midnightblue" stroke="midnightblue" points="321.167,-132.3 310.599,-131.546 318.39,-138.726 321.167,-132.3"/>
</g>
<!-- Node22&#45;&gt;Node6 -->
<g id="edge62" class="edge"><title>Node22&#45;&gt;Node6</title>
<path fill="none" stroke="midnightblue" d="M986.951,-240.98C932.789,-231.195 841.664,-214.494 763.5,-199 757.275,-197.766 750.741,-196.437 744.28,-195.103"/>
<polygon fill="midnightblue" stroke="midnightblue" points="744.742,-191.624 734.239,-193.013 743.316,-198.477 744.742,-191.624"/>
</g>
<!-- Node22&#45;&gt;Node8 -->
<g id="edge43" class="edge"><title>Node22&#45;&gt;Node8</title>
<path fill="none" stroke="midnightblue" d="M959.443,-245.532C847.41,-238.833 647.21,-223.556 625.5,-199 599.888,-170.032 601.183,-142.063 625.5,-112 657.341,-72.6345 1017.45,-26.7065 1120.88,-14.2527"/>
<polygon fill="midnightblue" stroke="midnightblue" points="1121.35,-17.7207 1130.87,-13.058 1120.52,-10.7702 1121.35,-17.7207"/>
</g>
<!-- Node22&#45;&gt;Node9 -->
<g id="edge44" class="edge"><title>Node22&#45;&gt;Node9</title>
<path fill="none" stroke="midnightblue" d="M1077.96,-240.971C1090.95,-238.699 1105.26,-236.47 1118.5,-235 1158.03,-230.609 1806.09,-227.822 1833.5,-199 1842.99,-189.016 1841.91,-178.912 1833.5,-168 1816.67,-146.167 1739.29,-132.82 1694.6,-126.798"/>
<polygon fill="midnightblue" stroke="midnightblue" points="1694.9,-123.307 1684.53,-125.49 1694,-130.249 1694.9,-123.307"/>
</g>
<!-- Node22&#45;&gt;Node10 -->
<g id="edge41" class="edge"><title>Node22&#45;&gt;Node10</title>
<path fill="none" stroke="midnightblue" d="M1077.95,-240.961C1090.95,-238.689 1105.26,-236.463 1118.5,-235 1158.97,-230.529 1822.43,-228.489 1850.5,-199 1860,-189.021 1857.58,-179.821 1850.5,-168 1840.03,-150.514 1820.19,-139.437 1802.41,-132.649"/>
<polygon fill="midnightblue" stroke="midnightblue" points="1803.42,-129.294 1792.83,-129.306 1801.12,-135.904 1803.42,-129.294"/>
</g>
<!-- Node22&#45;&gt;Node17 -->
<g id="edge60" class="edge"><title>Node22&#45;&gt;Node17</title>
<path fill="none" stroke="midnightblue" d="M1077.95,-240.952C1090.95,-238.679 1105.26,-236.455 1118.5,-235 1159.91,-230.448 1838.76,-229.156 1867.5,-199 1974.86,-86.3572 1666.25,-68.5841 1509.16,-66.6197"/>
<polygon fill="midnightblue" stroke="midnightblue" points="1509.08,-63.1187 1499.04,-66.5124 1509.01,-70.1183 1509.08,-63.1187"/>
</g>
<!-- Node22&#45;&gt;Node18 -->
<g id="edge52" class="edge"><title>Node22&#45;&gt;Node18</title>
<path fill="none" stroke="midnightblue" d="M1079.28,-240.938C1091.93,-238.747 1105.72,-236.57 1118.5,-235 1172.57,-228.358 1570.42,-238.913 1607.5,-199 1616.88,-188.906 1616.73,-178.228 1607.5,-168 1595.95,-155.201 1383.11,-138.09 1258.45,-129.103"/>
<polygon fill="midnightblue" stroke="midnightblue" points="1258.38,-125.589 1248.16,-128.365 1257.88,-132.571 1258.38,-125.589"/>
</g>
<!-- Node22&#45;&gt;Node19 -->
<g id="edge61" class="edge"><title>Node22&#45;&gt;Node19</title>
<path fill="none" stroke="midnightblue" d="M959.213,-247.051C842.852,-242.352 625.34,-229.671 554.5,-199 523.934,-185.766 496.212,-158.02 480.366,-139.966"/>
<polygon fill="midnightblue" stroke="midnightblue" points="482.726,-137.338 473.581,-131.988 477.394,-141.873 482.726,-137.338"/>
</g>
<!-- Node23 -->
<g id="node23" class="node"><title>Node23</title>
<polygon fill="none" stroke="#bfbfbf" points="772.5,-174 772.5,-193 818.5,-193 818.5,-174 772.5,-174"/>
<text text-anchor="middle" x="795.5" y="-181" font-family="Helvetica,sans-Serif" font-size="10.00">chrono</text>
</g>
<!-- Node22&#45;&gt;Node23 -->
<g id="edge40" class="edge"><title>Node22&#45;&gt;Node23</title>
<path fill="none" stroke="midnightblue" d="M988.981,-240.94C946.567,-232.369 881.874,-217.768 827.5,-199 825.835,-198.425 824.139,-197.796 822.439,-197.131"/>
<polygon fill="midnightblue" stroke="midnightblue" points="823.44,-193.754 812.866,-193.077 820.71,-200.2 823.44,-193.754"/>
</g>
<!-- Node24 -->
<g id="node24" class="node"><title>Node24</title>
<polygon fill="none" stroke="#bfbfbf" points="836.5,-174 836.5,-193 914.5,-193 914.5,-174 836.5,-174"/>
<text text-anchor="middle" x="875.5" y="-181" font-family="Helvetica,sans-Serif" font-size="10.00">unordered_set</text>
</g>
<!-- Node22&#45;&gt;Node24 -->
<g id="edge45" class="edge"><title>Node22&#45;&gt;Node24</title>
<path fill="none" stroke="midnightblue" d="M1013.39,-240.869C985.869,-229.619 937.552,-209.867 906.041,-196.985"/>
<polygon fill="midnightblue" stroke="midnightblue" points="907.029,-193.608 896.448,-193.064 904.38,-200.088 907.029,-193.608"/>
</g>
<!-- Node25 -->
<g id="node25" class="node"><title>Node25</title>
<polygon fill="none" stroke="#bfbfbf" points="932.5,-174 932.5,-193 1024.5,-193 1024.5,-174 932.5,-174"/>
<text text-anchor="middle" x="978.5" y="-181" font-family="Helvetica,sans-Serif" font-size="10.00">Common/Timer.h</text>
</g>
<!-- Node22&#45;&gt;Node25 -->
<g id="edge46" class="edge"><title>Node22&#45;&gt;Node25</title>
<path fill="none" stroke="midnightblue" d="M1026.95,-240.734C1018.22,-230.598 1003.65,-213.69 992.763,-201.056"/>
<polygon fill="midnightblue" stroke="midnightblue" points="995.112,-198.419 985.933,-193.127 989.808,-202.988 995.112,-198.419"/>
</g>
<!-- Node26 -->
<g id="node26" class="node"><title>Node26</title>
<polygon fill="none" stroke="#bfbfbf" points="1042.5,-174 1042.5,-193 1140.5,-193 1140.5,-174 1042.5,-174"/>
<text text-anchor="middle" x="1091.5" y="-181" font-family="Helvetica,sans-Serif" font-size="10.00">Framework/Task.h</text>
</g>
<!-- Node22&#45;&gt;Node26 -->
<g id="edge47" class="edge"><title>Node22&#45;&gt;Node26</title>
<path fill="none" stroke="midnightblue" d="M1042.19,-240.734C1051.16,-230.5 1066.19,-213.364 1077.3,-200.692"/>
<polygon fill="midnightblue" stroke="midnightblue" points="1079.97,-202.954 1083.93,-193.127 1074.71,-198.338 1079.97,-202.954"/>
</g>
<!-- Node27 -->
<g id="node27" class="node"><title>Node27</title>
<polygon fill="none" stroke="#bfbfbf" points="1159,-174 1159,-193 1276,-193 1276,-174 1159,-174"/>
<text text-anchor="middle" x="1217.5" y="-181" font-family="Helvetica,sans-Serif" font-size="10.00">Headers/DataHeader.h</text>
</g>
<!-- Node22&#45;&gt;Node27 -->
<g id="edge48" class="edge"><title>Node22&#45;&gt;Node27</title>
<path fill="none" stroke="midnightblue" d="M1058.8,-240.869C1090.88,-229.473 1147.53,-209.353 1183.75,-196.487"/>
<polygon fill="midnightblue" stroke="midnightblue" points="1185.14,-199.709 1193.39,-193.064 1182.8,-193.113 1185.14,-199.709"/>
</g>
<!-- Node28 -->
<g id="node28" class="node"><title>Node28</title>
<polygon fill="none" stroke="#bfbfbf" points="1294,-174 1294,-193 1445,-193 1445,-174 1294,-174"/>
<text text-anchor="middle" x="1369.5" y="-181" font-family="Helvetica,sans-Serif" font-size="10.00">Monitoring/MonitoringFactory.h</text>
</g>
<!-- Node22&#45;&gt;Node28 -->
<g id="edge49" class="edge"><title>Node22&#45;&gt;Node28</title>
<path fill="none" stroke="midnightblue" d="M1078.64,-240.936C1139.61,-229.106 1249.5,-207.784 1315.35,-195.006"/>
<polygon fill="midnightblue" stroke="midnightblue" points="1316.38,-198.373 1325.53,-193.032 1315.05,-191.501 1316.38,-198.373"/>
</g>
<!-- Node29 -->
<g id="node29" class="node"><title>Node29</title>
<polygon fill="none" stroke="#bfbfbf" points="1463,-168.5 1463,-198.5 1598,-198.5 1598,-168.5 1463,-168.5"/>
<text text-anchor="start" x="1471" y="-186.5" font-family="Helvetica,sans-Serif" font-size="10.00">Configuration/Configuration</text>
<text text-anchor="middle" x="1530.5" y="-175.5" font-family="Helvetica,sans-Serif" font-size="10.00">Interface.h</text>
</g>
<!-- Node22&#45;&gt;Node29 -->
<g id="edge50" class="edge"><title>Node22&#45;&gt;Node29</title>
<path fill="none" stroke="midnightblue" d="M1080.63,-240.991C1092.91,-238.875 1106.19,-236.722 1118.5,-235 1263.62,-214.699 1303.65,-220.601 1452.95,-198.998"/>
<polygon fill="midnightblue" stroke="midnightblue" points="1453.56,-202.446 1462.94,-197.534 1452.54,-195.52 1453.56,-202.446"/>
</g>
<!-- Node30 -->
<g id="node30" class="node"><title>Node30</title>
<g id="a_node30"><a xlink:href="DatabaseInterface_8h.html" target="_top" xlink:title="QualityControl/DatabaseInterface.h">
<polygon fill="none" stroke="black" points="1654.5,-174 1654.5,-193 1824.5,-193 1824.5,-174 1654.5,-174"/>
<text text-anchor="middle" x="1739.5" y="-181" font-family="Helvetica,sans-Serif" font-size="10.00">QualityControl/DatabaseInterface.h</text>
</a>
</g>
</g>
<!-- Node22&#45;&gt;Node30 -->
<g id="edge53" class="edge"><title>Node22&#45;&gt;Node30</title>
<path fill="none" stroke="midnightblue" d="M1078.84,-240.975C1091.6,-238.758 1105.57,-236.558 1118.5,-235 1349.38,-207.185 1409.28,-223.869 1640.5,-199 1652.24,-197.737 1664.72,-196.123 1676.73,-194.433"/>
<polygon fill="midnightblue" stroke="midnightblue" points="1677.28,-197.89 1686.68,-193.001 1676.28,-190.962 1677.28,-197.89"/>
</g>
<!-- Node30&#45;&gt;Node3 -->
<g id="edge54" class="edge"><title>Node30&#45;&gt;Node3</title>
<path fill="none" stroke="midnightblue" d="M1666.93,-173.987C1647.63,-171.871 1626.79,-169.719 1607.5,-168 1549.15,-162.801 1129.53,-165.544 1081.5,-132 1047.19,-108.035 1034.37,-57.0202 1029.83,-29.5068"/>
<polygon fill="midnightblue" stroke="midnightblue" points="1033.29,-28.9965 1028.39,-19.6051 1026.36,-30.0051 1033.29,-28.9965"/>
</g>
<!-- Node30&#45;&gt;Node9 -->
<g id="edge56" class="edge"><title>Node30&#45;&gt;Node9</title>
<path fill="none" stroke="midnightblue" d="M1728.47,-173.975C1716.23,-164.52 1696.27,-149.096 1681.51,-137.687"/>
<polygon fill="midnightblue" stroke="midnightblue" points="1683.56,-134.854 1673.51,-131.509 1679.28,-140.393 1683.56,-134.854"/>
</g>
<!-- Node30&#45;&gt;Node10 -->
<g id="edge55" class="edge"><title>Node30&#45;&gt;Node10</title>
<path fill="none" stroke="midnightblue" d="M1743.37,-173.975C1747.3,-165.315 1753.5,-151.649 1758.49,-140.645"/>
<polygon fill="midnightblue" stroke="midnightblue" points="1761.69,-142.062 1762.64,-131.509 1755.32,-139.169 1761.69,-142.062"/>
</g>
<!-- Node30&#45;&gt;Node11 -->
<g id="edge57" class="edge"><title>Node30&#45;&gt;Node11</title>
<path fill="none" stroke="midnightblue" d="M1667.63,-173.977C1648.14,-171.837 1627.02,-169.675 1607.5,-168 1478.39,-156.922 1144.22,-183.927 1025.5,-132 1001.98,-121.715 981.715,-99.5616 969.567,-83.9877"/>
<polygon fill="midnightblue" stroke="midnightblue" points="972.179,-81.6354 963.39,-75.7178 966.57,-85.8242 972.179,-81.6354"/>
</g>
<!-- Node30&#45;&gt;Node14 -->
<g id="edge58" class="edge"><title>Node30&#45;&gt;Node14</title>
<path fill="none" stroke="midnightblue" d="M1696.8,-173.975C1643.36,-163.305 1551.85,-145.034 1494.13,-133.509"/>
<polygon fill="midnightblue" stroke="midnightblue" points="1494.61,-130.035 1484.12,-131.509 1493.24,-136.899 1494.61,-130.035"/>
</g>
<!-- Node30&#45;&gt;Node17 -->
<g id="edge59" class="edge"><title>Node30&#45;&gt;Node17</title>
<path fill="none" stroke="midnightblue" d="M1736.54,-173.888C1730.82,-158.668 1716.74,-127.192 1693.5,-112 1663.75,-92.5559 1576.6,-80.4713 1509.27,-73.784"/>
<polygon fill="midnightblue" stroke="midnightblue" points="1509.36,-70.2764 1499.07,-72.7966 1508.69,-77.2439 1509.36,-70.2764"/>
</g>
</g>
</svg>
        <g id="navigator" transform="translate(0 0)" fill="#404254">
                <rect fill="#f2f5e9" fill-opacity="0.5" stroke="#606060" stroke-width=".5" x="0" y="0" width="60" height="60"/>
                <use id="zoomplus" xlink:href="#zoomPlus" x="17" y="9" onmousedown="handleZoom(evt,'in')"/>
                <use id="zoomminus" xlink:href="#zoomMin" x="42" y="9" onmousedown="handleZoom(evt,'out')"/>
                <use id="reset" xlink:href="#resetDef" x="30" y="36" onmousedown="handleReset()"/>
                <g id="arrowUp" xlink:href="#dirArrow" transform="translate(30 24)" onmousedown="handlePan(0,-1)">
                  <use xlink:href="#rim" fill="#404040">
                        <set attributeName="fill" to="#808080" begin="arrowUp.mouseover" end="arrowUp.mouseout"/>
                  </use>
                  <path fill="none" stroke="white" stroke-width="1.5" d="M0,-3.0v7 M-2.5,-0.5L0,-3.0L2.5,-0.5"/>
                </g>
                <g id="arrowRight" xlink:href="#dirArrow" transform="rotate(90) translate(36 -43)" onmousedown="handlePan(1,0)">
                  <use xlink:href="#rim" fill="#404040">
                        <set attributeName="fill" to="#808080" begin="arrowRight.mouseover" end="arrowRight.mouseout"/>
                  </use>
                  <path fill="none" stroke="white" stroke-width="1.5" d="M0,-3.0v7 M-2.5,-0.5L0,-3.0L2.5,-0.5"/>
                </g>
                <g id="arrowDown" xlink:href="#dirArrow" transform="rotate(180) translate(-30 -48)" onmousedown="handlePan(0,1)">
                  <use xlink:href="#rim" fill="#404040">
                        <set attributeName="fill" to="#808080" begin="arrowDown.mouseover" end="arrowDown.mouseout"/>
                  </use>
                  <path fill="none" stroke="white" stroke-width="1.5" d="M0,-3.0v7 M-2.5,-0.5L0,-3.0L2.5,-0.5"/>
                </g>
                <g id="arrowLeft" xlink:href="#dirArrow" transform="rotate(270) translate(-36 17)" onmousedown="handlePan(-1,0)">
                  <use xlink:href="#rim" fill="#404040">
                        <set attributeName="fill" to="#808080" begin="arrowLeft.mouseover" end="arrowLeft.mouseout"/>
                  </use>
                  <path fill="none" stroke="white" stroke-width="1.5" d="M0,-3.0v7 M-2.5,-0.5L0,-3.0L2.5,-0.5"/>
                </g>
        </g>
        <svg viewBox="0 0 15 15" width="100%" height="30px" preserveAspectRatio="xMaxYMin meet">
         <g id="arrow_out" transform="scale(0.3 0.3)">
          <a xlink:href="testCheckRunner_8cxx__incl_org.svg" target="_base">
           <rect id="button" ry="5" rx="5" y="6" x="6" height="38" width="38"
                fill="#f2f5e9" fill-opacity="0.5" stroke="#606060" stroke-width="1.0"/>
           <path id="arrow"
             d="M 11.500037,31.436501 C 11.940474,20.09759 22.043105,11.32322 32.158766,21.979434 L 37.068811,17.246167 C 37.068811,17.246167 37.088388,32 37.088388,32 L 22.160133,31.978069 C 22.160133,31.978069 26.997745,27.140456 26.997745,27.140456 C 18.528582,18.264221 13.291696,25.230495 11.500037,31.436501 z"
             style="fill:#404040;"/>
          </a>
         </g>
        </svg>
</svg>
