<?xml version="1.0" encoding="UTF-8" standalone="no"?>
<!DOCTYPE svg PUBLIC "-//W3C//DTD SVG 1.1//EN"
 "http://www.w3.org/Graphics/SVG/1.1/DTD/svg11.dtd">
<!-- Generated by graphviz version 2.38.0 (20140413.2041)
 -->
<!-- Title: Modules/ITS/include/ITS/TrendingTaskITS.h Pages: 1 -->
<svg width="1107pt" height="240pt"
 viewBox="0.00 0.00 1106.50 240.00" xmlns="http://www.w3.org/2000/svg" xmlns:xlink="http://www.w3.org/1999/xlink">
<g id="graph0" class="graph" transform="scale(1 1) rotate(0) translate(4 236)">
<title>Modules/ITS/include/ITS/TrendingTaskITS.h</title>
<!-- Node1 -->
<g id="node1" class="node"><title>Node1</title>
<polygon fill="#bfbfbf" stroke="black" points="615,-201.5 615,-231.5 737,-231.5 737,-201.5 615,-201.5"/>
<text text-anchor="start" x="623" y="-219.5" font-family="Helvetica,sans-Serif" font-size="10.00">Modules/ITS/include</text>
<text text-anchor="middle" x="676" y="-208.5" font-family="Helvetica,sans-Serif" font-size="10.00">/ITS/TrendingTaskITS.h</text>
</g>
<!-- Node2 -->
<g id="node2" class="node"><title>Node2</title>
<g id="a_node2"><a xlink:href="TrendingTaskConfigITS_8h_source.html" target="_top" xlink:title="ITS/TrendingTaskConfigITS.h">
<polygon fill="none" stroke="black" points="39.5,-140 39.5,-159 186.5,-159 186.5,-140 39.5,-140"/>
<text text-anchor="middle" x="113" y="-147" font-family="Helvetica,sans-Serif" font-size="10.00">ITS/TrendingTaskConfigITS.h</text>
</a>
</g>
</g>
<!-- Node1&#45;&gt;Node2 -->
<g id="edge1" class="edge"><title>Node1&#45;&gt;Node2</title>
<path fill="none" stroke="midnightblue" d="M614.864,-209.164C527.47,-200.005 361.814,-182.265 221,-165 209.264,-163.561 196.821,-161.96 184.716,-160.363"/>
<polygon fill="midnightblue" stroke="midnightblue" points="185.024,-156.873 174.65,-159.025 184.102,-163.812 185.024,-156.873"/>
</g>
<!-- Node5 -->
<g id="node5" class="node"><title>Node5</title>
<polygon fill="none" stroke="#bfbfbf" points="214.5,-6 214.5,-25 255.5,-25 255.5,-6 214.5,-6"/>
<text text-anchor="middle" x="235" y="-13" font-family="Helvetica,sans-Serif" font-size="10.00">string</text>
</g>
<!-- Node1&#45;&gt;Node5 -->
<g id="edge23" class="edge"><title>Node1&#45;&gt;Node5</title>
<path fill="none" stroke="midnightblue" d="M614.777,-212.286C503.948,-205.877 279.146,-189.942 254,-165 219.322,-130.603 225.318,-66.6854 230.959,-35.1223"/>
<polygon fill="midnightblue" stroke="midnightblue" points="234.44,-35.5612 232.946,-25.0724 227.573,-34.2039 234.44,-35.5612"/>
</g>
<!-- Node7 -->
<g id="node7" class="node"><title>Node7</title>
<g id="a_node7"><a xlink:href="PostProcessingInterface_8h.html" target="_top" xlink:title="QualityControl/PostProcessing\lInterface.h">
<polygon fill="none" stroke="black" points="263.5,-134.5 263.5,-164.5 414.5,-164.5 414.5,-134.5 263.5,-134.5"/>
<text text-anchor="start" x="271.5" y="-152.5" font-family="Helvetica,sans-Serif" font-size="10.00">QualityControl/PostProcessing</text>
<text text-anchor="middle" x="339" y="-141.5" font-family="Helvetica,sans-Serif" font-size="10.00">Interface.h</text>
</a>
</g>
</g>
<!-- Node1&#45;&gt;Node7 -->
<g id="edge8" class="edge"><title>Node1&#45;&gt;Node7</title>
<path fill="none" stroke="midnightblue" d="M614.972,-203.729C560.912,-193.302 481.522,-177.989 421.754,-166.461"/>
<polygon fill="midnightblue" stroke="midnightblue" points="422.069,-162.958 411.587,-164.5 420.743,-169.831 422.069,-162.958"/>
</g>
<!-- Node11 -->
<g id="node11" class="node"><title>Node11</title>
<g id="a_node11"><a xlink:href="Reductor_8h.html" target="_top" xlink:title="QualityControl/Reductor.h">
<polygon fill="none" stroke="black" points="433,-140 433,-159 563,-159 563,-140 433,-140"/>
<text text-anchor="middle" x="498" y="-147" font-family="Helvetica,sans-Serif" font-size="10.00">QualityControl/Reductor.h</text>
</a>
</g>
</g>
<!-- Node1&#45;&gt;Node11 -->
<g id="edge15" class="edge"><title>Node1&#45;&gt;Node11</title>
<path fill="none" stroke="midnightblue" d="M637.377,-201.396C605.592,-189.789 561.025,-173.515 530.914,-162.519"/>
<polygon fill="midnightblue" stroke="midnightblue" points="531.89,-159.15 521.296,-159.007 529.489,-165.725 531.89,-159.15"/>
</g>
<!-- Node13 -->
<g id="node13" class="node"><title>Node13</title>
<polygon fill="none" stroke="#bfbfbf" points="581,-140 581,-159 631,-159 631,-140 581,-140"/>
<text text-anchor="middle" x="606" y="-147" font-family="Helvetica,sans-Serif" font-size="10.00">TAxis.h</text>
</g>
<!-- Node1&#45;&gt;Node13 -->
<g id="edge17" class="edge"><title>Node1&#45;&gt;Node13</title>
<path fill="none" stroke="midnightblue" d="M660.811,-201.396C649.68,-191.06 634.564,-177.024 623.025,-166.309"/>
<polygon fill="midnightblue" stroke="midnightblue" points="625.073,-163.434 615.363,-159.195 620.31,-168.564 625.073,-163.434"/>
</g>
<!-- Node14 -->
<g id="node14" class="node"><title>Node14</title>
<polygon fill="none" stroke="#bfbfbf" points="649,-140 649,-159 703,-159 703,-140 649,-140"/>
<text text-anchor="middle" x="676" y="-147" font-family="Helvetica,sans-Serif" font-size="10.00">TColor.h</text>
</g>
<!-- Node1&#45;&gt;Node14 -->
<g id="edge18" class="edge"><title>Node1&#45;&gt;Node14</title>
<path fill="none" stroke="midnightblue" d="M676,-201.396C676,-192.064 676,-179.714 676,-169.517"/>
<polygon fill="midnightblue" stroke="midnightblue" points="679.5,-169.195 676,-159.195 672.5,-169.195 679.5,-169.195"/>
</g>
<!-- Node15 -->
<g id="node15" class="node"><title>Node15</title>
<polygon fill="none" stroke="#bfbfbf" points="721.5,-140 721.5,-159 778.5,-159 778.5,-140 721.5,-140"/>
<text text-anchor="middle" x="750" y="-147" font-family="Helvetica,sans-Serif" font-size="10.00">TGraph.h</text>
</g>
<!-- Node1&#45;&gt;Node15 -->
<g id="edge19" class="edge"><title>Node1&#45;&gt;Node15</title>
<path fill="none" stroke="midnightblue" d="M692.057,-201.396C703.938,-190.96 720.115,-176.751 732.356,-165.998"/>
<polygon fill="midnightblue" stroke="midnightblue" points="734.898,-168.424 740.102,-159.195 730.279,-163.164 734.898,-168.424"/>
</g>
<!-- Node16 -->
<g id="node16" class="node"><title>Node16</title>
<polygon fill="none" stroke="#bfbfbf" points="797,-140 797,-159 859,-159 859,-140 797,-140"/>
<text text-anchor="middle" x="828" y="-147" font-family="Helvetica,sans-Serif" font-size="10.00">TLegend.h</text>
</g>
<!-- Node1&#45;&gt;Node16 -->
<g id="edge20" class="edge"><title>Node1&#45;&gt;Node16</title>
<path fill="none" stroke="midnightblue" d="M708.982,-201.396C735.77,-189.941 773.19,-173.938 798.881,-162.952"/>
<polygon fill="midnightblue" stroke="midnightblue" points="800.288,-166.157 808.107,-159.007 797.536,-159.721 800.288,-166.157"/>
</g>
<!-- Node17 -->
<g id="node17" class="node"><title>Node17</title>
<polygon fill="none" stroke="#bfbfbf" points="877,-140 877,-159 927,-159 927,-140 877,-140"/>
<text text-anchor="middle" x="902" y="-147" font-family="Helvetica,sans-Serif" font-size="10.00">TTree.h</text>
</g>
<!-- Node1&#45;&gt;Node17 -->
<g id="edge21" class="edge"><title>Node1&#45;&gt;Node17</title>
<path fill="none" stroke="midnightblue" d="M737.208,-201.815C775.259,-192.715 824.961,-179.75 868,-165 869.867,-164.36 871.776,-163.665 873.689,-162.937"/>
<polygon fill="midnightblue" stroke="midnightblue" points="875.167,-166.115 883.129,-159.126 872.546,-159.624 875.167,-166.115"/>
</g>
<!-- Node18 -->
<g id="node18" class="node"><title>Node18</title>
<polygon fill="none" stroke="#bfbfbf" points="945,-140 945,-159 997,-159 997,-140 945,-140"/>
<text text-anchor="middle" x="971" y="-147" font-family="Helvetica,sans-Serif" font-size="10.00">memory</text>
</g>
<!-- Node1&#45;&gt;Node18 -->
<g id="edge22" class="edge"><title>Node1&#45;&gt;Node18</title>
<path fill="none" stroke="midnightblue" d="M737.255,-207.16C790.481,-199.075 869.291,-185.074 936,-165 938.285,-164.312 940.625,-163.528 942.96,-162.689"/>
<polygon fill="midnightblue" stroke="midnightblue" points="944.309,-165.92 952.361,-159.034 941.773,-159.395 944.309,-165.92"/>
</g>
<!-- Node19 -->
<g id="node19" class="node"><title>Node19</title>
<polygon fill="none" stroke="#bfbfbf" points="1015.5,-140 1015.5,-159 1098.5,-159 1098.5,-140 1015.5,-140"/>
<text text-anchor="middle" x="1057" y="-147" font-family="Helvetica,sans-Serif" font-size="10.00">unordered_map</text>
</g>
<!-- Node1&#45;&gt;Node19 -->
<g id="edge24" class="edge"><title>Node1&#45;&gt;Node19</title>
<path fill="none" stroke="midnightblue" d="M737.241,-208.458C803.814,-200.263 913.125,-185.226 1006,-165 1010.42,-164.037 1015.02,-162.91 1019.57,-161.717"/>
<polygon fill="midnightblue" stroke="midnightblue" points="1020.65,-165.052 1029.37,-159.037 1018.8,-158.301 1020.65,-165.052"/>
</g>
<!-- Node3 -->
<g id="node3" class="node"><title>Node3</title>
<g id="a_node3"><a xlink:href="PostProcessingConfig_8h.html" target="_top" xlink:title="QualityControl/PostProcessing\lConfig.h">
<polygon fill="none" stroke="black" points="17.5,-67.5 17.5,-97.5 168.5,-97.5 168.5,-67.5 17.5,-67.5"/>
<text text-anchor="start" x="25.5" y="-85.5" font-family="Helvetica,sans-Serif" font-size="10.00">QualityControl/PostProcessing</text>
<text text-anchor="middle" x="93" y="-74.5" font-family="Helvetica,sans-Serif" font-size="10.00">Config.h</text>
</a>
</g>
</g>
<!-- Node2&#45;&gt;Node3 -->
<g id="edge2" class="edge"><title>Node2&#45;&gt;Node3</title>
<path fill="none" stroke="midnightblue" d="M110.303,-139.734C107.756,-131.456 103.819,-118.662 100.344,-107.367"/>
<polygon fill="midnightblue" stroke="midnightblue" points="103.621,-106.117 97.3351,-97.589 96.9308,-108.176 103.621,-106.117"/>
</g>
<!-- Node4 -->
<g id="node4" class="node"><title>Node4</title>
<polygon fill="none" stroke="#bfbfbf" points="0,-6 0,-25 44,-25 44,-6 0,-6"/>
<text text-anchor="middle" x="22" y="-13" font-family="Helvetica,sans-Serif" font-size="10.00">vector</text>
</g>
<!-- Node2&#45;&gt;Node4 -->
<g id="edge7" class="edge"><title>Node2&#45;&gt;Node4</title>
<path fill="none" stroke="midnightblue" d="M71.6359,-139.939C48.6477,-132.839 21.9423,-120.177 8,-98 -4.20027,-78.5943 4.26359,-51.6924 12.3614,-34.1934"/>
<polygon fill="midnightblue" stroke="midnightblue" points="15.5658,-35.6115 16.928,-25.1046 9.3109,-32.4688 15.5658,-35.6115"/>
</g>
<!-- Node2&#45;&gt;Node5 -->
<g id="edge6" class="edge"><title>Node2&#45;&gt;Node5</title>
<path fill="none" stroke="midnightblue" d="M125.905,-139.965C139.498,-130.616 161.096,-114.712 177,-98 196.015,-78.0189 213.761,-51.46 224.493,-34.1764"/>
<polygon fill="midnightblue" stroke="midnightblue" points="227.752,-35.5544 229.958,-25.1918 221.771,-31.9166 227.752,-35.5544"/>
</g>
<!-- Node3&#45;&gt;Node4 -->
<g id="edge3" class="edge"><title>Node3&#45;&gt;Node4</title>
<path fill="none" stroke="midnightblue" d="M77.5941,-67.396C66.1948,-56.96 50.6739,-42.7507 38.9284,-31.9978"/>
<polygon fill="midnightblue" stroke="midnightblue" points="41.2364,-29.3655 31.4971,-25.1945 36.5096,-34.5287 41.2364,-29.3655"/>
</g>
<!-- Node3&#45;&gt;Node5 -->
<g id="edge4" class="edge"><title>Node3&#45;&gt;Node5</title>
<path fill="none" stroke="midnightblue" d="M123.812,-67.396C148.617,-56.0414 183.181,-40.2201 207.16,-29.2437"/>
<polygon fill="midnightblue" stroke="midnightblue" points="208.78,-32.3516 216.415,-25.007 205.866,-25.9868 208.78,-32.3516"/>
</g>
<!-- Node6 -->
<g id="node6" class="node"><title>Node6</title>
<polygon fill="none" stroke="#bfbfbf" points="68.5,-0.5 68.5,-30.5 169.5,-30.5 169.5,-0.5 68.5,-0.5"/>
<text text-anchor="start" x="76.5" y="-18.5" font-family="Helvetica,sans-Serif" font-size="10.00">boost/property_tree</text>
<text text-anchor="middle" x="119" y="-7.5" font-family="Helvetica,sans-Serif" font-size="10.00">/ptree_fwd.hpp</text>
</g>
<!-- Node3&#45;&gt;Node6 -->
<g id="edge5" class="edge"><title>Node3&#45;&gt;Node6</title>
<path fill="none" stroke="midnightblue" d="M98.6416,-67.396C101.844,-59.3893 105.935,-49.1616 109.609,-39.9778"/>
<polygon fill="midnightblue" stroke="midnightblue" points="112.905,-41.1612 113.369,-30.5765 106.406,-38.5614 112.905,-41.1612"/>
</g>
<!-- Node7&#45;&gt;Node5 -->
<g id="edge9" class="edge"><title>Node7&#45;&gt;Node5</title>
<path fill="none" stroke="midnightblue" d="M331.275,-134.277C321.844,-117.461 304.923,-88.9848 287,-67 276.71,-54.378 263.536,-41.6128 253.023,-32.0743"/>
<polygon fill="midnightblue" stroke="midnightblue" points="255.067,-29.2087 245.268,-25.1808 250.416,-34.4405 255.067,-29.2087"/>
</g>
<!-- Node7&#45;&gt;Node6 -->
<g id="edge11" class="edge"><title>Node7&#45;&gt;Node6</title>
<path fill="none" stroke="midnightblue" d="M315.456,-134.374C275.842,-110.605 195.814,-62.5882 151.091,-35.7543"/>
<polygon fill="midnightblue" stroke="midnightblue" points="152.75,-32.6685 142.375,-30.5247 149.149,-38.671 152.75,-32.6685"/>
</g>
<!-- Node8 -->
<g id="node8" class="node"><title>Node8</title>
<polygon fill="none" stroke="#bfbfbf" points="339,-73 339,-92 485,-92 485,-73 339,-73"/>
<text text-anchor="middle" x="412" y="-80" font-family="Helvetica,sans-Serif" font-size="10.00">Framework/ServiceRegistry.h</text>
</g>
<!-- Node7&#45;&gt;Node8 -->
<g id="edge10" class="edge"><title>Node7&#45;&gt;Node8</title>
<path fill="none" stroke="midnightblue" d="M354.84,-134.396C366.56,-123.96 382.518,-109.751 394.595,-98.9978"/>
<polygon fill="midnightblue" stroke="midnightblue" points="397.094,-101.459 402.235,-92.1945 392.439,-96.2306 397.094,-101.459"/>
</g>
<!-- Node9 -->
<g id="node9" class="node"><title>Node9</title>
<g id="a_node9"><a xlink:href="Triggers_8h.html" target="_top" xlink:title="QualityControl/Triggers.h">
<polygon fill="none" stroke="black" points="503.5,-73 503.5,-92 628.5,-92 628.5,-73 503.5,-73"/>
<text text-anchor="middle" x="566" y="-80" font-family="Helvetica,sans-Serif" font-size="10.00">QualityControl/Triggers.h</text>
</a>
</g>
</g>
<!-- Node7&#45;&gt;Node9 -->
<g id="edge12" class="edge"><title>Node7&#45;&gt;Node9</title>
<path fill="none" stroke="midnightblue" d="M387.976,-134.476C429.373,-122.622 487.918,-105.858 526.405,-94.8379"/>
<polygon fill="midnightblue" stroke="midnightblue" points="527.565,-98.1463 536.215,-92.0287 525.638,-91.4168 527.565,-98.1463"/>
</g>
<!-- Node9&#45;&gt;Node5 -->
<g id="edge13" class="edge"><title>Node9&#45;&gt;Node5</title>
<path fill="none" stroke="midnightblue" d="M523.749,-72.9458C513.982,-70.981 503.631,-68.9087 494,-67 411.524,-50.6546 314.185,-31.7899 265.685,-22.4195"/>
<polygon fill="midnightblue" stroke="midnightblue" points="266.305,-18.9747 255.823,-20.5149 264.978,-25.8477 266.305,-18.9747"/>
</g>
<!-- Node10 -->
<g id="node10" class="node"><title>Node10</title>
<polygon fill="none" stroke="#bfbfbf" points="536.5,-6 536.5,-25 595.5,-25 595.5,-6 536.5,-6"/>
<text text-anchor="middle" x="566" y="-13" font-family="Helvetica,sans-Serif" font-size="10.00">functional</text>
</g>
<!-- Node9&#45;&gt;Node10 -->
<g id="edge14" class="edge"><title>Node9&#45;&gt;Node10</title>
<path fill="none" stroke="midnightblue" d="M566,-72.7338C566,-63.1826 566,-47.6183 566,-35.2829"/>
<polygon fill="midnightblue" stroke="midnightblue" points="569.5,-35.1273 566,-25.1273 562.5,-35.1273 569.5,-35.1273"/>
</g>
<!-- Node12 -->
<g id="node12" class="node"><title>Node12</title>
<polygon fill="none" stroke="#bfbfbf" points="646.5,-73 646.5,-92 705.5,-92 705.5,-73 646.5,-73"/>
<text text-anchor="middle" x="676" y="-80" font-family="Helvetica,sans-Serif" font-size="10.00">TObject.h</text>
</g>
<!-- Node11&#45;&gt;Node12 -->
<g id="edge16" class="edge"><title>Node11&#45;&gt;Node12</title>
<path fill="none" stroke="midnightblue" d="M522.079,-139.966C550.011,-130.03 597.425,-113.058 638,-98 640.098,-97.2215 642.258,-96.4136 644.434,-95.5954"/>
<polygon fill="midnightblue" stroke="midnightblue" points="645.81,-98.817 653.923,-92.0027 643.331,-92.2706 645.81,-98.817"/>
</g>
</g>
</svg>
