<?xml version="1.0" encoding="UTF-8" standalone="no"?>
<!DOCTYPE svg PUBLIC "-//W3C//DTD SVG 1.1//EN"
 "http://www.w3.org/Graphics/SVG/1.1/DTD/svg11.dtd">
<!-- Generated by graphviz version 2.38.0 (20140413.2041)
 -->
<!-- Title: Modules/ITS/src/TrendingTaskITS.cxx Pages: 1 -->
<!--zoomable 307 -->
<svg id="main" version="1.1" xmlns="http://www.w3.org/2000/svg" xmlns:xlink="http://www.w3.org/1999/xlink" xml:space="preserve" onload="init(evt)">
<style type="text/css"><![CDATA[
.edge:hover path { stroke: red; }
.edge:hover polygon { stroke: red; fill: red; }
]]></style>
<script type="text/javascript"><![CDATA[
var edges = document.getElementsByTagName('g');
if (edges && edges.length) {
  for (var i=0;i<edges.length;i++) {
    if (edges[i].id.substr(0,4)=='edge') {
      edges[i].setAttribute('class','edge');
    }
  }
}
]]></script>
        <defs>
                <circle id="rim" cx="0" cy="0" r="7"/>
                <circle id="rim2" cx="0" cy="0" r="3.5"/>
                <g id="zoomPlus">
                        <use xlink:href="#rim" fill="#404040">
                                <set attributeName="fill" to="#808080" begin="zoomplus.mouseover" end="zoomplus.mouseout"/>
                        </use>
                        <path d="M-4,0h8M0,-4v8" fill="none" stroke="white" stroke-width="1.5" pointer-events="none"/>
                </g>
                <g id="zoomMin">
                        <use xlink:href="#rim" fill="#404040">
                                <set attributeName="fill" to="#808080" begin="zoomminus.mouseover" end="zoomminus.mouseout"/>
                        </use>
                        <path d="M-4,0h8" fill="none" stroke="white" stroke-width="1.5" pointer-events="none"/>
                </g>
                <g id="dirArrow">
                        <path fill="none" stroke="white" stroke-width="1.5" d="M0,-3.0v7 M-2.5,-0.5L0,-3.0L2.5,-0.5"/>
                </g>
               <g id="resetDef">
                       <use xlink:href="#rim2" fill="#404040">
                               <set attributeName="fill" to="#808080" begin="reset.mouseover" end="reset.mouseout"/>
                       </use>
               </g>
        </defs>

<script type="text/javascript">
var viewWidth = 2085;
var viewHeight = 307;
var sectionId = 'dynsection-0';
</script>
<script xlink:href="svgpan.js"/>
<svg id="graph" class="graph">
<g id="viewport">
<title>Modules/ITS/src/TrendingTaskITS.cxx</title>
<!-- Node1 -->
<g id="node1" class="node"><title>Node1</title>
<polygon fill="#bfbfbf" stroke="black" points="952,-268.5 952,-298.5 1081,-298.5 1081,-268.5 952,-268.5"/>
<text text-anchor="start" x="960" y="-286.5" font-family="Helvetica,sans-Serif" font-size="10.00">Modules/ITS/src/Trending</text>
<text text-anchor="middle" x="1016.5" y="-275.5" font-family="Helvetica,sans-Serif" font-size="10.00">TaskITS.cxx</text>
</g>
<!-- Node2 -->
<g id="node2" class="node"><title>Node2</title>
<g id="a_node2"><a xlink:href="TrendingTaskITS_8h.html" target="_top" xlink:title="ITS/TrendingTaskITS.h">
<polygon fill="none" stroke="black" points="1374,-207 1374,-226 1493,-226 1493,-207 1374,-207"/>
<text text-anchor="middle" x="1433.5" y="-214" font-family="Helvetica,sans-Serif" font-size="10.00">ITS/TrendingTaskITS.h</text>
</a>
</g>
</g>
<!-- Node1&#45;&gt;Node2 -->
<g id="edge1" class="edge"><title>Node1&#45;&gt;Node2</title>
<path fill="none" stroke="midnightblue" d="M1081.2,-272.415C1159.47,-260.215 1290.45,-239.798 1368.74,-227.594"/>
<polygon fill="midnightblue" stroke="midnightblue" points="1369.62,-231 1378.96,-226.001 1368.54,-224.083 1369.62,-231"/>
</g>
<!-- Node12 -->
<g id="node12" class="node"><title>Node12</title>
<g id="a_node12"><a xlink:href="Reductor_8h.html" target="_top" xlink:title="QualityControl/Reductor.h">
<polygon fill="none" stroke="black" points="961.5,-140 961.5,-159 1091.5,-159 1091.5,-140 961.5,-140"/>
<text text-anchor="middle" x="1026.5" y="-147" font-family="Helvetica,sans-Serif" font-size="10.00">QualityControl/Reductor.h</text>
</a>
</g>
</g>
<!-- Node1&#45;&gt;Node12 -->
<g id="edge56" class="edge"><title>Node1&#45;&gt;Node12</title>
<path fill="none" stroke="midnightblue" d="M1017.57,-268.374C1019.38,-244.504 1023.04,-196.181 1025.07,-169.415"/>
<polygon fill="midnightblue" stroke="midnightblue" points="1028.58,-169.333 1025.85,-159.097 1021.6,-168.804 1028.58,-169.333"/>
</g>
<!-- Node21 -->
<g id="node21" class="node"><title>Node21</title>
<g id="a_node21"><a xlink:href="RootClassFactory_8h.html" target="_top" xlink:title="../../../Framework\l/src/RootClassFactory.h">
<polygon fill="none" stroke="black" points="347.5,-201.5 347.5,-231.5 471.5,-231.5 471.5,-201.5 347.5,-201.5"/>
<text text-anchor="start" x="355.5" y="-219.5" font-family="Helvetica,sans-Serif" font-size="10.00">../../../Framework</text>
<text text-anchor="middle" x="409.5" y="-208.5" font-family="Helvetica,sans-Serif" font-size="10.00">/src/RootClassFactory.h</text>
</a>
</g>
</g>
<!-- Node1&#45;&gt;Node21 -->
<g id="edge26" class="edge"><title>Node1&#45;&gt;Node21</title>
<path fill="none" stroke="midnightblue" d="M951.828,-275.575C837.698,-263.353 601.355,-238.045 481.931,-225.256"/>
<polygon fill="midnightblue" stroke="midnightblue" points="482.108,-221.755 471.792,-224.171 481.363,-228.715 482.108,-221.755"/>
</g>
<!-- Node27 -->
<g id="node27" class="node"><title>Node27</title>
<g id="a_node27"><a xlink:href="QcInfoLogger_8h.html" target="_top" xlink:title="QualityControl/QcInfoLogger.h">
<polygon fill="none" stroke="black" points="0,-140 0,-159 149,-159 149,-140 0,-140"/>
<text text-anchor="middle" x="74.5" y="-147" font-family="Helvetica,sans-Serif" font-size="10.00">QualityControl/QcInfoLogger.h</text>
</a>
</g>
</g>
<!-- Node1&#45;&gt;Node27 -->
<g id="edge55" class="edge"><title>Node1&#45;&gt;Node27</title>
<path fill="none" stroke="midnightblue" d="M951.841,-282.5C830.512,-281.441 560.89,-274.053 338.5,-232 252.295,-215.699 154.512,-181.09 105.698,-162.654"/>
<polygon fill="midnightblue" stroke="midnightblue" points="106.917,-159.373 96.3258,-159.085 104.426,-165.914 106.917,-159.373"/>
</g>
<!-- Node29 -->
<g id="node29" class="node"><title>Node29</title>
<g id="a_node29"><a xlink:href="DatabaseInterface_8h.html" target="_top" xlink:title="QualityControl/DatabaseInterface.h">
<polygon fill="none" stroke="black" points="1044.5,-207 1044.5,-226 1214.5,-226 1214.5,-207 1044.5,-207"/>
<text text-anchor="middle" x="1129.5" y="-214" font-family="Helvetica,sans-Serif" font-size="10.00">QualityControl/DatabaseInterface.h</text>
</a>
</g>
</g>
<!-- Node1&#45;&gt;Node29 -->
<g id="edge35" class="edge"><title>Node1&#45;&gt;Node29</title>
<path fill="none" stroke="midnightblue" d="M1041.02,-268.396C1060.23,-257.344 1086.8,-242.061 1105.8,-231.132"/>
<polygon fill="midnightblue" stroke="midnightblue" points="1107.79,-234.027 1114.71,-226.007 1104.3,-227.959 1107.79,-234.027"/>
</g>
<!-- Node34 -->
<g id="node34" class="node"><title>Node34</title>
<g id="a_node34"><a xlink:href="MonitorObject_8h.html" target="_top" xlink:title="QualityControl/MonitorObject.h">
<polygon fill="none" stroke="black" points="588,-140 588,-159 739,-159 739,-140 588,-140"/>
<text text-anchor="middle" x="663.5" y="-147" font-family="Helvetica,sans-Serif" font-size="10.00">QualityControl/MonitorObject.h</text>
</a>
</g>
</g>
<!-- Node1&#45;&gt;Node34 -->
<g id="edge54" class="edge"><title>Node1&#45;&gt;Node34</title>
<path fill="none" stroke="midnightblue" d="M979.057,-268.499C909.522,-242.497 761.567,-187.171 695.973,-162.643"/>
<polygon fill="midnightblue" stroke="midnightblue" points="697.137,-159.341 686.544,-159.117 694.685,-165.898 697.137,-159.341"/>
</g>
<!-- Node35 -->
<g id="node35" class="node"><title>Node35</title>
<polygon fill="none" stroke="#bfbfbf" points="1511,-207 1511,-226 1576,-226 1576,-207 1511,-207"/>
<text text-anchor="middle" x="1543.5" y="-214" font-family="Helvetica,sans-Serif" font-size="10.00">TCanvas.h</text>
</g>
<!-- Node1&#45;&gt;Node35 -->
<g id="edge57" class="edge"><title>Node1&#45;&gt;Node35</title>
<path fill="none" stroke="midnightblue" d="M1081.36,-280.622C1175.28,-276.81 1354.17,-265.441 1502.5,-232 1505.74,-231.269 1509.08,-230.362 1512.38,-229.359"/>
<polygon fill="midnightblue" stroke="midnightblue" points="1513.68,-232.616 1522.08,-226.15 1511.48,-225.97 1513.68,-232.616"/>
</g>
<!-- Node3 -->
<g id="node3" class="node"><title>Node3</title>
<g id="a_node3"><a xlink:href="TrendingTaskConfigITS_8h_source.html" target="_top" xlink:title="ITS/TrendingTaskConfigITS.h">
<polygon fill="none" stroke="black" points="1713,-140 1713,-159 1860,-159 1860,-140 1713,-140"/>
<text text-anchor="middle" x="1786.5" y="-147" font-family="Helvetica,sans-Serif" font-size="10.00">ITS/TrendingTaskConfigITS.h</text>
</a>
</g>
</g>
<!-- Node2&#45;&gt;Node3 -->
<g id="edge2" class="edge"><title>Node2&#45;&gt;Node3</title>
<path fill="none" stroke="midnightblue" d="M1473.23,-206.931C1482.8,-204.927 1493.01,-202.841 1502.5,-201 1513.52,-198.863 1648.46,-174.939 1728.3,-160.801"/>
<polygon fill="midnightblue" stroke="midnightblue" points="1728.99,-164.233 1738.23,-159.043 1727.77,-157.34 1728.99,-164.233"/>
</g>
<!-- Node6 -->
<g id="node6" class="node"><title>Node6</title>
<polygon fill="none" stroke="#bfbfbf" points="1137,-6 1137,-25 1178,-25 1178,-6 1137,-6"/>
<text text-anchor="middle" x="1157.5" y="-13" font-family="Helvetica,sans-Serif" font-size="10.00">string</text>
</g>
<!-- Node2&#45;&gt;Node6 -->
<g id="edge24" class="edge"><title>Node2&#45;&gt;Node6</title>
<path fill="none" stroke="midnightblue" d="M1417.75,-206.989C1400.39,-197.412 1371.81,-181.082 1348.5,-165 1330.27,-152.427 1329.22,-144.065 1309.5,-134 1256.48,-106.943 1222.65,-140.029 1180.5,-98 1163.86,-81.4087 1159.03,-53.7667 1157.75,-35.3395"/>
<polygon fill="midnightblue" stroke="midnightblue" points="1161.25,-35.0873 1157.34,-25.238 1154.25,-35.3723 1161.25,-35.0873"/>
</g>
<!-- Node8 -->
<g id="node8" class="node"><title>Node8</title>
<g id="a_node8"><a xlink:href="PostProcessingInterface_8h.html" target="_top" xlink:title="QualityControl/PostProcessing\lInterface.h">
<polygon fill="none" stroke="black" points="1358,-134.5 1358,-164.5 1509,-164.5 1509,-134.5 1358,-134.5"/>
<text text-anchor="start" x="1366" y="-152.5" font-family="Helvetica,sans-Serif" font-size="10.00">QualityControl/PostProcessing</text>
<text text-anchor="middle" x="1433.5" y="-141.5" font-family="Helvetica,sans-Serif" font-size="10.00">Interface.h</text>
</a>
</g>
</g>
<!-- Node2&#45;&gt;Node8 -->
<g id="edge9" class="edge"><title>Node2&#45;&gt;Node8</title>
<path fill="none" stroke="midnightblue" d="M1433.5,-206.734C1433.5,-198.541 1433.5,-185.923 1433.5,-174.714"/>
<polygon fill="midnightblue" stroke="midnightblue" points="1437,-174.589 1433.5,-164.589 1430,-174.589 1437,-174.589"/>
</g>
<!-- Node2&#45;&gt;Node12 -->
<g id="edge16" class="edge"><title>Node2&#45;&gt;Node12</title>
<path fill="none" stroke="midnightblue" d="M1379.87,-206.936C1305.04,-194.985 1169.54,-173.344 1089.83,-160.615"/>
<polygon fill="midnightblue" stroke="midnightblue" points="1090.35,-157.153 1079.92,-159.032 1089.24,-164.065 1090.35,-157.153"/>
</g>
<!-- Node14 -->
<g id="node14" class="node"><title>Node14</title>
<polygon fill="none" stroke="#bfbfbf" points="2026.5,-140 2026.5,-159 2076.5,-159 2076.5,-140 2026.5,-140"/>
<text text-anchor="middle" x="2051.5" y="-147" font-family="Helvetica,sans-Serif" font-size="10.00">TAxis.h</text>
</g>
<!-- Node2&#45;&gt;Node14 -->
<g id="edge18" class="edge"><title>Node2&#45;&gt;Node14</title>
<path fill="none" stroke="midnightblue" d="M1469.5,-206.959C1480.08,-204.714 1491.71,-202.504 1502.5,-201 1729.75,-169.332 1794.44,-218.749 2017.5,-165 2020.01,-164.395 2022.57,-163.622 2025.11,-162.748"/>
<polygon fill="midnightblue" stroke="midnightblue" points="2026.56,-165.94 2034.58,-159.025 2024,-159.424 2026.56,-165.94"/>
</g>
<!-- Node15 -->
<g id="node15" class="node"><title>Node15</title>
<polygon fill="none" stroke="#bfbfbf" points="1565.5,-140 1565.5,-159 1619.5,-159 1619.5,-140 1565.5,-140"/>
<text text-anchor="middle" x="1592.5" y="-147" font-family="Helvetica,sans-Serif" font-size="10.00">TColor.h</text>
</g>
<!-- Node2&#45;&gt;Node15 -->
<g id="edge19" class="edge"><title>Node2&#45;&gt;Node15</title>
<path fill="none" stroke="midnightblue" d="M1454.61,-206.869C1482.13,-195.619 1530.45,-175.867 1561.96,-162.985"/>
<polygon fill="midnightblue" stroke="midnightblue" points="1563.62,-166.088 1571.55,-159.064 1560.97,-159.608 1563.62,-166.088"/>
</g>
<!-- Node16 -->
<g id="node16" class="node"><title>Node16</title>
<polygon fill="none" stroke="#bfbfbf" points="1638,-140 1638,-159 1695,-159 1695,-140 1638,-140"/>
<text text-anchor="middle" x="1666.5" y="-147" font-family="Helvetica,sans-Serif" font-size="10.00">TGraph.h</text>
</g>
<!-- Node2&#45;&gt;Node16 -->
<g id="edge20" class="edge"><title>Node2&#45;&gt;Node16</title>
<path fill="none" stroke="midnightblue" d="M1471.6,-206.957C1511.17,-197.777 1574.7,-182.174 1628.5,-165 1630.91,-164.23 1633.4,-163.391 1635.88,-162.517"/>
<polygon fill="midnightblue" stroke="midnightblue" points="1637.16,-165.777 1645.34,-159.05 1634.75,-159.204 1637.16,-165.777"/>
</g>
<!-- Node17 -->
<g id="node17" class="node"><title>Node17</title>
<polygon fill="none" stroke="#bfbfbf" points="1878.5,-140 1878.5,-159 1940.5,-159 1940.5,-140 1878.5,-140"/>
<text text-anchor="middle" x="1909.5" y="-147" font-family="Helvetica,sans-Serif" font-size="10.00">TLegend.h</text>
</g>
<!-- Node2&#45;&gt;Node17 -->
<g id="edge21" class="edge"><title>Node2&#45;&gt;Node17</title>
<path fill="none" stroke="midnightblue" d="M1470.61,-206.925C1480.89,-204.76 1492.1,-202.599 1502.5,-201 1664.49,-176.11 1709.66,-201.21 1869.5,-165 1872.74,-164.266 1876.08,-163.341 1879.38,-162.317"/>
<polygon fill="midnightblue" stroke="midnightblue" points="1880.7,-165.566 1889.03,-159.031 1878.44,-158.94 1880.7,-165.566"/>
</g>
<!-- Node18 -->
<g id="node18" class="node"><title>Node18</title>
<polygon fill="none" stroke="#bfbfbf" points="1958.5,-140 1958.5,-159 2008.5,-159 2008.5,-140 1958.5,-140"/>
<text text-anchor="middle" x="1983.5" y="-147" font-family="Helvetica,sans-Serif" font-size="10.00">TTree.h</text>
</g>
<!-- Node2&#45;&gt;Node18 -->
<g id="edge22" class="edge"><title>Node2&#45;&gt;Node18</title>
<path fill="none" stroke="midnightblue" d="M1469.87,-206.956C1480.35,-204.739 1491.84,-202.543 1502.5,-201 1699.75,-172.448 1755.99,-212.713 1949.5,-165 1951.87,-164.417 1954.28,-163.687 1956.67,-162.868"/>
<polygon fill="midnightblue" stroke="midnightblue" points="1958.18,-166.035 1966.23,-159.14 1955.64,-159.514 1958.18,-166.035"/>
</g>
<!-- Node19 -->
<g id="node19" class="node"><title>Node19</title>
<polygon fill="none" stroke="#bfbfbf" points="1147.5,-140 1147.5,-159 1199.5,-159 1199.5,-140 1147.5,-140"/>
<text text-anchor="middle" x="1173.5" y="-147" font-family="Helvetica,sans-Serif" font-size="10.00">memory</text>
</g>
<!-- Node2&#45;&gt;Node19 -->
<g id="edge23" class="edge"><title>Node2&#45;&gt;Node19</title>
<path fill="none" stroke="midnightblue" d="M1384.14,-206.954C1338.11,-198.393 1267.85,-183.8 1208.5,-165 1206.36,-164.322 1204.17,-163.567 1201.98,-162.768"/>
<polygon fill="midnightblue" stroke="midnightblue" points="1203.12,-159.458 1192.54,-159.082 1200.58,-165.979 1203.12,-159.458"/>
</g>
<!-- Node20 -->
<g id="node20" class="node"><title>Node20</title>
<polygon fill="none" stroke="#bfbfbf" points="1218,-140 1218,-159 1301,-159 1301,-140 1218,-140"/>
<text text-anchor="middle" x="1259.5" y="-147" font-family="Helvetica,sans-Serif" font-size="10.00">unordered_map</text>
</g>
<!-- Node2&#45;&gt;Node20 -->
<g id="edge25" class="edge"><title>Node2&#45;&gt;Node20</title>
<path fill="none" stroke="midnightblue" d="M1410.39,-206.869C1380.02,-195.522 1326.49,-175.525 1292.03,-162.652"/>
<polygon fill="midnightblue" stroke="midnightblue" points="1293.02,-159.284 1282.42,-159.064 1290.57,-165.842 1293.02,-159.284"/>
</g>
<!-- Node4 -->
<g id="node4" class="node"><title>Node4</title>
<g id="a_node4"><a xlink:href="PostProcessingConfig_8h.html" target="_top" xlink:title="QualityControl/PostProcessing\lConfig.h">
<polygon fill="none" stroke="black" points="1608,-67.5 1608,-97.5 1759,-97.5 1759,-67.5 1608,-67.5"/>
<text text-anchor="start" x="1616" y="-85.5" font-family="Helvetica,sans-Serif" font-size="10.00">QualityControl/PostProcessing</text>
<text text-anchor="middle" x="1683.5" y="-74.5" font-family="Helvetica,sans-Serif" font-size="10.00">Config.h</text>
</a>
</g>
</g>
<!-- Node3&#45;&gt;Node4 -->
<g id="edge3" class="edge"><title>Node3&#45;&gt;Node4</title>
<path fill="none" stroke="midnightblue" d="M1772.61,-139.734C1757.75,-130.358 1733.71,-115.188 1714.35,-102.966"/>
<polygon fill="midnightblue" stroke="midnightblue" points="1716.15,-99.966 1705.83,-97.589 1712.41,-105.886 1716.15,-99.966"/>
</g>
<!-- Node5 -->
<g id="node5" class="node"><title>Node5</title>
<polygon fill="none" stroke="#bfbfbf" points="1765.5,-6 1765.5,-25 1809.5,-25 1809.5,-6 1765.5,-6"/>
<text text-anchor="middle" x="1787.5" y="-13" font-family="Helvetica,sans-Serif" font-size="10.00">vector</text>
</g>
<!-- Node3&#45;&gt;Node5 -->
<g id="edge8" class="edge"><title>Node3&#45;&gt;Node5</title>
<path fill="none" stroke="midnightblue" d="M1789.95,-139.735C1793.66,-129.798 1799.32,-113.024 1801.5,-98 1803.48,-84.3655 1803.36,-80.652 1801.5,-67 1800.02,-56.1271 1796.83,-44.2901 1793.86,-34.8109"/>
<polygon fill="midnightblue" stroke="midnightblue" points="1797.18,-33.6855 1790.72,-25.2874 1790.53,-35.8806 1797.18,-33.6855"/>
</g>
<!-- Node3&#45;&gt;Node6 -->
<g id="edge7" class="edge"><title>Node3&#45;&gt;Node6</title>
<path fill="none" stroke="midnightblue" d="M1749.92,-139.989C1711.94,-130.835 1651,-115.252 1599.5,-98 1564.52,-86.2813 1558.15,-76.4881 1522.5,-67 1401.24,-34.7273 1251.51,-22.2624 1188.14,-18.1981"/>
<polygon fill="midnightblue" stroke="midnightblue" points="1188.22,-14.6968 1178.03,-17.5748 1187.79,-21.6836 1188.22,-14.6968"/>
</g>
<!-- Node4&#45;&gt;Node5 -->
<g id="edge4" class="edge"><title>Node4&#45;&gt;Node5</title>
<path fill="none" stroke="midnightblue" d="M1706.07,-67.396C1723.51,-56.4956 1747.53,-41.4787 1764.97,-30.5835"/>
<polygon fill="midnightblue" stroke="midnightblue" points="1767.26,-33.275 1773.89,-25.007 1763.55,-27.339 1767.26,-33.275"/>
</g>
<!-- Node4&#45;&gt;Node6 -->
<g id="edge5" class="edge"><title>Node4&#45;&gt;Node6</title>
<path fill="none" stroke="midnightblue" d="M1607.86,-72.1525C1490.32,-57.6282 1268.95,-30.2724 1188.08,-20.2784"/>
<polygon fill="midnightblue" stroke="midnightblue" points="1188.41,-16.7929 1178.05,-19.04 1187.55,-23.74 1188.41,-16.7929"/>
</g>
<!-- Node7 -->
<g id="node7" class="node"><title>Node7</title>
<polygon fill="none" stroke="#bfbfbf" points="1581,-0.5 1581,-30.5 1682,-30.5 1682,-0.5 1581,-0.5"/>
<text text-anchor="start" x="1589" y="-18.5" font-family="Helvetica,sans-Serif" font-size="10.00">boost/property_tree</text>
<text text-anchor="middle" x="1631.5" y="-7.5" font-family="Helvetica,sans-Serif" font-size="10.00">/ptree_fwd.hpp</text>
</g>
<!-- Node4&#45;&gt;Node7 -->
<g id="edge6" class="edge"><title>Node4&#45;&gt;Node7</title>
<path fill="none" stroke="midnightblue" d="M1672.22,-67.396C1665.47,-58.9634 1656.75,-48.0673 1649.12,-38.5216"/>
<polygon fill="midnightblue" stroke="midnightblue" points="1651.74,-36.1988 1642.76,-30.5765 1646.28,-40.5717 1651.74,-36.1988"/>
</g>
<!-- Node8&#45;&gt;Node6 -->
<g id="edge10" class="edge"><title>Node8&#45;&gt;Node6</title>
<path fill="none" stroke="midnightblue" d="M1361.1,-134.491C1302.19,-122.648 1226.83,-106.32 1214.5,-98 1191.07,-82.1921 1174.3,-53.2792 1165.25,-34.4829"/>
<polygon fill="midnightblue" stroke="midnightblue" points="1168.36,-32.8713 1161.02,-25.2289 1161.99,-35.7792 1168.36,-32.8713"/>
</g>
<!-- Node8&#45;&gt;Node7 -->
<g id="edge12" class="edge"><title>Node8&#45;&gt;Node7</title>
<path fill="none" stroke="midnightblue" d="M1460.5,-134.33C1478.42,-124.648 1502.28,-111.222 1522.5,-98 1552.01,-78.708 1584.14,-54.2212 1605.82,-37.147"/>
<polygon fill="midnightblue" stroke="midnightblue" points="1608.21,-39.7225 1613.87,-30.7689 1603.86,-34.2359 1608.21,-39.7225"/>
</g>
<!-- Node9 -->
<g id="node9" class="node"><title>Node9</title>
<polygon fill="none" stroke="#bfbfbf" points="1223.5,-73 1223.5,-92 1369.5,-92 1369.5,-73 1223.5,-73"/>
<text text-anchor="middle" x="1296.5" y="-80" font-family="Helvetica,sans-Serif" font-size="10.00">Framework/ServiceRegistry.h</text>
</g>
<!-- Node8&#45;&gt;Node9 -->
<g id="edge11" class="edge"><title>Node8&#45;&gt;Node9</title>
<path fill="none" stroke="midnightblue" d="M1403.77,-134.396C1379.95,-123.092 1346.79,-107.361 1323.67,-96.3903"/>
<polygon fill="midnightblue" stroke="midnightblue" points="1324.97,-93.1314 1314.43,-92.007 1321.96,-99.4557 1324.97,-93.1314"/>
</g>
<!-- Node10 -->
<g id="node10" class="node"><title>Node10</title>
<g id="a_node10"><a xlink:href="Triggers_8h.html" target="_top" xlink:title="QualityControl/Triggers.h">
<polygon fill="none" stroke="black" points="1388,-73 1388,-92 1513,-92 1513,-73 1388,-73"/>
<text text-anchor="middle" x="1450.5" y="-80" font-family="Helvetica,sans-Serif" font-size="10.00">QualityControl/Triggers.h</text>
</a>
</g>
</g>
<!-- Node8&#45;&gt;Node10 -->
<g id="edge13" class="edge"><title>Node8&#45;&gt;Node10</title>
<path fill="none" stroke="midnightblue" d="M1437.19,-134.396C1439.66,-124.963 1442.93,-112.448 1445.61,-102.189"/>
<polygon fill="midnightblue" stroke="midnightblue" points="1449.08,-102.755 1448.23,-92.1945 1442.31,-100.984 1449.08,-102.755"/>
</g>
<!-- Node10&#45;&gt;Node6 -->
<g id="edge14" class="edge"><title>Node10&#45;&gt;Node6</title>
<path fill="none" stroke="midnightblue" d="M1411.89,-72.9355C1353.04,-59.8788 1242.05,-35.2565 1188.26,-23.3248"/>
<polygon fill="midnightblue" stroke="midnightblue" points="1188.82,-19.8637 1178.3,-21.1148 1187.31,-26.6976 1188.82,-19.8637"/>
</g>
<!-- Node11 -->
<g id="node11" class="node"><title>Node11</title>
<polygon fill="none" stroke="#bfbfbf" points="1421,-6 1421,-25 1480,-25 1480,-6 1421,-6"/>
<text text-anchor="middle" x="1450.5" y="-13" font-family="Helvetica,sans-Serif" font-size="10.00">functional</text>
</g>
<!-- Node10&#45;&gt;Node11 -->
<g id="edge15" class="edge"><title>Node10&#45;&gt;Node11</title>
<path fill="none" stroke="midnightblue" d="M1450.5,-72.7338C1450.5,-63.1826 1450.5,-47.6183 1450.5,-35.2829"/>
<polygon fill="midnightblue" stroke="midnightblue" points="1454,-35.1273 1450.5,-25.1273 1447,-35.1273 1454,-35.1273"/>
</g>
<!-- Node13 -->
<g id="node13" class="node"><title>Node13</title>
<polygon fill="none" stroke="#bfbfbf" points="927,-73 927,-92 986,-92 986,-73 927,-73"/>
<text text-anchor="middle" x="956.5" y="-80" font-family="Helvetica,sans-Serif" font-size="10.00">TObject.h</text>
</g>
<!-- Node12&#45;&gt;Node13 -->
<g id="edge17" class="edge"><title>Node12&#45;&gt;Node13</title>
<path fill="none" stroke="midnightblue" d="M1017.06,-139.734C1005.83,-129.305 986.879,-111.709 973.163,-98.9732"/>
<polygon fill="midnightblue" stroke="midnightblue" points="975.5,-96.3671 965.791,-92.1273 970.737,-101.497 975.5,-96.3671"/>
</g>
<!-- Node21&#45;&gt;Node6 -->
<g id="edge27" class="edge"><title>Node21&#45;&gt;Node6</title>
<path fill="none" stroke="midnightblue" d="M471.922,-213.732C588.796,-209.69 835.922,-197.482 914.5,-165 934.643,-156.674 934.54,-146.35 952.5,-134 1014.02,-91.6989 1091.67,-50.1583 1131.43,-29.6758"/>
<polygon fill="midnightblue" stroke="midnightblue" points="1133.16,-32.7241 1140.46,-25.0502 1129.97,-26.4938 1133.16,-32.7241"/>
</g>
<!-- Node22 -->
<g id="node22" class="node"><title>Node22</title>
<polygon fill="none" stroke="#bfbfbf" points="576.5,-73 576.5,-92 692.5,-92 692.5,-73 576.5,-73"/>
<text text-anchor="middle" x="634.5" y="-80" font-family="Helvetica,sans-Serif" font-size="10.00">Common/Exceptions.h</text>
</g>
<!-- Node21&#45;&gt;Node22 -->
<g id="edge28" class="edge"><title>Node21&#45;&gt;Node22</title>
<path fill="none" stroke="midnightblue" d="M456.696,-201.478C482.187,-192.861 513.641,-180.493 539.5,-165 547.958,-159.933 592.168,-121.09 617.189,-98.9076"/>
<polygon fill="midnightblue" stroke="midnightblue" points="619.706,-101.353 624.859,-92.0962 615.058,-96.1192 619.706,-101.353"/>
</g>
<!-- Node23 -->
<g id="node23" class="node"><title>Node23</title>
<polygon fill="none" stroke="#bfbfbf" points="244.5,-140 244.5,-159 300.5,-159 300.5,-140 244.5,-140"/>
<text text-anchor="middle" x="272.5" y="-147" font-family="Helvetica,sans-Serif" font-size="10.00">TClass.h</text>
</g>
<!-- Node21&#45;&gt;Node23 -->
<g id="edge29" class="edge"><title>Node21&#45;&gt;Node23</title>
<path fill="none" stroke="midnightblue" d="M379.773,-201.396C355.948,-190.092 322.791,-174.361 299.669,-163.39"/>
<polygon fill="midnightblue" stroke="midnightblue" points="300.965,-160.131 290.43,-159.007 297.965,-166.456 300.965,-160.131"/>
</g>
<!-- Node24 -->
<g id="node24" class="node"><title>Node24</title>
<polygon fill="none" stroke="#bfbfbf" points="167,-140 167,-159 226,-159 226,-140 167,-140"/>
<text text-anchor="middle" x="196.5" y="-147" font-family="Helvetica,sans-Serif" font-size="10.00">TROOT.h</text>
</g>
<!-- Node21&#45;&gt;Node24 -->
<g id="edge30" class="edge"><title>Node21&#45;&gt;Node24</title>
<path fill="none" stroke="midnightblue" d="M357.42,-201.463C322.686,-191.838 276.118,-178.425 235.5,-165 233.099,-164.207 230.626,-163.359 228.145,-162.487"/>
<polygon fill="midnightblue" stroke="midnightblue" points="229.269,-159.172 218.674,-159.065 226.89,-165.755 229.269,-159.172"/>
</g>
<!-- Node25 -->
<g id="node25" class="node"><title>Node25</title>
<polygon fill="none" stroke="#bfbfbf" points="319,-140 319,-159 384,-159 384,-140 319,-140"/>
<text text-anchor="middle" x="351.5" y="-147" font-family="Helvetica,sans-Serif" font-size="10.00">TSystem.h</text>
</g>
<!-- Node21&#45;&gt;Node25 -->
<g id="edge31" class="edge"><title>Node21&#45;&gt;Node25</title>
<path fill="none" stroke="midnightblue" d="M396.915,-201.396C387.871,-191.261 375.652,-177.567 366.167,-166.937"/>
<polygon fill="midnightblue" stroke="midnightblue" points="368.528,-164.326 359.258,-159.195 363.305,-168.986 368.528,-164.326"/>
</g>
<!-- Node26 -->
<g id="node26" class="node"><title>Node26</title>
<polygon fill="none" stroke="#bfbfbf" points="402,-140 402,-159 531,-159 531,-140 402,-140"/>
<text text-anchor="middle" x="466.5" y="-147" font-family="Helvetica,sans-Serif" font-size="10.00">boost/filesystem/path.hpp</text>
</g>
<!-- Node21&#45;&gt;Node26 -->
<g id="edge32" class="edge"><title>Node21&#45;&gt;Node26</title>
<path fill="none" stroke="midnightblue" d="M421.868,-201.396C430.756,-191.261 442.764,-177.567 452.086,-166.937"/>
<polygon fill="midnightblue" stroke="midnightblue" points="454.914,-169.021 458.876,-159.195 449.651,-164.406 454.914,-169.021"/>
</g>
<!-- Node21&#45;&gt;Node27 -->
<g id="edge33" class="edge"><title>Node21&#45;&gt;Node27</title>
<path fill="none" stroke="midnightblue" d="M347.274,-203.426C284.401,-191.227 188.249,-172.571 128.494,-160.976"/>
<polygon fill="midnightblue" stroke="midnightblue" points="128.985,-157.507 118.502,-159.038 127.652,-164.378 128.985,-157.507"/>
</g>
<!-- Node28 -->
<g id="node28" class="node"><title>Node28</title>
<polygon fill="none" stroke="#bfbfbf" points="9.5,-73 9.5,-92 139.5,-92 139.5,-73 9.5,-73"/>
<text text-anchor="middle" x="74.5" y="-80" font-family="Helvetica,sans-Serif" font-size="10.00">InfoLogger/InfoLogger.hxx</text>
</g>
<!-- Node27&#45;&gt;Node28 -->
<g id="edge34" class="edge"><title>Node27&#45;&gt;Node28</title>
<path fill="none" stroke="midnightblue" d="M74.5,-139.734C74.5,-130.183 74.5,-114.618 74.5,-102.283"/>
<polygon fill="midnightblue" stroke="midnightblue" points="78.0001,-102.127 74.5,-92.1273 71.0001,-102.127 78.0001,-102.127"/>
</g>
<!-- Node29&#45;&gt;Node5 -->
<g id="edge38" class="edge"><title>Node29&#45;&gt;Node5</title>
<path fill="none" stroke="midnightblue" d="M1214.57,-209.919C1312.14,-202.567 1465.49,-187.831 1518.5,-165 1538.52,-156.378 1536.65,-143.012 1556.5,-134 1643.52,-94.4852 1698.9,-163.493 1768.5,-98 1785.5,-82.0048 1788.65,-53.988 1788.63,-35.3377"/>
<polygon fill="midnightblue" stroke="midnightblue" points="1792.12,-35.0116 1788.31,-25.1269 1785.13,-35.2322 1792.12,-35.0116"/>
</g>
<!-- Node29&#45;&gt;Node6 -->
<g id="edge36" class="edge"><title>Node29&#45;&gt;Node6</title>
<path fill="none" stroke="midnightblue" d="M1129.79,-206.722C1130.66,-183.65 1133.83,-119.462 1143.5,-67 1145.49,-56.2086 1148.71,-44.3763 1151.56,-34.8793"/>
<polygon fill="midnightblue" stroke="midnightblue" points="1154.91,-35.9175 1154.54,-25.329 1148.22,-33.834 1154.91,-35.9175"/>
</g>
<!-- Node29&#45;&gt;Node19 -->
<g id="edge37" class="edge"><title>Node29&#45;&gt;Node19</title>
<path fill="none" stroke="midnightblue" d="M1135.43,-206.734C1142.23,-196.695 1153.52,-180.014 1162.05,-167.421"/>
<polygon fill="midnightblue" stroke="midnightblue" points="1164.95,-169.37 1167.66,-159.127 1159.16,-165.446 1164.95,-169.37"/>
</g>
<!-- Node29&#45;&gt;Node20 -->
<g id="edge39" class="edge"><title>Node29&#45;&gt;Node20</title>
<path fill="none" stroke="midnightblue" d="M1146.76,-206.869C1168.81,-195.845 1207.19,-176.655 1232.96,-163.768"/>
<polygon fill="midnightblue" stroke="midnightblue" points="1234.79,-166.77 1242.17,-159.167 1231.66,-160.509 1234.79,-166.77"/>
</g>
<!-- Node30 -->
<g id="node30" class="node"><title>Node30</title>
<g id="a_node30"><a xlink:href="QualityObject_8h_source.html" target="_top" xlink:title="QualityControl/QualityObject.h">
<polygon fill="none" stroke="black" points="757,-140 757,-159 906,-159 906,-140 757,-140"/>
<text text-anchor="middle" x="831.5" y="-147" font-family="Helvetica,sans-Serif" font-size="10.00">QualityControl/QualityObject.h</text>
</a>
</g>
</g>
<!-- Node29&#45;&gt;Node30 -->
<g id="edge40" class="edge"><title>Node29&#45;&gt;Node30</title>
<path fill="none" stroke="midnightblue" d="M1090.24,-206.936C1036.3,-195.171 939.32,-174.018 880.636,-161.218"/>
<polygon fill="midnightblue" stroke="midnightblue" points="881.368,-157.795 870.852,-159.083 879.876,-164.634 881.368,-157.795"/>
</g>
<!-- Node29&#45;&gt;Node34 -->
<g id="edge48" class="edge"><title>Node29&#45;&gt;Node34</title>
<path fill="none" stroke="midnightblue" d="M1058.62,-206.98C981.843,-197.552 855.793,-181.498 747.5,-165 738.89,-163.688 729.799,-162.213 720.904,-160.72"/>
<polygon fill="midnightblue" stroke="midnightblue" points="721.425,-157.258 710.98,-159.033 720.252,-164.159 721.425,-157.258"/>
</g>
<!-- Node30&#45;&gt;Node13 -->
<g id="edge42" class="edge"><title>Node30&#45;&gt;Node13</title>
<path fill="none" stroke="midnightblue" d="M848.099,-139.869C869.205,-128.893 905.876,-109.824 930.657,-96.9385"/>
<polygon fill="midnightblue" stroke="midnightblue" points="932.575,-99.886 939.832,-92.1672 929.345,-93.6755 932.575,-99.886"/>
</g>
<!-- Node30&#45;&gt;Node22 -->
<g id="edge43" class="edge"><title>Node30&#45;&gt;Node22</title>
<path fill="none" stroke="midnightblue" d="M805.34,-139.869C770.656,-128.424 709.301,-108.181 670.331,-95.3223"/>
<polygon fill="midnightblue" stroke="midnightblue" points="671.048,-91.8733 660.455,-92.0637 668.854,-98.5208 671.048,-91.8733"/>
</g>
<!-- Node31 -->
<g id="node31" class="node"><title>Node31</title>
<polygon fill="none" stroke="#bfbfbf" points="754,-6 754,-25 789,-25 789,-6 754,-6"/>
<text text-anchor="middle" x="771.5" y="-13" font-family="Helvetica,sans-Serif" font-size="10.00">map</text>
</g>
<!-- Node30&#45;&gt;Node31 -->
<g id="edge41" class="edge"><title>Node30&#45;&gt;Node31</title>
<path fill="none" stroke="midnightblue" d="M835.426,-139.852C841.852,-124.331 852.737,-91.1205 840.5,-67 831.657,-49.5686 813.656,-36.7089 798.258,-28.3296"/>
<polygon fill="midnightblue" stroke="midnightblue" points="799.614,-25.0927 789.112,-23.6904 796.447,-31.3355 799.614,-25.0927"/>
</g>
<!-- Node32 -->
<g id="node32" class="node"><title>Node32</title>
<g id="a_node32"><a xlink:href="Quality_8h.html" target="_top" xlink:title="QualityControl/Quality.h">
<polygon fill="none" stroke="black" points="711,-73 711,-92 832,-92 832,-73 711,-73"/>
<text text-anchor="middle" x="771.5" y="-80" font-family="Helvetica,sans-Serif" font-size="10.00">QualityControl/Quality.h</text>
</a>
</g>
</g>
<!-- Node30&#45;&gt;Node32 -->
<g id="edge44" class="edge"><title>Node30&#45;&gt;Node32</title>
<path fill="none" stroke="midnightblue" d="M823.408,-139.734C813.962,-129.5 798.144,-112.364 786.447,-99.6924"/>
<polygon fill="midnightblue" stroke="midnightblue" points="788.818,-97.1014 779.464,-92.1273 783.675,-101.849 788.818,-97.1014"/>
</g>
<!-- Node32&#45;&gt;Node6 -->
<g id="edge46" class="edge"><title>Node32&#45;&gt;Node6</title>
<path fill="none" stroke="midnightblue" d="M822.36,-72.9355C903.613,-59.253 1060.29,-32.8695 1126.62,-21.6992"/>
<polygon fill="midnightblue" stroke="midnightblue" points="1127.56,-25.0919 1136.83,-19.9799 1126.39,-18.1891 1127.56,-25.0919"/>
</g>
<!-- Node32&#45;&gt;Node31 -->
<g id="edge47" class="edge"><title>Node32&#45;&gt;Node31</title>
<path fill="none" stroke="midnightblue" d="M771.5,-72.7338C771.5,-63.1826 771.5,-47.6183 771.5,-35.2829"/>
<polygon fill="midnightblue" stroke="midnightblue" points="775,-35.1273 771.5,-25.1273 768,-35.1273 775,-35.1273"/>
</g>
<!-- Node33 -->
<g id="node33" class="node"><title>Node33</title>
<polygon fill="none" stroke="#bfbfbf" points="581.5,-6 581.5,-25 637.5,-25 637.5,-6 581.5,-6"/>
<text text-anchor="middle" x="609.5" y="-13" font-family="Helvetica,sans-Serif" font-size="10.00">Rtypes.h</text>
</g>
<!-- Node32&#45;&gt;Node33 -->
<g id="edge45" class="edge"><title>Node32&#45;&gt;Node33</title>
<path fill="none" stroke="midnightblue" d="M749.988,-72.8685C721.83,-61.5706 672.296,-41.6961 640.201,-28.8183"/>
<polygon fill="midnightblue" stroke="midnightblue" points="641.427,-25.5392 630.843,-25.0637 638.821,-32.0358 641.427,-25.5392"/>
</g>
<!-- Node34&#45;&gt;Node6 -->
<g id="edge49" class="edge"><title>Node34&#45;&gt;Node6</title>
<path fill="none" stroke="midnightblue" d="M697.429,-139.952C733.301,-130.651 791.38,-114.843 840.5,-98 875.397,-86.0339 882.203,-77.7282 917.5,-67 991.389,-44.5422 1081.05,-28.5579 1127.04,-21.1471"/>
<polygon fill="midnightblue" stroke="midnightblue" points="1127.64,-24.5962 1136.97,-19.5723 1126.54,-17.6826 1127.64,-24.5962"/>
</g>
<!-- Node34&#45;&gt;Node13 -->
<g id="edge52" class="edge"><title>Node34&#45;&gt;Node13</title>
<path fill="none" stroke="midnightblue" d="M708.707,-139.997C769.588,-128.432 874.661,-108.034 912.5,-98 915.687,-97.1547 918.983,-96.2083 922.269,-95.2148"/>
<polygon fill="midnightblue" stroke="midnightblue" points="923.504,-98.4952 931.986,-92.147 921.397,-91.82 923.504,-98.4952"/>
</g>
<!-- Node34&#45;&gt;Node22 -->
<g id="edge53" class="edge"><title>Node34&#45;&gt;Node22</title>
<path fill="none" stroke="midnightblue" d="M659.589,-139.734C655.241,-129.988 648.099,-113.981 642.545,-101.532"/>
<polygon fill="midnightblue" stroke="midnightblue" points="645.62,-99.8336 638.349,-92.1273 639.227,-102.686 645.62,-99.8336"/>
</g>
<!-- Node34&#45;&gt;Node31 -->
<g id="edge50" class="edge"><title>Node34&#45;&gt;Node31</title>
<path fill="none" stroke="midnightblue" d="M628.242,-139.905C606.62,-132.616 580.642,-119.763 567.5,-98 560.378,-86.2059 559.008,-77.8499 567.5,-67 589.078,-39.4288 692.955,-24.8147 743.608,-19.226"/>
<polygon fill="midnightblue" stroke="midnightblue" points="744.27,-22.6755 753.845,-18.14 743.531,-15.7145 744.27,-22.6755"/>
</g>
<!-- Node34&#45;&gt;Node33 -->
<g id="edge51" class="edge"><title>Node34&#45;&gt;Node33</title>
<path fill="none" stroke="midnightblue" d="M602.39,-139.937C576.987,-133.029 549.887,-120.548 534.5,-98 526.734,-86.6196 528.027,-79.1624 534.5,-67 543.563,-49.9721 561.206,-37.6556 577.104,-29.4509"/>
<polygon fill="midnightblue" stroke="midnightblue" points="578.685,-32.5744 586.185,-25.0907 575.655,-26.2641 578.685,-32.5744"/>
</g>
</g>
</svg>
        <g id="navigator" transform="translate(0 0)" fill="#404254">
                <rect fill="#f2f5e9" fill-opacity="0.5" stroke="#606060" stroke-width=".5" x="0" y="0" width="60" height="60"/>
                <use id="zoomplus" xlink:href="#zoomPlus" x="17" y="9" onmousedown="handleZoom(evt,'in')"/>
                <use id="zoomminus" xlink:href="#zoomMin" x="42" y="9" onmousedown="handleZoom(evt,'out')"/>
                <use id="reset" xlink:href="#resetDef" x="30" y="36" onmousedown="handleReset()"/>
                <g id="arrowUp" xlink:href="#dirArrow" transform="translate(30 24)" onmousedown="handlePan(0,-1)">
                  <use xlink:href="#rim" fill="#404040">
                        <set attributeName="fill" to="#808080" begin="arrowUp.mouseover" end="arrowUp.mouseout"/>
                  </use>
                  <path fill="none" stroke="white" stroke-width="1.5" d="M0,-3.0v7 M-2.5,-0.5L0,-3.0L2.5,-0.5"/>
                </g>
                <g id="arrowRight" xlink:href="#dirArrow" transform="rotate(90) translate(36 -43)" onmousedown="handlePan(1,0)">
                  <use xlink:href="#rim" fill="#404040">
                        <set attributeName="fill" to="#808080" begin="arrowRight.mouseover" end="arrowRight.mouseout"/>
                  </use>
                  <path fill="none" stroke="white" stroke-width="1.5" d="M0,-3.0v7 M-2.5,-0.5L0,-3.0L2.5,-0.5"/>
                </g>
                <g id="arrowDown" xlink:href="#dirArrow" transform="rotate(180) translate(-30 -48)" onmousedown="handlePan(0,1)">
                  <use xlink:href="#rim" fill="#404040">
                        <set attributeName="fill" to="#808080" begin="arrowDown.mouseover" end="arrowDown.mouseout"/>
                  </use>
                  <path fill="none" stroke="white" stroke-width="1.5" d="M0,-3.0v7 M-2.5,-0.5L0,-3.0L2.5,-0.5"/>
                </g>
                <g id="arrowLeft" xlink:href="#dirArrow" transform="rotate(270) translate(-36 17)" onmousedown="handlePan(-1,0)">
                  <use xlink:href="#rim" fill="#404040">
                        <set attributeName="fill" to="#808080" begin="arrowLeft.mouseover" end="arrowLeft.mouseout"/>
                  </use>
                  <path fill="none" stroke="white" stroke-width="1.5" d="M0,-3.0v7 M-2.5,-0.5L0,-3.0L2.5,-0.5"/>
                </g>
        </g>
        <svg viewBox="0 0 15 15" width="100%" height="30px" preserveAspectRatio="xMaxYMin meet">
         <g id="arrow_out" transform="scale(0.3 0.3)">
          <a xlink:href="TrendingTaskITS_8cxx__incl_org.svg" target="_base">
           <rect id="button" ry="5" rx="5" y="6" x="6" height="38" width="38"
                fill="#f2f5e9" fill-opacity="0.5" stroke="#606060" stroke-width="1.0"/>
           <path id="arrow"
             d="M 11.500037,31.436501 C 11.940474,20.09759 22.043105,11.32322 32.158766,21.979434 L 37.068811,17.246167 C 37.068811,17.246167 37.088388,32 37.088388,32 L 22.160133,31.978069 C 22.160133,31.978069 26.997745,27.140456 26.997745,27.140456 C 18.528582,18.264221 13.291696,25.230495 11.500037,31.436501 z"
             style="fill:#404040;"/>
          </a>
         </g>
        </svg>
</svg>
