<?xml version="1.0" encoding="UTF-8" standalone="no"?>
<!DOCTYPE svg PUBLIC "-//W3C//DTD SVG 1.1//EN"
 "http://www.w3.org/Graphics/SVG/1.1/DTD/svg11.dtd">
<!-- Generated by graphviz version 2.38.0 (20140413.2041)
 -->
<!-- Title: Framework/src/TrendingTask.cxx Pages: 1 -->
<svg width="1781pt" height="296pt"
 viewBox="0.00 0.00 1780.50 296.00" xmlns="http://www.w3.org/2000/svg" xmlns:xlink="http://www.w3.org/1999/xlink">
<g id="graph0" class="graph" transform="scale(1 1) rotate(0) translate(4 292)">
<title>Framework/src/TrendingTask.cxx</title>
<!-- Node1 -->
<g id="node1" class="node"><title>Node1</title>
<polygon fill="#bfbfbf" stroke="black" points="1223.5,-268.5 1223.5,-287.5 1386.5,-287.5 1386.5,-268.5 1223.5,-268.5"/>
<text text-anchor="middle" x="1305" y="-275.5" font-family="Helvetica,sans-Serif" font-size="10.00">Framework/src/TrendingTask.cxx</text>
</g>
<!-- Node2 -->
<g id="node2" class="node"><title>Node2</title>
<g id="a_node2"><a xlink:href="TrendingTask_8h.html" target="_top" xlink:title="QualityControl/TrendingTask.h">
<polygon fill="none" stroke="black" points="280.5,-207 280.5,-226 429.5,-226 429.5,-207 280.5,-207"/>
<text text-anchor="middle" x="355" y="-214" font-family="Helvetica,sans-Serif" font-size="10.00">QualityControl/TrendingTask.h</text>
</a>
</g>
</g>
<!-- Node1&#45;&gt;Node2 -->
<g id="edge1" class="edge"><title>Node1&#45;&gt;Node2</title>
<path fill="none" stroke="midnightblue" d="M1223.33,-273.071C1081.01,-266.052 778.339,-250.362 523,-232 495.943,-230.054 466.462,-227.617 439.858,-225.3"/>
<polygon fill="midnightblue" stroke="midnightblue" points="440.081,-221.806 429.813,-224.419 439.469,-228.779 440.081,-221.806"/>
</g>
<!-- Node12 -->
<g id="node12" class="node"><title>Node12</title>
<g id="a_node12"><a xlink:href="Reductor_8h.html" target="_top" xlink:title="QualityControl/Reductor.h">
<polygon fill="none" stroke="black" points="645,-140 645,-159 775,-159 775,-140 645,-140"/>
<text text-anchor="middle" x="710" y="-147" font-family="Helvetica,sans-Serif" font-size="10.00">QualityControl/Reductor.h</text>
</a>
</g>
</g>
<!-- Node1&#45;&gt;Node12 -->
<g id="edge43" class="edge"><title>Node1&#45;&gt;Node12</title>
<path fill="none" stroke="midnightblue" d="M1264.57,-268.405C1159.08,-245.976 875.651,-185.718 760.088,-161.149"/>
<polygon fill="midnightblue" stroke="midnightblue" points="760.602,-157.68 750.093,-159.024 759.146,-164.527 760.602,-157.68"/>
</g>
<!-- Node17 -->
<g id="node17" class="node"><title>Node17</title>
<g id="a_node17"><a xlink:href="QcInfoLogger_8h.html" target="_top" xlink:title="QualityControl/QcInfoLogger.h">
<polygon fill="none" stroke="black" points="1586.5,-140 1586.5,-159 1735.5,-159 1735.5,-140 1586.5,-140"/>
<text text-anchor="middle" x="1661" y="-147" font-family="Helvetica,sans-Serif" font-size="10.00">QualityControl/QcInfoLogger.h</text>
</a>
</g>
</g>
<!-- Node1&#45;&gt;Node17 -->
<g id="edge21" class="edge"><title>Node1&#45;&gt;Node17</title>
<path fill="none" stroke="midnightblue" d="M1304.46,-268.391C1303.97,-252.459 1305.43,-218.419 1325,-201 1367.42,-163.239 1521.91,-173.888 1578,-165 1586.31,-163.684 1595.07,-162.227 1603.66,-160.76"/>
<polygon fill="midnightblue" stroke="midnightblue" points="1604.38,-164.188 1613.64,-159.04 1603.19,-157.29 1604.38,-164.188"/>
</g>
<!-- Node19 -->
<g id="node19" class="node"><title>Node19</title>
<g id="a_node19"><a xlink:href="DatabaseInterface_8h.html" target="_top" xlink:title="QualityControl/DatabaseInterface.h">
<polygon fill="none" stroke="black" points="532,-207 532,-226 702,-226 702,-207 532,-207"/>
<text text-anchor="middle" x="617" y="-214" font-family="Helvetica,sans-Serif" font-size="10.00">QualityControl/DatabaseInterface.h</text>
</a>
</g>
</g>
<!-- Node1&#45;&gt;Node19 -->
<g id="edge23" class="edge"><title>Node1&#45;&gt;Node19</title>
<path fill="none" stroke="midnightblue" d="M1223.38,-269.941C1095.33,-258.867 847.857,-237.465 712.002,-225.716"/>
<polygon fill="midnightblue" stroke="midnightblue" points="712.28,-222.227 702.016,-224.852 711.677,-229.201 712.28,-222.227"/>
</g>
<!-- Node25 -->
<g id="node25" class="node"><title>Node25</title>
<g id="a_node25"><a xlink:href="MonitorObject_8h.html" target="_top" xlink:title="QualityControl/MonitorObject.h">
<polygon fill="none" stroke="black" points="997.5,-140 997.5,-159 1148.5,-159 1148.5,-140 997.5,-140"/>
<text text-anchor="middle" x="1073" y="-147" font-family="Helvetica,sans-Serif" font-size="10.00">QualityControl/MonitorObject.h</text>
</a>
</g>
</g>
<!-- Node1&#45;&gt;Node25 -->
<g id="edge42" class="edge"><title>Node1&#45;&gt;Node25</title>
<path fill="none" stroke="midnightblue" d="M1262.68,-268.431C1233.63,-261.394 1194.89,-249.673 1164,-232 1133.35,-214.465 1104.07,-185.264 1087.35,-166.989"/>
<polygon fill="midnightblue" stroke="midnightblue" points="1089.87,-164.556 1080.59,-159.443 1084.66,-169.227 1089.87,-164.556"/>
</g>
<!-- Node26 -->
<g id="node26" class="node"><title>Node26</title>
<g id="a_node26"><a xlink:href="RootClassFactory_8h.html" target="_top" xlink:title="RootClassFactory.h">
<polygon fill="none" stroke="black" points="1173,-207 1173,-226 1277,-226 1277,-207 1173,-207"/>
<text text-anchor="middle" x="1225" y="-214" font-family="Helvetica,sans-Serif" font-size="10.00">RootClassFactory.h</text>
</a>
</g>
</g>
<!-- Node1&#45;&gt;Node26 -->
<g id="edge44" class="edge"><title>Node1&#45;&gt;Node26</title>
<path fill="none" stroke="midnightblue" d="M1293.54,-268.475C1280.83,-259.02 1260.09,-243.596 1244.75,-232.187"/>
<polygon fill="midnightblue" stroke="midnightblue" points="1246.55,-229.169 1236.44,-226.009 1242.38,-234.785 1246.55,-229.169"/>
</g>
<!-- Node31 -->
<g id="node31" class="node"><title>Node31</title>
<polygon fill="none" stroke="#bfbfbf" points="1333.5,-201.5 1333.5,-231.5 1434.5,-231.5 1434.5,-201.5 1333.5,-201.5"/>
<text text-anchor="start" x="1341.5" y="-219.5" font-family="Helvetica,sans-Serif" font-size="10.00">boost/property_tree</text>
<text text-anchor="middle" x="1384" y="-208.5" font-family="Helvetica,sans-Serif" font-size="10.00">/ptree.hpp</text>
</g>
<!-- Node1&#45;&gt;Node31 -->
<g id="edge52" class="edge"><title>Node1&#45;&gt;Node31</title>
<path fill="none" stroke="midnightblue" d="M1316.32,-268.475C1326.92,-260.492 1343.17,-248.254 1357.09,-237.77"/>
<polygon fill="midnightblue" stroke="midnightblue" points="1359.5,-240.335 1365.38,-231.523 1355.29,-234.743 1359.5,-240.335"/>
</g>
<!-- Node32 -->
<g id="node32" class="node"><title>Node32</title>
<polygon fill="none" stroke="#bfbfbf" points="1453,-207 1453,-226 1497,-226 1497,-207 1453,-207"/>
<text text-anchor="middle" x="1475" y="-214" font-family="Helvetica,sans-Serif" font-size="10.00">TH1.h</text>
</g>
<!-- Node1&#45;&gt;Node32 -->
<g id="edge53" class="edge"><title>Node1&#45;&gt;Node32</title>
<path fill="none" stroke="midnightblue" d="M1334.93,-268.485C1363.34,-260.128 1407.07,-246.551 1444,-232 1445.42,-231.442 1446.86,-230.85 1448.31,-230.237"/>
<polygon fill="midnightblue" stroke="midnightblue" points="1450.08,-233.282 1457.79,-226.015 1447.23,-226.888 1450.08,-233.282"/>
</g>
<!-- Node33 -->
<g id="node33" class="node"><title>Node33</title>
<polygon fill="none" stroke="#bfbfbf" points="1515.5,-207 1515.5,-226 1580.5,-226 1580.5,-207 1515.5,-207"/>
<text text-anchor="middle" x="1548" y="-214" font-family="Helvetica,sans-Serif" font-size="10.00">TCanvas.h</text>
</g>
<!-- Node1&#45;&gt;Node33 -->
<g id="edge54" class="edge"><title>Node1&#45;&gt;Node33</title>
<path fill="none" stroke="midnightblue" d="M1349.67,-268.496C1390.64,-260.343 1452.85,-247.074 1506,-232 1508.95,-231.164 1511.99,-230.238 1515.03,-229.271"/>
<polygon fill="midnightblue" stroke="midnightblue" points="1516.21,-232.568 1524.6,-226.098 1514.01,-225.923 1516.21,-232.568"/>
</g>
<!-- Node34 -->
<g id="node34" class="node"><title>Node34</title>
<polygon fill="none" stroke="#bfbfbf" points="1598.5,-207 1598.5,-226 1671.5,-226 1671.5,-207 1598.5,-207"/>
<text text-anchor="middle" x="1635" y="-214" font-family="Helvetica,sans-Serif" font-size="10.00">TPaveText.h</text>
</g>
<!-- Node1&#45;&gt;Node34 -->
<g id="edge55" class="edge"><title>Node1&#45;&gt;Node34</title>
<path fill="none" stroke="midnightblue" d="M1379.13,-268.5C1437.02,-261.093 1519.23,-248.882 1590,-232 1593.65,-231.13 1597.43,-230.109 1601.17,-229.018"/>
<polygon fill="midnightblue" stroke="midnightblue" points="1602.38,-232.309 1610.91,-226.024 1600.32,-225.619 1602.38,-232.309"/>
</g>
<!-- Node35 -->
<g id="node35" class="node"><title>Node35</title>
<polygon fill="none" stroke="#bfbfbf" points="1689.5,-207 1689.5,-226 1772.5,-226 1772.5,-207 1689.5,-207"/>
<text text-anchor="middle" x="1731" y="-214" font-family="Helvetica,sans-Serif" font-size="10.00">TGraphErrors.h</text>
</g>
<!-- Node1&#45;&gt;Node35 -->
<g id="edge56" class="edge"><title>Node1&#45;&gt;Node35</title>
<path fill="none" stroke="midnightblue" d="M1386.66,-271.093C1463.24,-264.643 1580.66,-252.412 1681,-232 1685.45,-231.094 1690.09,-229.984 1694.66,-228.786"/>
<polygon fill="midnightblue" stroke="midnightblue" points="1695.77,-232.109 1704.47,-226.065 1693.9,-225.364 1695.77,-232.109"/>
</g>
<!-- Node3 -->
<g id="node3" class="node"><title>Node3</title>
<g id="a_node3"><a xlink:href="PostProcessingInterface_8h.html" target="_top" xlink:title="QualityControl/PostProcessing\lInterface.h">
<polygon fill="none" stroke="black" points="437.5,-134.5 437.5,-164.5 588.5,-164.5 588.5,-134.5 437.5,-134.5"/>
<text text-anchor="start" x="445.5" y="-152.5" font-family="Helvetica,sans-Serif" font-size="10.00">QualityControl/PostProcessing</text>
<text text-anchor="middle" x="513" y="-141.5" font-family="Helvetica,sans-Serif" font-size="10.00">Interface.h</text>
</a>
</g>
</g>
<!-- Node2&#45;&gt;Node3 -->
<g id="edge2" class="edge"><title>Node2&#45;&gt;Node3</title>
<path fill="none" stroke="midnightblue" d="M375.981,-206.869C399.69,-197.115 438.936,-180.97 469.363,-168.452"/>
<polygon fill="midnightblue" stroke="midnightblue" points="470.985,-171.569 478.901,-164.528 468.321,-165.096 470.985,-171.569"/>
</g>
<!-- Node9 -->
<g id="node9" class="node"><title>Node9</title>
<g id="a_node9"><a xlink:href="TrendingTaskConfig_8h.html" target="_top" xlink:title="QualityControl/TrendingTask\lConfig.h">
<polygon fill="none" stroke="black" points="68.5,-134.5 68.5,-164.5 209.5,-164.5 209.5,-134.5 68.5,-134.5"/>
<text text-anchor="start" x="76.5" y="-152.5" font-family="Helvetica,sans-Serif" font-size="10.00">QualityControl/TrendingTask</text>
<text text-anchor="middle" x="139" y="-141.5" font-family="Helvetica,sans-Serif" font-size="10.00">Config.h</text>
</a>
</g>
</g>
<!-- Node2&#45;&gt;Node9 -->
<g id="edge9" class="edge"><title>Node2&#45;&gt;Node9</title>
<path fill="none" stroke="midnightblue" d="M326.317,-206.869C293.063,-196.862 237.451,-180.127 195.44,-167.484"/>
<polygon fill="midnightblue" stroke="midnightblue" points="196.201,-164.058 185.616,-164.528 194.184,-170.761 196.201,-164.058"/>
</g>
<!-- Node2&#45;&gt;Node12 -->
<g id="edge16" class="edge"><title>Node2&#45;&gt;Node12</title>
<path fill="none" stroke="midnightblue" d="M401.775,-206.936C466.647,-195.058 583.793,-173.608 653.478,-160.849"/>
<polygon fill="midnightblue" stroke="midnightblue" points="654.198,-164.276 663.404,-159.032 652.937,-157.39 654.198,-164.276"/>
</g>
<!-- Node14 -->
<g id="node14" class="node"><title>Node14</title>
<polygon fill="none" stroke="#bfbfbf" points="329,-140 329,-159 381,-159 381,-140 329,-140"/>
<text text-anchor="middle" x="355" y="-147" font-family="Helvetica,sans-Serif" font-size="10.00">memory</text>
</g>
<!-- Node2&#45;&gt;Node14 -->
<g id="edge18" class="edge"><title>Node2&#45;&gt;Node14</title>
<path fill="none" stroke="midnightblue" d="M355,-206.734C355,-197.183 355,-181.618 355,-169.283"/>
<polygon fill="midnightblue" stroke="midnightblue" points="358.5,-169.127 355,-159.127 351.5,-169.127 358.5,-169.127"/>
</g>
<!-- Node15 -->
<g id="node15" class="node"><title>Node15</title>
<polygon fill="none" stroke="#bfbfbf" points="227.5,-140 227.5,-159 310.5,-159 310.5,-140 227.5,-140"/>
<text text-anchor="middle" x="269" y="-147" font-family="Helvetica,sans-Serif" font-size="10.00">unordered_map</text>
</g>
<!-- Node2&#45;&gt;Node15 -->
<g id="edge19" class="edge"><title>Node2&#45;&gt;Node15</title>
<path fill="none" stroke="midnightblue" d="M343.402,-206.734C329.346,-196.111 305.449,-178.049 288.534,-165.264"/>
<polygon fill="midnightblue" stroke="midnightblue" points="290.503,-162.365 280.415,-159.127 286.282,-167.949 290.503,-162.365"/>
</g>
<!-- Node16 -->
<g id="node16" class="node"><title>Node16</title>
<polygon fill="none" stroke="#bfbfbf" points="0,-140 0,-159 50,-159 50,-140 0,-140"/>
<text text-anchor="middle" x="25" y="-147" font-family="Helvetica,sans-Serif" font-size="10.00">TTree.h</text>
</g>
<!-- Node2&#45;&gt;Node16 -->
<g id="edge20" class="edge"><title>Node2&#45;&gt;Node16</title>
<path fill="none" stroke="midnightblue" d="M280.312,-207.667C219.795,-200.156 132.769,-186.697 59,-165 56.8491,-164.367 54.652,-163.637 52.4615,-162.848"/>
<polygon fill="midnightblue" stroke="midnightblue" points="53.649,-159.554 43.0626,-159.13 51.0739,-166.063 53.649,-159.554"/>
</g>
<!-- Node4 -->
<g id="node4" class="node"><title>Node4</title>
<polygon fill="none" stroke="#bfbfbf" points="694.5,-6 694.5,-25 735.5,-25 735.5,-6 694.5,-6"/>
<text text-anchor="middle" x="715" y="-13" font-family="Helvetica,sans-Serif" font-size="10.00">string</text>
</g>
<!-- Node3&#45;&gt;Node4 -->
<g id="edge3" class="edge"><title>Node3&#45;&gt;Node4</title>
<path fill="none" stroke="midnightblue" d="M576.822,-134.492C616.06,-124.826 661.668,-111.355 677,-98 696.001,-81.4482 706.148,-53.3678 711.053,-34.8773"/>
<polygon fill="midnightblue" stroke="midnightblue" points="714.487,-35.5652 713.412,-25.0251 707.679,-33.9352 714.487,-35.5652"/>
</g>
<!-- Node5 -->
<g id="node5" class="node"><title>Node5</title>
<polygon fill="none" stroke="#bfbfbf" points="522,-73 522,-92 668,-92 668,-73 522,-73"/>
<text text-anchor="middle" x="595" y="-80" font-family="Helvetica,sans-Serif" font-size="10.00">Framework/ServiceRegistry.h</text>
</g>
<!-- Node3&#45;&gt;Node5 -->
<g id="edge4" class="edge"><title>Node3&#45;&gt;Node5</title>
<path fill="none" stroke="midnightblue" d="M530.793,-134.396C544.085,-123.86 562.229,-109.477 575.839,-98.6886"/>
<polygon fill="midnightblue" stroke="midnightblue" points="578.369,-101.149 584.032,-92.1945 574.021,-95.6637 578.369,-101.149"/>
</g>
<!-- Node6 -->
<g id="node6" class="node"><title>Node6</title>
<polygon fill="none" stroke="#bfbfbf" points="224.5,-0.5 224.5,-30.5 325.5,-30.5 325.5,-0.5 224.5,-0.5"/>
<text text-anchor="start" x="232.5" y="-18.5" font-family="Helvetica,sans-Serif" font-size="10.00">boost/property_tree</text>
<text text-anchor="middle" x="275" y="-7.5" font-family="Helvetica,sans-Serif" font-size="10.00">/ptree_fwd.hpp</text>
</g>
<!-- Node3&#45;&gt;Node6 -->
<g id="edge5" class="edge"><title>Node3&#45;&gt;Node6</title>
<path fill="none" stroke="midnightblue" d="M457.886,-134.5C430.134,-126.15 396.612,-114.023 369,-98 340.721,-81.59 313.018,-56.0906 295.098,-37.9888"/>
<polygon fill="midnightblue" stroke="midnightblue" points="297.524,-35.4628 288.044,-30.7318 292.504,-40.342 297.524,-35.4628"/>
</g>
<!-- Node7 -->
<g id="node7" class="node"><title>Node7</title>
<g id="a_node7"><a xlink:href="Triggers_8h.html" target="_top" xlink:title="QualityControl/Triggers.h">
<polygon fill="none" stroke="black" points="378.5,-73 378.5,-92 503.5,-92 503.5,-73 378.5,-73"/>
<text text-anchor="middle" x="441" y="-80" font-family="Helvetica,sans-Serif" font-size="10.00">QualityControl/Triggers.h</text>
</a>
</g>
</g>
<!-- Node3&#45;&gt;Node7 -->
<g id="edge6" class="edge"><title>Node3&#45;&gt;Node7</title>
<path fill="none" stroke="midnightblue" d="M497.377,-134.396C485.817,-123.96 470.078,-109.751 458.167,-98.9978"/>
<polygon fill="midnightblue" stroke="midnightblue" points="460.399,-96.2977 450.631,-92.1945 455.708,-101.494 460.399,-96.2977"/>
</g>
<!-- Node7&#45;&gt;Node4 -->
<g id="edge7" class="edge"><title>Node7&#45;&gt;Node4</title>
<path fill="none" stroke="midnightblue" d="M477.102,-72.9355C531.483,-60.035 633.458,-35.844 684.403,-23.7584"/>
<polygon fill="midnightblue" stroke="midnightblue" points="685.251,-27.1544 694.174,-21.4406 683.636,-20.3434 685.251,-27.1544"/>
</g>
<!-- Node8 -->
<g id="node8" class="node"><title>Node8</title>
<polygon fill="none" stroke="#bfbfbf" points="411.5,-6 411.5,-25 470.5,-25 470.5,-6 411.5,-6"/>
<text text-anchor="middle" x="441" y="-13" font-family="Helvetica,sans-Serif" font-size="10.00">functional</text>
</g>
<!-- Node7&#45;&gt;Node8 -->
<g id="edge8" class="edge"><title>Node7&#45;&gt;Node8</title>
<path fill="none" stroke="midnightblue" d="M441,-72.7338C441,-63.1826 441,-47.6183 441,-35.2829"/>
<polygon fill="midnightblue" stroke="midnightblue" points="444.5,-35.1273 441,-25.1273 437.5,-35.1273 444.5,-35.1273"/>
</g>
<!-- Node9&#45;&gt;Node4 -->
<g id="edge11" class="edge"><title>Node9&#45;&gt;Node4</title>
<path fill="none" stroke="midnightblue" d="M184.116,-134.445C214.724,-124.705 256.012,-111.168 292,-98 326.645,-85.3231 333.385,-76.6208 369,-67 482.889,-36.2347 623.251,-23.0774 684.266,-18.5237"/>
<polygon fill="midnightblue" stroke="midnightblue" points="684.653,-22.005 694.375,-17.7946 684.149,-15.0231 684.653,-22.005"/>
</g>
<!-- Node10 -->
<g id="node10" class="node"><title>Node10</title>
<polygon fill="none" stroke="#bfbfbf" points="82,-6 82,-25 126,-25 126,-6 82,-6"/>
<text text-anchor="middle" x="104" y="-13" font-family="Helvetica,sans-Serif" font-size="10.00">vector</text>
</g>
<!-- Node9&#45;&gt;Node10 -->
<g id="edge10" class="edge"><title>Node9&#45;&gt;Node10</title>
<path fill="none" stroke="midnightblue" d="M119.159,-134.329C108.317,-125.313 95.9207,-112.604 90,-98 81.6024,-77.2862 88.5968,-51.6238 95.3676,-34.693"/>
<polygon fill="midnightblue" stroke="midnightblue" points="98.6301,-35.9675 99.4149,-25.4017 92.2125,-33.1719 98.6301,-35.9675"/>
</g>
<!-- Node11 -->
<g id="node11" class="node"><title>Node11</title>
<g id="a_node11"><a xlink:href="PostProcessingConfig_8h.html" target="_top" xlink:title="QualityControl/PostProcessing\lConfig.h">
<polygon fill="none" stroke="black" points="132.5,-67.5 132.5,-97.5 283.5,-97.5 283.5,-67.5 132.5,-67.5"/>
<text text-anchor="start" x="140.5" y="-85.5" font-family="Helvetica,sans-Serif" font-size="10.00">QualityControl/PostProcessing</text>
<text text-anchor="middle" x="208" y="-74.5" font-family="Helvetica,sans-Serif" font-size="10.00">Config.h</text>
</a>
</g>
</g>
<!-- Node9&#45;&gt;Node11 -->
<g id="edge12" class="edge"><title>Node9&#45;&gt;Node11</title>
<path fill="none" stroke="midnightblue" d="M153.972,-134.396C163.195,-125.708 175.194,-114.405 185.54,-104.658"/>
<polygon fill="midnightblue" stroke="midnightblue" points="188.178,-106.981 193.057,-97.5765 183.378,-101.886 188.178,-106.981"/>
</g>
<!-- Node11&#45;&gt;Node4 -->
<g id="edge14" class="edge"><title>Node11&#45;&gt;Node4</title>
<path fill="none" stroke="midnightblue" d="M283.59,-69.1012C288.463,-68.37 293.299,-67.6631 298,-67 441.94,-46.6969 614.55,-27.3937 683.91,-19.8431"/>
<polygon fill="midnightblue" stroke="midnightblue" points="684.571,-23.292 694.135,-18.7338 683.816,-16.3328 684.571,-23.292"/>
</g>
<!-- Node11&#45;&gt;Node6 -->
<g id="edge15" class="edge"><title>Node11&#45;&gt;Node6</title>
<path fill="none" stroke="midnightblue" d="M222.538,-67.396C231.493,-58.7079 243.144,-47.4046 253.191,-37.6576"/>
<polygon fill="midnightblue" stroke="midnightblue" points="255.75,-40.0518 260.49,-30.5765 250.876,-35.0276 255.75,-40.0518"/>
</g>
<!-- Node11&#45;&gt;Node10 -->
<g id="edge13" class="edge"><title>Node11&#45;&gt;Node10</title>
<path fill="none" stroke="midnightblue" d="M185.434,-67.396C167.993,-56.4956 143.966,-41.4787 126.534,-30.5835"/>
<polygon fill="midnightblue" stroke="midnightblue" points="127.946,-27.339 117.611,-25.007 124.236,-33.275 127.946,-27.339"/>
</g>
<!-- Node13 -->
<g id="node13" class="node"><title>Node13</title>
<polygon fill="none" stroke="#bfbfbf" points="800.5,-73 800.5,-92 859.5,-92 859.5,-73 800.5,-73"/>
<text text-anchor="middle" x="830" y="-80" font-family="Helvetica,sans-Serif" font-size="10.00">TObject.h</text>
</g>
<!-- Node12&#45;&gt;Node13 -->
<g id="edge17" class="edge"><title>Node12&#45;&gt;Node13</title>
<path fill="none" stroke="midnightblue" d="M726.184,-139.734C746.426,-128.769 781.297,-109.881 804.986,-97.0495"/>
<polygon fill="midnightblue" stroke="midnightblue" points="806.947,-99.9677 814.073,-92.1273 803.613,-93.8127 806.947,-99.9677"/>
</g>
<!-- Node18 -->
<g id="node18" class="node"><title>Node18</title>
<polygon fill="none" stroke="#bfbfbf" points="1596,-73 1596,-92 1726,-92 1726,-73 1596,-73"/>
<text text-anchor="middle" x="1661" y="-80" font-family="Helvetica,sans-Serif" font-size="10.00">InfoLogger/InfoLogger.hxx</text>
</g>
<!-- Node17&#45;&gt;Node18 -->
<g id="edge22" class="edge"><title>Node17&#45;&gt;Node18</title>
<path fill="none" stroke="midnightblue" d="M1661,-139.734C1661,-130.183 1661,-114.618 1661,-102.283"/>
<polygon fill="midnightblue" stroke="midnightblue" points="1664.5,-102.127 1661,-92.1273 1657.5,-102.127 1664.5,-102.127"/>
</g>
<!-- Node19&#45;&gt;Node4 -->
<g id="edge24" class="edge"><title>Node19&#45;&gt;Node4</title>
<path fill="none" stroke="midnightblue" d="M616.802,-206.929C616.869,-190.945 619.113,-156.203 636,-134 656.228,-107.405 682.727,-125.295 702,-98 715.017,-79.5655 716.937,-52.9653 716.488,-35.2247"/>
<polygon fill="midnightblue" stroke="midnightblue" points="719.972,-34.8201 715.944,-25.0208 712.982,-35.1931 719.972,-34.8201"/>
</g>
<!-- Node19&#45;&gt;Node10 -->
<g id="edge26" class="edge"><title>Node19&#45;&gt;Node10</title>
<path fill="none" stroke="midnightblue" d="M560.991,-206.966C522.141,-199.535 470.033,-186.494 428,-165 408.594,-155.077 409.997,-142.671 390,-134 280.143,-86.3627 211.595,-178.553 123,-98 105.649,-82.2236 102.624,-53.9408 102.758,-35.1949"/>
<polygon fill="midnightblue" stroke="midnightblue" points="106.256,-35.3133 103.134,-25.1891 99.2613,-35.0508 106.256,-35.3133"/>
</g>
<!-- Node19&#45;&gt;Node14 -->
<g id="edge25" class="edge"><title>Node19&#45;&gt;Node14</title>
<path fill="none" stroke="midnightblue" d="M571.933,-206.957C526.78,-198 455.489,-182.769 395,-165 392.367,-164.226 389.655,-163.372 386.943,-162.476"/>
<polygon fill="midnightblue" stroke="midnightblue" points="387.858,-159.089 377.263,-159.124 385.567,-165.704 387.858,-159.089"/>
</g>
<!-- Node19&#45;&gt;Node15 -->
<g id="edge27" class="edge"><title>Node19&#45;&gt;Node15</title>
<path fill="none" stroke="midnightblue" d="M555.184,-206.989C494.84,-198.211 400.597,-183.253 320,-165 315.64,-164.013 311.099,-162.878 306.603,-161.688"/>
<polygon fill="midnightblue" stroke="midnightblue" points="307.488,-158.301 296.918,-159.028 305.634,-165.051 307.488,-158.301"/>
</g>
<!-- Node20 -->
<g id="node20" class="node"><title>Node20</title>
<g id="a_node20"><a xlink:href="QualityObject_8h_source.html" target="_top" xlink:title="QualityControl/QualityObject.h">
<polygon fill="none" stroke="black" points="830.5,-140 830.5,-159 979.5,-159 979.5,-140 830.5,-140"/>
<text text-anchor="middle" x="905" y="-147" font-family="Helvetica,sans-Serif" font-size="10.00">QualityControl/QualityObject.h</text>
</a>
</g>
</g>
<!-- Node19&#45;&gt;Node20 -->
<g id="edge28" class="edge"><title>Node19&#45;&gt;Node20</title>
<path fill="none" stroke="midnightblue" d="M654.947,-206.936C706.964,-195.196 800.411,-174.105 857.161,-161.297"/>
<polygon fill="midnightblue" stroke="midnightblue" points="857.985,-164.699 866.969,-159.083 856.444,-157.871 857.985,-164.699"/>
</g>
<!-- Node19&#45;&gt;Node25 -->
<g id="edge36" class="edge"><title>Node19&#45;&gt;Node25</title>
<path fill="none" stroke="midnightblue" d="M684.798,-206.968C759.255,-197.435 882.304,-181.204 988,-165 996.601,-163.681 1005.68,-162.214 1014.57,-160.734"/>
<polygon fill="midnightblue" stroke="midnightblue" points="1015.22,-164.174 1024.5,-159.064 1014.06,-157.271 1015.22,-164.174"/>
</g>
<!-- Node20&#45;&gt;Node13 -->
<g id="edge30" class="edge"><title>Node20&#45;&gt;Node13</title>
<path fill="none" stroke="midnightblue" d="M894.885,-139.734C882.852,-129.305 862.549,-111.709 847.854,-98.9732"/>
<polygon fill="midnightblue" stroke="midnightblue" points="849.804,-96.0317 839.955,-92.1273 845.219,-101.322 849.804,-96.0317"/>
</g>
<!-- Node21 -->
<g id="node21" class="node"><title>Node21</title>
<polygon fill="none" stroke="#bfbfbf" points="1048.5,-6 1048.5,-25 1083.5,-25 1083.5,-6 1048.5,-6"/>
<text text-anchor="middle" x="1066" y="-13" font-family="Helvetica,sans-Serif" font-size="10.00">map</text>
</g>
<!-- Node20&#45;&gt;Node21 -->
<g id="edge29" class="edge"><title>Node20&#45;&gt;Node21</title>
<path fill="none" stroke="midnightblue" d="M966.547,-139.986C994.425,-133.083 1025.63,-120.593 1046,-98 1061.44,-80.8774 1065.43,-53.7807 1066.23,-35.584"/>
<polygon fill="midnightblue" stroke="midnightblue" points="1069.74,-35.3911 1066.39,-25.3392 1062.74,-35.285 1069.74,-35.3911"/>
</g>
<!-- Node22 -->
<g id="node22" class="node"><title>Node22</title>
<polygon fill="none" stroke="#bfbfbf" points="1132,-73 1132,-92 1248,-92 1248,-73 1132,-73"/>
<text text-anchor="middle" x="1190" y="-80" font-family="Helvetica,sans-Serif" font-size="10.00">Common/Exceptions.h</text>
</g>
<!-- Node20&#45;&gt;Node22 -->
<g id="edge31" class="edge"><title>Node20&#45;&gt;Node22</title>
<path fill="none" stroke="midnightblue" d="M942.552,-139.936C993.92,-128.22 1086.12,-107.193 1142.31,-94.3768"/>
<polygon fill="midnightblue" stroke="midnightblue" points="1143.39,-97.7195 1152.36,-92.0834 1141.84,-90.8947 1143.39,-97.7195"/>
</g>
<!-- Node23 -->
<g id="node23" class="node"><title>Node23</title>
<g id="a_node23"><a xlink:href="Quality_8h.html" target="_top" xlink:title="QualityControl/Quality.h">
<polygon fill="none" stroke="black" points="916.5,-73 916.5,-92 1037.5,-92 1037.5,-73 916.5,-73"/>
<text text-anchor="middle" x="977" y="-80" font-family="Helvetica,sans-Serif" font-size="10.00">QualityControl/Quality.h</text>
</a>
</g>
</g>
<!-- Node20&#45;&gt;Node23 -->
<g id="edge32" class="edge"><title>Node20&#45;&gt;Node23</title>
<path fill="none" stroke="midnightblue" d="M914.71,-139.734C926.262,-129.305 945.753,-111.709 959.86,-98.9732"/>
<polygon fill="midnightblue" stroke="midnightblue" points="962.366,-101.426 967.444,-92.1273 957.676,-96.2304 962.366,-101.426"/>
</g>
<!-- Node23&#45;&gt;Node4 -->
<g id="edge34" class="edge"><title>Node23&#45;&gt;Node4</title>
<path fill="none" stroke="midnightblue" d="M942.479,-72.9355C890.848,-60.1263 794.349,-36.1858 745.299,-24.0168"/>
<polygon fill="midnightblue" stroke="midnightblue" points="746.134,-20.618 735.585,-21.607 744.448,-27.412 746.134,-20.618"/>
</g>
<!-- Node23&#45;&gt;Node21 -->
<g id="edge35" class="edge"><title>Node23&#45;&gt;Node21</title>
<path fill="none" stroke="midnightblue" d="M989.003,-72.7338C1003.55,-62.1106 1028.28,-44.0485 1045.78,-31.2642"/>
<polygon fill="midnightblue" stroke="midnightblue" points="1048.18,-33.8517 1054.19,-25.1273 1044.05,-28.1988 1048.18,-33.8517"/>
</g>
<!-- Node24 -->
<g id="node24" class="node"><title>Node24</title>
<polygon fill="none" stroke="#bfbfbf" points="1175,-6 1175,-25 1231,-25 1231,-6 1175,-6"/>
<text text-anchor="middle" x="1203" y="-13" font-family="Helvetica,sans-Serif" font-size="10.00">Rtypes.h</text>
</g>
<!-- Node23&#45;&gt;Node24 -->
<g id="edge33" class="edge"><title>Node23&#45;&gt;Node24</title>
<path fill="none" stroke="midnightblue" d="M1007.01,-72.8685C1047.78,-61.1425 1120.67,-40.1779 1165.15,-27.3857"/>
<polygon fill="midnightblue" stroke="midnightblue" points="1166.36,-30.6811 1175,-24.5533 1164.42,-23.9538 1166.36,-30.6811"/>
</g>
<!-- Node25&#45;&gt;Node4 -->
<g id="edge37" class="edge"><title>Node25&#45;&gt;Node4</title>
<path fill="none" stroke="midnightblue" d="M1029.31,-139.946C994.789,-132.087 946.073,-118.514 907,-98 887.396,-87.7073 887.482,-77.5222 868,-67 828.198,-45.5033 777.627,-31.0135 745.775,-23.2564"/>
<polygon fill="midnightblue" stroke="midnightblue" points="746.271,-19.7771 735.734,-20.8834 744.661,-26.5895 746.271,-19.7771"/>
</g>
<!-- Node25&#45;&gt;Node13 -->
<g id="edge40" class="edge"><title>Node25&#45;&gt;Node13</title>
<path fill="none" stroke="midnightblue" d="M1036.11,-139.955C996.008,-130.475 930.123,-114.347 874,-98 871.008,-97.1284 867.913,-96.1885 864.816,-95.2208"/>
<polygon fill="midnightblue" stroke="midnightblue" points="865.626,-91.8053 855.035,-92.0855 863.489,-98.4711 865.626,-91.8053"/>
</g>
<!-- Node25&#45;&gt;Node21 -->
<g id="edge38" class="edge"><title>Node25&#45;&gt;Node21</title>
<path fill="none" stroke="midnightblue" d="M1074.98,-139.903C1078.14,-125.008 1083.6,-93.4549 1080,-67 1078.52,-56.1271 1075.33,-44.2901 1072.36,-34.8109"/>
<polygon fill="midnightblue" stroke="midnightblue" points="1075.68,-33.6855 1069.22,-25.2874 1069.03,-35.8806 1075.68,-33.6855"/>
</g>
<!-- Node25&#45;&gt;Node22 -->
<g id="edge41" class="edge"><title>Node25&#45;&gt;Node22</title>
<path fill="none" stroke="midnightblue" d="M1088.78,-139.734C1108.51,-128.769 1142.51,-109.881 1165.61,-97.0495"/>
<polygon fill="midnightblue" stroke="midnightblue" points="1167.43,-100.043 1174.47,-92.1273 1164.03,-93.9242 1167.43,-100.043"/>
</g>
<!-- Node25&#45;&gt;Node24 -->
<g id="edge39" class="edge"><title>Node25&#45;&gt;Node24</title>
<path fill="none" stroke="midnightblue" d="M1113.97,-139.993C1165.46,-128.891 1248.21,-109.524 1257,-98 1274.17,-75.4799 1246.02,-47.6945 1224.33,-31.0737"/>
<polygon fill="midnightblue" stroke="midnightblue" points="1226.29,-28.1712 1216.16,-25.0834 1222.15,-33.8175 1226.29,-28.1712"/>
</g>
<!-- Node26&#45;&gt;Node4 -->
<g id="edge45" class="edge"><title>Node26&#45;&gt;Node4</title>
<path fill="none" stroke="midnightblue" d="M1172.95,-211.336C1070.64,-202.813 850.674,-182.691 821,-165 794.266,-149.061 746.11,-70.0804 725.177,-34.2414"/>
<polygon fill="midnightblue" stroke="midnightblue" points="728.076,-32.2638 720.035,-25.3652 722.019,-35.7726 728.076,-32.2638"/>
</g>
<!-- Node26&#45;&gt;Node17 -->
<g id="edge51" class="edge"><title>Node26&#45;&gt;Node17</title>
<path fill="none" stroke="midnightblue" d="M1260.85,-206.999C1270.6,-204.859 1281.17,-202.692 1291,-201 1417.69,-179.185 1450.87,-184.067 1578,-165 1586.62,-163.707 1595.72,-162.231 1604.62,-160.727"/>
<polygon fill="midnightblue" stroke="midnightblue" points="1605.27,-164.166 1614.53,-159.024 1604.08,-157.267 1605.27,-164.166"/>
</g>
<!-- Node26&#45;&gt;Node22 -->
<g id="edge46" class="edge"><title>Node26&#45;&gt;Node22</title>
<path fill="none" stroke="midnightblue" d="M1228.76,-206.605C1234.67,-191.259 1244.54,-159.045 1235,-134 1229.77,-120.282 1218.92,-107.921 1209.19,-98.8615"/>
<polygon fill="midnightblue" stroke="midnightblue" points="1211.25,-96.0165 1201.42,-92.0711 1206.64,-101.287 1211.25,-96.0165"/>
</g>
<!-- Node27 -->
<g id="node27" class="node"><title>Node27</title>
<polygon fill="none" stroke="#bfbfbf" points="1513,-140 1513,-159 1569,-159 1569,-140 1513,-140"/>
<text text-anchor="middle" x="1541" y="-147" font-family="Helvetica,sans-Serif" font-size="10.00">TClass.h</text>
</g>
<!-- Node26&#45;&gt;Node27 -->
<g id="edge47" class="edge"><title>Node26&#45;&gt;Node27</title>
<path fill="none" stroke="midnightblue" d="M1262.28,-206.976C1271.64,-204.929 1281.67,-202.812 1291,-201 1385.25,-182.694 1411.48,-190.652 1504,-165 1506.59,-164.282 1509.25,-163.446 1511.9,-162.545"/>
<polygon fill="midnightblue" stroke="midnightblue" points="1513.11,-165.83 1521.29,-159.093 1510.69,-159.26 1513.11,-165.83"/>
</g>
<!-- Node28 -->
<g id="node28" class="node"><title>Node28</title>
<polygon fill="none" stroke="#bfbfbf" points="1166.5,-140 1166.5,-159 1225.5,-159 1225.5,-140 1166.5,-140"/>
<text text-anchor="middle" x="1196" y="-147" font-family="Helvetica,sans-Serif" font-size="10.00">TROOT.h</text>
</g>
<!-- Node26&#45;&gt;Node28 -->
<g id="edge48" class="edge"><title>Node26&#45;&gt;Node28</title>
<path fill="none" stroke="midnightblue" d="M1221.09,-206.734C1216.74,-196.988 1209.6,-180.981 1204.04,-168.532"/>
<polygon fill="midnightblue" stroke="midnightblue" points="1207.12,-166.834 1199.85,-159.127 1200.73,-169.686 1207.12,-166.834"/>
</g>
<!-- Node29 -->
<g id="node29" class="node"><title>Node29</title>
<polygon fill="none" stroke="#bfbfbf" points="1282.5,-140 1282.5,-159 1347.5,-159 1347.5,-140 1282.5,-140"/>
<text text-anchor="middle" x="1315" y="-147" font-family="Helvetica,sans-Serif" font-size="10.00">TSystem.h</text>
</g>
<!-- Node26&#45;&gt;Node29 -->
<g id="edge49" class="edge"><title>Node26&#45;&gt;Node29</title>
<path fill="none" stroke="midnightblue" d="M1237.14,-206.734C1251.85,-196.111 1276.86,-178.049 1294.56,-165.264"/>
<polygon fill="midnightblue" stroke="midnightblue" points="1297,-167.82 1303.05,-159.127 1292.9,-162.145 1297,-167.82"/>
</g>
<!-- Node30 -->
<g id="node30" class="node"><title>Node30</title>
<polygon fill="none" stroke="#bfbfbf" points="1365.5,-140 1365.5,-159 1494.5,-159 1494.5,-140 1365.5,-140"/>
<text text-anchor="middle" x="1430" y="-147" font-family="Helvetica,sans-Serif" font-size="10.00">boost/filesystem/path.hpp</text>
</g>
<!-- Node26&#45;&gt;Node30 -->
<g id="edge50" class="edge"><title>Node26&#45;&gt;Node30</title>
<path fill="none" stroke="midnightblue" d="M1252.22,-206.869C1288.47,-195.376 1352.7,-175.008 1393.23,-162.159"/>
<polygon fill="midnightblue" stroke="midnightblue" points="1394.52,-165.422 1402.99,-159.064 1392.4,-158.75 1394.52,-165.422"/>
</g>
</g>
</svg>
