<?xml version="1.0" encoding="UTF-8" standalone="no"?>
<!DOCTYPE svg PUBLIC "-//W3C//DTD SVG 1.1//EN"
 "http://www.w3.org/Graphics/SVG/1.1/DTD/svg11.dtd">
<!-- Generated by graphviz version 2.38.0 (20140413.2041)
 -->
<!-- Title: Framework/include/QualityControl/Triggers.h Pages: 1 -->
<!--zoomable 240 -->
<svg id="main" version="1.1" xmlns="http://www.w3.org/2000/svg" xmlns:xlink="http://www.w3.org/1999/xlink" xml:space="preserve" onload="init(evt)">
<style type="text/css"><![CDATA[
.edge:hover path { stroke: red; }
.edge:hover polygon { stroke: red; fill: red; }
]]></style>
<script type="text/javascript"><![CDATA[
var edges = document.getElementsByTagName('g');
if (edges && edges.length) {
  for (var i=0;i<edges.length;i++) {
    if (edges[i].id.substr(0,4)=='edge') {
      edges[i].setAttribute('class','edge');
    }
  }
}
]]></script>
        <defs>
                <circle id="rim" cx="0" cy="0" r="7"/>
                <circle id="rim2" cx="0" cy="0" r="3.5"/>
                <g id="zoomPlus">
                        <use xlink:href="#rim" fill="#404040">
                                <set attributeName="fill" to="#808080" begin="zoomplus.mouseover" end="zoomplus.mouseout"/>
                        </use>
                        <path d="M-4,0h8M0,-4v8" fill="none" stroke="white" stroke-width="1.5" pointer-events="none"/>
                </g>
                <g id="zoomMin">
                        <use xlink:href="#rim" fill="#404040">
                                <set attributeName="fill" to="#808080" begin="zoomminus.mouseover" end="zoomminus.mouseout"/>
                        </use>
                        <path d="M-4,0h8" fill="none" stroke="white" stroke-width="1.5" pointer-events="none"/>
                </g>
                <g id="dirArrow">
                        <path fill="none" stroke="white" stroke-width="1.5" d="M0,-3.0v7 M-2.5,-0.5L0,-3.0L2.5,-0.5"/>
                </g>
               <g id="resetDef">
                       <use xlink:href="#rim2" fill="#404040">
                               <set attributeName="fill" to="#808080" begin="reset.mouseover" end="reset.mouseout"/>
                       </use>
               </g>
        </defs>

<script type="text/javascript">
var viewWidth = 1555;
var viewHeight = 240;
var sectionId = 'dynsection-1';
</script>
<script xlink:href="svgpan.js"/>
<svg id="graph" class="graph">
<g id="viewport">
<title>Framework/include/QualityControl/Triggers.h</title>
<!-- Node1 -->
<g id="node1" class="node"><title>Node1</title>
<polygon fill="#bfbfbf" stroke="black" points="675.5,-201.5 675.5,-231.5 808.5,-231.5 808.5,-201.5 675.5,-201.5"/>
<text text-anchor="start" x="683.5" y="-219.5" font-family="Helvetica,sans-Serif" font-size="10.00">Framework/include/Quality</text>
<text text-anchor="middle" x="742" y="-208.5" font-family="Helvetica,sans-Serif" font-size="10.00">Control/Triggers.h</text>
</g>
<!-- Node2 -->
<g id="node2" class="node"><title>Node2</title>
<g id="a_node2"><a xlink:href="PostProcessingInterface_8h.html" target="_top" xlink:title="Framework/include/Quality\lControl/PostProcessingInterface.h">
<polygon fill="none" stroke="black" points="714.5,-134.5 714.5,-164.5 881.5,-164.5 881.5,-134.5 714.5,-134.5"/>
<text text-anchor="start" x="722.5" y="-152.5" font-family="Helvetica,sans-Serif" font-size="10.00">Framework/include/Quality</text>
<text text-anchor="middle" x="798" y="-141.5" font-family="Helvetica,sans-Serif" font-size="10.00">Control/PostProcessingInterface.h</text>
</a>
</g>
</g>
<!-- Node1&#45;&gt;Node2 -->
<g id="edge1" class="edge"><title>Node1&#45;&gt;Node2</title>
<path fill="none" stroke="midnightblue" d="M760.75,-193.736C769.036,-184.119 778.539,-173.089 785.873,-164.577"/>
<polygon fill="midnightblue" stroke="midnightblue" points="758.027,-191.535 754.151,-201.396 763.33,-196.104 758.027,-191.535"/>
</g>
<!-- Node3 -->
<g id="node3" class="node"><title>Node3</title>
<g id="a_node3"><a xlink:href="PostProcessingRunner_8h.html" target="_top" xlink:title="Framework/include/Quality\lControl/PostProcessingRunner.h">
<polygon fill="none" stroke="black" points="419,-67.5 419,-97.5 579,-97.5 579,-67.5 419,-67.5"/>
<text text-anchor="start" x="427" y="-85.5" font-family="Helvetica,sans-Serif" font-size="10.00">Framework/include/Quality</text>
<text text-anchor="middle" x="499" y="-74.5" font-family="Helvetica,sans-Serif" font-size="10.00">Control/PostProcessingRunner.h</text>
</a>
</g>
</g>
<!-- Node1&#45;&gt;Node3 -->
<g id="edge16" class="edge"><title>Node1&#45;&gt;Node3</title>
<path fill="none" stroke="midnightblue" d="M706.961,-196.467C657.572,-169.638 568.629,-121.323 524.818,-97.5247"/>
<polygon fill="midnightblue" stroke="midnightblue" points="705.537,-199.676 715.995,-201.374 708.878,-193.525 705.537,-199.676"/>
</g>
<!-- Node10 -->
<g id="node10" class="node"><title>Node10</title>
<g id="a_node10"><a xlink:href="testTrendingTask_8cxx.html" target="_top" xlink:title="Framework/test/testTrending\lTask.cxx">
<polygon fill="none" stroke="black" points="752,-0.5 752,-30.5 894,-30.5 894,-0.5 752,-0.5"/>
<text text-anchor="start" x="760" y="-18.5" font-family="Helvetica,sans-Serif" font-size="10.00">Framework/test/testTrending</text>
<text text-anchor="middle" x="823" y="-7.5" font-family="Helvetica,sans-Serif" font-size="10.00">Task.cxx</text>
</a>
</g>
</g>
<!-- Node1&#45;&gt;Node10 -->
<g id="edge22" class="edge"><title>Node1&#45;&gt;Node10</title>
<path fill="none" stroke="midnightblue" d="M721.389,-193.729C714.828,-185.395 708.396,-175.382 705,-165 699.624,-148.567 695.919,-82.0851 706,-67 717.678,-49.5254 736.801,-38.0658 756.235,-30.5635"/>
<polygon fill="midnightblue" stroke="midnightblue" points="718.771,-196.054 727.885,-201.455 724.128,-191.549 718.771,-196.054"/>
</g>
<!-- Node17 -->
<g id="node17" class="node"><title>Node17</title>
<g id="a_node17"><a xlink:href="TriggerHelpers_8h.html" target="_top" xlink:title="Framework/include/Quality\lControl/TriggerHelpers.h">
<polygon fill="none" stroke="black" points="151.5,-134.5 151.5,-164.5 284.5,-164.5 284.5,-134.5 151.5,-134.5"/>
<text text-anchor="start" x="159.5" y="-152.5" font-family="Helvetica,sans-Serif" font-size="10.00">Framework/include/Quality</text>
<text text-anchor="middle" x="218" y="-141.5" font-family="Helvetica,sans-Serif" font-size="10.00">Control/TriggerHelpers.h</text>
</a>
</g>
</g>
<!-- Node1&#45;&gt;Node17 -->
<g id="edge17" class="edge"><title>Node1&#45;&gt;Node17</title>
<path fill="none" stroke="midnightblue" d="M665.371,-205.994C562.629,-193.25 381.913,-170.833 284.575,-158.758"/>
<polygon fill="midnightblue" stroke="midnightblue" points="665.014,-209.477 675.369,-207.235 665.876,-202.53 665.014,-209.477"/>
</g>
<!-- Node20 -->
<g id="node20" class="node"><title>Node20</title>
<g id="a_node20"><a xlink:href="Triggers_8cxx.html" target="_top" xlink:title="Framework/src/Triggers.cxx">
<polygon fill="none" stroke="black" points="899.5,-140 899.5,-159 1038.5,-159 1038.5,-140 899.5,-140"/>
<text text-anchor="middle" x="969" y="-147" font-family="Helvetica,sans-Serif" font-size="10.00">Framework/src/Triggers.cxx</text>
</a>
</g>
</g>
<!-- Node1&#45;&gt;Node20 -->
<g id="edge21" class="edge"><title>Node1&#45;&gt;Node20</title>
<path fill="none" stroke="midnightblue" d="M800.774,-198.671C845.138,-185.967 904.169,-169.064 939.215,-159.029"/>
<polygon fill="midnightblue" stroke="midnightblue" points="799.626,-195.358 790.976,-201.476 801.553,-202.088 799.626,-195.358"/>
</g>
<!-- Node21 -->
<g id="node21" class="node"><title>Node21</title>
<g id="a_node21"><a xlink:href="testTriggers_8cxx.html" target="_top" xlink:title="Framework/test/testTriggers.cxx">
<polygon fill="none" stroke="black" points="1057,-140 1057,-159 1215,-159 1215,-140 1057,-140"/>
<text text-anchor="middle" x="1136" y="-147" font-family="Helvetica,sans-Serif" font-size="10.00">Framework/test/testTriggers.cxx</text>
</a>
</g>
</g>
<!-- Node1&#45;&gt;Node21 -->
<g id="edge23" class="edge"><title>Node1&#45;&gt;Node21</title>
<path fill="none" stroke="midnightblue" d="M819.133,-202.775C897.469,-189.852 1016.6,-170.198 1084.27,-159.035"/>
<polygon fill="midnightblue" stroke="midnightblue" points="818.134,-199.392 808.837,-204.474 819.273,-206.299 818.134,-199.392"/>
</g>
<!-- Node2&#45;&gt;Node3 -->
<g id="edge2" class="edge"><title>Node2&#45;&gt;Node3</title>
<path fill="none" stroke="midnightblue" d="M723.552,-132.316C674.412,-121.633 610.665,-107.775 563.652,-97.5549"/>
<polygon fill="midnightblue" stroke="midnightblue" points="722.974,-135.772 733.49,-134.476 724.461,-128.932 722.974,-135.772"/>
</g>
<!-- Node8 -->
<g id="node8" class="node"><title>Node8</title>
<g id="a_node8"><a xlink:href="TrendingTask_8h.html" target="_top" xlink:title="Framework/include/Quality\lControl/TrendingTask.h">
<polygon fill="none" stroke="black" points="715.5,-67.5 715.5,-97.5 848.5,-97.5 848.5,-67.5 715.5,-67.5"/>
<text text-anchor="start" x="723.5" y="-85.5" font-family="Helvetica,sans-Serif" font-size="10.00">Framework/include/Quality</text>
<text text-anchor="middle" x="782" y="-74.5" font-family="Helvetica,sans-Serif" font-size="10.00">Control/TrendingTask.h</text>
</a>
</g>
</g>
<!-- Node2&#45;&gt;Node8 -->
<g id="edge7" class="edge"><title>Node2&#45;&gt;Node8</title>
<path fill="none" stroke="midnightblue" d="M792.068,-124.403C789.845,-115.37 787.393,-105.408 785.465,-97.5765"/>
<polygon fill="midnightblue" stroke="midnightblue" points="788.739,-125.522 794.528,-134.396 795.537,-123.849 788.739,-125.522"/>
</g>
<!-- Node11 -->
<g id="node11" class="node"><title>Node11</title>
<g id="a_node11"><a xlink:href="PostProcessingInterface_8cxx.html" target="_top" xlink:title="Framework/src/PostProcessing\lInterface.cxx">
<polygon fill="none" stroke="black" points="867,-67.5 867,-97.5 1021,-97.5 1021,-67.5 867,-67.5"/>
<text text-anchor="start" x="875" y="-85.5" font-family="Helvetica,sans-Serif" font-size="10.00">Framework/src/PostProcessing</text>
<text text-anchor="middle" x="944" y="-74.5" font-family="Helvetica,sans-Serif" font-size="10.00">Interface.cxx</text>
</a>
</g>
</g>
<!-- Node2&#45;&gt;Node11 -->
<g id="edge10" class="edge"><title>Node2&#45;&gt;Node11</title>
<path fill="none" stroke="midnightblue" d="M838.95,-130.269C862.204,-119.916 890.872,-107.153 912.382,-97.5765"/>
<polygon fill="midnightblue" stroke="midnightblue" points="837.392,-127.131 829.68,-134.396 840.239,-133.526 837.392,-127.131"/>
</g>
<!-- Node12 -->
<g id="node12" class="node"><title>Node12</title>
<g id="a_node12"><a xlink:href="testPostProcessingInterface_8cxx.html" target="_top" xlink:title="Framework/test/testPostProcessing\lInterface.cxx">
<polygon fill="none" stroke="black" points="1039.5,-67.5 1039.5,-97.5 1212.5,-97.5 1212.5,-67.5 1039.5,-67.5"/>
<text text-anchor="start" x="1047.5" y="-85.5" font-family="Helvetica,sans-Serif" font-size="10.00">Framework/test/testPostProcessing</text>
<text text-anchor="middle" x="1126" y="-74.5" font-family="Helvetica,sans-Serif" font-size="10.00">Interface.cxx</text>
</a>
</g>
</g>
<!-- Node2&#45;&gt;Node12 -->
<g id="edge11" class="edge"><title>Node2&#45;&gt;Node12</title>
<path fill="none" stroke="midnightblue" d="M878.658,-132.516C932.699,-121.807 1003.18,-107.839 1055.08,-97.5549"/>
<polygon fill="midnightblue" stroke="midnightblue" points="877.896,-129.099 868.767,-134.476 879.257,-135.965 877.896,-129.099"/>
</g>
<!-- Node13 -->
<g id="node13" class="node"><title>Node13</title>
<g id="a_node13"><a xlink:href="TrendingTaskITS_8h.html" target="_top" xlink:title="Modules/ITS/include\l/ITS/TrendingTaskITS.h">
<polygon fill="none" stroke="black" points="1231,-67.5 1231,-97.5 1353,-97.5 1353,-67.5 1231,-67.5"/>
<text text-anchor="start" x="1239" y="-85.5" font-family="Helvetica,sans-Serif" font-size="10.00">Modules/ITS/include</text>
<text text-anchor="middle" x="1292" y="-74.5" font-family="Helvetica,sans-Serif" font-size="10.00">/ITS/TrendingTaskITS.h</text>
</a>
</g>
</g>
<!-- Node2&#45;&gt;Node13 -->
<g id="edge12" class="edge"><title>Node2&#45;&gt;Node13</title>
<path fill="none" stroke="midnightblue" d="M891.98,-133.78C1038.45,-114.746 1078.08,-120.317 1221,-98 1224.23,-97.4954 1227.54,-96.9437 1230.87,-96.3597"/>
<polygon fill="midnightblue" stroke="midnightblue" points="891.17,-130.356 881.712,-135.132 892.083,-137.297 891.17,-130.356"/>
</g>
<!-- Node15 -->
<g id="node15" class="node"><title>Node15</title>
<g id="a_node15"><a xlink:href="SkeletonPostProcessing_8h.html" target="_top" xlink:title="Modules/Skeleton/include\l/Skeleton/SkeletonPostProcessing.h">
<polygon fill="none" stroke="black" points="1371,-67.5 1371,-97.5 1547,-97.5 1547,-67.5 1371,-67.5"/>
<text text-anchor="start" x="1379" y="-85.5" font-family="Helvetica,sans-Serif" font-size="10.00">Modules/Skeleton/include</text>
<text text-anchor="middle" x="1459" y="-74.5" font-family="Helvetica,sans-Serif" font-size="10.00">/Skeleton/SkeletonPostProcessing.h</text>
</a>
</g>
</g>
<!-- Node2&#45;&gt;Node15 -->
<g id="edge14" class="edge"><title>Node2&#45;&gt;Node15</title>
<path fill="none" stroke="midnightblue" d="M891.764,-133.853C1100.69,-109.968 1156.2,-121.199 1362,-98 1364.88,-97.6757 1367.8,-97.3306 1370.75,-96.9688"/>
<polygon fill="midnightblue" stroke="midnightblue" points="891.229,-130.391 881.698,-135.017 892.034,-137.345 891.229,-130.391"/>
</g>
<!-- Node4 -->
<g id="node4" class="node"><title>Node4</title>
<polygon fill="none" stroke="#bfbfbf" points="0,-0.5 0,-30.5 154,-30.5 154,-0.5 0,-0.5"/>
<text text-anchor="start" x="8" y="-18.5" font-family="Helvetica,sans-Serif" font-size="10.00">Framework/src/PostProcessing</text>
<text text-anchor="middle" x="77" y="-7.5" font-family="Helvetica,sans-Serif" font-size="10.00">Runner.cxx</text>
</g>
<!-- Node3&#45;&gt;Node4 -->
<g id="edge3" class="edge"><title>Node3&#45;&gt;Node4</title>
<path fill="none" stroke="midnightblue" d="M408.626,-68.3637C340.95,-58.418 246.113,-44.2513 163,-31 160.159,-30.547 157.266,-30.0814 154.344,-29.6076"/>
<polygon fill="midnightblue" stroke="midnightblue" points="408.427,-71.8718 418.829,-69.8613 409.443,-64.946 408.427,-71.8718"/>
</g>
<!-- Node5 -->
<g id="node5" class="node"><title>Node5</title>
<g id="a_node5"><a xlink:href="runPostProcessing_8cxx.html" target="_top" xlink:title="This is a standalone executable to run postprocessing. ">
<polygon fill="none" stroke="black" points="172,-6 172,-25 358,-25 358,-6 172,-6"/>
<text text-anchor="middle" x="265" y="-13" font-family="Helvetica,sans-Serif" font-size="10.00">Framework/src/runPostProcessing.cxx</text>
</a>
</g>
</g>
<!-- Node3&#45;&gt;Node5 -->
<g id="edge4" class="edge"><title>Node3&#45;&gt;Node5</title>
<path fill="none" stroke="midnightblue" d="M438.702,-64.7505C392.937,-52.038 331.906,-35.0851 295.703,-25.0287"/>
<polygon fill="midnightblue" stroke="midnightblue" points="437.942,-68.1718 448.514,-67.476 439.815,-61.4272 437.942,-68.1718"/>
</g>
<!-- Node6 -->
<g id="node6" class="node"><title>Node6</title>
<g id="a_node6"><a xlink:href="runPostProcessingOCC_8cxx.html" target="_top" xlink:title="This is an OCC executable to run postprocessing. ">
<polygon fill="none" stroke="black" points="375.5,-0.5 375.5,-30.5 542.5,-30.5 542.5,-0.5 375.5,-0.5"/>
<text text-anchor="start" x="383.5" y="-18.5" font-family="Helvetica,sans-Serif" font-size="10.00">Framework/src/runPostProcessing</text>
<text text-anchor="middle" x="459" y="-7.5" font-family="Helvetica,sans-Serif" font-size="10.00">OCC.cxx</text>
</a>
</g>
</g>
<!-- Node3&#45;&gt;Node6 -->
<g id="edge5" class="edge"><title>Node3&#45;&gt;Node6</title>
<path fill="none" stroke="midnightblue" d="M485.072,-58.8669C479.283,-49.4594 472.744,-38.8334 467.662,-30.5765"/>
<polygon fill="midnightblue" stroke="midnightblue" points="482.099,-60.7137 490.321,-67.396 488.06,-57.045 482.099,-60.7137"/>
</g>
<!-- Node7 -->
<g id="node7" class="node"><title>Node7</title>
<g id="a_node7"><a xlink:href="testPostProcessingRunner_8cxx.html" target="_top" xlink:title="Framework/test/testPostProcessing\lRunner.cxx">
<polygon fill="none" stroke="black" points="560.5,-0.5 560.5,-30.5 733.5,-30.5 733.5,-0.5 560.5,-0.5"/>
<text text-anchor="start" x="568.5" y="-18.5" font-family="Helvetica,sans-Serif" font-size="10.00">Framework/test/testPostProcessing</text>
<text text-anchor="middle" x="647" y="-7.5" font-family="Helvetica,sans-Serif" font-size="10.00">Runner.cxx</text>
</a>
</g>
</g>
<!-- Node3&#45;&gt;Node7 -->
<g id="edge6" class="edge"><title>Node3&#45;&gt;Node7</title>
<path fill="none" stroke="midnightblue" d="M540.511,-63.2687C564.084,-52.9159 593.144,-40.1528 614.949,-30.5765"/>
<polygon fill="midnightblue" stroke="midnightblue" points="538.862,-60.1702 531.114,-67.396 541.677,-66.5793 538.862,-60.1702"/>
</g>
<!-- Node9 -->
<g id="node9" class="node"><title>Node9</title>
<g id="a_node9"><a xlink:href="TrendingTask_8cxx.html" target="_top" xlink:title="Framework/src/TrendingTask.cxx">
<polygon fill="none" stroke="black" points="912.5,-6 912.5,-25 1075.5,-25 1075.5,-6 912.5,-6"/>
<text text-anchor="middle" x="994" y="-13" font-family="Helvetica,sans-Serif" font-size="10.00">Framework/src/TrendingTask.cxx</text>
</a>
</g>
</g>
<!-- Node8&#45;&gt;Node9 -->
<g id="edge8" class="edge"><title>Node8&#45;&gt;Node9</title>
<path fill="none" stroke="midnightblue" d="M837.413,-64.5102C878.786,-51.8251 933.59,-35.0219 966.183,-25.0287"/>
<polygon fill="midnightblue" stroke="midnightblue" points="836.275,-61.1983 827.74,-67.476 838.327,-67.8908 836.275,-61.1983"/>
</g>
<!-- Node8&#45;&gt;Node10 -->
<g id="edge9" class="edge"><title>Node8&#45;&gt;Node10</title>
<path fill="none" stroke="midnightblue" d="M796.276,-58.8669C802.21,-49.4594 808.913,-38.8334 814.121,-30.5765"/>
<polygon fill="midnightblue" stroke="midnightblue" points="793.271,-57.0707 790.896,-67.396 799.192,-60.8053 793.271,-57.0707"/>
</g>
<!-- Node14 -->
<g id="node14" class="node"><title>Node14</title>
<g id="a_node14"><a xlink:href="TrendingTaskITS_8cxx.html" target="_top" xlink:title="Modules/ITS/src/Trending\lTaskITS.cxx">
<polygon fill="none" stroke="black" points="1227.5,-0.5 1227.5,-30.5 1356.5,-30.5 1356.5,-0.5 1227.5,-0.5"/>
<text text-anchor="start" x="1235.5" y="-18.5" font-family="Helvetica,sans-Serif" font-size="10.00">Modules/ITS/src/Trending</text>
<text text-anchor="middle" x="1292" y="-7.5" font-family="Helvetica,sans-Serif" font-size="10.00">TaskITS.cxx</text>
</a>
</g>
</g>
<!-- Node13&#45;&gt;Node14 -->
<g id="edge13" class="edge"><title>Node13&#45;&gt;Node14</title>
<path fill="none" stroke="midnightblue" d="M1292,-57.1081C1292,-48.1539 1292,-38.3227 1292,-30.5765"/>
<polygon fill="midnightblue" stroke="midnightblue" points="1288.5,-57.3959 1292,-67.396 1295.5,-57.396 1288.5,-57.3959"/>
</g>
<!-- Node16 -->
<g id="node16" class="node"><title>Node16</title>
<polygon fill="none" stroke="#bfbfbf" points="1386,-0.5 1386,-30.5 1532,-30.5 1532,-0.5 1386,-0.5"/>
<text text-anchor="start" x="1394" y="-18.5" font-family="Helvetica,sans-Serif" font-size="10.00">Modules/Skeleton/src</text>
<text text-anchor="middle" x="1459" y="-7.5" font-family="Helvetica,sans-Serif" font-size="10.00">/SkeletonPostProcessing.cxx</text>
</g>
<!-- Node15&#45;&gt;Node16 -->
<g id="edge15" class="edge"><title>Node15&#45;&gt;Node16</title>
<path fill="none" stroke="midnightblue" d="M1459,-57.1081C1459,-48.1539 1459,-38.3227 1459,-30.5765"/>
<polygon fill="midnightblue" stroke="midnightblue" points="1455.5,-57.3959 1459,-67.396 1462.5,-57.396 1455.5,-57.3959"/>
</g>
<!-- Node17&#45;&gt;Node4 -->
<g id="edge18" class="edge"><title>Node17&#45;&gt;Node4</title>
<path fill="none" stroke="midnightblue" d="M199.61,-126.506C184.985,-109.527 163.623,-85.831 143,-67 128.51,-53.769 110.789,-40.3435 97.3589,-30.6643"/>
<polygon fill="midnightblue" stroke="midnightblue" points="197.064,-128.914 206.216,-134.252 202.39,-124.372 197.064,-128.914"/>
</g>
<!-- Node18 -->
<g id="node18" class="node"><title>Node18</title>
<g id="a_node18"><a xlink:href="TriggerHelpers_8cxx.html" target="_top" xlink:title="Framework/src/TriggerHelpers.cxx">
<polygon fill="none" stroke="black" points="189.5,-73 189.5,-92 356.5,-92 356.5,-73 189.5,-73"/>
<text text-anchor="middle" x="273" y="-80" font-family="Helvetica,sans-Serif" font-size="10.00">Framework/src/TriggerHelpers.cxx</text>
</a>
</g>
</g>
<!-- Node17&#45;&gt;Node18 -->
<g id="edge19" class="edge"><title>Node17&#45;&gt;Node18</title>
<path fill="none" stroke="midnightblue" d="M236.482,-126.657C246.461,-114.865 258.22,-100.967 265.643,-92.1945"/>
<polygon fill="midnightblue" stroke="midnightblue" points="233.722,-124.501 229.934,-134.396 239.065,-129.023 233.722,-124.501"/>
</g>
<!-- Node19 -->
<g id="node19" class="node"><title>Node19</title>
<g id="a_node19"><a xlink:href="testTriggerHelpers_8cxx.html" target="_top" xlink:title="Framework/test/testTrigger\lHelpers.cxx">
<polygon fill="none" stroke="black" points="0,-67.5 0,-97.5 134,-97.5 134,-67.5 0,-67.5"/>
<text text-anchor="start" x="8" y="-85.5" font-family="Helvetica,sans-Serif" font-size="10.00">Framework/test/testTrigger</text>
<text text-anchor="middle" x="67" y="-74.5" font-family="Helvetica,sans-Serif" font-size="10.00">Helpers.cxx</text>
</a>
</g>
</g>
<!-- Node17&#45;&gt;Node19 -->
<g id="edge20" class="edge"><title>Node17&#45;&gt;Node19</title>
<path fill="none" stroke="midnightblue" d="M175.968,-130.407C151.861,-120.029 122.046,-107.195 99.7008,-97.5765"/>
<polygon fill="midnightblue" stroke="midnightblue" points="174.666,-133.657 185.235,-134.396 177.434,-127.227 174.666,-133.657"/>
</g>
</g>
</svg>
        <g id="navigator" transform="translate(0 0)" fill="#404254">
                <rect fill="#f2f5e9" fill-opacity="0.5" stroke="#606060" stroke-width=".5" x="0" y="0" width="60" height="60"/>
                <use id="zoomplus" xlink:href="#zoomPlus" x="17" y="9" onmousedown="handleZoom(evt,'in')"/>
                <use id="zoomminus" xlink:href="#zoomMin" x="42" y="9" onmousedown="handleZoom(evt,'out')"/>
                <use id="reset" xlink:href="#resetDef" x="30" y="36" onmousedown="handleReset()"/>
                <g id="arrowUp" xlink:href="#dirArrow" transform="translate(30 24)" onmousedown="handlePan(0,-1)">
                  <use xlink:href="#rim" fill="#404040">
                        <set attributeName="fill" to="#808080" begin="arrowUp.mouseover" end="arrowUp.mouseout"/>
                  </use>
                  <path fill="none" stroke="white" stroke-width="1.5" d="M0,-3.0v7 M-2.5,-0.5L0,-3.0L2.5,-0.5"/>
                </g>
                <g id="arrowRight" xlink:href="#dirArrow" transform="rotate(90) translate(36 -43)" onmousedown="handlePan(1,0)">
                  <use xlink:href="#rim" fill="#404040">
                        <set attributeName="fill" to="#808080" begin="arrowRight.mouseover" end="arrowRight.mouseout"/>
                  </use>
                  <path fill="none" stroke="white" stroke-width="1.5" d="M0,-3.0v7 M-2.5,-0.5L0,-3.0L2.5,-0.5"/>
                </g>
                <g id="arrowDown" xlink:href="#dirArrow" transform="rotate(180) translate(-30 -48)" onmousedown="handlePan(0,1)">
                  <use xlink:href="#rim" fill="#404040">
                        <set attributeName="fill" to="#808080" begin="arrowDown.mouseover" end="arrowDown.mouseout"/>
                  </use>
                  <path fill="none" stroke="white" stroke-width="1.5" d="M0,-3.0v7 M-2.5,-0.5L0,-3.0L2.5,-0.5"/>
                </g>
                <g id="arrowLeft" xlink:href="#dirArrow" transform="rotate(270) translate(-36 17)" onmousedown="handlePan(-1,0)">
                  <use xlink:href="#rim" fill="#404040">
                        <set attributeName="fill" to="#808080" begin="arrowLeft.mouseover" end="arrowLeft.mouseout"/>
                  </use>
                  <path fill="none" stroke="white" stroke-width="1.5" d="M0,-3.0v7 M-2.5,-0.5L0,-3.0L2.5,-0.5"/>
                </g>
        </g>
        <svg viewBox="0 0 15 15" width="100%" height="30px" preserveAspectRatio="xMaxYMin meet">
         <g id="arrow_out" transform="scale(0.3 0.3)">
          <a xlink:href="Triggers_8h__dep__incl_org.svg" target="_base">
           <rect id="button" ry="5" rx="5" y="6" x="6" height="38" width="38"
                fill="#f2f5e9" fill-opacity="0.5" stroke="#606060" stroke-width="1.0"/>
           <path id="arrow"
             d="M 11.500037,31.436501 C 11.940474,20.09759 22.043105,11.32322 32.158766,21.979434 L 37.068811,17.246167 C 37.068811,17.246167 37.088388,32 37.088388,32 L 22.160133,31.978069 C 22.160133,31.978069 26.997745,27.140456 26.997745,27.140456 C 18.528582,18.264221 13.291696,25.230495 11.500037,31.436501 z"
             style="fill:#404040;"/>
          </a>
         </g>
        </svg>
</svg>
